<?xml version="1.0" encoding="UTF-8"?>
<svg id="_デザイン" data-name="デザイン" xmlns="http://www.w3.org/2000/svg" viewBox="0 0 61.18 81.17">
  <defs>
    <style>
      .cls-1 {
        fill: #fff;
      }

      .cls-2 {
        fill: none;
        stroke: #fff;
        stroke-miterlimit: 10;
        stroke-width: 2px;
      }
    </style>
  </defs>
  <g>
    <path class="cls-1" d="M1.99,75.11c0-3.07,1.79-6.09,5.51-6.09,2.26,0,4.07,1.12,4.95,3.38l-2.3,.89c-.4-1.23-1.37-2.06-2.65-2.06-2.16,0-3.05,1.93-3.05,3.89s.88,3.86,3.05,3.86c1.28,0,2.26-.81,2.62-2.03l2.2,.83c-.76,2.13-2.53,3.4-4.8,3.4-3.67,0-5.53-2.88-5.53-6.06Z"/>
    <path class="cls-1" d="M15.7,78.57v-14.18h2.41v13.52c0,.67,.28,1.08,1.05,1.08,.2,0,.53-.04,.84-.08v2.04c-.56,.12-1.35,.22-1.96,.22-1.45,0-2.36-.67-2.36-2.6Z"/>
    <path class="cls-1" d="M22.28,75.06c0-3.32,2.36-6.05,5.88-6.05s5.89,2.73,5.89,6.05-2.37,6.11-5.89,6.11-5.88-2.77-5.88-6.11Zm9.26,0c0-2.13-1.09-3.95-3.38-3.95s-3.36,1.8-3.36,3.95,1.08,4.01,3.36,4.01,3.38-1.86,3.38-4.01Z"/>
    <path class="cls-1" d="M36.27,77.95l1.95-.86c.35,.97,1.16,2.05,2.8,2.05,1.46,0,2.17-.82,2.17-1.64,0-2.37-6.19-.82-6.19-4.98,0-2.34,1.98-3.5,4.23-3.5,1.96,0,3.47,.94,4.34,2.51l-1.88,1.02c-.46-.83-1.22-1.61-2.54-1.61-1.12,0-1.83,.54-1.83,1.27,0,2.14,6.25,.82,6.25,5.18,0,2.59-2.19,3.79-4.43,3.79-2.41,0-4.28-1.43-4.86-3.22Z"/>
    <path class="cls-1" d="M48.31,75.14c0-3.14,1.8-6.13,5.58-6.13,4.02,0,5.31,3.22,5.31,5.74,0,.45-.05,.93-.09,1.09h-8.24c.21,1.9,1.22,3.12,3.23,3.12,1.17,0,2.12-.35,3.02-1.32l1.66,1.46c-1.29,1.41-2.77,2.06-4.7,2.06-3.87,0-5.78-2.81-5.78-6.02Zm8.5-1.05c.01-.26-.01-.5-.07-.74-.23-1.32-1.25-2.3-2.87-2.3-1.83,0-2.75,1.28-3,3.04h5.94Z"/>
  </g>
  <g>
    <line class="cls-2" x1=".59" y1="44.81" x2="60.59" y2=".81"/>
    <line class="cls-2" x1="60.59" y1="44.81" x2=".59" y2=".81"/>
  </g>
</svg>