<?xml version="1.0" encoding="UTF-8"?>
<svg id="_デザイン" data-name="デザイン" xmlns="http://www.w3.org/2000/svg" viewBox="0 0 118.96 26.24">
  <g>
    <path d="M4.18,1.54c-.27,.98-.65,1.71-1.21,2.27,.59,.5,1.38,.94,2.42,1.27-.07,.07-.13,.18-.18,.28-.04,.07-.05,.1-.08,.1-.02,0-.05,0-.09-.02-1.01-.38-1.77-.85-2.34-1.36-.59,.52-1.35,.96-2.33,1.33-.04,.01-.07,.02-.09,.02-.04,0-.05-.02-.08-.09-.05-.09-.11-.19-.19-.24,1.1-.37,1.84-.78,2.42-1.29-.58-.6-.95-1.31-1.24-2.27h-.21c-.58,0-.77,.01-.8,.01-.04,0-.05,0-.05-.05v-.28s0-.05,.05-.05c.03,0,.22,.01,.8,.01h1.51v-.41c0-.31,0-.5-.05-.67,.15,0,.29,.01,.42,.03,.04,0,.07,.03,.07,.05,0,.04-.02,.07-.04,.12-.03,.06-.03,.15-.03,.46v.42h1.6c.58,0,.77-.01,.8-.01,.05,0,.05,0,.05,.05v.28s0,.05-.05,.05c-.03,0-.22-.01-.8-.01h-.28ZM1.56,1.54c.26,.84,.58,1.47,1.14,2.02,.53-.53,.85-1.16,1.07-2.02H1.56Z"/>
    <path d="M7.08,3c0-.24,.01-.61,.02-.92-.24,.34-.51,.66-.81,.95-.04,.04-.07,.06-.08,.06-.03,0-.05-.02-.07-.08-.04-.1-.1-.17-.16-.23,.71-.65,1.24-1.4,1.56-2.22,.06-.15,.1-.29,.11-.4,.15,.04,.25,.08,.37,.14,.05,.02,.07,.04,.07,.07s-.02,.05-.05,.08c-.04,.03-.08,.09-.14,.23-.13,.28-.27,.58-.44,.86v2.99c0,.64,.01,.91,.01,.94,0,.04,0,.05-.05,.05h-.29s-.05,0-.05-.05c0-.03,.01-.3,.01-.94v-1.53Zm1.96,1.51c0,.29,.05,.4,.24,.45,.15,.04,.38,.04,.76,.04s.59-.04,.74-.16c.12-.1,.2-.35,.23-.9,.07,.06,.16,.12,.27,.16,.11,.04,.1,.05,.09,.16-.05,.51-.15,.76-.34,.9-.21,.15-.55,.2-.99,.2-.48,0-.79,0-1-.08-.21-.08-.36-.24-.36-.64V.9c0-.31,0-.49-.04-.68,.16,0,.28,.02,.4,.04,.05,0,.08,.02,.08,.05,0,.04-.01,.07-.03,.11-.03,.06-.04,.15-.04,.46v1.76c.5-.31,.98-.68,1.44-1.15,.08-.09,.18-.21,.24-.32,.12,.07,.23,.16,.32,.24,.04,.04,.05,.06,.05,.09,0,.04-.04,.07-.09,.08-.07,.02-.17,.12-.32,.25-.44,.42-.96,.8-1.64,1.22v1.45Z"/>
    <path d="M17.44,1.08s0,.05-.05,.05c-.04,0-.22-.01-.79-.01h-.83v.04c0,.35,.01,.49,.01,.52,0,.04,0,.05-.05,.05h-.27s-.05,0-.05-.05c0-.04,.01-.17,.01-.52v-.04h-1.27v.05c0,.35,.01,.48,.01,.51,0,.04,0,.05-.05,.05h-.27s-.05,0-.05-.05c0-.04,.01-.17,.01-.51v-.05h-.81c-.57,0-.76,.01-.79,.01-.04,0-.05,0-.05-.05v-.25s0-.05,.05-.05c.03,0,.22,.01,.79,.01h.81c0-.25,0-.48-.04-.65,.16,0,.27,.01,.37,.03,.05,.01,.08,.03,.08,.06,0,.02-.01,.04-.03,.08-.02,.06-.04,.2-.04,.45v.02h1.27c0-.26,0-.49-.04-.65,.16,0,.27,.02,.38,.04,.04,0,.07,.02,.07,.05s-.01,.05-.02,.08c-.02,.05-.04,.19-.04,.46v.02h.83c.57,0,.76-.01,.79-.01,.04,0,.05,0,.05,.05v.25Zm0,2.43s0,.05-.05,.05c-.04,0-.22-.01-.8-.01h-2.15c-.18,.45-.38,.89-.58,1.28,.79-.06,1.63-.15,2.28-.24-.14-.18-.31-.35-.48-.53-.03-.03-.04-.05,.04-.09l.13-.08c.06-.04,.07-.04,.11-.01,.46,.44,.85,.9,1.17,1.37,.02,.04,.02,.05-.04,.09l-.18,.12s-.06,.04-.08,.04c-.02,0-.02-.01-.04-.04-.11-.19-.25-.39-.39-.58-1.03,.16-2.31,.3-3.4,.38-.18,.02-.21,.03-.25,.05-.04,.02-.07,.04-.1,.04-.04,0-.06-.02-.08-.07-.04-.12-.07-.25-.1-.39,.25,0,.44,0,.62,0l.36-.02c.22-.43,.43-.88,.59-1.31h-.94c-.58,0-.76,.01-.8,.01-.04,0-.05,0-.05-.05v-.27s0-.05,.05-.05c.04,0,.22,.01,.8,.01h3.51c.58,0,.76-.01,.8-.01,.04,0,.05,0,.05,.05v.27Zm-.69-1.1s0,.04-.05,.04c-.04,0-.24-.01-.85-.01h-2.12c-.61,0-.82,.01-.85,.01-.05,0-.05,0-.05-.04v-.27s0-.05,.05-.05c.03,0,.24,.01,.85,.01h2.12c.61,0,.82-.01,.85-.01,.04,0,.05,0,.05,.05v.27Z"/>
    <path d="M18.76,3.59c0-.22,.01-.51,.02-.75-.15,.16-.3,.33-.48,.48-.03,.03-.05,.05-.07,.05-.02,0-.04-.02-.06-.07-.04-.1-.08-.16-.14-.22,.53-.45,.85-.87,1.11-1.38,.05-.09,.09-.21,.12-.3,.12,.05,.21,.11,.3,.17,.04,.03,.07,.05,.07,.08s-.02,.05-.05,.07c-.04,.02-.09,.08-.14,.18-.09,.16-.19,.33-.32,.5v2.25c0,.53,.01,.75,.01,.78,0,.04,0,.05-.05,.05h-.28s-.05,0-.05-.05c0-.03,.01-.25,.01-.78v-1.08Zm.82-3.17s-.1,.07-.15,.15c-.27,.39-.61,.75-1.07,1.12-.04,.03-.07,.05-.08,.05-.02,0-.04-.03-.07-.08-.05-.09-.1-.15-.16-.21,.46-.31,.81-.68,1.08-1.08,.08-.12,.12-.2,.13-.27,.12,.05,.23,.12,.32,.18,.04,.03,.06,.05,.06,.08s-.02,.05-.05,.07Zm.65,2.27s-.05,.13-.06,.24c-.06,.46-.18,1.02-.38,1.51-.02,.05-.03,.07-.05,.07-.02,0-.04-.01-.08-.03-.08-.04-.16-.06-.24-.07,.25-.55,.36-1.07,.41-1.48,.01-.14,.02-.31,0-.43,.14,.01,.26,.03,.34,.05,.06,.01,.08,.03,.08,.07,0,.02-.01,.05-.03,.08Zm1.59-.96s0,.05-.05,.05c-.03,0-.16-.01-.63-.01h-.18v2.62c0,.7,.01,1.01,.01,1.05,0,.04,0,.05-.05,.05h-.28s-.05,0-.05-.05c0-.04,.01-.35,.01-1.04V1.77h-.19c-.47,0-.6,.01-.64,.01-.04,0-.05,0-.05-.05v-.25s0-.05,.05-.05c.04,0,.17,.01,.64,.01h.19V.93c0-.4,0-.58-.04-.78,.16,0,.27,.02,.39,.04,.04,0,.07,.02,.07,.05,0,.04-.02,.06-.03,.11-.02,.07-.04,.2-.04,.58v.52h.18c.47,0,.6-.01,.63-.01,.04,0,.05,0,.05,.05v.25Zm-.45-1.36s.06-.03,.08,0c.16,.19,.27,.36,.38,.59,.02,.04,.01,.05-.04,.08l-.12,.08c-.07,.05-.08,.05-.11,0-.1-.22-.22-.42-.36-.6-.03-.04-.02-.05,.03-.08l.13-.07Zm.19,2.13c.05-.02,.07-.01,.08,.03,.18,.54,.29,1.04,.38,1.59,0,.04,0,.05-.06,.08l-.17,.06c-.08,.03-.1,.03-.1-.02-.07-.58-.18-1.09-.34-1.61-.01-.04-.01-.05,.05-.07l.16-.05Zm2.05-.41s0,.05-.05,.05c-.03,0-.14-.01-.54-.01h-.03v1.8c0,.42,0,.7,0,.95,0,.2-.04,.36-.16,.44-.12,.08-.32,.1-.73,.09q-.12,0-.14-.13c-.02-.08-.06-.18-.1-.25,.21,.02,.39,.04,.55,.04,.14,0,.22-.06,.22-.25V2.14h-.16c-.39,0-.51,.01-.54,.01-.05,0-.05,0-.05-.05v-.24s0-.05,.05-.05c.03,0,.14,.01,.54,.01h.55c.4,0,.51-.01,.54-.01,.04,0,.05,0,.05,.05v.24Zm-.14-1.25s0,.05-.04,.05-.13-.01-.47-.01h-.39c-.35,0-.44,.01-.47,.01-.04,0-.05,0-.05-.05v-.25s0-.05,.05-.05c.03,0,.12,.01,.47,.01h.39c.34,0,.44-.01,.47-.01s.04,0,.04,.05v.25Z"/>
    <path d="M24.41,1.75s.05-.05,.09-.03c.29,.16,.59,.39,.86,.65,.03,.03,.02,.04-.02,.1l-.12,.17c-.05,.07-.06,.07-.1,.03-.25-.25-.54-.5-.84-.68-.04-.02-.04-.04,0-.09l.12-.15Zm.47,3.41c-.07,.11-.12,.2-.13,.25-.01,.04-.04,.06-.07,.06-.02,0-.04,0-.08-.04-.09-.07-.18-.13-.27-.22,.12-.13,.22-.26,.35-.47,.15-.27,.38-.74,.64-1.34,.05,.06,.11,.13,.17,.18,.06,.05,.08,.07,.08,.1,0,.02-.01,.05-.03,.1-.21,.48-.44,.96-.66,1.38Zm-.13-4.91s.05-.05,.09-.02c.29,.19,.58,.42,.81,.67,.03,.04,.03,.05-.01,.1l-.13,.16c-.05,.06-.07,.07-.1,.03-.24-.26-.54-.51-.81-.7-.04-.03-.04-.04,.01-.09l.13-.15Zm4.87,2.06s0,.05-.04,.05-.24-.01-.85-.01h-.9v.99h.51c.56,0,.75-.01,.78-.01,.04,0,.05,0,.05,.05,0,.03-.01,.18-.01,.57v.51c0,.84,.01,.98,.01,1.01s0,.04-.05,.04h-.28s-.05,0-.05-.04v-.27h-2.24v.3s0,.05-.05,.05h-.27s-.05,0-.05-.05c0-.03,.01-.17,.01-1.02v-.46c0-.46-.01-.61-.01-.64,0-.04,0-.05,.05-.05,.03,0,.22,.01,.79,.01h.42v-.99h-.82c-.62,0-.82,.01-.85,.01-.04,0-.05,0-.05-.05v-.26s0-.05,.05-.05c.03,0,.24,.01,.85,.01h.82v-.98c-.4,.08-.81,.15-1.23,.21-.13,.02-.13,.01-.17-.1-.03-.09-.07-.16-.12-.22,1-.11,2.13-.35,2.68-.57,.14-.05,.23-.1,.31-.16,.1,.07,.18,.15,.26,.22,.04,.04,.05,.05,.05,.08s-.02,.05-.07,.06c-.05,0-.14,.02-.23,.05-.34,.12-.72,.23-1.11,.32v1.07h.9c.61,0,.82-.01,.85-.01s.04,0,.04,.05v.26Zm-.83,1.34h-2.24v1.23h2.24v-1.23Z"/>
    <path d="M33.18,1.48s0,.05-.04,.05c-.03,0-.22-.01-.78-.01h-.42v.39h.33c.51,0,.68-.01,.72-.01,.04,0,.05,0,.05,.05,0,.03-.01,.15-.01,.5v.59c0,.34,.01,.47,.01,.5,0,.04,0,.05-.05,.05-.04,0-.16-.01-.72-.01h-.33v.39h.32c.53,0,.7-.01,.74-.01,.04,0,.05,0,.05,.05v.22s0,.05-.05,.05c-.04,0-.21-.01-.74-.01h-.32v.44c.38-.05,.76-.11,1.11-.18-.02,.07-.04,.13-.04,.18-.01,.13-.01,.12-.13,.14-.7,.14-1.42,.24-2.16,.33-.12,.01-.21,.04-.24,.05s-.05,.03-.07,.03c-.03,0-.05-.02-.07-.07-.02-.09-.06-.22-.08-.35,.21,0,.38,0,.62-.02,.21-.02,.47-.04,.74-.07v-.48h-.42c-.53,0-.7,.01-.74,.01-.04,0-.05,0-.05-.05v-.22s0-.05,.05-.05c.04,0,.21,.01,.74,.01h.42v-.39h-.3c-.51,0-.68,.01-.72,.01-.04,0-.05,0-.05-.05,0-.04,.01-.16,.01-.5v-.59c0-.35-.01-.47-.01-.5,0-.04,0-.05,.05-.05,.04,0,.21,.01,.72,.01h.3v-.39h-.51c-.55,0-.74,.01-.77,.01-.04,0-.05,0-.05-.05v-.22s0-.05,.05-.05c.03,0,.22,.01,.77,.01h.51v-.4c-.3,.04-.59,.08-.93,.11-.11,0-.12,.01-.16-.07-.04-.09-.08-.16-.13-.21,.88-.05,1.48-.15,2.08-.31,.11-.03,.21-.07,.28-.12,.1,.07,.18,.14,.24,.2,.04,.04,.05,.05,.05,.08,0,.04-.05,.05-.1,.05s-.15,.02-.24,.04c-.27,.07-.51,.12-.76,.17v.46h.42c.56,0,.74-.01,.77-.01,.04,0,.04,0,.04,.05v.22Zm-1.56,.68h-.73v.44h.73v-.44Zm0,.68h-.73v.46h.73v-.46Zm1.1-.68h-.77v.44h.77v-.44Zm0,.68h-.77v.46h.77v-.46Zm2.03-1.32c.48,0,.63-.01,.67-.01,.04,0,.05,.01,.05,.05-.01,.19-.01,.36-.01,.54-.01,.96-.05,1.95-.17,2.7-.07,.42-.28,.61-.65,.61-.17,0-.3,0-.43-.01-.1,0-.1-.04-.11-.1,0-.11-.04-.21-.08-.29,.2,.04,.39,.05,.59,.05s.3-.11,.34-.42c.11-.65,.16-1.68,.16-2.79h-.73c-.02,.61-.09,1.21-.22,1.7-.21,.78-.52,1.37-1.16,1.87-.05,.04-.07,.05-.09,.05-.02,0-.04-.02-.08-.05-.07-.07-.15-.13-.24-.16,.68-.43,1.02-1.04,1.24-1.83,.11-.4,.17-.97,.2-1.57h-.06c-.47,0-.62,.01-.65,.01-.05,0-.05,0-.05-.05v-.25s0-.05,.05-.05c.03,0,.17,.01,.65,.01h.07c0-.23,.01-.46,.01-.68,0-.38,0-.52-.04-.75,.14,0,.27,.02,.39,.04,.04,0,.07,.03,.07,.05,0,.04-.01,.07-.03,.13-.02,.06-.04,.24-.04,.56,0,.21,0,.43,0,.64h.36Z"/>
    <path d="M40.22,3.39c.41,.35,.88,.58,1.62,.73-.06,.06-.12,.13-.16,.22-.05,.11-.06,.1-.17,.07-.79-.24-1.28-.54-1.71-1.02h-1.62c-.38,.39-.87,.75-1.63,1.05-.11,.04-.11,.04-.17-.05-.05-.08-.1-.14-.16-.19,.71-.22,1.2-.51,1.53-.8h-.58c-.57,0-.75,.01-.79,.01s-.04,0-.04-.05v-.22s0-.05,.04-.05,.22,.01,.79,.01h.52V1.13h-.22c-.59,0-.8,.01-.83,.01-.04,0-.05,0-.05-.05v-.24s0-.05,.05-.05c.03,0,.24,.01,.83,.01h.22v-.02c0-.36,0-.56-.04-.71,.15,0,.26,.02,.39,.04,.04,0,.07,.02,.07,.05,0,.04-.02,.07-.04,.11-.02,.06-.03,.2-.03,.52v.02h1.87v-.02c0-.36,0-.56-.04-.71,.14,0,.26,.02,.39,.04,.04,0,.07,.02,.07,.05,0,.04-.02,.07-.04,.12-.02,.05-.03,.19-.03,.52v.02h.3c.59,0,.79-.01,.83-.01,.04,0,.05,0,.05,.05v.24s0,.05-.05,.05c-.04,0-.24-.01-.83-.01h-.3v1.95h.58c.57,0,.75-.01,.79-.01,.04,0,.05,0,.05,.05v.22s0,.05-.05,.05c-.04,0-.22-.01-.79-.01h-.62Zm1.13,1.92s0,.05-.05,.05c-.04,0-.23-.01-.84-.01h-2.91c-.61,0-.81,.01-.84,.01-.04,0-.05,0-.05-.05v-.24s0-.05,.05-.05c.04,0,.24,.01,.84,.01h1.27v-.55h-.48c-.57,0-.75,.01-.78,.01-.04,0-.05,0-.05-.05v-.23s0-.05,.05-.05c.03,0,.21,.01,.78,.01h.48v-.05c0-.24-.01-.38-.04-.52,.15,0,.26,.02,.38,.03,.04,0,.06,.02,.06,.05s-.01,.05-.02,.08c-.02,.05-.03,.16-.03,.34v.06h.5c.56,0,.75-.01,.79-.01,.04,0,.05,0,.05,.05v.23s0,.05-.05,.05c-.04,0-.22-.01-.79-.01h-.5v.55h1.3c.61,0,.8-.01,.84-.01,.04,0,.05,0,.05,.05v.24Zm-1.43-4.17h-1.87v.44h1.87v-.44Zm0,.73h-1.87v.45h1.87v-.45Zm0,.74h-1.87v.48h1.87v-.48Z"/>
    <path d="M45,1.59c-.02,.06-.03,.1-.04,.18-.01,.1-.02,.1-.13,.12l-.11,.02v.26c0,.28,0,.57,0,.81,0,.17-.03,.3-.14,.38-.1,.07-.21,.1-.52,.11-.12,0-.13,0-.15-.12-.02-.08-.05-.15-.1-.21,.18,.02,.3,.02,.42,.02,.1,0,.16-.05,.16-.22v-.98l-.47,.07v.47c0,.26,.01,.35,.01,.39,0,.04,0,.05-.05,.05h-.22s-.04,0-.04-.05c0-.04,.01-.13,.01-.39v-.42l-.41,.05c-.03,.48-.13,.86-.43,1.27-.03,.05-.05,.07-.07,.07-.02,0-.04-.02-.09-.05-.06-.04-.15-.07-.22-.09,.33-.36,.45-.67,.5-1.15h-.15c-.13,.02-.18,.04-.21,.06-.02,.01-.05,.03-.08,.03s-.05-.02-.06-.06c-.02-.09-.04-.19-.06-.3,.14,0,.25,0,.49-.02,.03,0,.06,0,.09,0,0-.14,0-.29,0-.46v-.32c0-.33-.01-.47-.01-.51,0-.04,0-.05,.05-.05,.04,0,.16,.01,.57,.01h.01c.05-.11,.08-.21,.12-.31,.02-.07,.03-.14,.04-.22,.13,.02,.22,.04,.33,.07,.04,.01,.05,.04,.05,.07s-.02,.05-.04,.07c-.03,.03-.05,.07-.07,.12-.03,.08-.06,.14-.09,.21h.22c.4,0,.53-.01,.56-.01,.04,0,.05,0,.05,.05,0,.04-.01,.18-.01,.51v.56l.29-.05Zm2.75,3.75s0,.05-.05,.05c-.03,0-.22-.01-.78-.01h-3.73c-.56,0-.75,.01-.78,.01-.04,0-.05,0-.05-.05v-.24s0-.05,.05-.05c.02,0,.2,.01,.67,.01v-.83c0-.33-.01-.47-.01-.51,0-.04,0-.05,.05-.05,.03,0,.25,.01,.86,.01h2.1c.61,0,.82-.01,.86-.01,.04,0,.05,0,.05,.05,0,.04-.01,.18-.01,.51v.83c.51,0,.69-.01,.72-.01,.04,0,.05,0,.05,.05v.24Zm-3.34-4.53h-1.15v.63c0,.14,0,.27,0,.39,.38-.04,.78-.09,1.16-.15V.81Zm-.15,3.17h-.81v1.07h.81v-1.07Zm-.59-2.99s.05-.03,.08,0c.13,.13,.24,.25,.34,.41,.02,.04,.02,.05-.03,.08l-.1,.06c-.06,.04-.07,.05-.1,0-.1-.15-.19-.29-.32-.41-.03-.03-.02-.04,.04-.08l.08-.05Zm1.75,2.99h-.82v1.07h.82v-1.07Zm1.5-2.22c.05,0,.08-.01,.1-.02,.02,0,.04-.01,.06-.01s.06,.02,.15,.08c.08,.08,.11,.12,.11,.15,0,.02-.02,.05-.05,.07-.04,.02-.08,.09-.15,.19-.17,.23-.36,.44-.6,.62,.35,.21,.76,.35,1.21,.42-.05,.05-.1,.13-.13,.19-.04,.11-.05,.12-.16,.09-.44-.1-.84-.27-1.18-.52-.33,.2-.71,.36-1.19,.47-.12,.02-.13,.02-.18-.1-.03-.07-.07-.12-.12-.16,.5-.09,.91-.24,1.23-.41-.24-.21-.44-.47-.59-.78-.18,0-.25,0-.28,0-.04,0-.05,0-.05-.05v-.2s0-.05,.05-.05c.04,0,.19,.01,.66,.01h1.12Zm-.05-.73c0,.08,.01,.12,.05,.15,.04,.02,.11,.04,.22,.04,.16,0,.22-.02,.27-.09,.05-.06,.05-.16,.06-.39,.06,.05,.12,.08,.2,.11,.09,.04,.1,.04,.08,.15-.03,.22-.08,.32-.15,.39-.07,.07-.25,.11-.48,.11-.18,0-.34-.02-.42-.05-.1-.04-.16-.11-.16-.3V.54h-.68c0,.48-.15,.82-.54,1.03-.04,.02-.07,.04-.09,.04-.03,0-.05-.02-.09-.08-.05-.05-.1-.1-.16-.14,.44-.12,.58-.41,.58-.92,0-.1-.01-.14-.01-.17,0-.04,0-.05,.05-.05,.04,0,.11,.01,.42,.01h.38c.32,0,.41-.01,.44-.01,.04,0,.05,0,.05,.05,0,.03-.01,.13-.01,.36v.37Zm-1.14,1.01c.15,.25,.34,.46,.56,.63,.27-.19,.46-.41,.6-.63h-1.16Zm.9,1.94h-.85v1.07h.85v-1.07Z"/>
    <path d="M50.14,1.5c0,.35,.01,.48,.01,.52,0,.04,0,.05-.05,.05-.03,0-.14-.01-.47-.01h-.54c-.04,.34-.08,.63-.12,.91h.7c.32,0,.39,0,.42,0,.04,0,.05,.01,.05,.05-.01,.11-.02,.24-.02,.35-.07,1.13-.2,1.59-.3,1.79-.1,.19-.27,.3-.54,.3-.1,0-.23,0-.37-.01-.1,0-.1-.01-.12-.13-.02-.1-.05-.2-.08-.26,.2,.03,.34,.05,.51,.05,.11,0,.24-.04,.29-.12,.1-.13,.2-.57,.28-1.7h-.86l-.05,.25q-.02,.07-.2,.04c-.17-.03-.17-.04-.15-.12,.1-.42,.18-.85,.21-1.25,.02-.16,.03-.29,.02-.42,0-.04,.01-.05,.05-.05,.04,0,.13,.01,.39,.01h.61V.75h-.69c-.38,0-.48,.01-.51,.01-.04,0-.05,0-.05-.04V.46s0-.05,.05-.05c.03,0,.13,.01,.51,.01h.52c.33,0,.44-.01,.47-.01,.04,0,.05,0,.05,.05,0,.03-.01,.16-.01,.51v.52Zm2.86,2.62s.06-.02,.09,.01c.28,.29,.55,.7,.75,1.07,.02,.04,.01,.05-.05,.08l-.15,.07c-.07,.04-.08,.04-.1,0-.08-.15-.17-.32-.27-.47-.75,.15-1.71,.3-2.48,.4-.13,.02-.22,.05-.26,.07-.03,.02-.05,.02-.08,.02s-.05-.02-.07-.07c-.04-.12-.07-.24-.09-.38,.2,.01,.37,.01,.67-.02,.24-.02,.54-.05,.87-.1v-.93h-.42c-.55,0-.75,.01-.78,.01-.04,0-.05,0-.05-.05,0-.04,.01-.14,.01-.47v-.52c0-.33-.01-.44-.01-.47,0-.04,0-.05,.05-.05,.04,0,.23,.01,.78,.01h.42v-.67c-.32,.03-.65,.05-.95,.07-.15,.01-.2,.03-.25,.05-.02,.01-.04,.02-.07,.02-.02,0-.04-.02-.06-.07-.02-.1-.05-.24-.07-.36,.17,.01,.38,.02,.52,.01,.22-.34,.39-.71,.47-.92,.05-.15,.1-.27,.11-.41,.13,.03,.23,.05,.35,.09,.05,.02,.08,.05,.08,.08,0,.03-.03,.07-.06,.09-.04,.03-.07,.08-.1,.16-.12,.25-.31,.6-.47,.88,.59-.03,1.21-.08,1.65-.13-.15-.18-.31-.35-.45-.49-.03-.03-.03-.04,.04-.08l.13-.08c.05-.04,.07-.04,.1,0,.33,.31,.73,.76,.98,1.11,.03,.04,.02,.05-.04,.1l-.16,.1s-.05,.04-.07,.04-.02-.01-.04-.04c-.07-.12-.15-.24-.24-.37-.29,.04-.65,.07-1.04,.1v.7h.5c.56,0,.75-.01,.78-.01,.04,0,.05,0,.05,.05,0,.03-.01,.13-.01,.47v.52c0,.33,.01,.43,.01,.47,0,.04,0,.05-.05,.05-.03,0-.22-.01-.78-.01h-.5v.88c.33-.05,.65-.1,.93-.16-.09-.13-.18-.24-.25-.33-.02-.03-.02-.04,.05-.08l.13-.07Zm-1.19-1.47h-.9v.92h.9v-.92Zm1.31,0h-.97v.92h.97v-.92Z"/>
    <path d="M55.5,3c0-.24,.01-.61,.02-.92-.24,.34-.51,.66-.81,.95-.04,.04-.07,.06-.08,.06-.03,0-.05-.02-.07-.08-.04-.1-.1-.17-.16-.23,.71-.65,1.24-1.4,1.56-2.22,.06-.15,.1-.29,.11-.4,.15,.04,.25,.08,.37,.14,.05,.02,.07,.04,.07,.07s-.02,.05-.05,.08c-.04,.03-.08,.09-.14,.23-.13,.28-.27,.58-.44,.86v2.99c0,.64,.01,.91,.01,.94,0,.04,0,.05-.05,.05h-.29s-.05,0-.05-.05c0-.03,.01-.3,.01-.94v-1.53Zm1.96,1.51c0,.29,.05,.4,.24,.45,.15,.04,.38,.04,.76,.04s.59-.04,.74-.16c.12-.1,.2-.35,.23-.9,.07,.06,.16,.12,.27,.16,.11,.04,.1,.05,.09,.16-.05,.51-.15,.76-.34,.9-.21,.15-.55,.2-.99,.2-.48,0-.79,0-1-.08-.21-.08-.36-.24-.36-.64V.9c0-.31,0-.49-.04-.68,.16,0,.28,.02,.4,.04,.05,0,.08,.02,.08,.05,0,.04-.01,.07-.03,.11-.03,.06-.04,.15-.04,.46v1.76c.5-.31,.98-.68,1.44-1.15,.08-.09,.18-.21,.24-.32,.12,.07,.23,.16,.32,.24,.04,.04,.05,.06,.05,.09,0,.04-.04,.07-.09,.08-.07,.02-.17,.12-.32,.25-.44,.42-.96,.8-1.64,1.22v1.45Z"/>
    <path d="M64.43,3.39c.41,.35,.88,.58,1.62,.73-.06,.06-.12,.13-.16,.22-.05,.11-.06,.1-.17,.07-.79-.24-1.28-.54-1.71-1.02h-1.62c-.38,.39-.87,.75-1.63,1.05-.11,.04-.11,.04-.17-.05-.05-.08-.1-.14-.16-.19,.71-.22,1.2-.51,1.53-.8h-.58c-.57,0-.75,.01-.79,.01s-.04,0-.04-.05v-.22s0-.05,.04-.05,.22,.01,.79,.01h.52V1.13h-.22c-.59,0-.8,.01-.83,.01-.04,0-.05,0-.05-.05v-.24s0-.05,.05-.05c.03,0,.24,.01,.83,.01h.22v-.02c0-.36,0-.56-.04-.71,.15,0,.26,.02,.39,.04,.04,0,.07,.02,.07,.05,0,.04-.02,.07-.04,.11-.02,.06-.03,.2-.03,.52v.02h1.87v-.02c0-.36,0-.56-.04-.71,.14,0,.26,.02,.39,.04,.04,0,.07,.02,.07,.05,0,.04-.02,.07-.04,.12-.02,.05-.03,.19-.03,.52v.02h.3c.59,0,.79-.01,.83-.01,.04,0,.05,0,.05,.05v.24s0,.05-.05,.05c-.04,0-.24-.01-.83-.01h-.3v1.95h.58c.57,0,.75-.01,.79-.01,.04,0,.05,0,.05,.05v.22s0,.05-.05,.05c-.04,0-.22-.01-.79-.01h-.62Zm1.13,1.92s0,.05-.05,.05c-.04,0-.23-.01-.84-.01h-2.91c-.61,0-.81,.01-.84,.01-.04,0-.05,0-.05-.05v-.24s0-.05,.05-.05c.04,0,.24,.01,.84,.01h1.27v-.55h-.48c-.57,0-.75,.01-.78,.01-.04,0-.05,0-.05-.05v-.23s0-.05,.05-.05c.03,0,.21,.01,.78,.01h.48v-.05c0-.24-.01-.38-.04-.52,.15,0,.26,.02,.38,.03,.04,0,.06,.02,.06,.05s-.01,.05-.02,.08c-.02,.05-.03,.16-.03,.34v.06h.5c.56,0,.75-.01,.79-.01,.04,0,.05,0,.05,.05v.23s0,.05-.05,.05c-.04,0-.22-.01-.79-.01h-.5v.55h1.3c.61,0,.8-.01,.84-.01,.04,0,.05,0,.05,.05v.24Zm-1.43-4.17h-1.87v.44h1.87v-.44Zm0,.73h-1.87v.45h1.87v-.45Zm0,.74h-1.87v.48h1.87v-.48Z"/>
    <path d="M71.97,2.31c-.04,.07-.05,.09-.08,.09-.02,0-.05-.01-.1-.03-1.02-.41-1.91-.98-2.56-1.86-.68,.91-1.49,1.47-2.47,1.92q-.1,.04-.17-.05c-.05-.08-.12-.15-.19-.19,1.15-.49,1.99-1.13,2.5-1.85,.1-.15,.13-.21,.18-.34,.14,.02,.28,.04,.39,.08,.05,.02,.08,.04,.08,.08,0,.02-.01,.04-.04,.05-.02,.01-.04,.02-.05,.04,.74,.97,1.64,1.47,2.7,1.82-.06,.05-.13,.15-.18,.24Zm-.2,2.94s0,.05-.05,.05c-.03,0-.23-.01-.82-.01h-3.28c-.59,0-.78,.01-.82,.01-.04,0-.05,0-.05-.05v-.26s0-.05,.05-.05c.04,0,.23,.01,.82,.01h1.41v-1.59h-1.21c-.6,0-.8,.01-.84,.01-.04,0-.05,0-.05-.05v-.25s0-.05,.05-.05c.04,0,.24,.01,.84,.01h1.21v-.76h-.37c-.54,0-.73,0-.76,0-.04,0-.05,0-.05-.04v-.25s0-.05,.05-.05c.03,0,.21,.01,.76,.01h1.19c.55,0,.73-.01,.76-.01,.04,0,.05,0,.05,.05v.25s0,.04-.05,.04c-.04,0-.22,0-.76,0h-.45v.76h1.31c.61,0,.81-.01,.84-.01,.04,0,.05,0,.05,.05v.25c0,.05,0,.05-.05,.05-.03,0-.23-.01-.84-.01h-1.31v1.59h1.5c.59,0,.79-.01,.82-.01,.04,0,.05,0,.05,.05v.26Zm-3.94-1.59c.07-.03,.08-.04,.11,0,.19,.27,.32,.53,.45,.84,.02,.04,.02,.06-.05,.09l-.19,.09c-.08,.04-.09,.05-.11,0-.13-.36-.25-.6-.43-.87-.02-.04-.02-.05,.05-.08l.16-.07Zm3.07,.21s-.05,.06-.1,.15c-.14,.27-.28,.52-.43,.73-.04,.04-.05,.06-.07,.06-.02,0-.04-.01-.08-.04-.06-.04-.14-.08-.21-.1,.19-.25,.35-.52,.48-.81,.05-.11,.07-.18,.09-.27,.13,.04,.23,.08,.31,.13,.05,.03,.07,.05,.07,.08,0,.04-.03,.05-.06,.08Z"/>
    <path d="M1.92,9.53c-.83,.71-1.1,1.4-1.1,2.26s.27,1.56,1.1,2.26l-.12,.14c-.93-.72-1.29-1.44-1.29-2.41s.36-1.69,1.29-2.41l.12,.14Z"/>
    <path d="M5.11,10.55c.15,0,.19-.02,.25-.05,.04-.02,.07-.01,.13,.02,.06,.04,.14,.1,.2,.16s.05,.11,.01,.15c-.05,.04-.09,.09-.13,.17-.3,.64-.62,1.16-.95,1.54-.45,.51-.97,.95-1.54,1.28-.04,.02-.07,.01-.11-.01-.07-.06-.16-.11-.28-.14,.73-.4,1.17-.78,1.64-1.31,.37-.43,.65-.87,.93-1.51l-1.42,.04c-.37,.46-.63,.76-.98,1.06-.05,.05-.1,.05-.15,0-.05-.04-.15-.08-.25-.1,.62-.5,.99-.94,1.29-1.44,.16-.26,.22-.42,.25-.62,.15,.04,.3,.11,.37,.17,.05,.04,.05,.09,0,.13-.05,.03-.11,.1-.15,.17-.07,.12-.13,.21-.2,.31l1.11-.02Z"/>
    <path d="M7.29,10.67c0-.31-.02-.54-.05-.72,.13,.01,.31,.05,.41,.08,.06,.02,.06,.07,.04,.12-.03,.06-.05,.21-.05,.52v.84c0,.26,0,.44,.02,.65,0,.06-.02,.08-.07,.08h-.23s-.07-.02-.06-.07c0-.21,0-.44,0-.68v-.82Zm2.07,.89c0,.77-.18,1.22-.43,1.54-.24,.29-.64,.57-1.08,.73-.05,.02-.09,.02-.14-.02-.07-.07-.14-.13-.25-.18,.5-.15,.92-.4,1.15-.68,.24-.3,.4-.7,.4-1.35v-.85c0-.48-.01-.69-.05-.87,.15,.01,.31,.04,.42,.08,.06,.02,.06,.07,.04,.12-.04,.07-.05,.22-.05,.65v.83Z"/>
    <path d="M12.9,12.75h.86c.32,0,.59,0,.91-.02,.05,0,.07,0,.07,.06v.23s-.01,.06-.07,.06c-.28,0-.6-.02-.9-.02h-2.09c-.24,0-.58,.02-.8,.03-.05,0-.07,0-.08-.07,0-.07-.02-.19-.02-.29,.32,.02,.6,.02,.9,.02h.87v-1.86h-.48c-.3,0-.52,0-.75,.02-.04,0-.05-.01-.06-.07,0-.06-.02-.2-.02-.29,.27,.02,.48,.02,.82,.02h1.28c.31,0,.56,0,.87-.01,.04,0,.05,0,.05,.05v.24s0,.06-.05,.06c-.32-.01-.56-.02-.86-.02h-.42v1.86Z"/>
    <path d="M17.66,12.82c0,.3,0,.58,.01,.9,0,.04,0,.06-.05,.06-.09,0-.2,0-.29,0-.04,0-.05-.01-.05-.06,0-.3,.02-.59,.02-.88v-1.46c-.52,.46-1,.8-1.55,1.12-.04,.02-.08,.01-.11-.02-.06-.06-.15-.11-.25-.16,.61-.34,1.13-.69,1.54-1.04,.38-.32,.73-.67,.96-.95,.21-.25,.3-.4,.34-.56,.13,.07,.27,.15,.34,.22,.05,.05,.04,.11-.02,.14-.06,.03-.15,.12-.28,.26-.21,.25-.39,.45-.62,.68v1.76Z"/>
    <path d="M22.28,10.46c.17,0,.22-.02,.26-.05,.04-.04,.08-.04,.13,0,.06,.04,.15,.13,.21,.2,.04,.05,.03,.09-.02,.13-.04,.03-.08,.07-.12,.15-.21,.46-.49,.92-.79,1.31,.2,.16,.4,.34,.59,.54,.03,.03,.01,.05,0,.09-.03,.06-.11,.13-.16,.17-.04,.03-.05,.03-.08,0-.17-.19-.37-.39-.55-.54-.51,.58-1.05,.99-1.72,1.35-.05,.03-.09,.04-.13,0-.08-.07-.17-.12-.28-.16,.75-.38,1.36-.82,1.86-1.39-.21-.17-.49-.35-.78-.5,.05-.07,.11-.14,.17-.2,.02-.02,.04-.03,.08-.01,.22,.11,.5,.3,.74,.46,.28-.35,.55-.81,.72-1.23l-1.46,.03c-.34,.46-.61,.76-1.08,1.15-.05,.04-.08,.05-.13,.01-.06-.05-.14-.1-.24-.14,.68-.52,1.12-1.06,1.41-1.6,.11-.2,.16-.33,.2-.49,.12,.03,.25,.1,.35,.17,.06,.04,.04,.1-.01,.14-.06,.04-.11,.11-.14,.17-.05,.09-.1,.17-.18,.29l1.13-.02Z"/>
    <path d="M24.77,12.01c-.43,0-.64,.05-.67,.05-.04,0-.07-.02-.08-.07-.02-.08-.04-.24-.05-.38,.3,.04,.68,.04,1.09,.04h1.52c.34,0,.71,0,1.08-.02,.06,0,.07,0,.07,.06,0,.07,0,.18,0,.26,0,.05-.01,.06-.07,.06-.37,0-.74,0-1.07,0h-1.82Z"/>
    <path d="M30.62,10.2s0,.04-.04,.04c-.03,0-.14,0-.52,0h-.15c.07,.12,.14,.25,.2,.42,.01,.03,0,.04-.04,.06l-.17,.05c-.05,.02-.06,.01-.07-.03-.06-.18-.12-.35-.21-.5h-.41c-.13,.21-.28,.4-.48,.6-.04,.03-.05,.05-.07,.05-.02,0-.04-.02-.07-.05-.04-.05-.09-.09-.15-.12,.33-.3,.55-.57,.71-.96,.02-.04,.05-.12,.06-.2,.09,.01,.21,.04,.28,.06,.03,0,.05,.03,.05,.05,0,.03-.02,.05-.04,.07-.02,.02-.04,.05-.08,.12l-.07,.14h.72c.38,0,.49,0,.52,0,.04,0,.04,0,.04,.04v.19Zm2.21,1.78s0,.04-.04,.04-.18,0-.65,0h-2.94c-.46,0-.62,0-.65,0-.04,0-.04,0-.04-.04v-.2s0-.04,.04-.04c.03,0,.18,0,.65,0h1.27v-.47h-.73c-.5,0-.68,0-.7,0-.04,0-.04,0-.04-.04v-.2s0-.04,.04-.04c.02,0,.2,.01,.7,.01h.73c0-.14,0-.24-.03-.35,.13,0,.23,.02,.31,.04,.03,0,.05,.02,.05,.04,0,.02,0,.04-.02,.07-.01,.03-.03,.09-.03,.2h.84c.5,0,.67-.01,.7-.01s.03,0,.03,.04v.2s0,.04-.03,.04-.2,0-.7,0h-.84v.47h1.38c.46,0,.62,0,.65,0s.04,0,.04,.04v.2Zm-.11,.77s0,.04-.04,.04c-.03,0-.19,0-.67,0h-.3v.17c0,.2,0,.41,0,.6,0,.15-.04,.27-.14,.34-.09,.05-.22,.09-.58,.09q-.1,0-.12-.1c-.02-.07-.06-.15-.1-.21,.16,.01,.29,.02,.46,.02,.12,0,.18-.05,.18-.2v-.71h-2.08c-.48,0-.64,0-.67,0-.03,0-.04,0-.04-.04v-.2s0-.04,.04-.04c.02,0,.19,.01,.67,.01h2.08c0-.19-.01-.32-.04-.43,.12,0,.23,.01,.32,.03,.04,0,.06,.03,.06,.04,0,.03-.01,.05-.03,.09-.02,.04-.02,.12-.02,.27h.3c.48,0,.64-.01,.67-.01,.03,0,.04,0,.04,.04v.2Zm-3.11,.17s.05-.03,.08,0c.21,.16,.38,.34,.55,.56,.02,.03,.02,.04-.02,.07l-.15,.11c-.06,.04-.06,.04-.09,0-.15-.22-.33-.42-.52-.58-.03-.03-.02-.04,.01-.07l.13-.09Zm3.2-2.71s0,.04-.04,.04c-.02,0-.16,0-.59,0h-.37c.09,.13,.16,.26,.23,.42,0,.03,0,.04-.05,.06l-.16,.05c-.05,.02-.06,.02-.08-.03-.06-.17-.14-.35-.24-.5h-.45c-.07,.13-.16,.25-.27,.37-.04,.04-.05,.06-.07,.06-.01,0-.04-.01-.07-.04-.05-.04-.11-.07-.16-.09,.24-.24,.39-.47,.48-.78,.02-.05,.03-.11,.05-.21,.1,.01,.22,.03,.29,.05,.04,0,.05,.03,.05,.05,0,.03-.01,.04-.03,.06-.03,.02-.04,.05-.07,.11l-.06,.16h.99c.43,0,.57,0,.59,0,.03,0,.04,0,.04,.04v.19Z"/>
    <path d="M37.79,10.33s0,.04-.04,.04c-.02,0-.18,0-.64,0h-1.84c-.14,.23-.28,.45-.42,.63,.61-.02,1.26-.06,1.8-.11-.11-.09-.23-.17-.36-.26-.04-.02-.04-.04,0-.07l.1-.09s.05-.03,.08,0c.34,.2,.73,.52,1,.8,.03,.03,.03,.04-.02,.08l-.12,.11s-.05,.04-.08,0c-.11-.13-.22-.24-.35-.36-.85,.09-1.95,.16-2.86,.2-.14,0-.18,0-.21,.03-.01,.01-.04,.02-.05,.02s-.04-.02-.05-.05c-.02-.07-.04-.2-.06-.3,.16,0,.33,.01,.5,0,.11,0,.22,0,.34,0,.17-.23,.3-.44,.41-.64h-.77c-.46,0-.62,0-.64,0-.03,0-.04,0-.04-.04v-.2s0-.04,.04-.04c.03,0,.18,0,.64,0h1.28v-.06c0-.25,0-.39-.04-.5,.11,0,.24,.01,.33,.02,.04,0,.06,.02,.06,.04,0,.03-.01,.05-.03,.09-.01,.04-.03,.12-.03,.35v.06h1.39c.46,0,.61,0,.64,0,.04,0,.04,0,.04,.04v.2Zm-.77,2.5c0,.23,0,.58,0,.67,0,.14-.03,.28-.11,.35-.08,.07-.21,.1-.62,.09-.1,0-.1,0-.12-.08-.02-.08-.05-.15-.09-.22,.18,.01,.31,.02,.46,.02,.14,0,.19-.05,.19-.2v-.39h-2.21v.29c0,.38,0,.54,0,.57,0,.03,0,.04-.04,.04h-.22s-.04,0-.04-.04c0-.03,0-.17,0-.56v-1.2c0-.4,0-.54,0-.57,0-.04,0-.04,.04-.04,.03,0,.2,0,.68,0h1.36c.48,0,.65,0,.68,0,.03,0,.04,0,.04,.04,0,.02,0,.2,0,.59v.62Zm-.29-.99h-2.21v.38h2.21v-.38Zm0,.62h-2.21v.39h2.21v-.39Z"/>
    <path d="M41.16,10.7c.04,.68,.14,1.22,.32,1.7,.16-.24,.29-.49,.39-.73,.06-.15,.11-.3,.13-.45,.11,.03,.21,.07,.28,.1,.04,.02,.06,.04,.06,.06,0,.04-.03,.06-.06,.09-.04,.04-.06,.12-.12,.24-.15,.35-.33,.68-.55,.99,.24,.54,.54,.86,.73,.86,.13,0,.22-.19,.24-.71,.04,.05,.11,.09,.17,.13,.09,.05,.09,.05,.08,.15-.05,.53-.21,.77-.48,.77-.32,0-.65-.35-.94-.93-.29,.36-.64,.67-1.06,.92-.03,.02-.05,.03-.07,.03-.02,0-.04-.02-.08-.07-.04-.05-.1-.09-.15-.13,.49-.26,.9-.63,1.23-1.05-.22-.53-.35-1.15-.41-1.98h-1.73v.81h.76c.31,0,.4,0,.42,0,.04,0,.04,0,.04,.04,0,.17-.02,.34-.03,.51-.01,.32-.03,.55-.08,.8-.06,.28-.23,.42-.5,.42-.11,0-.19,0-.31-.01-.08,0-.08-.01-.1-.12-.02-.08-.04-.15-.08-.21,.19,.03,.32,.04,.46,.04,.12,0,.22-.03,.26-.25,.04-.18,.06-.51,.07-.95h-.92c0,.37-.02,.64-.07,.93-.06,.38-.15,.8-.42,1.23-.02,.04-.04,.06-.05,.06s-.03-.02-.06-.05c-.05-.06-.12-.11-.18-.14,.26-.38,.37-.81,.43-1.21,.04-.33,.06-.64,.06-1.15,0-.68,0-.96,0-.98,0-.04,0-.04,.04-.04,.02,0,.2,0,.69,0h1.28c0-.07,0-.15,0-.24,0-.32,0-.41-.04-.6,.11,0,.22,.02,.33,.03,.04,0,.06,.03,.06,.05,0,.04,0,.06-.02,.08-.02,.05-.04,.15-.03,.43,0,.09,0,.17,0,.25h.83c.49,0,.66,0,.69,0,.03,0,.04,0,.04,.04v.21s0,.04-.04,.04c-.03,0-.19-.01-.69-.01h-.82Zm.59-1.02s.05-.04,.08-.02c.16,.1,.34,.25,.49,.43,.03,.02,.03,.04-.02,.08l-.1,.08s-.07,.05-.09,.01c-.14-.19-.31-.33-.46-.43-.04-.03-.04-.04,0-.08l.1-.07Z"/>
    <path d="M45.93,11.79c0,.22-.18,.41-.41,.41s-.41-.19-.41-.41,.19-.41,.41-.41,.41,.18,.41,.41Z"/>
    <path d="M51.68,10.76c-.22,.8-.53,1.39-.98,1.85,.48,.41,1.13,.77,1.98,1.04-.06,.06-.11,.15-.15,.23-.03,.06-.04,.08-.07,.08-.01,0-.04,0-.07-.02-.82-.31-1.44-.69-1.91-1.11-.48,.43-1.1,.79-1.9,1.09-.03,0-.06,.02-.07,.02-.03,0-.04-.02-.07-.07-.04-.07-.09-.15-.15-.2,.9-.3,1.5-.64,1.97-1.05-.47-.49-.78-1.07-1.01-1.85h-.17c-.47,0-.63,0-.65,0-.03,0-.04,0-.04-.04v-.23s0-.04,.04-.04c.02,0,.18,0,.65,0h1.23v-.34c0-.25,0-.41-.04-.54,.12,0,.24,.01,.35,.03,.03,0,.06,.02,.06,.04,0,.04-.02,.06-.03,.09-.02,.05-.02,.12-.02,.38v.34h1.3c.47,0,.63,0,.65,0,.04,0,.04,0,.04,.04v.23s0,.04-.04,.04c-.03,0-.18,0-.65,0h-.23Zm-2.14,0c.21,.69,.47,1.2,.93,1.65,.43-.43,.69-.95,.88-1.65h-1.8Z"/>
    <path d="M54.06,11.95c0-.2,0-.5,.01-.75-.2,.28-.42,.54-.66,.78-.03,.03-.05,.05-.07,.05-.02,0-.04-.02-.06-.06-.03-.08-.08-.14-.13-.19,.58-.53,1.01-1.14,1.28-1.81,.05-.12,.08-.24,.09-.33,.12,.04,.21,.07,.3,.11,.04,.02,.05,.04,.05,.06s-.01,.04-.04,.06c-.04,.02-.06,.07-.11,.19-.1,.23-.22,.47-.36,.7v2.44c0,.52,0,.74,0,.77,0,.03,0,.04-.04,.04h-.24s-.04,0-.04-.04c0-.02,0-.25,0-.77v-1.25Zm1.6,1.23c0,.24,.04,.33,.19,.37,.12,.03,.31,.03,.62,.03s.48-.03,.6-.13c.1-.08,.16-.29,.19-.73,.06,.05,.13,.09,.22,.13,.09,.03,.08,.04,.07,.13-.04,.42-.12,.62-.28,.74-.17,.12-.45,.16-.81,.16-.4,0-.65,0-.82-.06-.17-.06-.29-.19-.29-.52v-3.06c0-.25,0-.4-.03-.55,.13,0,.23,.01,.33,.03,.04,0,.06,.02,.06,.04,0,.04,0,.05-.02,.09-.03,.05-.03,.12-.03,.38v1.44c.41-.25,.8-.56,1.17-.94,.07-.07,.15-.17,.19-.26,.09,.06,.19,.13,.26,.2,.03,.03,.04,.05,.04,.07,0,.03-.03,.05-.07,.07-.06,.02-.14,.09-.26,.21-.36,.34-.79,.65-1.33,.99v1.19Z"/>
    <path d="M60.05,10.65s0,.04-.04,.04c-.03,0-.15,0-.55,0h-.43c0,.25,0,.47-.02,.68h.49c.22,0,.28,0,.31,0,.04,0,.04,0,.04,.04,0,.16,0,.32-.02,.59,0,.67-.04,1.12-.11,1.42-.07,.32-.19,.47-.47,.47-.09,0-.15,0-.25,0-.07,0-.07,0-.08-.1,0-.08-.04-.16-.07-.22,.13,.02,.24,.04,.37,.04,.18,0,.21-.11,.25-.39,.04-.28,.08-.72,.09-1.59h-.56c-.06,1.01-.19,1.62-.6,2.23-.02,.04-.04,.05-.05,.05-.02,0-.04-.01-.06-.04-.05-.06-.11-.12-.18-.15,.55-.69,.63-1.5,.65-3.03-.39,0-.5,0-.53,0s-.03,0-.03-.04v-.21s0-.03,.03-.03,.16,0,.55,0h.32v-.33c0-.25,0-.38-.03-.51,.12,0,.21,0,.32,.03,.04,0,.06,.02,.06,.04,0,.04-.01,.05-.03,.09-.02,.05-.03,.13-.03,.35v.33h.08c.4,0,.51,0,.54,0,.03,0,.04,0,.04,.03v.21Zm2.5-.07s0,.04-.04,.04c-.02,0-.16-.01-.59-.01h-1.4c-.11,.2-.26,.42-.43,.62-.03,.04-.05,.05-.07,.05-.02,0-.04-.01-.07-.05-.04-.05-.09-.08-.14-.1,.42-.43,.61-.82,.74-1.23,.04-.15,.06-.23,.06-.33,.1,.02,.18,.04,.28,.06,.04,0,.05,.03,.05,.05s-.01,.04-.03,.06c-.03,.04-.06,.1-.09,.2-.04,.12-.09,.26-.16,.4h1.27c.42,0,.56,0,.59,0,.04,0,.04,0,.04,.04v.21Zm-1.9,2.58c0,.26,0,.35,.08,.39,.08,.05,.19,.07,.61,.07,.56,0,.73-.02,.82-.1,.11-.09,.15-.23,.16-.63,.05,.04,.12,.08,.19,.1,.08,.02,.08,.04,.08,.13-.03,.46-.12,.53-.25,.64-.14,.11-.47,.15-1.02,.15-.5,0-.66-.02-.8-.12-.08-.06-.14-.15-.14-.4v-1.27c-.22,.07-.3,.1-.32,.11-.03,0-.05,0-.06-.04l-.05-.19s0-.04,.03-.04c.03,0,.13-.02,.4-.1v-.25c0-.22,0-.42-.03-.57,.11,0,.2,0,.29,.02,.03,0,.06,.02,.06,.04,0,.03,0,.05-.02,.09-.01,.04-.02,.13-.02,.36v.23l.5-.15v-.22c0-.27,0-.41-.03-.6,.14,0,.21,0,.3,.02,.04,0,.05,.02,.05,.05,0,.02,0,.04-.02,.08-.02,.05-.03,.14-.03,.37v.21l.36-.11c.41-.12,.54-.18,.57-.18,.02,0,.04,0,.04,.03v.23c-.03,.47-.06,.89-.12,1.12-.04,.16-.17,.22-.31,.23-.07,0-.15,0-.27,0-.05,0-.06,0-.07-.09,0-.07-.03-.14-.06-.2,.12,.03,.21,.04,.31,.04,.08,0,.13-.03,.15-.12,.04-.18,.07-.49,.08-.9l-.68,.21v.67c0,.39,0,.54,0,.56,0,.03,0,.04-.04,.04h-.21s-.04,0-.04-.04c0-.02,0-.18,0-.56v-.59l-.5,.15v1.13Z"/>
    <path d="M64.87,10.72s0,.04-.04,.04c-.03,0-.14,0-.51,0h-.61c-.37,0-.49,0-.51,0-.03,0-.03,0-.03-.04v-.21s0-.04,.03-.04c.03,0,.14,0,.51,0h.61c.38,0,.49,0,.51,0,.03,0,.04,0,.04,.04v.21Zm-.19,2.49c0,.57,0,.66,0,.69,0,.03,0,.04-.04,.04h-.2s-.04,0-.04-.04v-.2h-.75v.29s0,.04-.04,.04h-.2s-.04,0-.04-.04c0-.02,0-.12,0-.73v-.3c0-.3,0-.41,0-.44,0-.03,0-.03,.04-.03,.02,0,.12,0,.42,0h.38c.31,0,.4,0,.43,0,.03,0,.04,0,.04,.03,0,.03,0,.13,0,.36v.33Zm.04-3.16s0,.04-.04,.04c-.02,0-.11,0-.43,0h-.4c-.31,0-.4,0-.43,0-.03,0-.04,0-.04-.04v-.2s0-.04,.04-.04c.03,0,.12,0,.43,0h.4c.32,0,.41,0,.43,0,.03,0,.04,0,.04,.04v.2Zm-.07,1.33s0,.04-.04,.04c-.02,0-.11-.01-.4-.01h-.35c-.29,0-.38,.01-.4,.01-.04,0-.04,0-.04-.04v-.19s0-.04,.04-.04c.02,0,.11,0,.4,0h.35c.29,0,.38,0,.4,0,.04,0,.04,0,.04,.04v.19Zm0,.66s0,.04-.04,.04c-.02,0-.11,0-.4,0h-.35c-.29,0-.38,0-.4,0-.04,0-.04,0-.04-.04v-.19s0-.04,.04-.04c.02,0,.11,.01,.4,.01h.35c.29,0,.38-.01,.4-.01,.04,0,.04,0,.04,.04v.19Zm-.24,.7h-.75v.72h.75v-.72Zm2.43-1.03c.06,0,.08,0,.1-.02,.01,0,.03-.01,.06-.01s.06,.03,.12,.09c.06,.07,.09,.11,.09,.14,0,.03-.02,.04-.05,.06-.03,.02-.05,.05-.1,.15-.15,.33-.37,.66-.65,.96,.33,.27,.73,.46,1.19,.62-.06,.06-.11,.12-.14,.19-.03,.06-.04,.08-.07,.08-.01,0-.03,0-.07-.02-.41-.18-.79-.39-1.11-.67-.31,.28-.69,.53-1.15,.71q-.09,.03-.14-.05c-.04-.06-.08-.12-.15-.16,.49-.16,.91-.4,1.24-.69-.27-.29-.5-.65-.67-1.12-.18,0-.26,0-.28,0-.04,0-.04,0-.04-.04v-.2s0-.03,.04-.03c.02,0,.16,0,.6,0h1.18Zm-.1-.96c0,.12,0,.19,.05,.22,.03,.02,.08,.04,.22,.04,.13,0,.2-.03,.24-.09,.04-.06,.06-.19,.06-.45,.04,.04,.1,.07,.17,.1,.08,.03,.08,.04,.08,.12-.01,.25-.06,.39-.16,.48-.08,.08-.22,.1-.44,.1-.2,0-.31-.02-.36-.05-.1-.05-.14-.16-.14-.35v-.81h-.7c0,.73-.17,1.11-.54,1.4-.04,.03-.06,.05-.08,.05-.02,0-.04-.02-.07-.05-.04-.05-.11-.09-.17-.11,.33-.21,.59-.49,.59-1.18,0-.22,0-.31,0-.33,0-.03,0-.04,.04-.04,.03,0,.1,0,.4,0h.39c.3,0,.39,0,.41,0,.03,0,.04,0,.04,.04,0,.03,0,.14,0,.42v.51Zm-1.11,1.22c.15,.38,.35,.69,.59,.93,.28-.28,.48-.6,.61-.93h-1.2Z"/>
    <path d="M72.41,10.26s0,.04-.04,.04c-.03,0-.18,0-.66,0h-2.86c-.47,0-.63,0-.65,0-.03,0-.04,0-.04-.04v-.21s0-.04,.04-.04c.02,0,.18,0,.65,0h1.24v-.05c0-.17,0-.31-.03-.42,.12,0,.24,.01,.32,.02,.04,0,.06,.02,.06,.04,0,.03-.02,.06-.03,.09s-.02,.12-.02,.26v.05h1.32c.47,0,.63,0,.66,0,.03,0,.04,0,.04,.04v.21Zm-.95,1.66c.5,0,.67,0,.7,0,.03,0,.04,0,.04,.04,0,.03,0,.18,0,.55v.42c0,.24,0,.44,0,.64,0,.12-.02,.23-.11,.3-.08,.07-.19,.09-.55,.09-.09,0-.1,0-.12-.1-.02-.07-.05-.15-.08-.2,.14,.01,.28,.02,.4,.02,.09,0,.16-.04,.16-.18v-1.31h-3.21v1.17c0,.41,0,.57,0,.6,0,.03,0,.04-.04,.04h-.24s-.04,0-.04-.04c0-.03,0-.17,0-.59v-.88c0-.37,0-.5,0-.53,0-.03,0-.04,.04-.04,.03,0,.2,0,.69,0h2.35Zm0-.68c0,.23,0,.29,0,.32s0,.04-.04,.04c-.03,0-.18,0-.63,0h-1.02c-.45,0-.61,0-.63,0-.04,0-.04,0-.04-.04s.01-.09,.01-.32v-.28c0-.23-.01-.29-.01-.32,0-.04,0-.04,.04-.04,.02,0,.18,0,.63,0h1.02c.45,0,.61,0,.63,0,.03,0,.04,0,.04,.04,0,.03,0,.09,0,.32v.28Zm-.32,1.79c0,.45,0,.52,0,.54,0,.03,0,.04-.04,.04h-.21s-.04,0-.04-.04v-.15h-1.19v.19s0,.04-.04,.04h-.21s-.04,0-.04-.04c0-.03,0-.1,0-.56v-.21c0-.18,0-.27,0-.29,0-.04,0-.04,.04-.04,.03,0,.15,.01,.52,.01h.64c.38,0,.49-.01,.52-.01,.03,0,.04,0,.04,.04,0,.02,0,.1,0,.25v.24Zm.03-2.19h-1.77v.5h1.77v-.5Zm-.31,1.89h-1.19v.46h1.19v-.46Z"/>
    <path d="M73.76,11.95c0-.19,0-.4,0-.64-.15,.24-.32,.48-.51,.71-.02,.03-.04,.04-.06,.04-.02,0-.03-.01-.05-.05-.04-.09-.09-.15-.14-.2,.51-.54,.87-1.24,1.09-1.89,.04-.12,.07-.24,.08-.34,.12,.04,.22,.07,.31,.11,.03,.01,.05,.03,.05,.05,0,.03-.02,.04-.04,.07-.03,.02-.06,.07-.1,.18-.1,.25-.21,.5-.34,.76v2.43c0,.52,.01,.74,.01,.77,0,.03,0,.04-.04,.04h-.24s-.04,0-.04-.04c0-.02,0-.25,0-.77v-1.26Zm3.65-.91s0,.04-.04,.04c-.02,0-.19,0-.68,0h0v1.67c0,.27,0,.53,0,.77,0,.19-.03,.27-.13,.35-.09,.07-.28,.08-.71,.08q-.1,0-.12-.09c-.02-.09-.06-.17-.1-.23,.18,.02,.41,.03,.56,.03s.2-.04,.2-.19v-2.38h-1.14c-.49,0-.66,0-.68,0-.04,0-.04,0-.04-.04v-.22s0-.04,.04-.04c.02,0,.19,0,.68,0h1.14v-.58c0-.3,0-.45-.03-.6,.12,0,.22,.01,.33,.03,.04,0,.06,.02,.06,.04,0,.03-.02,.06-.03,.09-.02,.05-.02,.14-.02,.42v.59h0c.49,0,.66,0,.68,0,.04,0,.04,0,.04,.04v.22Zm-2.43,.6s.04-.02,.06,0c.26,.29,.44,.55,.62,.9,.01,.03,0,.04-.04,.07l-.14,.09c-.06,.04-.07,.04-.09,0-.17-.36-.35-.62-.58-.91-.03-.03-.02-.03,.03-.07l.14-.08Z"/>
    <path d="M79.51,10.61c.42,0,.57,0,.59,0,.04,0,.04,0,.04,.04,0,.15,0,.29,0,.43,0,.8-.05,1.61-.14,2.2-.06,.37-.23,.52-.53,.52-.13,0-.22,0-.33-.01q-.09-.01-.1-.11c0-.08-.03-.15-.06-.22,.16,.03,.31,.04,.47,.04s.23-.07,.27-.36c.08-.51,.13-1.35,.13-2.26h-.7c-.03,.49-.09,.97-.19,1.37-.14,.59-.33,1.05-.75,1.54-.03,.03-.04,.05-.06,.05-.01,0-.03-.01-.06-.05-.07-.08-.13-.14-.2-.18,.44-.46,.63-.86,.79-1.48,.1-.39,.15-.81,.17-1.26h-.17c-.42,0-.56,0-.59,0-.04,0-.04,0-.04-.04v-.21s0-.04,.04-.04c.02,0,.16,0,.59,0h.18c0-.15,0-.3,0-.45,0-.31-.01-.43-.04-.61,.11,0,.23,.01,.34,.03,.04,0,.05,.03,.05,.05,0,.03-.01,.06-.03,.11-.01,.05-.03,.19-.03,.46,0,.14,0,.28,0,.42h.36Zm2.7,1.65c0,1.25,0,1.46,0,1.49,0,.04,0,.04-.04,.04h-.23s-.04,0-.04-.04v-.37h-1.02v.4s0,.04-.04,.04h-.22s-.04,0-.04-.04c0-.03,.01-.24,.01-1.5v-.88c0-.89-.01-1.11-.01-1.14,0-.03,0-.04,.04-.04,.02,0,.14,0,.5,0h.55c.35,0,.47,0,.5,0,.03,0,.04,0,.04,.04,0,.02,0,.25,0,1.01v.98Zm-.3-1.75h-1.02v2.61h1.02v-2.61Z"/>
    <path d="M83.4,12.02c0-.19,0-.48,0-.73-.12,.19-.25,.38-.41,.57-.02,.04-.04,.05-.06,.05-.02,0-.03-.02-.04-.05-.03-.08-.07-.15-.12-.2,.46-.55,.74-1.11,.96-1.76,.03-.12,.06-.24,.06-.33,.11,.02,.21,.05,.3,.1,.03,.02,.05,.03,.05,.06s-.02,.05-.04,.07c-.03,.02-.05,.07-.09,.18-.1,.28-.2,.55-.33,.81v2.44c0,.52,0,.75,0,.77,0,.03,0,.04-.04,.04h-.23s-.04,0-.04-.04,0-.25,0-.77v-1.21Zm3.98-1.78s0,.04-.04,.04c-.02,0-.19,0-.69,0h-.38v.91h.18c.49,0,.67,0,.7,0,.03,0,.04,0,.04,.04,0,.02,0,.19,0,.78v.89c0,.81,0,.96,0,.99,0,.03,0,.04-.04,.04h-.22s-.04,0-.04-.04v-.24h-2.35v.26s0,.04-.04,.04h-.22s-.04,0-.04-.04c0-.03,0-.19,0-1v-.82c0-.67,0-.83,0-.86,0-.04,0-.04,.04-.04,.03,0,.2,0,.69,0h.16v-.91h-.22c-.5,0-.67,0-.69,0-.03,0-.04,0-.04-.04v-.2s0-.04,.04-.04c.03,0,.19,.01,.69,.01h1.75c.5,0,.67-.01,.69-.01,.03,0,.04,0,.04,.04v.2Zm-2.25,1.2h-.59v1.93h.59v-1.93Zm.87-1.17h-.59v.91h.59v-.91Zm0,1.17h-.59v1.93h.59v-1.93Zm.89,0h-.62v1.93h.62v-1.93Z"/>
    <path d="M88.39,11.94c0-.19,0-.47,0-.72-.13,.2-.28,.4-.45,.6-.03,.03-.05,.05-.06,.05-.02,0-.03-.01-.04-.05-.03-.08-.08-.15-.12-.19,.47-.54,.78-1.09,1.01-1.74,.04-.12,.07-.24,.07-.33,.1,.02,.2,.05,.3,.09,.03,.02,.05,.03,.05,.05,0,.03-.02,.04-.04,.07-.03,.03-.06,.07-.1,.19-.1,.26-.21,.52-.34,.77v2.46c0,.52,0,.75,0,.78,0,.03,0,.04-.04,.04h-.23s-.04,0-.04-.04c0-.02,0-.25,0-.78v-1.26Zm3.92,1.75s0,.04-.04,.04c-.02,0-.18,0-.67,0h-2.09v.24s0,.04-.04,.04h-.22s-.04,0-.04-.04c0-.03,0-.17,0-.53v-1.86c0-.33,0-.47-.03-.64,.12,0,.22,.02,.32,.03,.03,0,.06,.02,.06,.05s-.02,.05-.03,.09c-.01,.05-.03,.16-.03,.46v1.89h2.09c.49,0,.65,0,.67,0,.03,0,.04,0,.04,.04v.2Zm-.02-3.31s0,.04-.04,.04c-.03,0-.19,0-.69,0h-.67c-.03,.17-.07,.34-.1,.48h.49c.4,0,.52,0,.55,0,.04,0,.04,0,.04,.04,0,.03,0,.16,0,.54v1.06c0,.38,0,.51,0,.54,0,.04,0,.04-.04,.04-.03,0-.16,0-.55,0h-.68c-.4,0-.53,0-.55,0-.04,0-.04,0-.04-.04,0-.03,0-.16,0-.54v-1.06c0-.38,0-.51,0-.54,0-.03,0-.04,.04-.04,.02,0,.14,0,.45,0,.04-.16,.07-.32,.1-.48h-.6c-.5,0-.66,0-.69,0s-.03,0-.03-.04v-.2s0-.04,.03-.04,.19,.01,.69,.01h.64l.04-.26c.01-.11,.02-.18,0-.3,.1,0,.21,.02,.3,.04,.04,0,.06,.03,.06,.05,0,.02,0,.04-.02,.06-.02,.04-.04,.07-.05,.13-.02,.08-.03,.18-.04,.27h.63c.5,0,.66-.01,.69-.01,.03,0,.04,0,.04,.04v.2Zm-.71,.74h-1.29v.42h1.29v-.42Zm0,.64h-1.29v.43h1.29v-.43Zm0,.65h-1.29v.45h1.29v-.45Z"/>
    <path d="M93.67,11.95c0-.2,0-.5,.01-.75-.2,.28-.42,.54-.66,.78-.03,.03-.05,.05-.07,.05-.02,0-.04-.02-.06-.06-.03-.08-.08-.14-.13-.19,.58-.53,1.01-1.14,1.28-1.81,.05-.12,.08-.24,.09-.33,.12,.04,.21,.07,.3,.11,.04,.02,.05,.04,.05,.06s-.01,.04-.04,.06c-.04,.02-.06,.07-.11,.19-.1,.23-.22,.47-.36,.7v2.44c0,.52,0,.74,0,.77,0,.03,0,.04-.04,.04h-.24s-.04,0-.04-.04c0-.02,0-.25,0-.77v-1.25Zm1.6,1.23c0,.24,.04,.33,.19,.37,.12,.03,.31,.03,.62,.03s.48-.03,.6-.13c.1-.08,.16-.29,.19-.73,.06,.05,.13,.09,.22,.13,.09,.03,.08,.04,.07,.13-.04,.42-.12,.62-.28,.74-.17,.12-.45,.16-.81,.16-.4,0-.65,0-.82-.06-.17-.06-.29-.19-.29-.52v-3.06c0-.25,0-.4-.03-.55,.13,0,.23,.01,.33,.03,.04,0,.06,.02,.06,.04,0,.04,0,.05-.02,.09-.03,.05-.03,.12-.03,.38v1.44c.41-.25,.8-.56,1.17-.94,.07-.07,.15-.17,.19-.26,.09,.06,.19,.13,.26,.2,.03,.03,.04,.05,.04,.07,0,.03-.03,.05-.07,.07-.06,.02-.14,.09-.26,.21-.36,.34-.79,.65-1.33,.99v1.19Z"/>
    <path d="M100.92,11.46c.06,0,.1,0,.12-.02,.01,0,.03,0,.05,0,.04,0,.06,.02,.13,.09,.06,.06,.09,.11,.09,.14,0,.02-.02,.04-.05,.06-.04,.02-.06,.04-.1,.12-.27,.44-.58,.8-.96,1.1,.53,.37,1.2,.59,1.97,.75-.06,.05-.11,.12-.15,.22-.04,.09-.04,.09-.14,.07-.78-.2-1.42-.46-1.93-.84-.52,.36-1.14,.63-1.88,.84-.09,.02-.09,.02-.13-.07-.03-.07-.08-.14-.13-.19,.78-.19,1.4-.44,1.91-.77-.36-.32-.65-.71-.87-1.22-.4,0-.54,0-.56,0-.04,0-.04,0-.04-.04v-.22s0-.03,.04-.03c.02,0,.19,0,.69,0h.82v-.79h-1.22c-.47,0-.63,0-.66,0-.03,0-.04,0-.04-.04v-.22s0-.04,.04-.04c.02,0,.18,.01,.66,.01h1.22v-.21c0-.31,0-.42-.04-.6,.12,0,.25,.02,.35,.03,.04,0,.07,.02,.07,.05,0,.03-.02,.06-.03,.1-.01,.05-.03,.13-.03,.4v.23h1.3c.47,0,.63-.01,.66-.01,.04,0,.04,0,.04,.04v.22s0,.04-.04,.04c-.02,0-.18,0-.66,0h-1.3v.79h.82Zm-1.75,.27c.2,.43,.47,.77,.79,1.04,.37-.29,.66-.63,.9-1.04h-1.69Z"/>
    <path d="M104.09,10.82s0,.04-.04,.04c-.03,0-.12,0-.42,0h-.03v1.01c.13-.05,.28-.12,.44-.2,0,.06-.01,.13-.01,.2,0,.09,0,.1-.07,.13-.12,.06-.24,.11-.35,.16v.57c0,.32,.01,.55,.01,.75,0,.23-.04,.32-.13,.39-.09,.07-.22,.09-.51,.09-.09,0-.1,0-.12-.1-.01-.08-.05-.15-.09-.21,.11,.01,.27,.01,.39,.01s.17-.05,.17-.21v-1.18c-.08,.04-.17,.06-.25,.09-.1,.04-.16,.07-.19,.1-.01,.01-.04,.03-.06,.03-.03,0-.04-.01-.05-.04-.03-.08-.06-.18-.08-.29,.13-.02,.26-.06,.44-.12,.05-.02,.12-.04,.2-.07v-1.12h-.14c-.32,0-.41,0-.44,0-.03,0-.04,0-.04-.04v-.21s0-.04,.04-.04c.03,0,.12,0,.44,0h.14v-.4c0-.3,0-.44-.04-.6,.12,0,.22,0,.32,.03,.04,0,.06,.02,.06,.04,0,.04-.01,.06-.03,.1-.02,.05-.03,.14-.03,.43v.41h.03c.3,0,.39,0,.42,0,.04,0,.04,0,.04,.04v.21Zm2.22,1.46c.05,0,.08,0,.1-.02s.03,0,.05,0c.03,0,.07,.02,.13,.09,.05,.06,.08,.1,.08,.13s-.01,.04-.04,.05c-.04,.02-.06,.05-.13,.15-.15,.24-.33,.44-.53,.62,.35,.21,.75,.35,1.21,.46-.04,.04-.09,.1-.12,.18-.02,.06-.03,.08-.07,.08-.01,0-.04,0-.07-.02-.42-.12-.82-.29-1.17-.53-.31,.23-.67,.41-1.11,.54-.03,0-.05,.01-.07,.01-.03,0-.04-.02-.07-.07-.03-.05-.08-.11-.12-.15,.45-.11,.84-.29,1.16-.51-.21-.18-.4-.4-.57-.66-.21,.47-.52,.89-.96,1.26-.03,.02-.05,.04-.07,.04-.02,0-.04-.02-.06-.05-.05-.06-.1-.1-.15-.14,.65-.49,1.04-1.13,1.21-1.86h0c-.48,0-.65,0-.68,0-.03,0-.03,0-.03-.04v-.19s0-.04,.03-.04c.03,0,.19,0,.68,0h.06c.02-.13,.03-.26,.04-.4h-.04c-.48,0-.64,.01-.67,.01-.03,0-.04,0-.04-.04v-.18s0-.04,.04-.04c.03,0,.19,0,.67,0h1.07c.14-.24,.23-.42,.31-.63,.04-.09,.06-.17,.07-.25,.1,.02,.2,.05,.28,.08,.03,0,.04,.03,.04,.05s-.01,.04-.04,.06c-.03,.02-.04,.05-.06,.09-.09,.19-.18,.39-.31,.59,.46,0,.62,0,.65,0,.04,0,.04,0,.04,.04v.18s0,.04-.04,.04c-.03,0-.19-.01-.67-.01h-1.01c-.01,.14-.03,.27-.05,.4h1.13c.49,0,.65,0,.68,0,.03,0,.04,0,.04,.04v.19s0,.04-.04,.04c-.02,0-.19,0-.68,0h-1.18c-.03,.13-.06,.26-.1,.38h1.22Zm.48-2.44s-.1,.01-.18,.03c-.73,.14-1.44,.21-2.17,.25-.1,0-.1,0-.14-.09-.03-.06-.06-.12-.1-.17,.82,0,1.56-.09,2.17-.22,.09-.02,.2-.05,.25-.08,.08,.05,.17,.12,.22,.17,.03,.03,.04,.04,.04,.06,0,.03-.04,.04-.08,.04Zm-2.12,.41c.06-.02,.06-.02,.08,0,.11,.15,.2,.33,.26,.48,.02,.04,0,.04-.04,.06l-.13,.05c-.05,.02-.07,.03-.08-.02-.06-.18-.13-.34-.24-.48-.02-.03-.02-.04,.04-.07l.11-.04Zm.46,2.25c.18,.27,.38,.47,.6,.64,.22-.19,.4-.4,.53-.64h-1.13Zm.35-2.3c.06-.02,.07-.02,.09,0,.1,.17,.18,.34,.23,.5,0,.03,0,.05-.04,.07l-.12,.04c-.07,.02-.08,.03-.09-.01-.05-.18-.12-.35-.21-.51-.01-.03,0-.04,.05-.06l.1-.04Z"/>
    <path d="M112.08,12.54s0,.04-.03,.04c-.03,0-.15,0-.49,0v.32c0,.31,.01,.42,.01,.45,0,.03,0,.04-.04,.04h-.22s-.04,0-.04-.04v-.15h-1.25c0,.14,0,.26,0,.36,0,.22-.03,.31-.14,.38-.11,.07-.29,.09-.67,.09-.09,0-.09,0-.12-.09-.03-.08-.06-.15-.12-.22,.17,.02,.27,.02,.43,.02,.27,0,.32-.04,.32-.24v-.29h-.85c-.5,0-.67,0-.7,0-.04,0-.04,0-.04-.04v-.17s0-.04,.04-.04c.03,0,.19,0,.7,0h.85v-.38h-1.36c-.46,0-.61,0-.64,0-.03,0-.04,0-.04-.04v-.17s0-.04,.04-.04c.02,0,.18,0,.64,0h1.36v-.35h-.85c-.5,0-.67,0-.7,0-.04,0-.04,0-.04-.04v-.18s0-.04,.04-.04c.03,0,.2,0,.7,0h.85v-.34h-.65c-.49,0-.67,0-.7,0-.03,0-.04,0-.04-.04,0-.02,0-.08,0-.27v-.21c0-.19,0-.24,0-.27,0-.04,0-.04,.04-.04,.03,0,.2,0,.7,0h.65v-.31h-1.32c-.46,0-.62,.01-.65,.01-.03,0-.04,0-.04-.04v-.18s0-.04,.04-.04c.03,0,.18,0,.65,0h1.32c0-.26,0-.39-.03-.51,.12,0,.22,0,.32,.02,.03,0,.06,.02,.06,.04,0,.04-.02,.06-.03,.09-.02,.05-.02,.13-.02,.35h0s1.33,0,1.33,0c.46,0,.62,0,.65,0,.03,0,.04,0,.04,.04v.18s0,.04-.04,.04c-.03,0-.18-.01-.65-.01h-1.33v.31h.67c.5,0,.67,0,.7,0,.04,0,.04,0,.04,.04,0,.03,0,.08,0,.27v.21c0,.19,0,.25,0,.27,0,.04,0,.04-.04,.04-.03,0-.2,0-.7,0h-.67v.34h.8c.5,0,.68,0,.71,0,.03,0,.04,0,.04,.04,0,.02-.01,.13-.01,.44v.11c.33,0,.46,0,.49,0,.03,0,.03,0,.03,.04v.17Zm-2.34-1.72h-1.11v.38h1.11v-.38Zm1.42,0h-1.13v.38h1.13v-.38Zm.11,1.17h-1.25v.35h1.25v-.35Zm0,.58h-1.25v.38h1.25v-.38Z"/>
    <path d="M115.17,12.74c.47,.38,1.04,.63,1.89,.83-.04,.04-.09,.11-.13,.18q-.05,.09-.14,.06c-.79-.22-1.36-.51-1.86-.98,0,.75,.03,1.06,.03,1.14,0,.03,0,.04-.04,.04h-.24s-.04,0-.04-.04c0-.08,.02-.39,.02-1.13-.49,.48-1.03,.76-1.79,.99-.09,.03-.1,.03-.14-.06-.04-.07-.08-.12-.13-.17,.81-.21,1.4-.47,1.82-.87h-1.03c-.47,0-.62,0-.65,0-.04,0-.04,0-.04-.04v-.18s0-.04,.04-.04c.02,0,.18,0,.65,0h1.27v-.4h-.74c-.5,0-.68,0-.7,0-.04,0-.04,0-.04-.03v-.17s0-.04,.04-.04c.02,0,.2,0,.7,0h.74v-.38h-.98c-.5,0-.66,.01-.68,.01-.04,0-.04,0-.04-.04v-.18s0-.04,.04-.04c.02,0,.19,.01,.68,.01h.4c-.06-.17-.13-.32-.21-.43-.02-.03-.01-.04,.04-.06l.13-.04s.06-.02,.08,0c.09,.13,.18,.32,.26,.52h.92c.07-.11,.12-.22,.18-.36,.03-.06,.04-.11,.06-.2,.09,.02,.16,.04,.26,.07,.03,0,.05,.03,.05,.05s-.02,.04-.04,.06c-.02,.02-.05,.06-.07,.1-.04,.08-.09,.17-.16,.27h.43c.5,0,.66-.01,.69-.01,.03,0,.04,0,.04,.04v.18s0,.04-.04,.04c-.03,0-.19-.01-.69-.01h-1.06v.38h.83c.5,0,.67,0,.7,0,.03,0,.04,0,.04,.04v.17s0,.03-.04,.03c-.03,0-.2,0-.7,0h-.83v.4h1.36c.47,0,.62,0,.65,0,.03,0,.04,0,.04,.04v.18s0,.04-.04,.04c-.03,0-.18,0-.65,0h-1.13Zm1.82-2.12s0,.04-.04,.04c-.03,0-.18,0-.65,0h-2.91c-.47,0-.62,0-.65,0-.04,0-.04,0-.04-.04v-.18s0-.04,.04-.04c.02,0,.18,0,.65,0h.17c-.11-.22-.22-.38-.35-.52-.02-.02-.02-.04,.03-.06l.13-.07s.05-.02,.07,0c.12,.13,.25,.31,.36,.5,.01,.03,0,.04-.03,.06l-.16,.09h.65v-.37c0-.18,0-.32-.03-.45,.1,0,.22,.02,.3,.03,.03,0,.05,.02,.05,.04s0,.04-.02,.07c-.02,.04-.03,.12-.03,.31v.37h.53v-.37c0-.18,0-.32-.03-.45,.1,0,.23,.02,.31,.03,.03,0,.05,.02,.05,.04,0,.02,0,.04-.02,.06-.01,.04-.03,.12-.03,.31v.37h.46c.11-.15,.19-.3,.28-.46,.03-.07,.06-.14,.08-.23,.1,.02,.21,.06,.28,.09,.03,0,.05,.03,.05,.05,0,.03,0,.04-.04,.06-.03,.02-.06,.06-.08,.1-.08,.13-.17,.26-.26,.39h.21c.47,0,.62,0,.65,0,.03,0,.04,0,.04,.04v.18Z"/>
    <path d="M117.66,9.38c.93,.72,1.3,1.44,1.3,2.41s-.36,1.69-1.3,2.41l-.12-.14c.83-.71,1.1-1.4,1.1-2.26s-.27-1.56-1.1-2.26l.12-.14Z"/>
  </g>
  <g>
    <path d="M.61,21c.06-.03,.07-.02,.11,.03,.15,.2,.28,.41,.39,.61,.15-.18,.27-.35,.38-.55,.07-.12,.1-.22,.13-.3,.13,.06,.21,.1,.3,.18,.04,.02,.05,.05,.05,.08s-.03,.05-.05,.07c-.05,.03-.13,.14-.16,.2-.15,.24-.3,.45-.48,.65,.33,.72,.45,1.53,.45,2.59,0,1.25-.24,1.6-.82,1.6-.1,0-.21,0-.35-.01q-.08,0-.11-.13c-.02-.12-.06-.2-.1-.27,.21,.03,.38,.04,.51,.04,.35,0,.52-.16,.52-1.22,0-.42-.02-.79-.06-1.14-.29,.5-.61,.9-.97,1.22-.04,.04-.07,.05-.08,.05-.02,0-.04-.02-.07-.07-.05-.08-.1-.16-.15-.19,.5-.41,.9-.88,1.2-1.46-.05-.27-.13-.52-.22-.76-.19,.17-.41,.36-.68,.54-.04,.03-.07,.05-.09,.05s-.04-.03-.07-.08c-.05-.08-.1-.13-.15-.18,.31-.21,.6-.43,.84-.67-.09-.17-.19-.34-.31-.5-.05-.07-.1-.13-.16-.21-.02-.02-.03-.04-.03-.05,0-.01,.02-.03,.06-.05l.17-.08Zm4.16,3.62s.06-.02,.09,.02c.32,.47,.51,.86,.71,1.39,.01,.04,0,.06-.06,.08l-.18,.08c-.07,.04-.08,.02-.1-.02-.07-.2-.14-.38-.21-.56-.9,.17-1.67,.29-2.61,.39-.18,.02-.23,.04-.26,.06-.04,.03-.06,.04-.1,.04s-.06-.03-.07-.07c-.04-.13-.07-.25-.1-.39,.24,0,.44,0,.61-.01,.35-.02,.69-.06,1.04-.1v-1.4h-.94v.31s0,.05-.05,.05h-.26s-.05,0-.05-.05c0-.04,.01-.18,.01-1.09v-.53c0-.53-.01-.68-.01-.71,0-.04,0-.05,.05-.05,.04,0,.23,.01,.79,.01h.46v-.42c0-.41,0-.57-.04-.76,.16,0,.27,.01,.39,.03,.04,0,.07,.02,.07,.05s-.01,.06-.03,.11c-.02,.06-.04,.19-.04,.56v.43h.52c.56,0,.76-.01,.8-.01,.04,0,.05,0,.05,.05,0,.03-.01,.19-.01,.63v.59c0,.9,.01,1.05,.01,1.08,0,.04,0,.04-.05,.04h-.26s-.05,0-.05-.04v-.27h-1v1.36c.34-.05,.68-.1,1-.17-.09-.18-.2-.36-.33-.55-.02-.04-.02-.05,.05-.08l.16-.07Zm-1.24-2.23h-.94v1.43h.94v-1.43Zm1.36,0h-1v1.43h1v-1.43Z"/>
    <path d="M11.55,25.82s0,.05-.05,.05c-.04,0-.22-.01-.79-.01h-3.7c-.56,0-.75,.01-.78,.01-.04,0-.05,0-.05-.05v-.3s0-.05,.05-.05c.03,0,.22,.01,.78,.01h2.11c.33-.77,.56-1.5,.73-2.12,.07-.27,.1-.43,.12-.63,.16,.04,.28,.08,.42,.13,.05,.02,.06,.04,.06,.07,0,.04-.03,.07-.05,.1-.05,.05-.08,.14-.12,.27-.22,.75-.45,1.45-.77,2.18h1.19c.57,0,.75-.01,.79-.01,.04,0,.05,0,.05,.05v.3Zm-.3-3.54s0,.05-.05,.05c-.03,0-.23-.01-.84-.01h-2.98c-.6,0-.8,.01-.84,.01-.04,0-.05,0-.05-.05v-.29s0-.05,.05-.05c.04,0,.24,.01,.84,.01h1.24v-.5c0-.3-.01-.47-.04-.61,.19,0,.28,.01,.42,.03,.05,0,.08,.03,.08,.05,0,.04-.01,.07-.03,.11-.02,.05-.04,.16-.04,.42v.5h1.36c.61,0,.81-.01,.84-.01,.04,0,.05,0,.05,.05v.29Zm-3.68,.5c.06-.02,.07-.02,.08,.02,.25,.64,.47,1.3,.62,2.13,0,.04,0,.06-.07,.08l-.21,.06c-.09,.02-.1,.02-.12-.04-.14-.81-.32-1.43-.58-2.1-.02-.04-.01-.05,.07-.08l.2-.07Z"/>
    <path d="M13.19,24.31c0-.24,0-.56,.01-.79-.19,.21-.41,.42-.65,.62-.04,.04-.07,.05-.08,.05-.02,0-.04-.02-.06-.07-.04-.08-.09-.15-.16-.21,.54-.42,1.02-.95,1.33-1.47,.05-.09,.1-.2,.13-.29,.12,.05,.22,.12,.31,.18,.04,.03,.05,.05,.05,.08,0,.02-.02,.05-.04,.07-.04,.02-.09,.07-.13,.15-.11,.17-.22,.33-.34,.49v2.28c0,.53,.01,.75,.01,.78,0,.04,0,.05-.05,.05h-.29s-.05,0-.05-.05c0-.03,.01-.25,.01-.78v-1.08Zm.78-3.19s-.08,.08-.15,.16c-.29,.37-.68,.77-1.18,1.13-.04,.03-.06,.04-.08,.04s-.05-.02-.08-.08c-.05-.07-.1-.13-.18-.19,.48-.31,.93-.71,1.22-1.12,.08-.11,.11-.19,.13-.27,.13,.05,.22,.1,.33,.18,.04,.02,.05,.04,.05,.07s-.03,.05-.07,.08Zm3.7,1.87s0,.05-.05,.05c-.03,0-.23-.01-.82-.01h-.19v1.4c0,.61,.01,.9,.01,1.11,0,.26-.04,.39-.16,.49-.11,.08-.28,.12-.84,.12q-.12,0-.15-.13c-.03-.1-.07-.19-.13-.27,.2,.02,.36,.02,.58,.02,.25,0,.32-.04,.32-.23v-2.51h-1.1c-.59,0-.79,.01-.83,.01-.04,0-.05,0-.05-.05v-.27s0-.05,.05-.05c.04,0,.24,.01,.83,.01h1.66c.59,0,.79-.01,.82-.01,.04,0,.05,0,.05,.05v.27Zm-.32-1.48s0,.05-.05,.05c-.04,0-.2-.01-.75-.01h-1.14c-.54,0-.71,.01-.75,.01-.04,0-.05,0-.05-.05v-.27s0-.05,.05-.05c.03,0,.2,.01,.75,.01h1.14c.55,0,.71-.01,.75-.01,.04,0,.05,0,.05,.05v.27Z"/>
    <path d="M19.94,24.91c.33-.12,.69-.24,1.08-.4-.01,.09-.02,.17-.02,.25q0,.12-.11,.16c-.75,.3-1.5,.53-2.19,.71-.13,.04-.21,.06-.24,.09s-.05,.04-.08,.04c-.02,0-.04-.02-.06-.06-.05-.1-.1-.25-.13-.36,.15-.01,.29-.04,.47-.08v-1.79c0-.32,0-.46-.04-.62,.15,0,.28,.02,.38,.04,.04,0,.07,.02,.07,.05,0,.04-.02,.07-.04,.11-.02,.04-.02,.14-.02,.42v1.71c.19-.05,.38-.11,.58-.17v-3.28h-.44c-.52,0-.69,.01-.72,.01-.04,0-.05,0-.05-.05v-.25s0-.05,.05-.05c.03,0,.2,.01,.72,.01h1.04c.53,0,.69-.01,.73-.01,.04,0,.05,0,.05,.05v.25s0,.05-.05,.05c-.04,0-.2-.01-.73-.01h-.24v1.3h.22c.34,0,.41-.01,.45-.01,.04,0,.05,0,.05,.05v.25s0,.05-.05,.05c-.04,0-.11-.01-.45-.01h-.22v1.55Zm3.77-2.67s0,.05-.05,.05c-.02,0-.16,0-.5-.01-.07,.87-.34,1.7-.72,2.32,.33,.42,.78,.83,1.44,1.24-.08,.06-.16,.15-.2,.23-.03,.05-.05,.08-.08,.08-.02,0-.05-.02-.1-.05-.54-.4-.94-.79-1.27-1.21-.35,.44-.89,.88-1.69,1.26-.04,.02-.07,.04-.1,.04s-.05-.02-.08-.09c-.05-.09-.13-.16-.19-.21,.86-.35,1.47-.79,1.85-1.31-.3-.47-.53-1.04-.68-1.63-.1,.22-.22,.43-.35,.64-.03,.05-.05,.07-.07,.07-.02,0-.04-.02-.07-.05-.07-.08-.14-.13-.19-.15,.45-.62,.76-1.49,.91-2.13,.06-.25,.08-.42,.09-.59,.13,.02,.25,.05,.35,.09,.05,.02,.08,.04,.08,.07,0,.02,0,.04-.04,.07-.04,.05-.08,.18-.11,.3-.06,.22-.12,.45-.2,.68h1.21c.52,0,.69-.01,.72-.01,.04,0,.05,0,.05,.05v.24Zm-2.08,.04l-.07,.18c.15,.71,.34,1.31,.66,1.82,.27-.46,.48-1.1,.56-2h-1.15Z"/>
    <path d="M24.47,22.47s.06-.05,.1-.03c.29,.18,.59,.38,.85,.64,.03,.03,.03,.04,0,.08l-.15,.17c-.06,.07-.07,.08-.1,.04-.25-.26-.56-.5-.83-.67-.04-.02-.04-.04,0-.08l.13-.15Zm.47,3.39c-.05,.13-.1,.22-.1,.27,0,.04-.02,.07-.05,.07s-.05,0-.09-.03c-.1-.06-.18-.12-.29-.2,.12-.15,.18-.27,.27-.45,.19-.37,.38-.85,.55-1.45,.06,.08,.12,.12,.21,.18,.09,.05,.09,.06,.05,.18-.16,.5-.37,1-.55,1.42Zm-.11-4.89s.06-.05,.1-.03c.29,.18,.57,.41,.81,.65,.03,.04,.03,.06-.02,.12l-.13,.16c-.05,.05-.06,.06-.1,.02-.24-.27-.56-.54-.81-.7-.04-.02-.04-.04,.02-.09l.13-.14Zm4.86,2.81s0,.05-.04,.05-.25-.01-.86-.01h-1.28c-.19,.64-.41,1.19-.62,1.67,.67-.06,1.26-.14,1.88-.24-.17-.24-.36-.47-.55-.7-.04-.04-.03-.05,.04-.1l.15-.09s.06-.03,.08,0c.43,.47,.78,.95,1.12,1.53,.02,.04,.02,.05-.04,.09l-.17,.11c-.08,.05-.09,.05-.11,.01-.1-.19-.21-.38-.33-.56-.96,.16-1.77,.26-2.79,.38-.17,.02-.22,.04-.25,.05-.04,.02-.06,.04-.1,.04s-.07-.04-.08-.08c-.04-.12-.07-.25-.1-.38,.25,0,.44,0,.62-.02l.22-.02c.23-.52,.44-1.07,.61-1.7h-.53c-.61,0-.82,.01-.86,.01-.04,0-.05,0-.05-.05v-.25s0-.05,.05-.05c.04,0,.25,.01,.86,.01h.81v-1.1h-.52c-.59,0-.79,.01-.82,.01-.04,0-.05,0-.05-.05v-.25s0-.05,.05-.05c.03,0,.22,.01,.82,.01h.52v-.44c0-.41,0-.58-.04-.79,.16,0,.26,.01,.39,.03,.04,0,.07,.03,.07,.05,0,.04-.01,.06-.03,.11-.02,.05-.04,.22-.04,.58v.45h.76c.59,0,.79-.01,.82-.01,.04,0,.05,0,.05,.05v.25s0,.05-.05,.05c-.03,0-.23-.01-.82-.01h-.76v1.1h1.04c.61,0,.82-.01,.86-.01s.04,0,.04,.05v.25Z"/>
    <path d="M35.53,26.01c-.04,.06-.05,.08-.08,.08s-.05-.01-.09-.04c-1.38-.88-2.03-2.12-2.25-3.34-.25,1.52-1.08,2.64-2.31,3.33-.04,.02-.07,.04-.09,.04s-.04-.03-.08-.09c-.07-.09-.15-.16-.22-.22,1.62-.78,2.46-2.37,2.43-4.11,0-.33-.01-.51-.04-.72,.15,0,.32,.02,.45,.05,.05,.01,.08,.04,.08,.07,0,.05-.02,.08-.04,.12-.03,.07-.05,.19-.05,.34,0,.11,0,.21,0,.31,.24,1.63,.92,3.02,2.51,3.91-.08,.07-.16,.15-.21,.25Z"/>
    <path d="M40.79,23.91c0,1.73,.01,2.04,.01,2.07,0,.04,0,.05-.05,.05h-.29s-.05,0-.05-.05v-.37h-2.8v.38s0,.05-.04,.05h-.3s-.05,0-.05-.05c0-.04,.01-.34,.01-2.08v-1.17c0-1.17-.01-1.49-.01-1.53,0-.04,0-.05,.05-.05,.04,0,.24,.01,.84,.01h1.8c.6,0,.81-.01,.84-.01,.04,0,.05,0,.05,.05,0,.04-.01,.35-.01,1.38v1.32Zm-.38-2.39h-2.8v1.64h2.8v-1.64Zm0,1.98h-2.8v1.76h2.8v-1.76Z"/>
    <path d="M45.25,22.42c.56,.99,1.4,1.86,2.5,2.45-.06,.06-.13,.14-.18,.23-.04,.06-.05,.09-.07,.09s-.05-.02-.09-.04c-1.02-.64-1.83-1.5-2.36-2.54,0,.75,0,1.49,.01,2.1h.44c.55,0,.72-.01,.76-.01,.04,0,.05,0,.05,.05v.26s0,.05-.05,.05c-.04,0-.21-.01-.76-.01h-.43c.01,.63,.02,1.07,.02,1.15,0,.04,0,.05-.05,.05h-.32s-.05,0-.05-.05c0-.07,.01-.51,.02-1.15h-.37c-.54,0-.72,.01-.75,.01-.04,0-.05,0-.05-.05v-.26s0-.05,.05-.05c.03,0,.21,.01,.75,.01h.38c.01-.59,.02-1.3,.02-2.04-.51,1.02-1.31,1.91-2.21,2.51-.05,.03-.07,.05-.1,.05-.03,0-.05-.03-.07-.08-.05-.09-.1-.16-.18-.22,.91-.5,1.82-1.45,2.36-2.5h-1.28c-.58,0-.78,.01-.81,.01-.04,0-.05,0-.05-.05v-.27s0-.05,.05-.05c.03,0,.23,.01,.81,.01h1.46v-.54c0-.38,0-.51-.04-.73,.15,0,.3,.02,.42,.04,.04,0,.07,.02,.07,.05,0,.05-.02,.08-.04,.13-.02,.07-.03,.18-.03,.51v.54h1.58c.58,0,.78-.01,.81-.01,.04,0,.05,0,.05,.05v.27s0,.05-.05,.05c-.03,0-.23-.01-.81-.01h-1.41Z"/>
    <path d="M53.64,21.78s0,.05-.05,.05c-.04,0-.22-.01-.79-.01h-.83v.04c0,.35,.01,.49,.01,.52,0,.04,0,.05-.05,.05h-.27s-.05,0-.05-.05c0-.04,.01-.17,.01-.52v-.04h-1.27v.05c0,.35,.01,.48,.01,.51,0,.04,0,.05-.05,.05h-.27s-.05,0-.05-.05c0-.04,.01-.17,.01-.51v-.05h-.81c-.57,0-.76,.01-.79,.01-.04,0-.05,0-.05-.05v-.25s0-.05,.05-.05c.03,0,.22,.01,.79,.01h.81c0-.25,0-.48-.04-.65,.16,0,.27,.01,.37,.03,.05,.01,.08,.03,.08,.06,0,.02-.01,.04-.03,.08-.02,.06-.04,.2-.04,.45v.02h1.27c0-.26,0-.49-.04-.65,.16,0,.27,.02,.38,.04,.04,0,.07,.02,.07,.05s-.01,.05-.02,.08c-.02,.05-.04,.19-.04,.46v.02h.83c.57,0,.76-.01,.79-.01,.04,0,.05,0,.05,.05v.25Zm0,2.43s0,.05-.05,.05c-.04,0-.22-.01-.8-.01h-2.15c-.18,.45-.38,.89-.58,1.28,.79-.06,1.63-.15,2.28-.24-.14-.18-.31-.35-.48-.53-.03-.03-.04-.05,.04-.09l.13-.08c.06-.04,.07-.04,.11-.01,.46,.44,.85,.9,1.17,1.37,.02,.04,.02,.05-.04,.09l-.18,.12s-.06,.04-.08,.04c-.02,0-.02-.01-.04-.04-.11-.19-.25-.39-.39-.58-1.03,.16-2.31,.3-3.4,.38-.18,.02-.21,.03-.25,.05-.04,.02-.07,.04-.1,.04-.04,0-.06-.02-.08-.07-.04-.12-.07-.25-.1-.39,.25,0,.44,0,.62,0l.36-.02c.22-.43,.43-.88,.59-1.31h-.94c-.58,0-.76,.01-.8,.01-.04,0-.05,0-.05-.05v-.27s0-.05,.05-.05c.04,0,.22,.01,.8,.01h3.51c.58,0,.76-.01,.8-.01,.04,0,.05,0,.05,.05v.27Zm-.69-1.1s0,.04-.05,.04c-.04,0-.24-.01-.85-.01h-2.12c-.61,0-.82,.01-.85,.01-.05,0-.05,0-.05-.04v-.27s0-.05,.05-.05c.03,0,.24,.01,.85,.01h2.12c.61,0,.82-.01,.85-.01,.04,0,.05,0,.05,.05v.27Z"/>
    <path d="M54.96,24.29c0-.22,.01-.51,.02-.75-.15,.16-.3,.33-.48,.48-.03,.03-.05,.05-.07,.05-.02,0-.04-.02-.06-.07-.04-.1-.08-.16-.14-.22,.53-.45,.85-.87,1.11-1.38,.05-.09,.09-.21,.12-.3,.12,.05,.21,.11,.3,.17,.04,.03,.07,.05,.07,.08s-.02,.05-.05,.07c-.04,.02-.09,.08-.14,.18-.09,.16-.19,.33-.32,.5v2.25c0,.53,.01,.75,.01,.78,0,.04,0,.05-.05,.05h-.28s-.05,0-.05-.05c0-.03,.01-.25,.01-.78v-1.08Zm.82-3.17s-.1,.07-.15,.15c-.27,.39-.61,.75-1.07,1.12-.04,.03-.07,.05-.08,.05-.02,0-.04-.03-.07-.08-.05-.09-.1-.15-.16-.21,.46-.31,.81-.68,1.08-1.08,.08-.12,.12-.2,.13-.27,.12,.05,.23,.12,.32,.18,.04,.03,.06,.05,.06,.08s-.02,.05-.05,.07Zm.65,2.27s-.05,.13-.06,.24c-.06,.46-.18,1.02-.38,1.51-.02,.05-.03,.07-.05,.07-.02,0-.04-.01-.08-.03-.08-.04-.16-.06-.24-.07,.25-.55,.36-1.07,.41-1.48,.01-.14,.02-.31,0-.43,.14,.01,.26,.03,.34,.05,.06,.01,.08,.03,.08,.07,0,.02-.01,.05-.03,.08Zm1.59-.96s0,.05-.05,.05c-.03,0-.16-.01-.63-.01h-.18v2.62c0,.7,.01,1.01,.01,1.05,0,.04,0,.05-.05,.05h-.28s-.05,0-.05-.05c0-.04,.01-.35,.01-1.04v-2.62h-.19c-.47,0-.6,.01-.64,.01-.04,0-.05,0-.05-.05v-.25s0-.05,.05-.05c.04,0,.17,.01,.64,.01h.19v-.51c0-.4,0-.58-.04-.78,.16,0,.27,.02,.39,.04,.04,0,.07,.02,.07,.05,0,.04-.02,.06-.03,.11-.02,.07-.04,.2-.04,.58v.52h.18c.47,0,.6-.01,.63-.01,.04,0,.05,0,.05,.05v.25Zm-.45-1.36s.06-.03,.08,0c.16,.19,.27,.36,.38,.59,.02,.04,.01,.05-.04,.08l-.12,.08c-.07,.05-.08,.05-.11,0-.1-.22-.22-.42-.36-.6-.03-.04-.02-.05,.03-.08l.13-.07Zm.19,2.13c.05-.02,.07-.01,.08,.03,.18,.54,.29,1.04,.38,1.59,0,.04,0,.05-.06,.08l-.17,.06c-.08,.03-.1,.03-.1-.02-.07-.58-.18-1.09-.34-1.61-.01-.04-.01-.05,.05-.07l.16-.05Zm2.05-.41s0,.05-.05,.05c-.03,0-.14-.01-.54-.01h-.03v1.8c0,.42,0,.7,0,.95,0,.2-.04,.36-.16,.44-.12,.08-.32,.1-.73,.09q-.12,0-.14-.13c-.02-.08-.06-.18-.1-.25,.21,.02,.39,.04,.55,.04,.14,0,.22-.06,.22-.25v-2.69h-.16c-.39,0-.51,.01-.54,.01-.05,0-.05,0-.05-.05v-.24s0-.05,.05-.05c.03,0,.14,.01,.54,.01h.55c.4,0,.51-.01,.54-.01,.04,0,.05,0,.05,.05v.24Zm-.14-1.25s0,.05-.04,.05-.13-.01-.47-.01h-.39c-.35,0-.44,.01-.47,.01-.04,0-.05,0-.05-.05v-.25s0-.05,.05-.05c.03,0,.12,.01,.47,.01h.39c.34,0,.44-.01,.47-.01s.04,0,.04,.05v.25Z"/>
    <path d="M64.59,22.24c-.27,.98-.65,1.71-1.21,2.27,.59,.5,1.38,.94,2.42,1.27-.07,.07-.13,.18-.18,.28-.04,.07-.05,.1-.08,.1-.02,0-.05,0-.09-.02-1.01-.38-1.77-.85-2.34-1.36-.59,.52-1.35,.96-2.33,1.33-.04,.01-.07,.02-.09,.02-.04,0-.05-.02-.08-.09-.05-.09-.11-.19-.19-.24,1.1-.37,1.84-.78,2.42-1.29-.58-.6-.95-1.31-1.24-2.27h-.21c-.58,0-.77,.01-.8,.01-.04,0-.05,0-.05-.05v-.28s0-.05,.05-.05c.03,0,.22,.01,.8,.01h1.51v-.41c0-.31,0-.5-.05-.67,.15,0,.29,.01,.42,.03,.04,0,.07,.03,.07,.05,0,.04-.02,.07-.04,.12-.03,.06-.03,.15-.03,.46v.42h1.6c.58,0,.77-.01,.8-.01,.05,0,.05,0,.05,.05v.28s0,.05-.05,.05c-.03,0-.22-.01-.8-.01h-.28Zm-2.62,0c.26,.84,.58,1.47,1.14,2.02,.53-.53,.85-1.16,1.07-2.02h-2.21Z"/>
    <path d="M67.49,23.7c0-.24,.01-.61,.02-.92-.24,.34-.51,.66-.81,.95-.04,.04-.07,.06-.08,.06-.03,0-.05-.02-.07-.08-.04-.1-.1-.17-.16-.23,.71-.65,1.24-1.4,1.56-2.22,.06-.15,.1-.29,.11-.4,.15,.04,.25,.08,.37,.14,.05,.02,.07,.04,.07,.07s-.02,.05-.05,.08c-.04,.03-.08,.09-.14,.23-.13,.28-.27,.58-.44,.86v2.99c0,.64,.01,.91,.01,.94,0,.04,0,.05-.05,.05h-.29s-.05,0-.05-.05c0-.03,.01-.3,.01-.94v-1.53Zm1.96,1.51c0,.29,.05,.4,.24,.45,.15,.04,.38,.04,.76,.04s.59-.04,.74-.16c.12-.1,.2-.35,.23-.9,.07,.06,.16,.12,.27,.16,.11,.04,.1,.05,.09,.16-.05,.51-.15,.76-.34,.9-.21,.15-.55,.2-.99,.2-.48,0-.79,0-1-.08-.21-.08-.36-.24-.36-.64v-3.76c0-.31,0-.49-.04-.68,.16,0,.28,.02,.4,.04,.05,0,.08,.02,.08,.05,0,.04-.01,.07-.03,.11-.03,.06-.04,.15-.04,.46v1.76c.5-.31,.98-.68,1.44-1.15,.08-.09,.18-.21,.24-.32,.12,.07,.23,.16,.32,.24,.04,.04,.05,.06,.05,.09,0,.04-.04,.07-.09,.08-.07,.02-.17,.12-.32,.25-.44,.42-.96,.8-1.64,1.22v1.45Z"/>
    <path d="M73.63,23.59c.21-.08,.43-.19,.66-.31-.01,.07-.02,.15-.02,.23,0,.12,0,.13-.12,.19-.17,.08-.35,.16-.53,.24v.73c0,.39,.01,.68,.01,.91,0,.29-.05,.39-.17,.49-.11,.08-.22,.11-.59,.1-.12,0-.13,0-.15-.12-.02-.1-.06-.19-.11-.27,.13,.02,.23,.02,.42,.02s.24-.07,.24-.29v-1.44c-.12,.05-.23,.09-.35,.13-.13,.05-.19,.08-.22,.12-.02,.02-.05,.04-.07,.04s-.04-.01-.06-.05c-.04-.1-.08-.22-.11-.35,.16-.03,.31-.07,.54-.15l.27-.09v-1.36h-.18c-.41,0-.53,.01-.56,.01-.04,0-.05,0-.05-.05v-.25s0-.05,.05-.05c.03,0,.15,.01,.56,.01h.18v-.5c0-.36,0-.54-.04-.73,.14,0,.27,.02,.39,.03,.04,0,.07,.03,.07,.05,0,.04-.02,.07-.04,.12-.03,.07-.03,.18-.03,.52v.51h.03c.41,0,.52-.01,.56-.01,.04,0,.05,0,.05,.05v.25s0,.05-.05,.05c-.04,0-.15-.01-.56-.01h-.03v1.22Zm2.94-.12c.05,.36,.15,.69,.27,.99,.2-.14,.35-.27,.52-.43,.07-.07,.13-.14,.19-.22,.09,.07,.17,.15,.24,.22,.02,.02,.03,.04,.03,.06,0,.04-.02,.05-.06,.07-.05,.01-.09,.04-.19,.12-.18,.16-.35,.29-.59,.45,.25,.47,.61,.87,1.08,1.14-.07,.05-.13,.12-.18,.2-.04,.06-.05,.08-.08,.08-.02,0-.05-.02-.1-.05-.85-.62-1.28-1.58-1.44-2.63h-.48v2.04c.28-.07,.55-.15,.9-.28-.02,.07-.02,.13-.02,.21,0,.13,0,.12-.12,.16-.41,.13-.81,.25-1.25,.35-.13,.03-.2,.07-.24,.1-.02,.01-.04,.04-.08,.04-.02,0-.05-.02-.07-.06-.04-.09-.07-.22-.11-.35,.18-.02,.39-.05,.63-.1v-2.12h-.5c-.02,.3-.04,.58-.07,.82-.08,.57-.27,1.21-.62,1.75-.03,.04-.04,.07-.06,.07-.01,0-.04-.02-.07-.06-.08-.08-.16-.14-.22-.17,.36-.46,.56-1.11,.64-1.71,.07-.53,.09-1.07,.09-1.7,0-.9-.01-1.28-.01-1.31,0-.04,0-.05,.05-.05,.03,0,.24,.01,.82,.01h1.49c.58,0,.78-.01,.81-.01,.04,0,.05,0,.05,.05v.26s0,.05-.05,.05c-.03,0-.22-.01-.81-.01h-1.99v1.01c0,.24,0,.47-.01,.69h2.04c.58,0,.76-.01,.79-.01,.05,0,.05,0,.05,.05v.25s0,.05-.05,.05c-.03,0-.22-.01-.79-.01h-.4Zm.87-1.09s0,.05-.04,.05c-.04,0-.18-.01-.64-.01h-.75c-.47,0-.61,.01-.64,.01-.04,0-.05,0-.05-.05v-.24s0-.05,.05-.05c.03,0,.17,.01,.64,.01h.75c.47,0,.61-.01,.64-.01,.04,0,.04,0,.04,.05v.24Z"/>
    <path d="M83.98,24.92s0,.05-.05,.05c-.03,0-.22-.01-.77-.01h-3.82c-.55,0-.74,.01-.77,.01-.04,0-.05,0-.05-.05v-.24s0-.05,.05-.05c.02,0,.14,.01,.49,.01l-.08-2.76c-.01-.29-.02-.47-.06-.63,.12,.02,.19,.05,.3,.1,.19-.07,.34-.13,.51-.22,.09-.05,.17-.1,.22-.16,.1,.07,.19,.15,.25,.22,.02,.02,.03,.04,.03,.07s-.04,.05-.08,.05c-.04,0-.1,.02-.18,.05-.23,.11-.44,.19-.67,.28l.02,.72h.32c.19,0,.25-.01,.29-.01,.04,0,.05,0,.05,.05v.23s0,.05-.05,.05c-.04,0-.1-.01-.29-.01h-.32l.03,.77h.29c.18,0,.25-.01,.28-.01,.04,0,.05,0,.05,.05v.22s0,.05-.05,.05c-.04,0-.1,0-.28,0h-.29l.03,.91h.85v-2.68c0-.57-.01-.82-.01-.85,0-.04,0-.05,.05-.05,.03,0,.18,.01,.63,.01h.72c.46,0,.6-.01,.63-.01,.04,0,.05,0,.05,.05,0,.03-.01,.28-.01,.85v2.68h.87l.04-.93h-.29c-.2,0-.28,.01-.31,.01-.04,0-.05,0-.05-.05v-.23s0-.05,.05-.05c.04,0,.12,.01,.31,.01h.3l.03-.78h-.33c-.19,0-.28,.01-.31,.01-.04,0-.05,0-.05-.05v-.23s0-.05,.05-.05c.03,0,.12,.01,.31,.01h.35l.03-.82h-.4c-.23,0-.29,.01-.32,.01-.04,0-.05,0-.05-.05v-.24s0-.05,.05-.05c.03,0,.09,.01,.36,.01h.29c.27,0,.34-.01,.38-.01,.04,0,.05,.01,.05,.05-.02,.22-.04,.45-.04,.68l-.1,2.72c.29,0,.4-.01,.42-.01,.04,0,.05,0,.05,.05v.24Zm-3.44,.5c-.05,.01-.12,.05-.19,.1-.36,.27-.75,.49-1.3,.7-.04,.02-.07,.02-.08,.02-.04,0-.05-.03-.08-.1-.04-.08-.1-.15-.17-.2,.55-.18,.94-.35,1.31-.62,.07-.05,.15-.13,.22-.21,.12,.05,.22,.11,.3,.18,.04,.03,.05,.05,.05,.07,0,.03-.02,.05-.07,.07Zm1.45-4.04h-1.44v3.27h1.44v-3.27Zm-.19,.78s0,.04-.05,.04c-.03,0-.08,0-.35,0h-.27c-.26,0-.32,0-.35,0-.04,0-.05,0-.05-.04v-.22s0-.05,.05-.05c.03,0,.08,.01,.35,.01h.27c.27,0,.32-.01,.35-.01,.04,0,.05,0,.05,.05v.22Zm-.1,1.48c0,.32,.01,.42,.01,.45,0,.04,0,.05-.05,.05-.04,0-.08-.01-.3-.01h-.21c-.22,0-.26,.01-.29,.01-.04,0-.05,0-.05-.05,0-.03,.01-.13,.01-.45v-.44c0-.32-.01-.42-.01-.46s0-.04,.05-.04c.03,0,.07,0,.29,0h.21c.22,0,.26,0,.3,0,.04,0,.05,0,.05,.04s-.01,.14-.01,.46v.44Zm-.25-.67h-.36v.88h.36v-.88Zm.68,2.16s.06-.03,.1,0c.44,.38,.95,.61,1.59,.78-.07,.05-.13,.14-.17,.21-.04,.07-.05,.1-.08,.1-.02,0-.05-.01-.09-.02-.54-.17-1.02-.41-1.53-.85-.04-.03-.04-.05,.02-.08l.16-.12Z"/>
    <path d="M90.01,23.2c-.04,.07-.05,.1-.08,.1-.02,0-.04-.01-.08-.04-1.05-.47-1.92-1.11-2.54-2.01-.63,.92-1.44,1.53-2.43,2.02-.04,.02-.07,.04-.09,.04-.03,0-.04-.02-.08-.09-.05-.08-.1-.14-.19-.21,1.1-.46,1.97-1.18,2.46-1.96,.08-.15,.12-.22,.16-.34,.14,.02,.27,.04,.38,.08,.06,.02,.08,.04,.08,.07,0,.02,0,.05-.04,.07-.03,.01-.05,.03-.07,.04,.73,.98,1.57,1.56,2.7,1.99-.08,.08-.13,.15-.18,.24Zm-.28,.97s0,.05-.05,.05c-.04,0-.23-.01-.84-.01h-1.85c-.18,.45-.39,.93-.63,1.4,.73-.05,1.54-.13,2.24-.21-.18-.22-.36-.44-.57-.67-.04-.04-.02-.05,.04-.08l.18-.1s.07-.02,.09,0c.44,.45,.81,.93,1.16,1.44,.02,.03,.02,.05-.03,.09l-.19,.13s-.05,.03-.07,.03c-.02,0-.03-.01-.05-.04-.12-.17-.22-.34-.35-.51-1.07,.14-2.28,.25-3.34,.33-.12,.01-.2,.02-.23,.05-.02,.02-.05,.04-.08,.04-.04,0-.05-.03-.07-.07-.04-.12-.07-.27-.09-.41,.19,.01,.39,.01,.66,0,.08,0,.17,0,.26-.01,.26-.49,.47-.97,.64-1.42h-.73c-.6,0-.8,.01-.83,.01-.05,0-.05,0-.05-.05v-.27s0-.05,.05-.05c.03,0,.23,.01,.83,.01h3c.61,0,.8-.01,.84-.01,.04,0,.05,0,.05,.05v.27Zm-1.15-1.11s0,.05-.05,.05c-.03,0-.2-.01-.71-.01h-.98c-.51,0-.68,.01-.71,.01-.04,0-.05,0-.05-.05v-.26s0-.05,.05-.05c.03,0,.2,.01,.71,.01h.98c.51,0,.68-.01,.71-.01,.04,0,.05,0,.05,.05v.26Z"/>
  </g>
</svg>