<?xml version="1.0" encoding="UTF-8"?>
<svg id="_デザイン" data-name="デザイン" xmlns="http://www.w3.org/2000/svg" viewBox="0 0 216.65 335.53">
  <path d="M214.8,16.82c-2.13-.81-3.56-1.64-5.38-3.07-1.82-1.46-2.78-2.73-3.61-4.32h-2.65c-2.6,4.34-6.71,6.14-8.94,7.1l-1.92-2c3.04-.6,6.53-2.91,8.16-5.1-2.21,.03-4.58,.05-7.38,.16v-2.18c2.34,.08,5.75,.13,7.51,.13h.96c.13-.34,.34-.83,.73-2.03-.65,.05-3.59,.26-4.19,.29-.65,.05-.86,.08-1.35,.16-.36,.55-.39,.62-.6,.62-.31,0-.36-.39-.42-.62l-.39-2.24c.36,.05,.52,.05,.96,.05,.52,0,2.81-.03,3.28,0,.99-1.33,1.87-2.52,2.47-3.77l2.29,.78c.23,.08,.49,.23,.49,.49,0,.31-.34,.36-.83,.47-.26,.29-1.43,1.69-1.69,1.98,.34-.03,.52-.03,1.14-.05l5.8-.23c-.86-.73-1.27-.91-1.69-1.09l1.53-1.61c1.79,.96,4.32,3.46,4.86,4.47l-1.64,1.79c-.49-.68-1.35-1.82-1.53-2.05l-7.1,.44,1.51,.57c.16,.05,.34,.13,.34,.36,0,.21-.08,.23-.83,.44-.31,.55-.36,.62-.44,.78h4.11c1.61,0,5.07-.05,7.51-.13v2.18c-2.6-.1-4.47-.13-7.49-.16,3.2,4.03,7.41,5.15,8.27,5.17l-1.85,2.21Zm-5.36-.73c-.08,0-.62-.1-.73-.1-1.12,1.09-4.08,2.89-4.52,3.12-1.9,1.01-3.98,1.64-6.14,1.92l-1.79-2.03c6.29-.62,8.76-2.89,11.49-5.36l1.74,1.64c.18,.18,.26,.39,.26,.55,0,.26-.26,.26-.31,.26Zm-2.7-2.68c-.23,0-.44-.03-.6-.05-1.9,1.69-2.52,2.24-3.93,2.96-.49,.26-2.24,1.14-4.13,1.66l-1.56-1.82c2.11-.47,4.24-1.51,5.04-1.98,1.33-.78,2.44-1.85,3.41-3.04l1.74,1.4c.21,.18,.47,.36,.47,.57,0,.26-.31,.29-.44,.29Zm5.36,5.49s-.65-.08-.7-.1c-5.15,4.73-11.23,5.28-13.36,5.49l-1.46-2.34c3.25,.13,5.33-.31,7.83-1.4,2.21-.96,4.24-2.26,5.98-3.9l1.77,1.43c.26,.21,.31,.26,.31,.49,0,.18-.08,.34-.36,.34Z"/>
  <path d="M203.86,47.32c-.62,2.29-1.66,3.07-4.81,3.07l-1.17-2.78c.83,.18,1.9,.21,2,.21,1.27,0,1.51-.42,1.85-2.05,.36-1.66,.7-4.99,.7-8.42,0-.99-.03-1.64-.08-2.39h-2.39c-.16,2.05-.39,4.08-.83,6.08-1.33,6.08-4.16,9.13-4.89,9.83l-2.44-1.79c4-3.59,5.36-9.07,5.67-14.12h-.39c-.6,0-3.22,.08-4.37,.21v-2.55c1.35,.18,3.2,.21,4.11,.21h.73c0-1.66-.05-3.3-.13-4.94l2.99,.26c.23,.03,.57,.03,.57,.34,0,.16-.05,.31-.81,.7-.03,.31-.05,.52-.05,1.77,0,.57,0,.81-.03,1.87h.78c1.33,0,2.63-.08,3.93-.21,0,8.76,0,11.21-.94,14.72Zm8.94,2.57c.05-.57,.1-1.25,.1-1.98h-3.93c.05,.78,.1,1.56,.21,2.34h-2.99c.05-.52,.18-2.31,.26-3.77,.03-.42,.05-2.5,.05-3.59v-6.32c0-3.93,0-4.08-.13-5.8,.16,0,2.42,.05,2.81,.05h2.89c.7,0,1.56,.03,3.46-.08-.13,1.82-.16,3.61-.16,5.43v6.32c0,1.82,.1,5.67,.34,7.38h-2.91Zm.1-16.74h-3.93v12.4h3.93v-12.4Z"/>
  <path d="M211.99,59.51c-1.92,.6-5.15,1.61-7.83,5.9-.86,1.38-1.27,2.78-1.27,3.93,0,3.2,3.38,5.3,7.38,5.62l-.86,2.6c-8.22-1.4-9.1-6.19-9.1-8.22,0-1.46,.52-5.51,6.55-9.62-4.06,.18-9.13,.99-12.25,1.72l-.39-2.96c4.21,.13,14.98-.73,20.23-2.03v2.73c-.49,0-1.56,.05-2.47,.34Zm.91,7.31c-.91-.86-1.87-1.51-3.02-2.03l1.04-1.43c1.3,.36,2.5,1.35,3.12,2.08l-1.14,1.38Zm2.65-2.7c-1.2-1.07-1.92-1.59-3.25-2.21l1.14-1.35c.49,.18,1.66,.62,3.12,2.05l-1.01,1.51Z"/>
  <path d="M208.12,92.35c.7,1.2,2.16,3.54,4.03,5.56l-1.33,1.79c-2.05-.94-4.29-1.66-6.55-1.66-1.82,0-4.13,.91-4.13,2.6,0,2.18,2.63,2.31,3.74,2.31,.44,0,3.33,0,6.32-.81v2.65c-.86,.05-4.65,.31-5.43,.31-1.27,0-3.87-.13-5.17-1.01-1.3-.91-1.87-2.29-1.87-3.51s.57-2.37,1.22-2.94c1.07-.96,3.28-1.66,5.46-1.66,1.48,0,2.57,.29,3.82,.62-.75-1.17-1.79-2.78-2.24-3.54-3.67,1.12-5.95,1.66-9.41,1.72l-.88-2.29c.55,.05,.86,.08,1.53,.08,1.01,0,3.02-.1,5.46-.68,.99-.23,1.61-.47,2.21-.7-.21-.39-1.09-2.18-1.27-2.52-1.66,.47-3.56,.99-6.97,1.27l-.99-2.11c.49,.05,.65,.05,1.07,.05,1.9,0,4.29-.34,6.06-1.01-.6-1.22-1.2-2.44-1.77-3.67l2.55-.29c.42-.05,.47-.08,.55-.08,.42,0,.49,.16,.49,.42,0,.18-.05,.26-.1,.31-.05,.05-.31,.34-.36,.39,.34,1.09,.52,1.53,.83,2.24,1.3-.44,3.28-1.14,5.02-2.47l.7,2.18c-2,1.04-4.03,1.72-5.02,2.05,.21,.39,1.09,2.18,1.27,2.52,1.48-.52,3.93-1.56,5.72-2.78l.57,2.39c-2,.99-3.15,1.51-5.12,2.24Z"/>
  <path d="M204.71,131.85c-2.24,0-5.41-1.01-5.41-3.51,0-2.13,2.13-3.46,4.11-3.46,1.2,0,2.7,.47,4,1.61,.7,.62,1.04,1.2,1.35,1.72,.65-.49,2.03-1.53,2.03-3.64,0-.36-.08-2.11-1.14-3.15-1.04-1.01-2.57-1.12-3.25-1.12-1.85,0-3.69,.73-5.12,1.74-1.14,.81-2.03,1.74-4.03,3.9l-2.16-1.72c2.55-1.9,8.01-7.44,10.45-10.69-1.72,.36-2.55,.55-4.32,.78-.49,.05-2.65,.26-3.09,.31l-.55-2.52c.44,.05,.91,.1,1.72,.1,3.46,0,7.83-.88,9.26-1.46l1.56,1.82c-1.25,.78-1.53,1.07-2.89,2.44-1.82,1.85-2.13,2.18-3.56,3.93,.73-.34,1.74-.81,3.33-.81,3.82,0,6.32,2.99,6.32,5.98,0,4.29-3.93,7.72-8.61,7.72Zm.94-4.08c-.52-.44-1.46-.73-2.24-.73-1.3,0-1.85,.73-1.85,1.2,0,.99,1.56,1.51,3.07,1.51,1.04,0,1.59-.18,2.05-.34-.23-.52-.49-1.17-1.04-1.64Z"/>
  <path d="M207.34,158.7l-1.98-2.16c1.53-.39,4.08-1.04,5.77-2.99,1.53-1.79,1.98-4.24,1.98-5.82,0-3.72-2.76-5.46-4.03-6.08-1.56-.78-2.57-.75-3.56-.75-.44,3.17-1.07,7.8-3.25,12.61-.49,1.07-1.79,3.87-3.28,3.87-.99,0-1.77-.49-2.21-.88-.99-.81-3.17-3.09-3.17-6.99,0-1.9,.55-4.81,2.83-7.15,3.61-3.67,7.02-3.67,8.53-3.67,2.37,0,5.59,.42,8.16,3.25,1.53,1.69,2.34,3.93,2.34,6.21,0,6.4-4.52,9.57-8.14,10.56Zm-4.86-17.52c-2.21,.36-6.55,3.07-6.55,8.32,0,2.31,1.43,4.76,2.52,4.76,.91,0,1.59-1.56,1.9-2.26,1.87-4.37,2.65-8.71,2.81-10.89-.23,.03-.44,.05-.68,.08Z"/>
  <path d="M198.92,167.54c-1.9,4.63-2.08,9.52-2.08,10.71,0,1.77,.21,2.83,.36,3.69,.23-.47,.44-.91,.7-1.77,.31-1.09,.36-1.2,.47-1.53l1.3,1.14c-.21,.55-1.43,4.06-1.77,6.14l-2,.34c-.94-3.28-1.14-6.24-1.14-8.5s.16-3.8,.91-7.8c.34-1.85,.57-2.96,.86-4.13l2.86,.57c.18,.03,.36,.13,.36,.36,0,.31-.08,.34-.83,.78Zm15.03,16.9c-.78-.81-2.11-1.77-3.54-2.24,.29,2.99-2.08,3.8-4.11,3.8-2.94,0-4.97-1.4-4.97-3.38,0-1.53,1.27-2.52,2.11-2.81,1.59-.57,3.51-.57,3.74-.57,.39,0,.57,.03,.81,.05-.18-2.05-.18-2.68-.21-6.97-1.53,.16-2.24,.23-3.51,.23-.94,0-1.53-.05-2.03-.1v-2.29c.6,.13,1.77,.34,3.07,.34,.68,0,1.4-.05,2.47-.18,0-.44,.08-2.99,.1-3.64,0-.44,0-.6-.03-1.04l3.17,.34c.1,0,.39,.03,.39,.36,0,.23-.08,.29-.7,.68-.21,.83-.36,1.46-.44,2.91,.75-.16,2.03-.42,3.25-.94v2.16c-1.79,.6-3.17,.81-3.38,.86,0,.23-.03,1.98-.03,2.13,0,1.82,.08,3.8,.26,5.62,1.35,.39,3.09,1.07,4.63,2.29l-1.07,2.39Zm-7.59-3.12c-1.64,0-2.63,.49-2.63,1.22s.94,1.27,2.13,1.27c.94,0,1.69-.39,1.95-.99,.16-.39,.13-.81,.1-1.38-.39-.05-.91-.13-1.56-.13Z"/>
  <path d="M210.28,191.91c3.2,2.13,4.71,3.95,5.59,4.99l-2.03,2.13c-1.35-2.03-2.94-3.85-5.36-5.36l1.79-1.77Z"/>
  <path d="M208.93,225.39c-.52-2.26-3.2-2.26-3.67-2.26-4.47,0-5.17,3.82-5.54,6.29,1.56-.94,2.96-1.69,5.28-1.69,3.2,0,7.28,1.66,7.28,6.24s-3.54,6.71-7.67,6.71c-7.77,0-7.93-6.86-7.93-9.2,0-5.1,1.51-11,8.55-11,2.42,0,6.06,.91,6.71,4.91h-3.02Zm-8.87,8.84c0,2.89,2.57,3.77,4.5,3.77,1.2,0,4.68-.39,4.68-3.82,0-3.17-2.86-3.77-4.37-3.77-.88,0-4.81,.03-4.81,3.82Z"/>
  <path d="M211.66,269.7c.08-.47,.08-.55,.1-1.25h-9.88c.03,.52,.03,.73,.1,1.25h-2.86c.21-1.09,.31-2.83,.31-3.98v-3.95c-1.25,.68-3.51,1.85-5.51,2.34l-1.48-2.42c3.15-.68,5.67-1.72,9.28-4.29-1.33-1.72-2.68-2.65-3.15-2.99-1.46,.99-1.9,1.27-2.89,1.66l-1.79-2.16c5.56-2.03,8.24-6.29,8.97-7.93l2.55,.88c.16,.05,.52,.18,.52,.49,0,.36-.34,.42-1.09,.52-.47,.7-.78,1.09-1.09,1.48h2.34c1.22,0,2.81-.05,4.6-.31l1.3,1.4c-1.43,2.31-3.28,4.34-5.3,6.19-.91,.86-1.79,1.56-2.47,2.05h5.9c1.3,0,2.96-.08,4.26-.13-.05,1.4-.08,2.63-.08,3.12v4.08c0,1.69,.05,2.78,.18,3.93h-2.83Zm-9.75-18.25c-.78,.78-1.04,1.07-1.38,1.4,2.47,2,2.91,2.47,3.3,2.91,2.44-2.05,3.3-3.22,4.06-4.32h-5.98Zm9.85,9.62h-9.88v5.07h9.88v-5.07Z"/>
  <path d="M208.28,277.68c0-2.13,1.72-3.85,3.8-3.87,2.08-.03,3.8,1.74,3.8,3.87s-1.72,3.87-3.8,3.87-3.8-1.72-3.8-3.87Zm6.45,0c0-1.48-1.2-2.7-2.65-2.7s-2.65,1.22-2.65,2.7,1.17,2.7,2.65,2.7,2.65-1.22,2.65-2.7Z"/>
  <path d="M167.01,20.46c-1.43-.44-2.6-.99-4.55-2.24-.21,4.94-1.38,5.95-4.84,5.77l-1.35-2.26c.47,.08,1.43,.18,2.16,.18,1.25,0,1.69-.62,1.82-3.09h-4.32c-.44,1.12-1.69,4.11-7.15,5.28l-1.74-1.92c2.42-.18,5.02-.65,6.4-3.33-.47,.03-2.63,.1-3.07,.1-.13,0-.23,.03-.62,.05v-.57c-1.48,.88-2.65,1.43-3.72,1.74l-1.56-1.79c2.68-.62,4.97-1.92,6.34-3.2-1.25,.03-3.98,.08-5.95,.13v-2c3.25,.1,6.14,.16,7.51,.16,.34-.44,.52-.75,.7-1.09-.47,0-3.93,.08-4.68,.08,.05-1.12,.08-2.16,.08-2.29v-2.24c0-.83-.03-1.59-.1-2.6,1.79,.08,2.16,.1,2.99,.1v-1.25c-2.76,.03-4.97,.08-6.71,.13V2.29c2.11,.13,4.63,.13,6.71,.16-.03-.52-.03-.94-.1-2.08l2.55,.26c.18,.03,.47,.05,.47,.29,0,.29-.18,.34-.57,.49-.03,.57-.03,.68-.05,1.04h5.75c-.03-1.17-.05-1.51-.1-2.05l2.5,.18c.23,.03,.49,.05,.49,.29,0,.26-.21,.34-.6,.52-.03,.29-.03,.47-.03,1.04,2.39,0,4.55,0,6.63-.13v2.03c-2.21-.05-4.42-.1-6.63-.13v1.25c.47,0,2.5-.03,2.91-.05-.05,.68-.08,1.14-.08,2.5v2.34c0,.99,.05,1.85,.08,2.24-.16,0-3.41-.08-5.3-.08h-3.77c-.31,.57-.44,.81-.62,1.09h5.54c1.53,0,4.34-.05,7.67-.16v2c-.83-.03-2.94-.1-6.45-.13,1.09,1.14,4.03,2.76,6.86,3.35l-1.48,1.92Zm-4.81-13.29h-11.47v1.01h11.47v-1.01Zm0,2.44h-11.47v1.01h11.47v-1.01Zm-3.2,5.56h-5.36c-.39,.44-.91,1.07-2.03,1.92,.36,0,2.05,.03,2.44,.03,.16-.75,.21-1.22,.26-1.74l2.6,.31c.16,.03,.36,.05,.36,.34,0,.16-.1,.21-.62,.49-.05,.26-.08,.36-.16,.6h1.92c.34,0,2.08-.03,2.47-.03-.65-.52-1.3-1.09-1.9-1.92Zm.39-11h-5.75v1.27h5.75v-1.27Z"/>
  <path d="M166.8,51.12c-2.29-.42-6.6-1.74-9.13-3.87v.57c0,1.01,.16,3.02,.23,3.48h-2.83c.21-.73,.29-3.17,.29-3.54v-.68c-3.95,2.96-8.16,4-9.18,4.21l-1.56-2.08c2.03-.16,5.41-.88,8.68-3.25h-.65c-1.01,0-4.78,.05-7.62,.23v-2.44c2.55,.18,5.07,.23,7.62,.23h2.7v-1.59c-2.65,0-3.02,.03-6.34,.21,.1-1.27,.18-2.21,.18-2.96v-5.38c-.94,.94-1.98,1.87-3.02,2.44l-2.18-1.59c3.85-1.53,6.53-5.69,7.28-7.75l2.52,.88c.13,.05,.34,.13,.34,.36,0,.39-.29,.44-1.01,.57-.26,.49-.55,1.07-1.09,1.77h4c.68-1.46,1.07-2.5,1.22-3.38l2.78,.7c.21,.05,.31,.23,.31,.34,0,.21-.13,.26-.73,.52-.36,.65-.7,1.3-1.01,1.82h1.74c.96,0,3.82-.05,5.82-.21v2.29c-1.79-.16-3.95-.16-5.82-.16h-1.79v1.33h1.12c1.12,0,3.38-.08,4.71-.16v2.08c-1.61-.08-3.87-.16-4.71-.16h-1.12v1.35h1.09c1.46,0,3.28,0,4.71-.16v2.08c-2.5-.13-4.32-.16-4.71-.16h-1.09v1.38h2.63c.88,0,3.59-.05,5.46-.23v2.31c-1.69-.16-3.72-.16-5.46-.16h-3.51v1.59h2.52c1.22,0,5.07-.05,7.7-.23v2.44c-2.42-.16-5.25-.23-7.7-.23h-.83c.81,.55,2.18,1.33,3.15,1.72,1.04,.42,4.06,1.25,5.72,1.38l-1.43,2.05Zm-10.58-18.23h-4.99v1.33h4.99v-1.33Zm0,3.09h-4.99v1.35h4.99v-1.35Zm0,3.12h-4.99v1.38h4.99v-1.38Z"/>
  <path d="M162.43,70.43c-.91,1.51-1.53,2.31-2.03,2.89,.47,.18,1.2,.47,1.98,.83,1.69,.81,3.25,1.69,4.73,2.86l-1.87,1.87c-1.95-1.61-3.41-2.68-6.58-3.82-3.43,2.81-7.49,3.22-11.15,3.41l-1.64-2.31c6.5,.21,8.4-.81,10.14-1.98-2.44-.7-3.09-.83-3.95-.99-.05,.08-.81,.96-.81,.99l-2.37-1.22c.47-.42,.81-.73,2.29-2.52-1.25,.03-2.91,.05-3.74,.08-1.07,.03-1.51,.05-2.42,.13v-2.57c3.15,.21,7.31,.23,7.67,.23,.31-.52,.68-1.12,1.01-1.85h-1.64c-.29,0-1.77,.05-2.65,.08-1.92,.08-2.13,.08-2.5,.13,.13-.99,.13-1.79,.13-2.16v-2.99c0-.52-.05-1.51-.1-2.03,.47,.08,.91,.1,1.56,.16,.57,.03,3.07,.08,3.56,.08h.42v-1.85c-1.82,0-4.34,0-6.4,.13v-2.31c2.83,.21,6.71,.21,6.99,.21h6.97c.05,0,4,0,6.99-.21v2.31c-1.98-.13-3.93-.13-6.58-.13v1.85h.57c.75,0,4.34-.26,5.12-.36-.1,.49-.21,1.95-.21,2.16v3.02c0,.47,.1,1.51,.16,1.98-1.61-.05-3.95-.05-5.59-.05h-5.82l1.74,.23c.1,.03,.42,.05,.42,.29,0,.13-.42,.26-.7,.29-.34,.6-.36,.65-.62,1.04h4.73c2.57,0,5.15-.05,7.72-.23v2.57c-1.14-.08-2.11-.16-5.54-.21Zm-9.96-8.92h-3.25v2.99h3.25v-2.99Zm1.61,8.89c-.1,.16-.6,.86-.7,1.01,1.51,.31,3.04,.68,4.55,1.12,.65-.68,1.38-1.64,1.72-2.13h-5.56Zm4-12.53h-3.25v1.85h3.25v-1.85Zm0,3.64h-3.25v2.99h3.25v-2.99Zm5.67,0h-3.3v2.99h3.3v-2.99Z"/>
  <path d="M153.02,84.19c-.29,.57-1.33,3.12-1.59,3.64-.39,.81-.68,1.3-1.07,2,.44,.34,.49,.39,.49,.52,0,.1-.05,.16-.1,.21-.08,.08-.36,.39-.42,.47,0,.52-.05,2.81-.05,3.28v5.28c0,.29,.1,4.58,.21,6.29h-2.81c.05-2.11,.18-5.46,.18-7.57v-4.65c-.57,.73-1.07,1.25-1.72,1.92l-2.16-1.74c3.28-2.89,5.02-5.75,6.99-11.91l2.68,1.4c.1,.05,.29,.18,.29,.36,0,.39-.26,.42-.94,.49Zm10.24,13.16h-1.2v.47c0,1.09,.03,2.29,.29,8.06h-3.02c.21-3.48,.29-4.81,.29-8.53h-2.26c-.62,0-3.38,.08-3.93,.08-.65,.03-.94,.03-1.95,.05v-2.44c1.38,.1,4.68,.13,6.14,.13h2v-4.45h-4.24c-1.07,1.85-1.59,2.34-2,2.76l-2.39-1.3c1.79-1.4,3.46-4.5,4.32-8.01l2.6,1.22c.16,.05,.21,.13,.21,.26,0,.31-.31,.47-.68,.6-.13,.39-.39,1.04-.99,2.34h3.17c0-3.09-.13-4.76-.26-6.45l3.25,.36c.18,.03,.31,.13,.31,.34,0,.26-.23,.39-.81,.73-.05,1.69-.05,2-.05,4.99,.52,0,2.86-.03,3.35-.05,.7-.03,1.07-.03,2.11-.08v2.42c-2.05-.08-2.39-.13-5.38-.13h-.08v4.45h.96c.99,0,1.51,.03,2.57-.03,1.95-.08,2.18-.1,2.7-.1v2.47c-1.79-.1-3.22-.16-5.04-.16Z"/>
  <path d="M165.63,120.93c-.13,0-.7-.08-.99-.1-1.38,.34-1.51,.39-4.78,1.72,.03,.75,.03,4.19,.05,4.86l-2.81,.18c.1-.83,.26-2.11,.36-4-1.61,.81-2.57,1.38-3.43,2.26-.6,.62-1.04,1.53-1.04,2.24,0,2,2.89,2.24,5.02,2.24,1.35,0,3.95-.21,5.9-.78l-.75,2.68c-.21,0-.39,.03-1.92,.16-.6,.05-1.33,.1-2.44,.1-4.76,0-5.85-.62-6.81-1.46-.88-.75-1.38-1.85-1.38-2.99,0-3.38,4.21-5.75,6.6-6.92-.23-.68-.55-1.56-1.92-1.56s-2.89,1.12-3.72,1.92c-1.12,1.09-1.9,2.31-2.47,3.3l-2.26-1.25c2.73-2.7,4.08-4.91,5.49-7.64-1.82,.21-2.6,.31-4.16,.39l-.42-2.47c.7,.05,1.4,.13,2.44,.13,1.3,0,2.26-.1,3.09-.18,.73-1.79,.96-2.76,1.25-3.85l2.89,.42c.23,.03,.44,.16,.44,.42,0,.29-.05,.31-.96,.88-.42,.86-.52,1.12-.81,1.72,2.52-.44,3.98-.88,5.54-1.46l-.26,2.47c-1.46,.36-4.71,.94-6.32,1.14-.62,1.22-1.04,1.9-1.48,2.6,.52-.21,1.85-.65,2.78-.65s2.31,.57,2.94,1.95c.1,.23,.18,.52,.23,.73,3.38-1.4,3.51-1.46,4.71-2.08l1.69,2.16c.1,.13,.13,.26,.13,.36,0,.21-.16,.36-.42,.36Z"/>
  <path d="M165.11,158.57c-3.48-2.78-6.01-3.43-7.18-3.72,0,1.09-.03,2.37-.78,3.12-1.09,1.07-3.35,1.43-4.76,1.43-2.21,0-5.88-.94-5.88-3.8,0-2.57,3.02-3.87,6.34-3.87,.96,0,2,.05,2.47,.08-.21-2.31-.26-4.94-.29-7.44-.05-4.63-.05-5.12-.16-6.58l3.54,.31c.18,.03,.47,.05,.47,.39,0,.23-.1,.31-.99,1.07-.16,1.22-.31,2.5-.34,3.8,1.46,.03,4.78,.08,7.59-1.04v2.52c-2.16,.68-5.25,.68-7.64,.68,0,3.48,0,4.5,.16,6.71,1.66,.36,3.25,.91,4.81,1.56,1.07,.47,2.52,1.27,3.77,1.98l-1.14,2.81Zm-12.3-4.63c-1.2,0-2.42,.21-3.09,.57-.31,.16-.75,.47-.75,1.14,0,1.43,2.68,1.56,3.2,1.56,3.43,0,3.28-1.9,3.2-2.99-.57-.13-1.43-.29-2.55-.29Z"/>
  <path d="M159.44,188.16c-.81-1.64-3.22-4.89-4.94-6.53-1.22-1.17-3.35-3.12-4.37-3.87-.94-.68-1.33-1.09-1.33-2.03,0-.83,.39-1.25,1.46-2.34l3.12-3.12c1.98-2.05,4.19-4.32,5.49-6.5l2.34,1.51c.21,.13,.44,.29,.44,.6,0,.16-.08,.29-.21,.36-.16,.08-.94,.29-1.09,.34-1.77,1.74-3.02,2.99-5.64,5.59-.6,.6-1.69,1.64-2.18,2.13-.52,.49-.65,.83-.65,1.12,0,.49,.34,.88,.7,1.22,4.29,3.77,4.65,4.13,6.37,6.14,1.01,1.2,2.21,2.65,2.91,3.51l-2.42,1.87Z"/>
  <path d="M157.49,213.17c-2,0-6.21-.13-8.32-1.17-1.33-.65-2.11-1.59-2.11-2.91,0-1.64,1.2-3.33,2.83-4.68l1.66,1.56c-.88,.81-1.92,1.79-1.92,2.78,0,1.9,2.89,2.26,6.37,2.26,2.96,0,5.67-.31,8.58-.91l.34,2.6c-2.47,.36-4.94,.47-7.44,.47Zm.6-16.38c-.68,.03-1.61,.05-2.83,.05s-1.69,.23-5.23-.16l-.23-.03-.44-2.47c1.98,.29,3.69,.47,6.34,.47,2.39,0,4.76-.1,7.1-.55v2.44c-.75,.03-4.03,.23-4.71,.23Zm7.8,1.04c-.21-.23-.68-.81-1.25-1.33-1.07-.96-1.17-1.07-1.33-1.22l1.33-1.43c.99,.73,1.92,1.64,2.55,2.57l-1.3,1.4Zm2-3.04c-.75-1.14-2.08-2.21-2.55-2.57l1.43-1.2c1.3,.78,2.05,1.82,2.42,2.44l-1.3,1.33Z"/>
  <path d="M163.42,241.36h-5.82c.05,.44,.05,.49,.08,.88h-2.65c.21-3.25,.29-4.32,.29-6.16v-5.51c-.47,.42-.88,.78-1.82,1.48l-1.04-.83v3.69c0,1.53,.08,2.99,.18,4.42h-2.37c.05-.26,.13-1.14,.16-1.46h-2.24c.03,.47,.05,2.55,.08,2.96h-2.39c.16-1.69,.39-4.94,.39-6.58v-1.82c-.31,.39-.36,.47-.49,.62l-2.13-1.25c3.22-3.12,3.9-8.37,4-9.46-.88,0-1.82,0-2.57,.13v-2.31c1.01,.21,2.42,.21,2.52,.21h2.55c.05,0,1.46,0,2.55-.21v2.31c-.78-.13-1.64-.13-2.83-.13-.13,1.43-.44,2.86-1.04,4.81h1.33c1.35,0,1.51,0,2.44-.08-.1,.94-.13,2.42-.13,2.78,3.59-2.31,4.71-5.25,5.25-6.86h-2.13v.83c0,1.25,0,1.38,.08,2.05h-2.52c.1-1.14,.16-1.69,.16-2.86s-.03-1.46-.08-2.16c2.05,.13,2.94,.13,4.45,.13h.6c.23-1.27,.26-1.74,.29-2.44l2.44,.29c.1,0,.75,.08,.75,.47,0,.44-.57,.49-.75,.52-.1,.52-.13,.62-.26,1.17h2.83c.68,0,3.64-.1,4.26-.13-.05,.62-.1,1.22-.1,2.24,0,1.43,.03,1.98,.1,2.78h-2.42c.03-.65,.05-.96,.05-2.05v-.83h-5.33c-.16,.47-.96,2.57-2.08,4.32h2.6c.05-.1,.88-2.03,1.14-3.25l2.05,.52c.6,.16,.78,.23,.78,.52,0,.36-.23,.39-.78,.47-.13,.29-.68,1.51-.78,1.74,1.64,0,1.85,0,4.58-.13v2.16c-1.87-.1-2.7-.13-4.13-.13h-.65v2.03h.81c1.07,0,1.64,0,3.25-.1v2.13c-1.85-.08-2.05-.08-3.33-.08h-.73v2.03h.91c1.38,0,1.61-.03,3.15-.1v2.13c-1.92-.08-2.29-.08-3.25-.08h-.81v2.26h.52c1.01,0,3.43-.1,4.5-.13v2.21c-1.59-.08-3.69-.16-4.45-.16Zm-13-12.25h-2.24v6.86h2.24v-6.86Zm10.22,.1h-3.04v2.03h3.04v-2.03Zm0,3.98h-3.04v2.03h3.04v-2.03Zm0,3.98h-3.04v2.26h3.04v-2.26Z"/>
  <path d="M151.07,252.04h-2.63c-.21,0-2.7,.03-3.74,.1v-2c.73,.05,3.07,.1,3.9,.1h2.37c.91,0,1.72-.03,3.61-.1v2c-1.01-.1-3.3-.1-3.51-.1Zm.23,17.11c.03-.42,.05-.47,.08-.94h-3.51c.03,.57,.03,.65,.05,1.3h-2.44c.08-1.92,.1-2.18,.1-3.28v-2.86c0-.36-.08-1.98-.08-2.42,.55,.03,2.03,.08,2.52,.08h3.38c.78,0,1.79-.05,2.39-.08-.05,.39-.1,1.87-.1,2.16v2.76c0,.99,.05,1.66,.16,3.28h-2.55Zm-.21-13.52h-2.7c-.6,0-2.21,.03-2.78,.13v-1.98c.36,.05,2.18,.1,2.6,.1h2.89c.75,0,1.98-.03,2.7-.1v1.98c-.78-.08-1.66-.13-2.7-.13Zm.18,3.51h-2.89c-.23,0-2.24,.03-2.78,.08v-2.03c.6,.05,1.98,.1,2.6,.1h2.91c.75,0,2.05-.03,2.68-.1v2.03c-.52-.08-1.9-.08-2.52-.08Zm-.26-10.45h-2.47c-.78,0-1.98,.03-2.76,.08v-1.87c1.9,.05,2.11,.08,2.6,.08h2.55c.1,0,2.52-.08,2.86-.08v1.87c-.34-.03-2.57-.08-2.78-.08Zm.44,14.27h-3.67v3.28h3.67v-3.28Zm4.52,4.39l-2.18-.81c.68-1.22,1.35-2.76,1.4-5.56l2.11,.55c-.21,3.43-.99,5.07-1.33,5.82Zm10.79-13.75c-.68,3.61-1.64,4.34-4.73,4.13l-.68-1.9-.13,.13c-.39-.42-.6-.68-1.4-1.46-1.04,1.87-2.29,2.89-3.38,3.64l-1.92-1.48c.78-.42,2.31-1.25,3.59-3.56-1.17-.86-2.03-1.25-2.78-1.59l1.51-1.59c.52,.26,1.17,.62,2.13,1.25,.21-.68,.31-1.38,.36-2.21-.91,.03-3.02,.1-3.74,.16v-2.34c.36,.03,2.52,.1,3.85,.1h4c1.17,0,1.77-.03,3.87-.16-.13,2.39-.1,4.47-.55,6.86Zm-1.2,14.27c-.6,1.07-1.69,1.07-2.63,1.07h-2.76c-1.69,0-2.42-.29-2.42-2.11v-2.47c0-.29-.1-2.91-.1-3.46l2.52,.21c.16,0,.52,.03,.52,.29,0,.23-.29,.36-.49,.44,0,.34-.03,2.39-.03,2.68v1.2c0,.88,.08,1.12,1.17,1.12h1.2c1.12,0,1.43-1.04,1.61-2.68l2.18,1.56c-.23,1.22-.7,2.03-.78,2.16Zm-3.56-5.82c-.62-1.12-2.11-2.89-3.38-3.69l1.61-1.48c1.22,.75,2.94,2.65,3.69,3.61l-1.92,1.56Zm-.47-13.08c-.1,1.33-.49,2.6-.81,3.51,.99,.81,1.61,1.4,2.08,1.9l-.94,.94c.78,.1,.88,.13,1.09,.13,.96,0,1.25-.44,1.56-1.69,.42-1.61,.52-3.8,.6-4.78h-3.59Zm5.04,16.74c-.47-1.53-1.79-3.46-2.7-4.32l1.82-1.38c1.01,.91,2.03,2.08,2.86,4.26l-1.98,1.43Z"/>
  <path d="M159.34,295.2l-1.98-2.16c1.53-.39,4.08-1.04,5.77-2.99,1.53-1.79,1.98-4.24,1.98-5.82,0-3.72-2.76-5.46-4.03-6.08-1.56-.78-2.57-.75-3.56-.75-.44,3.17-1.07,7.8-3.25,12.61-.49,1.07-1.79,3.87-3.28,3.87-.99,0-1.77-.49-2.21-.88-.99-.81-3.17-3.09-3.17-6.99,0-1.9,.55-4.81,2.83-7.15,3.61-3.67,7.02-3.67,8.53-3.67,2.37,0,5.59,.42,8.16,3.25,1.53,1.69,2.34,3.93,2.34,6.21,0,6.4-4.52,9.57-8.14,10.56Zm-4.86-17.52c-2.21,.36-6.55,3.07-6.55,8.32,0,2.31,1.43,4.76,2.52,4.76,.91,0,1.59-1.56,1.9-2.26,1.87-4.37,2.65-8.71,2.81-10.89-.23,.03-.44,.05-.68,.08Z"/>
  <path d="M160.28,322.61h-7.67c-2.63,0-5.28,.05-7.9,.23v-2.57c2.73,.18,6.71,.23,7.9,.23h2.31v-10.17c0-.91-.05-5.02-.05-5.88-.03-1.01-.05-1.74-.1-2.81l3.2,.26c.26,.03,.65,.13,.65,.49,0,.34-.31,.44-1.01,.73-.03,1.56-.05,6.4-.05,6.55h5.15c.94,0,1.9-.05,2.81-.21v2.55c-1.2-.21-2.68-.21-2.81-.21h-5.15v8.68h2.73c2.65,0,5.3-.05,7.98-.23v2.57c-3.46-.23-7.7-.23-7.98-.23Z"/>
  <path d="M162.28,328.41c3.2,2.13,4.71,3.95,5.59,4.99l-2.03,2.13c-1.35-2.03-2.94-3.85-5.36-5.36l1.79-1.77Z"/>
  <path d="M119.04,9c-.44-.08-1.04-.21-2.31-.73v1.01c-.83-.08-1.07-.08-3.04-.08h-3.28v.96h1.35c1.38,0,2.81-.08,4.47-.16v1.59c-1.79-.08-3.46-.16-4.47-.16h-1.35v1.01h1.46c1.38,0,2.81-.05,4.47-.13v1.59c-1.79-.1-3.38-.16-4.47-.16h-1.46v1.04h3.69c.16,0,2.13,0,4.16-.16v1.85c-1.38-.18-2.94-.23-5.77-.23h-4.73c-4.03,0-5.25,.13-6.16,.21,.05-.78,.1-1.66,.1-2.47v-2.18c-1.35,.86-1.74,1.01-2.31,1.22l-1.87-1.51c3.8-1.07,6.47-4.6,6.79-5.02-1.9,1.3-3.93,2.42-6.19,2.89l-1.46-2.03c2.39-.16,5.25-1.17,7.57-3.2-2.31,0-4.63,.08-6.92,.23V2.18c2.57,.16,6.34,.21,7.49,.21h.99c.62-.88,.86-1.51,1.12-2.08l2.31,.47c.55,.1,.62,.16,.62,.36,0,.29-.1,.31-1.01,.6-.18,.26-.18,.29-.42,.65h3.8c2.52,0,5.04-.05,7.57-.21v2.21c-1.9-.13-2.29-.13-5.85-.21,1.74,1.66,4.19,2.5,6.66,2.94l-1.53,1.87Zm-4.21,15c.05-.42,.08-.57,.1-.94h-12.79c.03,.57,.05,.7,.08,.94h-2.57c.05-.6,.13-2.05,.13-2.26v-2.26c0-.81-.05-1.61-.13-2.42,1.77,.13,4.16,.21,5.95,.21h4.55c1.82,0,5.54-.08,7.23-.21-.08,.7-.13,1.38-.13,2.42v2.26c0,.55,.1,1.9,.13,2.26h-2.55Zm-7.44-5.38h-5.28v.86h5.28v-.86Zm0,2.21h-5.28v.91h5.28v-.91Zm.81-11.62h-3.38c-.49,.52-.68,.7-.91,.91v.05h4.29v-.96Zm0,2.24h-4.29v1.01h4.29v-1.01Zm0,2.31h-4.29v1.04h4.29v-1.04Zm3.04-9.59h-4.26c-.73,.75-1.12,1.12-1.46,1.38l1.69,.65c.08,.03,.36,.13,.36,.44,0,.36-.83,.36-1.3,.36-.13,.34-.21,.49-.39,.78h2.78c.65-1.04,.91-1.92,1.09-2.44l1.92,.42c.55,.13,.7,.13,.7,.44,0,.39-.42,.47-.91,.55-.1,.21-.29,.55-.68,1.04h1.17c2.42,0,2.7-.05,3.54-.08-1.22-.6-2.65-1.56-4.26-3.54Zm3.72,14.46h-5.3v.86h5.3v-.86Zm0,2.21h-5.3v.91h5.3v-.91Z"/>
  <path d="M115.92,44.64c-1.17,.7-2.96,1.48-5.85,1.9l-1.07-2.08c1.27-.05,3.74-.13,6.08-1.64,1.17-.75,2.5-2.13,2.5-4,0-1.98-1.69-3.69-4.13-3.69-.91,0-2,.21-3.93,.88-.6,.21-3.48,1.33-4.16,1.56-1.01,.34-1.12,.36-1.25,.65-.16,.39-.18,.44-.42,.44-.31,0-.6-.52-.62-.57l-1.07-1.95c1.61-.13,3.93-.86,5.3-1.33,3.07-1.01,4.42-1.46,6.37-1.46,4.13,0,5.98,3.02,5.98,5.46,0,1.22-.42,3.82-3.74,5.82Z"/>
  <path d="M107.78,66.56c-.29,.7-.6,1.72-.6,2.83,0,2.96,2.91,4.58,4.84,5.15,1.14,.34,1.95,.31,2.7,.31l-.81,2.76c-3.04-.57-5.3-1.3-7.15-3.15-1.48-1.46-2.16-3.2-2.16-5.04,0-2.03,.99-4.21,2.24-5.93,1.48-2.03,3.02-3.07,4.06-3.77-2.99,.29-8.61,.83-12.35,1.92l-.34-2.94c2.76,0,4.99-.08,10.04-.7,3.43-.44,6.89-.91,10.22-1.77v2.78c-5.28,.1-9.39,4.34-10.69,7.54Z"/>
  <path d="M109.49,103.97c-2,0-6.21-.13-8.32-1.17-1.33-.65-2.11-1.59-2.11-2.91,0-1.64,1.2-3.33,2.83-4.68l1.66,1.56c-.88,.81-1.92,1.79-1.92,2.78,0,1.9,2.89,2.26,6.37,2.26,2.96,0,5.67-.31,8.58-.91l.34,2.6c-2.47,.36-4.94,.47-7.44,.47Zm.6-16.38c-.68,.03-1.61,.05-2.83,.05s-1.69,.23-5.23-.16l-.23-.03-.44-2.47c1.98,.29,3.69,.47,6.34,.47,2.39,0,4.76-.1,7.1-.55v2.44c-.75,.03-4.03,.23-4.71,.23Zm7.8,1.04c-.21-.23-.68-.81-1.25-1.33-1.07-.96-1.17-1.07-1.33-1.22l1.33-1.43c.99,.73,1.92,1.64,2.55,2.57l-1.3,1.4Zm2-3.04c-.75-1.14-2.08-2.21-2.55-2.57l1.43-1.2c1.3,.78,2.05,1.82,2.42,2.44l-1.3,1.33Z"/>
  <path d="M112.35,114.35h-11.41v4c0,7.59-.83,10.24-2.68,13.57l-2.5-1.17c2.83-3.69,2.83-7.93,2.83-13.78,0-1.9,0-2.18-.1-4.89,2.05,.05,2.39,.05,7.07,.05h1.87c0-.13,0-1.48-.05-2.55l2.73,.21c.1,.03,.49,.05,.49,.42,0,.29-.21,.36-.75,.62-.03,.34-.03,.49-.03,1.3h2.44c4.81,0,6.53-.08,7.9-.16v2.52c-1.48-.08-3.25-.16-7.83-.16Zm-7.02,9.33c-.16,.96-.68,4.16-2.42,6.99l-2.65-1.07c1.74-2.24,2.55-5.2,2.65-8.01l2.57,.86c.39,.13,.68,.26,.68,.55,0,.39-.52,.57-.83,.68Zm8.09,9.1h-3.69c-2.91,0-3.43-.94-3.43-3.59v-6.19c0-1.77,0-2.63-.1-3.85l2.81,.31c.31,.03,.62,.1,.62,.39,0,.39-.55,.62-.81,.73v8.55c0,.88,0,1.53,1.35,1.53h3.25c.99,0,1.27-.55,1.46-.88,.6-1.14,.83-2.16,.94-2.65l2.37,1.51c-1.22,4.13-2.31,4.13-4.76,4.13Zm-1.77-10.27c-.81-2.78-2.13-4.29-3.2-5.3l1.9-1.59c1.27,1.17,2.65,2.7,3.69,5.15l-2.39,1.74Zm6.4,4.63c-.57-2.24-1.43-4.52-2.73-5.98l2.05-1.35c1.51,1.59,2.47,4.16,3.02,5.95l-2.34,1.38Z"/>
  <path d="M119.01,156.96c-1.43-.44-2.6-.99-4.55-2.24-.21,4.94-1.38,5.95-4.84,5.77l-1.35-2.26c.47,.08,1.43,.18,2.16,.18,1.25,0,1.69-.62,1.82-3.09h-4.32c-.44,1.12-1.69,4.11-7.15,5.28l-1.74-1.92c2.42-.18,5.02-.65,6.4-3.33-.47,.03-2.63,.1-3.07,.1-.13,0-.23,.03-.62,.05v-.57c-1.48,.88-2.65,1.43-3.72,1.74l-1.56-1.79c2.68-.62,4.97-1.92,6.34-3.2-1.25,.03-3.98,.08-5.95,.13v-2c3.25,.1,6.14,.16,7.51,.16,.34-.44,.52-.75,.7-1.09-.47,0-3.93,.08-4.68,.08,.05-1.12,.08-2.16,.08-2.29v-2.24c0-.83-.03-1.59-.1-2.6,1.79,.08,2.16,.1,2.99,.1v-1.25c-2.76,.03-4.97,.08-6.71,.13v-2.03c2.11,.13,4.63,.13,6.71,.16-.03-.52-.03-.94-.1-2.08l2.55,.26c.18,.03,.47,.05,.47,.29,0,.29-.18,.34-.57,.49-.03,.57-.03,.68-.05,1.04h5.75c-.03-1.17-.05-1.51-.1-2.05l2.5,.18c.23,.03,.49,.05,.49,.29,0,.26-.21,.34-.6,.52-.03,.29-.03,.47-.03,1.04,2.39,0,4.55,0,6.63-.13v2.03c-2.21-.05-4.42-.1-6.63-.13v1.25c.47,0,2.5-.03,2.91-.05-.05,.68-.08,1.14-.08,2.5v2.34c0,.99,.05,1.85,.08,2.24-.16,0-3.41-.08-5.3-.08h-3.77c-.31,.57-.44,.81-.62,1.09h5.54c1.53,0,4.34-.05,7.67-.16v2c-.83-.03-2.94-.1-6.45-.13,1.09,1.14,4.03,2.76,6.86,3.35l-1.48,1.92Zm-4.81-13.29h-11.47v1.01h11.47v-1.01Zm0,2.44h-11.47v1.01h11.47v-1.01Zm-3.2,5.56h-5.36c-.39,.44-.91,1.07-2.03,1.92,.36,0,2.05,.03,2.44,.03,.16-.75,.21-1.22,.26-1.74l2.6,.31c.16,.03,.36,.05,.36,.34,0,.16-.1,.21-.62,.49-.05,.26-.08,.36-.16,.6h1.92c.34,0,2.08-.03,2.47-.03-.65-.52-1.3-1.09-1.9-1.92Zm.39-11h-5.75v1.27h5.75v-1.27Z"/>
  <path d="M111.44,188.16c-.81-1.64-3.22-4.89-4.94-6.53-1.22-1.17-3.35-3.12-4.37-3.87-.94-.68-1.33-1.09-1.33-2.03,0-.83,.39-1.25,1.46-2.34l3.12-3.12c1.98-2.05,4.19-4.32,5.49-6.5l2.34,1.51c.21,.13,.44,.29,.44,.6,0,.16-.08,.29-.21,.36-.16,.08-.94,.29-1.09,.34-1.77,1.74-3.02,2.99-5.64,5.59-.6,.6-1.69,1.64-2.18,2.13-.52,.49-.65,.83-.65,1.12,0,.49,.34,.88,.7,1.22,4.29,3.77,4.65,4.13,6.37,6.14,1.01,1.2,2.21,2.65,2.91,3.51l-2.42,1.87Z"/>
  <path d="M111.63,198.59c-1.33,.39-2.39,.68-4.91,1.07-.36,1.07-1.9,5.82-2.26,6.76-1.27,3.38-2.29,5.56-3.2,7.49l-2.68-.96c1.98-2.91,4.37-7.96,5.51-12.95-.62,.1-1.33,.18-2.47,.18-.83,0-1.43-.05-2.08-.1l-.03-2.39c.68,.08,1.72,.23,2.94,.23,.96,0,1.59-.1,2.21-.18,.23-.99,.39-1.66,.86-5.59l2.99,.44c.44,.08,.65,.13,.65,.47s-.21,.44-.83,.57c-.47,1.64-.57,2.13-.99,3.8,1.2-.13,2.21-.39,4.47-1.33l-.18,2.5Zm6.21,15.13c-1.01,.05-1.9,.05-2.57,.05-5.3,0-6.27-.39-7.1-.91-.34-.23-.94-.73-.94-1.53,0-1.59,1.27-2.99,1.77-3.51l1.92,.96c-.57,.55-1.33,1.3-1.33,1.85,0,1.07,3.33,1.07,4.29,1.07,2.86,0,3.56-.21,4.39-.44l-.44,2.47Zm.49-10.56c-.49-.16-1.38-.44-3.67-.44-2.63,0-3.8,.26-4.58,.42l.16-2.21c.86-.05,2.11-.13,3.93-.13s2.96,.05,4.19,.13l-.03,2.24Zm-2.86-5.98c-.7-1.2-1.53-2.03-2.52-2.73l1.48-1.3c1.14,.83,1.82,1.59,2.47,2.81l-1.43,1.22Zm3.46-1.61c-1.12-1.56-1.92-2.08-2.39-2.37l1.46-1.22c.88,.7,1.46,1.33,2.31,2.52l-1.38,1.07Z"/>
  <path d="M114.82,235.3c-2.83-2.24-6.14-2.39-6.79-2.39-2.94,0-4.11,1.79-4.11,3.12,0,3.35,4.24,3.35,5.12,3.35,1.46,0,2.91-.21,4.32-.62l.52,2.44c-1.59,.23-3.17,.39-4.76,.39-3.54,0-5.1-.88-6.11-2-.94-.99-1.35-2.34-1.35-3.54,0-1.98,1.38-5.25,6.01-5.25,2,0,3.67,.6,4.76,.99-1.17-1.56-2.21-3.04-3.33-5.15-2.76,.86-4.52,1.22-7.64,1.46l-1.27-2.29c.81,.08,1.14,.1,1.56,.1,2.18,0,4.34-.42,6.42-1.07-.39-.78-1.98-4.32-2.31-5.04l2.6-.36c.08,0,.65-.03,.7-.03,.23,0,.34,.23,.34,.39s-.08,.23-.18,.34c-.13,.16-.29,.42-.34,.47,.36,1.4,.65,2.24,1.27,3.54,1.33-.47,2.42-.94,4.26-2.42l1.14,2.11c-2.21,1.2-3.28,1.64-4.47,2.08,1.2,2.31,3.17,5.25,5.23,7.12l-1.59,2.26Z"/>
  <path d="M103.83,266.89c-1.38,0-2.55-1.27-3.02-1.82-1.95-2.31-2.81-4.91-2.81-9.07,0-1.01,.05-1.48,.52-5.69,.03-.1,.05-.57,.08-.68l2.37,.83c.52,.18,.81,.29,.81,.55,0,.23-.29,.36-.65,.55-.21,.81-.6,2.37-.6,4.63,0,4.26,1.77,7.46,3.02,7.46s2.03-2.94,2.31-4.34l1.51,1.59c-.52,2.34-1.56,6.01-3.54,6.01Zm12.71-5.41c-.08-2.24-.62-4.42-1.59-6.45-1.35-2.83-1.95-3.56-2.44-4.16l2.37-1.12c2.68,3.25,4.39,8.53,4.55,10.84l-2.89,.88Z"/>
  <path d="M112.28,277.68c0-2.13,1.72-3.85,3.8-3.87,2.08-.03,3.8,1.74,3.8,3.87s-1.72,3.87-3.8,3.87-3.8-1.72-3.8-3.87Zm6.45,0c0-1.48-1.2-2.7-2.65-2.7s-2.65,1.22-2.65,2.7,1.17,2.7,2.65,2.7,2.65-1.22,2.65-2.7Z"/>
  <path d="M70.44,21.76c-1.92-.83-6.21-3.41-8.89-7.75v2.73c0,4.78,.08,6.03,.16,7.15h-2.86c.16-1.72,.26-5.36,.26-7.18v-1.87c-2.31,2.91-5.23,5.3-8.63,6.81l-2.03-2.08c4.03-1.51,7.54-4.19,9.78-7.88h-1.56c-1.04,0-4.84,.05-7.67,.23v-2.57c2.55,.18,5.1,.23,7.67,.23h2.44v-3.48h-1.74c-.81,0-3.8,.03-6.03,.21V3.77c2,.18,4,.23,6.03,.23h1.72c-.03-.44-.1-3.35-.13-3.59l2.63,.26c.42,.05,.75,.08,.75,.39,0,.26-.23,.36-.68,.57-.03,.34-.05,1.98-.05,2.37h1.72c.96,0,4-.05,6.11-.23v2.55c-1.9-.16-4.19-.21-6.11-.21h-1.77v3.48h2.68c1.22,0,5.07-.05,7.72-.23v2.57c-2.44-.16-5.28-.23-7.72-.23h-1.3c1.2,2.47,4.47,6.11,9.36,7.64l-1.85,2.42Z"/>
  <path d="M70.65,50c-3.98-1.56-7.38-4.73-8.94-7.33v.88c0,1.56,.1,6.16,.23,7.75h-2.91c.1-.75,.16-1.64,.16-3.25,0-.68,.08-3.72,.08-4.34v-.96c-1.25,1.87-2.81,3.48-4.52,4.91-2.18,1.79-3.51,2.31-4.5,2.7l-1.95-2.16c1.33-.39,3.28-.94,5.75-3.12,1.43-1.25,2.65-2.68,3.64-4.29h-.91c-2.44,0-4.89,.05-7.33,.23v-2.57c2.52,.18,6.21,.23,7.33,.23h2.5v-3.74c0-.36-.03-1.92-.03-2.24h-1.92c-2.11,0-4.21,.05-6.32,.23v-2.57c2.18,.18,5.36,.23,6.32,.23h1.9c-.05-1.87-.05-2.08-.05-2.91l2.5,.23c.44,.05,.75,.05,.75,.39,0,.26-.16,.34-.65,.62-.03,.39-.03,.52-.03,1.66h1.82c2.13,0,4.26-.05,6.37-.23v2.57c-2.76-.23-6.14-.23-6.37-.23h-1.82c-.03,1.77-.03,1.95-.03,2.29v3.69h2.47c2.47,0,4.94-.05,7.41-.23v2.57c-3.17-.23-7.12-.23-7.41-.23h-.96c2.11,3.61,5.54,5.8,9.36,7.15l-1.92,2.05Zm-15.81-11.8c-.13-.55-.99-2.83-2.13-4.08l2.13-1.17c.96,1.04,1.87,2.68,2.18,4.13l-2.18,1.12Zm12.9-3.41c-.18,.49-.96,2.52-1.66,3.48l-2.37-.81c1.64-2.18,1.82-3.87,1.9-4.68l2.6,1.04c.31,.13,.49,.18,.49,.44,0,.31-.08,.34-.96,.52Z"/>
  <path d="M63.34,76.8l-1.98-2.16c1.53-.39,4.08-1.04,5.77-2.99,1.53-1.79,1.98-4.24,1.98-5.82,0-3.72-2.76-5.46-4.03-6.08-1.56-.78-2.57-.75-3.56-.75-.44,3.17-1.07,7.8-3.25,12.61-.49,1.07-1.79,3.87-3.28,3.87-.99,0-1.77-.49-2.21-.88-.99-.81-3.17-3.09-3.17-6.99,0-1.9,.55-4.81,2.83-7.15,3.61-3.67,7.02-3.67,8.53-3.67,2.37,0,5.59,.42,8.16,3.25,1.53,1.69,2.34,3.93,2.34,6.21,0,6.4-4.52,9.57-8.14,10.56Zm-4.86-17.52c-2.21,.36-6.55,3.07-6.55,8.32,0,2.31,1.43,4.76,2.52,4.76,.91,0,1.59-1.56,1.9-2.26,1.87-4.37,2.65-8.71,2.81-10.89-.23,.03-.44,.05-.68,.08Z"/>
  <path d="M69.79,88.92c-2.29,3.2-3.28,4.58-5.72,6.66l-2.05-1.85c2.44-1.46,4.37-3.77,6.01-6.58h-10.35c-2,0-5.1,.08-7.64,.18v-2.37c2.05,.13,5.2,.18,7.51,.18h6.21c1.66,0,3.8-.18,5.98-.49l1.92,2.37c-.57,.26-.75,.34-1.87,1.9Zm-8.16,1.07c-.42,4.45-.91,9.67-6.92,14.2l-2.55-1.64c2.94-1.66,4.5-4.08,4.81-4.58,1.51-2.34,1.9-4.63,1.9-7.62,0-.57,0-.99-.05-1.87l2.81,.29c.57,.05,.7,.39,.7,.57,0,.26-.08,.29-.7,.65Z"/>
  <path d="M63.7,128.99h-6.76c-2.29,0-4.55,.05-6.84,.26v-2.96c2.31,.21,5.72,.26,6.84,.26h6.76c.16,0,4,0,6.89-.26v2.96c-2.81-.26-6.16-.26-6.89-.26Zm-.7-12.51h-4.94c-1.56,0-3.51,.05-5.02,.23v-2.76c1.72,.18,4.19,.23,5.02,.23h4.94c1.69,0,3.41-.05,5.07-.23v2.76c-2.16-.23-4.97-.23-5.07-.23Z"/>
  <path d="M66.17,141.28c-1.12,2.86-1.69,4.26-2.16,5.36-.31,.73-.7,1.38-1.12,2.08,2.81,2.7,3.12,3.09,3.77,4.13l-1.95,2c-.44-.65-1.3-1.9-3.35-4-2.16,2.63-5.17,5.38-8.4,7.46l-2.63-2.05c1.79-.47,3.3-1.56,4.76-2.7,1.27-1.01,2.99-2.52,4.39-4.42-.36-.31-2.68-2.18-4.55-3.2l1.43-2.21c1.95,1.12,3.98,2.78,4.55,3.25,1.12-1.92,2.7-5.51,2.73-7.93l2.76,1.17c.49,.21,.57,.36,.57,.49,0,.39-.49,.52-.81,.57Z"/>
  <path d="M64.8,181.17h-1.27c1.59,1.51,3.59,3.41,8.22,4.06l-1.35,2.16c-1.43-.36-3.46-.88-5.69-2.44-1.14-.81-2.24-1.74-3.09-2.86,.08,4.21,.16,4.94,.26,5.64h-2.73c.05-.42,.1-.7,.13-3.41l.03-1.9c-3.3,3.3-7.07,4.81-8.09,5.12l-1.72-2.03c2.08-.52,4.81-1.3,8.01-4.34h-1.64c-1.59,0-5.28,0-6.68,.13v-2.13c1.09,.13,5.51,.18,6.73,.18h3.41v-1.33h-1.12c-.96,0-5.2,.13-6.08,.16v-2.13c.75,.03,4.06,.1,4.73,.1,.16,.03,.88,.05,1.01,.05h1.46v-1.46h-1.17c-1.14,0-6.08,.1-7.25,.16v-2.31c.81,.05,1.01,.08,3.07,.13,.08,0,.44,.03,1.61,.08-.21-.42-.73-1.33-1.17-2.05-.81,0-1.87,0-5.2,.16v-2.26c.49,.03,.83,.05,3.85,.13,.52,.03,.57,0,1.07,.03-.75-1.09-1.77-2.24-2.47-2.68l1.79-1.38c1.38,.88,2.29,2.13,2.63,2.81l-1.46,1.27c.7,.03,1.2,.03,1.69,.03h.83v-4.55l2.7,.29c.18,.03,.44,.1,.44,.39s-.18,.34-.73,.49c-.03,.6-.08,3.15-.08,3.38h2.08c0-3.67,0-4.08-.03-4.6l2.7,.34c.23,.03,.34,.21,.34,.36,0,.34-.34,.42-.73,.49,0,.31-.03,.44-.03,1.77v1.64h1.3c.05,0,.7-.03,.78-.03l-1.27-.78c.86-.78,2.11-2.24,2.65-3.35l2.24,1.33c.1,.08,.23,.21,.23,.36,0,.34-.36,.34-.96,.34-.29,.31-1.48,1.79-1.74,2.08,1.09-.03,3.8-.08,4.73-.16v2.24c-.78-.03-4.16-.13-5.04-.13-.31,.6-.62,1.22-1.2,2.08,.73-.03,3.85-.08,4.5-.1v2.16c-.99-.03-1.25-.05-3.25-.08l-2.83-.05h-2.37v1.46h1.66c1.17,0,4.68-.08,5.88-.16v2.11c-.91-.03-1.12-.05-3.15-.1-2.16-.05-2.39-.03-2.78-.03h-1.61v1.33h3.22c.83,0,6.37-.1,7.02-.16v2.11c-.96-.13-5.93-.13-7.02-.13Zm-7.9-10.43c.49,.94,.7,1.38,1.01,2.13h5.1c.62-1.01,.96-1.79,1.12-2.13h-7.23Z"/>
  <path d="M71.3,208.78c-1.77-.47-3.8-1.17-5.98-2.91v5.98c0,1.27,.08,1.98,.31,3.02h-3.07c.21-.83,.29-2.24,.29-3.09v-3.04c0-1.51-.08-2.99-.16-4.06l1.56,.26c-.57-.52-1.59-1.61-2.21-2.78h-2.81c-.78,1.2-1.77,2.24-2.03,2.5l1.27,.08c.21,0,.6,.05,.6,.42,0,.23-.05,.26-.65,.65-.16,2.7-.29,4.58-1.46,6.37-.83,1.25-1.95,2.31-3.25,3.04l-1.92-2.11c2.13-1.01,4.19-2.18,4.19-7.33-.29,.23-2.16,1.82-5.82,3.25l-1.77-2.39c1.48-.23,4.94-1.17,7.88-4.47-2.55,0-2.81,0-4.94,.1,.21-.88,.26-2.55,.26-3.46v-3.56c0-.65-.1-2.5-.18-3.17,.83,.1,.91,.13,3.2,.18,1.61,.05,1.79,.05,2.91,.05h4.78c1.46,0,5.62-.03,7.02-.26q-.16,2.55-.16,4.24v2.5c0,1.12,.05,2.31,.16,3.48-1.09-.1-1.4-.1-4.32-.1,.78,1.09,1.74,1.98,2.52,2.44,1.59,.99,3.98,1.72,5.12,1.82l-1.35,2.37Zm-11.99-14.64h-5.36v2.11h5.36v-2.11Zm0,3.95h-5.36v2.18h5.36v-2.18Zm7.62-3.95h-5.41v2.11h5.41v-2.11Zm0,3.95h-5.41v2.18h5.41v-2.18Z"/>
  <path d="M63.34,240.6l-1.98-2.16c1.53-.39,4.08-1.04,5.77-2.99,1.53-1.79,1.98-4.24,1.98-5.82,0-3.72-2.76-5.46-4.03-6.08-1.56-.78-2.57-.75-3.56-.75-.44,3.17-1.07,7.8-3.25,12.61-.49,1.07-1.79,3.87-3.28,3.87-.99,0-1.77-.49-2.21-.88-.99-.81-3.17-3.09-3.17-6.99,0-1.9,.55-4.81,2.83-7.15,3.61-3.67,7.02-3.67,8.53-3.67,2.37,0,5.59,.42,8.16,3.25,1.53,1.69,2.34,3.93,2.34,6.21,0,6.4-4.52,9.57-8.14,10.56Zm-4.86-17.52c-2.21,.36-6.55,3.07-6.55,8.32,0,2.31,1.43,4.76,2.52,4.76,.91,0,1.59-1.56,1.9-2.26,1.87-4.37,2.65-8.71,2.81-10.89-.23,.03-.44,.05-.68,.08Z"/>
  <path d="M63.63,253.19c-1.33,.39-2.39,.68-4.91,1.07-.36,1.07-1.9,5.82-2.26,6.76-1.27,3.38-2.29,5.56-3.2,7.49l-2.68-.96c1.98-2.91,4.37-7.96,5.51-12.95-.62,.1-1.33,.18-2.47,.18-.83,0-1.43-.05-2.08-.1l-.03-2.39c.68,.08,1.72,.23,2.94,.23,.96,0,1.59-.1,2.21-.18,.23-.99,.39-1.66,.86-5.59l2.99,.44c.44,.08,.65,.13,.65,.47s-.21,.44-.83,.57c-.47,1.64-.57,2.13-.99,3.8,1.2-.13,2.21-.39,4.47-1.33l-.18,2.5Zm6.21,15.13c-1.01,.05-1.9,.05-2.57,.05-5.3,0-6.27-.39-7.1-.91-.34-.23-.94-.73-.94-1.53,0-1.59,1.27-2.99,1.77-3.51l1.92,.96c-.57,.55-1.33,1.3-1.33,1.85,0,1.07,3.33,1.07,4.29,1.07,2.86,0,3.56-.21,4.39-.44l-.44,2.47Zm.49-10.56c-.49-.16-1.38-.44-3.67-.44-2.63,0-3.8,.26-4.58,.42l.16-2.21c.86-.05,2.11-.13,3.93-.13s2.96,.05,4.19,.13l-.03,2.24Z"/>
  <path d="M67.66,293.51c-2.26,1.77-4.89,2.39-6.03,2.68l-1.46-2.39c5.64-.47,8.19-3.95,8.19-7.25s-2.78-6.01-5.38-5.77c-.78,2.63-1.59,5.23-3.25,7.98,.49,.75,.96,1.33,1.48,1.95l-1.74,1.85c-.34-.47-.68-.88-1.22-1.69-.42,.47-1.61,1.9-3.09,2.73-.6,.34-1.07,.47-1.72,.47-2.6,0-3.28-2.5-3.28-4.39,0-3.17,1.66-6.32,3.77-8.14-.52-1.61-.81-3.2-1.09-5.15l2.47-.83c-.03,1.27-.05,2.16,.55,4.6,2.24-1.3,4.26-1.43,5.1-1.48,.03-.36,.05-.57,.23-2.34,.05-.68,.08-1.33,.13-2.11l3.07,.78c.16,.05,.21,.18,.21,.26,0,.26-.44,.65-.6,.78-.23,.65-.26,.83-.55,2.63,.78,.1,1.74,.21,2.94,.86,2.6,1.38,4.39,4.19,4.39,7.33,0,1.9-.68,4.76-3.12,6.66Zm-12.95-9.67c-1.98,2.24-2.21,4.13-2.21,5.28,0,2.24,.65,2.5,1.27,2.5,.96,0,2.42-1.72,3.25-2.76-.65-1.17-1.2-2.16-2.31-5.02Zm1.77-1.53c.52,1.51,1.2,2.96,1.98,4.34,1.2-2.29,1.59-3.56,2-5.82-.68,.08-2.13,.21-3.98,1.48Z"/>
  <path d="M66.28,301.11c3.2,2.13,4.71,3.95,5.59,4.99l-2.03,2.13c-1.35-2.03-2.94-3.85-5.36-5.36l1.79-1.77Z"/>
  <path d="M17.11,13.31H7.83c-.75,0-4.84,.03-6.79,.13v-2.57c2.08,.1,6.6,.13,6.79,.13h9.28c.75,0,4.84-.03,6.79-.13v2.57c-2.05-.1-6.6-.13-6.79-.13Z"/>
  <path d="M8.94,42.02c-.03-.52-.03-.86-.29-1.66-.26,.05-1.14,.18-1.69,.26v4.76c0,1.9,.03,2.78,.21,5.88h-2.57c.13-1.4,.23-4.34,.23-5.82v-4.5c-1.95,.31-2.16,.34-2.73,.42-.18,.34-.26,.52-.47,.52-.23,0-.29-.21-.31-.39l-.42-2.24c.23,0,1.53-.03,1.87-.03,.6-.75,1.46-1.74,1.82-2.21-.86-1.25-2.5-2.94-4.03-3.82l1.53-1.79c.52,.36,.75,.57,1.3,1.01,.65-.96,1.72-2.73,2.39-4.71l2.29,1.14c.23,.13,.31,.21,.31,.34,0,.39-.55,.44-.7,.44-.49,.96-1.43,2.76-2.76,4.19,.6,.62,.65,.68,1.17,1.22,1.53-2.16,1.74-2.86,1.98-3.64l2.08,1.17c.26,.13,.36,.21,.36,.36,0,.29-.29,.34-.73,.36-.62,1.01-1.69,2.6-2.73,3.9l1.87-.7c.88,1.35,1.61,2.91,2.11,4.42l-2.11,1.12Zm-4.94,1.59c-.1,3.25-.55,4.65-.96,5.9l-2.21-.55c.91-2.6,1.07-3.51,1.04-6.42l2.29,.34c.18,.03,.36,.1,.36,.26,0,.21-.26,.34-.52,.47Zm2.99-6.34c-.96,1.22-1.07,1.35-1.48,1.82,.36,0,2.05-.16,2.55-.18-.47-.88-.7-1.17-1.07-1.64Zm16.67-6.63c-.29,.52-1.48,2.86-1.74,3.33-.1,.16-.6,1.04-1.01,1.69,.34,0,1.98-.05,3.43-.21v2.55c-1.95-.21-4.29-.21-5.04-.21-.78,.88-1.35,1.48-2.11,2.26h2.31c.29,0,2.65-.08,3.56-.16-.03,.42-.05,1.2-.05,2.16v5.07c0,.81,.08,2.52,.18,4.13h-2.52c.05-.55,.05-.6,.1-1.22h-5.93c0,.21,.08,1.04,.08,1.22h-2.52c.1-1.59,.18-3.15,.18-4.73v-2.86c-.81,.44-1.12,.55-1.85,.75l-.96-1.33c.55,1.22,.86,2.55,.96,4.19l-2.31,.81c.03-1.92-.29-3.77-.99-5.28l1.9-.62c.1,.18,.1,.21,.18,.36,.75-.26,1.38-.49,2.26-1.01,1.25-.73,2.86-1.87,4.6-3.74h-1.69c-1.61,0-3.22,.05-4.84,.21v-2.55c1.85,.21,4.42,.23,4.68,.23v-2.83h-.49c-.96,0-2.13,.05-3.07,.21v-2.55c1.07,.18,2.6,.23,3.07,.23h.47c0-.88,0-2.26-.05-3.09l2.52,.21c.39,.03,.52,.16,.52,.31,0,.26-.21,.36-.6,.55,0,.31-.03,1.74-.03,2.03,.75,0,2.21-.05,3.33-.23v1.79c.88-1.74,1.27-2.99,1.51-3.77l2.44,1.38c.16,.1,.26,.26,.26,.39,0,.26-.31,.29-.75,.34Zm-2.81,11.39h-6.14v2.18h6.14v-2.18Zm0,4h-6.14v2.18h6.14v-2.18Zm-3.98-13.18v2.83h1.25c.29-.42,.88-1.22,1.69-2.68-.39-.05-1.46-.16-2.94-.16Z"/>
  <path d="M6.58,76.44l-1.69,.47c-1.56-3.22-2-7.33-2-9.39,0-1.79,.29-4.5,.47-5.49,.21-1.12,.86-4.63,1.04-5.49l2.65,.81c.42,.13,.62,.21,.62,.47,0,.36-.39,.55-.81,.75-1.17,2.76-1.66,5.98-1.66,9,0,2.39,.34,3.64,.52,4.21,.49-1.3,.78-2.03,1.43-3.46l.94,1.72c-.94,2.6-1.3,4.29-1.51,6.4Zm15.96-1.53c-2.83,.39-4.81,.42-5.46,.42-2.16,0-7.12-.03-6.73-5.85l2.31,.23c-.23,2.94,1.95,3.25,4.21,3.25s4.29-.47,5.93-.86l-.26,2.81Zm-9.7-13.65c-.49,0-.86-.03-1.53-.08l-.08-2.52c.78,.13,1.74,.29,3.17,.29,3.38,0,5.38-.65,7.12-1.25v2.52c-3.98,.96-7.44,1.04-8.68,1.04Z"/>
  <path d="M15.05,83.75c-.05,.75-.1,3.43-.1,4.19v5.88c0,4.84-.13,8.48-4.94,11.83l-2.52-1.43c4.76-1.79,5.1-5.82,5.2-7.15-1.01,.81-1.74,1.3-2.81,1.85-.03,.1-.16,.49-.21,.57s-.13,.13-.23,.13c-.05,0-.23-.03-.34-.21l-1.3-2.29c1.9-.55,3.8-1.82,4.97-2.65v-2.94l-2.18,.88c-.39-1.85-1.07-3.61-2.03-5.23v2.44c-.83-.13-1.82-.21-2.73-.21v4.55c.44-.21,1.33-.62,2.63-1.38v2.34c-.73,.42-1.33,.73-2.63,1.33v2.91c0,.68,.08,3.95,.08,4.24,0,1.95-.26,2.47-4.19,2.39l-1.12-2.68c.96,.26,2.08,.42,2.31,.42,.78,0,.78-.42,.78-1.43v-4.89c-.91,.39-1.43,.6-2,.86-.05,.34-.1,.7-.36,.7-.18,0-.29-.18-.36-.36l-.96-2.37c1.25-.23,1.95-.47,3.69-1.14v-5.49h-.52c-.73,0-1.77,.08-2.5,.21v-2.55c1.01,.16,2,.21,2.5,.21h.52c-.03-1.72-.08-3.43-.21-5.15l2.63,.23c.16,.03,.44,.05,.44,.26s-.16,.29-.57,.55c-.05,.96-.13,2.34-.16,4.11,.44,0,1.72-.03,2.68-.21-.05-.08-.08-.1-.13-.18l2.37-.57c.39,.7,1.3,2.31,2.03,5.12v-3.59c0-1.09-.05-4.21-.16-5.2l2.5,.31c.26,.03,.49,.05,.49,.29,0,.21-.29,.36-.55,.49Zm8.84,20.77c-.49,1.04-1.12,1.12-2.16,1.12h-2.6c-2.68,0-2.7-.65-2.7-3.77v-14.35c0-.73-.03-4.13-.13-5.04l2.6,.42c.21,.03,.44,.05,.44,.29,0,.18-.05,.21-.6,.49-.08,.83-.13,3.02-.13,3.93v1.43c1.22-1.12,2.34-2.37,3.07-3.85l2.13,1.79c.1,.08,.23,.18,.23,.34,0,.29-.31,.26-.78,.23-1.12,1.25-2.24,2.39-3.77,3.61l-.88-1.01v3.41l.65-.78c1.35,1.12,2.52,2.24,3.87,4.03l-1.51,2.52c-.75-1.53-1.85-2.91-3.02-4.19v6.5c0,1.51,0,1.82,1.14,1.82h1.04c.81,0,1.17,0,1.38-.78,.05-.21,.31-1.48,.44-4.39l2.34,1.48c-.39,2.96-.83,4.29-1.07,4.76Z"/>
  <path d="M2.89,115.88c-.39-1.12-.94-2.39-2.31-4.21l1.92-1.07c1.17,1.3,1.87,2.57,2.42,4.16l-2.03,1.12Zm6.58,13.08h-1.09c.05,1.3,.08,1.59,.23,4.21h-2.65c.13-.88,.13-1.07,.26-4.21h-1.04c-1.38,0-2.99,0-4.26,.16v-2.34c1.72,.21,4.11,.21,4.26,.21h1.04v-1.92h-1.59c-.75,0-2.24,.1-3.04,.18,.08-.68,.13-1.35,.13-2.5v-3.15c0-1.01-.05-2.24-.18-3.28,.18,.03,3.04,.21,3.17,.21h4.71c.05,0,1.4-.03,3.43-.26-.05,.91-.08,1.87-.08,2.81v3.33c0,.81,.08,2.03,.16,2.78-.94-.05-1.79-.13-3.48-.13h-1.12v1.92h1.14s2.42,0,4.26-.21v2.34c-1.33-.16-2.96-.16-4.26-.16Zm-3.25-10.61H3.77v1.51h2.44v-1.51Zm0,3.25H3.77v1.56h2.44v-1.56Zm.34-6.34c-.21-1.64-.57-3.28-1.3-4.76l2.18-.6c.91,2.11,1.12,3.67,1.22,4.78l-2.11,.57Zm4.24,3.09h-2.47v1.51h2.47v-1.51Zm0,3.25h-2.47v1.56h2.47v-1.56Zm3.33-9.67c-.23,.05-.26,.05-.39,.13-.7,1.38-1.43,2.76-2.39,3.95l-1.82-.96c1.2-1.59,1.92-3.04,2.63-4.97l1.95,1.17c.1,.05,.34,.29,.34,.42s-.16,.23-.31,.26Zm7.85,21.01c-.68,0-2.16-.86-3.74-4.06-1.79,2.11-3.25,3.09-4.21,3.74l-2.16-1.66c2.34-1.09,3.85-2.37,5.43-4.45-.83-2.68-1.12-4.6-1.3-6.47-1.72,.31-1.9,.34-2.34,.47l-.36-2.65c.88-.05,1.38-.08,2.52-.21-.05-1.22-.1-6.71-.13-7.83l2.63,.23c.18,0,.49,.03,.49,.39,0,.29-.26,.47-.62,.65-.21,2.08-.29,4.16-.18,6.27l1.74-.29c.65-.1,3.64-.7,3.72-.73l.34,2.55c-1.09,.08-2.99,.31-3.33,.36l-2.34,.42c.16,2.13,.42,3.46,.73,4.55,.91-1.59,1.4-3.07,1.64-3.8l2.24,1.3c.36,.21,.44,.29,.44,.47,0,.39-.73,.44-1.01,.44-.96,2.13-1.87,3.54-2.39,4.29,.31,.7,1.27,2.81,1.82,2.81,.39,0,.68-.57,.75-.78,.05-.05,.47-.99,.73-1.95l1.51,1.95c-.31,1.3-1.2,3.98-2.6,3.98Zm-.52-16.95c-.6-.94-1.33-1.85-2.76-3.02l1.64-1.61c1.38,.88,2.16,1.9,2.86,3.04l-1.74,1.59Z"/>
  <path d="M17.58,156.75c-2,1.72-4.68,2.31-6.01,2.31-1.53,0-3.35-.62-4.58-2.08-1.17-1.4-1.27-2.63-1.27-4.91,0-1.33,.23-7.15,.23-8.35,0-1.69-.05-4.29-.29-5.9l2.96,.42c.62,.08,.88,.13,.88,.47,0,.23-.08,.29-.78,.75-.08,.62-.16,1.33-.23,2.34-.13,1.92-.31,8.37-.31,9.41,0,2.47,.1,3.2,.7,4,.78,1.09,2.18,1.48,3.02,1.48,1.27,0,3.38-.68,4.81-2.31,1.77-1.98,2.47-4.03,2.81-4.99l2.03,1.9c-.99,2.05-2.24,3.98-3.98,5.46Z"/>
  <path d="M20.02,186c-1.3-1.04-3.64-2.78-6.16-3.38,.05,.47,.05,.62,.05,.78,0,3.2-2.99,3.46-4.21,3.46-3.33,0-5.72-1.74-5.72-3.67,0-2.24,3.28-3.41,5.46-3.41,.78,0,1.85,.1,2.18,.16-.03-.39-.05-.55-.05-.78-.03-.42-.08-2.21-.1-2.6-1.27,.03-3.82,.08-5.1-.08-.42-.05-1.98-.26-1.98-1.51,0-.91,.94-1.77,2.99-3.07l1.33,1.2c-.73,.42-1.38,.78-1.38,1.09s.26,.42,.42,.47c.23,.08,1.17,.1,1.87,.1,.49,0,.6,0,1.79-.05-.05-1.09-.05-1.38-.13-4-4.13,.08-5.72,.21-7.77,.47v-2.37h7.72c-.03-1.51-.05-2.83-.13-3.64l3.02,.21c.13,0,.47,.05,.47,.36s-.26,.44-.81,.73c-.05,.83-.1,1.43-.13,2.34h7.31v2.31c-1.9-.29-2-.29-7.38-.42-.05,1.43-.05,2.42-.03,3.87,.75-.05,3.61-.31,6.45-1.2v2.21c-1.64,.49-4.86,.81-6.4,.88,.03,.6,.13,3.28,.16,3.82,2.63,.34,6.21,2.21,7.31,3.15l-1.04,2.55Zm-10.74-4.21c-.86,0-2.76,.42-2.76,1.59,0,.88,1.38,1.4,2.52,1.4,.52,0,2.18-.16,2.47-1.35,.13-.52,.13-.91,.1-1.35-.29-.05-1.48-.29-2.34-.29Z"/>
  <path d="M17.58,211.35c-2,1.72-4.68,2.31-6.01,2.31-1.53,0-3.35-.62-4.58-2.08-1.17-1.4-1.27-2.63-1.27-4.91,0-1.33,.23-7.15,.23-8.35,0-1.69-.05-4.29-.29-5.9l2.96,.42c.62,.08,.88,.13,.88,.47,0,.23-.08,.29-.78,.75-.08,.62-.16,1.33-.23,2.34-.13,1.92-.31,8.37-.31,9.41,0,2.47,.1,3.2,.7,4,.78,1.09,2.18,1.48,3.02,1.48,1.27,0,3.38-.68,4.81-2.31,1.77-1.98,2.47-4.03,2.81-4.99l2.03,1.9c-.99,2.05-2.24,3.98-3.98,5.46Z"/>
  <path d="M22.02,238.26c-1.69-1.2-3.04-1.98-5.67-2.83l.03,.65c-.1,1.07-.29,3.09-4.34,3.09-2.91,0-4.71-1.22-4.71-2.89,0-1.87,1.92-3.22,5.54-3.22,.62,0,1.01,.05,1.38,.08-.18-3.72-.36-7.44-.39-11.15l2.03,.1c.62,.03,1.01,.1,1.01,.47,0,.23-.16,.34-.29,.44-.36,.26-.52,.36-.55,.81-.03,.36-.08,2.18-.1,2.6,2.29-.05,3.95-.18,5.9-.96v2c-1.59,.49-3.04,.62-5.93,.65v.65c0,1.53,.03,2.65,.21,4.68,2.24,.49,3.95,1.07,6.76,2.73l-.88,2.11Zm-9.52-3.48c-1.9,0-3.2,.65-3.2,1.51,0,.7,1.25,1.2,2.52,1.2,2.65,0,2.55-1.59,2.5-2.55-.44-.05-.94-.16-1.82-.16Z"/>
  <path d="M16.43,266.14c-2.76,2.7-5.3,3.3-6.42,3.56l-1.79-2.42c1.14-.16,3.46-.47,5.75-2.26,2.16-1.72,3.41-4.26,3.41-6.63,0-1.61-.7-3.56-3.3-3.56-1.53,0-4.97,1.07-7.54,2.91-.08,.21-.21,.47-.47,.47-.29,0-.39-.26-.62-.78l-.94-2.05c5.77-2.08,8.11-2.91,10.22-2.91,.31,0,2.7,0,3.93,1.74,.83,1.2,1.27,2.55,1.27,4.03,0,2.13-.83,5.28-3.48,7.9Zm-.05-16.48c-.47-.03-.99-.08-2.42,.44-1.56,.55-2,.81-2.44,1.09l-1.43-.96c.26-.1,1.35-.7,1.59-.83-1.79-.39-2-.44-2.34-.55-1.3-.39-1.46-.44-1.61-.49l.31-2.26c2.68,1.01,4.68,1.35,7.49,1.35,.47,0,.7-.05,1.22-.13l-.36,2.34Z"/>
  <path d="M13.88,276.09v6.81l-.62,7.57h-1.59l-.6-7.57v-6.81h2.81Zm0,16.3v2.68h-2.81v-2.68h2.81Z"/>
</svg>