<?xml version="1.0" encoding="UTF-8"?>
<svg id="Layer_2" xmlns="http://www.w3.org/2000/svg" viewBox="0 0 705.41 21.15">
  <defs>
    <style>
      .cls-1 {
        fill: #231815;
      }

      .cls-2 {
        fill: none;
        stroke: #000;
        stroke-miterlimit: 10;
        stroke-width: .5px;
      }

      .cls-3 {
        fill: #e60012;
      }
    </style>
  </defs>
  <g id="Layer_1-2" data-name="Layer_1">
    <g>
      <path d="M125.9,8.72c-.48,1.78-1.18,3.1-2.19,4.13,1.08.91,2.51,1.72,4.4,2.31-.13.13-.24.33-.33.51-.07.13-.09.18-.16.18-.03,0-.09-.01-.17-.04-1.83-.69-3.21-1.54-4.26-2.46-1.07.95-2.44,1.75-4.23,2.42-.08.02-.13.04-.17.04-.06,0-.09-.04-.15-.17-.09-.17-.21-.34-.34-.44,2-.67,3.33-1.42,4.39-2.34-1.06-1.09-1.73-2.38-2.24-4.13h-.38c-1.05,0-1.4.02-1.45.02-.08,0-.09-.01-.09-.09v-.51c0-.08.01-.09.09-.09.06,0,.41.02,1.45.02h2.74v-.75c0-.56-.01-.9-.09-1.21.28.01.53.02.77.05.08.01.13.05.13.1,0,.08-.03.13-.06.21-.06.11-.06.26-.06.84v.76h2.91c1.04,0,1.4-.02,1.45-.02.09,0,.1.01.1.09v.51c0,.08-.01.09-.1.09-.06,0-.41-.02-1.45-.02h-.51ZM121.14,8.72c.47,1.53,1.06,2.66,2.07,3.66.96-.97,1.54-2.11,1.95-3.66h-4.02Z"/>
      <path d="M132.28,11.38c0-.44.02-1.11.03-1.67-.44.62-.92,1.2-1.46,1.73-.07.07-.12.11-.15.11-.06,0-.09-.04-.13-.14-.08-.18-.17-.31-.29-.42,1.3-1.19,2.24-2.54,2.84-4.03.11-.27.18-.53.2-.73.28.08.46.15.67.25.09.04.12.08.12.13s-.03.1-.1.14c-.08.06-.14.17-.25.42-.23.52-.49,1.04-.8,1.56v5.42c0,1.16.02,1.65.02,1.71,0,.08-.01.09-.09.09h-.53c-.09,0-.1-.01-.1-.09,0-.05.02-.55.02-1.71v-2.78ZM135.83,14.12c0,.53.09.73.43.82.27.08.69.08,1.38.08s1.07-.07,1.34-.3c.22-.19.36-.64.42-1.63.13.11.3.21.48.29.2.08.19.09.17.29-.1.92-.27,1.39-.63,1.64-.37.27-1,.36-1.8.36-.88,0-1.44-.01-1.81-.14-.39-.14-.65-.43-.65-1.16v-6.82c0-.56-.01-.89-.07-1.23.29.01.51.03.73.07.1.01.14.04.14.1,0,.08-.02.12-.05.2-.05.11-.07.26-.07.84v3.2c.9-.56,1.78-1.24,2.61-2.09.15-.17.33-.39.43-.58.21.13.42.3.57.44.08.07.1.11.1.17,0,.07-.08.12-.16.15-.13.04-.31.21-.57.46-.79.76-1.75,1.45-2.97,2.21v2.64Z"/>
      <path d="M152.2,7.89c0,.09-.01.1-.09.1-.07,0-.41-.02-1.44-.02h-1.51v.08c0,.64.02.89.02.95,0,.08-.01.09-.09.09h-.49c-.08,0-.09-.01-.09-.09,0-.07.02-.31.02-.95v-.08h-2.3v.09c0,.63.02.87.02.93,0,.08-.01.09-.09.09h-.5c-.08,0-.09-.01-.09-.09,0-.07.02-.31.02-.93v-.09h-1.46c-1.03,0-1.39.02-1.44.02-.08,0-.09-.01-.09-.1v-.46c0-.08.01-.09.09-.09.05,0,.41.02,1.44.02h1.46c0-.46,0-.88-.07-1.18.29.01.49.02.67.05.1.02.14.05.14.11,0,.04-.02.08-.06.15-.04.11-.06.36-.06.81v.04h2.3c0-.47,0-.89-.07-1.19.29.01.49.03.68.06.06.01.12.04.12.1s-.02.09-.04.15c-.03.1-.07.35-.07.84v.03h1.51c1.03,0,1.38-.02,1.44-.02.08,0,.09.01.09.09v.46ZM152.2,12.3c0,.08-.01.09-.09.09-.07,0-.41-.02-1.45-.02h-3.91c-.32.83-.68,1.62-1.06,2.32,1.44-.11,2.96-.27,4.14-.43-.27-.32-.56-.64-.88-.96-.06-.05-.07-.09.07-.17l.24-.15c.11-.07.13-.08.2-.02.84.8,1.55,1.63,2.12,2.49.04.07.03.1-.08.17l-.32.21c-.06.04-.11.07-.14.07s-.04-.02-.08-.07c-.21-.35-.45-.7-.71-1.06-1.87.29-4.19.55-6.17.69-.32.03-.38.06-.45.09-.08.03-.12.08-.18.08-.08,0-.11-.03-.14-.13-.07-.22-.12-.46-.18-.7.45.01.8,0,1.13-.01l.65-.03c.41-.78.78-1.6,1.08-2.38h-1.7c-1.05,0-1.39.02-1.45.02-.08,0-.09-.01-.09-.09v-.49c0-.08.01-.09.09-.09.07,0,.41.02,1.45.02h6.37c1.05,0,1.39-.02,1.45-.02.08,0,.09.01.09.09v.49ZM150.95,10.31c0,.07-.01.08-.09.08-.07,0-.44-.02-1.55-.02h-3.85c-1.11,0-1.49.02-1.54.02-.09,0-.1-.01-.1-.08v-.5c0-.08.01-.09.1-.09.06,0,.43.02,1.54.02h3.85c1.11,0,1.49-.02,1.55-.02.08,0,.09.01.09.09v.5Z"/>
      <path d="M155.71,12.44c0-.41.02-.94.03-1.35-.27.3-.55.59-.87.88-.06.05-.1.09-.13.09-.05,0-.08-.04-.11-.12-.08-.18-.14-.29-.25-.4.97-.81,1.54-1.57,2.02-2.51.09-.17.16-.37.21-.54.21.1.37.2.54.31.08.05.12.1.12.15s-.03.09-.1.13c-.07.04-.17.15-.25.32-.16.3-.35.6-.57.91v4.09c0,.96.02,1.36.02,1.42,0,.08-.01.09-.09.09h-.51c-.08,0-.09-.01-.09-.09,0-.06.02-.46.02-1.42v-1.97ZM157.21,6.69c-.08.04-.18.13-.28.26-.5.7-1.1,1.35-1.95,2.04-.08.05-.12.09-.15.09-.04,0-.08-.05-.13-.15-.09-.17-.18-.28-.29-.37.84-.56,1.46-1.23,1.96-1.96.14-.21.21-.36.24-.5.22.1.42.21.58.32.08.05.11.1.11.15s-.03.09-.1.12M158.38,10.81c-.06.09-.09.23-.11.43-.11.84-.32,1.85-.69,2.75-.03.1-.06.13-.1.13-.03,0-.08-.02-.14-.05-.15-.08-.28-.11-.43-.13.46-1,.66-1.95.75-2.7.02-.25.03-.56.01-.78.25.02.47.06.63.09.11.02.14.05.14.12,0,.05-.02.09-.05.14M161.27,9.07c0,.08-.01.09-.09.09-.06,0-.3-.02-1.15-.02h-.33v4.75c0,1.28.02,1.84.02,1.9,0,.08-.01.09-.09.09h-.51c-.08,0-.09-.01-.09-.09,0-.07.02-.63.02-1.89v-4.76h-.34c-.85,0-1.09.02-1.16.02-.08,0-.09-.01-.09-.09v-.45c0-.08.01-.09.09-.09.07,0,.31.02,1.16.02h.34v-.94c0-.73-.01-1.04-.08-1.42.29.01.5.03.7.07.08.01.13.04.13.09,0,.07-.03.11-.06.2-.04.13-.07.36-.07,1.06v.95h.33c.85,0,1.09-.02,1.15-.02.08,0,.09.01.09.09v.45ZM160.44,6.59c.09-.04.11-.06.15,0,.29.34.48.65.69,1.07.03.07.02.1-.07.15l-.22.14c-.13.09-.15.1-.2,0-.19-.41-.41-.77-.66-1.09-.06-.07-.04-.09.06-.14l.24-.13ZM160.78,10.46c.1-.03.12-.02.14.06.33.98.53,1.88.69,2.89.01.08,0,.1-.11.14l-.31.11c-.14.05-.18.05-.19-.04-.13-1.06-.33-1.98-.63-2.93-.02-.08-.02-.09.1-.13l.3-.1ZM164.5,9.73c0,.09-.01.1-.09.1-.05,0-.25-.02-.98-.02h-.06v3.27c0,.76.01,1.26.01,1.73,0,.36-.08.65-.3.8-.22.14-.57.18-1.32.16q-.22,0-.26-.23c-.03-.15-.11-.33-.18-.46.39.04.71.07.99.07.25-.01.41-.11.41-.45v-4.89h-.3c-.71,0-.92.02-.98.02-.09,0-.1-.01-.1-.1v-.44c0-.08.01-.09.1-.09.06,0,.26.02.98.02h1c.72,0,.92-.02.98-.02.08,0,.09.01.09.09v.44ZM164.25,7.45c0,.08-.01.09-.08.09s-.23-.02-.86-.02h-.71c-.64,0-.8.02-.86.02-.08,0-.09-.01-.09-.09v-.46c0-.08.01-.09.09-.09.06,0,.22.02.86.02h.71c.63,0,.79-.02.86-.02s.08.01.08.09v.46Z"/>
      <path d="M167.08,9.1c.07-.09.09-.1.17-.05.53.3,1.08.71,1.56,1.19.05.05.03.08-.03.18l-.22.31c-.09.12-.11.12-.17.06-.46-.46-.98-.9-1.52-1.23-.08-.04-.07-.07.01-.17l.21-.27ZM167.93,15.28c-.12.21-.21.36-.23.46-.02.08-.06.11-.12.11-.03,0-.08-.01-.14-.07-.16-.12-.32-.24-.49-.4.22-.24.4-.47.63-.86.26-.5.69-1.34,1.16-2.43.09.11.2.23.31.33.11.09.15.12.15.18,0,.04-.02.09-.05.18-.38.88-.79,1.74-1.2,2.5M167.69,6.36c.08-.09.1-.09.16-.04.53.34,1.05.77,1.47,1.21.06.07.06.09-.02.19l-.23.3c-.09.11-.12.12-.18.05-.44-.47-.98-.94-1.47-1.27-.08-.05-.07-.07.02-.16l.24-.28ZM176.54,10.1c0,.08-.01.09-.08.09s-.44-.02-1.55-.02h-1.64v1.8h.94c1.02,0,1.36-.02,1.42-.02.08,0,.09.01.09.09,0,.05-.02.32-.02,1.03v.94c0,1.53.02,1.77.02,1.84s-.01.08-.09.08h-.51c-.08,0-.09-.01-.09-.08v-.48h-4.06v.54c0,.08-.01.09-.09.09h-.48c-.09,0-.1-.01-.1-.09,0-.05.02-.31.02-1.86v-.84c0-.84-.02-1.11-.02-1.17,0-.08.01-.09.1-.09.06,0,.41.02,1.43.02h.77v-1.8h-1.49c-1.12,0-1.5.02-1.55.02-.08,0-.09-.01-.09-.09v-.47c0-.08.01-.09.09-.09.06,0,.43.02,1.55.02h1.49v-1.78c-.73.15-1.48.28-2.23.39-.23.03-.24.02-.31-.18-.06-.16-.13-.3-.22-.4,1.82-.2,3.86-.64,4.86-1.03.25-.1.42-.18.57-.29.18.13.33.26.47.41.07.07.09.1.09.15s-.04.1-.13.11-.25.04-.42.1c-.63.22-1.31.42-2.01.58v1.94h1.64c1.11,0,1.48-.02,1.55-.02s.08.01.08.09v.47ZM175.03,12.54h-4.06v2.23h4.06v-2.23Z"/>
      <path d="M184.12,8.6c0,.08,0,.09-.07.09-.06,0-.4-.02-1.41-.02h-.77v.7h.59c.93,0,1.24-.02,1.31-.02.08,0,.09.01.09.09,0,.05-.02.26-.02.9v1.08c0,.61.02.85.02.9,0,.08-.01.09-.09.09-.07,0-.29-.02-1.31-.02h-.59v.7h.58c.97,0,1.28-.02,1.34-.02.08,0,.09.01.09.09v.4c0,.08-.01.09-.09.09-.07,0-.37-.02-1.34-.02h-.58v.79c.68-.09,1.39-.2,2.03-.33-.05.13-.07.23-.08.33-.02.23-.02.22-.24.26-1.28.25-2.58.44-3.93.59-.22.02-.38.07-.43.09-.05.02-.09.05-.13.05-.06,0-.1-.03-.13-.13-.04-.17-.11-.41-.15-.63.37.01.69,0,1.13-.03.39-.03.85-.08,1.34-.13v-.87h-.77c-.97,0-1.28.02-1.34.02-.08,0-.09-.01-.09-.09v-.4c0-.08.01-.09.09-.09.06,0,.37.02,1.34.02h.77v-.7h-.54c-.93,0-1.24.02-1.31.02-.08,0-.09-.01-.09-.09,0-.07.02-.29.02-.9v-1.07c0-.64-.02-.86-.02-.91,0-.08.01-.09.09-.09.07,0,.37.02,1.31.02h.54v-.7h-.93c-1,0-1.34.02-1.4.02-.08,0-.09-.01-.09-.09v-.41c0-.08.01-.09.09-.09.06,0,.4.02,1.4.02h.93v-.73c-.54.08-1.08.14-1.68.2-.2.01-.22.02-.29-.13-.07-.17-.16-.29-.24-.39,1.61-.1,2.69-.28,3.79-.57.2-.05.37-.12.51-.21.18.13.32.25.43.36.06.07.09.1.09.15,0,.07-.09.1-.19.1s-.26.04-.43.08c-.48.12-.94.22-1.39.31v.82h.77c1.01,0,1.34-.02,1.4-.02.07,0,.08.01.08.09v.41ZM181.29,9.85h-1.33v.79h1.33v-.79ZM181.29,11.09h-1.33v.84h1.33v-.84ZM183.28,9.85h-1.4v.79h1.4v-.79ZM183.28,11.09h-1.4v.84h1.4v-.84ZM186.96,8.69c.87,0,1.14-.02,1.21-.02.08,0,.1.02.1.1-.02.34-.02.65-.02.98-.02,1.75-.1,3.54-.32,4.9-.13.77-.51,1.1-1.19,1.1-.31,0-.55-.01-.78-.02-.19-.01-.19-.07-.2-.19-.01-.2-.08-.39-.16-.53.36.07.7.1,1.08.1s.54-.2.63-.76c.2-1.19.29-3.05.29-5.06h-1.32c-.04,1.11-.17,2.19-.4,3.08-.39,1.41-.95,2.49-2.1,3.4-.09.07-.12.1-.17.1-.03,0-.08-.03-.14-.1-.12-.13-.28-.23-.44-.3,1.24-.78,1.85-1.89,2.24-3.33.2-.73.31-1.76.36-2.85h-.11c-.86,0-1.12.02-1.18.02-.09,0-.1-.01-.1-.09v-.46c0-.08.01-.09.1-.09.05,0,.32.02,1.18.02h.13c.01-.42.02-.84.02-1.24,0-.68-.01-.95-.08-1.35.25.01.48.03.71.08.08.01.12.05.12.1,0,.08-.02.13-.05.23-.04.11-.07.44-.07,1.02,0,.39,0,.78-.01,1.17h.65Z"/>
      <path d="M198.02,12.07c.74.64,1.6,1.05,2.95,1.33-.11.11-.22.24-.29.4-.09.2-.11.19-.31.12-1.44-.44-2.32-.99-3.1-1.85h-2.95c-.69.72-1.58,1.36-2.96,1.9-.2.08-.21.08-.32-.1-.09-.14-.18-.25-.3-.35,1.3-.41,2.18-.92,2.78-1.45h-1.05c-1.03,0-1.36.02-1.43.02s-.08-.01-.08-.1v-.41c0-.08.01-.09.08-.09s.4.02,1.43.02h.95v-3.54h-.41c-1.08,0-1.45.02-1.51.02-.08,0-.09-.01-.09-.09v-.43c0-.08.01-.09.09-.09.06,0,.43.02,1.51.02h.41v-.04c0-.65-.01-1.01-.07-1.3.26.01.47.03.7.07.07.01.12.04.12.09,0,.08-.04.13-.07.2-.03.11-.06.36-.06.95v.04h3.4v-.04c0-.65-.01-1.01-.07-1.3.25.01.47.03.7.07.08.01.12.04.12.09,0,.08-.03.13-.07.21-.03.1-.06.35-.06.93v.04h.54c1.08,0,1.44-.02,1.51-.02.08,0,.09.01.09.09v.43c0,.08-.01.09-.09.09-.06,0-.43-.02-1.51-.02h-.54v3.54h1.05c1.03,0,1.36-.02,1.43-.02.08,0,.09.01.09.09v.41c0,.09-.01.1-.09.1-.06,0-.4-.02-1.43-.02h-1.13ZM200.06,15.55c0,.08-.01.09-.09.09-.06,0-.42-.02-1.52-.02h-5.28c-1.1,0-1.46.02-1.53.02-.08,0-.09-.01-.09-.09v-.44c0-.08.01-.09.09-.09.07,0,.43.02,1.53.02h2.3v-1h-.87c-1.04,0-1.36.02-1.42.02-.08,0-.09-.01-.09-.09v-.42c0-.08.01-.09.09-.09.06,0,.39.02,1.42.02h.87v-.09c0-.43-.02-.68-.07-.95.28.01.47.03.68.06.07.01.11.04.11.09s-.02.09-.04.15c-.03.09-.05.29-.05.63v.11h.91c1.02,0,1.37-.02,1.43-.02.08,0,.09.01.09.09v.42c0,.08-.01.09-.09.09-.07,0-.41-.02-1.43-.02h-.91v1h2.35c1.1,0,1.45-.02,1.52-.02.08,0,.09.01.09.09v.44ZM197.47,7.98h-3.4v.8h3.4v-.8ZM197.47,9.3h-3.4v.82h3.4v-.82ZM197.47,10.64h-3.4v.88h3.4v-.88Z"/>
      <path d="M207.8,8.8c-.03.11-.06.19-.08.32-.02.18-.03.19-.24.22l-.2.04v.47c0,.51.01,1.03.01,1.46,0,.32-.06.54-.25.68-.18.13-.37.19-.94.2-.22,0-.23-.01-.27-.21-.04-.14-.1-.28-.18-.39.32.04.54.04.77.03.19,0,.3-.1.3-.4v-1.77l-.85.12v.85c0,.47.02.64.02.7,0,.08-.01.09-.1.09h-.4c-.06,0-.08-.01-.08-.09,0-.07.02-.23.02-.7v-.77l-.75.1c-.06.87-.23,1.56-.78,2.3-.05.09-.09.12-.13.12-.03,0-.08-.03-.17-.09-.11-.08-.26-.13-.4-.16.59-.65.81-1.22.9-2.09l-.26.02c-.23.02-.32.05-.39.09-.04.02-.1.06-.15.06s-.09-.03-.11-.11c-.04-.17-.08-.35-.11-.55.25.01.45.01.89-.03.06,0,.11-.01.17-.01.01-.25.01-.53.01-.84v-.58c0-.6-.02-.86-.02-.92,0-.08.01-.09.09-.09.07,0,.3.02,1.03.02h.02c.09-.2.16-.39.21-.56.03-.12.06-.25.07-.41.23.03.41.07.6.12.07.02.1.07.1.12s-.03.09-.08.13c-.06.05-.1.13-.13.22-.05.14-.11.25-.16.37h.41c.73,0,.96-.02,1.01-.02.08,0,.09.01.09.09,0,.07-.02.32-.02.92v1.01l.52-.1ZM212.79,15.61c0,.08-.01.09-.09.09-.05,0-.4-.02-1.42-.02h-6.77c-1.02,0-1.36.02-1.42.02-.08,0-.09-.01-.09-.09v-.44c0-.08.01-.09.09-.09.04,0,.36.02,1.22.02v-1.51c0-.6-.02-.86-.02-.92,0-.08.01-.09.09-.09.05,0,.45.02,1.56.02h3.82c1.1,0,1.5-.02,1.56-.02.08,0,.09.01.09.09,0,.07-.02.32-.02.92v1.51c.92,0,1.26-.02,1.31-.02.08,0,.09.01.09.09v.44ZM206.72,7.39h-2.09v1.14c0,.25,0,.48,0,.72.69-.08,1.42-.17,2.1-.26v-1.6ZM206.44,13.16h-1.46v1.95h1.46v-1.95ZM205.38,7.73c.08-.05.1-.05.15,0,.24.23.43.46.62.74.04.07.03.1-.05.15l-.18.11c-.11.08-.12.09-.18,0-.18-.27-.35-.52-.58-.75-.06-.05-.05-.08.07-.15l.15-.1ZM208.56,13.16h-1.48v1.95h1.48v-1.95ZM211.27,9.12c.1,0,.14-.02.19-.03.03-.01.07-.02.11-.02s.11.03.26.15c.15.14.2.22.2.27,0,.04-.04.09-.1.13-.06.04-.15.17-.27.34-.31.42-.66.79-1.09,1.12.64.39,1.39.64,2.19.76-.1.1-.18.23-.23.35-.08.2-.09.21-.3.17-.79-.19-1.52-.5-2.15-.95-.59.36-1.3.65-2.16.85-.21.05-.24.05-.33-.18-.06-.13-.13-.22-.21-.28.91-.17,1.65-.43,2.23-.75-.43-.39-.79-.86-1.08-1.42-.33,0-.46.01-.51.01-.08,0-.09-.01-.09-.1v-.36c0-.08.01-.09.09-.09.07,0,.34.02,1.2.02h2.03ZM211.17,7.8c0,.15.02.22.1.26.07.04.2.07.41.07.29,0,.41-.04.49-.17.09-.11.1-.3.11-.7.11.1.22.15.36.21.16.07.18.08.15.27-.06.41-.14.58-.28.7-.13.12-.46.2-.88.2-.33,0-.62-.03-.76-.09-.19-.08-.3-.2-.3-.55v-1.1h-1.23c0,.87-.28,1.48-.99,1.87-.08.04-.13.07-.17.07-.05,0-.09-.04-.17-.14-.09-.1-.19-.19-.3-.25.79-.22,1.06-.75,1.06-1.67,0-.19-.02-.25-.02-.31,0-.08.01-.09.09-.09.07,0,.2.02.77.02h.68c.57,0,.74-.02.79-.02.08,0,.09.01.09.09,0,.05-.02.23-.02.66v.67ZM209.09,9.63c.28.45.62.84,1.01,1.14.48-.34.84-.74,1.09-1.14h-2.1ZM210.73,13.16h-1.55v1.95h1.55v-1.95Z"/>
      <path d="M218.25,8.64c0,.64.02.88.02.95,0,.08-.01.09-.09.09-.06,0-.25-.02-.85-.02h-.99c-.07.62-.14,1.14-.22,1.66h1.26c.57,0,.72-.01.77-.01.08,0,.1.02.1.1-.02.2-.03.43-.04.64-.13,2.06-.36,2.89-.55,3.25-.18.35-.49.54-.99.54-.18,0-.42,0-.67-.02-.18-.01-.18-.02-.22-.24-.03-.18-.1-.36-.15-.47.36.05.62.09.92.09.2,0,.43-.08.53-.21.18-.24.36-1.03.51-3.09h-1.56l-.09.46q-.03.13-.36.08c-.31-.05-.31-.07-.28-.21.18-.77.32-1.54.39-2.28.04-.3.06-.52.04-.76,0-.07.02-.1.1-.1.07,0,.24.02.7.02h1.11v-1.81h-1.25c-.68,0-.87.02-.92.02-.08,0-.09-.01-.09-.08v-.46c0-.08.01-.09.09-.09.05,0,.24.02.92.02h.95c.59,0,.79-.02.85-.02.08,0,.09.01.09.09,0,.05-.02.3-.02.94v.95ZM223.44,13.39c.09-.04.11-.03.17.02.51.53,1,1.27,1.36,1.94.03.07.02.1-.09.15l-.28.13c-.13.07-.14.07-.19-.01-.14-.27-.31-.57-.48-.86-1.36.27-3.1.55-4.51.73-.23.03-.41.09-.47.13-.05.03-.1.04-.15.04s-.1-.03-.13-.13c-.07-.22-.12-.43-.17-.68.36.02.67.02,1.21-.03.43-.03.98-.1,1.57-.19v-1.68h-.76c-1,0-1.35.02-1.42.02-.08,0-.09-.01-.09-.09,0-.07.02-.25.02-.85v-.95c0-.6-.02-.79-.02-.85,0-.08.01-.09.09-.09.07,0,.42.02,1.42.02h.76v-1.22c-.58.06-1.18.1-1.72.13-.27.02-.36.05-.45.1-.04.02-.08.04-.13.04-.04,0-.08-.03-.11-.13-.05-.18-.1-.44-.12-.65.31.02.68.03.95.02.4-.62.7-1.3.85-1.66.1-.27.18-.49.21-.75.24.05.42.1.63.16.09.03.15.09.15.15,0,.06-.06.12-.11.17-.07.05-.12.14-.19.29-.22.46-.56,1.09-.86,1.61,1.07-.06,2.2-.14,3-.23-.28-.32-.56-.64-.83-.89-.05-.05-.05-.08.07-.15l.23-.14c.1-.07.12-.07.18-.01.61.56,1.32,1.38,1.77,2.02.05.08.03.1-.08.18l-.29.18c-.07.04-.1.07-.13.07s-.04-.02-.08-.07c-.12-.21-.28-.44-.44-.67-.53.07-1.19.13-1.89.19v1.28h.9c1.01,0,1.35-.02,1.41-.02.08,0,.09.01.09.09,0,.05-.02.24-.02.85v.95c0,.59.02.78.02.85,0,.08-.01.09-.09.09-.06,0-.4-.02-1.41-.02h-.9v1.59c.59-.09,1.18-.19,1.68-.29-.17-.23-.32-.44-.46-.6-.04-.05-.03-.08.09-.14l.23-.12ZM221.28,10.73h-1.63v1.67h1.63v-1.67ZM223.66,10.73h-1.76v1.67h1.76v-1.67Z"/>
      <path d="M229.08,11.38c0-.44.02-1.11.03-1.67-.44.62-.92,1.2-1.46,1.73-.07.07-.12.11-.15.11-.05,0-.09-.04-.13-.14-.08-.18-.18-.31-.29-.42,1.3-1.19,2.24-2.54,2.84-4.03.11-.27.18-.53.2-.73.28.08.46.15.67.25.09.04.12.08.12.13s-.03.1-.1.14c-.08.06-.14.17-.25.42-.23.52-.49,1.04-.8,1.56v5.42c0,1.16.02,1.65.02,1.71,0,.08-.01.09-.09.09h-.53c-.09,0-.1-.01-.1-.09,0-.05.02-.55.02-1.71v-2.78ZM232.63,14.12c0,.53.09.73.43.82.28.08.69.08,1.38.08s1.07-.07,1.34-.3c.22-.19.36-.64.42-1.63.13.11.3.21.48.29.2.08.19.09.17.29-.1.92-.26,1.39-.63,1.64-.38.27-1,.36-1.81.36-.88,0-1.44-.01-1.81-.14-.39-.14-.65-.43-.65-1.16v-6.82c0-.56,0-.89-.07-1.23.29.01.51.03.73.07.1.01.14.04.14.1,0,.08-.02.12-.06.2-.05.11-.06.26-.06.84v3.2c.9-.56,1.78-1.24,2.61-2.09.15-.17.33-.39.43-.58.21.13.42.3.57.44.08.07.1.11.1.17,0,.07-.08.12-.17.15-.13.04-.31.21-.57.46-.79.76-1.75,1.45-2.97,2.21v2.64Z"/>
      <path d="M246.42,12.07c.74.64,1.59,1.05,2.95,1.33-.11.11-.22.24-.29.4-.09.2-.11.19-.31.12-1.44-.44-2.32-.99-3.1-1.85h-2.95c-.69.72-1.58,1.36-2.96,1.9-.2.08-.21.08-.32-.1-.09-.14-.18-.25-.3-.35,1.3-.41,2.18-.92,2.78-1.45h-1.05c-1.03,0-1.36.02-1.43.02s-.08-.01-.08-.1v-.41c0-.08.01-.09.08-.09s.4.02,1.43.02h.95v-3.54h-.41c-1.08,0-1.45.02-1.51.02-.08,0-.09-.01-.09-.09v-.43c0-.08.01-.09.09-.09.06,0,.43.02,1.51.02h.41v-.04c0-.65-.01-1.01-.07-1.3.26.01.47.03.7.07.06.01.12.04.12.09,0,.08-.04.13-.07.2-.03.11-.05.36-.05.95v.04h3.4v-.04c0-.65-.01-1.01-.07-1.3.25.01.47.03.7.07.08.01.12.04.12.09,0,.08-.03.13-.07.21-.03.1-.05.35-.05.93v.04h.54c1.08,0,1.44-.02,1.51-.02.08,0,.09.01.09.09v.43c0,.08-.01.09-.09.09-.07,0-.43-.02-1.51-.02h-.54v3.54h1.05c1.03,0,1.36-.02,1.43-.02.08,0,.09.01.09.09v.41c0,.09-.01.1-.09.1-.07,0-.4-.02-1.43-.02h-1.13ZM248.46,15.55c0,.08-.01.09-.09.09-.07,0-.42-.02-1.52-.02h-5.28c-1.1,0-1.46.02-1.53.02-.08,0-.09-.01-.09-.09v-.44c0-.08.01-.09.09-.09.07,0,.43.02,1.53.02h2.3v-1h-.87c-1.03,0-1.36.02-1.42.02-.08,0-.09-.01-.09-.09v-.42c0-.08.01-.09.09-.09.05,0,.39.02,1.42.02h.87v-.09c0-.43-.02-.68-.07-.95.28.01.47.03.68.06.07.01.11.04.11.09s-.02.09-.04.15c-.03.09-.05.29-.05.63v.11h.91c1.02,0,1.36-.02,1.43-.02.08,0,.09.01.09.09v.42c0,.08,0,.09-.09.09-.07,0-.41-.02-1.43-.02h-.91v1h2.35c1.1,0,1.45-.02,1.52-.02.08,0,.09.01.09.09v.44ZM245.87,7.98h-3.4v.8h3.4v-.8ZM245.87,9.3h-3.4v.82h3.4v-.82ZM245.87,10.64h-3.4v.88h3.4v-.88Z"/>
      <path d="M261.21,10.12c-.07.12-.09.17-.14.17-.05,0-.09-.02-.18-.05-1.86-.74-3.47-1.78-4.64-3.38-1.23,1.65-2.71,2.67-4.49,3.49q-.19.08-.31-.1c-.1-.15-.22-.26-.35-.34,2.09-.89,3.61-2.06,4.53-3.37.18-.26.24-.37.32-.62.25.03.51.08.7.15.1.03.15.08.15.14,0,.03-.02.07-.08.1-.04.02-.08.04-.1.07,1.34,1.76,2.98,2.66,4.89,3.31-.11.1-.24.26-.32.43M260.85,15.47c0,.08-.01.09-.09.09-.06,0-.42-.02-1.49-.02h-5.96c-1.07,0-1.42.02-1.49.02-.08,0-.09-.01-.09-.09v-.47c0-.08.01-.09.09-.09.07,0,.42.02,1.49.02h2.56v-2.88h-2.19c-1.09,0-1.45.02-1.52.02-.08,0-.09-.01-.09-.09v-.46c0-.08.01-.09.09-.09.06,0,.43.02,1.52.02h2.19v-1.38h-.67c-.99,0-1.32.01-1.38.01-.08,0-.09-.01-.09-.08v-.46c0-.08.01-.09.09-.09.06,0,.39.02,1.38.02h2.17c.99,0,1.32-.02,1.39-.02.08,0,.09.01.09.09v.46c0,.07-.01.08-.09.08-.07,0-.4-.01-1.39-.01h-.81v1.38h2.39c1.1,0,1.46-.02,1.52-.02.08,0,.09.01.09.09v.46c0,.1,0,.09-.09.09-.06,0-.42-.02-1.52-.02h-2.39v2.88h2.72c1.07,0,1.43-.02,1.49-.02.08,0,.09.01.09.09v.47ZM253.69,12.59c.12-.05.14-.07.2.01.34.5.58.96.81,1.53.03.08.03.11-.09.17l-.34.17c-.15.08-.16.09-.2-.01-.23-.65-.45-1.09-.78-1.57-.04-.07-.03-.09.1-.15l.3-.13ZM259.25,12.97c-.06.04-.1.11-.18.26-.25.48-.51.95-.78,1.32-.06.08-.09.11-.13.11-.03,0-.08-.02-.15-.08-.11-.08-.25-.15-.38-.18.35-.46.63-.95.87-1.47.09-.2.13-.32.17-.48.24.08.42.15.56.23.09.05.13.09.13.14,0,.07-.05.1-.11.14"/>
      <path d="M268.22,6.89c-1.51,1.29-2,2.55-2,4.12s.49,2.84,2,4.12l-.22.26c-1.7-1.31-2.36-2.63-2.36-4.39s.66-3.08,2.36-4.38l.22.26Z"/>
      <path d="M274.91,8.76c.27,0,.35-.03.45-.1.06-.04.14-.03.23.04.11.07.25.19.36.3.11.11.09.2.02.27-.09.08-.16.16-.23.32-.55,1.17-1.13,2.11-1.74,2.81-.81.93-1.77,1.74-2.81,2.33-.07.04-.14.03-.2-.03-.12-.12-.3-.2-.5-.26,1.32-.72,2.12-1.41,2.98-2.39.67-.78,1.18-1.58,1.69-2.75l-2.59.07c-.67.83-1.14,1.39-1.78,1.93-.1.09-.18.09-.28.02-.1-.07-.27-.15-.46-.19,1.13-.91,1.8-1.72,2.35-2.62.29-.48.41-.76.45-1.12.27.08.54.21.68.31.09.06.1.17,0,.23-.1.06-.2.19-.27.31-.14.22-.23.39-.36.57l2.02-.04Z"/>
      <path d="M279.76,8.97c0-.57-.04-.98-.1-1.31.24.03.56.09.74.14.12.04.12.14.08.22-.06.12-.09.38-.09.95v1.52c0,.47,0,.8.03,1.19,0,.11-.04.14-.14.14h-.42c-.09,0-.12-.03-.12-.14.01-.39.02-.79.02-1.23v-1.49ZM283.53,10.59c0,1.4-.32,2.22-.78,2.8-.43.53-1.17,1.03-1.97,1.32-.1.04-.16.04-.25-.05-.12-.13-.26-.23-.45-.33.92-.27,1.67-.72,2.1-1.23.44-.54.72-1.28.72-2.46v-1.55c0-.88-.03-1.25-.1-1.58.27.03.57.08.77.14.11.04.11.14.06.23-.06.13-.09.4-.09,1.18v1.52Z"/>
      <path d="M290.87,12.76h1.57c.58,0,1.07-.02,1.66-.04.09,0,.13.02.13.11v.41c0,.09-.03.12-.13.12-.5,0-1.09-.03-1.65-.03h-3.81c-.44,0-1.06.03-1.46.05-.1,0-.13-.02-.15-.14-.02-.13-.04-.35-.04-.53.59.04,1.09.04,1.65.04h1.58v-3.39h-.88c-.54,0-.94.02-1.37.04-.08,0-.09-.03-.11-.14-.02-.12-.04-.36-.04-.53.49.04.88.05,1.49.05h2.33c.56,0,1.02,0,1.57-.03.08,0,.09.02.09.09v.43c0,.09,0,.12-.1.12-.58-.03-1.03-.04-1.56-.04h-.77v3.39Z"/>
      <path d="M300.41,12.89c0,.54,0,1.05.03,1.63.01.08-.02.11-.09.11-.16,0-.36,0-.52,0-.07,0-.09-.03-.09-.11.02-.54.04-1.08.04-1.6v-2.67c-.94.84-1.83,1.45-2.83,2.03-.08.04-.14.03-.21-.04-.12-.12-.28-.21-.45-.29,1.12-.61,2.05-1.26,2.8-1.9.68-.59,1.32-1.22,1.75-1.74.38-.46.54-.73.62-1.02.24.13.49.27.62.41.09.09.07.2-.04.25-.11.05-.28.22-.51.48-.38.46-.7.82-1.12,1.24v3.21Z"/>
      <path d="M309.71,8.59c.31,0,.4-.04.48-.1.08-.07.15-.07.24-.02.12.07.28.23.39.36.07.09.05.17-.04.24-.08.06-.14.13-.21.27-.39.84-.89,1.68-1.43,2.39.36.29.73.61,1.08.99.05.05.03.1-.01.16-.06.11-.2.23-.3.31-.07.05-.1.05-.14,0-.31-.35-.67-.7-1.01-.99-.93,1.05-1.92,1.8-3.12,2.46-.1.05-.16.07-.24,0-.14-.13-.31-.22-.5-.29,1.37-.68,2.48-1.49,3.39-2.53-.38-.31-.88-.63-1.41-.92.1-.14.2-.25.32-.36.04-.05.07-.06.14-.03.41.21.91.54,1.34.85.51-.64,1-1.48,1.31-2.24l-2.66.05c-.62.85-1.11,1.39-1.96,2.09-.09.07-.15.09-.23.03-.12-.1-.26-.18-.43-.25,1.24-.95,2.03-1.94,2.57-2.91.21-.37.29-.59.36-.89.22.06.45.18.64.31.11.07.08.18-.02.25-.11.08-.2.2-.26.31-.1.17-.18.31-.32.52l2.05-.04Z"/>
      <path d="M315.14,11.42c-.78,0-1.16.09-1.22.09-.08,0-.12-.04-.15-.13-.04-.15-.07-.44-.09-.68.55.07,1.24.08,1.99.08h2.77c.62,0,1.29,0,1.97-.03.11,0,.13,0,.13.11.01.14.01.32,0,.47,0,.1-.03.12-.13.11-.67-.02-1.34-.02-1.94-.02h-3.32Z"/>
      <path d="M326.67,8.12c0,.06-.01.07-.07.07-.06,0-.26-.02-.95-.02h-.28c.13.23.25.46.37.76.03.06.01.08-.08.11l-.31.1c-.1.04-.11.03-.13-.05-.11-.33-.23-.63-.38-.91h-.75c-.23.39-.51.72-.88,1.09-.06.05-.1.09-.14.09-.04,0-.06-.04-.13-.1-.08-.1-.17-.17-.27-.23.6-.54,1-1.03,1.3-1.75.04-.08.09-.23.11-.36.17.03.38.07.51.11.05.02.09.05.09.09,0,.05-.04.09-.07.13-.04.04-.08.09-.14.22l-.13.26h1.3c.68,0,.89-.02.95-.02.06,0,.07,0,.07.07v.34ZM330.69,11.36c0,.06,0,.07-.06.07s-.33-.02-1.18-.02h-5.36c-.85,0-1.12.02-1.18.02-.06,0-.07,0-.07-.07v-.36c0-.06,0-.07.07-.07.05,0,.33.02,1.18.02h2.3v-.86h-1.33c-.92,0-1.23.02-1.28.02-.06,0-.07,0-.07-.07v-.36c0-.06,0-.07.07-.07.05,0,.36.02,1.28.02h1.33c0-.26,0-.44-.05-.63.23,0,.41.04.57.06.06,0,.1.04.1.07,0,.04-.02.08-.04.14-.03.06-.04.17-.04.36h1.53c.92,0,1.23-.02,1.28-.02s.06,0,.06.07v.36c0,.06-.01.07-.06.07s-.36-.02-1.28-.02h-1.53v.86h2.52c.85,0,1.12-.02,1.18-.02s.06,0,.06.07v.36ZM330.49,12.76c0,.06-.01.07-.07.07-.05,0-.34-.02-1.22-.02h-.54v.31c0,.37,0,.74,0,1.09,0,.28-.06.49-.25.62-.16.1-.4.16-1.05.16q-.18,0-.23-.18c-.04-.13-.11-.27-.19-.39.3.03.52.04.85.04.22,0,.33-.09.33-.37v-1.29h-3.79c-.87,0-1.17.02-1.21.02-.06,0-.07,0-.07-.07v-.36c0-.06,0-.07.07-.07.04,0,.34.02,1.21.02h3.79c0-.35-.03-.58-.07-.78.21,0,.42.03.58.05.06,0,.11.05.11.07,0,.06-.03.1-.05.16-.04.08-.03.22-.03.49h.54c.88,0,1.17-.02,1.22-.02.06,0,.07,0,.07.07v.36ZM324.83,13.06c.07-.05.1-.05.15,0,.39.3.69.62,1.01,1.03.04.05.04.07-.04.14l-.28.2c-.11.08-.12.07-.16,0-.28-.41-.6-.77-.95-1.06-.05-.05-.05-.07.03-.13l.24-.17ZM330.66,8.12c0,.06,0,.07-.07.07-.04,0-.3-.02-1.08-.02h-.68c.16.23.29.48.41.77.02.05,0,.07-.09.11l-.3.1c-.1.04-.12.03-.14-.05-.11-.31-.25-.63-.43-.92h-.81c-.14.23-.29.46-.49.68-.06.07-.09.11-.14.11-.03,0-.07-.03-.14-.08-.1-.08-.2-.13-.3-.16.43-.43.7-.85.88-1.41.04-.09.06-.2.09-.38.19.03.41.06.53.1.06.02.09.05.09.09,0,.05-.03.08-.06.12-.05.05-.07.09-.13.21l-.12.29h1.8c.78,0,1.04-.02,1.08-.02.06,0,.07,0,.07.07v.34Z"/>
      <path d="M340.6,8.36c0,.06,0,.07-.08.07-.04,0-.32-.02-1.16-.02h-3.36c-.25.42-.5.81-.77,1.15,1.11-.05,2.3-.12,3.28-.21-.21-.16-.42-.32-.65-.47-.06-.04-.06-.06.01-.13l.18-.16c.05-.05.09-.04.14,0,.62.37,1.32.96,1.83,1.46.05.05.06.07-.04.15l-.22.2c-.08.07-.09.07-.14.02-.2-.23-.4-.44-.63-.65-1.56.16-3.55.29-5.2.36-.25,0-.32.02-.38.05-.03.02-.06.04-.1.04s-.07-.04-.09-.1c-.04-.13-.08-.37-.12-.54.29.02.59.03.91.02.2,0,.41,0,.61-.02.31-.41.55-.8.74-1.17h-1.4c-.85,0-1.12.02-1.17.02-.06,0-.07,0-.07-.07v-.37c0-.06,0-.07.07-.07.04,0,.32.02,1.17.02h2.32v-.11c0-.46,0-.7-.06-.92.21,0,.43.03.6.04.07,0,.11.04.11.08,0,.05-.03.1-.06.16-.03.07-.04.23-.04.63v.11h2.53c.84,0,1.12-.02,1.16-.02.07,0,.08,0,.08.07v.37ZM339.2,12.91c0,.42.02,1.05.02,1.22,0,.26-.05.5-.21.64-.14.13-.38.18-1.13.17-.18,0-.18,0-.23-.14-.05-.15-.09-.27-.17-.4.32.03.57.04.85.04.25,0,.35-.1.35-.36v-.7h-4.03v.53c0,.69.02.99.02,1.04,0,.06,0,.07-.07.07h-.41c-.06,0-.07,0-.07-.07,0-.05.02-.31.02-1.02v-2.18c0-.72-.02-.99-.02-1.04,0-.07,0-.08.07-.08.05,0,.36.02,1.24.02h2.47c.88,0,1.19-.02,1.24-.02.06,0,.07,0,.07.08,0,.05-.02.37-.02,1.08v1.12ZM338.68,11.1h-4.03v.68h4.03v-.68ZM338.68,12.23h-4.03v.7h4.03v-.7Z"/>
      <path d="M347.63,9.03c.07,1.24.26,2.22.58,3.1.29-.44.52-.89.7-1.32.12-.28.21-.54.24-.81.2.05.39.13.5.19.07.04.11.07.11.12,0,.06-.06.12-.11.17-.06.07-.12.22-.22.43-.27.63-.6,1.23-1,1.8.43.98.99,1.57,1.32,1.57.24,0,.4-.34.43-1.29.08.09.21.17.32.23.16.09.17.1.15.27-.1.97-.39,1.4-.87,1.4-.58,0-1.18-.64-1.71-1.7-.53.65-1.17,1.22-1.93,1.67-.06.04-.1.05-.13.05-.04,0-.08-.04-.15-.13-.08-.1-.18-.17-.27-.23.89-.47,1.65-1.15,2.23-1.91-.39-.96-.64-2.1-.74-3.61h-3.14v1.47h1.39c.57,0,.73-.02.77-.02.06,0,.08.02.08.08-.02.31-.04.62-.05.94-.03.59-.06,1.01-.15,1.46-.11.51-.41.76-.91.76-.2,0-.34,0-.57-.03-.14-.02-.14-.03-.18-.22-.04-.14-.07-.28-.14-.38.34.05.58.08.83.08.22,0,.4-.06.48-.46.08-.33.11-.94.14-1.74h-1.68c0,.68-.05,1.16-.13,1.69-.12.68-.28,1.45-.77,2.23-.05.07-.07.12-.1.12s-.06-.04-.12-.1c-.1-.11-.22-.2-.32-.25.48-.68.68-1.48.77-2.21.08-.6.12-1.16.12-2.09,0-1.24-.02-1.75-.02-1.79,0-.07.01-.08.08-.08.05,0,.36.02,1.26.02h2.33c0-.13-.01-.28-.01-.43-.02-.58-.02-.75-.07-1.1.21,0,.4.03.59.05.07,0,.12.05.12.09,0,.07-.02.11-.04.14-.04.09-.06.28-.05.78,0,.16,0,.32,0,.46h1.51c.9,0,1.2-.02,1.25-.02.06,0,.07,0,.07.08v.39c0,.06,0,.07-.07.07-.05,0-.35-.02-1.25-.02h-1.48ZM348.71,7.17c.07-.05.09-.06.15-.03.3.19.61.46.89.77.04.04.04.07-.04.14l-.19.15c-.09.08-.13.09-.17.03-.26-.35-.57-.6-.84-.79-.06-.05-.07-.07.02-.14l.18-.14Z"/>
      <path d="M357.2,11.01c0,.41-.33.75-.75.75s-.75-.34-.75-.75.34-.75.75-.75.75.33.75.75"/>
      <path d="M368.56,9.14c-.39,1.46-.96,2.54-1.79,3.38.88.75,2.05,1.41,3.6,1.89-.11.11-.2.27-.27.41-.05.11-.07.14-.13.14-.03,0-.07,0-.14-.04-1.49-.57-2.63-1.26-3.48-2.02-.87.77-2,1.43-3.46,1.98-.06.02-.11.04-.14.04-.05,0-.07-.04-.13-.14-.07-.14-.17-.28-.28-.36,1.64-.55,2.73-1.16,3.59-1.92-.86-.89-1.41-1.94-1.84-3.38h-.32c-.86,0-1.14.02-1.19.02-.06,0-.07,0-.07-.07v-.41c0-.06.01-.07.07-.07.05,0,.33.02,1.19.02h2.24v-.61c0-.46,0-.74-.07-.99.22.01.43.02.63.04.06,0,.11.05.11.08,0,.06-.03.11-.05.17-.04.09-.04.22-.04.68v.62h2.38c.86,0,1.14-.02,1.19-.02.07,0,.08,0,.08.07v.41c0,.06,0,.07-.08.07-.04,0-.33-.02-1.19-.02h-.41ZM364.66,9.14c.39,1.25.86,2.18,1.69,3,.78-.79,1.26-1.73,1.59-3h-3.29Z"/>
      <path d="M373.78,11.31c0-.36.02-.91.03-1.37-.36.5-.76.98-1.2,1.41-.05.05-.1.09-.13.09-.05,0-.07-.04-.11-.12-.06-.14-.14-.25-.23-.34,1.06-.97,1.84-2.08,2.32-3.3.09-.22.14-.43.16-.59.22.06.38.13.55.21.07.04.1.06.1.11s-.03.08-.08.12c-.06.04-.12.14-.21.34-.19.42-.4.86-.66,1.28v4.44c0,.95.02,1.35.02,1.4,0,.06-.01.07-.07.07h-.43c-.07,0-.08,0-.08-.07,0-.04.02-.45.02-1.4v-2.28ZM376.69,13.55c0,.43.07.59.35.68.22.06.57.06,1.12.06s.87-.05,1.1-.24c.18-.15.3-.52.34-1.33.11.09.24.17.4.23.16.06.15.07.14.23-.08.76-.22,1.13-.51,1.34-.31.23-.82.3-1.48.3-.72,0-1.18-.01-1.49-.12-.32-.12-.53-.35-.53-.95v-5.58c0-.46,0-.73-.05-1.01.23,0,.41.03.59.05.08,0,.12.04.12.08,0,.06-.02.1-.04.16-.05.09-.06.22-.06.68v2.62c.74-.46,1.46-1.02,2.13-1.71.13-.14.27-.31.35-.48.17.11.34.24.47.36.06.05.08.09.08.13,0,.05-.06.1-.14.13-.11.04-.25.17-.47.38-.65.62-1.43,1.19-2.43,1.81v2.16Z"/>
      <path d="M385.56,8.94c0,.06,0,.07-.07.07-.05,0-.28-.02-1-.02h-.78c-.01.45-.02.86-.04,1.23h.89c.41,0,.5-.02.56-.02.06,0,.08.02.08.08-.02.29-.02.58-.04,1.08-.01,1.23-.08,2.04-.2,2.59-.12.58-.34.86-.86.86-.16,0-.28,0-.45,0-.12,0-.13-.02-.15-.19-.02-.15-.07-.3-.13-.4.23.04.44.07.68.07.32,0,.38-.21.46-.71.08-.51.15-1.31.17-2.89h-1.03c-.11,1.85-.35,2.94-1.1,4.06-.05.06-.07.1-.1.1s-.06-.03-.11-.08c-.1-.12-.21-.22-.32-.28,1-1.25,1.14-2.74,1.18-5.51-.7,0-.92.02-.97.02s-.06,0-.06-.07v-.38c0-.05,0-.06.06-.06s.29.02,1.01.02h.59v-.6c0-.46,0-.69-.06-.93.23,0,.38.02.59.05.07,0,.12.04.12.08,0,.06-.03.1-.05.16-.04.09-.05.23-.05.64v.6h.14c.72,0,.94-.02.99-.02.06,0,.07,0,.07.06v.38ZM390.12,8.82c0,.06-.01.07-.07.07-.05,0-.3-.02-1.07-.02h-2.56c-.21.37-.47.76-.79,1.14-.05.06-.09.09-.13.09-.04,0-.06-.03-.12-.1-.08-.09-.16-.14-.26-.19.76-.78,1.11-1.49,1.34-2.23.08-.27.11-.42.12-.6.19.04.33.06.51.12.07.02.1.06.1.1s-.03.07-.05.11c-.06.07-.11.18-.17.37-.08.23-.17.47-.29.72h2.3c.78,0,1.03-.02,1.07-.02.06,0,.07,0,.07.07v.38ZM386.66,13.52c0,.48.02.63.14.71.15.1.35.13,1.11.13,1.03,0,1.32-.04,1.49-.19.21-.16.27-.42.29-1.15.1.08.22.14.35.18.14.04.15.06.14.23-.05.84-.23.97-.46,1.16-.25.21-.85.27-1.86.27-.92,0-1.2-.05-1.45-.22-.15-.12-.25-.27-.25-.73v-2.3c-.4.13-.54.19-.58.2-.06.02-.09,0-.11-.06l-.09-.34c-.02-.05,0-.07.05-.08.04,0,.23-.04.72-.18v-.46c0-.4,0-.77-.05-1.04.21,0,.36.02.53.05.06,0,.11.04.11.07,0,.06-.02.1-.04.16-.03.08-.05.24-.05.66v.41l.92-.27v-.4c0-.49,0-.74-.06-1.09.25,0,.38.02.54.04.06,0,.1.04.1.09,0,.05-.02.08-.04.14-.04.1-.05.25-.05.68v.39l.65-.2c.74-.22.98-.32,1.04-.33.04,0,.06.02.06.06l-.02.41c-.04.85-.09,1.62-.21,2.04-.07.29-.31.41-.56.42-.14,0-.28,0-.49,0-.1,0-.11-.02-.13-.16-.02-.13-.05-.25-.12-.36.23.05.39.07.57.07.14,0,.24-.05.28-.23.06-.32.14-.9.15-1.65l-1.24.38v1.22c0,.7.02.98.02,1.03,0,.05,0,.07-.07.07h-.38c-.06,0-.07,0-.07-.07,0-.05.02-.32.02-1.03v-1.07l-.92.27v2.06Z"/>
      <path d="M395.22,9.06c0,.06-.01.07-.07.07-.06,0-.25-.02-.94-.02h-1.11c-.68,0-.89.02-.94.02-.05,0-.06,0-.06-.07v-.38c0-.06,0-.07.06-.07.05,0,.26.02.94.02h1.11c.68,0,.88-.02.94-.02.06,0,.07,0,.07.07v.38ZM394.87,13.59c0,1.03.02,1.21.02,1.25,0,.06,0,.07-.07.07h-.36c-.06,0-.07,0-.07-.07v-.36h-1.37v.52c0,.06,0,.07-.07.07h-.36c-.07,0-.08,0-.08-.07,0-.05.02-.23.02-1.32v-.54c0-.54-.02-.75-.02-.8,0-.06,0-.06.08-.06.04,0,.22.02.77.02h.69c.56,0,.73-.02.77-.02.06,0,.07,0,.07.06,0,.05-.02.24-.02.65v.6ZM394.94,7.83c0,.06-.01.07-.07.07-.05,0-.21-.02-.78-.02h-.72c-.57,0-.73.02-.78.02-.06,0-.07,0-.07-.07v-.36c0-.06.01-.07.07-.07.05,0,.22.02.78.02h.72c.58,0,.74-.02.78-.02.06,0,.07,0,.07.07v.36ZM394.81,10.26c0,.06,0,.07-.07.07-.05,0-.2-.02-.73-.02h-.63c-.53,0-.69.02-.73.02-.06,0-.07,0-.07-.07v-.35c0-.06.01-.07.07-.07.05,0,.2.02.73.02h.63c.53,0,.68-.02.73-.02.06,0,.07,0,.07.07v.35ZM394.81,11.46c0,.06,0,.07-.07.07-.05,0-.2-.02-.73-.02h-.63c-.53,0-.69.02-.73.02-.06,0-.07,0-.07-.07v-.35c0-.06.01-.07.07-.07.05,0,.2.02.73.02h.63c.53,0,.68-.02.73-.02.06,0,.07,0,.07.07v.35ZM394.38,12.73h-1.37v1.3h1.37v-1.3ZM398.8,10.85c.11,0,.14-.02.19-.04.03,0,.06-.03.11-.03s.12.05.23.17c.11.13.17.21.17.25,0,.05-.04.08-.09.12-.05.04-.1.09-.19.28-.28.6-.67,1.21-1.19,1.76.6.5,1.33.85,2.17,1.13-.11.11-.2.22-.26.34-.05.11-.07.15-.13.15-.03,0-.06-.02-.13-.05-.75-.32-1.43-.7-2.03-1.21-.57.51-1.26.96-2.09,1.29q-.16.06-.26-.1c-.07-.12-.15-.22-.28-.3.9-.3,1.66-.73,2.26-1.25-.49-.52-.91-1.18-1.21-2.03-.33,0-.48,0-.51,0-.06,0-.07,0-.07-.08v-.37c0-.05,0-.06.07-.06.04,0,.3.02,1.09.02h2.14ZM398.61,9.1c0,.22.02.34.09.4.05.04.14.07.4.07.23,0,.37-.06.44-.17.07-.12.11-.35.11-.81.08.07.18.14.3.18.16.05.16.07.16.22-.03.46-.11.71-.29.87-.15.14-.4.19-.81.19-.36,0-.56-.04-.66-.1-.19-.1-.25-.3-.25-.64v-1.48h-1.28c0,1.33-.31,2.03-.99,2.55-.07.06-.11.09-.14.09s-.07-.03-.14-.1c-.08-.09-.2-.17-.31-.21.6-.39,1.07-.89,1.07-2.15,0-.4-.02-.56-.02-.6,0-.06,0-.07.07-.07.04,0,.19.02.73.02h.71c.54,0,.7-.02.75-.02.06,0,.07,0,.07.07,0,.04-.02.26-.02.76v.93ZM396.59,11.33c.27.69.63,1.25,1.07,1.69.5-.51.87-1.1,1.11-1.69h-2.18Z"/>
      <path d="M409.84,8.23c0,.06,0,.07-.07.07-.05,0-.33-.02-1.2-.02h-5.2c-.85,0-1.14.02-1.19.02-.06,0-.07,0-.07-.07v-.39c0-.06,0-.07.07-.07.04,0,.33.02,1.19.02h2.26v-.09c0-.31-.01-.56-.06-.77.22,0,.43.03.59.05.07,0,.12.04.12.08,0,.06-.04.11-.06.17s-.04.22-.04.48v.09h2.4c.87,0,1.14-.02,1.2-.02.06,0,.07,0,.07.07v.39ZM408.11,11.26c.91,0,1.21-.02,1.27-.02.06,0,.07,0,.07.07,0,.05-.02.33-.02,1.01v.77c0,.43,0,.81,0,1.16,0,.23-.03.41-.2.55-.15.14-.35.17-1,.16-.17,0-.18,0-.22-.18-.04-.14-.09-.27-.15-.37.26.03.51.04.73.04.17,0,.29-.08.29-.32v-2.38h-5.84v2.13c0,.75.02,1.04.02,1.09,0,.06,0,.07-.07.07h-.43c-.06,0-.07,0-.07-.07,0-.04.02-.31.02-1.08v-1.61c0-.68-.02-.91-.02-.96,0-.06,0-.07.07-.07.05,0,.36.02,1.26.02h4.29ZM408.11,10.01c0,.41.02.53.02.58s0,.06-.07.06c-.04,0-.33-.02-1.15-.02h-1.86c-.82,0-1.11.02-1.15.02-.06,0-.07,0-.07-.06s.02-.17.02-.58v-.51c0-.41-.02-.53-.02-.58,0-.06,0-.07.07-.07.05,0,.33.02,1.15.02h1.86c.82,0,1.11-.02,1.15-.02.06,0,.07,0,.07.07,0,.05-.02.17-.02.58v.51ZM407.52,13.28c0,.82.02.94.02.98,0,.06-.01.07-.07.07h-.38c-.07,0-.08,0-.08-.07v-.27h-2.17v.34c0,.06-.01.07-.07.07h-.38c-.06,0-.07,0-.07-.07,0-.05.02-.18.02-1.02v-.39c0-.33-.02-.49-.02-.53,0-.06,0-.07.07-.07.05,0,.27.02.95.02h1.17c.68,0,.9-.02.95-.02.06,0,.07,0,.07.07,0,.04-.02.19-.02.45v.43ZM407.58,9.3h-3.22v.91h3.22v-.91ZM407.01,12.75h-2.17v.84h2.17v-.84Z"/>
      <path d="M413.17,11.31c0-.34,0-.72,0-1.16-.27.44-.58.88-.93,1.29-.05.05-.08.08-.11.08-.04,0-.05-.03-.09-.09-.08-.16-.16-.27-.25-.36.93-.99,1.58-2.26,1.99-3.44.08-.23.13-.43.14-.61.22.07.41.13.57.21.06.03.1.05.1.1,0,.05-.03.08-.08.13-.06.04-.11.14-.18.33-.19.45-.39.92-.62,1.39v4.43c0,.95.02,1.35.02,1.4,0,.06,0,.07-.07.07h-.44c-.06,0-.07,0-.07-.07,0-.04.02-.45.02-1.4v-2.29ZM419.83,9.64c0,.06-.01.07-.07.07-.05,0-.35-.02-1.24-.02h-.02v3.04c0,.49,0,.96,0,1.4,0,.34-.05.49-.24.64-.17.13-.51.15-1.3.15q-.18,0-.22-.17c-.05-.17-.11-.31-.18-.42.33.03.74.04,1.02.04s.37-.08.37-.35v-4.33h-2.07c-.89,0-1.2.02-1.24.02-.06,0-.07,0-.07-.07v-.4c0-.06,0-.07.07-.07.05,0,.35.02,1.24.02h2.07v-1.05c0-.54,0-.82-.05-1.1.22,0,.41.03.59.05.07,0,.12.04.12.08,0,.06-.04.11-.06.17-.04.1-.05.26-.05.77v1.07h.02c.89,0,1.2-.02,1.24-.02.06,0,.07,0,.07.07v.4ZM415.41,10.74c.06-.04.07-.04.12,0,.47.53.8,1,1.13,1.63.03.05.02.07-.07.14l-.26.17c-.12.07-.14.07-.17,0-.31-.66-.63-1.14-1.06-1.65-.05-.05-.05-.06.06-.14l.25-.15Z"/>
      <path d="M424.54,8.87c.77,0,1.04-.02,1.08-.02.06,0,.08.02.08.08-.02.27-.02.53-.02.79-.02,1.46-.09,2.93-.26,4.01-.11.68-.41.95-.97.95-.24,0-.4,0-.6-.03q-.16-.02-.18-.21c-.02-.14-.05-.28-.12-.4.29.05.57.08.85.08s.42-.14.49-.65c.15-.94.23-2.46.24-4.12h-1.28c-.05.89-.16,1.76-.34,2.5-.26,1.08-.6,1.91-1.36,2.81-.06.06-.08.1-.12.1-.03,0-.05-.03-.11-.09-.13-.15-.23-.25-.36-.33.8-.84,1.15-1.57,1.43-2.69.18-.7.27-1.47.31-2.3h-.31c-.77,0-1.03.02-1.07.02-.06,0-.07,0-.07-.07v-.39c0-.06,0-.07.07-.07.05,0,.3.02,1.07.02h.33c0-.27,0-.54,0-.83,0-.56-.02-.77-.06-1.11.21,0,.42.03.62.05.07,0,.1.05.1.09,0,.05-.03.12-.06.2-.03.1-.05.35-.05.83,0,.25,0,.51-.02.76h.66ZM429.46,11.88c0,2.27.02,2.66.02,2.71,0,.06,0,.07-.07.07h-.42c-.05,0-.06,0-.06-.07v-.67h-1.86v.73c0,.06-.01.07-.07.07h-.4c-.07,0-.08,0-.08-.07,0-.05.02-.44.02-2.74v-1.59c0-1.62-.02-2.03-.02-2.07,0-.06,0-.07.08-.07.05,0,.25.02.91.02h1c.64,0,.86-.02.91-.02.06,0,.07,0,.07.07,0,.05-.02.45-.02,1.85v1.78ZM428.92,8.68h-1.86v4.75h1.86v-4.75Z"/>
      <path d="M432.5,11.43c0-.35,0-.87.02-1.32-.22.35-.46.69-.74,1.03-.05.06-.08.09-.11.09-.04,0-.05-.04-.08-.1-.05-.15-.12-.28-.22-.37.85-1.01,1.35-2.02,1.75-3.21.06-.23.11-.43.12-.6.2.04.39.1.55.18.05.03.1.05.1.11s-.04.1-.08.14c-.05.04-.1.13-.17.33-.18.5-.37,1-.6,1.48v4.45c0,.95.02,1.36.02,1.4,0,.05-.01.06-.07.06h-.42c-.06,0-.07,0-.07-.06s.02-.46.02-1.4v-2.21ZM439.73,8.18c0,.06-.01.07-.07.07-.04,0-.34-.02-1.26-.02h-.68v1.67h.33c.89,0,1.21-.02,1.27-.02.06,0,.07,0,.07.07,0,.04-.02.35-.02,1.41v1.63c0,1.48.02,1.75.02,1.81,0,.06,0,.07-.07.07h-.41c-.06,0-.07,0-.07-.07v-.44h-4.29v.48c0,.06,0,.07-.07.07h-.4c-.06,0-.07,0-.07-.07,0-.05.02-.34.02-1.83v-1.5c0-1.21-.02-1.51-.02-1.57,0-.06,0-.07.07-.07.05,0,.36.02,1.25.02h.29v-1.67h-.41c-.92,0-1.21.02-1.26.02-.06,0-.07,0-.07-.07v-.37c0-.07.01-.08.07-.08.05,0,.34.02,1.26.02h3.18c.92,0,1.22-.02,1.26-.02.06,0,.07,0,.07.08v.37ZM435.63,10.36h-1.07v3.52h1.07v-3.52ZM437.21,8.23h-1.08v1.67h1.08v-1.67ZM437.21,10.36h-1.08v3.52h1.08v-3.52ZM438.84,10.36h-1.13v3.52h1.13v-3.52Z"/>
      <path d="M442.48,11.29c0-.34,0-.85.02-1.31-.23.37-.5.73-.81,1.09-.05.06-.09.09-.12.09-.04,0-.05-.03-.08-.09-.06-.14-.14-.27-.22-.35.86-.99,1.41-1.98,1.84-3.16.08-.23.12-.43.13-.6.19.04.37.1.54.17.06.03.1.05.1.1,0,.05-.03.08-.07.13-.05.05-.11.14-.18.34-.19.48-.39.94-.61,1.4v4.48c0,.95.02,1.37.02,1.41,0,.06,0,.07-.07.07h-.42c-.06,0-.07,0-.07-.07,0-.05.02-.46.02-1.41v-2.29ZM449.61,14.48c0,.06,0,.07-.07.07-.05,0-.33-.02-1.22-.02h-3.81v.43c0,.06,0,.07-.07.07h-.4c-.06,0-.07,0-.07-.07,0-.05.02-.31.02-.96v-3.39c0-.6,0-.85-.06-1.16.22,0,.4.03.58.05.06,0,.11.05.11.09s-.03.09-.04.16c-.03.1-.06.3-.06.84v3.45h3.81c.89,0,1.18-.02,1.22-.02.06,0,.07,0,.07.08v.37ZM449.56,8.45c0,.06,0,.07-.07.07-.04,0-.34-.02-1.25-.02h-1.22c-.06.31-.13.61-.19.87h.89c.72,0,.95-.02,1.01-.02.06,0,.07,0,.07.07,0,.05-.02.3-.02.99v1.93c0,.69.02.94.02.99,0,.06-.01.07-.07.07-.05,0-.29-.02-1.01-.02h-1.23c-.72,0-.96.02-1.01.02-.06,0-.07,0-.07-.07,0-.05.02-.3.02-.99v-1.93c0-.69-.02-.94-.02-.99,0-.06.01-.07.07-.07.04,0,.25.02.83.02.07-.29.13-.58.19-.87h-1.09c-.91,0-1.21.02-1.26.02s-.06,0-.06-.07v-.37c0-.05,0-.06.06-.06s.35.02,1.26.02h1.17l.06-.48c.03-.2.04-.33.02-.54.18,0,.38.04.55.06.08.02.11.05.11.1,0,.04-.02.07-.05.12-.04.06-.07.14-.09.24-.03.15-.05.32-.08.5h1.14c.91,0,1.21-.02,1.25-.02.06,0,.07,0,.07.06v.37ZM448.27,9.79h-2.36v.76h2.36v-.76ZM448.27,10.96h-2.36v.78h2.36v-.78ZM448.27,12.15h-2.36v.82h2.36v-.82Z"/>
      <path d="M452.98,11.31c0-.36.02-.91.03-1.37-.36.5-.76.98-1.2,1.41-.06.05-.1.09-.13.09-.05,0-.07-.04-.11-.12-.06-.14-.15-.25-.23-.34,1.06-.97,1.84-2.08,2.32-3.3.09-.22.15-.43.16-.59.23.06.38.13.55.21.07.04.1.06.1.11s-.03.08-.08.12c-.06.04-.12.14-.21.34-.19.42-.41.86-.66,1.28v4.44c0,.95.02,1.35.02,1.4,0,.06,0,.07-.07.07h-.43c-.07,0-.08,0-.08-.07,0-.04.02-.45.02-1.4v-2.28ZM455.89,13.55c0,.43.07.59.35.68.23.06.57.06,1.12.06s.87-.05,1.1-.24c.18-.15.3-.52.34-1.33.11.09.24.17.4.23.16.06.15.07.13.23-.08.76-.22,1.13-.51,1.34-.31.23-.82.3-1.48.3-.72,0-1.18-.01-1.48-.12-.32-.12-.53-.35-.53-.95v-5.58c0-.46,0-.73-.05-1.01.23,0,.41.03.59.05.08,0,.12.04.12.08,0,.06-.02.1-.05.16-.04.09-.05.22-.05.68v2.62c.74-.46,1.46-1.02,2.13-1.71.13-.14.27-.31.35-.48.17.11.34.24.47.36.06.05.08.09.08.13,0,.05-.06.1-.14.13-.11.04-.25.17-.47.38-.65.62-1.43,1.19-2.43,1.81v2.16Z"/>
      <path d="M467.07,10.42c.12,0,.18-.02.22-.04.03,0,.06-.02.09-.02.06,0,.11.04.24.17.12.12.17.2.17.25,0,.04-.04.08-.09.12-.06.04-.11.08-.19.22-.49.8-1.06,1.46-1.75,2.01.97.67,2.18,1.07,3.58,1.36-.11.1-.2.23-.27.4-.07.16-.08.16-.25.13-1.42-.37-2.58-.84-3.52-1.53-.94.66-2.08,1.15-3.43,1.52-.17.05-.16.04-.24-.13-.06-.13-.15-.25-.24-.34,1.41-.34,2.56-.79,3.47-1.4-.66-.58-1.18-1.3-1.58-2.22-.72,0-.99.02-1.03.02-.06,0-.07,0-.07-.07v-.4c0-.05,0-.06.07-.06.05,0,.35.02,1.25.02h1.49v-1.44h-2.21c-.86,0-1.15.02-1.2.02-.06,0-.07,0-.07-.07v-.4c0-.06,0-.07.07-.07.05,0,.33.02,1.2.02h2.21v-.39c0-.57,0-.77-.07-1.09.22,0,.45.03.63.05.07,0,.13.05.13.09,0,.05-.04.12-.06.18-.03.09-.06.23-.06.73v.42h2.37c.86,0,1.15-.02,1.2-.02.06,0,.07,0,.07.07v.4c0,.06,0,.07-.07.07-.05,0-.33-.02-1.2-.02h-2.37v1.44h1.49ZM463.89,10.91c.37.78.85,1.4,1.44,1.89.67-.52,1.2-1.14,1.64-1.89h-3.08Z"/>
      <path d="M473.72,9.25c0,.06-.01.07-.07.07-.06,0-.22-.02-.77-.02h-.05v1.84c.24-.1.51-.22.8-.36-.02.12-.03.24-.03.37,0,.17,0,.19-.14.24-.21.11-.43.2-.64.29v1.04c0,.58.02,1.01.02,1.36,0,.42-.06.58-.23.71-.17.13-.4.17-.94.16-.17,0-.19,0-.22-.19-.03-.14-.1-.28-.16-.38.2.03.49.03.71.03s.31-.09.31-.39v-2.14c-.16.06-.31.12-.46.17-.19.07-.3.14-.34.18-.03.03-.07.05-.11.05-.04,0-.08-.03-.1-.08-.05-.15-.11-.32-.15-.52.24-.04.47-.11.8-.22.1-.04.23-.07.36-.13v-2.04h-.26c-.58,0-.75.02-.79.02-.06,0-.07,0-.07-.07v-.38c0-.06,0-.07.07-.07.04,0,.22.02.79.02h.26v-.73c0-.54-.02-.8-.06-1.09.22,0,.41.02.58.04.07,0,.12.05.12.07,0,.07-.03.12-.05.18-.05.09-.06.26-.06.77v.75h.05c.55,0,.71-.02.77-.02.06,0,.07,0,.07.07v.38ZM477.77,11.91c.1,0,.14-.02.18-.04.04-.02.05-.02.09-.02.06,0,.13.04.23.17.09.11.14.19.14.23s-.03.07-.08.1c-.07.04-.11.09-.23.28-.28.43-.6.8-.97,1.14.63.39,1.36.64,2.2.85-.07.07-.16.19-.22.32-.04.12-.06.15-.13.15-.03,0-.07,0-.12-.03-.77-.22-1.49-.52-2.12-.97-.56.41-1.22.74-2.02.99-.06.02-.1.03-.14.03-.05,0-.08-.04-.14-.13-.05-.1-.14-.21-.22-.27.81-.21,1.53-.52,2.12-.94-.39-.32-.73-.72-1.04-1.21-.38.85-.95,1.62-1.75,2.29-.06.05-.1.07-.13.07-.04,0-.06-.03-.12-.1-.09-.12-.18-.19-.27-.25,1.19-.9,1.89-2.05,2.2-3.39h-.02c-.88,0-1.19.02-1.23.02-.05,0-.06,0-.06-.07v-.35c0-.06,0-.07.06-.07.05,0,.35.02,1.23.02h.11c.05-.23.06-.48.08-.73h-.08c-.87,0-1.17.02-1.22.02-.06,0-.07,0-.07-.07v-.32c0-.06,0-.07.07-.07.04,0,.34.02,1.22.02h1.94c.26-.43.41-.76.56-1.14.06-.17.11-.31.13-.46.18.04.36.09.51.14.05.02.08.05.08.1s-.03.07-.07.11c-.05.04-.08.09-.12.17-.16.35-.33.7-.56,1.08.84,0,1.12-.02,1.18-.02.06,0,.07,0,.07.07v.32c0,.06,0,.07-.07.07-.05,0-.34-.02-1.22-.02h-1.85c-.03.25-.05.49-.1.73h2.05c.88,0,1.19-.02,1.23-.02.06,0,.07,0,.07.07v.35c0,.06,0,.07-.07.07-.04,0-.35-.02-1.23-.02h-2.14c-.05.24-.12.48-.19.7h2.22ZM478.65,7.47c-.08,0-.19.03-.32.05-1.33.26-2.63.39-3.94.45-.18,0-.19,0-.26-.16-.05-.11-.11-.22-.19-.31,1.49-.02,2.84-.17,3.95-.4.16-.04.36-.1.46-.15.15.1.31.22.4.31.05.04.06.08.06.12,0,.05-.07.08-.15.08M474.79,8.22c.11-.05.12-.04.15.02.2.28.36.6.47.88.03.06.02.07-.08.12l-.23.1c-.1.04-.13.05-.15-.03-.11-.32-.24-.61-.43-.88-.05-.06-.04-.08.07-.13l.21-.08ZM475.63,12.32c.32.49.68.86,1.09,1.17.4-.34.73-.73.97-1.17h-2.06ZM476.26,8.13c.11-.04.13-.04.16.02.19.31.32.61.42.92.02.06.02.09-.08.12l-.22.08c-.13.04-.14.05-.17-.03-.09-.33-.22-.63-.39-.93-.03-.05-.02-.07.09-.12l.18-.07Z"/>
      <path d="M489.14,12.37c0,.06,0,.07-.06.07-.05,0-.28,0-.88-.02v.58c0,.57.02.76.02.81,0,.06-.01.07-.07.07h-.4c-.06,0-.07,0-.07-.07v-.28h-2.27c0,.25,0,.48,0,.66,0,.4-.06.56-.25.68-.2.13-.52.16-1.22.16-.17,0-.17,0-.22-.17-.05-.14-.12-.27-.22-.41.31.04.49.04.79.04.49,0,.58-.07.58-.43v-.53h-1.55c-.92,0-1.21.02-1.27.02-.06,0-.07,0-.07-.07v-.32c0-.06.01-.07.07-.07.06,0,.35.02,1.27.02h1.55v-.68h-2.48c-.84,0-1.11.02-1.16.02-.06,0-.07,0-.07-.07v-.31c0-.06,0-.07.07-.07.05,0,.32.02,1.16.02h2.48v-.63h-1.55c-.91,0-1.21.02-1.27.02-.06,0-.07,0-.07-.06v-.32c0-.06.01-.07.07-.07.06,0,.36.02,1.27.02h1.55v-.61h-1.19c-.9,0-1.22.02-1.27.02-.06,0-.07,0-.07-.08,0-.04.02-.14.02-.5v-.38c0-.34-.02-.44-.02-.49,0-.06,0-.07.07-.07.04,0,.37.02,1.27.02h1.19v-.56h-2.41c-.85,0-1.13.02-1.18.02-.06,0-.07,0-.07-.07v-.33c0-.06,0-.07.07-.07.04,0,.33.02,1.18.02h2.41c0-.47,0-.71-.06-.94.23,0,.4.02.59.04.06,0,.11.04.11.07,0,.07-.03.11-.05.17-.04.09-.05.23-.05.63v.02h2.41c.85,0,1.12-.02,1.18-.02.06,0,.07,0,.07.07v.33c0,.06-.01.07-.07.07-.05,0-.33-.02-1.18-.02h-2.41v.56h1.22c.91,0,1.22-.02,1.28-.02.06,0,.07,0,.07.07,0,.05-.02.15-.02.49v.38c0,.35.02.45.02.5,0,.07,0,.08-.07.08-.05,0-.37-.02-1.28-.02h-1.22v.61h1.45c.92,0,1.24-.02,1.29-.02.06,0,.07,0,.07.07,0,.04-.02.23-.02.8v.2c.6,0,.84-.02.88-.02.05,0,.06,0,.06.07v.31ZM484.88,9.25h-2.02v.69h2.02v-.69ZM487.47,9.25h-2.06v.69h2.06v-.69ZM487.68,11.37h-2.27v.63h2.27v-.63ZM487.68,12.43h-2.27v.68h2.27v-.68Z"/>
      <path d="M495.67,12.74c.86.69,1.9,1.15,3.44,1.51-.08.08-.16.2-.23.32q-.09.17-.26.12c-1.44-.4-2.48-.94-3.39-1.78,0,1.36.05,1.93.05,2.08,0,.06,0,.07-.07.07h-.43c-.06,0-.07,0-.07-.07,0-.15.04-.7.05-2.06-.89.88-1.88,1.38-3.26,1.81-.16.05-.18.05-.26-.11-.06-.13-.14-.22-.24-.31,1.48-.39,2.55-.86,3.31-1.58h-1.87c-.86,0-1.14.02-1.18.02-.07,0-.08,0-.08-.07v-.32c0-.06,0-.07.08-.07.04,0,.32.02,1.18.02h2.3v-.72h-1.34c-.92,0-1.23.02-1.28.02-.06,0-.07,0-.07-.06v-.31c0-.07,0-.08.07-.08.05,0,.36.02,1.28.02h1.34v-.69h-1.78c-.9,0-1.2.02-1.24.02-.07,0-.08,0-.08-.07v-.32c0-.06,0-.07.08-.07.04,0,.34.02,1.24.02h.72c-.11-.31-.24-.58-.38-.77-.05-.06-.03-.08.07-.12l.23-.08c.09-.04.11-.04.14.02.17.24.33.58.48.95h1.67c.13-.21.21-.4.33-.66.04-.11.07-.21.11-.36.16.04.3.07.48.13.05.02.1.05.1.1s-.05.08-.08.11c-.04.04-.09.12-.12.19-.08.15-.17.31-.3.49h.78c.91,0,1.2-.02,1.25-.02.06,0,.07,0,.07.07v.32c0,.06,0,.07-.07.07-.05,0-.34-.02-1.25-.02h-1.93v.69h1.52c.92,0,1.22-.02,1.28-.02.06,0,.07,0,.07.08v.31c0,.05,0,.06-.07.06-.05,0-.36-.02-1.28-.02h-1.52v.72h2.48c.86,0,1.13-.02,1.19-.02.06,0,.07,0,.07.07v.32c0,.06,0,.07-.07.07-.05,0-.33-.02-1.19-.02h-2.05ZM498.98,8.88c0,.06,0,.07-.07.07-.05,0-.33-.02-1.19-.02h-5.3c-.86,0-1.14.02-1.18.02-.07,0-.08,0-.08-.07v-.32c0-.07,0-.08.08-.08.04,0,.32.02,1.18.02h.31c-.2-.4-.4-.68-.64-.95-.04-.04-.04-.07.05-.12l.24-.13c.06-.04.09-.04.13,0,.23.24.45.57.65.91.03.05.02.07-.05.12l-.3.16h1.19v-.68c0-.32,0-.58-.05-.82.19,0,.41.03.55.05.05,0,.09.03.09.08s0,.07-.04.13c-.03.06-.05.22-.05.57v.68h.96v-.67c0-.32,0-.58-.06-.82.19,0,.41.03.56.05.05,0,.09.03.09.08,0,.04-.02.07-.04.12-.03.07-.05.22-.05.57v.68h.84c.2-.28.35-.55.5-.85.06-.13.12-.25.15-.42.18.04.38.12.51.17.05.02.09.05.09.09,0,.05-.02.08-.07.12-.06.05-.11.11-.15.18-.14.23-.31.48-.48.71h.38c.86,0,1.13-.02,1.19-.02.06,0,.07,0,.07.08v.32Z"/>
      <path d="M501.09,6.63c1.7,1.3,2.36,2.63,2.36,4.38s-.66,3.08-2.36,4.39l-.23-.26c1.51-1.29,2-2.55,2-4.12s-.49-2.83-2-4.12l.23-.26Z"/>
      <path d="M527.2,6.09c.11-.06.13-.04.2.05.28.36.51.74.71,1.11.27-.32.5-.64.69-.99.12-.22.19-.41.23-.54.24.11.37.19.55.32.07.04.1.09.1.14s-.05.1-.1.13c-.1.05-.23.25-.3.36-.28.43-.54.81-.87,1.18.59,1.31.83,2.78.83,4.71,0,2.28-.44,2.9-1.49,2.9-.18,0-.37,0-.63-.02q-.16-.01-.2-.23c-.04-.21-.11-.36-.19-.48.37.05.68.08.92.08.63,0,.93-.3.93-2.21,0-.76-.03-1.44-.11-2.08-.52.91-1.1,1.63-1.76,2.22-.08.07-.12.1-.15.1-.04,0-.08-.04-.13-.13-.09-.15-.18-.29-.27-.35.91-.75,1.63-1.6,2.18-2.65-.1-.48-.23-.95-.4-1.38-.34.32-.74.65-1.23.99-.08.05-.12.09-.16.09s-.07-.05-.13-.15c-.09-.14-.18-.24-.28-.32.57-.37,1.09-.78,1.53-1.22-.16-.31-.35-.62-.56-.91-.09-.12-.19-.24-.3-.37-.03-.04-.06-.07-.06-.1,0-.02.03-.06.11-.09l.31-.15ZM534.76,12.67c.09-.04.11-.04.17.03.57.85.93,1.56,1.3,2.53.02.07-.01.11-.11.15l-.32.15c-.13.07-.15.03-.18-.04-.12-.36-.25-.69-.39-1.01-1.64.31-3.03.53-4.74.7-.32.03-.42.07-.47.11-.08.06-.11.08-.17.08s-.11-.05-.13-.13c-.08-.23-.13-.46-.19-.7.43.01.8,0,1.11-.02.63-.04,1.26-.11,1.88-.19v-2.54h-1.71v.56c0,.08,0,.09-.09.09h-.47c-.08,0-.09-.01-.09-.09,0-.07.02-.32.02-1.98v-.96c0-.96-.02-1.24-.02-1.3,0-.08.01-.09.09-.09.07,0,.42.02,1.44.02h.83v-.77c0-.74-.01-1.03-.08-1.38.29.01.48.02.7.05.08.01.13.04.13.1s-.02.11-.05.2c-.03.11-.07.35-.07,1.01v.78h.95c1.02,0,1.39-.02,1.45-.02.08,0,.09.01.09.09,0,.05-.02.34-.02,1.14v1.07c0,1.63.02,1.9.02,1.96,0,.07-.01.08-.09.08h-.47c-.09,0-.1-.01-.1-.08v-.49h-1.83v2.46c.62-.09,1.23-.19,1.83-.31-.16-.33-.36-.66-.59-1-.04-.08-.03-.09.09-.14l.29-.13ZM532.52,8.62h-1.7v2.6h1.7v-2.6ZM534.98,8.62h-1.83v2.6h1.83v-2.6Z"/>
      <path d="M548.18,14.84c0,.08-.01.09-.09.09-.07,0-.4-.02-1.43-.02h-6.71c-1.02,0-1.36.02-1.42.02-.08,0-.09-.01-.09-.09v-.55c0-.08.01-.09.09-.09.06,0,.4.02,1.42.02h3.84c.59-1.4,1.01-2.72,1.32-3.85.13-.49.19-.78.22-1.14.28.08.52.14.77.24.09.03.11.07.11.12,0,.07-.06.13-.1.19-.09.1-.14.25-.21.48-.4,1.36-.83,2.63-1.4,3.96h2.16c1.03,0,1.36-.02,1.43-.02.08,0,.09.01.09.09v.55ZM547.63,8.4c0,.09-.01.1-.09.1-.05,0-.42-.02-1.52-.02h-5.41c-1.09,0-1.45.02-1.52.02-.08,0-.09-.01-.09-.1v-.53c0-.08.01-.09.09-.09.07,0,.43.02,1.52.02h2.24v-.91c0-.55-.02-.85-.08-1.11.35.01.52.02.76.05.09.01.14.05.14.1,0,.08-.02.12-.06.2-.04.1-.07.28-.07.76v.91h2.46c1.1,0,1.46-.02,1.52-.02.08,0,.09.01.09.09v.53ZM540.95,9.32c.11-.03.13-.03.15.03.46,1.16.85,2.36,1.12,3.86.01.08.01.11-.12.14l-.39.11c-.17.04-.19.03-.21-.06-.25-1.48-.58-2.6-1.06-3.82-.03-.08-.02-.09.13-.14l.36-.12Z"/>
      <path d="M552.27,12.1c0-.44.01-1.01.02-1.43-.35.39-.75.77-1.19,1.13-.08.07-.12.1-.15.1s-.06-.04-.11-.13c-.08-.15-.16-.27-.29-.39.99-.77,1.86-1.73,2.41-2.67.1-.17.19-.36.23-.53.22.1.41.21.57.32.08.05.1.09.1.14,0,.04-.03.09-.08.12-.07.04-.17.13-.24.26-.2.31-.4.6-.62.89v4.15c0,.96.02,1.36.02,1.42,0,.08-.01.09-.09.09h-.53c-.08,0-.09-.01-.09-.09,0-.05.02-.46.02-1.42v-1.97ZM553.68,6.31c-.07.04-.15.14-.26.29-.53.67-1.24,1.4-2.15,2.05-.07.06-.11.08-.15.08s-.09-.04-.15-.15c-.09-.13-.19-.24-.32-.34.87-.56,1.68-1.3,2.22-2.03.14-.2.2-.35.24-.48.23.1.4.19.61.33.07.04.1.08.1.13s-.05.1-.13.14M560.4,9.71c0,.08-.01.09-.09.09-.05,0-.42-.02-1.5-.02h-.35v2.54c0,1.1.02,1.63.02,2.02.01.47-.08.7-.3.88-.2.15-.51.21-1.53.21q-.22,0-.28-.23c-.06-.18-.12-.35-.23-.5.36.03.65.04,1.06.04.46,0,.58-.07.58-.42v-4.55h-1.99c-1.08,0-1.44.02-1.51.02-.08,0-.09-.01-.09-.09v-.48c0-.08.01-.09.09-.09.06,0,.43.02,1.51.02h3.01c1.08,0,1.44-.02,1.5-.02.08,0,.09.01.09.09v.48ZM559.83,7.02c0,.08-.01.09-.09.09-.07,0-.36-.02-1.36-.02h-2.07c-.99,0-1.3.02-1.35.02-.08,0-.09-.01-.09-.09v-.48c0-.08.01-.09.09-.09.06,0,.36.02,1.35.02h2.07c1,0,1.3-.02,1.36-.02.08,0,.09.01.09.09v.48Z"/>
      <path d="M565.62,13.18c.6-.21,1.25-.44,1.96-.73-.02.17-.03.31-.03.45q0,.22-.21.3c-1.36.54-2.73.96-3.97,1.3-.24.07-.38.11-.44.17s-.09.08-.14.08c-.04,0-.08-.04-.11-.11-.09-.19-.18-.45-.23-.65.27-.02.52-.07.85-.14v-3.26c0-.57-.01-.84-.08-1.12.26.01.51.03.69.07.08.01.12.04.12.09,0,.08-.03.13-.07.2-.03.08-.05.25-.05.77v3.1c.34-.09.69-.2,1.06-.31v-5.95h-.8c-.95,0-1.25.02-1.31.02-.08,0-.09-.01-.09-.09v-.46c0-.08.01-.09.09-.09.06,0,.36.02,1.31.02h1.88c.96,0,1.25-.02,1.32-.02.08,0,.09.01.09.09v.46c0,.08-.01.09-.09.09-.07,0-.36-.02-1.32-.02h-.43v2.35h.41c.61,0,.75-.02.81-.02.08,0,.09.01.09.09v.45c0,.08-.01.09-.09.09-.07,0-.2-.02-.81-.02h-.41v2.82ZM572.48,8.33c0,.08-.01.09-.09.09-.04,0-.29-.01-.91-.02-.13,1.57-.61,3.08-1.31,4.21.59.76,1.41,1.51,2.61,2.25-.15.11-.29.26-.36.42-.06.1-.09.15-.14.15-.05,0-.09-.03-.18-.09-.99-.73-1.72-1.43-2.31-2.19-.64.8-1.62,1.61-3.07,2.29-.08.03-.13.07-.18.07s-.09-.04-.16-.17c-.1-.16-.23-.3-.34-.37,1.56-.63,2.66-1.44,3.35-2.38-.54-.85-.97-1.89-1.23-2.96-.19.4-.4.78-.64,1.17-.05.09-.09.12-.12.12s-.07-.03-.13-.1c-.12-.14-.25-.23-.35-.27.82-1.13,1.39-2.71,1.65-3.86.11-.46.15-.76.16-1.07.24.04.45.1.64.17.1.03.14.07.14.12,0,.05-.01.07-.06.13-.08.1-.14.33-.2.55-.11.41-.22.82-.36,1.24h2.19c.95,0,1.26-.02,1.31-.02.08,0,.09.01.09.09v.44ZM568.69,8.39l-.13.33c.26,1.3.62,2.38,1.2,3.3.48-.84.88-1.99,1.02-3.63h-2.09Z"/>
      <path d="M574.97,8.76c.07-.09.11-.09.18-.05.53.32,1.07.69,1.55,1.15.05.06.05.08-.01.15l-.26.31c-.11.13-.12.14-.19.08-.45-.47-1.01-.9-1.51-1.21-.08-.04-.07-.07.01-.15l.23-.27ZM575.83,14.92c-.1.23-.18.4-.19.5-.01.08-.04.13-.09.13s-.09-.01-.17-.05c-.19-.11-.33-.21-.53-.36.21-.26.33-.48.5-.81.34-.67.69-1.55,1-2.64.11.14.22.22.38.33.16.1.16.11.1.33-.3.9-.67,1.81-1,2.59M575.63,6.04c.08-.09.11-.1.18-.05.52.33,1.03.74,1.46,1.19.05.06.05.11-.03.21l-.24.3c-.09.1-.11.11-.18.05-.44-.49-1.01-.98-1.46-1.27-.07-.04-.07-.07.03-.17l.24-.25ZM584.47,11.14c0,.09-.01.1-.08.1s-.45-.02-1.56-.02h-2.32c-.35,1.16-.74,2.17-1.12,3.03,1.22-.11,2.29-.25,3.42-.43-.31-.44-.65-.86-1-1.27-.07-.07-.06-.1.06-.18l.28-.17c.08-.05.11-.05.15-.01.78.85,1.41,1.73,2.04,2.78.03.07.03.09-.08.16l-.31.2c-.14.1-.17.1-.2.02-.19-.35-.39-.69-.6-1.01-1.74.29-3.22.47-5.07.68-.31.03-.4.07-.45.1-.07.03-.11.08-.18.08s-.12-.07-.14-.14c-.07-.22-.13-.46-.18-.69.45,0,.8-.01,1.12-.03l.4-.03c.42-.95.8-1.94,1.11-3.09h-.96c-1.11,0-1.5.02-1.56.02-.08,0-.09-.01-.09-.1v-.46c0-.08.01-.09.09-.09.07,0,.45.02,1.56.02h1.46v-2h-.95c-1.08,0-1.43.02-1.48.02-.08,0-.09-.01-.09-.09v-.46c0-.08.01-.09.09-.09.05,0,.41.02,1.48.02h.95v-.79c0-.74-.01-1.04-.07-1.43.28.01.47.02.71.05.08.01.13.05.13.1,0,.07-.02.11-.06.2-.03.1-.07.4-.07,1.06v.81h1.39c1.08,0,1.44-.02,1.5-.02.08,0,.09.01.09.09v.46c0,.08,0,.09-.09.09-.05,0-.42-.02-1.5-.02h-1.39v2h1.89c1.11,0,1.5-.02,1.56-.02s.08.01.08.09v.46Z"/>
      <path d="M596.16,15.18c-.06.11-.1.15-.14.15s-.09-.02-.16-.08c-2.5-1.59-3.69-3.85-4.09-6.06-.46,2.76-1.96,4.79-4.19,6.05-.08.04-.12.08-.16.08s-.08-.06-.15-.17c-.12-.17-.26-.3-.41-.4,2.95-1.42,4.47-4.3,4.42-7.46-.01-.6-.02-.92-.08-1.31.26.01.58.04.83.09.09.02.15.07.15.13,0,.09-.03.14-.07.22-.05.12-.1.34-.1.62,0,.2,0,.38-.01.57.44,2.96,1.67,5.48,4.56,7.11-.15.12-.29.27-.39.45"/>
      <path d="M606.82,11.37c0,3.15.02,3.7.02,3.75,0,.08-.01.09-.09.09h-.53c-.08,0-.09-.01-.09-.09v-.67h-5.09v.69c0,.08-.01.09-.08.09h-.54c-.08,0-.09-.01-.09-.09,0-.07.02-.62.02-3.77v-2.12c0-2.13-.02-2.71-.02-2.77,0-.08.01-.09.09-.09.07,0,.44.02,1.53.02h3.27c1.09,0,1.46-.02,1.53-.02.08,0,.09.01.09.09,0,.07-.02.64-.02,2.5v2.4ZM606.14,7.04h-5.09v2.98h5.09v-2.98ZM606.14,10.64h-5.09v3.19h5.09v-3.19Z"/>
      <path d="M616.04,8.67c1.02,1.8,2.54,3.38,4.55,4.45-.11.11-.23.25-.32.42-.07.11-.09.17-.13.17s-.09-.03-.17-.08c-1.85-1.17-3.32-2.73-4.28-4.62,0,1.36.01,2.71.02,3.81h.79c.99,0,1.31-.02,1.38-.02.08,0,.09.01.09.09v.47c0,.08-.01.09-.09.09-.07,0-.39-.02-1.38-.02h-.78c.02,1.14.04,1.95.04,2.08,0,.08-.01.09-.09.09h-.58c-.08,0-.09-.01-.09-.09,0-.13.02-.92.03-2.08h-.67c-.99,0-1.31.02-1.36.02-.08,0-.09-.01-.09-.09v-.47c0-.08.01-.09.09-.09.06,0,.37.02,1.36.02h.68c.02-1.07.03-2.37.03-3.7-.92,1.86-2.38,3.47-4.02,4.56-.09.05-.13.09-.17.09-.06,0-.09-.05-.13-.15-.09-.17-.19-.29-.33-.4,1.65-.91,3.3-2.63,4.29-4.53h-2.33c-1.05,0-1.41.02-1.46.02-.08,0-.09-.01-.09-.09v-.5c0-.08.01-.09.09-.09.05,0,.42.02,1.46.02h2.65v-.98c0-.69,0-.92-.08-1.33.27.01.54.03.76.07.08.01.13.04.13.09,0,.09-.04.15-.06.24-.03.13-.06.32-.06.92v.99h2.87c1.06,0,1.42-.02,1.47-.02.08,0,.09.01.09.09v.5c0,.08-.01.09-.09.09-.05,0-.42-.02-1.47-.02h-2.56Z"/>
      <path d="M632.38,7.5c0,.09-.01.1-.09.1-.07,0-.41-.02-1.44-.02h-1.51v.08c0,.64.02.89.02.95,0,.08-.01.09-.09.09h-.49c-.08,0-.09-.01-.09-.09,0-.07.02-.31.02-.95v-.08h-2.3v.09c0,.63.02.87.02.93,0,.08-.01.09-.09.09h-.5c-.08,0-.09-.01-.09-.09,0-.07.02-.31.02-.93v-.09h-1.46c-1.03,0-1.39.02-1.44.02-.08,0-.09-.01-.09-.1v-.46c0-.08.01-.09.09-.09.05,0,.41.02,1.44.02h1.46c0-.46,0-.88-.06-1.18.29.01.49.02.67.05.1.02.14.05.14.11,0,.04-.02.08-.05.15-.04.11-.07.36-.07.81v.04h2.3c0-.47,0-.89-.07-1.19.29.01.48.03.68.06.07.01.12.04.12.1s-.02.09-.04.15c-.03.1-.07.35-.07.84v.03h1.51c1.03,0,1.38-.02,1.44-.02.08,0,.09.01.09.09v.46ZM632.38,11.91c0,.08-.01.09-.09.09-.07,0-.41-.02-1.45-.02h-3.91c-.32.83-.68,1.62-1.06,2.32,1.44-.11,2.96-.27,4.14-.43-.27-.32-.56-.64-.88-.96-.06-.05-.07-.09.07-.17l.24-.15c.11-.07.13-.08.2-.02.84.8,1.55,1.63,2.12,2.49.05.07.03.1-.08.17l-.32.21c-.06.04-.11.07-.14.07s-.04-.02-.08-.07c-.21-.35-.45-.7-.71-1.06-1.87.29-4.19.55-6.17.69-.32.03-.37.06-.45.09-.08.03-.12.08-.18.08-.08,0-.11-.03-.14-.13-.07-.22-.12-.46-.18-.7.45.01.8,0,1.13-.01l.65-.03c.41-.78.78-1.6,1.08-2.38h-1.71c-1.05,0-1.39.02-1.45.02-.08,0-.09-.01-.09-.09v-.49c0-.08.01-.09.09-.09.07,0,.41.02,1.45.02h6.37c1.05,0,1.39-.02,1.45-.02.08,0,.09.01.09.09v.49ZM631.13,9.92c0,.07-.01.08-.09.08-.07,0-.44-.02-1.55-.02h-3.85c-1.11,0-1.49.02-1.54.02-.09,0-.1-.01-.1-.08v-.5c0-.08.01-.09.1-.09.05,0,.43.02,1.54.02h3.85c1.11,0,1.49-.02,1.55-.02.08,0,.09.01.09.09v.5Z"/>
      <path d="M635.89,12.06c0-.41.02-.94.03-1.35-.27.3-.55.59-.87.88-.06.05-.1.09-.13.09-.05,0-.08-.04-.11-.12-.08-.18-.14-.29-.25-.4.97-.81,1.54-1.57,2.02-2.51.09-.17.16-.37.21-.54.21.1.37.2.54.31.08.05.12.1.12.15s-.03.09-.1.13c-.07.04-.17.15-.25.32-.16.3-.35.6-.57.91v4.09c0,.96.02,1.36.02,1.42,0,.08-.01.09-.09.09h-.51c-.08,0-.09-.01-.09-.09,0-.06.02-.46.02-1.42v-1.97ZM637.39,6.3c-.08.04-.18.13-.28.26-.5.7-1.1,1.35-1.95,2.04-.08.05-.12.09-.15.09-.04,0-.08-.05-.13-.15-.09-.17-.18-.28-.29-.37.84-.56,1.46-1.23,1.96-1.96.14-.21.21-.36.24-.5.22.1.42.21.58.32.08.05.11.1.11.15s-.03.09-.1.12M638.57,10.43c-.06.09-.09.23-.11.43-.11.84-.32,1.85-.69,2.75-.03.1-.06.13-.1.13-.03,0-.08-.02-.14-.05-.15-.08-.28-.11-.43-.13.46-1,.66-1.95.75-2.7.02-.25.03-.56.01-.78.25.02.47.06.63.09.11.02.14.05.14.12,0,.05-.02.09-.05.14M641.45,8.68c0,.08-.01.09-.09.09-.06,0-.3-.02-1.15-.02h-.33v4.75c0,1.28.02,1.84.02,1.9,0,.08-.01.09-.09.09h-.51c-.08,0-.09-.01-.09-.09,0-.07.02-.63.02-1.89v-4.76h-.34c-.85,0-1.09.02-1.16.02-.08,0-.09-.01-.09-.09v-.45c0-.08.01-.09.09-.09.07,0,.31.02,1.16.02h.34v-.94c0-.73-.01-1.04-.08-1.42.29.01.5.03.7.07.08.01.13.04.13.09,0,.07-.03.11-.06.2-.04.13-.07.36-.07,1.06v.95h.33c.85,0,1.09-.02,1.15-.02.08,0,.09.01.09.09v.45ZM640.62,6.2c.09-.04.11-.06.15,0,.29.34.48.65.69,1.07.03.07.02.1-.07.15l-.22.14c-.13.09-.15.1-.2,0-.19-.41-.41-.77-.66-1.09-.06-.07-.04-.09.06-.14l.24-.13ZM640.96,10.07c.1-.03.12-.02.14.06.33.98.53,1.88.69,2.89.01.08,0,.1-.11.14l-.31.11c-.14.05-.18.05-.19-.04-.13-1.06-.33-1.98-.63-2.93-.02-.08-.02-.09.1-.13l.3-.1ZM644.68,9.34c0,.09-.01.1-.09.1-.05,0-.25-.02-.98-.02h-.06v3.27c0,.76.01,1.26.01,1.73,0,.36-.08.65-.3.8-.22.14-.57.18-1.32.16q-.22,0-.26-.23c-.03-.15-.11-.33-.18-.46.39.04.71.07.99.07.25-.01.41-.11.41-.45v-4.89h-.3c-.71,0-.92.02-.98.02-.09,0-.1-.01-.1-.1v-.44c0-.08.01-.09.1-.09.06,0,.26.02.98.02h1c.72,0,.92-.02.98-.02.08,0,.09.01.09.09v.44ZM644.43,7.06c0,.08-.01.09-.08.09s-.23-.02-.86-.02h-.71c-.64,0-.8.02-.86.02-.08,0-.09-.01-.09-.09v-.46c0-.08.01-.09.09-.09.06,0,.22.02.86.02h.71c.63,0,.79-.02.86-.02s.08.01.08.09v.46Z"/>
      <path d="M654.48,8.34c-.48,1.78-1.18,3.1-2.19,4.13,1.08.91,2.51,1.72,4.4,2.31-.13.13-.24.33-.33.51-.07.13-.09.18-.16.18-.03,0-.09-.01-.16-.04-1.83-.69-3.21-1.54-4.26-2.46-1.07.95-2.44,1.75-4.23,2.42-.08.02-.13.04-.17.04-.07,0-.09-.04-.15-.17-.09-.17-.21-.34-.34-.44,2-.67,3.33-1.42,4.39-2.34-1.06-1.09-1.73-2.38-2.24-4.13h-.38c-1.04,0-1.4.02-1.45.02-.08,0-.09-.01-.09-.09v-.51c0-.08.01-.09.09-.09.06,0,.41.02,1.45.02h2.74v-.75c0-.56-.01-.9-.09-1.21.28.01.53.02.77.05.08.01.13.05.13.1,0,.08-.03.13-.06.21-.06.11-.06.26-.06.84v.76h2.91c1.04,0,1.4-.02,1.45-.02.09,0,.1.01.1.09v.51c0,.08-.01.09-.1.09-.06,0-.41-.02-1.45-.02h-.51ZM649.72,8.34c.47,1.53,1.06,2.66,2.07,3.66.96-.97,1.54-2.11,1.95-3.66h-4.02Z"/>
      <path d="M660.86,10.99c0-.44.02-1.11.03-1.67-.44.62-.92,1.2-1.46,1.73-.07.07-.12.11-.16.11-.05,0-.09-.04-.13-.14-.08-.18-.18-.31-.29-.42,1.3-1.19,2.24-2.54,2.84-4.03.11-.27.18-.53.2-.73.28.08.46.15.67.25.09.04.12.08.12.13s-.03.1-.1.14c-.08.06-.14.17-.25.42-.23.52-.49,1.04-.8,1.56v5.42c0,1.16.02,1.65.02,1.71,0,.08-.01.09-.09.09h-.53c-.09,0-.1-.01-.1-.09,0-.05.02-.55.02-1.71v-2.78ZM664.42,13.73c0,.53.09.73.43.82.27.08.69.08,1.38.08s1.07-.07,1.34-.3c.22-.19.36-.64.42-1.63.13.11.3.21.48.29.2.08.19.09.16.29-.1.92-.26,1.39-.63,1.64-.37.27-1,.36-1.81.36-.88,0-1.44-.01-1.81-.14-.39-.14-.65-.43-.65-1.16v-6.82c0-.56-.01-.89-.07-1.23.29.01.51.03.73.07.1.01.14.04.14.1,0,.08-.02.12-.06.2-.05.11-.06.26-.06.84v3.2c.9-.56,1.78-1.24,2.61-2.09.15-.17.33-.39.43-.58.21.13.42.3.57.44.08.07.1.11.1.17,0,.07-.08.12-.17.15-.13.04-.31.21-.57.46-.79.76-1.75,1.45-2.97,2.21v2.64Z"/>
      <path d="M673.13,10.78c.39-.15.78-.34,1.2-.56-.02.13-.03.26-.03.42.01.22,0,.24-.21.34-.32.15-.64.3-.96.44v1.32c0,.72.02,1.24.02,1.66,0,.53-.09.71-.31.88-.21.14-.41.2-1.07.19-.22,0-.23-.01-.27-.21-.04-.19-.11-.35-.2-.48.24.03.42.04.76.04s.43-.13.43-.53v-2.61c-.21.09-.42.17-.63.24-.24.09-.35.16-.41.21-.03.03-.09.07-.13.07s-.08-.02-.11-.1c-.08-.19-.14-.41-.2-.64.3-.06.57-.13.98-.26l.49-.17v-2.46h-.33c-.75,0-.96.02-1.01.02-.08,0-.09-.01-.09-.09v-.46c0-.08.01-.09.09-.09.06,0,.27.02,1.01.02h.33v-.9c0-.66-.01-.98-.08-1.33.26.01.48.03.7.06.08.01.13.05.13.1,0,.08-.03.13-.07.21-.06.12-.06.32-.06.95v.92h.06c.74,0,.95-.02,1.01-.02.08,0,.09.01.09.09v.46c0,.08-.01.09-.09.09-.06,0-.27-.02-1.01-.02h-.06v2.21ZM678.46,10.57c.1.65.26,1.25.49,1.8.36-.25.63-.49.93-.78.13-.12.24-.25.34-.41.17.13.31.26.43.4.04.04.06.08.06.11,0,.07-.03.1-.11.12-.1.02-.17.07-.35.22-.33.3-.64.53-1.07.83.45.86,1.1,1.57,1.96,2.07-.13.1-.23.21-.33.36-.07.11-.1.15-.15.15-.03,0-.09-.03-.18-.1-1.54-1.12-2.32-2.86-2.61-4.77h-.88v3.71c.51-.13.99-.27,1.64-.51-.04.12-.04.24-.04.39,0,.23,0,.22-.21.29-.74.24-1.47.45-2.27.64-.24.05-.36.13-.44.19-.03.02-.08.07-.14.07-.04,0-.09-.03-.12-.11-.07-.17-.13-.4-.2-.63.33-.03.71-.09,1.14-.18v-3.85h-.91c-.03.55-.08,1.04-.13,1.49-.14,1.03-.49,2.19-1.12,3.18-.05.08-.08.12-.11.12-.02,0-.07-.04-.13-.11-.14-.15-.29-.25-.41-.31.66-.84,1.01-2.02,1.15-3.11.13-.97.17-1.95.17-3.09,0-1.64-.02-2.32-.02-2.38,0-.08.01-.09.09-.09.05,0,.43.02,1.48.02h2.71c1.06,0,1.41-.02,1.46-.02.08,0,.09.01.09.09v.47c0,.08-.01.09-.09.09-.06,0-.41-.02-1.46-.02h-3.62v1.84c0,.44-.01.86-.02,1.25h3.71c1.05,0,1.39-.02,1.44-.02.09,0,.1.01.1.09v.45c0,.08-.01.09-.1.09-.06,0-.4-.02-1.44-.02h-.73ZM680.04,8.59c0,.08,0,.09-.08.09-.07,0-.32-.02-1.17-.02h-1.35c-.86,0-1.11.02-1.17.02-.08,0-.09-.01-.09-.09v-.44c0-.08.01-.09.09-.09.05,0,.31.02,1.17.02h1.35c.85,0,1.1-.02,1.17-.02.08,0,.08.01.08.09v.44Z"/>
      <path d="M693.04,13.21c0,.08-.01.09-.09.09-.05,0-.4-.02-1.4-.02h-6.93c-1,0-1.34.02-1.4.02-.08,0-.09-.01-.09-.09v-.43c0-.08.01-.09.09-.09.04,0,.25.02.89.02l-.15-5.02c-.02-.53-.04-.86-.11-1.14.21.04.35.1.54.19.34-.12.62-.24.92-.41.17-.09.31-.19.41-.29.19.13.35.27.46.4.05.04.06.08.06.12s-.08.09-.15.09c-.07,0-.19.04-.32.1-.42.2-.79.35-1.22.51l.04,1.31h.58c.34,0,.46-.02.53-.02.08,0,.09.01.09.09v.42c0,.08-.01.09-.09.09-.07,0-.19-.02-.53-.02h-.57l.06,1.4h.53c.33,0,.45-.02.52-.02.08,0,.09.01.09.09v.41c0,.08-.01.09-.09.09-.07,0-.19-.01-.52-.01h-.52l.05,1.65h1.54v-4.87c0-1.03-.02-1.49-.02-1.55,0-.08.01-.09.09-.09.05,0,.32.02,1.14.02h1.31c.82,0,1.09-.02,1.14-.02.08,0,.09.01.09.09,0,.05-.02.52-.02,1.55v4.87h1.58l.07-1.69h-.53c-.36,0-.51.02-.57.02-.08,0-.09-.01-.09-.09v-.42c0-.08.01-.09.09-.09.06,0,.21.02.57.02h.55l.06-1.41h-.6c-.35,0-.51.02-.56.02-.08,0-.09-.01-.09-.09v-.42c0-.08.01-.09.09-.09.05,0,.21.02.56.02h.63l.06-1.48h-.73c-.42,0-.53.02-.58.02-.08,0-.09-.01-.09-.09v-.43c0-.08.01-.09.09-.09.06,0,.17.02.66.02h.52c.5,0,.62-.02.68-.02.08,0,.1.02.1.1-.04.41-.06.81-.08,1.23l-.19,4.94c.52,0,.73-.02.77-.02.08,0,.09.01.09.09v.43ZM686.79,14.11c-.1.02-.22.09-.34.18-.65.49-1.36.88-2.35,1.26-.07.03-.12.04-.15.04-.07,0-.09-.05-.15-.19-.08-.14-.19-.26-.31-.36,1-.33,1.7-.64,2.38-1.12.13-.1.28-.23.41-.39.21.1.4.2.55.32.08.06.1.09.1.13,0,.05-.03.1-.12.12M689.43,6.77h-2.61v5.94h2.61v-5.94ZM689.09,8.19c0,.08-.01.08-.09.08-.06,0-.16-.01-.64-.01h-.48c-.47,0-.57.01-.63.01-.08,0-.09,0-.09-.08v-.4c0-.08.01-.09.09-.09.06,0,.15.02.63.02h.48c.48,0,.58-.02.64-.02.08,0,.09.01.09.09v.4ZM688.91,10.88c0,.57.02.76.02.81,0,.08-.01.09-.09.09-.06,0-.14-.02-.54-.02h-.37c-.4,0-.47.02-.53.02-.08,0-.09-.01-.09-.09,0-.05.02-.24.02-.81v-.79c0-.58-.02-.77-.02-.84s.01-.08.09-.08c.05,0,.13.01.53.01h.37c.4,0,.47-.01.54-.01.08,0,.09.01.09.08s-.02.25-.02.84v.79ZM688.45,9.67h-.65v1.61h.65v-1.61ZM689.69,13.58c.09-.07.11-.05.18-.01.8.68,1.73,1.1,2.89,1.41-.12.1-.23.25-.31.39-.07.12-.09.18-.15.18-.03,0-.09-.02-.17-.04-.99-.31-1.85-.75-2.77-1.55-.07-.05-.07-.09.03-.15l.3-.21Z"/>
      <path d="M705.09,10.09c-.07.12-.09.18-.14.18-.03,0-.08-.02-.15-.07-1.91-.85-3.48-2.01-4.62-3.65-1.14,1.67-2.62,2.77-4.42,3.68-.08.04-.13.07-.17.07-.06,0-.08-.04-.14-.17-.09-.14-.19-.26-.34-.37,1.99-.83,3.58-2.15,4.48-3.57.15-.26.22-.4.29-.62.25.03.48.08.69.14.11.03.15.07.15.13,0,.04-.01.09-.08.12-.05.02-.09.05-.12.08,1.32,1.77,2.86,2.84,4.89,3.61-.14.14-.23.26-.32.44M704.58,11.85c0,.08-.01.09-.09.09-.07,0-.42-.02-1.52-.02h-3.37c-.33.82-.7,1.68-1.14,2.54,1.32-.09,2.81-.23,4.07-.37-.32-.41-.66-.8-1.03-1.21-.07-.07-.04-.1.07-.15l.32-.18c.09-.04.12-.04.17,0,.8.81,1.47,1.69,2.11,2.61.04.05.04.1-.05.17l-.34.23c-.05.03-.1.05-.12.05-.03,0-.06-.02-.09-.07-.21-.32-.41-.63-.63-.92-1.94.25-4.14.46-6.06.6-.22.02-.36.04-.42.1-.04.04-.09.07-.14.07-.07,0-.1-.05-.12-.12-.07-.22-.12-.48-.17-.74.34.02.71.02,1.2,0,.15,0,.31-.01.47-.02.47-.89.86-1.76,1.16-2.59h-1.32c-1.09,0-1.45.02-1.51.02-.09,0-.1-.01-.1-.09v-.48c0-.08.01-.09.1-.09.05,0,.42.02,1.51.02h5.45c1.1,0,1.45-.02,1.52-.02.08,0,.09.01.09.09v.48ZM702.5,9.83c0,.08-.01.09-.09.09-.06,0-.36-.02-1.29-.02h-1.78c-.92,0-1.23.02-1.29.02-.08,0-.09-.01-.09-.09v-.47c0-.08.01-.09.09-.09.05,0,.36.02,1.29.02h1.78c.92,0,1.23-.02,1.29-.02.08,0,.09.01.09.09v.47Z"/>
      <line class="cls-2" x1="515.24" y1="16.22" x2="515.24" y2="6.22"/>
      <path class="cls-1" d="M43.6,15.65c-.06.02-.11.04-.14.09-.01.02-.06.02-.09.03-.03,0-.06,0-.08,0-.03,0-.05.01-.07.03-.06.05-.12.09-.16.15-.05.07-.12.08-.17.14-.01.01-.03.02-.04.02-.06.02-.11.04-.16.07-.03.02-.07.02-.11.02-.05,0-.1,0-.14.02-.05.02-.1.03-.16.02-.09-.02-.16.01-.22.06-.04.03-.08.04-.13.05-.06,0-.12.02-.18.03-.03,0-.05,0-.09-.01-.03.05-.06.11-.06.18,0,.04-.02.05-.07.04-.05-.01-.21,0-.23.03-.05.07-.11.07-.18.07-.05,0-.11.02-.15.05-.07.05-.15.04-.22.06-.08.02-.16.02-.23.07-.04.03-.1.03-.13.08-.01.01-.05.01-.07.02-.11.02-.21.05-.32.07-.01,0-.03.01-.04.02-.04.05-.1.06-.15.06-.11,0-.22,0-.32,0-.05,0-.1,0-.15,0-.06,0-.12-.02-.19-.03-.17-.04-.35-.07-.53-.12-.09-.03-.17-.07-.25-.11-.02,0-.03-.02-.05-.02-.07,0-.14,0-.2-.06,0,0-.02,0-.03,0,0,0-.02,0-.02,0-.06-.02-.13-.04-.18-.07-.06-.04-.12-.09-.18-.12-.06-.04-.1-.08-.14-.13-.01-.02-.03-.04-.05-.04-.1,0-.17-.08-.26-.1-.04,0-.08-.04-.11-.07-.08-.07-.16-.13-.26-.17-.08-.03-.15-.09-.22-.14-.09-.07-.18-.14-.28-.19-.05-.02-.08-.07-.12-.1-.07-.06-.14-.12-.21-.18-.05-.04-.12-.07-.17-.11-.05-.04-.1-.08-.16-.12-.02-.01-.04-.03-.06-.04-.05-.01-.08-.04-.1-.08-.02-.04-.07-.07-.11-.1-.08-.06-.17-.1-.25-.16-.07-.04-.13-.09-.19-.14-.04-.04-.08-.08-.11-.13-.05-.06-.1-.12-.16-.17-.11-.08-.21-.15-.34-.2-.05-.02-.09-.07-.13-.11-.04-.04-.08-.08-.11-.13-.04-.05-.07-.1-.14-.11-.01,0-.03-.02-.04-.03-.06-.05-.1-.11-.18-.14-.02,0-.03-.02-.04-.04-.03-.06-.09-.1-.15-.13-.06-.03-.11-.06-.15-.11-.1-.14-.24-.23-.37-.34-.05-.04-.11-.09-.14-.15-.02-.04-.07-.06-.11-.09-.02-.01-.03-.02-.04-.03-.09-.14-.22-.23-.33-.34-.08-.08-.2-.11-.29-.19-.01-.01-.04-.02-.05-.03-.06-.06-.12-.12-.19-.17-.08-.06-.17-.12-.25-.18-.02-.02-.05-.01-.07,0-.07.06-.14.12-.19.19-.01.02-.03.03-.05.04-.02.02-.05.03-.07.05-.04.03-.07.08-.13.07-.01,0-.04.02-.04.04-.03.05-.07.09-.11.13-.04.04-.07.09-.1.13-.03.04-.06.07-.09.1-.07.06-.14.12-.19.2,0,0,0,.01-.01.01-.09.04-.11.13-.14.21-.01.03-.03.05-.06.05-.08,0-.12.07-.17.12-.03.02-.05.04-.07.06-.04.03-.07.06-.11.09-.03.03-.06.06-.09.08,0,0-.01,0-.02.01-.09.1-.22.16-.3.27,0,.01-.02.02-.04.03-.03.01-.04.03-.04.06-.01.07-.06.09-.12.11-.03.01-.07.01-.09.03-.04.02-.08.05-.1.09-.01.04-.04.07-.07.09-.04.03-.09.05-.11.09,0,0-.02.01-.04.02-.05.02-.09.04-.14.05-.03,0-.06,0-.09.01-.04,0-.07,0-.08.05-.01.05-.06.04-.09.06-.05.03-.11.04-.16.07-.02,0-.05.01-.06.03-.04.04-.09.05-.14.06-.08.02-.16.05-.21.11-.03.03-.05.05-.09.06-.02,0-.05.02-.06.04-.03.04-.08.05-.12.05-.07,0-.12.02-.17.06-.05.04-.12.06-.18.08-.03.01-.06.02-.08.04-.03.04-.07.06-.12.05-.06,0-.12.01-.17.05-.05.03-.12.04-.19.05-.04,0-.06.02-.09.04-.01.02-.04.03-.06.03-.04,0-.09,0-.13,0-.07,0-.13.02-.18.05-.02.01-.04.02-.07.03-.02,0-.04,0-.04.02-.03.06-.1.06-.16.07-.04.01-.08.04-.12.06-.01,0-.03.02-.04.02-.1,0-.19.07-.28.08-.1.01-.2.02-.3.03-.03,0-.06,0-.08,0-.06,0-.12,0-.18.03-.06.04-.12.03-.18,0-.06-.03-.12-.05-.18-.05-.02,0-.05,0-.06-.02-.06-.06-.12-.06-.2-.05-.06,0-.12-.03-.18-.04-.03,0-.05-.02-.07-.03-.03-.01-.05-.03-.08-.05-.01,0-.02-.03-.04-.03-.08,0-.15-.06-.23-.08-.02,0-.04,0-.04-.02-.04-.06-.1-.08-.17-.08-.04,0-.06-.02-.07-.06-.02-.12-.03-.24,0-.37,0-.04,0-.08-.02-.12-.01-.04-.05-.07-.08-.09-.07-.05-.14-.1-.14-.2,0-.03-.02-.06-.04-.09-.04-.07-.04-.07-.03-.14.04-.03.08-.06.12-.09-.02-.05,0-.09.04-.12.05-.03.03-.09.05-.13,0-.02,0-.04.02-.06.05-.06.06-.13.06-.21,0-.03,0-.06,0-.1,0-.02.02-.03.03-.05.06.06.02.17.12.2.03-.05.05-.09.08-.14.01-.03.03-.05.03-.08,0-.07.03-.12.06-.18.02-.04.02-.07-.01-.1-.03-.03-.02-.06,0-.09.01-.03.04-.04.07-.04.04,0,.05.02.05.05,0,.08.06.13.1.19.03.04.07.04.11,0,.04-.03.07-.07.1-.1.03-.03.03-.06,0-.09-.01-.02-.02-.03-.03-.04,0,0,0,0,0-.01.12-.02.22.01.31.1.02.02.03.03.04.05.05.03.06.07.05.12-.01.06,0,.07.07.1-.03-.08,0-.14.06-.19.05-.04.07-.04.09.01.01.02.02.05.04.07.03.06.08.09.14.11.03.02.09,0,.13,0,.04,0,.07-.02.11-.01.02,0,.04-.02.06-.03.02,0,.04.02.06.03.03-.02.06-.05.1-.02,0,0,.02,0,.02,0,.15-.04.31-.05.47-.04.06,0,.12,0,.17-.03.05-.02.1-.03.15-.02.04,0,.08,0,.11,0,.09-.02.18-.02.25-.07.02-.01.05,0,.08,0,0,0,.01-.02.02-.02.12-.03.22-.13.36-.13.08,0,.17-.02.23-.1,0-.01.02-.02.03-.03.06-.03.13-.07.19-.1.02-.01.04-.03.06-.04.04-.02.07-.05.11-.05.12-.01.22-.07.33-.13.03-.02.05-.03.08-.04.03-.02.06-.04.1-.06.08-.05.15-.12.22-.18.03-.02.07-.02.11-.04.05-.03.12-.04.15-.1,0,0,0,0,.01,0,.09-.01.14-.09.21-.14.01-.01.03-.02.04-.03.01,0,.03,0,.04-.02.04-.05.09-.08.14-.1.04-.02.07-.05.11-.06.08-.02.13-.09.22-.09.02,0,.05-.02.06-.04.05-.05.1-.09.16-.13.04-.03.08-.06.14-.07.04,0,.06-.03.09-.07.04-.06.07-.13.13-.18.1-.08.18-.18.27-.27.03-.03.03-.07-.02-.1-.05-.04-.09-.09-.15-.12-.07-.03-.09-.1-.14-.14-.04-.04-.07-.08-.1-.13-.02-.04-.04-.07-.08-.1-.02,0-.02-.05-.03-.07,0-.02,0-.05,0-.07,0-.04-.02-.07-.06-.09-.07-.03-.13-.07-.17-.13-.02-.03-.07-.05-.1-.07-.06-.04-.12-.07-.17-.11-.03-.02-.05-.04-.08-.07-.03-.03-.06-.06-.09-.08-.07-.04-.13-.1-.21-.12-.01,0-.03-.01-.03-.02-.03-.04-.07-.06-.13-.07-.04,0-.06-.04-.06-.07-.01-.1-.07-.17-.12-.26-.01-.01-.02-.03-.02-.05,0-.05.04-.07.08-.03.04.04.09,0,.13.02.02-.06.01-.11-.02-.16-.04-.07,0-.13.02-.19.01-.03.07-.04.1-.06.03-.02.06-.03.09-.05.05-.05.11-.08.18-.1.03,0,.07-.01.09-.03.05-.04.1-.04.15-.04.12,0,.24,0,.36,0,.04,0,.08,0,.12,0,.02,0,.03.01.04.02.02.03.04.05.07.06.03.01.04.03.04.06,0,.04.02.07.05.11.02.02.03.05.04.08.01.03.01.07.03.1.01.04.04.06.08.06.05,0,.1.02.15-.02.02-.02.06,0,.08.02.03.04.06.07.08.11,0,0,.02.02.03.02.06,0,.07.04.1.07.03.03.07.06.11.08.08.05.15.1.23.14.05.03.09.05.14.07.04.01.07.03.1.07.05.07.15.1.21.08.01,0,.03,0,.04-.02.04-.04.08-.08.12-.13.05-.06.08-.14.15-.19,0,0,.01-.01.02-.02,0-.09.08-.14.12-.21.05-.11.14-.17.23-.25.01,0,.03-.01.03-.03.05-.12.13-.23.2-.35.03-.05.06-.07.11-.07.06,0,.06-.01.06-.07,0-.04-.01-.08-.01-.12,0-.03,0-.06.01-.09.01-.07.02-.14.07-.21.01-.02.01-.05.01-.08,0-.04,0-.07.05-.09.01,0,.03-.03.03-.05,0-.06.01-.13.01-.19,0-.07-.03-.09-.1-.09-.11,0-.23,0-.34,0-.11,0-.22,0-.33,0-.11,0-.22,0-.33,0-.06,0-.12.01-.18.03-.07.02-.15.04-.23.03-.04,0-.09,0-.13.01-.02,0-.04,0-.05.02-.06.07-.14.06-.22.07-.04,0-.09,0-.13,0-.08,0-.16.01-.25.06-.07.03-.16.03-.24.04-.03,0-.07,0-.1,0-.04,0-.07,0-.08.04-.01.03-.04.04-.07.04-.03,0-.06,0-.09,0-.06,0-.12.01-.17.05-.04.03-.08.04-.13.04-.05,0-.1.01-.15.02,0,0-.02,0-.02,0-.1.08-.23.06-.34.07-.05,0-.1,0-.16.01-.01,0-.03,0-.04,0-.07.03-.13.07-.2.1,0,0-.01.02-.02.03-.03.04-.08.07-.13.07-.04,0-.07,0-.11,0-.04,0-.07.01-.09.05-.02.04-.05.04-.09.04-.02,0-.05,0-.07,0-.09,0-.12.07-.18.1-.02.01-.04.03-.06.04-.09.02-.18.05-.25.12-.02.02-.04.03-.06.05-.01.01-.02.03-.04.03-.09.02-.14.08-.19.15,0,.01-.02.02-.03.02-.05,0-.1,0-.15,0-.02,0-.05-.01-.06-.03-.03-.05-.07-.06-.12-.05-.06,0-.1,0-.14-.05-.02-.04-.07-.03-.11-.03-.06,0-.12,0-.17-.05-.02-.02-.06-.02-.08-.02-.06,0-.09-.02-.12-.07-.03-.05-.04-.1-.03-.17.01-.06,0-.07-.05-.1-.06-.03-.07-.09-.02-.12.06-.03.06-.08.06-.13,0,0,0-.02,0-.02.08-.08.16-.15.23-.22.02-.02.02-.04.02-.06,0-.05.02-.08.06-.1.05-.03.11-.05.12-.12.08-.03.07-.11.09-.17.03-.08.14-.13.22-.13.04,0,.06,0,.08-.03.03-.04.07-.07.11-.1.02-.01.05-.01.08-.01.11,0,.23,0,.34,0,.05,0,.1-.01.13-.06.01-.02.05-.03.08-.04.04-.01.08-.02.13-.03.04,0,.09-.01.13-.02.06,0,.12-.02.17-.06.03-.02.07-.03.1-.03.11,0,.23,0,.34-.01.06,0,.12-.02.18-.02,0,0,.01,0,.01,0,.03-.06.09-.05.15-.05.12,0,.25,0,.36-.07.04-.02.1-.02.15-.03.06,0,.13-.04.19-.03.01,0,.03,0,.04-.01.02-.04.06-.03.1-.04.04,0,.09-.01.13-.01.07,0,.11-.02.17-.07.08-.07.18-.14.31-.08.01,0,.03,0,.04,0,.04,0,.08,0,.12.01.03,0,.07-.03.11-.03.1,0,.17-.04.23-.11.02-.02.03-.05.03-.07,0-.13,0-.27,0-.4,0-.17,0-.34-.01-.52,0-.02,0-.05.02-.06.04-.03.03-.07.03-.12,0-.06,0-.12.06-.16.02-.01.03-.05.03-.08,0-.04.03-.06.07-.08.07-.04.15-.05.2-.12,0,0,.02-.01.03-.02.07-.02.12-.06.18-.09.07-.03.12-.07.16-.13.01-.02.04-.03.06-.03.13-.02.27-.02.4-.01.02,0,.04.01.05.02.04.04.09.05.15.05.13,0,.26,0,.39,0,.04,0,.07,0,.09.04,0,0,.02.02.02.02.06,0,.07.05.1.07.08.05.08.14.14.2.01.01.02.03.03.04.07.03.06.09.06.14,0,.06,0,.11.06.14.01,0,.02.03.02.05,0,.06,0,.11.01.17,0,.22,0,.44,0,.66,0,.09.02.11.12.11.04,0,.08,0,.13,0,.08,0,.16.03.23.04.13.02.25.01.38.01.13,0,.27-.02.4.02.02,0,.04,0,.06,0,.06,0,.12,0,.18.03.04.03.1.02.15.03.06,0,.11.02.16.05.03.02.08.03.13.03.08.01.15.02.22.06.04.02.09.03.14.03.07,0,.14.02.21.05.04.02.08.02.12.03.06,0,.12,0,.18.01.03,0,.05,0,.07.02.07.06.16.05.24.05.06,0,.12,0,.18.05.03.02.08.03.12.03.07,0,.13.01.18.06.02.02.04.02.07.03.07.01.14.02.21.06.03.02.07.02.1.02.07.01.15.02.22.03.07.01.15.02.22.04.03,0,.06.01.08.02.04.03.09.04.14.04.01,0,.02,0,.03,0,.08.05.17.06.24.11.06.04.11.05.18.06.01,0,.03,0,.04,0,.13-.03.24.03.34.1.06.04.14.06.18.12,0,.01.03.01.05.02.06.02.07.03.07.09,0,.04,0,.09-.01.13,0,.04,0,.07.05.09.04.03.08.06.12.1.02.02.03.06.03.1,0,.06,0,.13-.01.19,0,.04-.03.06-.07.07-.05,0-.1.02-.12.07,0,0,0,0,0,0-.09,0-.14.09-.22.1-.02,0-.04.02-.06.03s-.04.02-.06.03c-.06.02-.09.06-.07.12.02.07.01.08-.06.09-.05,0-.08.02-.11.06-.02.03-.05.06-.09.09-.01.01-.03.02-.05.02-.04,0-.08,0-.12,0-.01,0-.03,0-.04,0-.15-.08-.31-.1-.47-.09-.03,0-.05-.01-.07-.03-.16-.16-.1-.14-.34-.14-.02,0-.05,0-.07,0-.04,0-.07,0-.09-.03-.01-.01-.02-.03-.03-.04-.13-.02-.22-.14-.36-.14-.05-.04-.12-.03-.18-.05-.03,0-.06-.02-.08-.03-.06-.04-.12-.05-.18-.04-.07,0-.13,0-.2-.01-.03,0-.05-.03-.07-.05-.02-.02-.04-.03-.05-.05-.04.02-.07.04-.11.05-.04.01-.08.02-.11-.02,0-.01-.03-.02-.04-.01-.08.03-.14-.02-.19-.05-.06-.03-.13-.05-.19-.07-.04,0-.07-.03-.11-.04-.03-.01-.05-.02-.07-.03-.05-.01-.09-.03-.14-.04-.05-.02-.1-.01-.15,0-.02.01-.04.02-.07.02-.09.01-.19.01-.28.03-.06.02-.12.07-.19.08-.01,0-.02.04-.02.06,0,.04-.02.08-.06.1-.01.01-.02.03-.03.04-.02.03-.04.06-.05.09-.01.02-.03.04-.03.06,0,.03-.02.06-.05.08-.02.01-.03.04-.04.07-.01.06-.01.12-.07.16-.01,0-.01.03-.02.05-.02.07-.03.14-.06.2-.06.07-.08.16-.15.23,0,0,0,0,0,0,0,.08-.08.13-.11.2-.03.07-.07.13-.11.2,0,.01-.03.02-.04.03-.03.03-.06.06-.09.1-.02.03-.04.07-.07.09-.1.09-.15.2-.2.31-.03.07-.07.13-.11.2-.03.04-.07.06-.1.1-.04.04-.08.09-.1.14-.04.07-.08.13-.14.19-.04.04-.05.08,0,.12.03.03.06.05.1.07.05.03.09.04.13.08.04.04.09.06.13.08.08.05.16.11.21.21,0,.01.02.02.03.03.07.04.14.07.2.11.04.03.07.08.11.11.08.06.15.13.25.15.03,0,.05.03.08.04.07.05.15.09.22.14.01,0,.02.02.04.02.08.01.13.08.19.12.04.02.08.04.12.06.02.01.03.03.05.04.03.02.05.04.08.05.08.05.16.1.21.18.01.02.03.03.05.04.13.02.24.07.35.13.02,0,.04.01.06.02.04.02.08.04.11.06.06.03.13.07.2.1.04.02.1.01.13.06,0,0,.02.01.03.01.07,0,.12.03.17.06.07.06.16.09.24.13.05.02.1.04.15.07.08.06.18.09.28.12.02,0,.04,0,.06.02.02,0,.04.01.05.03.03.04.07.05.11.06.09.02.11.05.11.15,0,.07.02.09.08.12.07.03.14.04.21.08.07.04.14.05.2.08.09.05.18.06.27.11,0,0,.02.01.02.01.09,0,.16.05.24.08.05.02.09.04.13.07,0,0,0,0,.01,0,.1.01.18.09.27.12.02,0,.03.01.04.02.04.03.09.04.14.06.05.01.1.03.15.06.06.04.13.08.21.09.02,0,.05,0,.06.02.05.04.12.06.18.09.1.05.2.09.31.12.03,0,.05.03.07.04.03.01.06.03.1.04.04.01.07.02.09.06.02.03.06.05.09.07.09.06.19.05.29.05.02,0,.05,0,.06,0,.06.07.16.05.23.09,0,0,.02,0,.02,0,.06-.01.1,0,.16.03.05.02.11.02.17.02.08.01.16.03.25.03.23.02.45.03.68.04.18,0,.35,0,.53,0,.11,0,.22,0,.32,0,.05,0,.09.01.14,0,.1,0,.2-.01.3-.02.3,0,.61,0,.91-.01.12,0,.24-.02.36-.02.01,0,.02,0,.03,0,.03,0,.07,0,.07.04,0,.03-.02.04-.04.06-.04.03-.08.06-.13.05-.04,0-.06.02-.07.06-.01.08-.06.15-.13.2-.01,0-.02.02-.03.03-.04.1-.14.12-.23.13-.12.01-.23.05-.34.1-.05.02-.06.05-.05.1.01.04.03.08.04.12,0,.02,0,.03.02.06M23.56,14.32s-.03,0-.04.02c0,.01,0,.04,0,.05.01.02.03.04.04.06.03.03.09.02.11,0,.02-.03.01-.08-.03-.1-.02-.01-.05-.01-.09-.03M29.12,8.81c.06,0,.07-.01.08-.04,0,0,0-.03-.01-.03,0,0-.03,0-.04,0-.01.02-.02.04-.03.07"/>
      <path class="cls-1" d="M57.96,9.58c.01-.11.03-.22.04-.32.02-.14.04-.27.05-.41.01-.17.01-.34.02-.51,0-.09.02-.19.03-.28,0-.03,0-.06,0-.09-.03-.09-.03-.17-.01-.26.02-.1,0-.21.01-.32,0-.01,0-.03-.02-.04-.06-.04-.05-.1-.04-.15,0-.13.02-.26.03-.39,0-.03,0-.05.01-.08,0-.02.01-.05.01-.07,0-.09.06-.15.16-.16.05,0,.1-.02.14-.05.05-.04.11-.06.17-.09.02,0,.04-.01.07,0,.08.02.15.04.23.06.07.02.14.04.19.1,0,.01.02.02.03.02.06.02.09.06.11.12.02.06.05.13.03.2-.01.05-.02.1-.02.16,0,.11,0,.22,0,.33,0,.04.02.08.04.11.03.04.03.08,0,.12-.01.02-.02.04-.03.06-.02.03-.02.07,0,.1.02.03.02.06,0,.1-.02.03-.02.07-.03.11,0,.08-.01.15,0,.23,0,.04.01.09.03.13.03.1.09.12.18.06.05-.03.09-.07.14-.1.03-.02.07-.03.1-.04,0,0,.01,0,.02,0,.09-.04.19-.08.28-.13.06-.03.1-.09.15-.13.02-.01.04-.02.06-.02.1,0,.17-.07.25-.11.02-.01.04-.03.07-.04.08-.02.14-.06.18-.12.02-.03.05-.04.09-.04.04,0,.08,0,.12-.03.09-.06.2-.08.31-.11.02,0,.03,0,.05-.01.04-.01.06-.03.06-.07.01-.09.07-.14.15-.18.03-.01.05-.03.07-.04.04-.03.07-.07.11-.11.06-.06.11-.13.12-.22,0-.03.02-.06.03-.08.02-.04.04-.07.05-.11,0-.04.03-.06.06-.09.07-.05.14-.11.21-.16.02-.01.04-.03.06-.03.05,0,.09-.01.12-.03.06-.04.13-.05.2-.03.05.02.09.01.14,0,.06-.02.12-.03.18-.03.11,0,.21,0,.32.01.05,0,.09.01.13.04.01.01.03.02.04.03.12.05.23.11.33.18.02.02.06.02.09.02.06,0,.12.02.17.05.07.05.16.08.23.13.05.03.08.06.12.1.05.04.08.08.13.12.03.02.05.05.05.08,0,.04,0,.08,0,.12,0,.03-.02.08-.04.1-.07.05-.05.11-.04.16,0,.02.01.04.01.07,0,.08-.02.1-.11.1-.13,0-.2.08-.26.18-.01.02-.02.04-.03.06-.09.07-.18.15-.29.2-.06.02-.11.06-.15.11-.06.07-.15.13-.25.15-.01,0-.03,0-.04,0-.11.06-.23.12-.34.19-.02.01-.04.04-.04.06,0,.04-.03.07-.07.09-.01,0-.02.01-.03.02-.04.08-.12.11-.21.14-.04.01-.08.04-.12.05-.04.02-.09.03-.13.03-.1,0-.19.03-.25.1-.01.01-.03.02-.05.03-.02,0-.04,0-.05.02-.04.06-.09.06-.15.06-.08,0-.17,0-.24.05-.02.01-.04.01-.07.01-.05,0-.08.03-.13.06-.06.04-.12.11-.21.11-.01,0-.03,0-.04.01-.04.06-.11.05-.17.07-.1.04-.19.07-.3.08-.04,0-.08.02-.11.03-.05.02-.09.04-.14.05-.05.02-.1.03-.15.04,0,0-.01,0-.02,0-.02,0-.05,0-.07.02-.07.08-.2.04-.27.14-.06.11-.18.17-.28.23-.01,0-.03.02-.04.03-.03.02-.04.05-.02.09.02.05.05.09.1.11.08.03.13.09.18.15.05.05.08.11.15.14.03.01.04.05.06.08.04.04.06.09.11.12.08.05.15.14.25.17.03.01.06.05.08.08.05.06.09.13.18.14.02,0,.05.03.07.05.06.05.11.12.2.12.01,0,.03.01.04.02.08.09.19.17.26.27.01.02.03.03.05.04.05.03.1.05.15.08.02,0,.03.02.04.04.01,0,.02.02.03.03.08.01.14.07.21.11.02,0,.03.02.05.03.01,0,.02.03.03.03.12,0,.17.12.27.16.02,0,.03.02.04.03.11,0,.18.08.26.14.03.02.07.04.11.06.09.03.17.05.23.12.02.02.04.03.06.04.06.03.13.05.17.09.05.05.11.06.17.09.06.03.13.07.18.11.06.05.14.06.21.07.03,0,.05.02.08.03.01,0,.03.02.04.02.1.01.2.03.3.04.03,0,.05,0,.07.04.02.03.06.05.11.05.05,0,.1,0,.13.05.01.02.04.02.06.03.04,0,.08,0,.11.01.03,0,.07,0,.1.01.15.08.32.04.48.09.01,0,.03,0,.04,0,.17.07.35.06.52.07.09,0,.17,0,.24.08.02.02.06.02.09.02.08,0,.15,0,.23,0,0,0,.02,0,.03,0,.09-.06.19-.04.29-.05.09-.01.18,0,.28,0,.18.01.36.01.54,0,.03,0,.05,0,.08,0,.05,0,.1,0,.15-.03.03-.01.06-.02.09-.02.14,0,.27,0,.41-.02.12,0,.24-.03.36-.04,0,0,.02,0,.03,0,.07-.08.17-.05.26-.07.04-.01.09-.02.13-.05.04-.03.08-.05.14-.04.02,0,.04,0,.05,0,.1-.02.2-.04.29-.07.08-.03.17-.04.25-.07.06-.02.12-.06.18-.1.04-.02.06-.03.09,0,.02.02.05.04.08.07-.02.02-.04.04-.06.06-.02.02-.04.05-.05.07,0,.04-.03.07-.05.1-.03.07-.07.12-.16.12-.03,0-.07.03-.07.07,0,.05-.04.07-.08.07-.06,0-.1.04-.1.1,0,.04-.02.07-.06.08-.02,0-.04.03-.06.05-.02.02-.05.03-.07.05-.02.02-.04.03-.05.05-.05.07-.09.14-.2.14-.04,0-.07.03-.08.07,0,.02-.01.03,0,.05.03.13-.06.18-.15.23-.01,0-.03.02-.04.03-.03.03-.06.06-.1.08-.09.04-.16.11-.26.15-.04.01-.09.05-.12.08-.03.04-.07.05-.11.06-.07.02-.13.04-.18.09-.02.02-.04.03-.06.04-.09.02-.16.07-.23.12-.04.03-.09.04-.13.06-.11.06-.23.13-.34.18-.14.06-.26.15-.41.17-.07,0-.13.03-.19.05-.02,0-.05.02-.06.03-.03.07-.09.08-.15.08-.11,0-.17.05-.24.11-.02.02-.04.03-.06.04-.05.01-.11,0-.13.07,0,0,0,0-.01,0-.06.03-.13.06-.19.09,0,0-.01,0-.02,0-.06.08-.15.06-.23.07-.02,0-.06,0-.08,0-.13.08-.28.05-.42.04-.09,0-.18-.05-.27-.06-.03,0-.07,0-.09,0-.07.06-.15.06-.24.06-.09,0-.17,0-.25-.06-.06-.04-.14-.04-.21-.05-.05,0-.08-.02-.11-.06-.04-.06-.1-.1-.14-.17-.03-.07-.11-.09-.18-.1-.04-.01-.06-.03-.09-.05-.07-.04-.11-.13-.19-.14-.07-.08-.18-.09-.27-.14-.02,0-.04-.02-.05-.04,0,0,0-.02-.02-.02-.08-.02-.13-.08-.2-.11-.02,0-.05-.01-.06-.03-.07-.08-.18-.11-.27-.16-.04-.02-.07-.04-.1-.06-.02,0-.03-.02-.04-.03-.12-.02-.19-.12-.29-.19-.02-.01-.05-.03-.08-.03-.05,0-.08-.02-.12-.05-.02-.02-.05-.03-.07-.04-.11-.05-.22-.11-.3-.2-.02-.02-.02-.04-.04-.05-.03-.03-.05-.07-.09-.08-.05-.02-.08-.04-.11-.08-.02-.02-.05-.04-.07-.06-.01,0-.03-.01-.04-.02-.06-.09-.15-.13-.23-.19-.06-.04-.11-.11-.16-.17-.04-.05-.08-.09-.12-.14-.09-.09-.17-.19-.26-.28-.02-.02-.05-.04-.08-.06-.07-.04-.12-.1-.17-.16-.04-.04-.09-.07-.14-.11-.07-.06-.15-.13-.22-.2-.11-.11-.21-.24-.34-.33-.02-.01-.04-.04-.05-.07-.04-.13-.13-.22-.23-.31-.08-.07-.17-.13-.23-.22,0,0,0-.01-.01-.01-.08-.02-.08-.09-.08-.16,0-.07-.02-.13-.04-.19-.04-.09-.05-.19-.08-.28-.01-.04-.03-.07-.05-.1,0-.01-.02-.02-.02-.03-.02-.1-.09-.19-.13-.28-.04-.08-.06-.16-.06-.25,0-.04-.02-.08-.04-.12-.02-.03-.03-.06-.02-.1,0-.01,0-.03,0-.05,0-.12-.01-.24-.03-.36,0-.03-.03-.06-.05-.08"/>
      <path class="cls-1" d="M51.63,11.71c0-.07.01-.16.03-.25,0-.05.02-.11.04-.16.03-.08.05-.16.02-.25-.01-.03,0-.08,0-.11.02-.06.02-.12,0-.18-.01-.04-.02-.08-.02-.11.01-.09.03-.18.05-.26,0-.04.02-.09.02-.13,0-.11.01-.23.01-.34,0-.05,0-.11-.04-.15-.01-.01-.01-.04,0-.05.07-.07.03-.16.01-.23-.03-.09-.05-.17-.04-.26.02-.13,0-.26-.01-.39-.02-.12,0-.25.02-.37,0-.02,0-.05,0-.07-.03-.04-.08-.05-.12-.02-.09.06-.16.14-.23.22-.02.02-.02.06-.03.09-.02.06-.06.11-.11.16-.06.06-.12.12-.13.22,0,.08-.04.15-.12.2-.04.02-.06.06-.05.12.02.1-.03.18-.11.24-.03.03-.06.06-.08.09-.06.07-.13.14-.19.2-.04.04-.08.08-.12.11-.09.07-.2.09-.31.12-.01,0-.02,0-.03,0-.04.02-.04.08-.1.07-.05,0-.08.02-.12.04-.03.02-.08.02-.11.03-.04,0-.08.02-.12.02-.02,0-.04,0-.06.01,0,0,0,0,0,0-.05.01-.09.03-.14.04-.05.01-.09.03-.12.07-.03.02-.08.03-.12.04-.04,0-.06-.03-.06-.07,0-.02,0-.03,0-.05,0-.03-.03-.06-.07-.05-.04.01-.06,0-.08-.03-.07-.08-.14-.15-.21-.23-.01-.01-.01-.04-.02-.05-.02-.05-.04-.1-.06-.15,0-.02-.02-.03-.02-.05-.01-.08-.02-.17-.03-.26,0-.01,0-.03,0-.04-.08-.1-.05-.22-.06-.33,0-.05-.01-.09-.02-.14,0-.01,0-.03,0-.04,0-.07.02-.15.03-.22,0-.04.02-.08.05-.11.04-.03.05-.07.05-.12,0-.06,0-.11.06-.15.05-.04.12-.09.12-.18,0,0,0-.02.01-.02.05-.04.07-.1.09-.17,0-.02.04-.04.07-.06.09-.04.14-.1.17-.19,0-.03.03-.05.05-.07.06-.05.12-.09.14-.17,0-.01.02-.02.03-.03.07-.02.12-.08.17-.12.03-.02.06-.04.09-.06.05-.04.1-.07.14-.13.05-.07.11-.13.2-.16.01,0,.02-.01.03-.02.08-.06.17-.12.26-.17.04-.02.07-.05.1-.08.05-.04.1-.09.17-.1,0,0,.02,0,.02-.01.04-.06.11-.08.18-.09.02,0,.04-.01.05-.02.11-.09.25-.13.37-.2.01,0,.03-.01.04,0,.05,0,.09-.01.12-.05.02-.01.04-.02.06-.03.04-.02.07-.04.1-.06.02,0,.03-.02.05-.03.05,0,.09-.03.13-.06.02-.01.04-.02.06-.02,0,0,.02,0,.03,0,.08-.05.17-.06.25-.08.05-.01.09-.03.14-.04.02,0,.04,0,.06-.02.08-.05.17-.06.26-.07.02,0,.04,0,.04-.01.05-.07.15-.06.22-.1.04-.02.08-.02.12-.02.09,0,.19,0,.28-.02.02,0,.05,0,.06-.02.05-.04.1-.04.16-.04.12,0,.25-.01.37-.01.06,0,.12,0,.18.01.08.02.15,0,.23-.02.05-.02.11-.03.17-.03.21,0,.43,0,.64.01.06,0,.12.02.18.03.04,0,.07,0,.11,0,.03,0,.08,0,.1.02.07.05.16.06.25.06.04,0,.07.01.09.05.02.04.02.07-.01.11-.07.07-.16.13-.26.17-.06.02-.1.05-.15.09-.08.06-.16.13-.24.17-.06.03-.14.04-.22.05-.04,0-.06.02-.09.04-.08.04-.14.11-.23.11-.05,0-.11.01-.16.06-.02.02-.06.02-.09.02-.04,0-.08.01-.11.03-.09.06-.19.11-.3.14-.06.01-.11.05-.16.08-.02,0-.03.02-.05.03-.09.03-.17.09-.25.15-.08.06-.16.11-.24.17-.01,0-.03.02-.04.02-.07,0-.12.05-.17.09-.05.04-.1.09-.15.12-.07.04-.1.11-.08.18.02.11,0,.21,0,.32,0,.12-.01.25.03.37.02.05,0,.11,0,.17,0,.07-.02.14-.02.22,0,.02.02.05.03.07.01.05.01.11.02.16.01.08-.02.15-.04.22-.02.04-.01.09-.02.13,0,.01,0,.03,0,.03.07.06.05.15.07.22,0,.03.01.05.02.08.01.06.03.12.04.18,0,.02,0,.04,0,.06-.06.13-.07.26,0,.4,0,.01.01.03.01.05,0,.11,0,.23,0,.34,0,.1,0,.21.02.32,0,.06.02.11.04.17,0,.01,0,.03,0,.04-.07.13-.06.26-.07.4,0,.09-.01.18,0,.27,0,.06.03.11.04.17.04.13.03.26,0,.38,0,0,0,.01,0,.02-.09.08-.07.19-.08.28-.02.12-.02.25-.03.37,0,.04-.01.08-.03.11-.03.04-.05.09-.05.14,0,.01,0,.03-.02.04-.09.05-.09.15-.12.23-.02.03-.02.07-.06.09-.02.01-.03.03-.04.05-.02.04-.03.08-.07.1,0,0-.01.01-.01.02,0,.08-.06.15-.09.21-.05.09-.11.17-.19.23-.05.04-.09.1-.14.15-.05.04-.1.08-.15.13-.04.03-.07.06-.11.09,0,0-.01.01-.02.02-.04.05-.11.04-.16.06-.05.03-.08.09-.15.08-.01,0-.03,0-.04,0-.04.03-.09.07-.14.1-.04.02-.08.04-.12.06-.04.02-.07.03-.1.06-.1.07-.19.14-.32.13-.09,0-.14.06-.19.11-.08.08-.16.16-.24.23-.03.02-.05.05-.07.07-.06.06-.15.08-.23.11-.05.02-.09.05-.13.07-.08.04-.13.11-.23.12-.01,0-.03,0-.04.02-.03.04-.07.06-.12.06,0,0-.02,0-.02,0-.05.07-.13.06-.2.07-.03,0-.06.03-.09.04-.02.01-.04.02-.06.03-.04.02-.07.03-.11.05-.02,0-.04.02-.06.02-.07,0-.15.01-.22.01-.06,0-.11,0-.15.05,0,0-.02.01-.03.02-.12.02-.24.07-.37.06-.05,0-.11-.02-.16-.04-.1-.04-.2-.04-.3-.02-.12.02-.23,0-.34-.02-.04,0-.08,0-.11-.02-.06-.04-.13-.06-.2-.09-.01,0-.01-.02-.02-.03-.02-.04-.04-.08-.06-.11,0-.01-.04-.02-.05-.02-.02,0-.04,0-.07,0-.09,0-.08,0-.1-.08,0-.03-.02-.07-.04-.09-.03-.03-.03-.05-.03-.08-.02-.13.02-.26.03-.39,0-.01,0-.02.01-.03.08-.09.07-.19.07-.3,0-.07,0-.14,0-.2,0-.03.02-.06.03-.08.01-.02.03-.03.04-.05.02-.11.11-.18.17-.26.01-.02.03-.03.04-.04.03-.02.05-.04.08-.05.07-.03.14-.06.21-.08.08-.02.16-.03.23-.08.05-.03.11-.05.18-.07.05-.01.11,0,.16,0,.07,0,.14,0,.22,0,.04,0,.08-.01.11-.04.02-.02.04-.03.06-.03.04,0,.08-.02.11-.06,0-.01.05-.02.07-.02.05,0,.09,0,.13-.04,0,0,.02-.02.03-.02.1-.01.16-.09.24-.13.05-.02.1-.04.15-.07.02-.01.05-.03.07-.04.03-.02.06-.04.1-.06.07-.03.14-.05.22-.08,0,0,.02-.01.02-.01.09,0,.16-.07.24-.1.02,0,.03-.02.04-.03.02-.04.05-.04.08-.05.04,0,.06-.02.08-.06.02-.05.05-.09.11-.09,0,0,.02,0,.03,0,.07-.04.14-.09.21-.13.04-.02.08-.06.12-.07.09-.01.15-.06.21-.12.07-.07.16-.11.24-.16.05-.03.1-.04.15-.06.03-.01.05-.04.06-.06.03-.05.05-.1.11-.11.01,0,.02-.02.03-.03.03-.03.05-.08.09-.1.08-.05.14-.11.2-.18.02-.02.03-.04.04-.06.01-.04.03-.07.06-.1.07-.05.13-.11.21-.18"/>
      <path class="cls-1" d="M89.55,9.57s-.07.05-.1.07c-.03.02-.05.03-.07.06-.02.02-.04.04-.06.07-.02.01-.03.03-.04.05-.02.02-.03.04-.05.05-.04.02-.06.05-.06.09,0,.06-.03.11-.07.15-.05.05-.07.1-.05.16.02.07-.01.12-.08.16-.03.02-.05.04-.08.06-.03.02-.07.03-.11.04-.06.01-.07.02-.09.08,0,.03-.01.05-.02.08-.02-.01-.03-.02-.04-.03-.05-.03-.06-.03-.11,0-.02.01-.04.02-.06.03-.06.02-.13.04-.18.09-.03.03-.09.05-.13.07-.05.03-.11.01-.16,0-.07-.01-.14,0-.21.02-.11.03-.22.04-.32-.03-.03-.02-.07-.03-.11-.03-.05,0-.1,0-.15,0-.02-.05-.03-.1-.08-.11,0,0,0-.03-.01-.05-.05.04-.1.03-.15,0-.04-.02-.1-.02-.13-.07,0,0-.02,0-.03-.01-.12,0-.22-.04-.31-.12-.08,0-.12-.07-.18-.08-.06-.02-.13-.04-.19-.05-.01,0-.02,0-.03-.01-.11-.05-.22-.08-.33-.06-.05-.03-.13.02-.17-.06-.04.04-.07.03-.12.01-.05-.02-.1-.02-.16-.02-.04,0-.07-.01-.1-.04-.03-.03-.08-.03-.12-.04-.03,0-.07,0-.1-.01-.02,0-.04-.02-.06,0-.05.02-.08,0-.12-.04-.04.02-.07.03-.1,0,0,0,0,0,0,0-.05.03-.11-.02-.16,0-.05.02-.11-.02-.15.02-.04-.03-.09,0-.12-.01-.06-.02-.11.03-.17,0-.04.03-.08.02-.11,0-.09.07-.12.16-.12.26,0,.17,0,.34,0,.51,0,.08,0,.16,0,.24,0,.04-.02.06-.05.08-.08.05-.13.11-.11.2,0,.05,0,.09,0,.14,0,.11,0,.21,0,.32,0,.12,0,.25,0,.37,0,.03,0,.05,0,.07.02.09.02.19,0,.28-.01.09-.02.19-.02.29,0,.04-.01.08-.03.13-.02.04-.04.1,0,.14,0,.01,0,.04,0,.05-.05.13-.03.26-.05.39-.02.14,0,.29,0,.43,0,.01,0,.02,0,.03-.07.1-.05.21-.05.32,0,.04,0,.07,0,.11,0,.09,0,.18,0,.27,0,.04,0,.09-.04.13-.03.04-.03.1-.03.15,0,.07-.02.15-.05.22,0,.02-.02.04-.04.06-.03.02-.04.06-.05.09,0,.04-.01.09-.02.13,0,.01,0,.03-.01.04-.06.02-.05.07-.07.11,0,.02-.01.03-.02.04-.08.05-.11.13-.14.21-.02.05-.04.1-.06.15,0,.01-.02.01-.03.02-.05.03-.09.06-.14.1-.04.03-.04.04,0,.08.01.02.02.04.02.06,0,0-.03.02-.05.02-.03,0-.06,0-.07-.04-.03-.12-.12-.2-.21-.27-.05-.04-.09-.08-.13-.12-.05-.04-.1-.08-.16-.13-.01-.01-.03-.03-.04-.05-.02-.04-.04-.08-.05-.13-.01-.03-.02-.05-.03-.08-.02-.06-.02-.13-.08-.17-.03-.02-.03-.07-.03-.11-.01-.07-.02-.14-.02-.22-.02-.19-.03-.38-.04-.57,0-.03,0-.05,0-.08-.01-.12-.03-.25-.04-.37,0-.07,0-.15.02-.22,0-.05.01-.1-.04-.14-.03-.02-.02-.05,0-.07.05-.06.05-.12,0-.18-.04-.05-.04-.06,0-.11.05-.06.04-.13.01-.19-.02-.03-.01-.06,0-.09.02-.09.02-.17.02-.26,0-.07,0-.14,0-.2,0-.02,0-.05.02-.07.03-.06.04-.11,0-.17-.02-.03,0-.07,0-.1,0-.07,0-.15,0-.22,0-.02,0-.05,0-.07,0-.08.01-.16.02-.24,0-.02-.01-.03-.01-.05-.01-.04-.02-.08-.03-.12,0-.04,0-.09-.03-.13-.07-.16-.06-.32-.06-.49,0-.08-.02-.16-.02-.24,0-.05,0-.11-.02-.16-.02-.08,0-.15.02-.22.02-.06.02-.11-.04-.16-.01,0-.03,0-.04,0-.04.01-.08,0-.1-.03-.02-.03-.05-.04-.09-.04-.06,0-.11,0-.17,0-.09,0-.18,0-.27-.03-.02,0-.05,0-.06,0-.05.04-.11.03-.16.04-.05,0-.11.01-.16.02-.02,0-.04,0-.07,0-.05,0-.11,0-.16.02-.08.05-.17.04-.26.07-.05.02-.1.03-.14.05-.05.03-.09.04-.15.04-.05,0-.1,0-.14.06-.04.05-.11.07-.17.1-.03.02-.08.02-.1.06-.01.01-.03.02-.05.03-.05.01-.1.03-.15.04-.04.05-.09.11-.14.18,0,0,0,0,0,0-.1.04-.15.14-.23.21,0,0-.01.01,0,0-.02.07-.03.12-.05.18-.02.06-.09.07-.15.1-.02,0-.04.01-.06.03s-.06.03-.09.04c-.05,0-.11,0-.16,0-.08,0-.16,0-.22.02-.06.02-.11.05-.17.07-.02,0-.05.05-.04.07.02.07-.04.1-.05.16,0,.03-.02.06-.03.09-.01.03-.03.06-.04.09,0,.02-.02.03-.02.04-.03.09-.08.18-.09.28,0,.02-.02.05-.04.06-.05.02-.05.05-.05.09,0,.04-.02.07-.03.11,0,.04-.02.08-.02.12,0,.07-.01.13-.08.18-.02.01-.02.05-.03.07,0,.06,0,.13-.02.18-.04.08-.04.17-.05.25,0,.02-.02.05-.03.07,0,.02-.02.03-.03.05-.02.04-.05.07-.07.11,0,.01-.02.02-.03.04-.02.05-.03.09-.08.12-.01,0-.02.03-.02.05,0,.03,0,.07,0,.11,0,.02,0,.04,0,.05-.09.1-.1.23-.17.33-.03.04-.07.07-.11.11-.01.01-.03.02-.03.04-.01.11-.11.18-.15.27,0,.02-.03.02-.04.04-.02.02-.03.03-.05.05,0,0,0,.02-.01.02-.11.06-.17.18-.28.24-.05.03-.09.08-.16.08-.03,0-.06.02-.06.06,0,.06-.04.1-.09.14-.09.06-.17.12-.27.16,0,0-.01,0-.02,0-.06,0-.12.03-.17.07-.06.03-.12.05-.18.09-.03.02-.08.05-.13.02,0,0-.04,0-.05.02-.02.04-.04.04-.08.05-.09.02-.18.04-.27.07-.03,0-.05.03-.07.04-.01,0-.03.02-.04.02-.06-.02-.1.02-.13.06-.02.02-.04.04-.07.02,0,0-.02,0-.02,0-.06.06-.14.03-.21.03-.07,0-.15,0-.22,0-.04,0-.07.02-.09.06-.05.07-.1.13-.21.12-.1,0-.21,0-.31,0-.02,0-.03,0-.05,0-.06,0-.12,0-.18.01-.04,0-.09.01-.13.02-.06.01-.11.05-.17.02,0,0,0,0,0,0-.09.03-.17,0-.26,0-.04,0-.08,0-.12,0-.11,0-.22-.01-.33-.02-.01,0-.03,0-.04,0-.04-.01-.07-.03-.11-.04-.03,0-.07,0-.12,0-.05.03-.12.04-.17,0-.04-.03-.08-.04-.12-.03-.12,0-.2-.06-.27-.14-.05-.05-.09-.1-.14-.15-.04-.03-.06-.07-.04-.12.02-.05.01-.11.02-.17,0-.05.02-.09.07-.12.01,0,.02-.02.03-.03.07-.05.07-.05.02-.12-.05-.07-.06-.15-.05-.23,0-.03.02-.06.06-.06.1,0,.15-.07.22-.13.06-.05.12-.1.18-.16.04-.04.1-.05.15-.06.06-.01.13-.01.17-.08,0-.01.03-.01.05-.02.05-.02.1-.04.15-.06.02,0,.04,0,.06-.01.06-.01.11-.02.16-.04.03,0,.05-.02.08-.02.08-.01.16-.02.24-.03.02,0,.04-.04.06-.03.08,0,.14-.05.22-.04.07,0,.15,0,.22,0,.07,0,.15,0,.22-.04.01,0,.03-.02.05-.02.08-.01.15-.02.23-.03.06,0,.12,0,.15-.07,0,0,0,0,0,0,.09-.01.14-.09.22-.12.03-.01.06-.02.08-.05.01-.01.04-.02.06-.02.04,0,.08,0,.12,0,.09,0,.11-.02.11-.11,0-.01,0-.03,0-.04.08-.08.18-.13.3-.12.03,0,.05-.01.08-.02.05-.02.09-.03.13-.05.02,0,.04-.02.05-.04.02-.04.06-.05.1-.06.09-.02.16-.07.16-.16.01-.12.1-.19.18-.26.02-.01.03-.03.05-.04.04-.03.07-.07.1-.09.03-.02.07-.04.08-.08,0-.01.03-.02.04-.03.01,0,.03-.02.04-.03.05-.06.09-.12.16-.16.08-.05.13-.12.16-.21.01-.03.03-.05.05-.08,0,0,.02-.01.02-.02,0-.09.11-.14.11-.23,0,0,0-.01,0-.02.04-.06.09-.12.09-.21,0-.03.05-.04.06-.08.04-.09.09-.18.13-.27.02-.06.03-.12.04-.18,0-.04,0-.09.01-.13,0-.03.02-.05.03-.07.01-.04.04-.07.04-.11,0-.18,0-.37,0-.56,0-.09,0-.18.04-.26.02-.04.01-.1.01-.15,0-.05,0-.1.04-.13.01-.01.02-.03.02-.05.01-.04.02-.07.07-.08.02,0,.03-.04.03-.06,0-.06,0-.13,0-.19,0-.04,0-.08,0-.12,0-.06,0-.12,0-.18,0-.13,0-.26,0-.38,0-.07,0-.15,0-.22,0-.04,0-.07-.04-.09-.02-.02-.03-.06-.04-.09-.01-.03-.03-.06-.05-.09-.04-.07-.12-.08-.19-.08-.04,0-.07-.02-.11-.04-.06-.04-.12-.06-.19-.09-.02,0-.05-.01-.06-.03-.03-.05-.07-.05-.12-.05-.04,0-.06,0-.09.03-.09.09-.2.13-.33.13-.07,0-.13.04-.16.1-.02.04-.05.07-.09.08,0,0-.02,0-.02,0-.08.06-.18.08-.28.08-.11,0-.22.01-.32-.02-.08-.02-.15-.07-.23-.1-.01,0-.03-.02-.03-.04-.03-.06-.05-.13-.07-.19,0-.02,0-.04.02-.06.04-.06.06-.13.06-.2,0-.06.04-.09.09-.12.1-.06.12-.11.06-.21-.02-.04-.02-.07.02-.08.07-.04.1-.1.15-.15,0,0,.01,0,.01-.01.01-.13.14-.19.17-.3,0-.02.02-.04.02-.05,0-.12.12-.18.16-.27.06-.03.12-.06.18-.08.04-.02.08-.02.12-.02.05,0,.11-.01.12-.08.1-.05.14-.16.26-.18.01,0,.02-.01.03-.02.05-.07.13-.07.2-.08.02,0,.05,0,.07-.02.04-.05.1-.06.15-.06.04,0,.07-.01.1-.05.01-.02.04-.03.07-.03.11-.02.22-.05.32-.12.03-.02.06-.02.09-.03.05-.02.09-.04.14-.06.06-.02.12-.03.18-.04.03,0,.06-.01.1-.02.02,0,.05-.01.07-.02,0,0,.01,0,.02,0,.11-.08.24-.04.36-.09.09-.04.19-.04.29-.06.08-.01.16-.02.24-.01.02,0,.05-.02.08-.03.06.03.12,0,.19-.01.04,0,.08-.01.11-.02.03,0,.08,0,.1-.03.06-.06.14-.05.21-.05.09,0,.19,0,.29,0,.23,0,.47-.01.7-.01.11,0,.22.02.33.02.05,0,.09,0,.14-.01.04,0,.07,0,.11,0,.05,0,.09,0,.13.02.08.03.16.05.25.03.09-.02.19,0,.28-.01.07,0,.13-.02.2-.05-.09-.19-.05-.39-.05-.58,0-.08,0-.16.01-.24,0-.03.02-.05.04-.05.04,0,.08-.01.12-.01.07,0,.08-.02.07-.08,0-.05.04-.11.09-.13.03-.01.06-.03.07-.06.02-.03.05-.05.07-.08.02-.02.05-.03.08,0,.04.04.09.04.14.05.06,0,.13,0,.17.05,0,0,0,0,0,0,.1.01.19.04.28.03.1-.01.21,0,.31,0,.06,0,.1.04.13.08.02.02.05.03.08.02.04,0,.09-.01.13-.01.05,0,.09.01.13.04.07.05.14.11.25.08.01.04.03.08.03.11.01.04.03.06.06.08.03.01.05.04.07.05.03.02.04.05.02.08-.01.02-.01.05-.01.08,0,.04,0,.09.02.13.02.04.04.09.07.13.03.03.06.07.05.11,0,.08,0,.16-.05.23-.02.02-.03.04,0,.07.02.02.08.02.09,0,.03-.06.07-.05.12-.05.08,0,.15,0,.23,0,.1,0,.2,0,.3,0,.02,0,.04,0,.06,0,.13.06.27.06.41.05.13,0,.26,0,.39.01.05,0,.1.03.14.05.03.02.06.03.1.02.08,0,.16-.02.23-.02.09,0,.18-.01.26.02.05.02.12.01.18.01.06,0,.12,0,.19,0,.02,0,.04,0,.05.02.04.04.09.04.14.04.03,0,.06,0,.09,0,.07,0,.13,0,.17.07.04,0,.07-.03.12-.01.01,0,.03,0,.04-.01.01,0,.03-.01.04,0,.04.03.07,0,.1-.01.04.02.08.03.12.03.11,0,.22.03.32.04,0,0,.02,0,.02,0,.09,0,.16.03.22.09.04.04.08.07.14.07.02,0,.04.03.05.05.01.04.03.05.07.06.04,0,.08.03.12.04.02,0,.03.02.04.02.1.02.16.08.23.14.01.01.04.03.05.03.07-.01.13.01.19.02.05,0,.08.04.08.09.01.09.04.18.09.26.04.08.05.17.01.25,0,.01-.03.02-.05.03-.04.02-.07.06-.06.1,0,.02,0,.05,0,.07,0,.08-.04.14-.12.15-.1,0-.17.05-.22.13-.01.02-.03.03-.05.04-.03.02-.06.04-.09.06-.04,0-.08-.01-.12-.02-.05-.02-.09-.04-.14-.06-.07-.04-.18-.05-.23,0-.03.03-.05.07-.07.11-.02.01-.06.03-.08.04-.07.06-.09.06-.19.03.01-.01.03-.03.04-.04.01-.01.03-.02.05-.03-.01-.02-.02-.05-.03-.06-.02-.02-.05-.03-.08-.03-.03,0-.06.04-.08.1-.05.02-.07-.02-.08-.04-.09,0-.16,0-.24-.02-.03,0-.05-.02-.08-.03-.04-.02-.08-.05-.13-.03,0,0-.02,0-.02,0-.04-.02-.07-.07-.14-.06-.04,0-.09-.03-.14-.04-.04,0-.08-.01-.12-.01-.03,0-.07,0-.09-.03,0-.01-.03-.02-.05-.03-.05,0-.09-.02-.14-.02-.09,0-.17-.03-.25-.06-.02,0-.04-.02-.06-.03-.02,0-.04-.02-.05-.02-.04,0-.07,0-.1,0-.06,0-.11.01-.17.02-.01,0-.02,0-.03,0-.07-.02-.14-.04-.21-.07-.05.05-.12.06-.2.05-.15-.03-.31-.03-.46,0-.09.02-.18,0-.28-.03-.1-.03-.21-.03-.31,0-.06.01-.12.02-.18,0-.04-.02-.08-.02-.12-.02-.09,0-.17,0-.26,0-.1,0-.21,0-.31,0-.06,0-.11,0-.17,0-.13,0-.25,0-.38,0-.1,0-.2,0-.3,0-.15,0-.29,0-.44.01-.1.01-.18-.04-.26-.03-.01,0-.03,0-.04,0-.11.06-.22.02-.32.02-.01,0-.02,0-.03,0-.05.01-.08,0-.11-.04-.02.02-.04.03-.06.05,0,0-.02,0-.02,0-.02,0-.03-.03-.06,0-.04.03-.07.02-.09-.02-.04.02-.07.04-.11,0,0,0-.03-.01-.04,0-.03.03-.06,0-.1,0-.03.04-.06.06-.12.05-.07,0-.15.02-.23.02-.11,0-.22,0-.34,0-.05,0-.1,0-.15.01-.04,0-.07.01-.11,0-.11-.03-.22,0-.32.01-.07.01-.15.01-.21.06,0,0-.03,0-.04,0-.07-.01-.13,0-.19.02-.07.02-.13.03-.2.06-.08.04-.18.02-.27.02-.04,0-.08,0-.11.02-.08.04-.15.08-.24.1-.01,0-.03,0-.03,0-.07-.04-.14.01-.2.01-.02,0-.03.01-.05.01-.08,0-.13.03-.16.1,0,.02-.03.03-.04.04.02.01.04.03.06.04.17.07.21.21.24.36.02.1.02.2,0,.31,0,.05.01.11,0,.16,0,.14,0,.29-.04.43,0,0,0,.01,0,.02.04.06,0,.11-.02.17-.02.06-.04.11-.08.16,0,0,0,.02,0,.03.07.02.13.04.21.07.02-.01.05-.03.07-.05.07-.07.16-.1.27-.1.02,0,.04,0,.06-.01.08-.06.19-.05.28-.07.02,0,.04,0,.05-.01.06-.05.13-.05.2-.07.05-.01.11-.02.15-.06.02-.02.05-.02.07-.03.04-.01.1,0,.13-.05,0,0,0,0,.01,0,.1,0,.19-.03.28-.06.05-.01.1,0,.14-.01.12-.02.23-.05.35-.07.05,0,.09,0,.14,0,.02,0,.05,0,.07,0,.1-.02.2-.04.3-.06.01,0,.02,0,.03,0,.05,0,.08,0,.1-.05.03.01.06.02.1.01.06-.02.13-.02.2-.03.14,0,.29-.01.43-.05.06-.02.12-.03.18-.01.02,0,.05,0,.08,0,.16-.01.33-.03.5-.03.25,0,.51,0,.76,0,.09,0,.18,0,.27.01.05,0,.1.03.15.04.08.01.17.02.25.03.08,0,.15.01.23.05.04.02.09.02.13.03.14.02.27.06.42.04.01,0,.03,0,.04,0,.02,0,.03.01.05.02,0,.03,0,.05,0,.08.03.02.05.04.08,0,0,0,.02-.01.03-.01.11,0,.22,0,.33,0,.04,0,.08.03.12.05.04,0,.07,0,.12.01.07.03.14.04.2.07.06.03.13.02.2.03.05,0,.1,0,.13.05.03-.01.05-.02.08-.03.03.04.07.03.12.03.06,0,.12.02.18.02.13,0,.26,0,.39,0,.06,0,.11.02.16.03.04,0,.09.03.13.03.17,0,.35.01.52.01.11,0,.22,0,.34,0,.05,0,.09.03.14.04.01,0,.02.02.03.01.1-.02.19.02.29,0,.12-.02.24-.02.36-.02.05,0,.1,0,.15,0,.02,0,.04,0,.06,0,.02-.01.04-.02.07,0,0,0,.02,0,.03,0,.13-.05.29-.08.42-.07.03,0,.06.01.08.04.01.02.03.03.05.04.03-.03.06-.06.09-.08.03-.02.08-.01.12-.02.02,0,.06-.01.07-.03.07-.08.16-.05.24-.04.02.13-.01.23-.11.3-.03.03-.07.05-.1.07-.01,0-.01.02-.02.03,0,.02-.01.05-.02.07-.01.05-.05.08-.1.08-.03,0-.05,0-.07,0-.03,0-.05.02-.05.05,0,.05-.03.09-.06.12M89.56,9.56s0,0-.01,0M72.18,15.48s0-.04-.01-.05c-.03-.08-.15-.1-.21-.03,0,0-.01.03,0,.04,0,.02.09.06.11.06.04,0,.07,0,.12-.01M75.08,13.5s.06-.02.09-.02c-.02-.04-.04-.06-.07-.05-.03,0-.03.04-.02.07"/>
      <path class="cls-3" d="M10.53,16.45h2.35s0-2.36,0-2.36h2.35s0,2.34,0,2.34h2.35s0-2.36,0-2.36h-2.35s0-2.34,0-2.34h-2.35s0,2.36,0,2.36h-2.35s0,2.36,0,2.36h-2.35s0-2.34,0-2.34h2.35s0-2.36,0-2.36h2.35s0-2.36,0-2.36h2.35s0-2.36,0-2.36h2.35s0,2.34,0,2.34h-2.35s0,2.36,0,2.36h2.35s0,2.34,0,2.34h2.35s0-2.36,0-2.36h-2.35s0-2.34,0-2.34h2.35s0-2.36,0-2.36h-2.35s0-2.34,0-2.34h-2.35s0,2.36,0,2.36h-2.35s0,2.36,0,2.36h-2.35s0-2.34,0-2.34h-2.35s0,2.36,0,2.36h2.35s0,2.34,0,2.34h-2.35s0,2.36,0,2.36h-2.35s0-2.34,0-2.34h2.35s0-2.36,0-2.36h-2.35s0-2.34,0-2.34h2.35s0-2.36,0-2.36h2.35s0,2.34,0,2.34h2.35s0-2.36,0-2.36h-2.35s0-2.34,0-2.34h2.35s0,2.34,0,2.34h2.35s0-2.36,0-2.36h-2.35s0-2.34,0-2.34h-2.32C4.68.03-.02,4.77,0,10.59c.02,5.81,4.78,10.56,10.59,10.55h2.31s0-2.36,0-2.36h2.35s0-2.36,0-2.36h-2.35s0,2.36,0,2.36h-2.35"/>
    </g>
  </g>
</svg>