<?xml version="1.0" encoding="UTF-8"?>
<svg id="_デザイン" data-name="デザイン" xmlns="http://www.w3.org/2000/svg" viewBox="0 0 211.45 15.85">
  <g>
    <path d="M4.59,1.7c-.29,1.08-.71,1.88-1.32,2.49,.65,.55,1.52,1.04,2.66,1.4-.08,.08-.15,.2-.2,.31-.04,.08-.05,.11-.09,.11-.02,0-.05,0-.1-.03-1.1-.42-1.94-.93-2.58-1.49-.65,.57-1.48,1.06-2.56,1.46-.05,.01-.08,.03-.1,.03-.04,0-.05-.03-.09-.1-.05-.1-.13-.21-.21-.27,1.21-.41,2.02-.86,2.65-1.42-.64-.66-1.04-1.44-1.36-2.49h-.23c-.63,0-.85,.01-.88,.01-.05,0-.05,0-.05-.05v-.31s0-.05,.05-.05c.03,0,.25,.01,.88,.01h1.66v-.45c0-.34,0-.55-.05-.73,.17,0,.32,.01,.46,.03,.05,0,.08,.03,.08,.06,0,.05-.02,.08-.04,.13-.03,.07-.03,.16-.03,.51v.46h1.76c.63,0,.84-.01,.88-.01,.05,0,.06,0,.06,.05v.31s0,.05-.06,.05c-.03,0-.25-.01-.88-.01h-.31ZM1.71,1.7c.29,.92,.64,1.61,1.25,2.22,.58-.59,.93-1.28,1.18-2.22H1.71Z"/>
    <path d="M7.79,3.3c0-.27,.01-.67,.02-1.01-.27,.37-.56,.73-.88,1.04-.04,.04-.07,.07-.09,.07-.03,0-.05-.03-.08-.09-.05-.11-.11-.19-.17-.25,.79-.72,1.36-1.54,1.72-2.43,.07-.17,.11-.32,.12-.44,.17,.05,.28,.09,.41,.15,.05,.03,.07,.05,.07,.08s-.02,.06-.06,.09c-.05,.03-.09,.1-.15,.25-.14,.31-.3,.63-.49,.94v3.28c0,.7,.01,1,.01,1.03,0,.05,0,.05-.05,.05h-.32c-.05,0-.06,0-.06-.05,0-.03,.01-.33,.01-1.03v-1.68Zm2.15,1.66c0,.32,.05,.44,.26,.5,.17,.05,.42,.05,.83,.05s.64-.04,.81-.18c.13-.11,.22-.39,.25-.98,.08,.07,.18,.13,.29,.17,.12,.05,.11,.05,.1,.17-.06,.56-.16,.84-.38,.99-.23,.17-.61,.22-1.09,.22-.53,0-.87,0-1.1-.09-.23-.09-.39-.26-.39-.7V.98c0-.34,0-.54-.04-.75,.17,0,.31,.02,.44,.04,.06,0,.09,.03,.09,.06,0,.05-.01,.07-.03,.12-.03,.07-.04,.16-.04,.51v1.94c.55-.34,1.08-.75,1.58-1.26,.09-.1,.2-.23,.26-.35,.13,.08,.25,.18,.35,.27,.05,.04,.06,.07,.06,.1,0,.04-.05,.07-.1,.09-.08,.03-.19,.13-.35,.28-.48,.46-1.06,.88-1.8,1.34v1.6Z"/>
    <path d="M19.17,1.19c0,.05,0,.06-.05,.06-.04,0-.25-.01-.87-.01h-.91v.05c0,.39,.01,.54,.01,.57,0,.05,0,.05-.05,.05h-.3s-.05,0-.05-.05c0-.04,.01-.19,.01-.57v-.05h-1.39v.05c0,.38,.01,.53,.01,.57,0,.05,0,.05-.05,.05h-.3s-.05,0-.05-.05c0-.04,.01-.19,.01-.57v-.05h-.88c-.63,0-.84,.01-.87,.01-.05,0-.05,0-.05-.06v-.28s0-.05,.05-.05c.03,0,.25,.01,.87,.01h.88c0-.28,0-.53-.04-.71,.17,0,.3,.01,.41,.03,.06,.01,.09,.03,.09,.07,0,.03-.01,.05-.03,.09-.03,.07-.04,.22-.04,.49v.03h1.39c0-.29,0-.54-.04-.72,.17,0,.29,.02,.41,.04,.04,0,.07,.03,.07,.06s-.01,.05-.03,.09c-.02,.06-.04,.21-.04,.51v.02h.91c.62,0,.83-.01,.87-.01,.05,0,.05,0,.05,.05v.28Zm0,2.67s0,.05-.05,.05c-.04,0-.25-.01-.88-.01h-2.36c-.19,.5-.41,.98-.64,1.4,.87-.07,1.79-.17,2.5-.26-.16-.19-.34-.39-.53-.58-.03-.03-.04-.05,.04-.1l.15-.09c.07-.04,.08-.05,.12-.01,.51,.49,.94,.98,1.28,1.5,.03,.04,.02,.06-.05,.1l-.19,.13s-.07,.04-.09,.04-.03-.01-.05-.04c-.13-.21-.27-.43-.43-.64-1.13,.17-2.54,.33-3.73,.42-.19,.02-.23,.03-.27,.05-.05,.02-.07,.05-.11,.05-.05,0-.07-.02-.09-.08-.04-.13-.07-.28-.11-.43,.27,0,.49,0,.69,0l.39-.02c.25-.47,.47-.96,.65-1.44h-1.03c-.63,0-.84,.01-.88,.01-.05,0-.05,0-.05-.05v-.3s0-.05,.05-.05c.04,0,.25,.01,.88,.01h3.85c.63,0,.84-.01,.88-.01,.05,0,.05,0,.05,.05v.3Zm-.76-1.2s0,.05-.05,.05c-.04,0-.27-.01-.94-.01h-2.33c-.67,0-.9,.01-.93,.01-.05,0-.06,0-.06-.05v-.3s0-.05,.06-.05c.03,0,.26,.01,.93,.01h2.33c.67,0,.9-.01,.94-.01,.05,0,.05,0,.05,.05v.3Z"/>
    <path d="M20.63,3.95c0-.25,.01-.57,.02-.82-.16,.18-.33,.36-.53,.53-.03,.03-.06,.05-.08,.05-.03,0-.05-.03-.07-.07-.05-.11-.09-.17-.15-.24,.58-.49,.93-.95,1.22-1.52,.05-.1,.1-.23,.13-.33,.13,.06,.23,.12,.33,.19,.05,.03,.07,.06,.07,.09s-.02,.05-.06,.08-.1,.09-.15,.19c-.1,.18-.21,.37-.35,.55v2.47c0,.58,.01,.82,.01,.86,0,.05,0,.05-.05,.05h-.31s-.05,0-.05-.05c0-.03,.01-.28,.01-.86v-1.19Zm.9-3.48s-.11,.08-.17,.16c-.3,.43-.67,.82-1.18,1.23-.05,.03-.07,.05-.09,.05-.03,0-.05-.03-.08-.09-.05-.1-.11-.17-.17-.23,.51-.34,.88-.75,1.18-1.18,.09-.13,.13-.22,.15-.3,.13,.06,.25,.13,.35,.19,.05,.03,.07,.06,.07,.09s-.02,.05-.06,.07Zm.71,2.49c-.03,.05-.05,.14-.07,.26-.07,.51-.19,1.12-.42,1.66-.02,.06-.03,.08-.06,.08-.02,0-.05-.01-.09-.03-.09-.05-.17-.07-.26-.08,.28-.61,.4-1.18,.45-1.63,.01-.15,.02-.34,0-.47,.15,.01,.29,.03,.38,.05,.07,.01,.09,.03,.09,.07,0,.03-.01,.05-.03,.09Zm1.74-1.06s0,.05-.05,.05c-.03,0-.18-.01-.69-.01h-.2v2.87c0,.77,.01,1.11,.01,1.15,0,.05,0,.05-.05,.05h-.31s-.05,0-.05-.05c0-.04,.01-.38,.01-1.14V1.94h-.21c-.51,0-.66,.01-.7,.01-.05,0-.05,0-.05-.05v-.27s0-.05,.05-.05c.04,0,.19,.01,.7,.01h.21v-.57c0-.44,0-.63-.05-.86,.17,0,.3,.02,.43,.04,.05,0,.08,.03,.08,.05,0,.04-.02,.07-.03,.12-.03,.08-.04,.22-.04,.64v.57h.2c.51,0,.66-.01,.69-.01,.05,0,.05,0,.05,.05v.27Zm-.5-1.5c.05-.03,.07-.03,.09,0,.17,.21,.29,.39,.42,.65,.02,.04,.01,.06-.04,.09l-.13,.09c-.08,.05-.09,.06-.12,0-.11-.25-.25-.47-.4-.66-.03-.04-.03-.05,.03-.09l.15-.08Zm.21,2.34c.06-.02,.07-.01,.09,.03,.2,.59,.32,1.14,.42,1.75,0,.05,0,.06-.07,.09l-.19,.07c-.09,.03-.11,.03-.11-.03-.08-.64-.2-1.2-.38-1.77-.01-.05-.01-.05,.06-.08l.18-.06Zm2.25-.45c0,.05,0,.06-.05,.06-.03,0-.15-.01-.59-.01h-.03v1.98c0,.46,0,.76,0,1.04,0,.22-.05,.39-.18,.49-.13,.09-.35,.11-.8,.1q-.13,0-.16-.14c-.02-.09-.07-.2-.11-.28,.23,.03,.43,.04,.6,.04,.15,0,.25-.07,.25-.27V2.35h-.18c-.43,0-.56,.01-.59,.01-.05,0-.06,0-.06-.06v-.27s0-.05,.06-.05c.03,0,.16,.01,.59,.01h.61c.44,0,.56-.01,.59-.01,.05,0,.05,0,.05,.05v.27Zm-.15-1.38s0,.05-.05,.05-.14-.01-.52-.01h-.43c-.39,0-.49,.01-.52,.01-.05,0-.05,0-.05-.05v-.28s0-.05,.05-.05c.03,0,.13,.01,.52,.01h.43c.38,0,.48-.01,.52-.01s.05,0,.05,.05v.28Z"/>
    <path d="M26.85,1.92c.04-.05,.05-.06,.1-.03,.32,.18,.65,.43,.94,.72,.03,.03,.02,.05-.02,.11l-.13,.19c-.05,.07-.07,.07-.11,.03-.28-.28-.59-.55-.92-.75-.05-.03-.04-.04,0-.1l.13-.17Zm.51,3.74c-.07,.13-.13,.22-.14,.28-.01,.05-.04,.07-.07,.07-.02,0-.05,0-.09-.04-.1-.07-.19-.15-.3-.24,.13-.15,.24-.29,.38-.52,.16-.3,.42-.81,.7-1.47,.05,.07,.12,.14,.19,.2,.07,.05,.09,.07,.09,.11,0,.03-.01,.05-.03,.11-.23,.53-.48,1.05-.72,1.51Zm-.15-5.4c.05-.05,.06-.05,.1-.03,.32,.21,.63,.47,.89,.73,.03,.04,.03,.05-.01,.11l-.14,.18c-.05,.07-.07,.07-.11,.03-.27-.29-.59-.57-.89-.77-.05-.03-.04-.04,.01-.1l.15-.17Zm5.35,2.26s0,.05-.05,.05-.27-.01-.94-.01h-.99v1.09h.57c.62,0,.83-.01,.86-.01,.05,0,.05,0,.05,.05,0,.03-.01,.19-.01,.63v.57c0,.92,.01,1.07,.01,1.11s0,.05-.05,.05h-.31s-.05,0-.05-.05v-.29h-2.46v.33s0,.05-.05,.05h-.29c-.05,0-.06,0-.06-.05,0-.03,.01-.19,.01-1.12v-.51c0-.51-.01-.67-.01-.71,0-.05,0-.05,.06-.05,.03,0,.25,.01,.87,.01h.46v-1.09h-.9c-.68,0-.91,.01-.94,.01-.05,0-.05,0-.05-.05v-.29s0-.05,.05-.05c.03,0,.26,.01,.94,.01h.9V1.12c-.44,.09-.89,.17-1.35,.23-.14,.02-.15,.01-.19-.11-.03-.1-.08-.18-.13-.24,1.1-.12,2.34-.39,2.94-.63,.15-.06,.25-.11,.35-.17,.11,.08,.2,.16,.29,.25,.04,.04,.05,.06,.05,.09s-.03,.06-.08,.07c-.05,0-.15,.03-.25,.06-.38,.13-.79,.25-1.22,.35v1.17h.99c.67,0,.9-.01,.94-.01s.05,0,.05,.05v.29Zm-.91,1.48h-2.46v1.35h2.46v-1.35Z"/>
    <path d="M36.49,1.62s0,.05-.04,.05c-.03,0-.24-.01-.85-.01h-.47v.43h.36c.57,0,.75-.01,.79-.01,.05,0,.05,0,.05,.05,0,.03-.01,.16-.01,.55v.65c0,.37,.01,.51,.01,.55,0,.05,0,.05-.05,.05-.04,0-.17-.01-.79-.01h-.36v.43h.35c.59,0,.77-.01,.81-.01,.05,0,.05,0,.05,.05v.24s0,.05-.05,.05c-.04,0-.23-.01-.81-.01h-.35v.48c.41-.05,.84-.12,1.22-.2-.03,.08-.04,.14-.05,.2-.01,.14-.01,.13-.15,.16-.77,.15-1.56,.27-2.38,.36-.13,.01-.23,.04-.26,.05-.03,.01-.05,.03-.08,.03-.03,0-.06-.02-.08-.08-.03-.1-.07-.25-.09-.38,.23,0,.42,0,.68-.02,.23-.02,.51-.05,.81-.08v-.53h-.46c-.59,0-.77,.01-.81,.01-.05,0-.05,0-.05-.05v-.24s0-.05,.05-.05c.04,0,.23,.01,.81,.01h.46v-.43h-.33c-.57,0-.75,.01-.79,.01-.05,0-.05,0-.05-.05,0-.04,.01-.17,.01-.55v-.65c0-.39-.01-.52-.01-.55,0-.05,0-.05,.05-.05,.04,0,.23,.01,.79,.01h.33v-.43h-.57c-.6,0-.81,.01-.84,.01-.05,0-.05,0-.05-.05v-.25s0-.05,.05-.05c.03,0,.24,.01,.84,.01h.57v-.44c-.33,.05-.65,.09-1.02,.12-.12,0-.13,.01-.17-.08-.04-.1-.09-.17-.15-.23,.97-.06,1.62-.17,2.29-.35,.12-.03,.23-.07,.31-.13,.11,.08,.19,.15,.26,.22,.04,.04,.05,.06,.05,.09,0,.04-.05,.06-.11,.06s-.16,.03-.26,.05c-.29,.07-.57,.13-.84,.19v.5h.47c.61,0,.81-.01,.84-.01,.04,0,.05,0,.05,.05v.25Zm-1.72,.75h-.8v.48h.8v-.48Zm0,.75h-.8v.51h.8v-.51Zm1.21-.75h-.85v.48h.85v-.48Zm0,.75h-.85v.51h.85v-.51Zm2.23-1.45c.53,0,.69-.01,.73-.01,.05,0,.06,.01,.06,.06-.01,.21-.01,.39-.01,.59-.01,1.06-.06,2.14-.19,2.96-.08,.47-.31,.67-.72,.67-.19,0-.33,0-.47-.01-.11,0-.11-.04-.12-.11,0-.12-.05-.23-.09-.32,.22,.04,.43,.06,.65,.06s.33-.12,.38-.46c.12-.72,.17-1.84,.17-3.06h-.8c-.03,.67-.1,1.32-.24,1.86-.23,.85-.57,1.5-1.27,2.06-.05,.04-.07,.06-.1,.06-.02,0-.05-.02-.09-.06-.07-.08-.17-.14-.27-.18,.75-.47,1.12-1.14,1.36-2.02,.12-.44,.19-1.06,.22-1.72h-.07c-.52,0-.68,.01-.71,.01-.05,0-.06,0-.06-.05v-.28s0-.05,.06-.05c.03,0,.19,.01,.71,.01h.08c0-.25,.01-.51,.01-.75,0-.41,0-.57-.05-.82,.15,0,.29,.02,.43,.05,.05,0,.07,.03,.07,.06,0,.05-.01,.08-.03,.14-.03,.07-.04,.27-.04,.62,0,.23,0,.47,0,.71h.39Z"/>
    <path d="M44.24,3.72c.45,.39,.96,.63,1.78,.8-.07,.07-.13,.15-.17,.24-.05,.12-.07,.11-.19,.07-.87-.27-1.4-.6-1.88-1.12h-1.78c-.42,.43-.96,.82-1.79,1.15-.12,.05-.13,.05-.19-.06-.05-.09-.11-.15-.18-.21,.78-.25,1.32-.56,1.68-.88h-.63c-.62,0-.83,.01-.87,.01s-.05,0-.05-.06v-.25s0-.05,.05-.05,.24,.01,.87,.01h.57V1.24h-.25c-.65,0-.88,.01-.91,.01-.05,0-.05,0-.05-.05v-.26s0-.05,.05-.05c.03,0,.26,.01,.91,.01h.25v-.03c0-.39,0-.61-.04-.78,.16,0,.29,.02,.43,.04,.04,0,.07,.03,.07,.05,0,.05-.03,.08-.04,.12-.02,.07-.03,.22-.03,.57v.03h2.06v-.03c0-.39,0-.61-.04-.78,.15,0,.29,.02,.43,.04,.05,0,.07,.03,.07,.05,0,.05-.02,.08-.04,.13-.02,.06-.03,.21-.03,.57v.03h.33c.65,0,.87-.01,.91-.01,.05,0,.05,0,.05,.05v.26s0,.05-.05,.05c-.04,0-.26-.01-.91-.01h-.33V3.39h.63c.63,0,.83-.01,.87-.01,.05,0,.05,0,.05,.05v.25c0,.05,0,.06-.05,.06-.04,0-.24-.01-.87-.01h-.68Zm1.24,2.1s0,.05-.05,.05c-.04,0-.25-.01-.92-.01h-3.19c-.67,0-.88,.01-.92,.01-.05,0-.05,0-.05-.05v-.27s0-.05,.05-.05c.04,0,.26,.01,.92,.01h1.39v-.61h-.53c-.63,0-.83,.01-.86,.01-.05,0-.05,0-.05-.05v-.25s0-.05,.05-.05c.03,0,.23,.01,.86,.01h.53v-.05c0-.26-.01-.41-.04-.57,.17,0,.29,.02,.41,.03,.04,0,.07,.03,.07,.05s-.01,.05-.03,.09c-.02,.05-.03,.17-.03,.38v.07h.55c.62,0,.82-.01,.86-.01,.05,0,.05,0,.05,.05v.25s0,.05-.05,.05c-.04,0-.25-.01-.86-.01h-.55v.61h1.42c.67,0,.88-.01,.92-.01,.05,0,.05,0,.05,.05v.27Zm-1.57-4.58h-2.06v.49h2.06v-.49Zm0,.8h-2.06v.5h2.06v-.5Zm0,.81h-2.06v.53h2.06v-.53Z"/>
    <path d="M49.49,1.74c-.02,.07-.03,.11-.05,.19-.01,.11-.02,.11-.15,.13l-.12,.03v.29c0,.31,0,.63,0,.88,0,.19-.03,.33-.15,.41-.11,.08-.23,.11-.57,.12-.13,0-.14,0-.17-.13-.03-.09-.06-.17-.11-.23,.19,.03,.33,.03,.47,.02,.11,0,.18-.06,.18-.24v-1.07l-.51,.07v.51c0,.29,.01,.39,.01,.43,0,.05,0,.05-.06,.05h-.24s-.05,0-.05-.05c0-.04,.01-.14,.01-.43v-.47l-.45,.06c-.03,.53-.14,.94-.47,1.39-.03,.05-.05,.07-.08,.07-.02,0-.05-.02-.1-.05-.07-.05-.16-.08-.24-.1,.36-.39,.49-.74,.54-1.26h-.16c-.14,.03-.19,.05-.23,.07-.03,.01-.06,.03-.09,.03s-.05-.02-.07-.07c-.03-.1-.05-.21-.07-.33,.15,0,.27,0,.54-.02,.03,0,.07,0,.1,0,0-.15,0-.32,0-.51v-.35c0-.37-.01-.52-.01-.56,0-.05,0-.05,.05-.05,.04,0,.18,.01,.62,.01h.01c.05-.12,.09-.23,.13-.34,.02-.07,.03-.15,.04-.25,.14,.02,.25,.04,.37,.07,.04,.01,.06,.04,.06,.07s-.02,.05-.05,.08c-.03,.03-.06,.08-.08,.13-.03,.09-.07,.15-.1,.23h.25c.44,0,.58-.01,.61-.01,.05,0,.05,0,.05,.05,0,.04-.01,.19-.01,.56v.61l.31-.06Zm3.02,4.12s0,.05-.05,.05c-.03,0-.24-.01-.86-.01h-4.09c-.62,0-.83,.01-.86,.01-.05,0-.05,0-.05-.05v-.27s0-.05,.05-.05c.03,0,.22,.01,.74,.01v-.91c0-.37-.01-.52-.01-.56,0-.05,0-.05,.05-.05,.03,0,.27,.01,.95,.01h2.31c.67,0,.9-.01,.94-.01,.05,0,.05,0,.05,.05,0,.04-.01,.19-.01,.56v.91c.56,0,.76-.01,.79-.01,.05,0,.05,0,.05,.05v.27Zm-3.67-4.97h-1.26v.69c0,.15,0,.29,0,.43,.42-.05,.86-.1,1.27-.16V.89Zm-.17,3.49h-.88v1.18h.88v-1.18Zm-.65-3.28s.06-.03,.09,0c.15,.14,.26,.28,.37,.45,.03,.04,.02,.06-.03,.09l-.11,.07c-.07,.05-.07,.05-.11,0-.11-.17-.21-.31-.35-.45-.03-.03-.03-.05,.04-.09l.09-.06Zm1.92,3.28h-.9v1.18h.9v-1.18Zm1.64-2.44c.06,0,.09-.01,.11-.02,.02,0,.04-.01,.07-.01s.07,.02,.16,.09c.09,.09,.12,.13,.12,.17,0,.03-.03,.05-.06,.08-.04,.03-.09,.1-.17,.21-.19,.25-.4,.48-.66,.68,.39,.23,.84,.39,1.32,.46-.06,.06-.11,.14-.14,.21-.05,.12-.05,.13-.18,.1-.48-.11-.92-.3-1.3-.57-.36,.22-.79,.39-1.3,.51-.13,.03-.15,.03-.2-.11-.03-.08-.08-.13-.13-.17,.55-.1,1-.26,1.35-.45-.26-.23-.48-.52-.65-.86-.2,0-.28,0-.31,0-.05,0-.05,0-.05-.06v-.22s0-.05,.05-.05c.04,0,.21,.01,.73,.01h1.23Zm-.06-.8c0,.09,.01,.13,.06,.16,.04,.03,.12,.04,.25,.04,.17,0,.25-.03,.3-.1,.05-.07,.06-.18,.07-.43,.07,.06,.13,.09,.22,.13,.1,.04,.11,.05,.09,.17-.03,.25-.09,.35-.17,.43-.08,.07-.28,.12-.53,.12-.2,0-.37-.02-.46-.05-.11-.05-.18-.12-.18-.33V.6h-.75c0,.53-.17,.9-.6,1.13-.05,.03-.08,.04-.1,.04-.03,0-.05-.03-.1-.09-.05-.06-.11-.11-.18-.15,.48-.13,.64-.45,.64-1.01,0-.11-.01-.15-.01-.19,0-.05,0-.05,.05-.05,.04,0,.12,.01,.47,.01h.41c.35,0,.45-.01,.48-.01,.05,0,.05,0,.05,.05,0,.03-.01,.14-.01,.4v.41Zm-1.26,1.1c.17,.27,.37,.51,.61,.69,.29-.21,.51-.45,.66-.69h-1.27Zm.99,2.14h-.94v1.18h.94v-1.18Z"/>
    <path d="M55.15,1.64c0,.39,.01,.53,.01,.57,0,.05,0,.05-.05,.05-.03,0-.15-.01-.51-.01h-.6c-.04,.37-.09,.69-.13,1h.77c.35,0,.43,0,.47,0,.05,0,.06,.01,.06,.06-.01,.12-.02,.26-.03,.39-.08,1.24-.22,1.75-.33,1.96-.11,.21-.3,.33-.6,.33-.11,0-.25,0-.41-.01-.11,0-.11-.01-.13-.15-.02-.11-.06-.22-.09-.29,.22,.03,.37,.05,.56,.05,.12,0,.26-.05,.32-.13,.11-.15,.22-.63,.31-1.87h-.94l-.05,.28q-.02,.08-.22,.05c-.19-.03-.19-.04-.17-.13,.11-.47,.19-.93,.23-1.38,.03-.18,.03-.31,.03-.46,0-.04,.01-.06,.06-.06,.04,0,.15,.01,.43,.01h.67V.82h-.76c-.41,0-.53,.01-.56,.01-.05,0-.05,0-.05-.05v-.28s0-.05,.05-.05c.03,0,.15,.01,.56,.01h.57c.36,0,.48-.01,.51-.01,.05,0,.05,0,.05,.05,0,.03-.01,.18-.01,.57v.57Zm3.14,2.87c.05-.03,.07-.02,.1,.01,.31,.32,.61,.76,.83,1.17,.02,.04,.01,.06-.05,.09l-.17,.08c-.08,.04-.09,.04-.11,0-.09-.17-.19-.35-.29-.52-.82,.17-1.88,.33-2.73,.44-.14,.02-.25,.05-.29,.08-.03,.02-.06,.03-.09,.03s-.06-.02-.08-.08c-.04-.13-.07-.26-.1-.41,.22,.01,.41,.01,.73-.02,.26-.02,.59-.06,.95-.11v-1.02h-.46c-.6,0-.82,.01-.86,.01-.05,0-.05,0-.05-.05,0-.04,.01-.15,.01-.51v-.57c0-.37-.01-.48-.01-.51,0-.05,0-.05,.05-.05,.04,0,.25,.01,.86,.01h.46v-.74c-.35,.03-.71,.06-1.04,.08-.17,.01-.22,.03-.27,.06-.03,.01-.05,.03-.08,.03-.03,0-.05-.02-.07-.08-.03-.11-.06-.27-.07-.39,.19,.01,.41,.02,.57,.01,.24-.37,.43-.78,.51-1,.06-.17,.11-.3,.13-.45,.15,.03,.25,.06,.38,.1,.05,.02,.09,.05,.09,.09,0,.03-.03,.07-.07,.1-.04,.03-.07,.09-.11,.17-.13,.28-.34,.66-.52,.97,.65-.03,1.33-.09,1.82-.14-.17-.19-.34-.39-.5-.54-.03-.03-.03-.05,.04-.09l.14-.09c.06-.04,.07-.04,.11,0,.37,.34,.8,.83,1.07,1.22,.03,.05,.02,.06-.05,.11l-.17,.11s-.06,.04-.08,.04c-.02,0-.03-.01-.05-.04-.07-.13-.17-.27-.27-.41-.32,.04-.72,.08-1.14,.11v.77h.55c.61,0,.82-.01,.85-.01,.05,0,.05,0,.05,.05,0,.03-.01,.15-.01,.51v.57c0,.36,.01,.47,.01,.51,0,.05,0,.05-.05,.05-.03,0-.24-.01-.85-.01h-.55v.96c.36-.05,.71-.11,1.02-.17-.1-.14-.19-.27-.28-.37-.03-.03-.02-.05,.05-.09l.14-.07Zm-1.3-1.61h-.99v1.01h.99v-1.01Zm1.44,0h-1.06v1.01h1.06v-1.01Z"/>
    <path d="M61.04,3.3c0-.27,.01-.67,.02-1.01-.27,.37-.56,.73-.88,1.04-.04,.04-.07,.07-.09,.07-.03,0-.05-.03-.08-.09-.05-.11-.11-.19-.17-.25,.79-.72,1.36-1.54,1.72-2.43,.07-.17,.11-.32,.12-.44,.17,.05,.28,.09,.41,.15,.05,.03,.07,.05,.07,.08s-.02,.06-.06,.09c-.05,.03-.09,.1-.15,.25-.14,.31-.3,.63-.49,.94v3.28c0,.7,.01,1,.01,1.03,0,.05,0,.05-.05,.05h-.32c-.05,0-.06,0-.06-.05,0-.03,.01-.33,.01-1.03v-1.68Zm2.15,1.66c0,.32,.05,.44,.26,.5,.17,.05,.42,.05,.83,.05s.64-.04,.81-.18c.13-.11,.22-.39,.25-.98,.08,.07,.18,.13,.29,.17,.12,.05,.11,.05,.1,.17-.06,.56-.16,.84-.38,.99-.23,.17-.61,.22-1.09,.22-.53,0-.87,0-1.1-.09-.23-.09-.39-.26-.39-.7V.98c0-.34,0-.54-.04-.75,.17,0,.31,.02,.44,.04,.06,0,.09,.03,.09,.06,0,.05-.01,.07-.03,.12-.03,.07-.04,.16-.04,.51v1.94c.55-.34,1.08-.75,1.58-1.26,.09-.1,.2-.23,.26-.35,.13,.08,.25,.18,.35,.27,.05,.04,.06,.07,.06,.1,0,.04-.05,.07-.1,.09-.08,.03-.19,.13-.35,.28-.48,.46-1.06,.88-1.8,1.34v1.6Z"/>
    <path d="M70.86,3.72c.45,.39,.96,.63,1.78,.8-.07,.07-.13,.15-.17,.24-.05,.12-.07,.11-.19,.07-.87-.27-1.4-.6-1.88-1.12h-1.78c-.42,.43-.96,.82-1.79,1.15-.12,.05-.13,.05-.19-.06-.05-.09-.11-.15-.18-.21,.78-.25,1.32-.56,1.68-.88h-.63c-.62,0-.83,.01-.87,.01s-.05,0-.05-.06v-.25s0-.05,.05-.05,.24,.01,.87,.01h.57V1.24h-.25c-.65,0-.88,.01-.91,.01-.05,0-.05,0-.05-.05v-.26s0-.05,.05-.05c.03,0,.26,.01,.91,.01h.25v-.03c0-.39,0-.61-.04-.78,.16,0,.29,.02,.43,.04,.04,0,.07,.03,.07,.05,0,.05-.03,.08-.04,.12-.02,.07-.03,.22-.03,.57v.03h2.06v-.03c0-.39,0-.61-.04-.78,.15,0,.29,.02,.43,.04,.05,0,.07,.03,.07,.05,0,.05-.02,.08-.04,.13-.02,.06-.03,.21-.03,.57v.03h.33c.65,0,.87-.01,.91-.01,.05,0,.05,0,.05,.05v.26s0,.05-.05,.05c-.04,0-.26-.01-.91-.01h-.33V3.39h.63c.63,0,.83-.01,.87-.01,.05,0,.05,0,.05,.05v.25c0,.05,0,.06-.05,.06-.04,0-.24-.01-.87-.01h-.68Zm1.24,2.1s0,.05-.05,.05c-.04,0-.25-.01-.92-.01h-3.19c-.67,0-.88,.01-.92,.01-.05,0-.05,0-.05-.05v-.27s0-.05,.05-.05c.04,0,.26,.01,.92,.01h1.39v-.61h-.53c-.63,0-.83,.01-.86,.01-.05,0-.05,0-.05-.05v-.25s0-.05,.05-.05c.03,0,.23,.01,.86,.01h.53v-.05c0-.26-.01-.41-.04-.57,.17,0,.29,.02,.41,.03,.04,0,.07,.03,.07,.05s-.01,.05-.03,.09c-.02,.05-.03,.17-.03,.38v.07h.55c.62,0,.82-.01,.86-.01,.05,0,.05,0,.05,.05v.25s0,.05-.05,.05c-.04,0-.25-.01-.86-.01h-.55v.61h1.42c.67,0,.88-.01,.92-.01,.05,0,.05,0,.05,.05v.27Zm-1.57-4.58h-2.06v.49h2.06v-.49Zm0,.8h-2.06v.5h2.06v-.5Zm0,.81h-2.06v.53h2.06v-.53Z"/>
    <path d="M79.15,2.54c-.04,.07-.05,.1-.09,.1-.03,0-.05-.01-.11-.03-1.12-.45-2.1-1.08-2.81-2.04-.75,1-1.64,1.62-2.71,2.11q-.11,.05-.19-.06c-.06-.09-.13-.16-.21-.21,1.26-.54,2.18-1.24,2.74-2.04,.11-.16,.15-.23,.19-.37,.15,.02,.31,.05,.43,.09,.06,.02,.09,.05,.09,.09,0,.02-.01,.04-.05,.06-.03,.01-.05,.03-.06,.04,.81,1.06,1.8,1.61,2.96,2-.07,.06-.15,.16-.19,.26Zm-.22,3.23s0,.05-.05,.05c-.03,0-.25-.01-.9-.01h-3.61c-.65,0-.86,.01-.9,.01-.05,0-.05,0-.05-.05v-.29s0-.05,.05-.05c.04,0,.25,.01,.9,.01h1.55v-1.74h-1.32c-.66,0-.88,.01-.92,.01-.05,0-.05,0-.05-.05v-.28s0-.05,.05-.05c.04,0,.26,.01,.92,.01h1.32v-.83h-.41c-.6,0-.8,0-.83,0-.05,0-.05,0-.05-.05v-.28s0-.05,.05-.05c.03,0,.23,.01,.83,.01h1.31c.6,0,.8-.01,.84-.01,.05,0,.05,0,.05,.05v.28s0,.05-.05,.05c-.04,0-.24,0-.84,0h-.49v.83h1.44c.67,0,.88-.01,.92-.01,.05,0,.05,0,.05,.05v.28c0,.06,0,.05-.05,.05-.03,0-.25-.01-.92-.01h-1.44v1.74h1.64c.64,0,.86-.01,.9-.01,.05,0,.05,0,.05,.05v.29Zm-4.33-1.74c.07-.03,.09-.04,.12,0,.21,.3,.35,.58,.49,.92,.02,.05,.02,.07-.05,.1l-.21,.1c-.09,.05-.1,.05-.12,0-.14-.39-.27-.66-.47-.95-.03-.04-.02-.05,.06-.09l.18-.08Zm3.37,.23s-.06,.07-.11,.16c-.15,.29-.31,.57-.47,.8-.04,.05-.05,.07-.08,.07-.02,0-.05-.01-.09-.05-.07-.05-.15-.09-.23-.11,.21-.28,.38-.57,.53-.89,.05-.12,.08-.19,.1-.29,.15,.05,.25,.09,.34,.14,.05,.03,.08,.05,.08,.09,0,.04-.03,.06-.07,.09Z"/>
    <path d="M82.72,.58c-.92,.78-1.21,1.54-1.21,2.49s.29,1.72,1.21,2.49l-.14,.16c-1.03-.79-1.43-1.59-1.43-2.65s.4-1.86,1.43-2.65l.14,.16Z"/>
    <path d="M86.23,1.72c.16,0,.21-.02,.27-.06,.04-.03,.08-.02,.14,.02,.07,.04,.15,.11,.22,.18,.06,.07,.05,.12,.01,.16-.05,.05-.1,.1-.14,.19-.33,.71-.68,1.27-1.05,1.7-.49,.56-1.07,1.05-1.7,1.41-.04,.03-.08,.02-.12-.02-.08-.07-.18-.12-.3-.16,.8-.44,1.29-.86,1.8-1.44,.41-.47,.71-.95,1.02-1.67l-1.57,.04c-.4,.5-.69,.84-1.08,1.17-.06,.05-.11,.05-.17,.01-.06-.04-.16-.09-.28-.11,.69-.55,1.09-1.04,1.42-1.59,.17-.29,.25-.46,.27-.68,.16,.05,.33,.13,.41,.19,.05,.04,.06,.1,0,.14-.06,.04-.12,.11-.16,.19-.08,.13-.14,.23-.22,.34l1.22-.02Z"/>
    <path d="M88.62,1.84c0-.34-.02-.59-.06-.79,.15,.02,.34,.05,.45,.09,.07,.02,.07,.08,.05,.13-.04,.07-.05,.23-.05,.57v.92c0,.28,0,.48,.02,.72,0,.07-.02,.09-.08,.09h-.26c-.05,0-.08-.02-.07-.08,0-.23,.01-.48,.01-.75v-.9Zm2.28,.98c0,.84-.2,1.34-.47,1.69-.26,.32-.71,.63-1.19,.8-.06,.02-.1,.02-.15-.03-.08-.08-.16-.14-.27-.2,.56-.16,1.01-.44,1.27-.75,.27-.33,.44-.77,.44-1.49v-.94c0-.53-.02-.76-.06-.95,.16,.02,.34,.05,.46,.09,.07,.02,.07,.08,.04,.14-.04,.08-.05,.24-.05,.71v.92Z"/>
    <path d="M94.8,4.14h.95c.35,0,.65-.01,1-.02,.05,0,.08,.01,.08,.07v.25c0,.05-.02,.07-.08,.07-.3,0-.66-.02-1-.02h-2.3c-.27,0-.64,.02-.88,.03-.06,0-.08-.01-.09-.08-.01-.08-.03-.21-.03-.32,.35,.03,.66,.03,1,.03h.95V2.09h-.53c-.33,0-.57,.01-.83,.03-.05,0-.05-.02-.07-.08-.01-.07-.02-.22-.02-.32,.29,.02,.53,.03,.9,.03h1.41c.34,0,.62,0,.95-.02,.05,0,.05,.01,.05,.05v.26c0,.05,0,.07-.06,.07-.35-.02-.62-.02-.94-.02h-.47v2.05Z"/>
    <path d="M100.03,4.22c0,.33,0,.64,.02,.99,0,.05-.01,.07-.05,.07-.1,0-.22,0-.32,0-.04,0-.05-.02-.05-.07,.01-.33,.02-.65,.02-.97v-1.61c-.57,.51-1.11,.88-1.71,1.23-.05,.03-.09,.02-.13-.02-.07-.07-.17-.13-.27-.17,.67-.37,1.24-.76,1.69-1.15,.41-.35,.8-.74,1.06-1.05,.23-.28,.33-.44,.38-.62,.15,.08,.29,.16,.38,.25,.05,.05,.04,.12-.02,.15s-.17,.13-.3,.29c-.23,.28-.42,.5-.68,.75v1.94Z"/>
    <path d="M105.11,1.61c.18,0,.25-.02,.29-.06,.05-.04,.09-.04,.15-.01,.07,.04,.17,.14,.23,.22,.04,.05,.03,.1-.02,.15-.05,.04-.09,.08-.13,.16-.23,.51-.54,1.02-.87,1.44,.22,.17,.44,.37,.65,.6,.03,.03,.02,.06,0,.1-.04,.07-.12,.14-.18,.19-.04,.03-.06,.03-.09,0-.19-.21-.4-.43-.61-.6-.56,.64-1.16,1.09-1.89,1.49-.06,.03-.1,.04-.15,0-.09-.08-.19-.13-.3-.17,.83-.41,1.5-.9,2.05-1.53-.23-.19-.53-.38-.86-.56,.06-.08,.12-.15,.19-.22,.03-.03,.04-.04,.09-.02,.25,.13,.55,.33,.81,.51,.3-.39,.6-.89,.79-1.36l-1.61,.03c-.38,.51-.67,.84-1.19,1.26-.05,.04-.09,.05-.14,.02-.07-.06-.16-.11-.26-.15,.75-.57,1.23-1.17,1.56-1.76,.13-.22,.17-.36,.22-.54,.13,.04,.27,.11,.39,.19,.07,.04,.05,.11-.01,.15-.07,.05-.12,.12-.16,.19-.06,.1-.11,.19-.2,.32l1.24-.02Z"/>
    <path d="M107.85,3.32c-.47,0-.7,.05-.74,.05-.05,0-.08-.02-.09-.08-.02-.09-.04-.27-.05-.41,.33,.04,.75,.05,1.2,.05h1.67c.38,0,.78,0,1.19-.02,.07,0,.08,0,.08,.07,0,.08,0,.2,0,.28,0,.06-.02,.07-.08,.07-.41-.01-.81-.01-1.18-.01h-2.01Z"/>
    <path d="M114.28,1.33s0,.04-.04,.04c-.03,0-.16-.01-.57-.01h-.17c.08,.14,.15,.28,.22,.46,.02,.04,0,.05-.05,.07l-.19,.06c-.06,.02-.07,.02-.08-.03-.07-.2-.14-.38-.23-.55h-.45c-.14,.23-.31,.44-.53,.66-.04,.03-.06,.05-.08,.05s-.04-.02-.08-.06c-.05-.06-.1-.1-.16-.14,.37-.33,.6-.63,.78-1.06,.02-.05,.05-.14,.07-.22,.1,.02,.23,.04,.31,.07,.03,.01,.05,.03,.05,.05,0,.03-.02,.05-.04,.08-.03,.02-.05,.05-.09,.13l-.08,.16h.79c.41,0,.54-.01,.57-.01,.04,0,.04,0,.04,.04v.21Zm2.44,1.96s0,.04-.04,.04-.2-.01-.71-.01h-3.24c-.51,0-.68,.01-.71,.01-.04,0-.04,0-.04-.04v-.22s0-.04,.04-.04c.03,0,.2,.01,.71,.01h1.39v-.52h-.81c-.56,0-.75,.01-.77,.01-.04,0-.04,0-.04-.04v-.22s0-.04,.04-.04c.03,0,.22,.01,.77,.01h.81c0-.16,0-.27-.03-.38,.14,0,.25,.02,.34,.04,.03,0,.06,.02,.06,.04,0,.03-.01,.05-.02,.08-.02,.04-.03,.1-.03,.22h.93c.56,0,.74-.01,.77-.01s.04,0,.04,.04v.22s0,.04-.04,.04-.22-.01-.77-.01h-.93v.52h1.53c.51,0,.68-.01,.71-.01s.04,0,.04,.04v.22Zm-.12,.84s0,.04-.04,.04c-.03,0-.21-.01-.74-.01h-.33v.19c0,.22,0,.45,0,.66,0,.17-.04,.29-.15,.38-.1,.06-.24,.1-.64,.1q-.11,0-.14-.11c-.02-.08-.07-.16-.11-.23,.18,.02,.32,.02,.51,.02,.14,0,.2-.05,.2-.22v-.78h-2.29c-.53,0-.71,.01-.74,.01-.04,0-.04,0-.04-.04v-.22s0-.04,.04-.04c.03,0,.21,.01,.74,.01h2.29c0-.21-.02-.35-.04-.47,.13,0,.26,.02,.35,.03,.04,0,.07,.03,.07,.04,0,.04-.02,.06-.03,.1-.02,.05-.02,.13-.02,.3h.33c.53,0,.71-.01,.74-.01,.04,0,.04,0,.04,.04v.22Zm-3.43,.19s.06-.03,.09,0c.23,.18,.42,.38,.61,.62,.02,.03,.02,.04-.02,.08l-.17,.12c-.07,.05-.07,.04-.1,0-.17-.25-.36-.47-.58-.64-.03-.03-.03-.04,.02-.08l.15-.1Zm3.53-2.99s0,.04-.04,.04c-.03,0-.18-.01-.65-.01h-.41c.1,.14,.17,.29,.25,.46,.01,.03,0,.04-.05,.07l-.18,.06c-.06,.02-.07,.02-.09-.03-.07-.19-.15-.38-.26-.56h-.49c-.08,.14-.17,.28-.29,.41-.04,.04-.05,.07-.08,.07-.02,0-.04-.02-.08-.05-.06-.05-.12-.08-.18-.1,.26-.26,.42-.52,.53-.86,.02-.05,.04-.12,.05-.23,.11,.02,.25,.04,.32,.06,.04,.01,.05,.03,.05,.05,0,.03-.02,.05-.04,.07-.03,.03-.04,.05-.08,.13l-.07,.17h1.09c.47,0,.63-.01,.65-.01,.04,0,.04,0,.04,.04v.21Z"/>
    <path d="M122.17,1.47s0,.04-.05,.04c-.03,0-.2-.01-.7-.01h-2.03c-.15,.26-.31,.49-.46,.7,.67-.03,1.39-.07,1.98-.13-.12-.1-.26-.19-.39-.28-.04-.02-.04-.04,0-.08l.11-.1s.05-.03,.09,0c.38,.22,.8,.58,1.11,.88,.03,.03,.04,.04-.02,.09l-.14,.12s-.05,.04-.09,.01c-.12-.14-.25-.27-.38-.39-.94,.1-2.15,.17-3.15,.22-.15,0-.2,.01-.23,.03-.02,.01-.04,.02-.06,.02s-.04-.02-.05-.06c-.02-.08-.05-.22-.07-.33,.17,.01,.36,.02,.55,.01,.12,0,.25,0,.37-.01,.19-.25,.33-.48,.45-.71h-.85c-.51,0-.68,.01-.71,.01-.04,0-.04,0-.04-.04v-.22s0-.04,.04-.04c.03,0,.2,.01,.71,.01h1.41v-.07c0-.28,0-.43-.04-.56,.12,0,.26,.02,.36,.03,.04,0,.07,.03,.07,.05,0,.03-.02,.06-.03,.1-.02,.04-.03,.14-.03,.38v.07h1.53c.51,0,.67-.01,.7-.01,.04,0,.05,0,.05,.04v.22Zm-.84,2.76c0,.26,.01,.64,.01,.74,0,.16-.03,.31-.12,.39-.09,.08-.23,.11-.69,.1-.11,0-.11,0-.14-.09-.03-.09-.05-.16-.1-.24,.2,.02,.34,.02,.51,.02,.15,0,.21-.06,.21-.22v-.43h-2.44v.32c0,.42,.01,.6,.01,.63,0,.04,0,.04-.04,.04h-.25s-.04,0-.04-.04c0-.03,.01-.19,.01-.62v-1.32c0-.44-.01-.6-.01-.63,0-.04,0-.05,.04-.05,.03,0,.22,.01,.75,.01h1.5c.53,0,.72-.01,.75-.01,.04,0,.04,0,.04,.05,0,.03-.01,.22-.01,.65v.68Zm-.32-1.09h-2.44v.41h2.44v-.41Zm0,.68h-2.44v.43h2.44v-.43Z"/>
    <path d="M125.88,1.88c.04,.75,.16,1.35,.35,1.87,.17-.27,.32-.54,.42-.8,.07-.17,.12-.33,.15-.49,.12,.03,.23,.08,.3,.11,.04,.02,.07,.04,.07,.07,0,.04-.04,.07-.07,.1-.04,.04-.07,.13-.13,.26-.16,.38-.37,.75-.6,1.09,.26,.59,.6,.95,.8,.95,.15,0,.24-.21,.26-.78,.05,.05,.12,.1,.19,.14,.1,.05,.1,.06,.09,.16-.06,.59-.23,.85-.53,.85-.35,0-.71-.39-1.04-1.03-.32,.39-.71,.74-1.17,1.01-.04,.02-.06,.03-.08,.03-.03,0-.05-.02-.09-.08-.05-.06-.11-.1-.16-.14,.54-.28,1-.7,1.35-1.15-.24-.58-.39-1.27-.45-2.18h-1.9v.89h.84c.34,0,.44-.01,.47-.01,.04,0,.05,.01,.05,.05-.01,.19-.02,.38-.03,.57-.02,.35-.03,.61-.09,.88-.07,.31-.25,.46-.55,.46-.12,0-.21,0-.34-.02-.09-.01-.09-.02-.11-.13-.02-.09-.04-.17-.09-.23,.21,.03,.35,.05,.5,.05,.14,0,.24-.04,.29-.28,.05-.2,.07-.57,.08-1.05h-1.02c0,.41-.03,.7-.08,1.02-.07,.41-.17,.88-.46,1.35-.03,.04-.04,.07-.06,.07-.02,0-.04-.02-.07-.06-.06-.07-.14-.12-.2-.15,.29-.41,.41-.89,.47-1.33,.05-.36,.07-.7,.07-1.26,0-.75-.01-1.06-.01-1.08,0-.04,0-.05,.05-.05,.03,0,.22,.01,.76,.01h1.41c0-.08,0-.17,0-.26-.01-.35-.01-.45-.04-.66,.12,0,.24,.02,.36,.03,.04,0,.07,.03,.07,.05,0,.04-.01,.07-.02,.09-.02,.05-.04,.17-.03,.47,0,.1,0,.19,0,.28h.92c.54,0,.72-.01,.76-.01,.04,0,.04,0,.04,.05v.23s0,.04-.04,.04c-.03,0-.21-.01-.76-.01h-.9Zm.65-1.13s.05-.04,.09-.02c.18,.11,.37,.28,.54,.47,.03,.03,.03,.04-.02,.09l-.11,.09c-.05,.05-.08,.05-.1,.02-.16-.21-.34-.36-.51-.48-.04-.03-.04-.04,.01-.09l.11-.08Z"/>
    <path d="M131.13,3.08c0,.25-.2,.45-.45,.45s-.45-.21-.45-.45,.21-.45,.45-.45,.45,.2,.45,.45Z"/>
    <path d="M137.46,1.95c-.24,.88-.58,1.54-1.08,2.04,.53,.45,1.24,.85,2.18,1.14-.07,.07-.12,.16-.16,.25-.03,.07-.04,.09-.08,.09-.02,0-.04,0-.08-.02-.9-.34-1.59-.76-2.11-1.22-.53,.47-1.21,.87-2.1,1.2-.04,.01-.06,.02-.08,.02-.03,0-.04-.02-.08-.08-.04-.08-.1-.17-.17-.22,.99-.33,1.65-.7,2.17-1.16-.52-.54-.85-1.18-1.11-2.04h-.19c-.52,0-.69,.01-.72,.01-.04,0-.04,0-.04-.04v-.25s0-.04,.04-.04c.03,0,.2,.01,.72,.01h1.36v-.37c0-.28,0-.45-.04-.6,.14,0,.26,.01,.38,.03,.04,0,.07,.03,.07,.05,0,.04-.02,.07-.03,.1-.03,.05-.03,.13-.03,.41v.38h1.44c.52,0,.69-.01,.72-.01,.04,0,.05,0,.05,.04v.25s0,.04-.05,.04c-.03,0-.2-.01-.72-.01h-.25Zm-2.36,0c.23,.76,.52,1.32,1.02,1.81,.47-.48,.76-1.05,.96-1.81h-1.99Z"/>
    <path d="M140.07,3.26c0-.22,.01-.55,.02-.83-.22,.31-.46,.59-.72,.86-.03,.03-.06,.05-.08,.05-.03,0-.04-.02-.07-.07-.04-.09-.09-.15-.14-.21,.64-.59,1.11-1.26,1.41-1.99,.05-.14,.09-.26,.1-.36,.14,.04,.23,.08,.33,.13,.04,.02,.06,.04,.06,.07s-.02,.05-.05,.07c-.04,.03-.07,.08-.12,.21-.12,.26-.25,.52-.4,.77v2.69c0,.57,.01,.82,.01,.84,0,.04,0,.04-.04,.04h-.26s-.05,0-.05-.04c0-.03,.01-.27,.01-.84v-1.38Zm1.76,1.36c0,.26,.04,.36,.21,.41,.14,.04,.34,.04,.68,.04s.53-.03,.66-.15c.11-.09,.18-.32,.21-.81,.07,.05,.15,.1,.24,.14,.1,.04,.09,.04,.08,.14-.05,.46-.13,.69-.31,.81-.18,.14-.5,.18-.89,.18-.44,0-.71,0-.9-.07-.19-.07-.32-.21-.32-.57V1.36c0-.28,0-.44-.03-.61,.14,0,.25,.02,.36,.03,.05,0,.07,.02,.07,.05,0,.04-.01,.06-.03,.1-.03,.05-.03,.13-.03,.41v1.59c.45-.28,.88-.62,1.29-1.04,.08-.08,.16-.19,.21-.29,.1,.07,.21,.15,.28,.22,.04,.03,.05,.05,.05,.08,0,.03-.04,.06-.08,.08-.07,.02-.15,.1-.28,.23-.39,.38-.87,.72-1.47,1.09v1.31Z"/>
    <path d="M146.65,1.83s0,.04-.04,.04c-.03,0-.17-.01-.6-.01h-.47c0,.27-.01,.52-.02,.75h.54c.25,0,.3-.01,.34-.01,.04,0,.05,.01,.05,.05-.01,.17-.01,.35-.02,.65,0,.74-.05,1.23-.12,1.57-.08,.35-.21,.52-.52,.52-.1,0-.17,0-.27,0-.08,0-.08-.01-.09-.11-.01-.09-.04-.18-.08-.24,.14,.03,.27,.04,.41,.04,.2,0,.23-.13,.28-.43,.05-.31,.09-.8,.1-1.75h-.62c-.07,1.12-.21,1.78-.66,2.46-.03,.04-.04,.06-.06,.06-.02,0-.04-.02-.06-.05-.06-.07-.13-.13-.2-.17,.6-.76,.69-1.66,.71-3.33-.42,0-.56,.01-.59,.01s-.04,0-.04-.04v-.23s0-.04,.04-.04,.17,.01,.61,.01h.35v-.36c0-.28,0-.42-.04-.56,.14,0,.23,.01,.35,.03,.04,0,.07,.03,.07,.05,0,.04-.02,.06-.03,.1-.02,.05-.03,.14-.03,.39v.36h.09c.44,0,.57-.01,.6-.01,.04,0,.04,0,.04,.04v.23Zm2.76-.08s0,.04-.04,.04c-.03,0-.18-.01-.65-.01h-1.55c-.12,.22-.28,.46-.48,.69-.03,.04-.05,.05-.08,.05s-.04-.02-.08-.06c-.05-.05-.1-.09-.16-.11,.46-.47,.67-.9,.81-1.35,.05-.16,.07-.26,.07-.36,.11,.02,.2,.04,.31,.07,.04,.01,.06,.04,.06,.06s-.02,.04-.03,.07c-.04,.04-.07,.11-.1,.22-.05,.14-.1,.28-.17,.44h1.39c.47,0,.62-.01,.65-.01,.04,0,.04,0,.04,.04v.23Zm-2.09,2.84c0,.29,.01,.38,.09,.43,.09,.06,.21,.08,.67,.08,.62,0,.8-.03,.9-.11,.12-.1,.16-.26,.17-.7,.06,.05,.13,.09,.21,.11,.09,.02,.09,.04,.09,.14-.03,.51-.14,.59-.28,.7-.15,.13-.52,.16-1.13,.16-.56,0-.72-.03-.88-.13-.09-.07-.15-.16-.15-.44v-1.39c-.25,.08-.33,.11-.35,.12-.04,.01-.05,0-.07-.04l-.05-.21s0-.04,.03-.05c.03,0,.14-.03,.44-.11v-.28c0-.24,0-.47-.03-.63,.12,0,.22,.01,.32,.03,.04,0,.07,.02,.07,.04,0,.04-.01,.06-.03,.1-.02,.05-.03,.15-.03,.4v.25l.56-.16v-.24c0-.3,0-.45-.04-.66,.15,0,.23,.01,.33,.03,.04,0,.06,.02,.06,.05,0,.03-.01,.05-.02,.09-.02,.06-.03,.15-.03,.41v.23l.39-.12c.45-.13,.59-.2,.63-.2,.02,0,.04,.01,.04,.04v.25c-.03,.52-.07,.98-.14,1.24-.04,.17-.19,.25-.34,.26-.08,0-.17,0-.29,0-.06,0-.07-.01-.08-.1-.01-.08-.03-.15-.07-.22,.14,.03,.23,.04,.34,.04,.09,0,.15-.03,.17-.14,.04-.2,.08-.54,.09-1l-.75,.23v.74c0,.43,.01,.59,.01,.62,0,.03,0,.04-.04,.04h-.23s-.04,0-.04-.04c0-.03,.01-.2,.01-.62v-.65l-.56,.16v1.25Z"/>
    <path d="M151.95,1.9s0,.04-.04,.04c-.03,0-.15-.01-.57-.01h-.67c-.41,0-.54,.01-.57,.01-.03,0-.04,0-.04-.04v-.23s0-.04,.04-.04c.03,0,.16,.01,.57,.01h.67c.41,0,.53-.01,.57-.01,.04,0,.04,0,.04,.04v.23Zm-.21,2.74c0,.63,.01,.73,.01,.76,0,.04,0,.04-.04,.04h-.22s-.04,0-.04-.04v-.22h-.83v.32s0,.04-.04,.04h-.22s-.05,0-.05-.04c0-.03,.01-.14,.01-.8v-.33c0-.33-.01-.45-.01-.48,0-.04,0-.04,.05-.04,.03,0,.13,.01,.46,.01h.42c.34,0,.44-.01,.47-.01,.04,0,.04,0,.04,.04,0,.03-.01,.15-.01,.39v.36Zm.04-3.48s0,.04-.04,.04c-.03,0-.13-.01-.47-.01h-.44c-.34,0-.44,.01-.47,.01-.04,0-.04,0-.04-.04v-.22s0-.04,.04-.04c.03,0,.13,.01,.47,.01h.44c.35,0,.45-.01,.47-.01,.04,0,.04,0,.04,.04v.22Zm-.08,1.47s0,.04-.04,.04c-.03,0-.12-.01-.44-.01h-.38c-.32,0-.41,.01-.44,.01-.04,0-.04,0-.04-.04v-.21s0-.04,.04-.04c.03,0,.12,.01,.44,.01h.38c.32,0,.41-.01,.44-.01,.04,0,.04,0,.04,.04v.21Zm0,.73s0,.04-.04,.04c-.03,0-.12-.01-.44-.01h-.38c-.32,0-.41,.01-.44,.01-.04,0-.04,0-.04-.04v-.21s0-.04,.04-.04c.03,0,.12,.01,.44,.01h.38c.32,0,.41-.01,.44-.01,.04,0,.04,0,.04,.04v.21Zm-.26,.77h-.83v.79h.83v-.79Zm2.67-1.14c.07,0,.09-.01,.12-.02,.02,0,.04-.02,.06-.02s.07,.03,.14,.1c.07,.08,.1,.13,.1,.15,0,.03-.02,.05-.05,.07-.03,.02-.06,.05-.11,.17-.17,.36-.4,.73-.72,1.06,.36,.3,.81,.51,1.31,.69-.07,.07-.12,.13-.16,.21-.03,.07-.04,.09-.08,.09-.02,0-.04-.01-.08-.03-.45-.2-.87-.43-1.23-.74-.34,.31-.76,.58-1.26,.78q-.1,.04-.16-.06c-.04-.07-.09-.13-.17-.18,.54-.18,1-.44,1.37-.76-.3-.32-.55-.71-.74-1.23-.2,0-.29,0-.3,0-.04,0-.04,0-.04-.05v-.22s0-.04,.04-.04c.03,0,.18,.01,.66,.01h1.3Zm-.11-1.06c0,.13,.01,.21,.05,.24,.03,.03,.09,.04,.24,.04,.14,0,.22-.04,.27-.1,.04-.07,.07-.21,.07-.49,.05,.04,.11,.08,.18,.11,.09,.03,.09,.04,.09,.14-.02,.28-.07,.43-.17,.53-.09,.09-.24,.11-.49,.11-.22,0-.34-.02-.4-.06-.11-.06-.15-.18-.15-.39v-.89h-.77c0,.81-.19,1.23-.6,1.54-.04,.04-.07,.05-.09,.05s-.04-.02-.08-.06c-.05-.05-.12-.1-.19-.13,.36-.23,.65-.54,.65-1.3,0-.24-.01-.34-.01-.36,0-.04,0-.04,.04-.04,.03,0,.11,.01,.44,.01h.43c.33,0,.42-.01,.45-.01,.04,0,.04,0,.04,.04,0,.03-.01,.16-.01,.46v.56Zm-1.23,1.35c.16,.42,.38,.76,.65,1.02,.3-.31,.53-.66,.67-1.02h-1.32Z"/>
    <path d="M160.25,1.4s0,.04-.04,.04c-.03,0-.2-.01-.72-.01h-3.15c-.52,0-.69,.01-.72,.01-.04,0-.04,0-.04-.04v-.23s0-.04,.04-.04c.03,0,.2,.01,.72,.01h1.37v-.05c0-.19,0-.34-.04-.47,.13,0,.26,.02,.35,.03,.04,0,.07,.03,.07,.05,0,.04-.02,.07-.04,.1-.02,.04-.02,.13-.02,.29v.05h1.46c.52,0,.69-.01,.72-.01,.04,0,.04,0,.04,.04v.23Zm-1.05,1.83c.55,0,.74-.01,.77-.01,.04,0,.04,0,.04,.04,0,.03-.01,.2-.01,.61v.46c0,.26,0,.49,0,.7,0,.14-.02,.25-.12,.33-.09,.08-.21,.1-.6,.1-.1,0-.11,0-.13-.11-.02-.08-.05-.16-.09-.22,.16,.02,.31,.02,.44,.02,.1,0,.17-.05,.17-.2v-1.44h-3.54v1.29c0,.45,.01,.63,.01,.66,0,.04,0,.04-.04,.04h-.26s-.04,0-.04-.04c0-.03,.01-.19,.01-.65v-.98c0-.41-.01-.55-.01-.58,0-.04,0-.04,.04-.04,.03,0,.22,.01,.76,.01h2.59Zm0-.75c0,.25,.01,.32,.01,.35s0,.04-.04,.04c-.03,0-.2-.01-.7-.01h-1.13c-.5,0-.67,.01-.7,.01-.04,0-.04,0-.04-.04s.01-.1,.01-.35v-.31c0-.25-.01-.32-.01-.35,0-.04,0-.04,.04-.04,.03,0,.2,.01,.7,.01h1.13c.5,0,.67-.01,.7-.01,.04,0,.04,0,.04,.04,0,.03-.01,.1-.01,.35v.31Zm-.35,1.98c0,.5,.01,.57,.01,.59,0,.04,0,.04-.04,.04h-.23s-.05,0-.05-.04v-.16h-1.31v.21s0,.04-.04,.04h-.23s-.04,0-.04-.04c0-.03,.01-.11,.01-.62v-.23c0-.2-.01-.29-.01-.32,0-.04,0-.04,.04-.04,.03,0,.16,.01,.58,.01h.71c.41,0,.54-.01,.58-.01,.04,0,.04,0,.04,.04,0,.03-.01,.11-.01,.27v.26Zm.03-2.41h-1.95v.55h1.95v-.55Zm-.34,2.09h-1.31v.51h1.31v-.51Z"/>
    <path d="M161.73,3.26c0-.21,0-.44,0-.7-.16,.27-.35,.53-.56,.78-.03,.03-.05,.05-.07,.05-.02,0-.03-.02-.05-.05-.05-.1-.1-.16-.15-.22,.56-.6,.95-1.37,1.2-2.08,.05-.14,.08-.26,.09-.37,.14,.04,.25,.08,.34,.13,.04,.02,.06,.03,.06,.06,0,.03-.02,.05-.05,.08-.04,.03-.06,.08-.11,.2-.11,.27-.23,.56-.38,.84v2.68c0,.57,.01,.82,.01,.84,0,.04,0,.04-.04,.04h-.27s-.04,0-.04-.04c0-.03,.01-.27,.01-.84v-1.38Zm4.03-1.01s0,.04-.04,.04c-.03,0-.21-.01-.75-.01h-.01v1.84c0,.3,0,.58,0,.84,0,.21-.03,.3-.15,.39-.1,.08-.31,.09-.78,.09q-.11,0-.14-.1c-.03-.1-.07-.19-.11-.26,.2,.02,.45,.03,.62,.03s.22-.05,.22-.21V2.28h-1.25c-.54,0-.72,.01-.75,.01-.04,0-.04,0-.04-.04v-.24s0-.04,.04-.04c.03,0,.21,.01,.75,.01h1.25v-.64c0-.33,0-.5-.03-.66,.13,0,.25,.02,.36,.03,.04,0,.07,.03,.07,.05,0,.04-.02,.07-.04,.1-.02,.06-.03,.16-.03,.47v.65h.01c.54,0,.72-.01,.75-.01,.04,0,.04,0,.04,.04v.24Zm-2.67,.66s.04-.03,.07,0c.28,.32,.48,.6,.69,.99,.02,.03,.01,.04-.04,.08l-.16,.1c-.07,.04-.08,.04-.1,0-.19-.4-.38-.69-.64-1-.03-.03-.03-.04,.04-.08l.15-.09Z"/>
    <path d="M168.06,1.78c.47,0,.63-.01,.65-.01,.04,0,.05,.01,.05,.05-.01,.16-.01,.32-.01,.48-.01,.88-.05,1.77-.16,2.42-.07,.41-.25,.58-.59,.58-.15,0-.25,0-.37-.02q-.1-.01-.11-.13c-.01-.09-.03-.17-.07-.24,.17,.03,.34,.05,.52,.05s.26-.08,.3-.39c.09-.57,.14-1.49,.15-2.49h-.77c-.03,.54-.1,1.07-.21,1.51-.16,.65-.37,1.15-.82,1.7-.03,.04-.05,.06-.07,.06-.02,0-.03-.02-.07-.05-.08-.09-.14-.15-.22-.2,.48-.51,.7-.95,.87-1.63,.11-.43,.16-.89,.18-1.39h-.18c-.47,0-.62,.01-.65,.01-.04,0-.04,0-.04-.04v-.23s0-.04,.04-.04c.03,0,.18,.01,.65,.01h.2c0-.16,0-.33,0-.5,0-.34-.01-.47-.04-.67,.12,0,.26,.02,.38,.03,.04,0,.06,.03,.06,.05,0,.03-.02,.07-.03,.12-.02,.06-.03,.21-.03,.5,0,.15,0,.31-.01,.46h.4Zm2.97,1.82c0,1.37,.01,1.61,.01,1.64,0,.04,0,.04-.04,.04h-.26s-.04,0-.04-.04v-.4h-1.13v.44s0,.04-.04,.04h-.24s-.05,0-.05-.04c0-.03,.01-.27,.01-1.66v-.96c0-.98-.01-1.23-.01-1.25,0-.04,0-.04,.05-.04,.03,0,.15,.01,.55,.01h.6c.39,0,.52-.01,.55-.01,.04,0,.04,0,.04,.04,0,.03-.01,.27-.01,1.12v1.08Zm-.33-1.93h-1.13v2.88h1.13V1.67Z"/>
    <path d="M172.33,3.33c0-.21,0-.53,.01-.8-.13,.21-.28,.42-.45,.63-.03,.04-.05,.05-.07,.05-.02,0-.03-.02-.05-.06-.03-.09-.08-.17-.13-.22,.51-.61,.82-1.22,1.06-1.94,.04-.14,.07-.26,.07-.36,.12,.03,.23,.06,.33,.11,.03,.02,.06,.03,.06,.07s-.02,.06-.05,.08c-.03,.03-.06,.08-.1,.2-.11,.3-.22,.6-.37,.89v2.69c0,.57,.01,.82,.01,.85,0,.03,0,.04-.04,.04h-.26s-.04,0-.04-.04,.01-.28,.01-.85v-1.33Zm4.38-1.97s0,.04-.04,.04c-.03,0-.21-.01-.76-.01h-.41v1.01h.2c.54,0,.74-.01,.77-.01,.04,0,.04,0,.04,.04,0,.03-.01,.21-.01,.86v.99c0,.89,.01,1.06,.01,1.09,0,.04,0,.04-.04,.04h-.25s-.04,0-.04-.04v-.27h-2.59v.29s0,.04-.04,.04h-.24s-.04,0-.04-.04c0-.03,.01-.21,.01-1.11v-.9c0-.74-.01-.92-.01-.95,0-.04,0-.04,.04-.04,.03,0,.22,.01,.76,.01h.17V1.4h-.25c-.56,0-.74,.01-.76,.01-.04,0-.04,0-.04-.04v-.22s0-.05,.04-.05c.03,0,.21,.01,.76,.01h1.92c.56,0,.74-.01,.76-.01,.04,0,.04,0,.04,.05v.22Zm-2.48,1.32h-.65v2.13h.65V2.69Zm.96-1.29h-.65v1.01h.65V1.4Zm0,1.29h-.65v2.13h.65V2.69Zm.99,0h-.68v2.13h.68V2.69Z"/>
    <path d="M177.83,3.25c0-.21,0-.52,.01-.79-.14,.22-.3,.44-.49,.66-.03,.04-.05,.05-.07,.05-.02,0-.03-.02-.05-.05-.04-.09-.09-.16-.14-.21,.52-.6,.86-1.2,1.11-1.91,.05-.14,.08-.26,.08-.36,.11,.03,.22,.06,.33,.1,.04,.02,.06,.03,.06,.06,0,.03-.02,.05-.04,.08-.03,.03-.07,.08-.11,.21-.11,.29-.23,.57-.37,.84v2.71c0,.58,.01,.83,.01,.86,0,.04,0,.04-.04,.04h-.26s-.04,0-.04-.04c0-.03,.01-.28,.01-.86v-1.38Zm4.31,1.93s0,.04-.04,.04c-.03,0-.2-.01-.74-.01h-2.3v.26s0,.04-.04,.04h-.24s-.04,0-.04-.04c0-.03,.01-.19,.01-.58V2.84c0-.36,0-.52-.04-.7,.14,0,.24,.02,.35,.03,.04,0,.07,.03,.07,.05s-.02,.05-.03,.1c-.02,.06-.03,.18-.03,.51v2.09h2.3c.54,0,.71-.01,.74-.01,.04,0,.04,0,.04,.05v.22Zm-.03-3.65s0,.04-.04,.04c-.03,0-.21-.01-.76-.01h-.74c-.04,.19-.08,.37-.11,.53h.54c.44,0,.58-.01,.61-.01,.04,0,.04,0,.04,.04,0,.03-.01,.18-.01,.6v1.17c0,.42,.01,.57,.01,.6,0,.04,0,.04-.04,.04-.03,0-.17-.01-.61-.01h-.75c-.44,0-.58,.01-.61,.01-.04,0-.04,0-.04-.04,0-.03,.01-.18,.01-.6v-1.17c0-.42-.01-.57-.01-.6,0-.04,0-.04,.04-.04,.02,0,.15,.01,.5,.01,.04-.17,.08-.35,.11-.53h-.66c-.55,0-.73,.01-.76,.01s-.04,0-.04-.04v-.22s0-.04,.04-.04,.21,.01,.76,.01h.71l.04-.29c.02-.12,.02-.2,.01-.33,.11,0,.23,.02,.33,.04,.05,.01,.07,.03,.07,.06,0,.02-.01,.04-.03,.07-.03,.04-.04,.08-.05,.15-.02,.09-.03,.2-.05,.3h.69c.55,0,.73-.01,.76-.01,.04,0,.04,0,.04,.04v.22Zm-.78,.81h-1.43v.46h1.43v-.46Zm0,.71h-1.43v.47h1.43v-.47Zm0,.72h-1.43v.5h1.43v-.5Z"/>
    <path d="M183.64,3.26c0-.22,.01-.55,.02-.83-.22,.31-.46,.59-.72,.86-.03,.03-.06,.05-.08,.05-.03,0-.04-.02-.07-.07-.04-.09-.09-.15-.14-.21,.64-.59,1.11-1.26,1.41-1.99,.05-.14,.09-.26,.1-.36,.14,.04,.23,.08,.33,.13,.04,.02,.06,.04,.06,.07s-.02,.05-.05,.07c-.04,.03-.07,.08-.12,.21-.12,.26-.25,.52-.4,.77v2.69c0,.57,.01,.82,.01,.84,0,.04,0,.04-.04,.04h-.26s-.05,0-.05-.04c0-.03,.01-.27,.01-.84v-1.38Zm1.76,1.36c0,.26,.04,.36,.21,.41,.14,.04,.34,.04,.68,.04s.53-.03,.66-.15c.11-.09,.18-.32,.21-.81,.07,.05,.15,.1,.24,.14,.1,.04,.09,.04,.08,.14-.05,.46-.13,.69-.31,.81-.18,.14-.5,.18-.89,.18-.44,0-.71,0-.9-.07-.19-.07-.32-.21-.32-.57V1.36c0-.28,0-.44-.03-.61,.14,0,.25,.02,.36,.03,.05,0,.07,.02,.07,.05,0,.04-.01,.06-.03,.1-.03,.05-.03,.13-.03,.41v1.59c.45-.28,.88-.62,1.29-1.04,.08-.08,.16-.19,.21-.29,.1,.07,.21,.15,.28,.22,.04,.03,.05,.05,.05,.08,0,.03-.04,.06-.08,.08-.07,.02-.15,.1-.28,.23-.39,.38-.87,.72-1.47,1.09v1.31Z"/>
    <path d="M191.62,2.72c.07,0,.11-.01,.14-.02,.02,0,.04-.01,.05-.01,.04,0,.07,.02,.15,.1,.07,.07,.1,.12,.1,.15,0,.03-.02,.05-.05,.07-.04,.03-.07,.05-.11,.13-.29,.48-.64,.88-1.06,1.21,.59,.4,1.32,.65,2.17,.82-.07,.06-.12,.14-.16,.24-.04,.1-.05,.1-.15,.08-.86-.22-1.56-.51-2.13-.93-.57,.4-1.26,.7-2.08,.92-.1,.03-.1,.02-.15-.08-.04-.08-.09-.15-.15-.21,.85-.21,1.55-.48,2.1-.85-.4-.35-.71-.78-.96-1.34-.44,0-.6,.01-.62,.01-.04,0-.04,0-.04-.04v-.24s0-.04,.04-.04c.03,0,.21,.01,.76,.01h.9v-.87h-1.34c-.52,0-.7,.01-.72,.01-.04,0-.04,0-.04-.04v-.24s0-.04,.04-.04c.03,0,.2,.01,.72,.01h1.34v-.23c0-.34,0-.47-.04-.66,.13,0,.27,.02,.38,.03,.04,0,.08,.03,.08,.05,0,.03-.02,.07-.03,.11-.02,.05-.04,.14-.04,.44v.26h1.43c.52,0,.7-.01,.72-.01,.04,0,.04,0,.04,.04v.24s0,.04-.04,.04c-.03,0-.2-.01-.72-.01h-1.43v.87h.9Zm-1.92,.3c.22,.47,.52,.84,.87,1.14,.4-.32,.72-.69,.99-1.14h-1.86Z"/>
    <path d="M195.1,2.01s0,.04-.04,.04c-.03,0-.13-.01-.46-.01h-.03v1.11c.15-.06,.31-.13,.48-.22-.01,.07-.02,.15-.02,.22,0,.1,0,.11-.08,.15-.13,.07-.26,.12-.39,.17v.63c0,.35,.01,.61,.01,.82,0,.26-.04,.35-.14,.43-.1,.08-.24,.1-.57,.1-.1,0-.12,0-.14-.11-.02-.09-.06-.17-.1-.23,.12,.02,.29,.02,.43,.02s.19-.05,.19-.23v-1.3c-.09,.04-.19,.07-.28,.1-.12,.04-.18,.08-.21,.11-.02,.02-.04,.03-.07,.03-.03,0-.05-.02-.06-.05-.03-.09-.07-.2-.09-.32,.15-.03,.28-.07,.49-.13,.06-.02,.14-.04,.22-.08v-1.24h-.16c-.35,0-.45,.01-.48,.01-.04,0-.04,0-.04-.04v-.23s0-.04,.04-.04c.03,0,.13,.01,.48,.01h.16v-.44c0-.33-.01-.48-.04-.66,.13,0,.25,.01,.35,.03,.04,0,.07,.03,.07,.04,0,.04-.02,.07-.03,.11-.03,.05-.03,.16-.03,.47v.45h.03c.33,0,.43-.01,.46-.01,.04,0,.04,0,.04,.04v.23Zm2.45,1.61c.06,0,.09-.01,.11-.02,.02-.01,.03-.01,.05-.01,.04,0,.08,.03,.14,.1,.05,.07,.09,.11,.09,.14s-.02,.04-.05,.06c-.04,.02-.07,.05-.14,.17-.17,.26-.37,.48-.59,.69,.38,.23,.82,.39,1.33,.51-.04,.04-.1,.11-.13,.2-.03,.07-.04,.09-.08,.09-.02,0-.04,0-.08-.02-.46-.14-.9-.32-1.29-.59-.34,.25-.74,.45-1.22,.6-.04,.01-.06,.02-.08,.02-.03,0-.05-.02-.08-.08-.03-.06-.09-.13-.14-.16,.49-.13,.93-.32,1.28-.57-.23-.2-.44-.44-.63-.73-.23,.52-.57,.98-1.06,1.39-.04,.03-.06,.04-.08,.04-.02,0-.04-.02-.07-.06-.05-.07-.11-.11-.16-.15,.72-.54,1.14-1.24,1.33-2.05h-.01c-.53,0-.72,.01-.75,.01-.03,0-.04,0-.04-.04v-.21s0-.04,.04-.04c.03,0,.21,.01,.75,.01h.07c.03-.14,.04-.29,.05-.44h-.05c-.53,0-.71,.01-.74,.01-.04,0-.04,0-.04-.04v-.2s0-.04,.04-.04c.03,0,.21,.01,.74,.01h1.18c.16-.26,.25-.46,.34-.69,.04-.1,.07-.19,.08-.28,.11,.02,.22,.05,.31,.09,.03,.01,.05,.03,.05,.06s-.02,.04-.04,.07c-.03,.03-.05,.05-.07,.1-.1,.21-.2,.43-.34,.65,.51,0,.68-.01,.71-.01,.04,0,.04,0,.04,.04v.2s0,.04-.04,.04c-.03,0-.21-.01-.74-.01h-1.12c-.02,.15-.03,.3-.06,.44h1.24c.53,0,.72-.01,.75-.01,.04,0,.04,0,.04,.04v.21s0,.04-.04,.04c-.03,0-.21-.01-.75-.01h-1.3c-.03,.15-.07,.29-.11,.42h1.34Zm.53-2.69s-.11,.02-.2,.03c-.81,.16-1.59,.23-2.39,.27-.11,0-.11,0-.16-.1-.03-.07-.07-.13-.11-.19,.9-.01,1.72-.1,2.39-.24,.1-.02,.22-.06,.28-.09,.09,.06,.19,.14,.24,.19,.03,.03,.04,.05,.04,.07,0,.03-.04,.05-.09,.05Zm-2.34,.45c.07-.03,.07-.02,.09,.01,.12,.17,.22,.36,.28,.53,.02,.04,.01,.04-.05,.07l-.14,.06c-.06,.03-.08,.03-.09-.02-.07-.2-.15-.37-.26-.53-.03-.04-.02-.05,.04-.08l.12-.05Zm.51,2.48c.2,.29,.41,.52,.66,.71,.25-.21,.44-.44,.59-.71h-1.25Zm.38-2.53c.07-.03,.08-.02,.1,.01,.11,.19,.2,.37,.26,.56,.01,.04,.01,.05-.05,.08l-.13,.05c-.08,.03-.09,.03-.1-.02-.05-.2-.14-.38-.23-.56-.02-.03-.01-.04,.05-.07l.11-.04Z"/>
    <path d="M203.89,3.9s0,.04-.04,.04c-.03,0-.17,0-.53-.01v.35c0,.34,.01,.46,.01,.49,0,.04,0,.04-.04,.04h-.24s-.04,0-.04-.04v-.17h-1.37c0,.15,0,.29,0,.4,0,.24-.04,.34-.15,.41-.12,.08-.32,.1-.74,.1-.1,0-.1,0-.14-.1-.03-.09-.07-.16-.13-.25,.19,.02,.29,.03,.48,.02,.29,0,.35-.04,.35-.26v-.32h-.94c-.56,0-.74,.01-.77,.01-.04,0-.04,0-.04-.04v-.19s0-.04,.04-.04c.03,0,.21,.01,.77,.01h.94v-.41h-1.5c-.51,0-.68,.01-.7,.01-.04,0-.04,0-.04-.04v-.19s0-.04,.04-.04c.03,0,.2,.01,.7,.01h1.5v-.38h-.94c-.55,0-.74,.01-.77,.01-.04,0-.04,0-.04-.04v-.2s0-.04,.04-.04c.03,0,.22,.01,.77,.01h.94v-.37h-.72c-.54,0-.74,.01-.77,.01-.04,0-.04,0-.04-.05,0-.03,.01-.09,.01-.3v-.23c0-.21-.01-.27-.01-.3,0-.04,0-.04,.04-.04,.03,0,.22,.01,.77,.01h.72v-.34h-1.46c-.51,0-.69,.01-.71,.01-.04,0-.04,0-.04-.04v-.2s0-.04,.04-.04c.03,0,.2,.01,.71,.01h1.46c0-.28,0-.43-.04-.57,.14,0,.24,.01,.35,.03,.04,0,.07,.02,.07,.04,0,.04-.02,.07-.03,.1-.02,.05-.03,.14-.03,.38h0s1.46,.01,1.46,.01c.51,0,.68-.01,.71-.01,.04,0,.04,0,.04,.04v.2s0,.04-.04,.04c-.03,0-.2-.01-.71-.01h-1.46v.34h.74c.55,0,.74-.01,.77-.01,.04,0,.04,0,.04,.04,0,.03-.01,.09-.01,.3v.23c0,.21,.01,.27,.01,.3,0,.04,0,.05-.04,.05-.03,0-.22-.01-.77-.01h-.74v.37h.88c.56,0,.75-.01,.78-.01,.04,0,.04,0,.04,.04,0,.03-.01,.14-.01,.48v.12c.37,0,.51-.01,.53-.01,.03,0,.04,0,.04,.04v.19Zm-2.58-1.89h-1.22v.42h1.22v-.42Zm1.57,0h-1.25v.42h1.25v-.42Zm.12,1.29h-1.37v.38h1.37v-.38Zm0,.64h-1.37v.41h1.37v-.41Z"/>
    <path d="M207.29,4.12c.52,.42,1.15,.7,2.08,.92-.05,.05-.1,.12-.14,.2q-.05,.1-.16,.07c-.87-.24-1.5-.57-2.05-1.08,0,.82,.03,1.17,.03,1.26,0,.04,0,.04-.04,.04h-.26s-.04,0-.04-.04c0-.09,.02-.42,.03-1.25-.54,.53-1.14,.83-1.97,1.09-.1,.03-.11,.03-.16-.07-.04-.08-.09-.14-.15-.19,.89-.23,1.54-.52,2-.96h-1.13c-.52,0-.69,.01-.71,.01-.04,0-.05,0-.05-.04v-.2s0-.04,.05-.04c.03,0,.2,.01,.71,.01h1.39v-.44h-.81c-.56,0-.75,.01-.77,.01-.04,0-.04,0-.04-.04v-.19s0-.05,.04-.05c.03,0,.22,.01,.77,.01h.81v-.42h-1.08c-.54,0-.72,.01-.75,.01-.04,0-.05,0-.05-.04v-.2s0-.04,.05-.04c.03,0,.21,.01,.75,.01h.44c-.06-.19-.15-.35-.23-.47-.03-.04-.02-.05,.04-.07l.14-.05c.05-.02,.07-.02,.09,.01,.1,.15,.2,.35,.29,.58h1.01c.08-.13,.13-.24,.2-.4,.03-.07,.04-.13,.07-.22,.1,.02,.18,.04,.29,.08,.03,.01,.06,.03,.06,.06s-.03,.05-.05,.07c-.03,.02-.05,.07-.08,.11-.05,.09-.1,.19-.18,.3h.47c.55,0,.72-.01,.76-.01,.04,0,.04,0,.04,.04v.2s0,.04-.04,.04c-.03,0-.21-.01-.76-.01h-1.17v.42h.92c.56,0,.74-.01,.77-.01,.04,0,.04,0,.04,.05v.19s0,.04-.04,.04c-.03,0-.22-.01-.77-.01h-.92v.44h1.5c.52,0,.69-.01,.72-.01,.04,0,.04,0,.04,.04v.2s0,.04-.04,.04c-.03,0-.2-.01-.72-.01h-1.24Zm2-2.34s0,.04-.04,.04c-.03,0-.2-.01-.72-.01h-3.21c-.52,0-.69,.01-.71,.01-.04,0-.05,0-.05-.04v-.2s0-.05,.05-.05c.03,0,.2,.01,.71,.01h.19c-.12-.24-.24-.41-.39-.58-.02-.03-.02-.04,.03-.07l.15-.08s.05-.02,.08,0c.14,.15,.27,.34,.39,.55,.02,.03,.01,.04-.03,.07l-.18,.1h.72v-.41c0-.2,0-.35-.03-.5,.11,0,.25,.02,.33,.03,.03,0,.05,.02,.05,.05s0,.04-.02,.08c-.02,.04-.03,.14-.03,.34v.41h.58v-.4c0-.2,0-.35-.04-.5,.11,0,.25,.02,.34,.03,.03,0,.05,.02,.05,.05,0,.02-.01,.04-.02,.07-.02,.04-.03,.14-.03,.34v.41h.51c.12-.17,.21-.33,.3-.51,.04-.08,.07-.15,.09-.26,.11,.03,.23,.07,.31,.1,.03,.01,.05,.03,.05,.05,0,.03-.01,.05-.04,.07-.04,.03-.07,.07-.09,.11-.09,.14-.19,.29-.29,.43h.23c.52,0,.69-.01,.72-.01,.04,0,.04,0,.04,.05v.2Z"/>
    <path d="M210.03,.43c1.03,.79,1.43,1.59,1.43,2.65s-.4,1.86-1.43,2.65l-.14-.16c.92-.78,1.21-1.54,1.21-2.49s-.29-1.72-1.21-2.49l.14-.16Z"/>
  </g>
  <g>
    <path d="M112.67,10.1c.07-.03,.08-.03,.12,.03,.17,.22,.31,.45,.43,.67,.16-.19,.3-.39,.42-.6,.07-.13,.11-.25,.14-.33,.15,.07,.23,.11,.33,.19,.04,.03,.06,.05,.06,.09s-.03,.06-.06,.08c-.06,.03-.14,.15-.18,.22-.17,.26-.33,.49-.53,.71,.36,.79,.5,1.68,.5,2.85,0,1.38-.27,1.76-.9,1.76-.11,0-.23,0-.38-.01q-.09,0-.12-.14c-.03-.13-.07-.22-.11-.29,.23,.03,.41,.05,.56,.05,.38,0,.57-.18,.57-1.34,0-.46-.02-.87-.07-1.26-.31,.55-.67,.98-1.06,1.34-.05,.04-.07,.06-.09,.06-.03,0-.05-.03-.08-.08-.05-.09-.11-.17-.16-.21,.55-.45,.98-.96,1.32-1.6-.06-.29-.14-.57-.24-.83-.21,.19-.45,.39-.75,.6-.05,.03-.07,.05-.1,.05s-.04-.03-.08-.09c-.05-.09-.11-.15-.17-.19,.35-.23,.66-.47,.92-.74-.1-.19-.21-.37-.34-.55-.05-.07-.11-.15-.18-.23-.02-.03-.03-.04-.03-.06,0-.01,.02-.03,.07-.05l.19-.09Zm4.57,3.98c.05-.03,.07-.03,.1,.02,.35,.51,.57,.94,.79,1.53,.01,.04,0,.07-.07,.09l-.19,.09c-.08,.04-.09,.02-.11-.03-.07-.22-.15-.42-.23-.61-.99,.19-1.83,.32-2.87,.43-.19,.02-.25,.04-.29,.07-.05,.03-.07,.05-.11,.05s-.07-.03-.08-.08c-.05-.14-.08-.28-.11-.43,.26,0,.49,0,.67-.01,.38-.03,.76-.07,1.14-.11v-1.54h-1.03v.34s0,.05-.05,.05h-.29s-.05,0-.05-.05c0-.04,.01-.19,.01-1.2v-.58c0-.58-.01-.75-.01-.79,0-.05,0-.05,.05-.05,.04,0,.25,.01,.87,.01h.5v-.47c0-.45,0-.63-.05-.83,.17,0,.29,.01,.43,.03,.05,0,.08,.03,.08,.06s-.01,.07-.03,.12c-.02,.07-.04,.21-.04,.61v.47h.57c.62,0,.84-.01,.88-.01,.05,0,.05,0,.05,.05,0,.03-.01,.21-.01,.69v.65c0,.98,.01,1.15,.01,1.18,0,.04,0,.05-.05,.05h-.29c-.05,0-.06,0-.06-.05v-.3h-1.1v1.49c.37-.05,.75-.11,1.1-.19-.1-.2-.22-.4-.36-.61-.03-.05-.02-.05,.05-.09l.17-.08Zm-1.36-2.45h-1.03v1.57h1.03v-1.57Zm1.49,0h-1.1v1.57h1.1v-1.57Z"/>
    <path d="M124.7,15.39s0,.05-.05,.05c-.04,0-.24-.01-.87-.01h-4.06c-.62,0-.82,.01-.86,.01-.05,0-.05,0-.05-.05v-.33s0-.05,.05-.05c.03,0,.24,.01,.86,.01h2.32c.36-.84,.61-1.64,.8-2.33,.08-.3,.11-.47,.13-.69,.17,.05,.31,.09,.47,.15,.05,.02,.07,.04,.07,.07,0,.04-.03,.08-.06,.11-.05,.06-.09,.15-.13,.29-.24,.82-.5,1.59-.84,2.4h1.3c.62,0,.83-.01,.87-.01,.05,0,.05,0,.05,.05v.33Zm-.33-3.89c0,.05,0,.06-.05,.06-.03,0-.25-.01-.92-.01h-3.27c-.66,0-.88,.01-.92,.01-.05,0-.05,0-.05-.06v-.32s0-.05,.05-.05c.04,0,.26,.01,.92,.01h1.36v-.55c0-.33-.01-.51-.05-.67,.21,0,.31,.01,.46,.03,.05,0,.09,.03,.09,.06,0,.05-.01,.07-.03,.12-.03,.06-.04,.17-.04,.46v.55h1.49c.67,0,.88-.01,.92-.01,.05,0,.05,0,.05,.05v.32Zm-4.04,.55c.07-.02,.08-.02,.09,.02,.28,.7,.51,1.43,.68,2.34,0,.05,0,.07-.07,.09l-.23,.07c-.1,.03-.11,.02-.13-.04-.15-.89-.35-1.57-.64-2.31-.02-.05-.01-.05,.08-.09l.22-.07Z"/>
    <path d="M126.51,13.74c0-.27,0-.61,.01-.86-.21,.23-.45,.47-.72,.69-.05,.04-.07,.06-.09,.06s-.04-.03-.07-.08c-.05-.09-.1-.17-.17-.23,.6-.47,1.12-1.04,1.46-1.62,.06-.1,.11-.22,.14-.32,.13,.06,.25,.13,.35,.19,.05,.03,.06,.05,.06,.09,0,.03-.02,.05-.05,.07-.04,.03-.1,.08-.15,.16-.12,.19-.24,.37-.37,.54v2.51c0,.58,.01,.82,.01,.86,0,.05,0,.05-.05,.05h-.32s-.05,0-.05-.05c0-.03,.01-.28,.01-.86v-1.19Zm.85-3.5s-.09,.09-.16,.17c-.32,.41-.75,.84-1.3,1.24-.04,.03-.07,.05-.09,.05s-.05-.03-.09-.09c-.05-.08-.11-.15-.19-.21,.53-.34,1.02-.78,1.34-1.23,.09-.12,.12-.21,.15-.29,.14,.06,.24,.11,.37,.2,.04,.03,.06,.05,.06,.08s-.03,.06-.08,.09Zm4.06,2.06s0,.05-.05,.05c-.03,0-.25-.01-.91-.01h-.21v1.54c0,.67,.01,.98,.01,1.22,0,.29-.05,.43-.18,.53-.12,.09-.31,.13-.92,.13q-.13,0-.17-.14c-.03-.11-.07-.21-.14-.3,.22,.02,.39,.03,.64,.03,.28,0,.35-.04,.35-.25v-2.75h-1.2c-.65,0-.87,.01-.91,.01-.05,0-.05,0-.05-.05v-.29s0-.05,.05-.05c.04,0,.26,.01,.91,.01h1.82c.65,0,.87-.01,.91-.01,.05,0,.05,0,.05,.05v.29Zm-.35-1.63s0,.05-.05,.05c-.04,0-.22-.01-.82-.01h-1.25c-.6,0-.79,.01-.82,.01-.05,0-.05,0-.05-.05v-.29s0-.05,.05-.05c.03,0,.22,.01,.82,.01h1.25c.61,0,.79-.01,.82-.01,.05,0,.05,0,.05,.05v.29Z"/>
    <path d="M133.92,14.39c.37-.13,.76-.27,1.18-.44-.01,.1-.02,.19-.02,.27q0,.13-.13,.18c-.83,.33-1.65,.58-2.4,.78-.15,.04-.23,.07-.27,.1s-.05,.05-.09,.05c-.03,0-.05-.03-.07-.07-.05-.11-.11-.27-.14-.39,.16-.01,.31-.04,.51-.09v-1.97c0-.35,0-.51-.05-.68,.16,0,.31,.02,.42,.04,.05,0,.07,.03,.07,.05,0,.05-.02,.08-.04,.12-.02,.05-.03,.15-.03,.47v1.88c.21-.05,.42-.12,.64-.19v-3.6h-.49c-.57,0-.76,.01-.79,.01-.05,0-.05,0-.05-.05v-.28s0-.05,.05-.05c.03,0,.22,.01,.79,.01h1.14c.58,0,.76-.01,.8-.01,.05,0,.05,0,.05,.05v.28s0,.05-.05,.05c-.04,0-.22-.01-.8-.01h-.26v1.42h.25c.37,0,.45-.01,.49-.01,.05,0,.05,0,.05,.05v.27s0,.05-.05,.05c-.04,0-.12-.01-.49-.01h-.25v1.7Zm4.15-2.93s0,.05-.05,.05c-.03,0-.17,0-.55-.01-.08,.95-.37,1.86-.79,2.55,.36,.46,.85,.91,1.58,1.36-.09,.07-.17,.16-.22,.25-.03,.06-.05,.09-.09,.09-.03,0-.05-.02-.11-.05-.6-.44-1.04-.86-1.4-1.32-.39,.49-.98,.97-1.86,1.38-.05,.02-.08,.04-.11,.04s-.05-.03-.09-.1c-.06-.1-.14-.18-.21-.23,.95-.38,1.61-.87,2.03-1.44-.33-.51-.59-1.14-.75-1.79-.11,.24-.24,.47-.39,.71-.03,.05-.05,.07-.07,.07-.02,0-.04-.02-.08-.06-.07-.09-.15-.14-.21-.17,.5-.69,.84-1.64,1-2.34,.07-.28,.09-.46,.1-.65,.15,.03,.27,.06,.39,.1,.06,.02,.09,.04,.09,.07,0,.03,0,.04-.04,.08-.05,.06-.09,.2-.12,.33-.07,.25-.13,.5-.22,.75h1.32c.57,0,.76-.01,.79-.01,.05,0,.05,0,.05,.05v.27Zm-2.29,.04l-.08,.2c.16,.78,.37,1.44,.73,2,.29-.51,.53-1.2,.62-2.2h-1.26Z"/>
    <path d="M138.92,11.71c.04-.05,.07-.05,.11-.03,.32,.19,.65,.42,.94,.7,.03,.03,.03,.05,0,.09l-.16,.19c-.07,.08-.07,.09-.11,.05-.27-.29-.61-.55-.91-.73-.05-.03-.04-.04,0-.09l.14-.17Zm.52,3.73c-.06,.14-.11,.24-.11,.3,0,.05-.03,.08-.05,.08s-.05,0-.1-.03c-.11-.07-.2-.13-.32-.22,.13-.16,.2-.29,.3-.49,.21-.41,.42-.94,.61-1.6,.07,.09,.13,.13,.23,.2,.1,.06,.1,.07,.06,.2-.18,.55-.41,1.1-.61,1.56Zm-.12-5.37c.05-.05,.07-.06,.11-.03,.31,.2,.62,.45,.88,.72,.03,.04,.03,.07-.02,.13l-.15,.18c-.05,.06-.07,.07-.11,.03-.27-.29-.61-.59-.88-.77-.04-.03-.04-.04,.02-.1l.15-.15Zm5.34,3.09c0,.05,0,.06-.05,.06s-.27-.01-.95-.01h-1.4c-.21,.7-.45,1.31-.68,1.83,.74-.07,1.38-.15,2.07-.26-.19-.27-.39-.52-.61-.77-.04-.04-.03-.06,.04-.11l.17-.1s.07-.03,.09,0c.47,.51,.85,1.04,1.23,1.68,.02,.04,.02,.05-.05,.1l-.19,.12c-.09,.06-.1,.06-.12,.01-.11-.21-.23-.42-.36-.61-1.05,.17-1.95,.29-3.07,.41-.19,.02-.24,.04-.27,.06-.04,.02-.07,.05-.11,.05s-.07-.04-.09-.09c-.04-.13-.08-.28-.11-.42,.27,0,.49,0,.68-.02l.24-.02c.25-.57,.49-1.17,.67-1.87h-.58c-.67,0-.91,.01-.95,.01-.05,0-.05,0-.05-.06v-.28s0-.05,.05-.05c.04,0,.27,.01,.95,.01h.88v-1.21h-.57c-.65,0-.87,.01-.9,.01-.05,0-.05,0-.05-.05v-.28s0-.05,.05-.05c.03,0,.25,.01,.9,.01h.57v-.48c0-.45,0-.63-.04-.86,.17,0,.29,.01,.43,.03,.05,0,.08,.03,.08,.06,0,.04-.01,.07-.03,.12-.02,.06-.04,.24-.04,.64v.49h.84c.65,0,.87-.01,.9-.01,.05,0,.05,0,.05,.05v.28s0,.05-.05,.05c-.03,0-.25-.01-.9-.01h-.84v1.21h1.14c.67,0,.91-.01,.95-.01s.05,0,.05,.05v.28Z"/>
    <path d="M151.07,15.6c-.04,.07-.06,.09-.09,.09s-.05-.01-.1-.05c-1.51-.96-2.23-2.33-2.48-3.67-.28,1.67-1.18,2.89-2.53,3.66-.05,.03-.07,.05-.1,.05s-.05-.03-.09-.1c-.07-.1-.16-.18-.25-.24,1.78-.86,2.7-2.6,2.67-4.51,0-.37-.01-.56-.05-.79,.16,0,.35,.03,.5,.05,.05,.01,.09,.04,.09,.08,0,.05-.02,.09-.04,.13-.03,.07-.06,.21-.06,.37,0,.12,0,.23,0,.35,.27,1.79,1.01,3.31,2.75,4.3-.09,.07-.17,.17-.23,.27Z"/>
    <path d="M156.85,13.3c0,1.9,.01,2.24,.01,2.27,0,.05,0,.05-.05,.05h-.32s-.05,0-.05-.05v-.41h-3.08v.42s0,.05-.05,.05h-.33s-.05,0-.05-.05c0-.04,.01-.37,.01-2.28v-1.28c0-1.29-.01-1.64-.01-1.68,0-.05,0-.05,.05-.05,.04,0,.27,.01,.92,.01h1.98c.66,0,.88-.01,.92-.01,.05,0,.05,0,.05,.05,0,.04-.01,.39-.01,1.51v1.45Zm-.41-2.62h-3.08v1.8h3.08v-1.8Zm0,2.18h-3.08v1.93h3.08v-1.93Z"/>
    <path d="M161.77,11.66c.62,1.09,1.54,2.04,2.75,2.69-.07,.07-.14,.15-.19,.25-.04,.07-.05,.1-.08,.1s-.05-.02-.1-.05c-1.12-.71-2.01-1.65-2.59-2.79,0,.82,0,1.64,.01,2.3h.48c.6,0,.79-.01,.83-.01,.05,0,.05,0,.05,.05v.29s0,.05-.05,.05c-.04,0-.23-.01-.83-.01h-.47c.01,.69,.03,1.18,.03,1.26,0,.05,0,.05-.05,.05h-.35s-.05,0-.05-.05c0-.08,.01-.56,.02-1.26h-.41c-.6,0-.79,.01-.82,.01-.05,0-.05,0-.05-.05v-.29s0-.05,.05-.05c.03,0,.23,.01,.82,.01h.41c.01-.65,.02-1.43,.02-2.24-.56,1.12-1.44,2.1-2.43,2.75-.05,.03-.08,.05-.11,.05-.03,0-.05-.03-.08-.09-.05-.1-.11-.17-.2-.24,1-.55,2-1.59,2.59-2.74h-1.41c-.63,0-.85,.01-.88,.01-.05,0-.05,0-.05-.05v-.3s0-.05,.05-.05c.03,0,.25,.01,.88,.01h1.6v-.59c0-.42,0-.56-.05-.8,.16,0,.33,.02,.46,.04,.05,0,.08,.03,.08,.05,0,.05-.03,.09-.04,.15-.02,.08-.03,.19-.03,.56v.6h1.74c.64,0,.86-.01,.89-.01,.05,0,.05,0,.05,.05v.3s0,.05-.05,.05c-.03,0-.25-.01-.89-.01h-1.55Z"/>
    <path d="M170.99,10.96c0,.05,0,.06-.05,.06-.04,0-.25-.01-.87-.01h-.91v.05c0,.39,.01,.54,.01,.57,0,.05,0,.05-.05,.05h-.3s-.05,0-.05-.05c0-.04,.01-.19,.01-.57v-.05h-1.39v.05c0,.38,.01,.53,.01,.57,0,.05,0,.05-.05,.05h-.3s-.05,0-.05-.05c0-.04,.01-.19,.01-.57v-.05h-.88c-.63,0-.84,.01-.87,.01-.05,0-.05,0-.05-.06v-.28s0-.05,.05-.05c.03,0,.25,.01,.87,.01h.88c0-.28,0-.53-.04-.71,.17,0,.3,.01,.41,.03,.06,.01,.09,.03,.09,.07,0,.03-.01,.05-.03,.09-.03,.07-.04,.22-.04,.49v.03h1.39c0-.29,0-.54-.04-.72,.17,0,.29,.02,.41,.04,.04,0,.07,.03,.07,.06s-.01,.05-.03,.09c-.02,.06-.04,.21-.04,.51v.02h.91c.62,0,.83-.01,.87-.01,.05,0,.05,0,.05,.05v.28Zm0,2.67s0,.05-.05,.05c-.04,0-.25-.01-.88-.01h-2.36c-.19,.5-.41,.98-.64,1.4,.87-.07,1.79-.17,2.5-.26-.16-.19-.34-.39-.53-.58-.03-.03-.04-.05,.04-.1l.15-.09c.07-.04,.08-.05,.12-.01,.51,.49,.94,.98,1.28,1.5,.03,.04,.02,.06-.05,.1l-.19,.13s-.07,.04-.09,.04-.03-.01-.05-.04c-.13-.21-.27-.43-.43-.64-1.13,.17-2.54,.33-3.73,.42-.19,.02-.23,.03-.27,.05-.05,.02-.07,.05-.11,.05-.05,0-.07-.02-.09-.08-.04-.13-.07-.28-.11-.43,.27,0,.49,0,.69,0l.39-.02c.25-.47,.47-.96,.65-1.44h-1.03c-.63,0-.84,.01-.88,.01-.05,0-.05,0-.05-.05v-.3s0-.05,.05-.05c.04,0,.25,.01,.88,.01h3.85c.63,0,.84-.01,.88-.01,.05,0,.05,0,.05,.05v.3Zm-.76-1.2s0,.05-.05,.05c-.04,0-.27-.01-.94-.01h-2.33c-.67,0-.9,.01-.93,.01-.05,0-.06,0-.06-.05v-.3s0-.05,.06-.05c.03,0,.26,.01,.93,.01h2.33c.67,0,.9-.01,.94-.01,.05,0,.05,0,.05,.05v.3Z"/>
    <path d="M172.45,13.71c0-.25,.01-.57,.02-.82-.16,.18-.33,.36-.53,.53-.03,.03-.06,.05-.08,.05-.03,0-.05-.03-.07-.07-.05-.11-.09-.17-.15-.24,.58-.49,.93-.95,1.22-1.52,.05-.1,.1-.23,.13-.33,.13,.06,.23,.12,.33,.19,.05,.03,.07,.06,.07,.09s-.02,.05-.06,.08-.1,.09-.15,.19c-.1,.18-.21,.37-.35,.55v2.47c0,.58,.01,.82,.01,.86,0,.05,0,.05-.05,.05h-.31s-.05,0-.05-.05c0-.03,.01-.28,.01-.86v-1.19Zm.9-3.48s-.11,.08-.17,.16c-.3,.43-.67,.82-1.18,1.23-.05,.03-.07,.05-.09,.05-.03,0-.05-.03-.08-.09-.05-.1-.11-.17-.17-.23,.51-.34,.88-.75,1.18-1.18,.09-.13,.13-.22,.15-.3,.13,.06,.25,.13,.35,.19,.05,.03,.07,.06,.07,.09s-.02,.05-.06,.07Zm.71,2.49c-.03,.05-.05,.14-.07,.26-.07,.51-.19,1.12-.42,1.66-.02,.06-.03,.08-.06,.08-.02,0-.05-.01-.09-.03-.09-.05-.17-.07-.26-.08,.28-.61,.4-1.18,.45-1.63,.01-.15,.02-.34,0-.47,.15,.01,.29,.03,.38,.05,.07,.01,.09,.03,.09,.07,0,.03-.01,.05-.03,.09Zm1.74-1.06s0,.05-.05,.05c-.03,0-.18-.01-.69-.01h-.2v2.87c0,.77,.01,1.11,.01,1.15,0,.05,0,.05-.05,.05h-.31s-.05,0-.05-.05c0-.04,.01-.38,.01-1.14v-2.88h-.21c-.51,0-.66,.01-.7,.01-.05,0-.05,0-.05-.05v-.27s0-.05,.05-.05c.04,0,.19,.01,.7,.01h.21v-.57c0-.44,0-.63-.05-.86,.17,0,.3,.02,.43,.04,.05,0,.08,.03,.08,.05,0,.04-.02,.07-.03,.12-.03,.08-.04,.22-.04,.64v.57h.2c.51,0,.66-.01,.69-.01,.05,0,.05,0,.05,.05v.27Zm-.5-1.5c.05-.03,.07-.03,.09,0,.17,.21,.29,.39,.42,.65,.02,.04,.01,.06-.04,.09l-.13,.09c-.08,.05-.09,.06-.12,0-.11-.25-.25-.47-.4-.66-.03-.04-.03-.05,.03-.09l.15-.08Zm.21,2.34c.06-.02,.07-.01,.09,.03,.2,.59,.32,1.14,.42,1.75,0,.05,0,.06-.07,.09l-.19,.07c-.09,.03-.11,.03-.11-.03-.08-.64-.2-1.2-.38-1.77-.01-.05-.01-.05,.06-.08l.18-.06Zm2.25-.45c0,.05,0,.06-.05,.06-.03,0-.15-.01-.59-.01h-.03v1.98c0,.46,0,.76,0,1.04,0,.22-.05,.39-.18,.49-.13,.09-.35,.11-.8,.1q-.13,0-.16-.14c-.02-.09-.07-.2-.11-.28,.23,.03,.43,.04,.6,.04,.15,0,.25-.07,.25-.27v-2.95h-.18c-.43,0-.56,.01-.59,.01-.05,0-.06,0-.06-.06v-.27s0-.05,.06-.05c.03,0,.16,.01,.59,.01h.61c.44,0,.56-.01,.59-.01,.05,0,.05,0,.05,.05v.27Zm-.15-1.38s0,.05-.05,.05-.14-.01-.52-.01h-.43c-.39,0-.49,.01-.52,.01-.05,0-.05,0-.05-.05v-.28s0-.05,.05-.05c.03,0,.13,.01,.52,.01h.43c.38,0,.48-.01,.52-.01s.05,0,.05,.05v.28Z"/>
    <path d="M183.03,11.46c-.29,1.08-.71,1.88-1.32,2.49,.65,.55,1.52,1.04,2.66,1.4-.08,.08-.15,.2-.2,.31-.04,.08-.05,.11-.09,.11-.02,0-.05,0-.1-.03-1.1-.42-1.94-.93-2.58-1.49-.65,.57-1.48,1.06-2.56,1.46-.05,.01-.08,.03-.1,.03-.04,0-.05-.03-.09-.1-.05-.1-.13-.21-.21-.27,1.21-.41,2.02-.86,2.65-1.42-.64-.66-1.04-1.44-1.36-2.49h-.23c-.63,0-.85,.01-.88,.01-.05,0-.05,0-.05-.05v-.31s0-.05,.05-.05c.03,0,.25,.01,.88,.01h1.66v-.45c0-.34,0-.55-.05-.73,.17,0,.32,.01,.46,.03,.05,0,.08,.03,.08,.06,0,.05-.02,.08-.04,.13-.03,.07-.03,.16-.03,.51v.46h1.76c.63,0,.84-.01,.88-.01,.05,0,.06,0,.06,.05v.31s0,.05-.06,.05c-.03,0-.25-.01-.88-.01h-.31Zm-2.88,0c.29,.92,.64,1.61,1.25,2.22,.58-.59,.93-1.28,1.18-2.22h-2.43Z"/>
    <path d="M186.23,13.06c0-.27,.01-.67,.02-1.01-.27,.37-.56,.73-.88,1.04-.04,.04-.07,.07-.09,.07-.03,0-.05-.03-.08-.09-.05-.11-.11-.19-.17-.25,.79-.72,1.36-1.54,1.72-2.43,.07-.17,.11-.32,.12-.44,.17,.05,.28,.09,.41,.15,.05,.03,.07,.05,.07,.08s-.02,.06-.06,.09c-.05,.03-.09,.1-.15,.25-.14,.31-.3,.63-.49,.94v3.28c0,.7,.01,1,.01,1.03,0,.05,0,.05-.05,.05h-.32c-.05,0-.06,0-.06-.05,0-.03,.01-.33,.01-1.03v-1.68Zm2.15,1.66c0,.32,.05,.44,.26,.5,.17,.05,.42,.05,.83,.05s.64-.04,.81-.18c.13-.11,.22-.39,.25-.98,.08,.07,.18,.13,.29,.17,.12,.05,.11,.05,.1,.17-.06,.56-.16,.84-.38,.99-.23,.17-.61,.22-1.09,.22-.53,0-.87,0-1.1-.09-.23-.09-.39-.26-.39-.7v-4.12c0-.34,0-.54-.04-.75,.17,0,.31,.02,.44,.04,.06,0,.09,.03,.09,.06,0,.05-.01,.07-.03,.12-.03,.07-.04,.16-.04,.51v1.94c.55-.34,1.08-.75,1.58-1.26,.09-.1,.2-.23,.26-.35,.13,.08,.25,.18,.35,.27,.05,.04,.06,.07,.06,.1,0,.04-.05,.07-.1,.09-.08,.03-.19,.13-.35,.28-.48,.46-1.06,.88-1.8,1.34v1.6Z"/>
    <path d="M192.98,12.94c.23-.09,.47-.21,.73-.34-.01,.08-.02,.16-.02,.25,0,.13,0,.15-.13,.21-.19,.09-.39,.18-.58,.27v.8c0,.43,.01,.75,.01,1,0,.32-.05,.43-.19,.53-.13,.09-.25,.12-.65,.11-.13,0-.14,0-.17-.13-.03-.11-.07-.21-.12-.29,.15,.02,.25,.03,.46,.03s.26-.08,.26-.32v-1.58c-.13,.05-.25,.1-.38,.15-.15,.05-.21,.09-.25,.13-.02,.02-.05,.04-.08,.04s-.05-.01-.07-.06c-.05-.11-.09-.25-.12-.39,.18-.03,.35-.08,.59-.16l.3-.1v-1.49h-.2c-.45,0-.58,.01-.61,.01-.05,0-.05,0-.05-.05v-.28s0-.05,.05-.05c.03,0,.16,.01,.61,.01h.2v-.55c0-.4,0-.59-.05-.8,.16,0,.29,.02,.43,.03,.05,0,.08,.03,.08,.06,0,.05-.02,.08-.04,.13-.03,.07-.03,.19-.03,.57v.56h.03c.45,0,.57-.01,.61-.01,.05,0,.05,0,.05,.05v.28s0,.05-.05,.05c-.04,0-.17-.01-.61-.01h-.03v1.34Zm3.23-.13c.06,.39,.16,.76,.3,1.09,.22-.15,.38-.3,.57-.47,.08-.07,.15-.15,.21-.25,.1,.08,.19,.16,.26,.24,.03,.03,.03,.05,.03,.07,0,.04-.02,.06-.07,.07-.06,.01-.1,.04-.21,.13-.2,.18-.39,.32-.64,.5,.27,.52,.67,.95,1.18,1.25-.08,.06-.14,.13-.2,.22-.04,.07-.06,.09-.09,.09-.02,0-.05-.02-.11-.06-.93-.68-1.4-1.73-1.58-2.89h-.53v2.24c.31-.08,.6-.17,.99-.31-.03,.07-.03,.15-.03,.23,0,.14,0,.13-.13,.17-.45,.15-.89,.27-1.37,.39-.15,.03-.22,.08-.27,.11-.02,.01-.05,.04-.09,.04-.03,0-.05-.02-.07-.07-.04-.1-.08-.24-.12-.38,.2-.02,.43-.05,.69-.11v-2.33h-.55c-.02,.33-.05,.63-.08,.9-.09,.63-.3,1.32-.68,1.92-.03,.05-.05,.07-.07,.07-.01,0-.04-.03-.08-.07-.09-.09-.17-.15-.25-.19,.4-.51,.61-1.22,.7-1.88,.08-.59,.1-1.18,.1-1.87,0-.99-.01-1.4-.01-1.44,0-.05,0-.05,.05-.05,.03,0,.26,.01,.9,.01h1.64c.64,0,.85-.01,.88-.01,.05,0,.05,0,.05,.05v.29s0,.05-.05,.05c-.03,0-.25-.01-.88-.01h-2.19v1.11c0,.27,0,.52-.01,.76h2.24c.63,0,.84-.01,.87-.01,.05,0,.06,0,.06,.05v.27s0,.05-.06,.05c-.03,0-.24-.01-.87-.01h-.44Zm.95-1.2s0,.05-.05,.05c-.04,0-.19-.01-.71-.01h-.82c-.52,0-.67,.01-.71,.01-.05,0-.05,0-.05-.05v-.27s0-.05,.05-.05c.03,0,.19,.01,.71,.01h.82c.51,0,.67-.01,.71-.01,.05,0,.05,0,.05,.05v.27Z"/>
    <path d="M204.36,14.41s0,.05-.05,.05c-.03,0-.24-.01-.84-.01h-4.19c-.61,0-.81,.01-.84,.01-.05,0-.05,0-.05-.05v-.26s0-.05,.05-.05c.03,0,.15,.01,.54,.01l-.09-3.03c-.01-.32-.03-.52-.07-.69,.13,.03,.21,.06,.33,.11,.21-.07,.37-.15,.56-.25,.1-.05,.19-.11,.25-.17,.11,.08,.21,.17,.28,.24,.03,.03,.03,.05,.03,.07s-.05,.05-.09,.05c-.04,0-.11,.03-.19,.06-.25,.12-.48,.21-.74,.31l.03,.79h.35c.21,0,.28-.01,.32-.01,.05,0,.05,0,.05,.05v.25s0,.05-.05,.05c-.04,0-.11-.01-.32-.01h-.35l.03,.84h.32c.2,0,.27-.01,.31-.01,.05,0,.05,0,.05,.05v.25s0,.05-.05,.05c-.04,0-.11,0-.31,0h-.31l.03,1h.93v-2.95c0-.63-.01-.9-.01-.94,0-.05,0-.05,.05-.05,.03,0,.19,.01,.69,.01h.79c.5,0,.66-.01,.69-.01,.05,0,.05,0,.05,.05,0,.03-.01,.31-.01,.94v2.95h.96l.04-1.02h-.32c-.22,0-.31,.01-.35,.01-.05,0-.05,0-.05-.05v-.25s0-.05,.05-.05c.04,0,.13,.01,.35,.01h.33l.03-.85h-.37c-.21,0-.31,.01-.34,.01-.05,0-.05,0-.05-.05v-.25s0-.05,.05-.05c.03,0,.13,.01,.34,.01h.38l.03-.9h-.44c-.25,0-.32,.01-.35,.01-.05,0-.05,0-.05-.05v-.26s0-.05,.05-.05c.03,0,.1,.01,.4,.01h.31c.3,0,.37-.01,.41-.01,.05,0,.06,.01,.06,.06-.03,.25-.04,.49-.05,.75l-.11,2.99c.31,0,.44-.01,.46-.01,.05,0,.05,0,.05,.05v.26Zm-3.78,.55c-.06,.01-.13,.05-.21,.11-.39,.3-.83,.53-1.42,.77-.04,.02-.07,.03-.09,.03-.04,0-.05-.03-.09-.11-.05-.09-.11-.16-.19-.22,.61-.2,1.03-.39,1.44-.68,.08-.06,.17-.14,.25-.23,.13,.06,.24,.12,.33,.19,.05,.03,.06,.05,.06,.08,0,.03-.02,.06-.07,.07Zm1.6-4.44h-1.58v3.59h1.58v-3.59Zm-.21,.86s0,.05-.05,.05c-.03,0-.09,0-.39,0h-.29c-.29,0-.35,0-.38,0-.05,0-.05,0-.05-.05v-.24s0-.05,.05-.05c.03,0,.09,.01,.38,.01h.29c.29,0,.35-.01,.39-.01,.05,0,.05,0,.05,.05v.24Zm-.11,1.62c0,.35,.01,.46,.01,.49,0,.05,0,.05-.05,.05-.04,0-.09-.01-.33-.01h-.23c-.24,0-.29,.01-.32,.01-.05,0-.05,0-.05-.05,0-.03,.01-.15,.01-.49v-.48c0-.35-.01-.47-.01-.51s0-.05,.05-.05c.03,0,.08,0,.32,0h.23c.24,0,.29,0,.33,0,.05,0,.05,0,.05,.05s-.01,.15-.01,.51v.48Zm-.28-.73h-.39v.97h.39v-.97Zm.75,2.37c.05-.04,.07-.03,.11,0,.49,.41,1.04,.67,1.75,.85-.07,.06-.14,.15-.19,.23-.04,.07-.05,.11-.09,.11-.02,0-.05-.01-.1-.03-.6-.19-1.12-.45-1.68-.94-.04-.03-.04-.05,.02-.09l.18-.13Z"/>
    <path d="M210.99,12.52c-.04,.07-.05,.11-.09,.11-.02,0-.05-.01-.09-.04-1.16-.51-2.1-1.22-2.79-2.21-.69,1.01-1.58,1.68-2.67,2.22-.05,.03-.08,.04-.1,.04-.03,0-.05-.03-.09-.1-.05-.09-.11-.16-.21-.23,1.2-.5,2.16-1.3,2.71-2.16,.09-.16,.13-.24,.17-.37,.15,.02,.29,.05,.42,.09,.07,.02,.09,.04,.09,.08,0,.03,0,.05-.05,.07-.03,.01-.05,.03-.07,.05,.8,1.07,1.73,1.72,2.96,2.18-.09,.09-.14,.16-.19,.27Zm-.31,1.06s0,.05-.05,.05c-.04,0-.25-.01-.92-.01h-2.04c-.2,.5-.43,1.02-.69,1.54,.8-.05,1.7-.14,2.46-.23-.19-.25-.4-.49-.62-.73-.04-.04-.03-.06,.04-.09l.19-.11c.05-.03,.07-.03,.1,0,.49,.49,.89,1.02,1.28,1.58,.03,.03,.03,.06-.03,.1l-.21,.14s-.06,.03-.07,.03c-.02,0-.03-.01-.05-.04-.13-.19-.25-.38-.38-.56-1.17,.15-2.5,.28-3.67,.37-.13,.01-.22,.03-.25,.06-.03,.03-.05,.04-.09,.04-.04,0-.06-.03-.07-.07-.04-.13-.07-.29-.1-.45,.21,.01,.43,.01,.73,0,.09,0,.19,0,.29-.01,.29-.54,.52-1.06,.7-1.56h-.8c-.66,0-.88,.01-.91,.01-.05,0-.06,0-.06-.05v-.29s0-.05,.06-.05c.03,0,.25,.01,.91,.01h3.29c.67,0,.88-.01,.92-.01,.05,0,.05,0,.05,.05v.29Zm-1.26-1.22s0,.05-.05,.05c-.03,0-.22-.01-.78-.01h-1.08c-.56,0-.75,.01-.78,.01-.05,0-.05,0-.05-.05v-.29s0-.05,.05-.05c.03,0,.22,.01,.78,.01h1.08c.56,0,.75-.01,.78-.01,.05,0,.05,0,.05,.05v.29Z"/>
  </g>
</svg>