<?xml version="1.0" encoding="UTF-8"?>
<svg id="Layer_2" xmlns="http://www.w3.org/2000/svg" viewBox="0 0 258.75 13.87">
  <defs>
    <style>
      .cls-1 {
        fill: #231815;
      }

      .cls-2 {
        fill: #e60012;
      }
    </style>
  </defs>
  <g id="Layer_1-2" data-name="Layer_1">
    <g>
      <path d="M82.73,1.83c-.25.92-.61,1.6-1.13,2.12.55.47,1.29.88,2.26,1.19-.07.07-.12.17-.17.26-.03.07-.05.09-.08.09-.02,0-.05,0-.08-.02-.94-.36-1.65-.79-2.19-1.27-.55.49-1.25.9-2.18,1.24-.04.01-.07.02-.09.02-.03,0-.05-.02-.08-.09-.05-.08-.11-.18-.18-.23,1.03-.35,1.71-.73,2.26-1.21-.54-.56-.89-1.22-1.16-2.12h-.2c-.54,0-.72.01-.75.01-.04,0-.05,0-.05-.04v-.26s0-.05.05-.05c.03,0,.21.01.75.01h1.41v-.38c0-.29,0-.46-.05-.62.14,0,.27.01.4.03.04,0,.07.03.07.05,0,.04-.02.07-.03.11-.03.06-.03.14-.03.43v.39h1.49c.54,0,.72-.01.75-.01.04,0,.05,0,.05.05v.26s0,.04-.05.04c-.03,0-.21-.01-.75-.01h-.26ZM80.28,1.83c.24.79.54,1.37,1.06,1.89.49-.5.79-1.09,1-1.89h-2.07Z"/>
      <path d="M85.45,3.19c0-.23.01-.57.02-.86-.23.32-.47.62-.75.89-.04.03-.06.06-.08.06-.03,0-.04-.02-.07-.07-.04-.09-.09-.16-.15-.21.67-.61,1.15-1.31,1.46-2.07.06-.14.09-.27.1-.37.14.04.24.08.35.13.04.02.06.04.06.07s-.02.05-.05.07c-.04.03-.07.08-.13.21-.12.27-.26.54-.41.8v2.79c0,.6.01.85.01.88,0,.04,0,.05-.05.05h-.27s-.05,0-.05-.05c0-.03.01-.28.01-.88v-1.43ZM87.28,4.6c0,.27.05.37.22.42.14.04.36.04.71.04s.55-.03.69-.15c.11-.1.19-.33.22-.84.07.06.15.11.25.15.1.04.1.04.08.15-.05.48-.14.71-.32.84-.19.14-.52.19-.93.19-.45,0-.74,0-.93-.07-.2-.07-.33-.22-.33-.6V1.22c0-.29,0-.46-.03-.63.15,0,.26.02.37.03.05,0,.07.02.07.05,0,.04-.01.06-.03.1-.03.06-.03.14-.03.43v1.65c.46-.29.92-.64,1.34-1.08.08-.08.17-.2.22-.3.11.07.21.15.29.23.04.03.05.06.05.09,0,.03-.04.06-.09.08-.07.02-.16.11-.29.24-.41.39-.9.75-1.53,1.14v1.36Z"/>
      <path d="M95.14,1.4s0,.05-.04.05c-.04,0-.21-.01-.74-.01h-.77v.04c0,.33.01.46.01.49,0,.04,0,.04-.05.04h-.26s-.05,0-.05-.04c0-.03.01-.16.01-.49v-.04h-1.18v.05c0,.32.01.45.01.48,0,.04,0,.04-.05.04h-.26s-.04,0-.04-.04c0-.03.01-.16.01-.48v-.05h-.75c-.53,0-.71.01-.74.01-.04,0-.05,0-.05-.05v-.24s0-.05.05-.05c.03,0,.21.01.74.01h.75c0-.24,0-.45-.03-.61.15,0,.26.01.34.03.05.01.08.03.08.06,0,.02-.01.04-.03.08-.02.06-.03.19-.03.42v.02h1.18c0-.24,0-.46-.03-.61.15,0,.25.02.35.03.03,0,.06.02.06.05s-.01.05-.02.08c-.02.05-.03.18-.03.43v.02h.77c.53,0,.71-.01.74-.01.04,0,.04,0,.04.05v.24ZM95.14,3.67s0,.05-.04.05c-.04,0-.21-.01-.75-.01h-2.01c-.16.42-.35.83-.54,1.19.74-.06,1.52-.14,2.13-.22-.14-.16-.29-.33-.45-.49-.03-.03-.04-.05.03-.09l.12-.08c.06-.03.07-.04.1-.01.43.41.8.84,1.09,1.28.02.03.02.05-.04.08l-.16.11s-.06.03-.07.03-.02-.01-.04-.03c-.11-.18-.23-.36-.37-.54-.96.15-2.16.28-3.18.36-.16.02-.19.03-.23.05-.04.02-.06.04-.09.04-.04,0-.06-.02-.07-.07-.03-.11-.06-.24-.09-.36.23,0,.41,0,.58,0l.33-.02c.21-.4.4-.82.55-1.22h-.88c-.54,0-.71.01-.75.01-.04,0-.05,0-.05-.05v-.26s0-.04.05-.04c.03,0,.21.01.75.01h3.28c.54,0,.71-.01.75-.01.04,0,.04,0,.04.04v.26ZM94.49,2.64s0,.04-.05.04c-.03,0-.23-.01-.8-.01h-1.98c-.57,0-.76.01-.79.01-.05,0-.05,0-.05-.04v-.25s0-.05.05-.05c.03,0,.22.01.79.01h1.98c.57,0,.76-.01.8-.01.04,0,.05,0,.05.05v.25Z"/>
      <path d="M96.38,3.74c0-.21.01-.48.02-.7-.14.15-.28.31-.45.45-.03.03-.05.05-.07.05-.02,0-.04-.02-.06-.06-.04-.09-.07-.15-.13-.2.5-.42.79-.81,1.04-1.29.05-.08.09-.19.11-.28.11.05.19.1.28.16.04.03.06.05.06.08s-.02.05-.05.07c-.03.02-.08.08-.13.17-.08.15-.18.31-.29.47v2.11c0,.49.01.7.01.73,0,.04,0,.05-.05.05h-.26s-.04,0-.04-.05c0-.03.01-.24.01-.73v-1.01ZM97.15.78s-.09.07-.14.14c-.25.36-.57.7-1,1.05-.04.03-.06.05-.08.05-.02,0-.04-.03-.07-.08-.05-.08-.09-.14-.15-.19.43-.29.75-.63,1.01-1.01.07-.11.11-.19.12-.26.11.05.21.11.3.16.04.03.06.05.06.08s-.02.05-.05.06M97.76,2.9s-.04.12-.06.22c-.06.43-.16.95-.36,1.42-.02.05-.03.07-.05.07-.02,0-.04-.01-.08-.03-.08-.04-.15-.06-.22-.07.24-.51.34-1,.39-1.39.01-.13.02-.29,0-.4.13.01.24.03.32.05.06.01.07.03.07.06,0,.02-.01.05-.03.07M99.24,2s0,.05-.05.05c-.03,0-.15-.01-.59-.01h-.17v2.45c0,.66.01.94.01.98,0,.04,0,.05-.05.05h-.26s-.05,0-.05-.05c0-.03.01-.32.01-.97v-2.45h-.18c-.44,0-.56.01-.6.01-.04,0-.04,0-.04-.05v-.23s0-.05.04-.05c.04,0,.16.01.6.01h.18v-.48c0-.37,0-.54-.04-.73.15,0,.26.02.36.04.04,0,.07.02.07.04,0,.03-.02.06-.03.1-.02.07-.03.19-.03.54v.49h.17c.44,0,.56-.01.59-.01.04,0,.05,0,.05.05v.23ZM98.82.73s.06-.03.08,0c.15.18.25.33.36.55.02.04.01.05-.04.08l-.11.07c-.07.05-.08.05-.1,0-.1-.21-.21-.4-.34-.56-.03-.03-.02-.05.03-.07l.12-.07ZM98.99,2.72c.05-.02.06-.01.07.03.17.5.27.97.36,1.49,0,.04,0,.05-.06.07l-.16.06c-.07.03-.09.03-.1-.02-.07-.54-.17-1.02-.32-1.51-.01-.04-.01-.05.05-.07l.15-.05ZM100.9,2.34s0,.05-.05.05c-.03,0-.13-.01-.5-.01h-.03v1.68c0,.39,0,.65,0,.89,0,.19-.04.33-.15.41-.11.07-.29.09-.68.08q-.11,0-.14-.12c-.02-.08-.06-.17-.09-.24.2.02.37.03.51.03.13,0,.21-.06.21-.23v-2.51h-.15c-.37,0-.48.01-.5.01-.05,0-.05,0-.05-.05v-.23s0-.05.05-.05c.03,0,.14.01.5.01h.52c.37,0,.48-.01.5-.01.04,0,.05,0,.05.05v.23ZM100.77,1.17s0,.05-.04.05-.12-.01-.44-.01h-.37c-.33,0-.41.01-.44.01-.04,0-.05,0-.05-.05v-.24s0-.04.05-.04c.03,0,.11.01.44.01h.37c.32,0,.41-.01.44-.01s.04,0,.04.04v.24Z"/>
      <path d="M101.67,2.02s.05-.05.08-.03c.27.15.55.37.8.61.03.03.02.04-.02.09l-.11.16c-.05.06-.06.06-.09.03-.24-.24-.5-.46-.78-.63-.04-.02-.03-.03,0-.08l.11-.14ZM102.11,5.2c-.06.11-.11.19-.12.24-.01.04-.03.06-.06.06-.02,0-.04,0-.07-.03-.08-.06-.16-.12-.25-.2.11-.12.2-.24.32-.44.14-.25.36-.69.6-1.25.05.06.1.12.16.17.06.05.08.06.08.09,0,.02,0,.05-.03.09-.19.45-.41.9-.62,1.29M101.98.61s.05-.04.08-.02c.27.17.54.4.76.62.03.04.03.05-.01.1l-.12.15c-.04.06-.06.06-.09.03-.23-.24-.5-.48-.76-.65-.04-.03-.03-.03.01-.08l.12-.14ZM106.53,2.54s0,.04-.04.04-.23-.01-.8-.01h-.84v.93h.48c.53,0,.7-.01.73-.01.04,0,.05,0,.05.05,0,.03-.01.16-.01.53v.48c0,.79.01.91.01.94s0,.04-.05.04h-.26s-.05,0-.05-.04v-.25h-2.09v.28s0,.05-.04.05h-.25s-.05,0-.05-.05c0-.03.01-.16.01-.96v-.43c0-.43-.01-.57-.01-.6,0-.04,0-.05.05-.05.03,0,.21.01.74.01h.4v-.93h-.76c-.58,0-.77.01-.8.01-.04,0-.04,0-.04-.04v-.24s0-.05.04-.05c.03,0,.22.01.8.01h.76v-.92c-.37.08-.76.14-1.15.2-.12.02-.12.01-.16-.09-.03-.08-.07-.15-.11-.2.93-.1,1.99-.33,2.5-.53.13-.05.22-.09.3-.15.09.07.17.14.24.21.04.03.05.05.05.08s-.02.05-.07.06c-.05,0-.13.02-.22.05-.32.11-.67.22-1.04.3v1h.84c.57,0,.76-.01.8-.01s.04,0,.04.05v.24ZM105.76,3.79h-2.09v1.15h2.09v-1.15Z"/>
      <path d="M109.88,1.77s0,.05-.03.05c-.03,0-.2-.01-.73-.01h-.4v.36h.3c.48,0,.64-.01.67-.01.04,0,.04,0,.04.05,0,.03-.01.14-.01.46v.55c0,.32.01.44.01.46,0,.04,0,.05-.04.05-.03,0-.15-.01-.67-.01h-.3v.36h.3c.5,0,.66-.01.69-.01.04,0,.04,0,.04.05v.2s0,.04-.04.04c-.03,0-.19-.01-.69-.01h-.3v.41c.35-.05.71-.1,1.04-.17-.02.07-.03.12-.04.17-.01.12-.01.11-.12.14-.66.13-1.33.23-2.02.31-.11.01-.2.03-.22.05-.02.01-.04.03-.07.03-.03,0-.05-.02-.07-.07-.02-.08-.06-.21-.08-.32.19,0,.36,0,.58-.02.2-.02.43-.04.69-.07v-.45h-.4c-.5,0-.66.01-.69.01-.04,0-.05,0-.05-.04v-.2s0-.05.05-.05c.03,0,.19.01.69.01h.4v-.36h-.28c-.48,0-.64.01-.67.01-.04,0-.04,0-.04-.05,0-.03.01-.15.01-.46v-.55c0-.33-.01-.44-.01-.47,0-.04,0-.05.04-.05.03,0,.19.01.67.01h.28v-.36h-.48c-.51,0-.69.01-.72.01-.04,0-.04,0-.04-.05v-.21s0-.04.04-.04c.03,0,.2.01.72.01h.48v-.37c-.28.04-.56.07-.87.1-.1,0-.11.01-.15-.07-.03-.09-.08-.15-.12-.2.83-.05,1.38-.14,1.95-.29.1-.03.19-.06.26-.11.09.07.16.13.22.19.03.03.05.05.05.08,0,.03-.05.05-.1.05s-.14.02-.22.04c-.25.06-.48.11-.71.16v.42h.4c.52,0,.69-.01.72-.01.03,0,.04,0,.04.04v.21ZM108.42,2.41h-.68v.41h.68v-.41ZM108.42,3.05h-.68v.43h.68v-.43ZM109.44,2.41h-.72v.41h.72v-.41ZM109.44,3.05h-.72v.43h.72v-.43ZM111.34,1.81c.45,0,.59-.01.62-.01.04,0,.05.01.05.05-.01.17-.01.33-.01.5-.01.9-.05,1.82-.17,2.52-.07.4-.26.57-.61.57-.16,0-.28,0-.4-.01-.1,0-.1-.03-.1-.1,0-.1-.04-.2-.08-.27.19.03.36.05.55.05s.28-.1.32-.39c.1-.61.15-1.57.15-2.6h-.68c-.02.57-.08,1.13-.2,1.58-.2.72-.49,1.28-1.08,1.75-.05.03-.06.05-.09.05-.02,0-.04-.02-.07-.05-.06-.07-.14-.12-.23-.15.64-.4.95-.97,1.15-1.71.1-.37.16-.91.19-1.47h-.06c-.44,0-.58.01-.61.01-.04,0-.05,0-.05-.04v-.24s0-.04.05-.04c.03,0,.17.01.61.01h.07c0-.21.01-.43.01-.64,0-.35,0-.49-.04-.7.13,0,.25.02.37.04.04,0,.06.03.06.05,0,.04-.01.07-.03.12-.02.06-.03.23-.03.53,0,.2,0,.4,0,.6h.33Z"/>
      <path d="M116.46,3.55c.38.33.82.54,1.52.68-.06.06-.11.12-.15.2-.04.1-.06.1-.16.06-.74-.23-1.19-.51-1.6-.95h-1.52c-.36.37-.82.7-1.52.98-.1.04-.11.04-.17-.05-.04-.07-.09-.13-.15-.18.67-.21,1.12-.48,1.43-.75h-.54c-.53,0-.7.01-.74.01s-.04,0-.04-.05v-.21s0-.05.04-.05.2.01.74.01h.49v-1.82h-.21c-.55,0-.75.01-.77.01-.04,0-.05,0-.05-.05v-.22s0-.05.05-.05c.03,0,.22.01.77.01h.21v-.02c0-.33,0-.52-.03-.67.14,0,.24.02.36.03.03,0,.06.02.06.04,0,.04-.02.07-.03.1-.02.06-.03.19-.03.49v.02h1.75v-.02c0-.33,0-.52-.03-.67.13,0,.24.02.36.03.04,0,.06.02.06.04,0,.04-.02.07-.03.11-.02.05-.03.18-.03.48v.02h.28c.55,0,.74-.01.77-.01.04,0,.05,0,.05.05v.22s0,.05-.05.05c-.03,0-.22-.01-.77-.01h-.28v1.82h.54c.53,0,.7-.01.74-.01.04,0,.05,0,.05.05v.21s0,.05-.05.05c-.03,0-.2-.01-.74-.01h-.58ZM117.52,5.34s0,.05-.05.05c-.03,0-.21-.01-.78-.01h-2.72c-.57,0-.75.01-.79.01-.04,0-.04,0-.04-.05v-.23s0-.05.04-.05c.03,0,.22.01.79.01h1.18v-.51h-.45c-.53,0-.7.01-.73.01-.04,0-.05,0-.05-.05v-.21s0-.05.05-.05c.03,0,.2.01.73.01h.45v-.05c0-.22-.01-.35-.03-.49.14,0,.24.02.35.03.03,0,.06.02.06.05s-.01.05-.02.08c-.02.05-.03.15-.03.32v.06h.47c.53,0,.7-.01.74-.01.04,0,.04,0,.04.05v.21s0,.05-.04.05c-.03,0-.21-.01-.74-.01h-.47v.51h1.21c.57,0,.75-.01.78-.01.04,0,.05,0,.05.05v.23ZM116.18,1.44h-1.75v.41h1.75v-.41ZM116.18,2.12h-1.75v.42h1.75v-.42ZM116.18,2.81h-1.75v.45h1.75v-.45Z"/>
      <path d="M120.93,1.87c-.02.06-.03.1-.04.16-.01.09-.02.1-.12.11l-.1.02v.24c0,.26,0,.53,0,.75,0,.17-.03.28-.13.35-.09.07-.19.1-.48.1-.11,0-.12,0-.14-.11-.02-.07-.05-.14-.09-.2.16.02.28.02.4.02.1,0,.15-.05.15-.2v-.91l-.43.06v.44c0,.24.01.33.01.36,0,.04,0,.05-.05.05h-.2s-.04,0-.04-.05c0-.03.01-.12.01-.36v-.4l-.38.05c-.03.45-.12.8-.4,1.18-.03.05-.05.06-.07.06-.02,0-.04-.02-.08-.05-.06-.04-.14-.07-.2-.08.3-.33.42-.63.46-1.08h-.14c-.12.02-.16.04-.2.06-.02.01-.05.03-.08.03s-.04-.02-.06-.06c-.02-.08-.04-.18-.06-.28.13,0,.23,0,.46-.02.03,0,.06,0,.09,0,0-.13,0-.27,0-.43v-.3c0-.31-.01-.44-.01-.48,0-.04,0-.05.05-.05.03,0,.15.01.53.01h.01c.05-.1.08-.2.11-.29.02-.06.03-.13.03-.21.12.02.21.03.31.06.04.01.05.03.05.06s-.02.04-.04.07c-.03.03-.05.07-.07.11-.03.07-.06.13-.08.19h.21c.37,0,.49-.01.52-.01.04,0,.05,0,.05.05,0,.03-.01.16-.01.48v.52l.27-.05ZM123.5,5.37s0,.04-.05.04c-.03,0-.2-.01-.73-.01h-3.48c-.53,0-.7.01-.73.01-.04,0-.05,0-.05-.04v-.23s0-.05.05-.05c.02,0,.19.01.63.01v-.78c0-.31-.01-.44-.01-.48,0-.04,0-.05.04-.05.03,0,.23.01.81.01h1.96c.57,0,.77-.01.8-.01.04,0,.05,0,.05.05,0,.03-.01.16-.01.48v.78c.47,0,.64-.01.67-.01.04,0,.05,0,.05.05v.23ZM120.38,1.14h-1.08v.59c0,.13,0,.25,0,.37.36-.04.73-.08,1.08-.14v-.82ZM120.24,4.11h-.75v1h.75v-1ZM119.69,1.32s.05-.03.08,0c.12.12.22.24.32.38.02.03.02.05-.03.08l-.09.06c-.06.04-.06.04-.09,0-.09-.14-.18-.27-.3-.39-.03-.03-.02-.04.03-.08l.08-.05ZM121.32,4.11h-.76v1h.76v-1ZM122.72,2.03c.05,0,.07-.01.1-.02.02,0,.03-.01.06-.01s.06.02.14.08c.08.07.1.11.1.14,0,.02-.02.05-.05.07-.03.02-.08.08-.14.18-.16.21-.34.41-.56.58.33.2.71.33,1.13.39-.05.05-.09.12-.12.18-.04.1-.04.11-.15.08-.41-.1-.78-.25-1.1-.49-.31.19-.67.33-1.11.44-.11.02-.12.02-.17-.09-.03-.07-.07-.11-.11-.15.47-.08.85-.22,1.15-.38-.22-.2-.41-.44-.55-.73-.17,0-.24,0-.26,0-.04,0-.04,0-.04-.05v-.19s0-.05.04-.05c.03,0,.18.01.62.01h1.05ZM122.67,1.35c0,.08.01.11.05.14.03.02.1.03.21.03.15,0,.21-.02.26-.08.05-.06.05-.15.06-.36.06.05.11.08.19.11.08.03.09.04.08.14-.03.21-.07.3-.14.36-.07.06-.24.1-.45.1-.17,0-.32-.02-.39-.04-.1-.04-.15-.1-.15-.28v-.57h-.63c0,.45-.14.76-.51.96-.04.02-.07.03-.09.03-.03,0-.04-.02-.08-.07-.04-.05-.1-.1-.15-.13.41-.11.54-.39.54-.86,0-.1-.01-.13-.01-.16,0-.04,0-.05.05-.05.03,0,.1.01.4.01h.35c.29,0,.38-.01.41-.01.04,0,.05,0,.05.05,0,.03-.01.12-.01.34v.35ZM121.6,2.29c.14.23.32.43.52.59.25-.18.43-.38.56-.59h-1.08ZM122.45,4.11h-.8v1h.8v-1Z"/>
      <path d="M125.75,1.78c0,.33.01.45.01.49,0,.04,0,.04-.05.04-.03,0-.13-.01-.43-.01h-.51c-.03.32-.07.59-.11.85h.65c.29,0,.37,0,.4,0,.04,0,.05.01.05.05-.01.1-.02.22-.02.33-.07,1.06-.19,1.49-.28,1.67-.09.18-.25.28-.51.28-.09,0-.21,0-.35-.01-.09,0-.09-.01-.11-.12-.02-.09-.05-.19-.08-.24.19.03.32.05.47.05.1,0,.22-.04.27-.11.09-.12.19-.53.26-1.59h-.8l-.04.24q-.02.07-.19.04c-.16-.03-.16-.03-.14-.11.09-.4.16-.79.2-1.17.02-.15.03-.27.02-.39,0-.03.01-.05.05-.05.03,0,.12.01.36.01h.57v-.93h-.65c-.35,0-.45.01-.48.01-.04,0-.04,0-.04-.04v-.24s0-.04.04-.04c.03,0,.12.01.48.01h.49c.3,0,.41-.01.43-.01.04,0,.05,0,.05.04,0,.03-.01.15-.01.48v.49ZM128.42,4.23s.06-.02.08.01c.26.27.52.65.7,1,.02.03.01.05-.05.08l-.14.07c-.07.03-.07.03-.1,0-.07-.14-.16-.3-.25-.44-.7.14-1.6.28-2.32.37-.12.02-.21.05-.24.07-.03.02-.05.02-.08.02s-.05-.02-.07-.07c-.03-.11-.06-.22-.08-.35.19.01.35.01.62-.02.22-.02.5-.05.81-.1v-.87h-.39c-.51,0-.7.01-.73.01-.04,0-.05,0-.05-.05,0-.03.01-.13.01-.43v-.49c0-.31-.01-.41-.01-.44,0-.04,0-.05.05-.05.03,0,.21.01.73.01h.39v-.63c-.3.03-.6.05-.88.07-.14.01-.19.03-.23.05-.02.01-.04.02-.07.02-.02,0-.04-.02-.06-.07-.02-.09-.05-.23-.06-.33.16.01.35.02.49.01.2-.32.36-.67.43-.85.05-.14.09-.25.11-.39.12.03.21.05.32.08.04.02.08.05.08.08,0,.03-.03.06-.06.08-.03.03-.06.07-.1.15-.11.24-.29.56-.44.83.55-.03,1.13-.07,1.55-.12-.14-.16-.29-.33-.43-.46-.03-.03-.03-.04.03-.08l.12-.07s.06-.03.09,0c.31.29.68.71.91,1.04.03.04.02.05-.04.09l-.15.09s-.05.03-.07.03c-.02,0-.02-.01-.04-.03-.06-.11-.14-.23-.23-.35-.27.03-.61.07-.97.1v.66h.46c.52,0,.7-.01.73-.01.04,0,.05,0,.05.05,0,.03-.01.12-.01.44v.49c0,.3.01.4.01.43,0,.04,0,.05-.05.05-.03,0-.2-.01-.73-.01h-.46v.82c.31-.04.61-.1.87-.15-.08-.12-.16-.23-.24-.31-.02-.03-.02-.04.05-.07l.12-.06ZM127.31,2.86h-.84v.86h.84v-.86ZM128.53,2.86h-.9v.86h.9v-.86Z"/>
      <path d="M130.76,3.19c0-.23.01-.57.02-.86-.23.32-.47.62-.75.89-.04.03-.06.06-.08.06-.03,0-.04-.02-.07-.07-.04-.09-.09-.16-.15-.21.67-.61,1.15-1.31,1.46-2.07.06-.14.09-.27.1-.37.14.04.24.08.35.13.04.02.06.04.06.07s-.02.05-.05.07c-.04.03-.07.08-.13.21-.12.27-.26.54-.41.8v2.79c0,.6.01.85.01.88,0,.04,0,.05-.05.05h-.27s-.05,0-.05-.05c0-.03.01-.28.01-.88v-1.43ZM132.59,4.6c0,.27.05.37.22.42.14.04.36.04.71.04s.55-.03.69-.15c.11-.1.19-.33.22-.84.07.06.15.11.25.15.1.04.1.04.08.15-.05.48-.14.71-.32.84-.19.14-.52.19-.93.19-.45,0-.74,0-.93-.07-.2-.07-.33-.22-.33-.6V1.22c0-.29,0-.46-.03-.63.15,0,.26.02.37.03.05,0,.07.02.07.05,0,.04-.01.06-.03.1-.03.06-.03.14-.03.43v1.65c.46-.29.92-.64,1.34-1.08.08-.08.17-.2.22-.3.11.07.21.15.29.23.04.03.05.06.05.09,0,.03-.04.06-.09.08-.07.02-.16.11-.29.24-.41.39-.9.75-1.53,1.14v1.36Z"/>
      <path d="M139.12,3.55c.38.33.82.54,1.52.68-.06.06-.11.12-.15.2-.05.1-.06.1-.16.06-.74-.23-1.2-.51-1.6-.95h-1.52c-.36.37-.82.7-1.52.98-.1.04-.11.04-.16-.05-.04-.07-.09-.13-.15-.18.67-.21,1.12-.48,1.43-.75h-.54c-.53,0-.7.01-.74.01s-.04,0-.04-.05v-.21s0-.05.04-.05.2.01.74.01h.49v-1.82h-.21c-.55,0-.75.01-.77.01-.04,0-.05,0-.05-.05v-.22s0-.05.05-.05c.03,0,.22.01.77.01h.21v-.02c0-.33,0-.52-.03-.67.14,0,.24.02.36.03.03,0,.06.02.06.04,0,.04-.02.07-.03.1-.02.06-.03.19-.03.49v.02h1.75v-.02c0-.33,0-.52-.03-.67.13,0,.24.02.36.03.04,0,.06.02.06.04,0,.04-.02.07-.03.11-.02.05-.03.18-.03.48v.02h.28c.55,0,.74-.01.77-.01.04,0,.05,0,.05.05v.22s0,.05-.05.05c-.03,0-.22-.01-.77-.01h-.28v1.82h.54c.53,0,.7-.01.74-.01.04,0,.05,0,.05.05v.21s0,.05-.05.05c-.03,0-.2-.01-.74-.01h-.58ZM140.17,5.34s0,.05-.05.05c-.03,0-.21-.01-.78-.01h-2.72c-.57,0-.75.01-.79.01-.04,0-.04,0-.04-.05v-.23s0-.05.04-.05c.03,0,.22.01.79.01h1.18v-.51h-.45c-.53,0-.7.01-.73.01-.04,0-.05,0-.05-.05v-.21s0-.05.05-.05c.03,0,.2.01.73.01h.45v-.05c0-.22-.01-.35-.03-.49.14,0,.24.02.35.03.04,0,.06.02.06.05s-.01.05-.02.08c-.02.05-.03.15-.03.32v.06h.47c.53,0,.7-.01.74-.01.04,0,.04,0,.04.05v.21s0,.05-.04.05c-.03,0-.21-.01-.74-.01h-.47v.51h1.21c.57,0,.75-.01.78-.01.04,0,.05,0,.05.05v.23ZM138.84,1.44h-1.75v.41h1.75v-.41ZM138.84,2.12h-1.75v.42h1.75v-.42ZM138.84,2.81h-1.75v.45h1.75v-.45Z"/>
      <path d="M146.17,2.55c-.03.06-.05.08-.07.08-.02,0-.04-.01-.09-.03-.96-.38-1.78-.92-2.39-1.74-.63.85-1.39,1.38-2.31,1.79q-.1.04-.16-.05c-.05-.08-.11-.14-.18-.18,1.08-.46,1.86-1.06,2.33-1.73.09-.14.12-.19.16-.32.13.02.26.04.36.08.05.02.08.04.08.07,0,.02-.01.03-.04.05-.02.01-.04.02-.05.03.69.91,1.54,1.37,2.52,1.7-.06.05-.12.14-.16.22M145.99,5.3s0,.05-.05.05c-.03,0-.21-.01-.76-.01h-3.07c-.55,0-.73.01-.76.01-.04,0-.04,0-.04-.05v-.24s0-.04.04-.04c.03,0,.22.01.76.01h1.32v-1.48h-1.13c-.56,0-.75.01-.78.01-.04,0-.05,0-.05-.05v-.24s0-.04.05-.04c.04,0,.22.01.78.01h1.13v-.71h-.35c-.51,0-.68,0-.71,0-.04,0-.05,0-.05-.04v-.24s0-.05.05-.05c.03,0,.2.01.71.01h1.12c.51,0,.68-.01.71-.01.04,0,.05,0,.05.05v.24s0,.04-.05.04c-.03,0-.2,0-.71,0h-.42v.71h1.23c.57,0,.75-.01.78-.01.04,0,.05,0,.05.04v.24c0,.05,0,.05-.05.05-.03,0-.22-.01-.78-.01h-1.23v1.48h1.4c.55,0,.74-.01.76-.01.04,0,.05,0,.05.04v.24ZM142.3,3.82c.06-.03.07-.03.1,0,.18.25.3.49.42.79.02.04.02.06-.05.08l-.17.09c-.08.04-.08.05-.1,0-.12-.33-.23-.56-.4-.81-.02-.03-.02-.05.05-.08l.15-.07ZM145.16,4.01s-.05.06-.09.14c-.13.25-.26.49-.4.68-.03.04-.05.06-.07.06-.02,0-.04-.01-.08-.04-.06-.04-.13-.08-.19-.09.18-.24.32-.49.45-.76.05-.1.07-.16.09-.25.12.04.21.08.29.12.05.03.07.05.07.07,0,.03-.03.05-.06.07"/>
      <path d="M149.22.88c-.78.66-1.03,1.31-1.03,2.12s.25,1.46,1.03,2.12l-.12.14c-.88-.67-1.22-1.36-1.22-2.26s.34-1.59,1.22-2.26l.12.14Z"/>
      <path d="M152.2,1.84c.14,0,.18-.01.23-.05.03-.02.07-.01.12.02.05.04.13.1.18.15.06.05.05.1.01.14-.05.04-.08.08-.12.16-.28.6-.58,1.09-.89,1.45-.42.48-.91.9-1.45,1.2-.04.02-.07.01-.1-.01-.07-.06-.15-.1-.26-.14.68-.37,1.09-.73,1.54-1.23.35-.4.61-.81.87-1.42l-1.34.04c-.34.43-.59.71-.92.99-.05.05-.09.05-.15,0-.05-.04-.14-.08-.24-.1.58-.47.93-.89,1.21-1.35.15-.24.21-.39.23-.58.14.04.28.11.35.16.05.03.05.09,0,.12-.05.03-.1.1-.14.16-.07.11-.12.2-.18.29l1.04-.02Z"/>
      <path d="M154.23,1.95c0-.29-.02-.51-.05-.67.12.01.29.05.38.07.06.02.06.07.04.11-.03.06-.05.19-.05.49v.78c0,.24,0,.41.01.61,0,.05-.02.07-.07.07h-.22s-.06-.02-.06-.07c0-.2,0-.41,0-.64v-.77ZM156.18,2.79c0,.72-.17,1.14-.4,1.44-.22.27-.6.53-1.02.68-.05.02-.08.02-.13-.02-.07-.07-.13-.12-.23-.17.47-.14.86-.37,1.08-.64.23-.28.37-.66.37-1.27v-.8c0-.46-.01-.65-.05-.81.14.02.29.04.4.08.05.02.05.07.03.11-.03.07-.05.2-.05.61v.78Z"/>
      <path d="M159.49,3.9h.81c.3,0,.55,0,.85-.02.05,0,.07.01.07.06v.21s-.01.06-.07.06c-.26,0-.56-.01-.85-.01h-1.96c-.23,0-.55.01-.75.02-.05,0-.07,0-.08-.07,0-.06-.02-.18-.02-.27.3.02.56.02.85.02h.81v-1.74h-.45c-.28,0-.49,0-.7.02-.04,0-.05-.01-.06-.07,0-.06-.02-.19-.02-.27.25.02.45.02.76.02h1.2c.29,0,.52,0,.81-.01.04,0,.05,0,.05.05v.22s0,.06-.05.06c-.3-.01-.53-.02-.8-.02h-.4v1.74Z"/>
      <path d="M163.94,3.97c0,.28,0,.54.01.84,0,.04,0,.06-.05.06-.08,0-.19,0-.27,0-.04,0-.05-.01-.05-.06,0-.28.02-.56.02-.83v-1.37c-.49.43-.94.75-1.46,1.05-.04.02-.07.01-.11-.02-.06-.06-.14-.11-.23-.15.57-.32,1.06-.65,1.44-.98.35-.3.68-.63.9-.9.19-.24.28-.38.32-.52.13.07.25.14.32.21.05.05.04.1-.02.13-.06.03-.14.11-.26.25-.19.24-.36.42-.58.64v1.65Z"/>
      <path d="M168.27,1.76c.16,0,.21-.02.25-.05.04-.04.08-.04.12-.01.06.04.14.12.2.19.04.05.03.09-.02.12-.04.03-.07.07-.11.14-.2.43-.46.87-.74,1.23.19.15.38.32.56.51.03.03.01.05,0,.08-.03.06-.1.12-.15.16-.04.03-.05.02-.07,0-.16-.18-.34-.36-.52-.51-.48.54-.99.93-1.61,1.27-.05.03-.08.04-.13,0-.07-.07-.16-.11-.26-.15.7-.35,1.28-.77,1.74-1.3-.2-.16-.45-.33-.73-.47.05-.07.1-.13.16-.19.02-.02.04-.03.08-.01.21.11.47.28.69.44.26-.33.51-.76.68-1.16l-1.37.03c-.32.44-.57.71-1.01,1.08-.05.04-.08.05-.12.01-.06-.05-.14-.09-.22-.13.64-.49,1.05-1,1.33-1.5.11-.19.15-.31.19-.46.11.03.23.09.33.16.06.04.04.09-.01.13-.06.04-.1.1-.13.16-.05.09-.09.16-.17.27l1.06-.02Z"/>
      <path d="M170.6,3.21c-.4,0-.6.05-.63.05-.04,0-.07-.02-.08-.07-.02-.08-.04-.23-.05-.35.28.04.64.04,1.03.04h1.42c.32,0,.66,0,1.02-.01.06,0,.07,0,.07.06,0,.07,0,.17,0,.24,0,.05-.01.06-.07.06-.35-.01-.69-.01-1-.01h-1.71Z"/>
      <path d="M176.07,1.51s0,.04-.04.04c-.03,0-.13,0-.49,0h-.14c.07.12.13.24.19.39.01.03,0,.04-.04.06l-.16.05c-.05.02-.06.01-.07-.03-.05-.17-.12-.33-.2-.47h-.38c-.12.2-.26.37-.46.56-.03.03-.05.05-.07.05-.02,0-.03-.02-.07-.05-.04-.05-.09-.09-.14-.12.31-.28.51-.53.67-.9.02-.04.05-.12.05-.18.09.01.2.04.26.05.03.01.05.03.05.05,0,.02-.02.05-.04.07-.02.02-.04.05-.07.11l-.07.13h.67c.35,0,.46,0,.49,0,.03,0,.04,0,.04.04v.18ZM178.15,3.18s0,.04-.03.04c-.03,0-.17-.01-.61-.01h-2.76c-.43,0-.58.01-.61.01-.03,0-.04,0-.04-.04v-.19s0-.04.04-.04c.03,0,.17,0,.61,0h1.19v-.45h-.69c-.47,0-.64.01-.66.01-.03,0-.04,0-.04-.04v-.18s0-.04.04-.04c.02,0,.19,0,.66,0h.69c0-.13,0-.23-.03-.32.12,0,.21.02.29.03.03,0,.05.02.05.04,0,.02,0,.04-.02.07-.01.03-.02.09-.02.19h.79c.47,0,.63,0,.66,0,.03,0,.03,0,.03.04v.18s0,.04-.03.04c-.03,0-.18-.01-.66-.01h-.79v.45h1.3c.44,0,.58,0,.61,0,.03,0,.03,0,.03.04v.19ZM178.04,3.9s0,.04-.04.04c-.03,0-.18,0-.63,0h-.28v.16c0,.19,0,.38,0,.56,0,.14-.03.25-.13.32-.08.05-.2.08-.54.08q-.09,0-.11-.09c-.02-.07-.06-.14-.1-.2.15.01.27.02.44.02.12,0,.17-.05.17-.19v-.66h-1.95c-.45,0-.6,0-.63,0-.03,0-.04,0-.04-.04v-.19s0-.04.04-.04c.02,0,.18,0,.63,0h1.95c0-.18-.01-.3-.04-.4.11,0,.22.02.3.03.03,0,.06.02.06.04,0,.03-.01.05-.03.08-.02.04-.01.11-.01.25h.28c.45,0,.6,0,.63,0,.03,0,.04,0,.04.04v.19ZM175.13,4.06s.05-.03.08,0c.2.15.36.32.52.53.02.03.02.04-.02.07l-.14.1c-.06.04-.06.04-.08,0-.14-.21-.31-.4-.49-.55-.03-.02-.02-.04.01-.06l.13-.09ZM178.13,1.51s0,.04-.04.04c-.02,0-.15,0-.56,0h-.35c.08.12.15.25.21.39,0,.03,0,.04-.05.06l-.15.05c-.05.02-.06.01-.07-.03-.06-.16-.13-.33-.22-.47h-.42c-.07.12-.15.24-.25.35-.03.04-.05.06-.07.06-.01,0-.04-.01-.07-.04-.05-.04-.1-.07-.15-.08.22-.22.36-.44.46-.73.02-.05.03-.1.05-.2.1.01.21.03.27.05.03,0,.05.03.05.05,0,.02-.01.04-.03.06-.02.02-.04.05-.07.11l-.06.15h.93c.4,0,.53,0,.56,0,.03,0,.04,0,.04.04v.18Z"/>
      <path d="M182.78,1.63s0,.04-.04.04c-.02,0-.17,0-.6,0h-1.73c-.13.22-.26.42-.39.59.57-.02,1.18-.06,1.69-.11-.11-.08-.22-.16-.33-.24-.03-.02-.03-.03,0-.07l.09-.08s.05-.02.07,0c.32.19.68.49.94.75.03.03.03.04-.02.08l-.12.1s-.05.04-.07,0c-.1-.12-.21-.23-.32-.33-.8.08-1.83.15-2.68.19-.13,0-.17,0-.2.03-.01,0-.03.02-.05.02-.02,0-.04-.02-.05-.05-.02-.07-.04-.19-.06-.28.15,0,.31.01.47,0,.1,0,.21,0,.32,0,.16-.21.28-.41.38-.6h-.72c-.44,0-.58,0-.6,0-.03,0-.04,0-.04-.04v-.19s0-.04.04-.04c.02,0,.17,0,.6,0h1.2v-.06c0-.24,0-.36-.03-.47.11,0,.22.01.31.02.04,0,.06.02.06.04,0,.03-.01.05-.03.08-.01.04-.02.11-.02.32v.06h1.3c.43,0,.57,0,.6,0,.04,0,.04,0,.04.04v.19ZM182.06,3.98c0,.22.01.54.01.63,0,.14-.03.26-.11.33-.07.07-.2.09-.59.09-.09,0-.09,0-.12-.07-.02-.08-.05-.14-.09-.2.17.01.29.02.44.02.13,0,.18-.05.18-.19v-.36h-2.08v.27c0,.36,0,.51,0,.53,0,.03,0,.04-.04.04h-.21s-.04,0-.04-.04c0-.02,0-.16,0-.52v-1.12c0-.37,0-.51,0-.53,0-.04,0-.04.04-.04.03,0,.19,0,.64,0h1.27c.45,0,.61,0,.64,0,.03,0,.04,0,.04.04,0,.02-.01.19-.01.56v.58ZM181.79,3.05h-2.08v.35h2.08v-.35ZM181.79,3.63h-2.08v.36h2.08v-.36Z"/>
      <path d="M185.94,1.98c.04.64.14,1.15.3,1.6.15-.23.27-.46.36-.68.06-.14.11-.28.12-.42.1.03.2.06.26.1.04.02.06.04.06.06,0,.03-.03.06-.06.09-.03.04-.06.11-.11.22-.14.33-.31.64-.52.93.22.51.51.81.68.81.12,0,.2-.18.22-.66.04.05.11.09.16.12.08.05.09.05.08.14-.05.5-.2.72-.45.72-.3,0-.61-.33-.88-.88-.27.33-.6.62-.99.86-.03.02-.05.03-.07.03-.02,0-.04-.02-.08-.06-.04-.05-.09-.09-.14-.12.46-.24.85-.59,1.15-.98-.2-.5-.33-1.08-.38-1.86h-1.62v.76h.71c.29,0,.38-.01.4-.01.03,0,.04.01.04.04,0,.16-.02.32-.03.48-.02.3-.03.52-.08.75-.06.26-.21.39-.47.39-.1,0-.18,0-.29-.01-.07,0-.07-.01-.09-.11-.02-.07-.04-.14-.07-.2.18.03.3.04.43.04.12,0,.2-.03.25-.24.04-.17.06-.48.07-.89h-.87c0,.35-.02.6-.07.87-.06.35-.14.75-.39,1.15-.02.04-.04.06-.05.06-.01,0-.03-.02-.06-.05-.05-.06-.12-.1-.17-.13.25-.35.35-.76.4-1.14.04-.31.06-.6.06-1.08,0-.64-.01-.9-.01-.92,0-.04,0-.04.04-.04.02,0,.18,0,.65,0h1.2c0-.07,0-.14,0-.22,0-.3,0-.39-.04-.57.11,0,.21.01.31.03.04,0,.06.03.06.05,0,.04,0,.06-.02.08-.02.05-.03.14-.03.4,0,.08,0,.16,0,.24h.78c.46,0,.62,0,.64,0,.03,0,.04,0,.04.04v.2s0,.04-.04.04c-.03,0-.18-.01-.64-.01h-.77ZM186.49,1.02s.05-.03.07-.01c.15.1.32.24.46.4.02.02.02.04-.02.07l-.1.08s-.07.05-.09.01c-.13-.18-.29-.31-.43-.41-.03-.02-.04-.04,0-.07l.09-.07Z"/>
      <path d="M190.4,3c0,.21-.17.39-.39.39s-.38-.18-.38-.39.18-.39.38-.39.39.17.39.39"/>
      <path d="M195.79,2.04c-.2.75-.5,1.31-.92,1.74.46.39,1.06.72,1.86.97-.05.06-.1.14-.14.21-.03.06-.04.07-.07.07-.01,0-.04,0-.07-.02-.77-.29-1.35-.65-1.79-1.04-.45.4-1.03.74-1.79,1.02-.03,0-.06.02-.07.02-.03,0-.04-.02-.07-.07-.04-.07-.09-.14-.14-.18.84-.28,1.41-.6,1.85-.99-.45-.46-.73-1-.95-1.74h-.16c-.44,0-.59,0-.61,0-.03,0-.04,0-.04-.04v-.21s0-.04.04-.04c.02,0,.17,0,.61,0h1.15v-.32c0-.24,0-.38-.04-.51.12,0,.22.01.33.02.03,0,.05.02.05.04,0,.03-.01.06-.03.09-.02.05-.02.11-.02.35v.32h1.22c.44,0,.59,0,.61,0,.04,0,.04,0,.04.04v.21s0,.04-.04.04c-.02,0-.17,0-.61,0h-.21ZM193.78,2.04c.2.64.45,1.12.87,1.54.4-.41.65-.89.82-1.54h-1.69Z"/>
      <path d="M198.01,3.16c0-.19,0-.47.01-.7-.19.26-.39.51-.62.73-.03.03-.05.05-.06.05-.02,0-.04-.02-.06-.06-.03-.07-.07-.13-.12-.18.55-.5.95-1.07,1.2-1.7.05-.12.07-.22.08-.31.12.03.2.07.28.11.04.02.05.03.05.05s-.01.04-.04.06c-.03.02-.06.07-.11.18-.1.22-.21.44-.34.66v2.29c0,.49.01.69.01.72,0,.03,0,.04-.04.04h-.22s-.04,0-.04-.04c0-.02.01-.23.01-.72v-1.17ZM199.51,4.31c0,.22.04.31.18.35.12.03.29.03.58.03s.45-.03.57-.12c.09-.08.15-.27.18-.69.06.05.12.09.2.12.08.03.08.04.07.12-.04.39-.11.58-.26.69-.16.12-.42.15-.76.15-.37,0-.61,0-.77-.06-.16-.06-.27-.18-.27-.49V1.54c0-.24,0-.38-.03-.52.12,0,.21.01.31.03.04,0,.06.02.06.04,0,.03,0,.05-.02.08-.02.05-.03.11-.03.35v1.35c.38-.24.75-.52,1.1-.88.06-.07.14-.16.18-.25.09.06.18.12.24.19.03.03.04.05.04.07,0,.03-.03.05-.07.07-.06.02-.13.09-.24.19-.33.32-.74.61-1.25.93v1.11Z"/>
      <path d="M203.61,1.94s0,.04-.04.04c-.03,0-.14-.01-.51-.01h-.4c0,.23-.01.44-.02.64h.46c.21,0,.26,0,.29,0,.03,0,.04,0,.04.04,0,.15,0,.3-.02.56,0,.63-.04,1.05-.1,1.34-.07.3-.18.45-.44.45-.08,0-.14,0-.23,0-.07,0-.07-.01-.08-.1-.01-.08-.04-.15-.07-.2.12.02.23.04.35.04.17,0,.2-.11.24-.37.04-.26.08-.68.09-1.49h-.53c-.06.95-.18,1.52-.57,2.09-.02.03-.04.05-.05.05s-.03-.01-.06-.04c-.05-.06-.11-.11-.17-.14.52-.65.59-1.41.61-2.84-.36,0-.47.01-.5.01s-.03,0-.03-.04v-.2s0-.03.03-.03.15.01.52.01h.3v-.31c0-.24,0-.36-.03-.48.12,0,.19,0,.3.02.04,0,.06.02.06.04,0,.03-.01.05-.03.08-.02.05-.03.12-.03.33v.31h.07c.37,0,.48-.01.51-.01.03,0,.04,0,.04.03v.2ZM205.96,1.87s0,.04-.04.04c-.02,0-.15-.01-.55-.01h-1.32c-.11.19-.24.39-.41.59-.03.03-.05.05-.07.05-.02,0-.03-.01-.06-.05-.04-.05-.08-.08-.14-.1.39-.4.57-.77.69-1.15.04-.14.05-.22.06-.31.1.02.17.03.26.06.04,0,.05.03.05.05,0,.02-.01.04-.03.06-.03.04-.05.09-.09.19-.04.12-.09.24-.15.37h1.19c.4,0,.53,0,.55,0,.03,0,.04,0,.04.04v.2ZM204.18,4.29c0,.25.01.33.07.37.08.05.18.07.57.07.53,0,.68-.02.77-.1.11-.08.14-.22.15-.59.05.04.11.07.18.09.07.02.08.03.07.12-.03.43-.12.5-.24.6-.13.11-.44.14-.96.14-.47,0-.62-.02-.75-.11-.08-.06-.13-.14-.13-.38v-1.19c-.21.07-.28.1-.3.1-.03,0-.05,0-.05-.03l-.05-.18s0-.04.03-.04c.02,0,.12-.02.37-.09v-.24c0-.2,0-.4-.03-.53.11,0,.18.01.27.02.03,0,.06.02.06.04,0,.03-.01.05-.02.08-.01.04-.02.12-.02.34v.21l.47-.14v-.2c0-.26,0-.38-.03-.56.13,0,.2,0,.28.02.03,0,.05.02.05.05,0,.02,0,.04-.02.07-.02.05-.03.13-.03.35v.2l.33-.1c.38-.11.5-.17.54-.17.02,0,.03.01.03.03v.21c-.03.44-.06.84-.12,1.05-.04.15-.16.21-.29.22-.07,0-.14,0-.25,0-.05,0-.06,0-.07-.08,0-.07-.03-.13-.06-.19.12.03.2.04.29.04.07,0,.13-.03.14-.12.03-.17.07-.46.08-.85l-.64.2v.63c0,.36,0,.5,0,.53,0,.03,0,.04-.04.04h-.19s-.04,0-.04-.04c0-.02,0-.17,0-.53v-.55l-.47.14v1.06Z"/>
      <path d="M208.12,2s0,.04-.04.04c-.03,0-.13-.01-.48-.01h-.57c-.35,0-.46.01-.48.01-.03,0-.03,0-.03-.04v-.2s0-.04.03-.04c.02,0,.13,0,.48,0h.57c.35,0,.46,0,.48,0,.03,0,.04,0,.04.04v.2ZM207.94,4.33c0,.53,0,.62,0,.64,0,.03,0,.04-.04.04h-.19s-.04,0-.04-.04v-.19h-.71v.27s0,.04-.04.04h-.18s-.04,0-.04-.04c0-.02,0-.12,0-.68v-.28c0-.28,0-.39,0-.41,0-.03,0-.03.04-.03.02,0,.11,0,.39,0h.36c.29,0,.38,0,.4,0,.03,0,.04,0,.04.03,0,.03,0,.12,0,.33v.31ZM207.98,1.37s0,.04-.04.04c-.02,0-.11,0-.4,0h-.37c-.29,0-.38,0-.4,0-.03,0-.04,0-.04-.04v-.18s0-.04.04-.04c.03,0,.11,0,.4,0h.37c.3,0,.38,0,.4,0,.03,0,.04,0,.04.04v.18ZM207.91,2.61s0,.04-.04.04c-.02,0-.1,0-.38,0h-.33c-.27,0-.35,0-.38,0-.03,0-.04,0-.04-.04v-.18s0-.04.04-.04c.02,0,.1.01.38.01h.33c.27,0,.35-.01.38-.01.03,0,.04,0,.04.04v.18ZM207.91,3.23s0,.04-.04.04c-.02,0-.1,0-.38,0h-.33c-.27,0-.35,0-.38,0-.03,0-.04,0-.04-.04v-.18s0-.04.04-.04c.02,0,.1,0,.38,0h.33c.27,0,.35,0,.38,0,.03,0,.04,0,.04.04v.18ZM207.69,3.89h-.71v.67h.71v-.67ZM209.97,2.92c.05,0,.07,0,.1-.02.01,0,.03-.01.05-.01s.06.03.12.09c.06.07.09.11.09.13,0,.03-.02.04-.05.06s-.05.05-.1.14c-.14.31-.34.62-.61.9.31.26.69.44,1.12.58-.05.05-.1.11-.13.18-.03.06-.04.08-.07.08-.01,0-.03-.01-.07-.02-.39-.17-.74-.36-1.04-.63-.29.26-.65.5-1.08.66q-.08.03-.13-.05c-.04-.06-.08-.11-.14-.15.46-.15.85-.38,1.16-.64-.26-.27-.47-.61-.63-1.05-.17,0-.24,0-.26,0-.03,0-.04,0-.04-.04v-.19s0-.03.04-.03c.02,0,.15,0,.56,0h1.11ZM209.87,2.02c0,.11,0,.18.05.2.03.02.07.04.2.04.12,0,.19-.03.23-.09.04-.06.06-.18.06-.42.04.04.09.07.16.09.08.03.08.04.08.11-.01.24-.05.37-.15.45-.08.07-.2.1-.42.1-.19,0-.29-.02-.34-.05-.1-.05-.13-.15-.13-.33v-.76h-.66c0,.69-.16,1.04-.51,1.31-.04.03-.05.04-.07.04-.02,0-.04-.01-.07-.05-.04-.05-.1-.09-.16-.11.3-.2.55-.46.55-1.11,0-.2,0-.29,0-.31,0-.03,0-.04.04-.04.02,0,.1.01.38.01h.37c.28,0,.36-.01.39-.01.03,0,.04,0,.04.04,0,.02,0,.14,0,.39v.48ZM208.83,3.17c.14.36.33.64.55.87.26-.27.45-.57.57-.87h-1.12Z"/>
      <path d="M215.19,1.57s0,.04-.04.04c-.03,0-.17,0-.62,0h-2.68c-.44,0-.59,0-.61,0-.03,0-.04,0-.04-.04v-.2s0-.04.04-.04c.02,0,.17.01.61.01h1.16v-.05c0-.16,0-.29-.03-.4.11,0,.22.01.3.02.04,0,.06.02.06.04,0,.03-.02.06-.03.09-.01.03-.02.11-.02.25v.05h1.24c.44,0,.59-.01.62-.01.03,0,.04,0,.04.04v.2ZM214.3,3.13c.47,0,.63,0,.66,0,.03,0,.04,0,.04.04,0,.03,0,.17,0,.52v.39c0,.22,0,.42,0,.6,0,.12-.02.21-.1.28-.08.07-.18.09-.52.08-.09,0-.09,0-.11-.09-.02-.07-.05-.14-.08-.19.14.01.26.02.38.02.09,0,.15-.04.15-.17v-1.22h-3.01v1.1c0,.39,0,.54,0,.56,0,.03,0,.04-.04.04h-.22s-.04,0-.04-.04c0-.02,0-.16,0-.56v-.83c0-.35,0-.47,0-.5,0-.03,0-.04.04-.04.03,0,.19,0,.65,0h2.21ZM214.3,2.49c0,.21.01.27.01.3s0,.03-.04.03c-.02,0-.17,0-.59,0h-.96c-.42,0-.57,0-.59,0-.03,0-.04,0-.04-.03s0-.09,0-.3v-.26c0-.21,0-.27,0-.3,0-.03,0-.04.04-.04.02,0,.17,0,.59,0h.96c.42,0,.57,0,.59,0,.03,0,.04,0,.04.04,0,.03-.01.09-.01.3v.26ZM213.99,4.17c0,.42,0,.49,0,.51,0,.03,0,.04-.04.04h-.2s-.04,0-.04-.04v-.14h-1.12v.18s0,.04-.04.04h-.2s-.04,0-.04-.04c0-.03,0-.09,0-.52v-.2c0-.17,0-.25,0-.27,0-.03,0-.04.04-.04.03,0,.14,0,.49,0h.6c.35,0,.46,0,.49,0,.03,0,.04,0,.04.04,0,.02,0,.1,0,.23v.22ZM214.02,2.12h-1.66v.47h1.66v-.47ZM213.73,3.9h-1.12v.43h1.12v-.43Z"/>
      <path d="M216.44,3.16c0-.18,0-.37,0-.6-.14.23-.3.45-.48.66-.02.03-.04.04-.06.04-.02,0-.03-.01-.05-.05-.04-.08-.08-.14-.13-.19.48-.51.81-1.16,1.02-1.77.04-.12.07-.22.07-.32.12.04.21.07.29.11.03.01.05.03.05.05,0,.03-.01.04-.04.07-.03.02-.06.07-.09.17-.1.23-.2.47-.32.71v2.28c0,.49.01.69.01.72,0,.03,0,.04-.04.04h-.23s-.04,0-.04-.04c0-.02,0-.23,0-.72v-1.18ZM219.87,2.3s0,.04-.04.04c-.02,0-.18,0-.64,0h0v1.57c0,.26,0,.5,0,.72,0,.18-.03.26-.13.33-.09.07-.26.08-.67.08q-.09,0-.12-.09c-.02-.09-.05-.16-.09-.22.17.01.38.02.52.02s.19-.04.19-.18v-2.23h-1.07c-.46,0-.62,0-.64,0-.03,0-.04,0-.04-.04v-.2s0-.04.04-.04c.02,0,.18,0,.64,0h1.07v-.54c0-.28,0-.42-.03-.57.11,0,.21.01.31.03.04,0,.06.02.06.04,0,.03-.02.06-.03.09-.02.05-.02.13-.02.4v.55h0c.46,0,.62,0,.64,0,.03,0,.04,0,.04.04v.2ZM217.59,2.86s.04-.02.06,0c.24.27.41.52.59.84.01.03,0,.04-.04.07l-.13.09c-.06.04-.07.04-.09,0-.16-.34-.33-.58-.55-.85-.03-.03-.02-.03.03-.07l.13-.08Z"/>
      <path d="M221.83,1.9c.4,0,.53,0,.56,0,.03,0,.04,0,.04.04-.01.14-.01.27-.01.41,0,.75-.05,1.51-.13,2.06-.06.35-.21.49-.5.49-.12,0-.21,0-.31-.01q-.08,0-.09-.11c0-.07-.03-.14-.06-.2.15.03.29.04.44.04s.22-.07.26-.33c.08-.48.12-1.27.12-2.12h-.66c-.03.46-.08.91-.18,1.29-.14.56-.31.98-.7,1.45-.03.03-.04.05-.06.05-.01,0-.03-.01-.05-.05-.07-.08-.12-.13-.19-.17.41-.43.59-.81.74-1.39.09-.36.14-.76.16-1.18h-.16c-.4,0-.53.01-.55.01-.03,0-.04,0-.04-.04v-.2s0-.04.04-.04c.02,0,.15,0,.55,0h.17c0-.14,0-.28,0-.43,0-.29,0-.4-.03-.57.11,0,.22.01.32.03.04,0,.05.03.05.05,0,.03-.01.06-.03.1-.01.05-.03.18-.03.43,0,.13,0,.26-.01.39h.34ZM224.36,3.45c0,1.17.01,1.37.01,1.4,0,.03,0,.04-.04.04h-.22s-.03,0-.03-.04v-.34h-.96v.38s0,.04-.04.04h-.2s-.04,0-.04-.04c0-.03.01-.23.01-1.41v-.82c0-.83-.01-1.04-.01-1.07,0-.03,0-.04.04-.04.02,0,.13.01.47.01h.52c.33,0,.44-.01.47-.01.03,0,.04,0,.04.04,0,.02-.01.23-.01.95v.92ZM224.08,1.8h-.96v2.45h.96V1.8Z"/>
      <path d="M225.46,3.22c0-.18,0-.45,0-.68-.11.18-.24.36-.38.53-.02.03-.04.05-.05.05-.02,0-.03-.02-.04-.05-.03-.08-.07-.14-.11-.19.44-.52.7-1.04.9-1.65.03-.12.05-.22.06-.31.1.02.2.05.28.09.03.01.05.03.05.06,0,.03-.02.05-.04.07-.03.02-.05.07-.09.17-.09.26-.19.52-.31.76v2.29c0,.49.01.7.01.72,0,.03,0,.03-.04.03h-.22s-.04,0-.04-.03,0-.24,0-.72v-1.14ZM229.19,1.54s0,.04-.04.04c-.02,0-.18,0-.65,0h-.35v.86h.17c.46,0,.63,0,.65,0,.03,0,.04,0,.04.04,0,.02,0,.18,0,.73v.84c0,.76,0,.9,0,.93,0,.03,0,.04-.04.04h-.21s-.04,0-.04-.04v-.23h-2.21v.25s0,.04-.04.04h-.2s-.04,0-.04-.04c0-.03,0-.18,0-.94v-.77c0-.63,0-.78,0-.81,0-.03,0-.04.04-.04.02,0,.18,0,.64,0h.15v-.86h-.21c-.47,0-.63,0-.65,0-.03,0-.04,0-.04-.04v-.19s0-.04.04-.04c.02,0,.18,0,.65,0h1.64c.47,0,.63,0,.65,0,.03,0,.04,0,.04.04v.19ZM227.08,2.67h-.55v1.81h.55v-1.81ZM227.89,1.57h-.56v.86h.56v-.86ZM227.89,2.67h-.56v1.81h.56v-1.81ZM228.73,2.67h-.58v1.81h.58v-1.81Z"/>
      <path d="M230.14,3.15c0-.18,0-.44,0-.67-.12.19-.26.38-.42.56-.03.03-.05.05-.06.05-.02,0-.03-.01-.04-.05-.03-.07-.07-.14-.12-.18.45-.51.73-1.02.95-1.63.04-.12.07-.22.07-.31.1.02.19.05.28.09.03.01.05.03.05.05,0,.03-.01.04-.04.07-.03.03-.06.07-.09.18-.1.25-.2.49-.32.72v2.31c0,.49,0,.7,0,.73,0,.03,0,.04-.04.04h-.22s-.04,0-.04-.04c0-.02.01-.24.01-.73v-1.18ZM233.81,4.79s0,.04-.04.04c-.02,0-.17,0-.63,0h-1.96v.22s0,.04-.04.04h-.2s-.04,0-.04-.04c0-.03.01-.16.01-.5v-1.74c0-.31,0-.44-.03-.6.12,0,.2.01.3.03.03,0,.05.02.05.05s-.01.05-.02.08c-.02.05-.03.15-.03.43v1.78h1.96c.46,0,.61,0,.63,0,.03,0,.04,0,.04.04v.19ZM233.79,1.68s0,.04-.04.04c-.02,0-.18,0-.65,0h-.63c-.03.16-.07.32-.1.45h.46c.37,0,.49,0,.52,0,.03,0,.04,0,.04.04,0,.03,0,.15,0,.51v.99c0,.36,0,.48,0,.51,0,.03,0,.04-.04.04-.03,0-.15,0-.52,0h-.63c-.37,0-.5,0-.52,0-.03,0-.04,0-.04-.04,0-.03.01-.15.01-.51v-.99c0-.36-.01-.48-.01-.51,0-.03,0-.04.04-.04.02,0,.13,0,.43,0,.04-.15.07-.3.1-.45h-.56c-.47,0-.62,0-.65,0s-.03,0-.03-.04v-.19s0-.03.03-.03.18,0,.65,0h.6l.03-.25c.01-.1.02-.17.01-.28.09,0,.19.02.28.03.04,0,.05.03.05.05,0,.02,0,.04-.02.06-.02.03-.04.07-.05.12-.01.08-.02.17-.04.26h.59c.47,0,.62,0,.65,0,.03,0,.04,0,.04.03v.19ZM233.12,2.37h-1.22v.39h1.22v-.39ZM233.12,2.97h-1.22v.4h1.22v-.4ZM233.12,3.59h-1.22v.42h1.22v-.42Z"/>
      <path d="M235.08,3.16c0-.19,0-.47.01-.7-.19.26-.39.51-.62.73-.03.03-.05.05-.06.05-.02,0-.04-.02-.06-.06-.03-.07-.07-.13-.12-.18.55-.5.95-1.07,1.2-1.7.05-.12.08-.22.08-.31.12.03.2.07.28.11.04.02.05.03.05.05s-.01.04-.04.06c-.03.02-.06.07-.11.18-.1.22-.21.44-.34.66v2.29c0,.49.01.69.01.72,0,.03,0,.04-.04.04h-.22s-.04,0-.04-.04c0-.02.01-.23.01-.72v-1.17ZM236.58,4.31c0,.22.04.31.18.35.12.03.29.03.58.03s.45-.03.57-.12c.09-.08.15-.27.18-.69.06.05.12.09.2.12.08.03.08.04.07.12-.04.39-.11.58-.26.69-.16.12-.42.15-.76.15-.37,0-.61,0-.76-.06-.16-.06-.27-.18-.27-.49V1.54c0-.24,0-.38-.03-.52.12,0,.21.01.31.03.04,0,.06.02.06.04,0,.03,0,.05-.02.08-.02.05-.03.11-.03.35v1.35c.38-.24.75-.52,1.1-.88.06-.07.14-.16.18-.25.09.06.18.12.24.19.03.03.04.05.04.07,0,.03-.03.05-.07.07-.05.02-.13.09-.24.19-.33.32-.74.61-1.25.93v1.11Z"/>
      <path d="M241.87,2.7c.06,0,.09,0,.12-.02.02,0,.03,0,.05,0,.03,0,.05.02.12.09.06.06.09.1.09.13,0,.02-.02.04-.05.06-.03.02-.06.04-.1.11-.25.41-.55.75-.9,1.04.5.34,1.12.55,1.85.7-.05.05-.1.12-.14.2-.04.08-.04.08-.13.07-.73-.19-1.33-.43-1.82-.79-.49.34-1.07.59-1.77.78-.09.02-.08.02-.12-.07-.03-.06-.08-.13-.12-.18.73-.18,1.32-.41,1.79-.72-.34-.3-.61-.67-.82-1.14-.37,0-.51.01-.53.01-.03,0-.04,0-.04-.04v-.2s0-.03.04-.03c.02,0,.18,0,.65,0h.77v-.74h-1.14c-.45,0-.59,0-.62,0-.03,0-.04,0-.04-.04v-.2s0-.04.04-.04c.02,0,.17,0,.62,0h1.14v-.2c0-.29,0-.4-.04-.56.11,0,.23.01.32.03.04,0,.07.02.07.05,0,.03-.02.06-.03.09-.01.05-.03.12-.03.38v.22h1.22c.45,0,.59,0,.62,0,.03,0,.04,0,.04.04v.2s0,.04-.04.04c-.02,0-.17,0-.62,0h-1.22v.74h.77ZM240.23,2.95c.19.4.44.72.74.98.34-.27.62-.59.84-.98h-1.59Z"/>
      <path d="M244.83,2.09s0,.04-.04.04c-.03,0-.11,0-.39,0h-.02v.95c.13-.05.27-.11.41-.18,0,.06-.01.12-.01.19,0,.09,0,.1-.07.12-.11.06-.22.1-.33.15v.54c0,.3.01.52.01.7,0,.22-.03.3-.12.37-.09.06-.2.09-.48.08-.09,0-.1,0-.12-.1-.01-.07-.05-.14-.08-.19.1.01.25.01.37.01s.16-.05.16-.2v-1.11c-.08.03-.16.06-.24.09-.1.04-.15.07-.18.09-.01.01-.04.03-.06.03-.02,0-.04-.01-.05-.04-.03-.08-.05-.17-.08-.27.12-.02.24-.06.41-.11.05-.02.11-.04.19-.07v-1.05h-.14c-.3,0-.39,0-.41,0-.03,0-.04,0-.04-.04v-.2s0-.04.04-.04c.02,0,.11.01.41.01h.14v-.38c0-.28-.01-.41-.03-.56.11,0,.21,0,.3.02.04,0,.06.02.06.04,0,.04-.01.06-.03.09-.02.05-.03.13-.03.4v.39h.02c.28,0,.37-.01.39-.01.03,0,.04,0,.04.04v.2ZM246.92,3.47c.05,0,.08,0,.09-.02.02,0,.03,0,.05,0,.03,0,.06.02.12.09.05.06.07.1.07.12s-.01.04-.04.05c-.04.02-.06.05-.12.14-.14.22-.31.41-.5.58.33.2.7.33,1.13.43-.04.04-.08.1-.11.17-.02.06-.03.08-.07.08-.01,0-.04,0-.07-.01-.4-.12-.77-.27-1.1-.5-.29.21-.63.38-1.04.51-.03.01-.05.02-.07.02-.03,0-.04-.02-.07-.07-.03-.05-.07-.11-.12-.14.42-.11.79-.27,1.09-.48-.2-.17-.38-.37-.53-.62-.2.44-.49.83-.9,1.18-.03.02-.05.04-.06.04-.02,0-.03-.01-.06-.05-.04-.06-.09-.1-.14-.13.61-.46.97-1.06,1.13-1.74h-.01c-.45,0-.61.01-.64.01-.03,0-.03,0-.03-.04v-.18s0-.04.03-.04c.02,0,.18.01.64.01h.05c.02-.12.03-.25.04-.38h-.04c-.45,0-.6,0-.63,0-.03,0-.04,0-.04-.04v-.17s0-.04.04-.04c.02,0,.18,0,.63,0h1c.14-.22.21-.39.29-.59.03-.09.05-.16.07-.24.09.02.18.05.27.07.03,0,.04.03.04.05s-.02.04-.04.06c-.03.02-.04.05-.06.09-.08.18-.17.36-.29.56.43,0,.58,0,.61,0,.03,0,.04,0,.04.04v.17s0,.04-.04.04c-.03,0-.18,0-.63,0h-.95c-.01.13-.03.26-.05.38h1.06c.45,0,.61-.01.64-.01.03,0,.04,0,.04.04v.18s0,.04-.04.04c-.02,0-.18-.01-.64-.01h-1.1c-.03.12-.06.25-.1.36h1.15ZM247.37,1.18s-.1.01-.17.03c-.69.14-1.35.2-2.03.23-.09,0-.1,0-.13-.08-.03-.05-.05-.11-.1-.16.77,0,1.47-.09,2.04-.2.08-.02.18-.05.24-.08.08.05.16.12.2.16.02.02.03.04.03.06,0,.03-.04.04-.08.04M245.38,1.56c.06-.02.06-.02.08.01.1.14.19.31.24.45.01.03,0,.04-.04.06l-.12.05c-.05.02-.07.03-.08-.01-.05-.17-.13-.32-.22-.45-.02-.03-.02-.04.04-.07l.11-.04ZM245.82,3.68c.17.25.35.44.56.6.21-.18.38-.38.5-.6h-1.06ZM246.14,1.52c.06-.02.07-.02.08,0,.1.16.17.32.22.47,0,.03,0,.05-.04.07l-.11.04c-.06.02-.07.03-.09-.01-.05-.17-.12-.33-.2-.48-.01-.03,0-.04.05-.06l.09-.04Z"/>
      <path d="M252.31,3.7s0,.04-.03.04c-.02,0-.14,0-.45,0v.3c0,.29,0,.39,0,.42,0,.03,0,.04-.04.04h-.2s-.04,0-.04-.04v-.14h-1.17c0,.13,0,.25,0,.34,0,.2-.03.29-.13.35-.1.07-.27.08-.63.08-.09,0-.09,0-.12-.09-.03-.08-.06-.14-.11-.21.16.02.25.02.41.02.25,0,.3-.04.3-.22v-.27h-.8c-.47,0-.63,0-.65,0-.03,0-.04,0-.04-.04v-.16s0-.04.04-.04c.03,0,.18,0,.65,0h.8v-.35h-1.28c-.43,0-.57,0-.6,0-.03,0-.04,0-.04-.04v-.16s0-.04.04-.04c.02,0,.17.01.6.01h1.28v-.33h-.8c-.47,0-.63,0-.65,0-.03,0-.04,0-.04-.03v-.17s0-.04.04-.04c.03,0,.18,0,.65,0h.8v-.32h-.61c-.46,0-.63.01-.65.01-.03,0-.04,0-.04-.04,0-.02.01-.07.01-.26v-.2c0-.18-.01-.23-.01-.26,0-.03,0-.04.04-.04.02,0,.19,0,.65,0h.61v-.29h-1.24c-.44,0-.58,0-.61,0-.03,0-.04,0-.04-.04v-.17s0-.04.04-.04c.02,0,.17,0,.61,0h1.24c0-.24,0-.37-.03-.48.11,0,.2.01.3.02.03,0,.06.02.06.04,0,.04-.01.06-.03.09-.02.05-.02.12-.02.32h0s1.24,0,1.24,0c.44,0,.58,0,.61,0,.03,0,.04,0,.04.04v.17s0,.04-.04.04c-.03,0-.17,0-.61,0h-1.24v.29h.63c.47,0,.63,0,.66,0,.03,0,.04,0,.04.04,0,.03,0,.08,0,.26v.2c0,.18,0,.23,0,.26,0,.04,0,.04-.04.04-.03,0-.19-.01-.66-.01h-.63v.32h.75c.47,0,.64,0,.66,0,.03,0,.04,0,.04.04,0,.02,0,.12,0,.41v.1c.31,0,.43-.01.45-.01.03,0,.03,0,.03.04v.16ZM250.11,2.09h-1.04v.36h1.04v-.36ZM251.45,2.09h-1.06v.36h1.06v-.36ZM251.56,3.19h-1.17v.33h1.17v-.33ZM251.56,3.73h-1.17v.35h1.17v-.35Z"/>
      <path d="M255.21,3.89c.44.36.98.59,1.77.78-.04.04-.08.1-.12.17q-.05.09-.13.06c-.74-.2-1.28-.48-1.74-.92,0,.7.02.99.02,1.07,0,.03,0,.04-.04.04h-.22s-.04,0-.04-.04c0-.08.02-.36.02-1.06-.46.45-.97.71-1.68.93-.08.03-.09.03-.13-.06-.03-.07-.07-.12-.13-.16.76-.2,1.31-.45,1.71-.82h-.97c-.44,0-.58,0-.61,0-.04,0-.04,0-.04-.04v-.17s0-.04.04-.04c.02,0,.17,0,.61,0h1.19v-.37h-.69c-.47,0-.64,0-.66,0-.03,0-.04,0-.04-.03v-.16s0-.04.04-.04c.02,0,.19,0,.66,0h.69v-.36h-.92c-.46,0-.62,0-.64,0-.04,0-.04,0-.04-.04v-.17s0-.04.04-.04c.02,0,.18,0,.64,0h.37c-.06-.16-.13-.3-.2-.4-.02-.03-.01-.04.04-.06l.12-.04s.05-.02.07,0c.09.12.17.3.24.49h.86c.07-.11.11-.2.17-.34.02-.06.04-.11.06-.19.08.02.15.04.25.07.03,0,.05.03.05.05s-.02.04-.04.06c-.02.02-.05.06-.07.1-.04.08-.09.16-.15.26h.4c.47,0,.62,0,.65,0,.03,0,.04,0,.04.04v.17s0,.04-.04.04c-.03,0-.18,0-.65,0h-.99v.36h.78c.47,0,.63,0,.66,0,.03,0,.04,0,.04.04v.16s0,.03-.04.03c-.03,0-.19,0-.66,0h-.78v.37h1.28c.44,0,.58,0,.61,0,.03,0,.04,0,.04.04v.17s0,.04-.04.04c-.03,0-.17,0-.61,0h-1.06ZM256.91,1.9s0,.04-.04.04c-.03,0-.17,0-.61,0h-2.73c-.44,0-.58,0-.61,0-.04,0-.04,0-.04-.04v-.17s0-.04.04-.04c.02,0,.17,0,.61,0h.16c-.1-.2-.21-.35-.33-.49-.02-.02-.02-.04.03-.06l.12-.06s.05-.02.07,0c.11.12.23.29.33.47.01.03,0,.04-.03.06l-.15.08h.61v-.35c0-.17,0-.3-.03-.42.1,0,.21.01.28.02.03,0,.05.02.05.04s0,.04-.02.07c-.02.03-.03.12-.03.29v.35h.5v-.34c0-.17,0-.3-.03-.42.1,0,.21.01.29.02.03,0,.05.02.05.04,0,.02,0,.04-.02.06-.01.04-.03.12-.03.29v.35h.43c.1-.14.18-.28.26-.44.03-.07.06-.13.07-.22.09.02.19.06.26.09.03,0,.05.03.05.05,0,.03-.01.04-.04.06-.03.02-.05.05-.08.09-.07.12-.16.25-.24.37h.2c.44,0,.58,0,.61,0,.03,0,.04,0,.04.04v.17Z"/>
      <path d="M257.53.74c.88.67,1.22,1.35,1.22,2.26s-.34,1.59-1.22,2.26l-.12-.14c.78-.66,1.03-1.31,1.03-2.12s-.25-1.46-1.03-2.12l.12-.14Z"/>
      <path class="cls-1" d="M28.02,10.06s-.07.02-.09.06c0,.01-.04.02-.06.02-.02,0-.04,0-.05,0-.02,0-.03,0-.05.02-.04.03-.08.06-.1.1-.03.04-.08.05-.11.09,0,0-.02.01-.03.02-.04.01-.07.02-.1.05-.02.01-.05.01-.07.01-.03,0-.06,0-.09.01-.03.01-.07.02-.1,0-.06,0-.1,0-.14.04-.03.02-.05.03-.08.03-.04,0-.08.02-.12.02-.02,0-.03,0-.05,0-.02.03-.04.07-.04.11,0,.03-.01.04-.04.03-.03,0-.14,0-.15.02-.03.05-.07.05-.12.05-.03,0-.07.01-.1.03-.04.03-.1.02-.14.04-.05.01-.1.01-.15.04-.03.02-.06.02-.09.05,0,.01-.03,0-.04.01-.07.01-.14.03-.21.05,0,0-.02,0-.02.01-.03.03-.06.04-.1.04-.07,0-.14,0-.21,0-.03,0-.06,0-.1,0-.04,0-.08-.01-.12-.02-.11-.03-.23-.05-.34-.08-.06-.01-.11-.05-.17-.07-.01,0-.02-.01-.03-.01-.05,0-.09,0-.13-.04,0,0-.01,0-.02,0,0,0-.01,0-.01,0-.04-.01-.08-.02-.12-.05-.04-.02-.08-.05-.12-.08-.04-.02-.06-.06-.09-.09,0-.01-.02-.03-.03-.03-.07,0-.11-.05-.17-.07-.03,0-.05-.03-.07-.05-.05-.05-.1-.08-.17-.11-.05-.02-.1-.06-.14-.09-.06-.04-.11-.09-.18-.12-.03-.02-.05-.04-.08-.07-.05-.04-.09-.08-.14-.11-.04-.03-.07-.05-.11-.07-.04-.02-.07-.05-.1-.08-.01,0-.02-.02-.04-.03-.03,0-.05-.02-.06-.05-.02-.03-.04-.04-.07-.06-.05-.04-.11-.07-.16-.1-.04-.03-.09-.05-.12-.09-.03-.02-.05-.05-.07-.08-.03-.04-.06-.08-.1-.11-.07-.05-.14-.1-.22-.13-.03-.01-.06-.04-.08-.07s-.05-.05-.07-.08c-.02-.03-.05-.06-.09-.07,0,0-.02-.01-.02-.02-.04-.03-.07-.07-.11-.09-.01,0-.02-.02-.03-.03-.02-.04-.06-.07-.09-.08-.04-.02-.07-.04-.1-.07-.07-.09-.15-.15-.23-.22-.03-.03-.07-.06-.09-.1-.01-.02-.05-.04-.07-.06-.01,0-.02-.01-.03-.02-.05-.09-.14-.15-.21-.22-.05-.05-.13-.07-.19-.12,0,0-.02-.01-.03-.02-.04-.04-.08-.08-.12-.11-.05-.04-.11-.08-.16-.12-.02-.01-.03,0-.04,0-.05.04-.09.08-.12.12,0,.01-.02.02-.03.03-.02.01-.03.02-.05.03-.02.02-.04.05-.08.05,0,0-.02.01-.03.02-.02.03-.05.05-.07.08-.02.03-.04.06-.07.08-.02.02-.04.05-.06.07-.05.04-.09.08-.12.13,0,0,0,0,0,0-.06.02-.07.08-.09.13,0,.02-.02.03-.04.03-.05,0-.08.05-.11.08-.02.01-.03.02-.05.04-.02.02-.05.04-.07.06-.02.02-.04.04-.06.05,0,0-.01,0-.01,0-.06.06-.14.1-.19.17,0,0-.01.01-.02.02-.02,0-.03.02-.03.04,0,.04-.04.06-.08.07-.02,0-.04,0-.06.02-.03.01-.05.03-.06.06,0,.02-.03.04-.05.06-.02.02-.06.03-.07.06,0,0-.02,0-.02.01-.03.01-.06.02-.09.03-.02,0-.04,0-.06,0-.02,0-.04,0-.05.03,0,.03-.04.03-.06.04-.03.02-.07.03-.1.04-.01,0-.03,0-.04.02-.02.03-.06.03-.09.04-.05.01-.1.03-.14.07-.02.02-.03.03-.06.04-.01,0-.03.01-.04.02-.02.03-.05.03-.08.03-.04,0-.08,0-.11.04-.03.03-.07.04-.11.05-.02,0-.04.01-.05.03-.02.02-.04.04-.08.03-.04,0-.08,0-.11.03-.04.02-.08.03-.12.03-.02,0-.04,0-.05.03,0,.01-.03.02-.04.02-.03,0-.06,0-.08,0-.04,0-.08.01-.12.03-.01,0-.03.01-.04.02-.01,0-.03,0-.03.01-.02.04-.06.04-.1.05-.03,0-.05.03-.07.04,0,0-.02.01-.02.01-.07,0-.12.04-.18.05-.06.01-.13.02-.19.02-.02,0-.04,0-.05,0-.04,0-.08,0-.11.02-.04.03-.08.02-.12,0-.04-.02-.07-.03-.12-.03-.01,0-.03,0-.04-.01-.04-.04-.08-.04-.13-.03-.04,0-.08-.02-.12-.03-.02,0-.03-.01-.05-.02-.02,0-.03-.02-.05-.03,0,0-.02-.02-.02-.02-.05,0-.1-.04-.15-.05-.01,0-.02,0-.03-.01-.03-.04-.07-.05-.11-.05-.03,0-.04-.01-.04-.04-.01-.08-.02-.16,0-.24,0-.02,0-.05-.01-.08,0-.03-.03-.04-.05-.06-.05-.03-.09-.07-.09-.13,0-.02-.01-.04-.02-.06-.03-.04-.03-.04-.02-.09.03-.02.05-.04.08-.06-.01-.03,0-.06.02-.08.03-.02.02-.06.03-.08,0-.01,0-.03.01-.04.03-.04.04-.09.04-.13,0-.02,0-.04,0-.06,0-.01.01-.02.02-.03.04.04.01.11.08.13.02-.03.04-.06.05-.09,0-.02.02-.04.02-.05,0-.04.02-.08.04-.12.01-.02.01-.05,0-.07-.02-.02-.01-.04,0-.06,0-.02.03-.03.05-.03.02,0,.04.01.04.03,0,.05.04.08.06.12.02.03.04.03.07,0,.02-.02.05-.04.07-.07.02-.02.02-.04,0-.06,0-.01-.01-.02-.02-.03,0,0,0,0,0,0,.07-.01.14,0,.2.06.01.01.02.02.03.03.03.02.04.05.03.08,0,.04,0,.05.05.07-.02-.05,0-.09.04-.12.03-.03.04-.02.06,0,0,.02.01.03.02.05.02.04.05.06.09.07.02,0,.06,0,.08,0,.02,0,.05-.01.07,0,.01,0,.02-.01.04-.02.01,0,.02.01.04.02.02-.01.04-.03.07-.01,0,0,.01,0,.02,0,.1-.03.2-.03.3-.02.04,0,.08,0,.11-.02.03-.01.06-.02.1-.01.02,0,.05,0,.07,0,.05-.02.11-.01.16-.05.01,0,.03,0,.05,0,0,0,0-.01.01-.01.08-.02.14-.08.23-.08.05,0,.11-.02.14-.07,0,0,.01-.01.02-.02.04-.02.08-.04.12-.06.01,0,.03-.02.04-.03.02-.01.05-.03.07-.03.08,0,.14-.04.21-.08.02,0,.04-.02.05-.02.02-.01.04-.03.06-.04.05-.03.09-.08.14-.11.02-.01.05-.02.07-.03.04-.02.08-.03.1-.07,0,0,0,0,0,0,.06,0,.09-.06.14-.09,0,0,.02-.01.03-.02,0,0,.02,0,.02-.01.02-.03.06-.05.09-.07.02-.01.05-.03.07-.04.05-.01.09-.06.14-.06.01,0,.03-.01.04-.02.03-.03.06-.06.1-.08.03-.02.05-.04.09-.04.03,0,.04-.02.06-.05.02-.04.04-.08.08-.12.06-.05.12-.11.17-.17.02-.02.02-.05,0-.07-.03-.03-.06-.06-.09-.07-.04-.02-.06-.06-.09-.09-.03-.02-.05-.05-.06-.08-.01-.02-.03-.05-.05-.06-.01,0-.01-.03-.02-.05,0-.01,0-.03,0-.05,0-.03-.01-.04-.04-.06-.04-.02-.08-.04-.11-.08-.01-.02-.04-.03-.06-.05-.04-.02-.08-.05-.11-.07-.02-.01-.03-.03-.05-.04-.02-.02-.04-.04-.06-.05-.05-.03-.08-.07-.14-.08,0,0-.02,0-.02-.01-.02-.02-.05-.04-.08-.04-.03,0-.04-.02-.04-.05,0-.06-.05-.11-.08-.16,0,0-.01-.02-.01-.03,0-.04.03-.05.05-.02.03.03.06,0,.09.01.01-.04,0-.07-.01-.1-.03-.05,0-.08.02-.12,0-.02.04-.02.07-.04.02-.01.04-.02.06-.04.03-.03.07-.05.11-.06.02,0,.04,0,.06-.02.03-.02.06-.02.1-.03.08,0,.15,0,.23,0,.03,0,.05,0,.07,0,.01,0,.02,0,.03.02,0,.02.03.03.05.04.02,0,.03.02.03.04,0,.03.01.05.03.07.01.01.02.03.02.05,0,.02,0,.04.02.07,0,.02.02.04.05.04.03,0,.06.01.1-.01.02-.01.04,0,.05.01.02.02.04.05.05.07,0,0,.01.01.02.01.04,0,.05.03.06.05.02.02.05.04.07.05.05.03.1.06.15.09.03.02.06.03.09.04.03.01.05.02.06.04.03.04.1.07.13.05,0,0,.02,0,.02-.01.03-.03.05-.05.08-.08.03-.04.05-.09.1-.12,0,0,0,0,.01-.01,0-.06.05-.09.07-.14.03-.07.09-.11.15-.16,0,0,.02-.01.02-.02.03-.08.08-.15.13-.22.02-.03.04-.04.07-.05.04,0,.04,0,.04-.05,0-.02,0-.05,0-.08,0-.02,0-.04,0-.06,0-.05.01-.09.04-.13,0-.01,0-.03,0-.05,0-.02,0-.05.03-.06,0,0,.02-.02.02-.03,0-.04,0-.08,0-.12,0-.04-.02-.06-.06-.06-.07,0-.15,0-.22,0-.07,0-.14,0-.21,0-.07,0-.14,0-.21,0-.04,0-.08,0-.12.02-.05.01-.1.02-.15.02-.03,0-.06,0-.08,0-.01,0-.02,0-.03.01-.04.05-.09.04-.14.04-.03,0-.06,0-.09,0-.05,0-.11,0-.16.04-.04.02-.1.02-.16.02-.02,0-.04,0-.07,0-.02,0-.04,0-.05.03,0,.02-.02.02-.04.02-.02,0-.04,0-.06,0-.04,0-.08,0-.11.03-.03.02-.05.02-.08.03-.03,0-.06,0-.1,0,0,0-.01,0-.02,0-.07.05-.14.04-.22.04-.03,0-.07,0-.1,0,0,0-.02,0-.03,0-.04.02-.08.04-.13.07,0,0,0,.02-.01.02-.02.03-.05.04-.09.04-.02,0-.05,0-.07,0-.02,0-.05,0-.06.03-.01.02-.04.03-.06.03-.02,0-.03,0-.05,0-.06,0-.08.04-.12.07-.01,0-.02.02-.03.02-.06.01-.12.04-.16.08-.01.01-.03.02-.04.03,0,0-.02.02-.02.02-.06.01-.09.05-.12.1,0,0-.02.01-.02.01-.03,0-.06,0-.1,0-.01,0-.03,0-.04-.02-.02-.03-.05-.04-.08-.04-.03,0-.07,0-.09-.04-.02-.02-.04-.02-.07-.02-.04,0-.08,0-.11-.03,0-.01-.04-.02-.05-.02-.04,0-.06-.01-.08-.04-.02-.04-.03-.07-.02-.11,0-.04,0-.04-.04-.06-.04-.02-.04-.06-.01-.08.04-.02.04-.05.04-.08,0,0,0-.01,0,0,.05-.05.1-.1.15-.14,0-.01.01-.03.01-.04,0-.03.01-.05.04-.07.03-.02.07-.03.08-.08.05-.02.04-.07.06-.11.02-.05.09-.09.14-.08.02,0,.04,0,.05-.02.02-.03.05-.05.07-.07.01,0,.03,0,.05,0h.22s.06,0,.08-.04c0-.01.03-.02.05-.02.03,0,.06-.01.08-.02.03,0,.06,0,.08-.01.04,0,.08-.01.11-.04.02-.01.04-.02.07-.02.07,0,.15,0,.22-.01.04,0,.08-.01.11-.01,0,0,0,0,0,0,.02-.04.06-.03.1-.04.08,0,.16,0,.23-.05.03-.02.06-.01.09-.02.04,0,.08-.03.13-.02,0,0,.02,0,.02,0,.01-.03.04-.02.06-.02.03,0,.06,0,.09,0,.04,0,.07-.01.11-.04.05-.05.12-.09.2-.05,0,0,.02,0,.03,0,.02,0,.05,0,.08,0,.02,0,.04-.02.07-.02.06,0,.11-.03.15-.07.01-.01.02-.03.02-.05,0-.09,0-.17,0-.26,0-.11,0-.22,0-.33,0-.01,0-.03.01-.04.02-.02.02-.05.02-.08,0-.04,0-.08.04-.1.01,0,.02-.03.02-.05,0-.03.02-.04.04-.05.04-.02.1-.03.13-.07,0,0,.01,0,.02-.01.04-.01.08-.04.12-.06.04-.02.08-.04.1-.08,0-.01.03-.02.04-.02.09-.01.17-.01.26,0,.01,0,.02,0,.03.01.03.03.06.03.09.03.08,0,.16,0,.25,0,.02,0,.05,0,.06.03,0,0,.01.01.02.01.04,0,.04.03.06.04.05.03.05.09.09.13,0,0,0,.02.02.02.05.02.04.06.04.09,0,.04,0,.07.04.09,0,0,.01.02.01.03,0,.04,0,.07,0,.11,0,.14,0,.28,0,.42,0,.06.01.07.07.07.03,0,.05,0,.08,0,.05,0,.1.02.15.03.08.02.16,0,.24,0,.09,0,.17-.02.26,0,.01,0,.02,0,.04,0,.04,0,.08,0,.12.02.02.02.07.02.1.02.04,0,.07.01.11.03.02.01.05.02.08.02.05,0,.1.01.14.04.02.01.06.02.09.02.05,0,.09.01.14.03.02.01.05.01.08.02.04,0,.08,0,.12,0,.02,0,.04,0,.05.01.05.04.1.03.15.04.04,0,.08,0,.11.03.02.02.05.02.08.02.04,0,.08,0,.11.04.01.01.03.01.04.02.05,0,.09.01.13.04.02.01.04.01.07.01.05,0,.1.02.14.02.05,0,.1.01.14.02.02,0,.04,0,.05.02.03.02.06.03.09.02,0,0,.02,0,.02,0,.05.03.11.04.15.07.04.02.07.03.11.04,0,0,.02,0,.03,0,.08-.02.15.02.22.07.04.03.09.04.12.08,0,0,.02,0,.03.01.04.01.05.02.04.06,0,.03,0,.05,0,.08,0,.02,0,.04.03.06.03.02.05.04.08.06.01.02.02.04.02.06,0,.04,0,.08,0,.12,0,.03-.02.04-.04.05-.03,0-.06.01-.08.05,0,0,0,0,0,0-.06,0-.09.06-.14.07-.01,0-.02.01-.04.02-.01,0-.03.01-.04.02-.04,0-.06.04-.05.08.01.04,0,.05-.04.06-.03,0-.05.01-.07.04-.01.02-.04.04-.06.06,0,0-.02.01-.03.01-.02,0-.05,0-.08,0,0,0-.02,0-.03,0-.1-.05-.2-.06-.3-.06-.02,0-.03,0-.05-.02-.1-.1-.07-.09-.22-.09-.02,0-.03,0-.05,0-.02,0-.04,0-.06-.02,0,0-.01-.02-.02-.02-.08-.02-.14-.09-.23-.09-.03-.03-.08-.02-.12-.03-.02,0-.04-.01-.05-.02-.04-.03-.07-.03-.12-.03-.04,0-.09,0-.13,0-.02,0-.03-.02-.05-.03-.01-.01-.02-.02-.03-.03-.03.01-.05.02-.07.03-.02,0-.05.01-.07-.01,0,0-.02-.01-.03,0-.05.02-.09-.01-.12-.03-.04-.02-.08-.03-.12-.05-.02,0-.04-.02-.07-.03-.02,0-.03-.02-.05-.02-.03-.01-.06-.02-.09-.03-.03-.01-.07,0-.1,0-.01,0-.03.01-.04.01-.06,0-.12,0-.18.02-.04.01-.08.04-.12.05,0,0-.01.02-.01.04,0,.03-.01.05-.04.07,0,0-.01.02-.02.03-.01.02-.02.04-.03.06,0,.01-.02.02-.02.04,0,.02-.01.04-.03.05-.01,0-.02.03-.02.04,0,.04,0,.08-.05.11,0,0,0,.02-.01.03-.01.04-.02.09-.04.13-.04.05-.05.11-.09.15,0,0,0,0,0,0,0,.05-.05.08-.07.13-.02.04-.04.08-.07.13,0,0-.02.01-.02.02-.02.02-.04.04-.06.06-.01.02-.02.04-.04.06-.06.06-.1.13-.13.2-.02.04-.05.09-.07.13-.02.03-.05.04-.07.07-.02.03-.05.05-.07.09-.02.05-.05.09-.09.12-.03.02-.03.05,0,.08.02.02.04.03.06.05.03.02.06.03.08.05.02.02.06.04.08.05.05.04.1.07.13.13,0,0,.01.02.02.02.04.02.09.04.13.07.03.02.05.05.07.07.05.04.09.08.16.1.02,0,.03.02.05.03.05.03.1.06.14.09,0,0,.01.01.02.01.05.01.08.05.12.08.02.02.05.03.08.04.01,0,.02.02.03.02.02.01.03.02.05.04.05.03.1.07.14.12,0,.01.02.02.03.02.08.01.16.05.23.08.01,0,.02,0,.03.01.02.01.05.03.07.04.04.02.08.05.13.07.03.01.06,0,.08.04,0,0,.01,0,.02,0,.04,0,.08.02.11.04.05.04.1.06.16.08.03.02.07.03.1.05.05.04.12.06.18.08.01,0,.03,0,.04.01.01,0,.02,0,.03.02.02.02.04.03.07.04.06.02.07.04.07.1,0,.04.01.06.05.08.04.02.09.03.13.05.04.02.09.03.13.06.05.03.12.04.17.07,0,0,.01,0,.01,0,.06,0,.1.03.15.05.03.01.06.03.09.04,0,0,0,0,0,0,.07,0,.11.06.17.08,0,0,.02,0,.03.01.03.02.05.03.09.04.03,0,.07.02.1.04.04.03.08.05.13.06.01,0,.03,0,.04.01.04.03.08.04.12.06.06.03.13.06.2.08.02,0,.03.02.04.02.02.01.04.02.06.03.02,0,.04.01.06.04.01.02.04.03.06.04.06.04.12.03.19.03.01,0,.03,0,.04,0,.04.04.1.04.15.06,0,0,.01,0,.02,0,.04,0,.07,0,.1.02.03.02.07,0,.11.01.05,0,.11.02.16.02.15.01.29.02.44.03.11,0,.23,0,.34,0,.07,0,.14,0,.21,0,.03,0,.06,0,.09,0,.06,0,.13,0,.19,0,.19,0,.39,0,.58,0,.08,0,.16-.01.23-.02,0,0,.01,0,.02,0,.02,0,.04,0,.05.03,0,.02-.01.03-.03.04-.03.02-.05.04-.09.03-.03,0-.04.02-.04.04,0,.05-.04.1-.08.13,0,0-.01.01-.02.02-.03.06-.09.08-.15.08-.08,0-.15.03-.22.06-.03.01-.04.03-.03.06,0,.03.02.05.03.08,0,.01,0,.02,0,.04M15.14,9.2s-.02,0-.03.01c0,0,0,.02,0,.03,0,.01.01.03.03.04.02.02.06.01.07,0,.01-.02,0-.05-.02-.06-.02,0-.03,0-.06-.02M18.71,5.66s.05,0,.05-.03c0,0,0-.02,0-.02,0,0-.02,0-.02,0,0,.01-.01.03-.02.05"/>
      <path class="cls-1" d="M37.24,6.15c0-.07.02-.14.02-.21.01-.09.02-.17.03-.26,0-.11,0-.22.01-.33,0-.06.01-.12.02-.18,0-.02,0-.04,0-.06-.02-.06-.02-.11,0-.17.01-.07,0-.13,0-.2,0,0,0-.02-.01-.02-.04-.02-.03-.06-.03-.1,0-.08.01-.17.02-.25,0-.02,0-.04,0-.05,0-.02,0-.03,0-.05,0-.06.04-.1.1-.1.04,0,.06-.01.09-.03.03-.02.07-.04.11-.06.01,0,.03,0,.04,0,.05.01.1.02.15.04.04.01.09.03.12.06,0,0,.01.01.02.02.04.01.06.04.07.08.01.04.03.08.02.13,0,.03-.01.07-.02.1,0,.07,0,.14,0,.21,0,.02.01.05.03.07.02.03.02.05,0,.08,0,.01-.02.02-.02.04-.01.02-.01.04,0,.07.02.02.01.04,0,.07,0,.02-.01.05-.02.07,0,.05,0,.1,0,.15,0,.03,0,.06.02.08.02.07.06.08.12.04.03-.02.06-.04.09-.06.02-.01.04-.02.07-.02,0,0,0,0,.01,0,.06-.03.12-.05.18-.08.04-.02.07-.06.1-.08.01,0,.03-.01.04-.01.07,0,.11-.04.16-.07.01,0,.03-.02.04-.02.05-.01.09-.04.11-.08.01-.02.03-.03.05-.03.03,0,.06,0,.08-.02.06-.04.13-.05.2-.07.01,0,.02,0,.03,0,.02,0,.04-.02.04-.05,0-.06.05-.09.1-.11.02,0,.03-.02.05-.03.02-.02.05-.05.07-.07.04-.04.07-.08.08-.14,0-.02.01-.04.02-.05.01-.02.03-.05.03-.07,0-.02.02-.04.04-.06.05-.03.09-.07.14-.1.01,0,.03-.02.04-.02.03,0,.05,0,.08-.02.04-.03.08-.03.13-.02.03.01.06,0,.09,0,.04-.01.08-.02.12-.02.07,0,.14,0,.21,0,.03,0,.06,0,.08.03,0,0,.02.01.03.02.08.03.14.07.21.11.02.01.04.01.06.02.04,0,.07.01.11.04.05.03.1.05.15.08.03.02.05.04.08.07.03.02.05.05.08.08.02.01.03.03.03.05,0,.03,0,.05,0,.08,0,.02-.01.05-.03.06-.04.03-.03.07-.03.11,0,.02,0,.03,0,.04,0,.05-.02.07-.07.07-.08,0-.13.05-.16.12,0,.01-.01.03-.02.04-.06.05-.11.1-.18.13-.04.02-.07.04-.1.07-.04.05-.09.08-.16.1,0,0-.02,0-.03,0-.07.04-.15.08-.22.12-.01,0-.02.02-.02.04,0,.03-.02.05-.04.06,0,0-.01,0-.02.01-.03.05-.08.07-.13.09-.03,0-.05.03-.08.04-.03.01-.06.02-.08.02-.06,0-.12.02-.16.07,0,0-.02.01-.03.02,0,0-.02,0-.03.01-.02.04-.06.04-.1.04-.05,0-.11,0-.15.03-.01,0-.03,0-.04,0-.03,0-.05.02-.08.04-.04.03-.08.07-.14.08,0,0-.02,0-.03,0-.03.04-.07.03-.11.04-.06.03-.12.05-.19.05-.02,0-.05.01-.07.02-.03,0-.06.02-.09.03-.03,0-.06.02-.1.02,0,0,0,0-.01,0-.01,0-.03,0-.04.01-.05.05-.13.03-.17.09-.04.07-.11.11-.18.15-.01,0-.02.01-.03.02-.02.02-.02.04-.01.06.01.03.03.06.06.07.05.02.08.06.12.1.03.03.05.07.1.09.02,0,.03.03.04.05.02.03.04.06.07.07.05.04.1.09.16.11.02,0,.04.03.05.05.03.04.06.08.12.09.01,0,.03.02.04.03.04.03.07.08.13.08,0,0,.02,0,.02.01.05.06.12.11.16.18,0,.01.02.02.03.03.03.02.07.03.1.05.01,0,.02.02.03.02,0,0,.01.02.02.02.05,0,.09.05.14.07.01,0,.02.01.03.02,0,0,.01.02.02.02.08,0,.11.08.17.1,0,0,.02.02.03.02.07,0,.11.05.17.09.02.01.05.03.07.04.06.02.11.03.15.08.01.01.03.02.04.03.04.02.08.03.11.06.03.03.07.04.11.06.04.02.08.04.12.07.04.03.09.04.13.05.02,0,.03.01.05.02,0,0,.02.01.02.01.06,0,.13.02.19.03.02,0,.04,0,.05.02.01.02.04.03.07.03.03,0,.06,0,.08.03,0,.01.02.02.04.02.02,0,.05,0,.07,0,.02,0,.05,0,.07,0,.1.05.21.03.31.06,0,0,.02,0,.03,0,.11.04.22.04.33.05.06,0,.11,0,.15.05,0,.01.04,0,.06.01.05,0,.1,0,.15,0,0,0,.01,0,.02,0,.06-.04.12-.02.19-.03.06,0,.12,0,.18,0,.11,0,.23,0,.34,0,.02,0,.03,0,.05,0,.03,0,.07,0,.1-.02.02-.01.04-.01.06-.01.09,0,.17,0,.26-.01.08,0,.15-.02.23-.03,0,0,.01,0,.02,0,.05-.05.11-.03.17-.05.03,0,.06-.01.08-.03.03-.02.06-.03.09-.03.01,0,.02,0,.03,0,.06-.01.13-.02.19-.05.05-.02.11-.03.16-.04.04-.01.08-.04.11-.06.02-.02.04-.02.06,0,.01.01.03.02.05.04-.01.01-.03.03-.04.04-.01.02-.03.03-.03.05,0,.02-.02.04-.03.07-.02.04-.05.08-.1.08-.02,0-.04.02-.04.04,0,.03-.02.04-.05.05-.04,0-.06.02-.06.07,0,.02,0,.04-.04.05-.01,0-.03.02-.04.03-.01.01-.03.02-.04.03-.01,0-.02.02-.03.03-.03.04-.06.09-.13.09-.03,0-.04.02-.05.04,0,.01,0,.02,0,.03.02.08-.04.11-.1.15,0,0-.02.01-.03.02-.02.02-.04.04-.07.05-.06.03-.1.07-.17.09-.03.01-.06.03-.07.05-.02.02-.04.03-.07.04-.04.01-.08.03-.12.06-.01,0-.02.02-.04.02-.06.02-.1.05-.15.08-.03.02-.06.02-.08.04-.07.04-.14.08-.22.12-.09.04-.17.09-.26.11-.04,0-.08.02-.12.03-.01,0-.03.01-.04.02-.02.04-.06.05-.1.05-.07,0-.11.04-.15.07-.01,0-.02.02-.04.02-.03,0-.07,0-.09.05,0,0,0,0,0,0-.04.02-.08.04-.12.06,0,0,0,0-.01,0-.04.05-.1.04-.15.04-.02,0-.04,0-.05,0-.09.05-.18.03-.27.03-.06,0-.12-.03-.18-.04-.02,0-.04,0-.06,0-.04.04-.1.04-.15.04-.06,0-.11,0-.16-.04-.04-.02-.09-.03-.13-.03-.03,0-.05-.01-.07-.04-.03-.04-.07-.06-.09-.11-.02-.04-.07-.06-.12-.07-.02,0-.04-.02-.05-.03-.05-.03-.07-.08-.12-.09-.05-.05-.12-.06-.17-.09-.01,0-.02-.02-.04-.02,0,0,0-.01-.01-.01-.05,0-.08-.05-.13-.07-.01,0-.03,0-.04-.02-.05-.05-.12-.07-.18-.1-.02-.01-.04-.03-.07-.04,0,0-.02-.01-.03-.02-.08-.02-.12-.08-.18-.12-.01-.01-.03-.02-.05-.02-.03,0-.05-.01-.07-.03-.01-.01-.03-.02-.05-.03-.07-.03-.14-.07-.19-.13-.01-.01-.02-.03-.03-.04-.02-.02-.03-.05-.06-.05-.03-.01-.05-.03-.07-.05-.01-.02-.03-.03-.05-.04,0,0-.02,0-.02-.01-.04-.06-.1-.09-.15-.12-.04-.03-.07-.07-.1-.11-.03-.03-.05-.06-.08-.09-.05-.06-.11-.12-.17-.18-.01-.02-.03-.03-.05-.04-.05-.02-.08-.06-.11-.1-.02-.03-.06-.05-.09-.07-.05-.04-.1-.08-.14-.13-.07-.07-.13-.15-.22-.21-.01-.01-.03-.03-.03-.04-.02-.08-.08-.14-.15-.2-.05-.05-.11-.08-.14-.14,0,0,0,0,0,0-.05-.02-.05-.06-.05-.1,0-.04-.01-.08-.03-.12-.03-.06-.03-.12-.05-.18,0-.02-.02-.04-.03-.07,0,0-.01-.01-.01-.02-.01-.07-.05-.12-.08-.18-.03-.05-.04-.1-.04-.16,0-.03-.01-.05-.02-.08-.01-.02-.02-.04-.01-.07,0,0,0-.02,0-.03,0-.08,0-.16-.02-.23,0-.02-.02-.04-.03-.05"/>
      <path class="cls-1" d="M33.17,7.52s0-.11.02-.16c0-.04.02-.07.03-.1.02-.05.03-.1.01-.16,0-.02,0-.05,0-.07.01-.04,0-.08,0-.12,0-.02-.02-.05-.01-.07,0-.06.02-.11.03-.17,0-.03.01-.06.01-.09,0-.07,0-.15,0-.22,0-.03,0-.07-.02-.1,0,0,0-.03,0-.03.05-.05.02-.1,0-.15-.02-.06-.03-.11-.02-.17.01-.08,0-.17,0-.25-.01-.08,0-.16,0-.24,0-.02,0-.03,0-.05-.02-.03-.05-.04-.08-.01-.06.04-.1.09-.15.14-.01.02-.01.04-.02.06-.01.04-.04.07-.07.1-.04.04-.08.08-.08.14,0,.05-.03.1-.07.13-.03.02-.04.04-.03.07,0,.07-.02.11-.07.15-.02.02-.04.04-.05.05-.04.04-.08.09-.12.13-.03.02-.05.05-.08.07-.06.05-.13.06-.2.08,0,0-.02,0-.02,0-.02.01-.03.05-.06.05-.03,0-.05.01-.08.03-.02.01-.05.01-.07.02-.02,0-.05.01-.07.02-.01,0-.02,0-.04,0,0,0,0,0,0,0-.03,0-.06.02-.09.03-.03,0-.05.02-.08.04-.02.02-.05.02-.08.03-.02,0-.04-.02-.04-.05,0-.01,0-.02,0-.03,0-.02-.02-.04-.04-.03-.02,0-.04,0-.05-.02-.05-.05-.09-.1-.13-.15,0,0,0-.02-.01-.04-.01-.03-.03-.06-.04-.09,0-.01-.01-.02-.01-.03,0-.05-.01-.11-.02-.16,0,0,0-.02,0-.03-.05-.06-.03-.14-.04-.21,0-.03,0-.06-.01-.09,0,0,0-.02,0-.03,0-.05.01-.1.02-.14,0-.03.01-.05.03-.07.02-.02.04-.05.03-.08,0-.04,0-.07.04-.1s.08-.06.08-.11c0,0,0,0,0-.01.03-.03.05-.07.06-.11,0-.02.03-.03.05-.04.05-.03.09-.07.11-.12,0-.02.02-.03.03-.04.04-.03.07-.06.09-.11,0,0,.01-.02.02-.02.05-.01.07-.05.11-.08.02-.01.04-.03.06-.04.03-.02.07-.05.09-.08.03-.04.07-.09.13-.1,0,0,.01,0,.02-.01.05-.04.11-.08.17-.11.02-.01.05-.03.07-.05.03-.03.06-.06.11-.07,0,0,.01,0,.01,0,.03-.04.07-.05.12-.06.01,0,.03,0,.04-.01.07-.06.16-.08.24-.13,0,0,.02,0,.03,0,.03,0,.05,0,.08-.03.01,0,.03-.01.04-.02.02-.01.04-.03.07-.04.01,0,.02-.02.03-.02.03,0,.06-.02.08-.04.01,0,.03-.01.04-.02,0,0,.01,0,.02,0,.05-.04.11-.04.16-.05.03,0,.06-.02.09-.03.01,0,.03,0,.04-.01.05-.04.11-.04.17-.04,0,0,.02,0,.03,0,.04-.05.1-.04.14-.06.02-.01.05-.01.08-.01.06,0,.12,0,.18-.01.02,0,.03,0,.04-.01.03-.02.07-.02.1-.03.08,0,.16,0,.24,0,.04,0,.08,0,.12,0,.05.02.1,0,.15-.01.04-.01.07-.02.11-.02.14,0,.27,0,.41,0,.04,0,.08.01.12.02.02,0,.05,0,.07,0,.02,0,.05,0,.06.01.05.03.1.04.16.04.03,0,.05,0,.06.03.01.03.01.05-.01.07-.05.05-.1.08-.17.11-.04.01-.07.03-.09.05-.05.04-.1.08-.16.11-.04.02-.09.02-.14.03-.02,0-.04.02-.06.02-.05.03-.09.07-.15.07-.03,0-.07,0-.1.04-.01.01-.04.01-.06.01-.03,0-.05,0-.07.02-.06.04-.12.07-.2.09-.04,0-.07.03-.1.05-.01,0-.02.01-.03.02-.06.02-.11.06-.16.1-.05.04-.1.07-.15.11,0,0-.02,0-.03.01-.05,0-.08.03-.11.06-.03.03-.06.06-.1.08-.04.03-.07.07-.05.12.02.07,0,.14,0,.2,0,.08,0,.16.02.24,0,.03,0,.07,0,.11,0,.05-.01.09-.01.14,0,.02.01.03.02.05,0,.03,0,.07.01.1.01.05,0,.1-.03.14,0,.03,0,.06-.01.08,0,0,0,.02,0,.02.04.04.03.09.04.14,0,.02,0,.03.01.05,0,.04.02.08.02.11,0,.01,0,.02,0,.04-.04.08-.04.17,0,.26,0,0,0,.02,0,.03,0,.07,0,.14,0,.22,0,.07,0,.14,0,.2,0,.04.02.07.02.11,0,0,0,.02,0,.02-.05.08-.04.17-.04.26,0,.06,0,.12,0,.17,0,.04.02.07.03.11.02.08.02.16,0,.25,0,0,0,0,0,.01-.05.05-.04.12-.05.18,0,.08-.01.16-.02.24,0,.02,0,.05-.02.07-.02.03-.03.06-.03.09,0,0,0,.02-.01.02-.06.03-.06.1-.08.15-.01.02-.02.04-.04.06-.01,0-.02.02-.03.03-.01.02-.02.05-.04.07,0,0,0,0,0,.01,0,.05-.04.09-.06.14-.03.06-.07.11-.12.15-.03.03-.06.06-.09.09-.03.03-.06.05-.1.08-.02.02-.05.04-.07.06,0,0,0,0-.01.01-.03.03-.07.02-.1.04-.03.02-.05.05-.09.05,0,0-.02,0-.03,0-.03.02-.06.04-.09.06-.02.01-.05.02-.08.04-.02.01-.04.02-.07.04-.06.04-.12.09-.21.09-.06,0-.09.04-.12.07-.05.05-.1.11-.16.15-.02.01-.03.03-.05.04-.04.04-.1.05-.15.07-.03.01-.06.03-.08.05-.05.02-.09.07-.15.08,0,0-.02,0-.02.01-.02.02-.05.04-.08.04,0,0-.01,0-.02,0-.03.04-.08.04-.13.04-.02,0-.04.02-.06.02-.01,0-.03.01-.04.02-.02.01-.04.02-.07.03-.01,0-.02.01-.04.01-.05,0-.1,0-.14,0-.04,0-.07,0-.1.03,0,0-.01.01-.02.01-.08.02-.16.05-.24.04-.04,0-.07-.01-.1-.02-.06-.02-.13-.02-.19-.01-.08.02-.15,0-.22,0-.02,0-.05,0-.07-.01-.04-.02-.08-.04-.13-.06,0,0,0-.01-.01-.02-.01-.02-.02-.05-.04-.07,0,0-.02-.01-.03-.01-.02,0-.03,0-.05,0-.06,0-.05,0-.06-.05,0-.02-.01-.04-.03-.06-.02-.02-.02-.03-.02-.05-.01-.09.01-.17.02-.25,0,0,0-.02,0-.02.05-.06.05-.12.05-.19,0-.04,0-.09,0-.13,0-.02.01-.04.02-.05,0-.01.02-.02.02-.04.01-.07.07-.11.11-.17,0,0,.02-.02.03-.02.02-.01.03-.03.05-.04.04-.02.09-.04.13-.05.05-.01.1-.02.15-.05.03-.02.07-.03.11-.04.03,0,.07,0,.1,0,.05,0,.09,0,.14,0,.03,0,.05,0,.07-.03,0-.01.02-.02.04-.02.03,0,.05-.01.07-.04,0,0,.03-.01.04-.02.03,0,.06,0,.08-.03,0,0,.01-.01.02-.01.06,0,.1-.06.15-.08.03-.01.06-.03.1-.04.02,0,.03-.02.04-.03.02-.01.04-.03.06-.04.05-.02.09-.04.14-.05,0,0,.01,0,.02,0,.06,0,.1-.04.16-.06.01,0,.02-.01.02-.02.01-.02.03-.03.06-.03.02,0,.04-.01.05-.04.01-.03.03-.06.07-.06,0,0,.01,0,.02,0,.05-.03.09-.05.13-.08.02-.02.05-.04.08-.04.06,0,.1-.04.14-.08.04-.05.1-.07.16-.1.03-.02.06-.02.1-.04.02,0,.03-.02.04-.04.02-.03.03-.06.07-.07,0,0,.02-.01.02-.02.02-.02.03-.05.06-.06.05-.03.09-.07.13-.12,0-.01.02-.03.02-.04,0-.02.02-.05.04-.06.04-.04.08-.07.13-.11"/>
      <path class="cls-1" d="M57.54,6.15s-.04.03-.07.04c-.02.01-.04.02-.05.04-.01.01-.03.03-.04.04,0,.01-.02.02-.03.03-.01.01-.02.02-.03.03-.02.01-.04.04-.04.06,0,.04-.02.07-.05.09-.03.03-.04.07-.03.11,0,.05,0,.08-.05.1-.02.01-.03.03-.05.04-.02.01-.05.02-.07.03-.04,0-.05.01-.06.05,0,.02,0,.03-.01.05-.01,0-.02-.01-.03-.02-.03-.02-.04-.02-.07,0-.01,0-.02.01-.04.02-.04.01-.08.02-.12.06-.02.02-.06.03-.08.05-.03.02-.07,0-.1,0-.05,0-.09,0-.14.01-.07.02-.14.03-.21-.02-.02-.01-.04-.02-.07-.02-.03,0-.07,0-.1,0-.02-.03-.02-.06-.05-.07,0,0,0-.02,0-.03-.03.03-.06.02-.1,0-.03-.01-.06-.01-.08-.04,0,0-.01,0-.02,0-.07,0-.14-.03-.2-.07-.05,0-.08-.04-.12-.06-.04-.01-.08-.02-.12-.03,0,0-.01,0-.02,0-.07-.03-.14-.05-.21-.04-.03-.02-.09.01-.11-.04-.02.03-.05.02-.07,0-.03-.01-.07,0-.1-.01-.02,0-.05,0-.07-.03-.02-.02-.05-.02-.08-.02-.02,0-.04,0-.06,0-.01,0-.03,0-.04,0-.03.02-.05,0-.08-.03-.02.01-.05.02-.07,0,0,0,0,0,0,0-.04.02-.07-.01-.11,0-.03.01-.07-.01-.1.01-.02-.02-.05,0-.08,0-.04-.01-.07.02-.11,0-.02.02-.05.01-.07,0-.06.05-.08.1-.07.17,0,.11,0,.22,0,.33,0,.05,0,.1,0,.15,0,.02,0,.04-.03.05-.05.03-.08.07-.07.13,0,.03,0,.06,0,.09,0,.07,0,.14,0,.2,0,.08,0,.16,0,.24,0,.02,0,.03,0,.05.01.06.01.12,0,.18,0,.06-.01.12-.02.18,0,.03,0,.05-.02.08-.01.02-.02.06,0,.09,0,0,0,.02,0,.04-.03.08-.02.16-.03.25,0,.09,0,.18,0,.28,0,0,0,.02,0,.02-.05.06-.03.14-.03.21,0,.02,0,.05,0,.07,0,.06,0,.12,0,.17,0,.03,0,.05-.02.08-.02.02-.02.06-.02.1,0,.05-.02.09-.03.14,0,.01-.01.03-.02.04-.02.02-.03.04-.03.06,0,.03,0,.05-.01.08,0,0,0,.02,0,.02-.04.01-.04.04-.04.07,0,.01,0,.02-.01.03-.05.03-.07.08-.09.14-.01.03-.02.07-.04.1,0,0-.01,0-.02.01-.03.02-.06.04-.09.06-.02.02-.02.03,0,.05,0,.01.01.03.01.04,0,0-.02,0-.03.01-.02,0-.04,0-.04-.02-.02-.08-.08-.12-.14-.17-.03-.03-.06-.05-.09-.08-.03-.03-.07-.05-.1-.08-.01,0-.02-.02-.02-.03-.01-.03-.02-.05-.03-.08,0-.02-.01-.03-.02-.05-.01-.04-.01-.08-.05-.11-.02-.01-.02-.04-.02-.07,0-.05-.01-.09-.01-.14-.01-.12-.02-.24-.03-.37,0-.02,0-.04,0-.05,0-.08-.02-.16-.02-.24,0-.05,0-.09,0-.14,0-.03,0-.07-.02-.09-.02-.01-.01-.03,0-.05.03-.04.03-.08,0-.12-.03-.04-.03-.04,0-.07.03-.04.03-.08,0-.12-.01-.02,0-.04,0-.06.01-.05.01-.11.02-.17,0-.04,0-.09,0-.13,0-.02,0-.03.01-.05.02-.04.03-.07,0-.11-.01-.02,0-.04,0-.07,0-.05,0-.09,0-.14,0-.02,0-.03,0-.05,0-.05,0-.1,0-.15,0-.01,0-.02,0-.03,0-.03-.01-.05-.02-.08,0-.03,0-.06-.02-.08-.05-.1-.04-.21-.04-.31,0-.05-.01-.1-.01-.15,0-.04,0-.07-.01-.1-.01-.05,0-.09.01-.14.01-.04.01-.07-.03-.1,0,0-.02,0-.02,0-.03,0-.05,0-.07-.02-.01-.02-.03-.03-.06-.03-.04,0-.07,0-.11,0-.06,0-.11,0-.17-.02-.01,0-.03,0-.04,0-.03.02-.07.02-.1.02-.03,0-.07,0-.1.01-.01,0-.03,0-.04,0-.03,0-.07,0-.1.01-.05.03-.11.03-.17.04-.03.01-.06.02-.09.03-.03.02-.06.03-.1.03-.03,0-.06,0-.09.04-.02.03-.07.04-.11.06-.02.01-.05.01-.06.04,0,0-.02.01-.03.02-.03.01-.06.02-.1.03-.03.04-.06.07-.09.11,0,0,0,0,0,0-.07.03-.1.09-.15.14,0,0,0,0,0,0-.01.04-.02.08-.03.11-.02.04-.06.05-.1.06-.02,0-.03,0-.04.02-.01.01-.04.02-.06.02-.03,0-.07,0-.1,0-.05,0-.1,0-.14.01-.04.02-.07.03-.11.04-.01,0-.03.03-.03.04.01.04-.03.07-.03.1,0,.02-.01.04-.02.06,0,.02-.02.04-.03.06,0,.01-.01.02-.01.03-.02.06-.05.12-.06.18,0,.01-.01.03-.02.04-.03.01-.03.03-.03.06,0,.02-.01.05-.02.07,0,.03-.01.05-.01.08,0,.04,0,.09-.05.11-.01,0-.01.03-.02.05,0,.04,0,.08-.02.12-.03.05-.03.11-.03.16,0,.02-.01.03-.02.05,0,.01-.01.02-.02.03-.02.02-.03.05-.05.07,0,0-.02.02-.02.03-.01.03-.02.06-.05.08,0,0-.01.02-.01.03,0,.02,0,.05,0,.07,0,0,0,.02,0,.03-.06.06-.06.15-.11.21-.02.03-.05.05-.07.07,0,0-.02.01-.02.02,0,.07-.07.11-.1.17,0,.01-.02.02-.03.02-.01.01-.02.02-.03.03,0,0,0,.01,0,.01-.07.04-.11.11-.18.16-.03.02-.06.05-.11.05-.02,0-.04.01-.04.04,0,.04-.02.07-.06.09-.06.04-.11.08-.17.1,0,0,0,0-.01,0-.04,0-.08.02-.11.04-.04.02-.08.04-.12.06-.02.01-.05.03-.08.01,0,0-.03,0-.03.01,0,.02-.03.03-.05.03-.06.01-.12.03-.17.04-.02,0-.03.02-.04.03,0,0-.02.01-.03.01-.04-.01-.06.01-.08.04-.01.01-.02.02-.05.01,0,0-.01,0-.01,0-.04.04-.09.02-.13.02-.05,0-.09,0-.14,0-.03,0-.04.01-.06.04-.03.05-.07.08-.13.08-.07,0-.13,0-.2,0-.01,0-.02,0-.03,0-.04,0-.08,0-.12,0-.03,0-.06,0-.09.01-.04,0-.07.03-.11.01,0,0,0,0,0,0-.05.02-.11,0-.17,0-.03,0-.05,0-.08,0-.07,0-.14,0-.21-.01,0,0-.02,0-.03,0-.02,0-.05-.02-.07-.02-.02,0-.04,0-.08,0-.03.02-.08.03-.11,0-.02-.02-.05-.02-.08-.02-.08,0-.13-.04-.17-.09-.03-.03-.06-.06-.09-.1-.02-.02-.04-.04-.03-.08.01-.04,0-.07,0-.11,0-.03.01-.06.05-.08,0,0,.01-.01.02-.02.04-.03.04-.03.01-.08-.03-.04-.04-.09-.04-.15,0-.02.01-.04.04-.04.07,0,.1-.05.14-.08.04-.03.08-.07.11-.1.03-.03.06-.03.1-.04.04,0,.08,0,.11-.05,0,0,.02,0,.03-.01.03-.01.07-.03.1-.04.01,0,.03,0,.04,0,.04,0,.07-.02.1-.02.02,0,.04,0,.05-.01.05,0,.1-.01.16-.02.01,0,.03-.02.04-.02.05,0,.09-.03.14-.02.05,0,.09,0,.14,0,.05,0,.1,0,.14-.03,0,0,.02-.01.03-.01.05,0,.1-.01.15-.02.04,0,.08,0,.1-.05,0,0,0,0,0,0,.06,0,.09-.06.14-.08.02,0,.04-.01.05-.03,0-.01.03-.01.04-.02.02,0,.05,0,.08,0,.06,0,.07-.01.07-.07v-.02c.05-.05.11-.08.19-.08.02,0,.04,0,.05-.01.03,0,.06-.02.08-.03.01,0,.03-.01.03-.02.02-.02.04-.03.06-.04.06,0,.1-.05.11-.1,0-.08.06-.12.12-.17.01,0,.02-.02.03-.03.02-.02.04-.04.07-.06.02-.01.04-.02.05-.05,0,0,.02-.01.02-.02,0,0,.02,0,.03-.02.03-.04.06-.08.1-.11.05-.03.09-.08.1-.13,0-.02.02-.04.04-.05,0,0,.01,0,.01-.01,0-.06.07-.09.07-.15,0,0,0,0,0,0,.03-.04.06-.08.06-.14,0-.02.03-.03.04-.05.02-.06.06-.11.09-.17.02-.04.02-.08.03-.11,0-.03,0-.06,0-.08,0-.02.01-.03.02-.05,0-.02.02-.04.02-.07,0-.12,0-.24,0-.36,0-.06,0-.11.02-.17.01-.03,0-.07,0-.1,0-.03,0-.06.03-.09,0,0,.01-.02.01-.03,0-.02.01-.05.04-.06.01,0,.02-.02.02-.04,0-.04,0-.08,0-.12,0-.03,0-.05,0-.08,0-.04,0-.08,0-.12,0-.08,0-.16,0-.25,0-.05,0-.09,0-.14,0-.02,0-.04-.03-.06-.02-.01-.02-.04-.03-.06,0-.02-.02-.04-.03-.06-.03-.05-.08-.05-.12-.05-.03,0-.05,0-.07-.02-.04-.02-.08-.04-.12-.06-.01,0-.03,0-.04-.02-.02-.03-.05-.03-.08-.04-.02,0-.04,0-.06.02-.06.06-.13.09-.21.09-.05,0-.08.02-.1.06-.01.03-.03.04-.06.05,0,0-.01,0-.02,0-.05.04-.11.05-.18.05-.07,0-.14,0-.2-.01-.05-.02-.1-.04-.15-.06,0,0-.02-.01-.02-.02-.02-.04-.03-.08-.05-.12,0-.01,0-.03.01-.04.02-.04.04-.08.04-.13,0-.04.03-.06.06-.08.07-.04.08-.07.04-.14-.02-.02,0-.04.01-.05.04-.02.06-.07.09-.1,0,0,0,0,0,0,0-.08.09-.12.11-.19,0-.01.01-.02.01-.03,0-.08.08-.11.1-.18.04-.02.08-.04.12-.06.02,0,.05-.01.08-.02.03,0,.07,0,.08-.05.06-.03.09-.11.17-.12,0,0,.01,0,.02-.01.03-.04.08-.04.13-.05.02,0,.03,0,.04-.02.03-.03.06-.04.1-.04.03,0,.05,0,.07-.03,0-.01.03-.02.04-.02.07-.01.14-.03.2-.08.02-.01.04-.01.06-.02.03-.01.06-.03.09-.04.04-.01.08-.02.11-.03.02,0,.04,0,.06-.01.01,0,.03,0,.04-.01,0,0,0,0,.01,0,.07-.05.16-.03.23-.06.06-.02.12-.03.18-.04.05,0,.1-.01.15,0,.02,0,.03-.01.05-.02.04.02.08,0,.12,0,.02,0,.05,0,.07-.01.02,0,.05,0,.07-.02.04-.04.09-.03.14-.03.06,0,.12,0,.18,0,.15,0,.3,0,.45,0,.07,0,.14.01.21.01.03,0,.06,0,.09,0,.02,0,.05,0,.07,0,.03,0,.06,0,.08.01.05.02.1.03.16.02.06-.01.12,0,.18,0,.04,0,.08-.01.13-.03-.06-.12-.03-.25-.03-.37,0-.05,0-.1,0-.15,0-.02.01-.03.03-.03.02,0,.05,0,.07,0,.05,0,.05-.01.05-.05,0-.03.03-.07.06-.09.02,0,.04-.02.05-.04.01-.02.03-.03.05-.05.01-.02.03-.02.05,0,.03.03.06.03.09.03.04,0,.08,0,.11.04,0,0,0,0,0,0,.06,0,.12.02.18.02.07,0,.13,0,.2,0,.04,0,.06.03.09.05.02.02.03.02.05.02.03,0,.06,0,.09-.01.03,0,.06,0,.08.03.05.03.09.07.16.05,0,.03.02.05.02.07,0,.02.02.04.04.05.02,0,.03.02.05.04.02.02.02.03.01.05,0,.01,0,.03,0,.05,0,.03,0,.06.01.08,0,.03.02.06.04.08.02.02.04.04.03.07,0,.05,0,.11-.04.15,0,.01-.02.03,0,.04.01.01.05.01.06,0,.02-.04.05-.03.08-.03.05,0,.1,0,.15,0,.07,0,.13,0,.2,0,.01,0,.03,0,.04,0,.09.04.17.04.27.03.08,0,.17,0,.25,0,.03,0,.06.02.09.03.02.01.04.02.06.02.05,0,.1-.02.15-.01.06,0,.11,0,.17.01.03.01.08,0,.12,0,.04,0,.08,0,.12,0,.01,0,.03,0,.04,0,.03.03.06.03.09.03.02,0,.04,0,.06,0,.04,0,.08,0,.11.05.03,0,.05-.02.08,0,0,0,.02,0,.03,0,0,0,.02,0,.02,0,.02.02.04,0,.06,0,.02.02.05.02.08.02.07,0,.14.02.21.03,0,0,0,0,.01,0,.06,0,.1.02.14.06.02.02.05.04.09.05.01,0,.03.02.03.03,0,.02.02.03.05.04.03,0,.05.02.07.03.01,0,.02.01.03.01.06.01.1.05.15.09,0,0,.02.02.03.02.04-.01.08,0,.12.02.04,0,.05.02.05.06,0,.06.02.11.05.17.03.05.03.11,0,.16,0,0-.02.02-.03.02-.03.01-.04.04-.04.07,0,.02,0,.03,0,.05,0,.05-.02.09-.08.09-.06,0-.11.03-.14.09,0,.01-.02.02-.03.02-.02.01-.04.02-.06.04-.02,0-.05,0-.08-.02-.03-.01-.06-.02-.09-.04-.04-.03-.11-.03-.15,0-.02.02-.03.05-.04.07-.01,0-.04.02-.05.03-.04.04-.06.04-.12.02,0-.01.02-.02.02-.03,0,0,.02-.01.03-.02,0-.01,0-.03-.02-.04-.01-.01-.03-.02-.05-.02-.02,0-.04.03-.05.07-.03.01-.05-.01-.05-.02-.06,0-.11,0-.15-.01-.02,0-.03-.01-.05-.02-.03-.01-.05-.03-.08-.02,0,0-.01,0-.02,0-.03-.02-.05-.04-.09-.04-.03,0-.06-.02-.09-.03-.02,0-.05,0-.08-.01-.02,0-.04,0-.06-.02,0,0-.02-.02-.03-.02-.03,0-.06-.01-.09-.01-.06,0-.11-.02-.16-.04-.01,0-.02-.02-.04-.02-.01,0-.02-.02-.03-.01-.02,0-.04,0-.06,0-.04,0-.07,0-.11.01,0,0-.01,0-.02,0-.04-.01-.09-.03-.14-.04-.03.03-.08.04-.13.03-.1-.02-.2-.02-.3,0-.06.01-.12,0-.18-.02-.07-.02-.13-.02-.2,0-.04,0-.08.01-.12,0-.03-.01-.05-.01-.08-.01-.05,0-.11,0-.17,0-.07,0-.13,0-.2,0-.04,0-.07,0-.11,0-.08,0-.16,0-.24,0-.06,0-.13,0-.19,0-.1,0-.19,0-.28,0-.06,0-.11-.02-.17-.02,0,0-.02,0-.03,0-.07.04-.14.01-.21.01,0,0-.02,0-.02,0-.03,0-.05,0-.07-.03-.02.01-.03.02-.04.03,0,0,0,0-.01,0-.01,0-.02-.02-.04,0-.02.02-.04.01-.06-.01-.02.02-.05.03-.07,0,0,0-.02,0-.02,0-.02.02-.04,0-.07,0-.02.03-.04.04-.08.03-.05,0-.1,0-.14.01-.07,0-.15,0-.22,0-.03,0-.07,0-.1,0-.02,0-.05,0-.07,0-.07-.02-.14,0-.21,0-.04,0-.09,0-.13.04,0,0-.02,0-.03,0-.04,0-.08,0-.12.02-.04.01-.09.02-.13.04-.05.02-.11.02-.17.01-.02,0-.05,0-.07.01-.05.03-.1.05-.15.07,0,0-.02,0-.02,0-.05-.02-.09,0-.13,0-.01,0-.02,0-.03,0-.05,0-.08.02-.1.07,0,.01-.02.02-.03.03.01,0,.02.02.04.02.11.04.13.14.16.23.01.07.01.13,0,.2,0,.03,0,.07,0,.1,0,.09,0,.19-.02.28,0,0,0,0,0,.01.02.04,0,.07-.01.11-.01.04-.02.07-.05.1,0,0,0,.01,0,.02.04.01.08.03.13.04.01,0,.03-.02.05-.03.05-.05.1-.07.17-.06.01,0,.03,0,.04,0,.05-.04.12-.03.18-.05.01,0,.02,0,.03,0,.04-.03.09-.03.13-.05.03,0,.07-.01.09-.04,0-.01.03-.01.04-.02.03,0,.06,0,.08-.03,0,0,0,0,.01,0,.06,0,.12-.02.18-.04.03,0,.06,0,.09,0,.07-.01.15-.03.22-.04.03,0,.06,0,.09,0,.01,0,.03,0,.04,0,.07-.01.13-.03.2-.04,0,0,.01,0,.02,0,.03,0,.05,0,.07-.03.02,0,.04.02.07,0,.04-.01.08-.01.13-.02.09,0,.18,0,.27-.03.04-.01.08-.02.12,0,.02,0,.04,0,.05,0,.11,0,.21-.02.32-.02.16,0,.33,0,.49,0,.06,0,.12,0,.17,0,.03,0,.07.02.1.02.05,0,.11.01.16.02.05,0,.1,0,.15.03.02.01.06.01.08.02.09.02.18.04.27.03,0,0,.02,0,.03,0,.01,0,.02,0,.03.01,0,.02,0,.03,0,.05.02.01.03.03.05,0,0,0,.01-.01.02-.01.07,0,.14,0,.21,0,.03,0,.05.02.08.03.02,0,.05,0,.08,0,.04.02.09.02.13.05.04.02.08.02.13.02.03,0,.06,0,.08.03.02,0,.03-.01.05-.02.02.03.05.02.08.02.04,0,.08.01.12.01.08,0,.17,0,.25,0,.04,0,.07.01.11.02.03,0,.06.02.08.02.11,0,.22,0,.34,0,.07,0,.15,0,.22,0,.03,0,.06.02.09.03,0,0,.01,0,.02,0,.06-.02.12.01.19,0,.08-.01.15-.01.23-.01.03,0,.06,0,.1,0,.01,0,.03,0,.04,0,.01,0,.03-.01.04,0,0,0,.02,0,.02,0,.08-.03.19-.05.27-.04.02,0,.04,0,.05.03,0,.01.02.02.03.03.02-.02.04-.04.06-.05.02,0,.05,0,.08-.01.01,0,.04,0,.04-.02.05-.05.1-.04.16-.03.01.08,0,.15-.07.2-.02.02-.04.03-.06.05,0,0,0,.02-.01.02,0,.01,0,.03-.01.05,0,.03-.03.05-.07.05-.02,0-.03,0-.05,0-.02,0-.03.01-.03.04,0,.03-.02.06-.04.08M57.55,6.14s0,0,0,0M46.38,9.95s0-.02,0-.03c-.02-.05-.1-.07-.13-.02,0,0,0,.02,0,.02,0,.01.05.04.07.04.02,0,.05,0,.08,0M48.24,8.67s.04-.01.06-.02c-.01-.03-.02-.04-.05-.03-.02,0-.02.02-.01.05"/>
      <path class="cls-2" d="M6.77,10.57h1.51s0-1.52,0-1.52h1.51s0,1.5,0,1.5h1.51s0-1.52,0-1.52h-1.51s0-1.5,0-1.5h-1.51s0,1.51,0,1.51h-1.51s0,1.52,0,1.52h-1.51s0-1.5,0-1.5h1.51s0-1.52,0-1.52h1.51s0-1.51,0-1.51h1.51s0-1.52,0-1.52h1.51s0,1.5,0,1.5h-1.51s0,1.52,0,1.52h1.51s0,1.5,0,1.5h1.51s0-1.51,0-1.51h-1.51s0-1.5,0-1.5h1.51s0-1.51,0-1.51h-1.51s0-1.5,0-1.5h-1.51s0,1.52,0,1.52h-1.51s0,1.51,0,1.51h-1.51s0-1.5,0-1.5h-1.51s0,1.52,0,1.52h1.51s0,1.5,0,1.5h-1.51s0,1.52,0,1.52h-1.51s0-1.5,0-1.5h1.51s0-1.51,0-1.51h-1.51s0-1.5,0-1.5h1.51s0-1.51,0-1.51h1.51s0,1.5,0,1.5h1.51s0-1.51,0-1.51h-1.51s0-1.5,0-1.5h1.51s0,1.5,0,1.5h1.51s0-1.51,0-1.51h-1.51s0-1.5,0-1.5h-1.49C3.01.02-.01,3.07,0,6.81c.02,3.74,3.07,6.78,6.8,6.78h1.49s0-1.52,0-1.52h1.51s0-1.51,0-1.51h-1.51s0,1.51,0,1.51h-1.51"/>
      <path d="M79.28,8.98c.06-.03.07-.02.1.03.14.19.26.38.37.57.14-.17.25-.33.36-.51.06-.11.1-.21.12-.28.12.06.19.1.28.16.03.02.05.05.05.07s-.03.05-.05.07c-.05.03-.12.13-.15.19-.14.22-.28.42-.45.61.3.67.42,1.43.42,2.42,0,1.17-.23,1.49-.76,1.49-.09,0-.19,0-.32-.01q-.08,0-.1-.12c-.02-.11-.06-.19-.1-.25.19.03.35.04.48.04.32,0,.48-.15.48-1.14,0-.39-.02-.74-.06-1.07-.27.47-.57.84-.91,1.14-.04.03-.06.05-.08.05-.02,0-.04-.02-.07-.07-.05-.08-.09-.15-.14-.18.47-.38.84-.82,1.12-1.36-.05-.25-.12-.49-.2-.71-.18.16-.38.33-.63.51-.04.03-.06.05-.09.05s-.03-.03-.07-.08c-.04-.07-.09-.12-.14-.16.29-.19.56-.4.79-.63-.08-.16-.18-.32-.29-.47-.05-.06-.1-.12-.15-.19-.02-.02-.03-.03-.03-.05,0-.01.02-.03.06-.04l.16-.08ZM83.17,12.37s.06-.02.08.02c.29.44.48.8.67,1.3.01.03,0,.06-.06.08l-.16.08c-.07.03-.08.02-.09-.02-.06-.19-.13-.36-.2-.52-.84.16-1.56.27-2.44.36-.16.02-.22.03-.24.06-.04.03-.06.04-.09.04s-.06-.03-.07-.07c-.04-.12-.07-.24-.1-.36.22,0,.41,0,.57-.01.32-.02.65-.06.97-.1v-1.31h-.88v.29s0,.04-.05.04h-.24s-.05,0-.05-.04c0-.03.01-.17.01-1.02v-.49c0-.49-.01-.64-.01-.67,0-.04,0-.05.05-.05.03,0,.21.01.74.01h.42v-.4c0-.38,0-.53-.04-.71.15,0,.25.01.36.03.04,0,.07.02.07.05s-.01.06-.03.1c-.02.06-.03.18-.03.52v.4h.49c.53,0,.71-.01.75-.01.04,0,.05,0,.05.05,0,.03-.01.18-.01.59v.55c0,.84.01.98.01,1.01,0,.03,0,.04-.05.04h-.24s-.05,0-.05-.04v-.26h-.94v1.27c.32-.05.64-.1.94-.16-.09-.17-.19-.34-.31-.51-.02-.04-.02-.05.04-.07l.15-.07ZM82.02,10.28h-.88v1.34h.88v-1.34ZM83.28,10.28h-.94v1.34h.94v-1.34Z"/>
      <path d="M89.51,13.48s0,.04-.04.04c-.03,0-.2-.01-.74-.01h-3.45c-.53,0-.7.01-.73.01-.04,0-.05,0-.05-.04v-.28s0-.05.05-.05c.03,0,.2.01.73.01h1.98c.31-.72.52-1.4.68-1.98.07-.25.1-.4.11-.59.15.04.27.07.4.12.05.02.06.03.06.06,0,.03-.03.07-.05.1-.05.05-.07.13-.11.25-.2.7-.42,1.35-.72,2.04h1.11c.53,0,.7-.01.74-.01.04,0,.04,0,.04.05v.28ZM89.23,10.17s0,.05-.05.05c-.03,0-.21-.01-.78-.01h-2.79c-.56,0-.75.01-.78.01-.04,0-.05,0-.05-.05v-.27s0-.04.05-.04c.03,0,.22.01.78.01h1.15v-.47c0-.28-.01-.44-.04-.57.18,0,.27.01.39.03.05,0,.07.03.07.05,0,.04-.01.06-.03.1-.02.05-.03.15-.03.39v.47h1.27c.57,0,.75-.01.78-.01.04,0,.05,0,.05.04v.27ZM85.8,10.64c.06-.02.07-.02.08.02.24.59.44,1.22.58,1.99,0,.04,0,.06-.06.07l-.2.06c-.08.02-.1.02-.11-.03-.13-.76-.3-1.34-.54-1.96-.02-.04-.01-.05.07-.07l.19-.06Z"/>
      <path d="M91.06,12.07c0-.23,0-.52.01-.74-.18.2-.39.4-.61.58-.04.03-.06.05-.08.05-.02,0-.04-.02-.06-.07-.04-.08-.08-.14-.15-.2.51-.4.96-.89,1.24-1.38.05-.09.1-.19.12-.27.11.05.21.11.3.16.04.03.05.05.05.07,0,.02-.02.05-.04.06-.03.02-.08.07-.12.14-.1.16-.21.31-.32.46v2.13c0,.49.01.7.01.73,0,.04,0,.04-.05.04h-.27s-.04,0-.04-.04c0-.03,0-.24,0-.73v-1.01ZM91.78,9.1s-.08.07-.14.15c-.27.35-.64.72-1.1,1.05-.03.03-.06.04-.08.04-.02,0-.05-.02-.08-.08-.05-.07-.1-.12-.17-.18.45-.29.87-.67,1.14-1.05.07-.1.1-.18.12-.25.12.05.2.1.31.17.03.02.05.04.05.07s-.03.05-.07.07M95.24,10.85s0,.05-.05.05c-.03,0-.21-.01-.77-.01h-.18v1.31c0,.57.01.84.01,1.04,0,.24-.04.36-.15.45-.1.08-.26.11-.79.11q-.11,0-.14-.12c-.03-.09-.06-.18-.12-.25.19.02.33.02.54.02.24,0,.3-.03.3-.21v-2.34h-1.02c-.56,0-.74.01-.78.01-.04,0-.05,0-.05-.05v-.25s0-.05.05-.05c.04,0,.22.01.78.01h1.55c.55,0,.74-.01.77-.01.04,0,.05,0,.05.05v.25ZM94.95,9.46s0,.05-.05.05c-.03,0-.19-.01-.7-.01h-1.07c-.51,0-.67.01-.7.01-.04,0-.05,0-.05-.05v-.25s0-.04.05-.04c.03,0,.19.01.7.01h1.07c.52,0,.67-.01.7-.01.04,0,.05,0,.05.04v.25Z"/>
      <path d="M97.37,12.63c.31-.11.65-.23,1.01-.37-.01.09-.02.16-.02.23q0,.11-.11.15c-.7.28-1.4.49-2.04.67-.12.03-.19.06-.23.08-.03.03-.04.04-.07.04-.02,0-.04-.02-.06-.06-.05-.1-.09-.23-.12-.33.14-.01.27-.03.44-.07v-1.68c0-.29,0-.43-.04-.58.13,0,.26.02.36.03.04,0,.06.02.06.04,0,.04-.02.07-.04.1-.02.04-.02.13-.02.4v1.6c.17-.04.36-.1.54-.16v-3.06h-.41c-.49,0-.65.01-.67.01-.04,0-.05,0-.05-.05v-.24s0-.05.05-.05c.03,0,.19.01.67.01h.97c.49,0,.64-.01.68-.01.04,0,.04,0,.04.05v.24s0,.05-.04.05c-.03,0-.19-.01-.68-.01h-.22v1.21h.21c.32,0,.38-.01.42-.01.04,0,.05,0,.05.05v.23s0,.04-.05.04c-.03,0-.1-.01-.42-.01h-.21v1.45ZM100.89,10.13s0,.04-.05.04c-.02,0-.15,0-.47-.01-.07.81-.32,1.58-.67,2.17.3.39.72.78,1.34,1.15-.08.06-.15.14-.19.21-.03.05-.05.08-.07.08-.02,0-.04-.02-.09-.05-.51-.37-.88-.74-1.19-1.13-.33.41-.83.83-1.58,1.18-.04.02-.07.03-.09.03s-.04-.02-.08-.09c-.05-.08-.12-.15-.18-.19.8-.32,1.37-.74,1.73-1.22-.28-.44-.5-.97-.63-1.52-.1.2-.2.4-.33.6-.03.04-.04.06-.06.06s-.03-.02-.07-.05c-.06-.07-.13-.12-.18-.14.43-.58.71-1.39.85-1.99.06-.24.08-.39.09-.55.12.02.23.05.33.09.05.02.07.03.07.06,0,.02,0,.03-.03.07-.04.05-.07.17-.1.28-.06.21-.11.42-.19.64h1.13c.49,0,.64-.01.67-.01.04,0,.05,0,.05.05v.23ZM98.95,10.17l-.07.17c.13.67.32,1.22.62,1.7.25-.43.45-1.03.53-1.87h-1.08Z"/>
      <path d="M101.62,10.35s.06-.04.09-.03c.27.16.55.36.8.6.03.03.03.04,0,.08l-.14.16c-.06.07-.06.07-.1.04-.23-.24-.52-.46-.78-.62-.04-.02-.03-.04,0-.08l.12-.14ZM102.06,13.52c-.05.12-.09.2-.1.26,0,.04-.02.07-.05.07s-.05,0-.08-.03c-.1-.06-.17-.11-.27-.19.11-.14.17-.25.25-.42.18-.35.36-.8.51-1.36.06.07.11.11.19.17.08.05.08.06.05.17-.15.46-.35.93-.52,1.33M101.96,8.95s.06-.05.09-.03c.27.17.53.38.75.61.03.03.03.06-.02.11l-.12.15c-.05.05-.06.06-.09.02-.23-.25-.52-.5-.75-.65-.03-.02-.03-.03.02-.09l.12-.13ZM106.5,11.58s0,.05-.04.05-.23-.01-.8-.01h-1.19c-.18.59-.38,1.11-.58,1.56.63-.06,1.18-.13,1.76-.22-.16-.23-.33-.44-.51-.65-.03-.03-.03-.05.03-.09l.14-.08s.05-.03.08,0c.4.44.72.89,1.05,1.43.02.03.02.04-.04.08l-.16.1c-.07.05-.08.05-.1.01-.1-.18-.2-.36-.31-.52-.89.15-1.66.24-2.61.35-.16.02-.2.03-.23.05-.03.02-.06.04-.09.04s-.06-.03-.07-.07c-.03-.11-.07-.24-.09-.36.23,0,.41,0,.58-.02l.2-.02c.22-.49.41-1,.57-1.59h-.49c-.57,0-.77.01-.8.01-.04,0-.05,0-.05-.05v-.24s0-.04.05-.04c.03,0,.23.01.8.01h.75v-1.03h-.49c-.55,0-.74.01-.76.01-.04,0-.05,0-.05-.05v-.24s0-.04.05-.04c.03,0,.21.01.76.01h.49v-.41c0-.38,0-.54-.03-.74.15,0,.24.01.37.03.04,0,.07.03.07.05,0,.03-.01.06-.03.1-.02.05-.03.2-.03.54v.42h.71c.55,0,.74-.01.77-.01.04,0,.05,0,.05.04v.24s0,.05-.05.05c-.03,0-.22-.01-.77-.01h-.71v1.03h.97c.57,0,.77-.01.8-.01s.04,0,.04.04v.24Z"/>
      <path d="M111.96,13.66c-.03.06-.05.08-.07.08s-.05-.01-.08-.04c-1.29-.82-1.9-1.98-2.11-3.12-.24,1.42-1.01,2.46-2.16,3.11-.04.02-.06.04-.09.04s-.04-.03-.08-.08c-.06-.09-.14-.15-.21-.2,1.52-.73,2.3-2.21,2.28-3.84,0-.31-.01-.48-.04-.67.14,0,.3.02.42.04.05.01.08.04.08.07,0,.05-.02.07-.03.11-.03.06-.05.17-.05.32,0,.1,0,.2,0,.29.23,1.52.86,2.82,2.34,3.66-.08.06-.15.14-.2.23"/>
      <path d="M116.88,11.7c0,1.62.01,1.9.01,1.93,0,.04,0,.05-.05.05h-.27s-.05,0-.05-.05v-.35h-2.62v.36s0,.05-.04.05h-.28s-.04,0-.04-.05c0-.03.01-.32.01-1.94v-1.09c0-1.1-.01-1.39-.01-1.43,0-.04,0-.04.04-.04.04,0,.23.01.79.01h1.68c.56,0,.75-.01.79-.01.04,0,.05,0,.05.04,0,.03-.01.33-.01,1.29v1.23ZM116.53,9.47h-2.62v1.53h2.62v-1.53ZM116.53,11.32h-2.62v1.64h2.62v-1.64Z"/>
      <path d="M121.06,10.31c.53.93,1.31,1.74,2.34,2.29-.06.06-.12.13-.16.22-.03.06-.05.08-.07.08s-.04-.02-.08-.04c-.95-.6-1.71-1.4-2.2-2.38,0,.7,0,1.39.01,1.96h.41c.51,0,.67-.01.71-.01.04,0,.05,0,.05.04v.24s0,.04-.05.04c-.03,0-.2-.01-.71-.01h-.4c.01.59.02,1,.02,1.07,0,.04,0,.04-.05.04h-.3s-.05,0-.05-.04c0-.07.01-.48.02-1.07h-.34c-.51,0-.67.01-.7.01-.04,0-.04,0-.04-.04v-.24s0-.04.04-.04c.03,0,.19.01.7.01h.35c.01-.55.02-1.22.02-1.9-.48.96-1.22,1.78-2.07,2.34-.05.03-.07.04-.09.04-.03,0-.05-.03-.07-.08-.05-.09-.1-.15-.17-.2.85-.47,1.7-1.35,2.21-2.33h-1.2c-.54,0-.73.01-.75.01-.04,0-.05,0-.05-.04v-.26s0-.05.05-.05c.03,0,.21.01.75.01h1.36v-.5c0-.36,0-.48-.04-.68.14,0,.28.02.39.03.04,0,.07.02.07.04,0,.05-.02.08-.03.12-.02.07-.03.16-.03.48v.51h1.48c.54,0,.73-.01.76-.01.04,0,.04,0,.04.05v.26s0,.04-.04.04c-.03,0-.22-.01-.76-.01h-1.32Z"/>
      <path d="M128.91,9.71s0,.05-.04.05c-.04,0-.21-.01-.74-.01h-.77v.04c0,.33.01.46.01.49,0,.04,0,.04-.05.04h-.26s-.05,0-.05-.04c0-.03.01-.16.01-.49v-.04h-1.18v.05c0,.32.01.45.01.48,0,.04,0,.04-.05.04h-.26s-.04,0-.04-.04c0-.03.01-.16.01-.48v-.05h-.75c-.53,0-.71.01-.74.01-.04,0-.05,0-.05-.05v-.24s0-.05.05-.05c.03,0,.21.01.74.01h.75c0-.24,0-.45-.03-.61.15,0,.26.01.34.03.05.01.08.03.08.06,0,.02-.01.04-.03.08-.02.06-.03.19-.03.42v.02h1.18c0-.24,0-.46-.03-.61.15,0,.25.02.35.03.03,0,.06.02.06.05s-.01.05-.02.08c-.02.05-.03.18-.03.43v.02h.77c.53,0,.71-.01.74-.01.04,0,.04,0,.04.05v.24ZM128.91,11.98s0,.05-.04.05c-.04,0-.21-.01-.75-.01h-2.01c-.16.42-.35.83-.54,1.19.74-.06,1.52-.14,2.13-.22-.14-.16-.29-.33-.45-.49-.03-.03-.04-.05.03-.09l.12-.08c.06-.03.07-.04.1-.01.43.41.8.84,1.09,1.28.02.03.02.05-.04.08l-.16.11s-.06.03-.07.03-.02-.01-.04-.03c-.11-.18-.23-.36-.37-.54-.96.15-2.16.28-3.18.36-.16.02-.19.03-.23.05-.04.02-.06.04-.09.04-.04,0-.06-.02-.07-.07-.03-.11-.06-.24-.09-.36.23,0,.41,0,.58,0l.33-.02c.21-.4.4-.82.55-1.22h-.88c-.54,0-.71.01-.75.01-.04,0-.05,0-.05-.05v-.26s0-.04.05-.04c.03,0,.21.01.75.01h3.28c.54,0,.71-.01.75-.01.04,0,.04,0,.04.04v.26ZM128.26,10.95s0,.04-.05.04c-.03,0-.23-.01-.8-.01h-1.98c-.57,0-.76.01-.79.01-.05,0-.05,0-.05-.04v-.25s0-.05.05-.05c.03,0,.22.01.79.01h1.98c.57,0,.76-.01.8-.01.04,0,.05,0,.05.05v.25Z"/>
      <path d="M130.15,12.05c0-.21.01-.48.02-.7-.14.15-.28.31-.45.45-.03.03-.05.05-.07.05-.02,0-.04-.02-.06-.06-.04-.09-.07-.15-.13-.2.5-.42.79-.81,1.04-1.29.05-.08.09-.19.11-.28.11.05.19.1.28.16.04.03.06.05.06.08s-.02.05-.05.07c-.03.02-.08.08-.13.17-.08.15-.18.31-.29.47v2.11c0,.49.01.7.01.73,0,.04,0,.05-.05.05h-.26s-.04,0-.04-.05c0-.03.01-.24.01-.73v-1.01ZM130.92,9.09s-.09.07-.14.14c-.25.36-.57.7-1,1.05-.04.03-.06.05-.08.05-.02,0-.04-.03-.07-.08-.05-.08-.09-.14-.15-.19.43-.29.75-.63,1.01-1.01.07-.11.11-.19.12-.26.11.05.21.11.3.16.04.03.06.05.06.08s-.02.05-.05.06M131.53,11.21s-.04.12-.06.22c-.06.43-.16.95-.36,1.42-.02.05-.03.07-.05.07-.02,0-.04-.01-.08-.03-.08-.04-.15-.06-.22-.07.24-.51.34-1,.39-1.39.01-.13.02-.29,0-.4.13.01.24.03.32.05.06.01.07.03.07.06,0,.02-.01.05-.03.07M133.01,10.31s0,.05-.05.05c-.03,0-.15-.01-.59-.01h-.17v2.45c0,.66.01.94.01.98,0,.04,0,.05-.05.05h-.26s-.05,0-.05-.05c0-.03.01-.32.01-.97v-2.45h-.18c-.44,0-.56.01-.6.01-.04,0-.04,0-.04-.05v-.23s0-.05.04-.05c.04,0,.16.01.6.01h.18v-.48c0-.37,0-.54-.04-.73.15,0,.26.02.36.04.04,0,.07.02.07.04,0,.03-.02.06-.03.1-.02.07-.03.19-.03.54v.49h.17c.44,0,.56-.01.59-.01.04,0,.05,0,.05.05v.23ZM132.59,9.04s.06-.03.08,0c.15.18.25.33.36.55.02.04.01.05-.04.08l-.11.07c-.07.05-.08.05-.1,0-.1-.21-.21-.4-.34-.56-.03-.03-.02-.05.03-.07l.12-.07ZM132.76,11.03c.05-.02.06-.01.07.03.17.5.27.97.36,1.49,0,.04,0,.05-.06.07l-.16.06c-.07.03-.09.03-.1-.02-.07-.54-.17-1.02-.32-1.51-.01-.04-.01-.05.05-.07l.15-.05ZM134.67,10.65s0,.05-.05.05c-.03,0-.13-.01-.5-.01h-.03v1.68c0,.39,0,.65,0,.89,0,.19-.04.33-.15.41-.11.07-.29.09-.68.08q-.11,0-.14-.12c-.02-.08-.06-.17-.09-.24.2.02.37.03.51.03.13,0,.21-.06.21-.23v-2.51h-.15c-.37,0-.48.01-.5.01-.05,0-.05,0-.05-.05v-.23s0-.05.05-.05c.03,0,.14.01.5.01h.52c.37,0,.48-.01.5-.01.04,0,.05,0,.05.05v.23ZM134.54,9.48s0,.05-.04.05-.12-.01-.44-.01h-.37c-.33,0-.41.01-.44.01-.04,0-.05,0-.05-.05v-.24s0-.04.05-.04c.03,0,.11.01.44.01h.37c.32,0,.41-.01.44-.01s.04,0,.04.04v.24Z"/>
      <path d="M139.16,10.14c-.25.92-.61,1.6-1.13,2.12.55.47,1.29.88,2.26,1.19-.07.07-.12.17-.17.26-.03.07-.05.09-.08.09-.02,0-.05,0-.08-.02-.94-.36-1.65-.79-2.19-1.27-.55.49-1.25.9-2.18,1.24-.04.01-.07.02-.09.02-.03,0-.05-.02-.08-.09-.05-.08-.11-.18-.18-.23,1.03-.35,1.71-.73,2.26-1.21-.54-.56-.89-1.22-1.16-2.12h-.2c-.54,0-.72.01-.75.01-.04,0-.05,0-.05-.04v-.26s0-.05.05-.05c.03,0,.21.01.75.01h1.41v-.38c0-.29,0-.46-.05-.62.14,0,.27.01.4.03.04,0,.07.03.07.05,0,.04-.02.07-.03.11-.03.06-.03.14-.03.43v.39h1.49c.54,0,.72-.01.75-.01.04,0,.05,0,.05.05v.26s0,.04-.05.04c-.03,0-.21-.01-.75-.01h-.26ZM136.7,10.14c.24.79.54,1.37,1.06,1.89.49-.5.79-1.09,1-1.89h-2.07Z"/>
      <path d="M141.88,11.5c0-.23.01-.57.02-.86-.23.32-.47.62-.75.89-.04.03-.06.06-.08.06-.03,0-.04-.02-.07-.07-.04-.09-.09-.16-.15-.21.67-.61,1.15-1.31,1.46-2.07.06-.14.09-.27.1-.37.14.04.24.08.35.13.04.02.06.04.06.07s-.02.05-.05.07c-.04.03-.07.08-.13.21-.12.27-.26.54-.41.8v2.79c0,.6.01.85.01.88,0,.04,0,.05-.05.05h-.27s-.05,0-.05-.05c0-.03.01-.28.01-.88v-1.43ZM143.7,12.91c0,.27.05.37.22.42.14.04.36.04.71.04s.55-.03.69-.15c.11-.1.19-.33.22-.84.07.06.15.11.25.15.1.04.1.04.08.15-.05.48-.14.71-.32.84-.19.14-.52.19-.93.19-.45,0-.74,0-.93-.07-.2-.07-.33-.22-.33-.6v-3.51c0-.29,0-.46-.03-.63.15,0,.26.02.37.03.05,0,.07.02.07.05,0,.04-.01.06-.03.1-.03.06-.03.14-.03.43v1.65c.46-.29.92-.64,1.34-1.08.08-.08.17-.2.22-.3.11.07.21.15.29.23.04.03.05.06.05.09,0,.03-.04.06-.09.08-.07.02-.16.11-.29.24-.41.39-.9.75-1.53,1.14v1.36Z"/>
      <path d="M147.62,11.39c.2-.08.4-.18.62-.29-.01.07-.02.14-.02.22,0,.11,0,.12-.11.17-.17.08-.33.15-.49.23v.68c0,.37.01.64.01.86,0,.27-.05.37-.16.45-.11.07-.21.1-.55.1-.11,0-.12,0-.14-.11-.02-.1-.06-.18-.1-.25.12.02.21.02.39.02s.22-.07.22-.27v-1.34c-.11.05-.21.08-.32.12-.12.05-.18.08-.21.11-.02.02-.05.03-.07.03-.02,0-.04-.01-.06-.05-.04-.1-.07-.21-.1-.33.15-.03.3-.07.5-.14l.26-.08v-1.27h-.17c-.38,0-.49.01-.52.01-.04,0-.05,0-.05-.05v-.24s0-.05.05-.05c.03,0,.14.01.52.01h.17v-.46c0-.34,0-.5-.04-.68.14,0,.25.02.36.03.04,0,.07.03.07.05,0,.04-.02.07-.03.11-.03.06-.03.17-.03.49v.48h.03c.38,0,.49-.01.52-.01.04,0,.05,0,.05.05v.24s0,.05-.05.05c-.03,0-.14-.01-.52-.01h-.03v1.14ZM150.37,11.29c.05.33.14.64.26.93.19-.13.32-.26.48-.4.07-.06.12-.13.18-.21.09.07.16.14.22.2.02.02.03.04.03.06,0,.03-.02.05-.06.06-.05.01-.08.03-.18.11-.17.15-.33.27-.55.43.23.44.57.81,1.01,1.06-.07.05-.12.11-.17.19-.03.06-.05.08-.08.08-.02,0-.04-.02-.09-.05-.79-.58-1.19-1.47-1.34-2.46h-.45v1.91c.26-.07.51-.14.84-.26-.02.06-.02.12-.02.2,0,.12,0,.11-.11.15-.38.12-.76.23-1.17.33-.12.03-.19.07-.23.1-.02.01-.04.03-.07.03-.02,0-.05-.02-.06-.06-.03-.08-.07-.2-.1-.32.17-.02.37-.05.59-.09v-1.98h-.47c-.02.28-.04.54-.07.76-.07.53-.26,1.13-.58,1.64-.03.04-.04.06-.06.06-.01,0-.03-.02-.07-.06-.07-.08-.15-.13-.21-.16.34-.43.52-1.04.59-1.6.07-.5.08-1,.08-1.59,0-.84-.01-1.19-.01-1.22,0-.04,0-.05.04-.05.03,0,.22.01.77.01h1.39c.54,0,.73-.01.75-.01.04,0,.05,0,.05.05v.24s0,.05-.05.05c-.03,0-.21-.01-.75-.01h-1.86v.95c0,.23,0,.44-.01.65h1.91c.54,0,.71-.01.74-.01.05,0,.05,0,.05.04v.23s0,.05-.05.05c-.03,0-.2-.01-.74-.01h-.37ZM151.18,10.27s0,.05-.04.05c-.03,0-.16-.01-.6-.01h-.7c-.44,0-.57.01-.6.01-.04,0-.04,0-.04-.05v-.23s0-.05.04-.05c.03,0,.16.01.6.01h.7c.44,0,.57-.01.6-.01.04,0,.04,0,.04.05v.23Z"/>
      <path d="M157.31,12.65s0,.04-.05.04c-.03,0-.2-.01-.72-.01h-3.57c-.52,0-.69.01-.72.01-.04,0-.04,0-.04-.04v-.22s0-.05.04-.05c.02,0,.13.01.46.01l-.08-2.58c-.01-.27-.02-.44-.06-.59.11.02.18.05.28.1.18-.06.32-.12.48-.21.08-.05.16-.1.21-.15.1.07.18.14.24.2.02.02.03.04.03.06s-.04.05-.08.05c-.03,0-.1.02-.16.05-.21.1-.41.18-.63.26l.02.67h.3c.18,0,.24-.01.27-.01.04,0,.04,0,.04.05v.21s0,.05-.04.05c-.03,0-.1-.01-.27-.01h-.29l.03.72h.27c.17,0,.23-.01.27-.01.04,0,.04,0,.04.05v.21s0,.05-.04.05c-.03,0-.1,0-.27,0h-.27l.03.85h.79v-2.51c0-.53-.01-.76-.01-.8,0-.04,0-.05.05-.05.03,0,.16.01.59.01h.67c.42,0,.56-.01.59-.01.04,0,.05,0,.05.05,0,.03-.01.27-.01.8v2.51h.82l.03-.87h-.27c-.19,0-.26.01-.29.01-.04,0-.05,0-.05-.04v-.21s0-.05.05-.05c.03,0,.11.01.29.01h.28l.03-.73h-.31c-.18,0-.26.01-.29.01-.04,0-.05,0-.05-.04v-.22s0-.05.05-.05c.03,0,.11.01.29.01h.32l.03-.76h-.37c-.21,0-.27.01-.3.01-.04,0-.05,0-.05-.04v-.22s0-.05.05-.05c.03,0,.08.01.34.01h.27c.26,0,.32-.01.35-.01.04,0,.05.01.05.05-.02.21-.03.42-.04.63l-.1,2.54c.27,0,.37-.01.4-.01.04,0,.05,0,.05.05v.22ZM154.09,13.11c-.05.01-.11.04-.18.09-.33.26-.7.45-1.21.65-.03.02-.06.02-.08.02-.03,0-.05-.03-.08-.1-.04-.07-.1-.14-.16-.19.51-.17.88-.33,1.22-.58.07-.05.14-.12.21-.2.11.05.2.1.28.16.04.03.05.05.05.07,0,.03-.02.05-.06.06M155.45,9.33h-1.34v3.06h1.34v-3.06ZM155.28,10.06s0,.04-.04.04c-.03,0-.08,0-.33,0h-.25c-.24,0-.29,0-.32,0-.04,0-.05,0-.05-.04v-.2s0-.05.05-.05c.03,0,.08.01.32.01h.25c.25,0,.3-.01.33-.01.04,0,.04,0,.04.05v.2ZM155.19,11.44c0,.3.01.39.01.42,0,.04,0,.05-.05.05-.03,0-.07-.01-.28-.01h-.19c-.2,0-.24.01-.27.01-.04,0-.04,0-.04-.05,0-.03.01-.12.01-.42v-.41c0-.3-.01-.4-.01-.43s0-.04.04-.04c.03,0,.07,0,.27,0h.19c.2,0,.24,0,.28,0,.04,0,.05,0,.05.04s-.01.13-.01.43v.41ZM154.95,10.82h-.33v.83h.33v-.83ZM155.59,12.84s.06-.03.09,0c.41.35.89.57,1.49.73-.06.05-.12.13-.16.2-.03.06-.05.09-.08.09-.02,0-.05-.01-.09-.02-.51-.16-.95-.38-1.43-.8-.03-.03-.03-.05.02-.08l.15-.11Z"/>
      <path d="M162.95,11.04c-.03.06-.05.09-.07.09-.02,0-.04-.01-.08-.03-.99-.44-1.79-1.04-2.38-1.88-.59.86-1.35,1.43-2.28,1.89-.04.02-.07.03-.08.03-.03,0-.04-.02-.07-.08-.05-.07-.1-.14-.18-.19,1.03-.42,1.84-1.1,2.3-1.83.08-.14.11-.2.15-.32.13.02.25.04.36.07.06.02.08.03.08.07,0,.02,0,.04-.04.06-.03.01-.05.03-.06.04.68.91,1.47,1.46,2.52,1.86-.07.07-.12.14-.16.23M162.68,11.94s0,.04-.05.04c-.03,0-.21-.01-.78-.01h-1.73c-.17.42-.36.87-.59,1.31.68-.05,1.44-.12,2.1-.19-.16-.21-.34-.41-.53-.62-.03-.03-.02-.05.04-.08l.16-.09s.06-.02.08,0c.41.42.76.87,1.09,1.34.02.03.02.05-.03.08l-.18.12s-.05.03-.06.03c-.02,0-.03-.01-.05-.03-.11-.16-.21-.32-.32-.48-1,.13-2.13.24-3.12.31-.11.01-.19.02-.21.05-.02.02-.05.03-.07.03-.03,0-.05-.03-.06-.06-.03-.11-.06-.25-.08-.38.18.01.37.01.62,0,.08,0,.16,0,.24-.01.24-.46.44-.91.59-1.33h-.68c-.56,0-.75.01-.78.01-.05,0-.05,0-.05-.04v-.25s0-.05.05-.05c.03,0,.22.01.78.01h2.8c.57,0,.75-.01.78-.01.04,0,.05,0,.05.05v.25ZM161.61,10.91s0,.05-.05.05c-.03,0-.19-.01-.66-.01h-.92c-.48,0-.63.01-.66.01-.04,0-.05,0-.05-.05v-.24s0-.05.05-.05c.03,0,.19.01.66.01h.92c.48,0,.63-.01.66-.01.04,0,.05,0,.05.05v.24Z"/>
    </g>
  </g>
</svg>