<?xml version="1.0" encoding="UTF-8"?>
<svg id="_デザイン" data-name="デザイン" xmlns="http://www.w3.org/2000/svg" viewBox="0 0 291.99 409.3">
  <defs>
    <style>
      .cls-1 {
        fill: #fff;
      }
    </style>
  </defs>
  <g>
    <g>
      <path class="cls-1" d="M30.38,284.32v17.1h-4.61l-.5-4.14c-1.74,3.05-5.27,5.02-9.58,5.02-10.66,0-15.68-7.77-15.68-16.67s4.93-16.71,15.64-16.71c6.37,0,11.51,3.26,14.12,9.31l-5.16,2.16c-1.49-4.4-4.88-6.37-9.01-6.37-6.86,0-9.81,5.39-9.81,11.4,0,6.44,2.96,11.69,9.9,11.69,5.07,0,8.64-2.8,8.83-8.07h-7.13v-4.7h13Z"/>
      <path class="cls-1" d="M60.51,285.62c0-8.83,4.93-16.67,15.64-16.67s15.64,7.84,15.64,16.67-4.93,16.67-15.64,16.67-15.64-7.84-15.64-16.67Zm25.13,0c0-6.1-2.54-11.49-9.49-11.49s-9.49,5.39-9.49,11.49,2.55,11.51,9.49,11.51,9.49-5.39,9.49-11.51Z"/>
      <path class="cls-1" d="M99.64,269.44h11.23c4.93,0,10.36,2.25,10.36,8.74,0,2.96-1.77,5.34-3.6,6.33,2.96,1.17,5.2,4.7,5.2,7.93,0,6.03-5.07,9.4-10.57,9.4h-12.63v-32.4Zm11.78,13.05c2.27,0,4.47-.8,4.47-3.99,0-2.52-2.16-3.81-4.93-3.81h-5.5v7.8h5.96Zm.94,13.8c3,0,4.75-1.44,4.75-4.49,0-2.32-1.93-4.29-4.98-4.29h-6.67v8.78h6.9Z"/>
      <path class="cls-1" d="M162.93,269.44h5.82v26.89h10.7v5.5h-16.52v-32.4Z"/>
      <path class="cls-1" d="M39.38,269.44h5.82v26.89h10.7v5.5h-16.52v-32.4Z"/>
    </g>
    <g>
      <path class="cls-1" d="M179.24,322.94v32.4h-5.82l-13.57-22.77v22.77h-5.59v-32.4h5.78l13.62,22.65v-22.65h5.59Z"/>
      <path class="cls-1" d="M189.27,322.94h5.82v32.4h-5.82v-32.4Z"/>
      <path class="cls-1" d="M237.76,322.94v32.4h-5.59v-24.19l-8.02,21.37h-5.64l-8.02-21.37v24.19h-5.59v-32.4h7.84l8.6,23.04,8.6-23.04h7.84Z"/>
      <path class="cls-1" d="M247.59,322.94h20.92v5.34h-15.1v9.65h12.34v5.34h-12.34v6.56h15.73v5.5h-21.55v-32.4Z"/>
      <path class="cls-1" d="M141.38,355.34h6.28l-12.91-32.4h-4.36l-12.98,32.4h6.35l1.88-5.08h13.86l1.87,5.08Zm-8.78-23.84l4.96,13.47h-9.95l4.99-13.47Z"/>
      <path class="cls-1" d="M150.48,301.83h6.28l-12.91-32.4h-4.36l-12.98,32.4h6.35l1.88-5.08h13.86l1.87,5.08Zm-8.78-23.84l4.96,13.47h-9.95l4.99-13.47Z"/>
    </g>
    <g>
      <path class="cls-1" d="M0,392.63c0-8.87,4.98-16.71,15.64-16.71,6.42,0,11.56,3.26,14.17,9.31l-5.43,2.16c-1.22-4.26-4.56-5.92-8.78-5.92-6.86,0-9.81,4.93-9.81,10.94,0,6.44,2.96,11.37,9.9,11.37,4.17,0,7.04-1.65,8.78-6.01l5.39,2.2c-2.57,6.05-7.73,9.33-14.17,9.33-10.66,0-15.68-7.77-15.68-16.67Z"/>
      <path class="cls-1" d="M35.97,376.45h5.82v14.97h14.19v-14.97h5.82v32.4h-5.82v-12.06h-14.19v12.06h-5.82v-32.4Z"/>
      <path class="cls-1" d="M102.54,376.45h5.82v26.89h10.7v5.5h-16.52v-32.4Z"/>
      <path class="cls-1" d="M124.92,376.45h5.82v26.89h10.7v5.5h-16.52v-32.4Z"/>
      <path class="cls-1" d="M147.73,376.45h20.92v5.34h-15.1v9.65h12.34v5.34h-12.34v6.56h15.73v5.5h-21.55v-32.4Z"/>
      <path class="cls-1" d="M202.16,376.45v32.4h-5.82l-13.57-22.77v22.77h-5.59v-32.4h5.78l13.62,22.65v-22.65h5.59Z"/>
      <path class="cls-1" d="M239.53,391.33v17.1h-4.61l-.5-4.14c-1.74,3.05-5.27,5.02-9.58,5.02-10.66,0-15.68-7.77-15.68-16.67s4.93-16.71,15.64-16.71c6.37,0,11.51,3.26,14.12,9.31l-5.16,2.16c-1.49-4.4-4.88-6.37-9.01-6.37-6.86,0-9.81,5.39-9.81,11.4,0,6.44,2.96,11.69,9.9,11.69,5.07,0,8.64-2.8,8.83-8.07h-7.13v-4.7h13Z"/>
      <path class="cls-1" d="M247.59,376.45h20.92v5.34h-15.1v9.65h12.34v5.34h-12.34v6.56h15.73v5.5h-21.55v-32.4Z"/>
      <path class="cls-1" d="M90.8,408.84h6.28l-12.91-32.4h-4.36l-12.98,32.4h6.35l1.88-5.08h13.86l1.87,5.08Zm-8.78-23.84l4.96,13.47h-9.95l4.99-13.47Z"/>
    </g>
  </g>
  <path class="cls-1" d="M146.98,116.74h104.34s0-3.52,0-3.52l-82.39-26.02c-1.66-.53-2.18-2.63-.94-3.86l49.14-49.15-2.4-2.4-58,30.16,7.19,22.75c.26,.83,.04,1.73-.57,2.35l-20.33,20.33c-.37,.37-.94,.37-1.35,.05-1.74-1.37-3.86-2.23-6.13-2.42-.53-.04-.96-.46-.96-.99V0s-3.52,0-3.52,0l-26.02,82.39c-.53,1.67-2.63,2.18-3.87,.95L52.02,34.19l-2.4,2.4,30.16,58,21.41-6.76c1.66-.52,3.47-.08,4.69,1.15l19.65,19.01c.37,.36,.38,.93,.06,1.33-1.33,1.67-2.19,3.71-2.43,5.89-.06,.52-.47,.93-.99,.93H17.83s0,3.52,0,3.52l82.39,26.02c1.67,.52,2.18,2.63,.94,3.86l-49.15,49.15,2.4,2.4,58-30.16-7.19-22.75c-.26-.83-.04-1.73,.57-2.35l20.33-20.33c.37-.37,.94-.37,1.35-.05,1.74,1.37,3.86,2.23,6.13,2.42,.53,.04,.96,.46,.96,.99v104.02s3.52,0,3.52,0l26.02-82.39c.53-1.67,2.63-2.18,3.87-.95l49.15,49.15,2.4-2.4-30.16-58-21.41,6.76c-1.66,.52-3.47,.08-4.69-1.15l-19.65-19.01c-.37-.36-.38-.93-.06-1.33,1.33-1.67,2.19-3.71,2.43-5.89,.06-.52,.47-.93,.99-.93Zm-11.55,4.52c-2.67,.47-5.21-1.31-5.68-3.98-.47-2.67,1.31-5.21,3.98-5.68s5.21,1.31,5.68,3.98-1.31,5.21-3.98,5.68Z"/>
  <g>
    <path class="cls-1" d="M216.35,244.44c3.82-1.87,6.07-5.03,6.96-8.62-1.58,.05-3.18,.06-4.38,.08-.88,1.54-1.92,2.92-3.13,3.97l-1.29-.72c2.1-1.87,3.58-4.14,4.45-6.76l1.4,.37c-.23,.62-.48,1.22-.75,1.82,1.26-.02,2.73-.05,4.47-.11l.86,.73c-1.18,4.95-3.44,8.05-7.34,10.27l-1.24-1.03Zm6.94-11.67l.71-.68c.63,.57,1.03,1.03,1.61,1.89l-.75,.71c-.55-.86-.91-1.24-1.57-1.92Zm1.63-.78l.72-.68c.63,.64,1.08,1.14,1.58,1.92l-.78,.7c-.46-.75-.97-1.38-1.52-1.94Z"/>
    <path class="cls-1" d="M231.28,234.21c3.42-.03,6.83-.05,10.26-.08-.06,3.25-.05,6.94-.02,10.2h-1.44c0-.35,.02-.97,.02-1.34l-7.34,.05c0,.35,.02,.97,.02,1.31h-1.43c.03-3.24,0-6.9-.06-10.13Zm1.46,7.48l7.37-.05c.02-1.87,.03-3.94,.02-6.14-2.49,.02-4.96,.03-7.43,.06l.05,6.13Z"/>
    <path class="cls-1" d="M246.57,237.91l12.09-.08,.02,1.38-12.09,.08-.02-1.38Z"/>
    <path class="cls-1" d="M262.32,243.44c2.29-2.71,2.96-6.07,3.33-9.37l1.37,.24c-.48,3.48-1.14,6.92-3.36,9.81l-1.34-.68Zm7.23-9.1l1.21-.7c1.47,2.35,3.03,6.34,4.04,9.62l-1.34,.76c-.89-3.32-2.35-7.19-3.92-9.68Zm2.35-1.1l.81-.56c.51,.7,.88,1.35,1.32,2.32l-.86,.59c-.42-.95-.75-1.54-1.27-2.35Zm1.52-.84l.81-.55c.57,.71,.97,1.41,1.35,2.29l-.84,.55c-.35-.76-.78-1.6-1.32-2.29Z"/>
    <path class="cls-1" d="M278.23,244.01c2.66-1.98,3.67-4.92,3.36-10.27h1.37c.25,6.02-.81,8.91-3.38,11.02l-1.35-.75Zm7.23-.32c.06-3.56,.06-6.95,0-10.43h1.38c-.03,3.14-.03,6.27-.02,9.38,1.58-.83,3.3-2.52,4.48-4.98l.68,1.38c-1.32,2.53-3.3,4.35-5.51,5.4l-1.01-.75Z"/>
    <path class="cls-1" d="M248.29,268.01c1.69-1.14,2.61-2.29,3.15-3.59,.35-.83,.57-1.86,.57-2.89,0-.35-.02-.72-.08-1.32h1.4c.05,.67,.05,.98,.05,1.35,0,.3-.02,.62-.05,.95,1.83-.9,2.95-2.18,3.62-3.57-3.26,.08-7.37,.16-9.94,.16l-.02-1.37c3.7,0,7.55-.05,10.81-.11l.83,.87c-.91,2.03-2.18,3.88-4.42,5.03l-.92-.8c-.09,.78-.28,1.57-.51,2.18-.64,1.59-1.69,2.9-3.21,3.97l-1.29-.87Z"/>
    <path class="cls-1" d="M262.69,265.26c4.36-.02,8.28-.05,12.35-.11l.03,1.4c-3.96,.02-7.69,.05-12.36,.11l-.02-1.4Zm1.58-6.8c3.29,.02,5.02,0,8.92-.09l.03,1.38c-3.99,.05-5.77,.06-8.94,.09l-.02-1.38Z"/>
    <path class="cls-1" d="M279.3,267.85c2.3-1.32,4.15-3.22,5.5-5.46-1.26-.9-2.55-1.62-3.82-2.21l.66-1.08c1.23,.57,2.52,1.29,3.79,2.14,.83-1.62,1.41-3.38,1.75-5.21l1.4,.51c-.49,2-1.18,3.84-2.04,5.49,1.2,.94,2.35,1.98,3.33,3.21l-.91,1.08c-.94-1.18-1.97-2.21-3.09-3.11-1.4,2.33-3.19,4.22-5.36,5.59l-1.21-.95Z"/>
    <path class="cls-1" d="M216.58,292.11c2.47-1.52,3.42-3.54,3.55-5.76-2.09,.03-3.99,.03-5.88,.05l-.02-1.33c1.95,.03,3.85,.02,5.91-.02v-2.84c-1.27,.25-2.55,.46-3.56,.59l-.94-1.14c3.15-.37,6.16-1.02,7.89-1.79l1.2,.94c-.84,.43-2.01,.79-3.26,1.11l.02,3.13c1.52-.03,3.13-.08,4.91-.14l.03,1.37c-1.8,.03-3.42,.06-4.96,.08-.11,2.64-1.26,5.02-3.56,6.53l-1.34-.75Z"/>
    <path class="cls-1" d="M235.36,286.61c-1.09,.29-2.13,.54-3.09,.76l-.37-1.19c1.04-.24,2.1-.48,3.18-.73-.28-1.1-.51-2.07-.72-2.91l1.2-.29,.69,2.91c1.43-.35,2.9-.73,4.47-1.14l.97,.78c-.71,1.71-1.12,2.52-2.13,3.75l-1.24-.44c.84-.84,1.54-1.91,1.9-2.79-1.15,.32-2.41,.67-3.69,1l1.43,5.76-1.21,.32c-.52-2.16-.98-4.1-1.38-5.78Z"/>
    <path class="cls-1" d="M249.18,291.65c.03-3.79,.05-7.45,.02-11.24h1.41c-.03,3.51-.05,6.87-.03,10.37,2.86-1.11,5.42-3.37,7.19-6.29l.69,1.48c-2.04,2.98-4.71,5.22-8.28,6.49l-1-.81Z"/>
    <path class="cls-1" d="M263.78,282.6l.8-1.19c1.27,.68,2.23,1.3,3.53,2.37l-.86,1.24c-1.15-1.03-2.32-1.83-3.47-2.41Zm.58,8.13c4.22-1.13,7.29-3.68,9.31-8.05l1.01,1.37c-2.21,4.19-4.96,6.78-9.58,8.1l-.74-1.41Z"/>
    <path class="cls-1" d="M279.29,285.33l.71-1.19c1.21,.59,2.12,1.14,3.18,2.03l-.83,1.21c-1.08-.92-2.07-1.54-3.06-2.05Zm1.3,6.05c3.75-.92,7.13-3.06,9.37-8.35l1.06,1.33c-2.47,5.16-5.71,7.32-9.81,8.41l-.61-1.4Zm.78-9.43l.75-1.16c1.12,.59,2.1,1.21,3.15,2.11l-.89,1.16c-1.04-.94-1.93-1.54-3.01-2.11Zm5.97-1.29l.72-.72c.63,.6,1.12,1.18,1.67,2.02l-.75,.75c-.58-.9-1-1.43-1.64-2.05Zm1.8-.7l.74-.7c.64,.62,1.09,1.21,1.64,2.02l-.77,.73c-.43-.7-.98-1.45-1.61-2.05Z"/>
  </g>
</svg>