<?xml version="1.0" encoding="UTF-8"?>
<svg id="_デザイン" data-name="デザイン" xmlns="http://www.w3.org/2000/svg" viewBox="0 0 60 81.36">
  <defs>
    <style>
      .cls-1 {
        fill: none;
        stroke: #aa1e14;
        stroke-miterlimit: 10;
        stroke-width: 2px;
      }
    </style>
  </defs>
  <g>
    <line class="cls-1" y1="1" x2="42" y2="1"/>
    <line class="cls-1" x1="28" y1="23" x2="60" y2="23"/>
    <line class="cls-1" y1="45" x2="60" y2="45"/>
  </g>
  <g>
    <path d="M.45,69.43H2.78v1.65c.73-1.37,1.97-1.88,3.29-1.88,1.45,0,2.87,.6,3.5,2.24,.86-1.58,2.26-2.24,3.79-2.24,2.92,0,4.15,2.31,4.15,4.96v6.97h-2.43v-6.67c0-1.77-.54-3-2.2-3s-2.68,1.35-2.68,3.07v6.6h-2.43v-6.84c0-1.63-.56-2.82-2.18-2.82s-2.71,1.35-2.71,3.07v6.6H.46v-11.71Z"/>
    <path d="M20.81,75.34c0-3.14,1.8-6.13,5.58-6.13,4.02,0,5.31,3.22,5.31,5.74,0,.45-.05,.93-.09,1.09h-8.24c.21,1.9,1.22,3.12,3.23,3.12,1.17,0,2.12-.35,3.02-1.32l1.66,1.46c-1.29,1.41-2.77,2.06-4.7,2.06-3.87,0-5.78-2.81-5.78-6.02Zm8.5-1.05c.01-.26-.01-.5-.07-.74-.23-1.32-1.25-2.3-2.87-2.3-1.83,0-2.75,1.28-3,3.04h5.94Z"/>
    <path d="M35.33,69.43h2.41v1.57c.87-1.24,2.23-1.79,3.52-1.79,2.95,0,4.18,2.3,4.2,4.77v7.16h-2.41v-6.8c0-1.73-.86-2.89-2.46-2.89-1.73,0-2.84,1-2.84,3.12v6.57h-2.41v-11.71Z"/>
    <path d="M49.43,76.59v-7.16h2.4v6.8c0,1.73,.84,2.89,2.46,2.89,1.73,0,2.85-1,2.85-3.12v-6.57h2.4v11.71h-2.4v-1.57c-.87,1.24-2.24,1.79-3.53,1.79-2.96,0-4.17-2.3-4.18-4.77Z"/>
  </g>
</svg>