<?xml version="1.0" encoding="UTF-8"?>
<svg id="Layer_2" xmlns="http://www.w3.org/2000/svg" viewBox="0 0 210.97 11.31">
  <defs>
    <style>
      .cls-1 {
        fill: #fff;
      }
    </style>
  </defs>
  <g id="Layer_1-2" data-name="Layer_1">
    <g>
      <path class="cls-1" d="M67.46,1.49c-.2.75-.49,1.3-.92,1.73.45.38,1.05.72,1.85.97-.06.06-.1.14-.14.21-.03.06-.04.07-.07.07-.01,0-.04,0-.07-.02-.77-.29-1.35-.65-1.79-1.04-.45.4-1.03.73-1.78,1.02-.03,0-.05.02-.07.02-.03,0-.04-.02-.07-.07-.04-.07-.09-.14-.14-.19.84-.28,1.4-.6,1.84-.98-.44-.46-.72-1-.94-1.73h-.16c-.44,0-.59,0-.61,0-.03,0-.04,0-.04-.04v-.21s0-.04.04-.04c.02,0,.17,0,.61,0h1.15v-.32c0-.23,0-.38-.04-.51.11,0,.22,0,.32.02.03,0,.06.02.06.04,0,.03-.01.06-.03.09-.02.05-.02.11-.02.35v.32h1.22c.44,0,.59,0,.61,0,.04,0,.04,0,.04.04v.21s0,.04-.04.04c-.02,0-.17,0-.61,0h-.21ZM65.46,1.49c.2.64.44,1.12.87,1.54.4-.41.65-.89.82-1.54h-1.69Z"/>
      <path class="cls-1" d="M69.68,2.6c0-.19.01-.47.01-.7-.18.26-.39.5-.61.73-.03.03-.05.05-.07.05-.02,0-.04-.02-.05-.06-.03-.07-.07-.13-.12-.18.54-.5.94-1.07,1.19-1.69.05-.11.08-.22.08-.3.12.03.2.06.28.11.04.02.05.03.05.06s-.01.04-.04.06c-.03.02-.06.07-.11.18-.1.22-.21.44-.34.66v2.28c0,.48.01.69.01.72,0,.03,0,.04-.04.04h-.22s-.04,0-.04-.04c0-.02,0-.23,0-.72v-1.17ZM71.17,3.75c0,.22.04.31.18.35.11.03.29.03.58.03s.45-.03.56-.12c.09-.08.15-.27.18-.68.06.05.12.09.2.12.08.03.08.04.07.12-.04.39-.11.58-.26.69-.16.11-.42.15-.76.15-.37,0-.61,0-.76-.06-.16-.06-.27-.18-.27-.49V.99c0-.24,0-.38-.03-.52.12,0,.21.01.31.03.04,0,.06.02.06.04,0,.03-.01.05-.02.08-.02.05-.03.11-.03.35v1.35c.38-.24.75-.52,1.1-.88.07-.07.14-.16.18-.24.09.06.18.12.24.19.03.03.04.05.04.07,0,.03-.03.05-.07.06-.05.02-.13.09-.24.19-.33.32-.74.61-1.25.93v1.11Z"/>
      <path class="cls-1" d="M77.58,1.14s0,.04-.04.04c-.03,0-.17,0-.61,0h-.63v.03c0,.27,0,.38,0,.4,0,.03,0,.04-.04.04h-.21s-.04,0-.04-.04c0-.03,0-.13,0-.4v-.03h-.97v.04c0,.26,0,.36,0,.39,0,.03,0,.04-.04.04h-.21s-.04,0-.04-.04c0-.03,0-.13,0-.39v-.04h-.61c-.43,0-.58,0-.61,0-.03,0-.04,0-.04-.04v-.19s0-.04.04-.04c.02,0,.17.01.61.01h.61c0-.19,0-.37-.03-.49.12,0,.21,0,.28.02.04,0,.06.02.06.05,0,.02,0,.03-.02.07-.02.05-.03.15-.03.34v.02h.97c0-.2,0-.38-.03-.5.12,0,.2.01.29.03.03,0,.05.02.05.04s0,.04-.02.06c-.01.04-.03.15-.03.35h0s.63.01.63.01c.43,0,.58-.01.61-.01.03,0,.04,0,.04.04v.19ZM77.58,2.99s0,.04-.04.04c-.03,0-.17,0-.61,0h-1.64c-.13.35-.29.68-.44.97.61-.05,1.24-.11,1.74-.18-.11-.13-.23-.27-.37-.4-.02-.02-.03-.04.03-.07l.1-.06s.06-.03.08-.01c.35.34.65.68.89,1.05.02.03.01.04-.03.07l-.13.09s-.05.03-.06.03-.02,0-.03-.03c-.09-.15-.19-.3-.3-.44-.79.12-1.76.23-2.59.29-.13.01-.16.02-.19.04-.03.01-.05.03-.07.03-.03,0-.05-.01-.06-.06-.03-.09-.05-.19-.07-.3.19,0,.34,0,.48,0h.27c.17-.34.33-.68.45-1.01h-.72c-.44,0-.58,0-.61,0-.03,0-.04,0-.04-.04v-.21s0-.04.04-.04c.03,0,.17,0,.61,0h2.68c.44,0,.58,0,.61,0,.03,0,.04,0,.04.04v.21ZM77.05,2.15s0,.03-.04.03c-.03,0-.19,0-.65,0h-1.62c-.47,0-.62,0-.65,0-.04,0-.04,0-.04-.03v-.21s0-.04.04-.04c.02,0,.18,0,.65,0h1.62c.47,0,.62,0,.65,0,.03,0,.04,0,.04.04v.21Z"/>
      <path class="cls-1" d="M78.59,3.05c0-.17,0-.39.01-.57-.11.12-.23.25-.37.37-.02.02-.04.04-.06.04-.02,0-.03-.02-.05-.05-.03-.07-.06-.12-.11-.17.41-.34.65-.66.85-1.05.04-.07.07-.16.09-.23.09.04.16.08.23.13.03.02.05.04.05.06s-.01.04-.04.06c-.03.02-.07.06-.11.13-.07.12-.15.25-.24.38v1.72c0,.4,0,.57,0,.6,0,.03,0,.04-.04.04h-.21s-.04,0-.04-.04c0-.02.01-.19.01-.6v-.83ZM79.22.63s-.07.05-.12.11c-.21.3-.46.57-.82.85-.03.02-.05.04-.06.04-.02,0-.03-.02-.06-.06-.04-.07-.07-.12-.12-.16.35-.23.61-.52.82-.82.06-.09.09-.15.1-.21.09.04.18.09.24.13.03.02.05.04.05.07s-.01.04-.04.05M79.71,2.37s-.04.1-.05.18c-.05.35-.13.78-.29,1.16-.01.04-.02.06-.04.06-.01,0-.03-.01-.06-.02-.07-.03-.12-.05-.18-.05.19-.42.28-.82.31-1.13,0-.11.01-.24,0-.33.11,0,.2.02.26.04.05,0,.06.02.06.05,0,.02-.01.04-.02.06M80.92,1.63s0,.04-.04.04c-.02,0-.12,0-.48,0h-.14v2c0,.54,0,.77,0,.8,0,.03,0,.04-.04.04h-.21s-.04,0-.04-.04c0-.03.01-.26.01-.8V1.66h-.14c-.36,0-.46,0-.49,0-.03,0-.04,0-.04-.04v-.19s0-.04.04-.04c.03,0,.13,0,.49,0h.14v-.39c0-.3,0-.44-.03-.6.12,0,.21.01.3.03.03,0,.05.02.05.04,0,.03-.01.05-.02.08-.02.06-.03.15-.03.44v.4h.14c.36,0,.46,0,.48,0,.03,0,.04,0,.04.04v.19ZM80.58.59s.05-.02.07,0c.12.14.2.27.29.45.01.03.01.04-.03.06l-.09.06c-.06.04-.07.04-.08,0-.08-.17-.17-.32-.28-.46-.02-.03-.02-.04.02-.06l.1-.06ZM80.72,2.22s.05-.01.06.02c.14.41.22.79.29,1.22,0,.03,0,.04-.05.06l-.13.05c-.06.02-.07.02-.08-.02-.06-.44-.14-.83-.26-1.23-.01-.03-.01-.04.04-.06l.12-.04ZM82.28,1.91s0,.04-.04.04c-.02,0-.11-.01-.41-.01h-.02v1.37c0,.32,0,.53,0,.72,0,.15-.03.27-.12.34-.09.06-.24.07-.56.07q-.09,0-.11-.1c-.01-.06-.05-.14-.08-.19.16.02.3.03.42.03.11,0,.17-.05.17-.19V1.94h-.12c-.3,0-.39.01-.41.01-.04,0-.04,0-.04-.04v-.19s0-.04.04-.04c.02,0,.11,0,.41,0h.42c.31,0,.39,0,.41,0,.03,0,.04,0,.04.04v.19ZM82.18.95s0,.04-.03.04c-.03,0-.1,0-.36,0h-.3c-.27,0-.34,0-.36,0-.03,0-.04,0-.04-.04v-.19s0-.04.04-.04c.02,0,.09,0,.36,0h.3c.26,0,.33,0,.36,0,.03,0,.03,0,.03.04v.19Z"/>
      <path class="cls-1" d="M82.9,1.64s.04-.04.07-.02c.22.12.45.3.66.5.02.02.01.03-.01.07l-.09.13c-.04.05-.05.05-.07.02-.2-.2-.41-.38-.64-.52-.03-.02-.03-.03,0-.07l.09-.12ZM83.26,4.24c-.05.09-.09.15-.1.19,0,.03-.03.05-.05.05-.01,0-.03,0-.06-.03-.07-.05-.13-.1-.21-.17.09-.1.17-.2.26-.36.11-.21.29-.56.48-1.02.04.05.08.1.13.14.05.04.07.05.07.08,0,.02-.01.04-.02.07-.16.37-.33.73-.5,1.05M83.16.49s.04-.04.07-.02c.22.14.44.32.62.51.02.03.02.04,0,.08l-.1.12s-.05.05-.07.02c-.18-.2-.41-.39-.62-.53-.03-.02-.03-.03.01-.07l.1-.11ZM86.87,2.06s0,.04-.03.04-.18,0-.65,0h-.69v.76h.39c.43,0,.57,0,.6,0,.03,0,.04,0,.04.04,0,.02,0,.13,0,.43v.39c0,.64,0,.74,0,.77s0,.03-.04.03h-.21s-.04,0-.04-.03v-.2h-1.71v.23s0,.04-.04.04h-.21s-.04,0-.04-.04c0-.02,0-.13,0-.78v-.35c0-.35,0-.47,0-.49,0-.03,0-.04.04-.04.02,0,.17,0,.6,0h.32v-.76h-.62c-.47,0-.63,0-.65,0-.03,0-.04,0-.04-.04v-.2s0-.04.04-.04c.02,0,.18.01.65.01h.62v-.75c-.3.07-.62.11-.94.16-.1.02-.1.01-.13-.07-.02-.07-.06-.12-.09-.17.76-.08,1.62-.27,2.04-.43.1-.04.17-.07.24-.12.07.06.14.11.2.17.03.03.04.04.04.07s-.02.04-.06.05c-.04,0-.11.02-.18.04-.26.09-.55.17-.85.24v.81h.69c.47,0,.62-.01.65-.01s.03,0,.03.04v.2ZM86.24,3.09h-1.71v.94h1.71v-.94Z"/>
      <path class="cls-1" d="M89.6,1.44s0,.04-.03.04c-.02,0-.17,0-.59,0h-.33v.3h.25c.39,0,.52-.01.55-.01.03,0,.04,0,.04.04,0,.02,0,.11,0,.38v.45c0,.26,0,.36,0,.38,0,.03,0,.04-.04.04-.03,0-.12,0-.55,0h-.25v.3h.24c.41,0,.54,0,.57,0,.03,0,.04,0,.04.04v.17s0,.04-.04.04c-.03,0-.16-.01-.57-.01h-.24v.33c.29-.04.58-.08.85-.14-.02.06-.03.1-.03.14,0,.1,0,.09-.1.11-.54.11-1.09.18-1.65.25-.09,0-.16.03-.18.04-.02,0-.04.02-.06.02-.02,0-.04-.01-.05-.05-.02-.07-.05-.17-.07-.26.16,0,.29,0,.48-.01.16-.01.36-.03.56-.05v-.37h-.32c-.41,0-.54.01-.56.01-.03,0-.04,0-.04-.04v-.17s0-.04.04-.04c.03,0,.16,0,.56,0h.32v-.3h-.23c-.39,0-.52,0-.55,0-.03,0-.04,0-.04-.04,0-.03.01-.12.01-.38v-.45c0-.27-.01-.36-.01-.38,0-.03,0-.04.04-.04.03,0,.16.01.55.01h.23v-.3h-.39c-.42,0-.56,0-.59,0-.03,0-.04,0-.04-.04v-.17s0-.04.04-.04c.02,0,.17,0,.59,0h.39v-.31c-.23.03-.45.06-.71.08-.08,0-.09,0-.12-.05-.03-.07-.06-.12-.1-.16.67-.04,1.13-.12,1.59-.24.08-.02.16-.05.21-.09.08.06.14.11.18.15.03.03.04.04.04.06,0,.03-.04.04-.08.04s-.11.02-.18.03c-.2.05-.39.09-.58.13v.35h.33c.42,0,.56,0,.59,0,.03,0,.03,0,.03.04v.17ZM88.4,1.96h-.56v.33h.56v-.33ZM88.4,2.48h-.56v.35h.56v-.35ZM89.24,1.96h-.59v.33h.59v-.33ZM89.24,2.48h-.59v.35h.59v-.35ZM90.79,1.47c.36,0,.48,0,.51,0,.03,0,.04,0,.04.04-.01.14-.01.27-.01.41,0,.73-.04,1.49-.13,2.06-.05.32-.21.46-.5.46-.13,0-.23,0-.33,0-.08,0-.08-.03-.08-.08,0-.08-.03-.16-.06-.22.15.03.3.04.45.04s.23-.08.26-.32c.08-.5.12-1.28.12-2.13h-.55c-.02.47-.07.92-.17,1.29-.16.59-.4,1.05-.88,1.43-.04.03-.05.04-.07.04-.01,0-.03-.02-.06-.04-.05-.06-.12-.1-.18-.12.52-.33.78-.8.94-1.4.08-.31.13-.74.15-1.2h-.05c-.36,0-.47,0-.49,0-.04,0-.04,0-.04-.04v-.19s0-.04.04-.04c.02,0,.13,0,.49,0h.06c0-.18,0-.35,0-.52,0-.29,0-.4-.03-.57.11,0,.2.01.3.03.03,0,.05.02.05.04,0,.03,0,.05-.02.1-.02.05-.03.19-.03.43,0,.16,0,.33,0,.49h.27Z"/>
      <path class="cls-1" d="M94.97,2.89c.31.27.67.44,1.24.56-.05.04-.09.1-.12.17-.04.08-.05.08-.13.05-.6-.18-.97-.42-1.3-.78h-1.24c-.29.3-.67.57-1.24.8-.08.03-.09.03-.13-.04-.04-.06-.08-.11-.12-.15.54-.17.92-.39,1.17-.61h-.44c-.43,0-.57,0-.6,0s-.03,0-.03-.04v-.17s0-.04.03-.04.17,0,.6,0h.4v-1.49h-.17c-.45,0-.61,0-.63,0-.03,0-.04,0-.04-.04v-.18s0-.04.04-.04c.02,0,.18,0,.63,0h.17v-.02c0-.27,0-.42-.03-.55.11,0,.2.01.3.03.03,0,.05.02.05.04,0,.03-.02.06-.03.08-.01.05-.02.15-.02.4v.02h1.43v-.02c0-.27,0-.42-.03-.55.11,0,.2.01.3.03.03,0,.05.02.05.04,0,.03-.01.06-.03.09-.01.04-.02.15-.02.39v.02h.23c.45,0,.6,0,.63,0,.03,0,.04,0,.04.04v.18s0,.04-.04.04c-.03,0-.18,0-.63,0h-.23v1.49h.44c.43,0,.57,0,.6,0,.03,0,.04,0,.04.04v.17s0,.04-.04.04c-.03,0-.17,0-.6,0h-.48ZM95.83,4.35s0,.04-.04.04c-.03,0-.18,0-.64,0h-2.22c-.46,0-.62,0-.64,0-.03,0-.04,0-.04-.04v-.19s0-.04.04-.04c.03,0,.18,0,.64,0h.97v-.42h-.36c-.43,0-.57,0-.6,0-.03,0-.04,0-.04-.04v-.18s0-.04.04-.04c.02,0,.16,0,.6,0h.36v-.04c0-.18,0-.29-.03-.4.11,0,.2.01.29.02.03,0,.05.02.05.04,0,.02-.01.04-.02.06-.02.04-.02.12-.02.26v.05h.38c.43,0,.57,0,.6,0,.03,0,.04,0,.04.04v.18s0,.04-.04.04c-.03,0-.17,0-.6,0h-.38v.42h.99c.46,0,.61,0,.64,0,.03,0,.04,0,.04.04v.19ZM94.74,1.17h-1.43v.34h1.43v-.34ZM94.74,1.73h-1.43v.35h1.43v-.35ZM94.74,2.29h-1.43v.37h1.43v-.37Z"/>
      <path class="cls-1" d="M98.61,1.52s-.02.08-.03.13c-.01.07-.02.08-.1.09l-.08.02v.2c0,.21,0,.43,0,.61,0,.13-.02.23-.11.29-.07.06-.16.08-.39.08-.09,0-.1,0-.12-.09-.02-.06-.04-.12-.07-.16.13.02.23.02.32.01.08,0,.12-.04.12-.17v-.74l-.36.05v.36c0,.2.01.27.01.3,0,.03,0,.04-.04.04h-.17s-.03,0-.03-.04c0-.03,0-.1,0-.3v-.32l-.32.04c-.02.36-.1.66-.33.97-.02.04-.04.05-.06.05-.01,0-.03-.01-.07-.04-.05-.03-.11-.06-.17-.07.25-.27.34-.51.38-.88h-.11c-.1.02-.13.03-.16.05-.02.01-.04.02-.07.02s-.04-.01-.05-.05c-.02-.07-.03-.15-.05-.23.11,0,.19,0,.37-.01.02,0,.05,0,.07,0,0-.11,0-.22,0-.35v-.24c0-.25,0-.36,0-.39,0-.03,0-.04.04-.04.03,0,.12,0,.43,0h.01c.04-.08.07-.16.09-.24.01-.05.02-.11.03-.17.1.01.17.03.26.05.03,0,.04.03.04.05s-.01.04-.03.06c-.02.02-.04.06-.06.09-.02.06-.05.11-.07.16h.17c.31,0,.4,0,.43,0,.03,0,.04,0,.04.04,0,.03-.01.14-.01.39v.42l.22-.04ZM100.71,4.38s0,.04-.04.04c-.02,0-.17,0-.6,0h-2.84c-.43,0-.57,0-.6,0-.03,0-.04,0-.04-.04v-.18s0-.04.04-.04c.02,0,.15,0,.51,0v-.63c0-.26,0-.36,0-.39,0-.03,0-.04.04-.04.02,0,.19.01.66.01h1.6c.46,0,.63-.01.66-.01.03,0,.04,0,.04.04,0,.03,0,.13,0,.39v.63c.39,0,.53,0,.55,0,.03,0,.04,0,.04.04v.18ZM98.16.93h-.88v.48c0,.11,0,.2,0,.3.29-.03.6-.07.88-.11v-.67ZM98.04,3.35h-.61v.82h.61v-.82ZM97.59,1.07s.04-.02.07,0c.1.1.18.2.26.31.02.03.01.04-.02.06l-.07.05s-.05.04-.07,0c-.08-.12-.15-.22-.25-.31-.02-.02-.02-.03.03-.07l.06-.04ZM98.93,3.35h-.62v.82h.62v-.82ZM100.07,1.65s.06-.01.08-.01c.01,0,.03,0,.05,0,.02,0,.05.01.11.06.07.06.08.09.08.12,0,.02-.02.04-.04.06-.03.02-.06.07-.11.14-.13.17-.28.33-.46.47.27.16.58.27.92.32-.04.04-.07.1-.1.15-.03.08-.04.09-.12.07-.33-.08-.64-.21-.9-.4-.25.15-.55.27-.91.36-.09.02-.1.02-.14-.07-.02-.06-.06-.09-.09-.12.38-.07.69-.18.94-.31-.18-.16-.33-.36-.45-.6-.14,0-.19,0-.21,0-.03,0-.04,0-.04-.04v-.15s0-.04.04-.04c.03,0,.14.01.5.01h.86ZM100.03,1.1c0,.06,0,.09.04.11.03.02.08.03.17.03.12,0,.17-.02.21-.07.04-.05.04-.12.05-.3.05.04.09.07.15.09.07.03.07.03.06.12-.02.17-.06.24-.11.3-.06.05-.19.08-.37.08-.14,0-.26-.01-.32-.04-.08-.03-.12-.08-.12-.23v-.46h-.52c0,.36-.11.62-.42.79-.03.02-.06.03-.07.03-.02,0-.04-.02-.07-.06-.04-.04-.08-.08-.12-.11.33-.09.45-.31.45-.7,0-.08-.01-.11-.01-.13,0-.03,0-.04.04-.04.03,0,.08,0,.32,0h.29c.24,0,.31,0,.33,0,.03,0,.04,0,.04.04,0,.02,0,.1,0,.28v.28ZM99.16,1.87c.12.19.26.35.42.48.2-.14.35-.31.46-.48h-.88ZM99.84,3.35h-.65v.82h.65v-.82Z"/>
      <path class="cls-1" d="M102.54,1.45c0,.27,0,.37,0,.4,0,.03,0,.04-.04.04-.02,0-.11,0-.36,0h-.42c-.03.26-.06.48-.09.7h.53c.24,0,.3,0,.32,0,.03,0,.04.01.04.04,0,.08-.01.18-.02.27-.05.86-.15,1.22-.23,1.36-.07.15-.21.23-.42.23-.07,0-.17,0-.28-.01-.07,0-.07,0-.09-.1-.01-.07-.04-.15-.06-.2.15.02.26.04.39.04.08,0,.18-.03.22-.09.08-.1.15-.44.21-1.3h-.66l-.04.2q-.01.05-.15.03c-.13-.02-.13-.03-.12-.09.07-.32.13-.65.16-.96.02-.12.02-.22.02-.32,0-.03,0-.04.04-.04.03,0,.1,0,.3,0h.47v-.76h-.53c-.29,0-.36,0-.39,0-.03,0-.04,0-.04-.03v-.19s0-.04.04-.04c.02,0,.1,0,.39,0h.4c.25,0,.33,0,.36,0,.03,0,.04,0,.04.04,0,.02,0,.12,0,.39v.4ZM104.72,3.45s.05-.01.07,0c.21.22.42.53.57.81.01.03.01.04-.04.06l-.12.06c-.05.03-.06.03-.08,0-.06-.11-.13-.24-.2-.36-.57.11-1.3.23-1.9.3-.1.01-.17.04-.2.06-.02.01-.04.02-.07.02s-.04-.01-.05-.06c-.03-.09-.05-.18-.07-.29.15.01.28.01.51-.01.18-.01.41-.04.66-.08v-.71h-.32c-.42,0-.57,0-.6,0-.03,0-.04,0-.04-.04,0-.03.01-.11.01-.36v-.4c0-.25-.01-.33-.01-.36,0-.03,0-.04.04-.04.03,0,.18.01.6.01h.32v-.51c-.24.02-.49.04-.72.06-.12,0-.15.02-.19.04-.02,0-.03.02-.06.02-.02,0-.03-.01-.05-.06-.02-.07-.04-.18-.05-.27.13,0,.29.01.4,0,.17-.26.3-.55.35-.7.04-.12.08-.21.09-.31.1.02.18.04.26.07.04.01.06.04.06.06,0,.02-.02.05-.04.07-.03.02-.05.06-.08.12-.09.19-.23.46-.36.67.45-.02.92-.06,1.26-.1-.12-.13-.24-.27-.35-.38-.02-.02-.02-.03.03-.06l.1-.06s.05-.03.07,0c.25.24.55.58.74.85.02.03.02.04-.03.07l-.12.07s-.04.03-.06.03c-.01,0-.02,0-.03-.03-.05-.09-.11-.19-.18-.28-.22.03-.5.05-.8.08v.54h.38c.42,0,.57-.01.59-.01.03,0,.04,0,.04.04,0,.02-.01.1-.01.36v.4c0,.25.01.33.01.36,0,.03,0,.04-.04.04-.02,0-.17,0-.59,0h-.38v.67c.25-.04.49-.08.71-.12-.07-.1-.13-.19-.2-.26-.02-.02-.01-.03.04-.06l.1-.05ZM103.81,2.33h-.68v.7h.68v-.7ZM104.81,2.33h-.74v.7h.74v-.7Z"/>
      <path class="cls-1" d="M106.62,2.6c0-.19.01-.47.01-.7-.18.26-.39.5-.61.73-.03.03-.05.05-.07.05-.02,0-.04-.02-.05-.06-.03-.07-.07-.13-.12-.18.54-.5.94-1.07,1.19-1.69.05-.11.08-.22.08-.3.12.03.2.06.28.11.04.02.05.03.05.06s-.01.04-.04.06c-.03.02-.06.07-.11.18-.1.22-.21.44-.34.66v2.28c0,.48.01.69.01.72,0,.03,0,.04-.04.04h-.22s-.04,0-.04-.04c0-.02,0-.23,0-.72v-1.17ZM108.11,3.75c0,.22.04.31.18.35.11.03.29.03.58.03s.45-.03.56-.12c.09-.08.15-.27.18-.68.06.05.12.09.2.12.08.03.08.04.07.12-.04.39-.11.58-.26.69-.16.11-.42.15-.76.15-.37,0-.61,0-.76-.06-.16-.06-.27-.18-.27-.49V.99c0-.24,0-.38-.03-.52.12,0,.21.01.31.03.04,0,.06.02.06.04,0,.03-.01.05-.02.08-.02.05-.03.11-.03.35v1.35c.38-.24.75-.52,1.1-.88.07-.07.14-.16.18-.24.09.06.18.12.24.19.03.03.04.05.04.07,0,.03-.03.05-.07.06-.05.02-.13.09-.24.19-.33.32-.74.61-1.25.93v1.11Z"/>
      <path class="cls-1" d="M113.44,2.89c.31.27.67.44,1.24.56-.05.04-.09.1-.12.17-.04.08-.05.08-.13.05-.6-.18-.97-.42-1.3-.78h-1.24c-.29.3-.67.57-1.24.8-.08.03-.09.03-.14-.04-.04-.06-.07-.11-.12-.15.55-.17.92-.39,1.17-.61h-.44c-.43,0-.57,0-.6,0s-.03,0-.03-.04v-.17s0-.04.03-.04.17,0,.6,0h.4v-1.49h-.17c-.45,0-.61,0-.63,0-.03,0-.04,0-.04-.04v-.18s0-.04.04-.04c.02,0,.18,0,.63,0h.17v-.02c0-.27,0-.42-.03-.55.11,0,.2.01.3.03.03,0,.05.02.05.04,0,.03-.02.06-.03.08-.01.05-.02.15-.02.4v.02h1.43v-.02c0-.27,0-.42-.03-.55.11,0,.2.01.3.03.03,0,.05.02.05.04,0,.03-.01.06-.03.09-.01.04-.02.15-.02.39v.02h.23c.45,0,.6,0,.63,0,.03,0,.04,0,.04.04v.18s0,.04-.04.04c-.03,0-.18,0-.63,0h-.23v1.49h.44c.43,0,.57,0,.6,0,.03,0,.04,0,.04.04v.17s0,.04-.04.04c-.03,0-.17,0-.6,0h-.48ZM114.3,4.35s0,.04-.04.04c-.03,0-.18,0-.64,0h-2.22c-.46,0-.62,0-.64,0-.03,0-.04,0-.04-.04v-.19s0-.04.04-.04c.03,0,.18,0,.64,0h.97v-.42h-.37c-.43,0-.57,0-.6,0-.03,0-.04,0-.04-.04v-.18s0-.04.04-.04c.02,0,.16,0,.6,0h.37v-.04c0-.18,0-.29-.03-.4.11,0,.2.01.29.02.03,0,.05.02.05.04,0,.02-.01.04-.02.06-.01.04-.02.12-.02.26v.05h.38c.43,0,.57,0,.6,0,.03,0,.04,0,.04.04v.18s0,.04-.04.04c-.03,0-.17,0-.6,0h-.38v.42h.99c.46,0,.61,0,.64,0,.03,0,.04,0,.04.04v.19ZM113.21,1.17h-1.43v.34h1.43v-.34ZM113.21,1.73h-1.43v.35h1.43v-.35ZM113.21,2.29h-1.43v.37h1.43v-.37Z"/>
      <path class="cls-1" d="M119.19,2.07c-.03.05-.04.07-.06.07-.02,0-.04,0-.08-.02-.78-.31-1.46-.75-1.95-1.42-.52.69-1.14,1.12-1.89,1.46q-.08.03-.13-.04c-.04-.07-.09-.11-.15-.14.88-.37,1.52-.86,1.91-1.41.07-.11.1-.16.13-.26.11.01.21.03.3.06.04.01.07.03.07.06,0,.01,0,.03-.03.04-.02,0-.03.02-.04.03.57.74,1.25,1.12,2.06,1.39-.05.04-.1.11-.13.18M119.04,4.32s0,.04-.04.04c-.02,0-.18,0-.62,0h-2.51c-.45,0-.6,0-.62,0-.03,0-.04,0-.04-.04v-.2s0-.04.04-.04c.03,0,.18,0,.62,0h1.08v-1.21h-.92c-.46,0-.61,0-.64,0-.03,0-.04,0-.04-.04v-.19s0-.04.04-.04c.03,0,.18,0,.64,0h.92v-.58h-.28c-.42,0-.55,0-.58,0-.03,0-.04,0-.04-.03v-.19s0-.04.04-.04c.02,0,.16.01.58.01h.91c.42,0,.56-.01.58-.01.03,0,.04,0,.04.04v.19s0,.03-.04.03c-.03,0-.17,0-.58,0h-.34v.58h1c.46,0,.61,0,.64,0,.03,0,.04,0,.04.04v.19s0,.04-.04.04c-.02,0-.18,0-.64,0h-1v1.21h1.14c.45,0,.6,0,.62,0,.03,0,.04,0,.04.04v.2ZM116.03,3.11c.05-.02.06-.03.08,0,.14.21.24.4.34.64.01.03.01.05-.04.07l-.14.07c-.06.03-.07.04-.08,0-.1-.27-.19-.46-.33-.66-.02-.03-.01-.04.04-.06l.12-.06ZM118.37,3.27s-.04.05-.07.11c-.11.2-.21.4-.33.56-.03.03-.04.05-.06.05-.01,0-.03,0-.06-.03-.05-.03-.11-.07-.16-.07.15-.19.26-.4.37-.62.04-.08.06-.13.07-.2.1.03.18.07.24.1.04.02.05.04.05.06,0,.03-.02.04-.05.06"/>
      <path class="cls-1" d="M121.67.72c-.64.54-.84,1.07-.84,1.73s.2,1.19.84,1.73l-.09.11c-.72-.55-.99-1.11-.99-1.84s.28-1.3.99-1.84l.09.11Z"/>
      <path class="cls-1" d="M124.1,1.5c.11,0,.15-.01.19-.04.03-.02.06-.01.1.02.05.03.11.08.15.12.05.05.04.08,0,.11-.04.03-.07.07-.1.13-.23.49-.47.89-.73,1.18-.34.39-.74.73-1.18.98-.03.02-.06.01-.08-.01-.05-.05-.12-.08-.21-.11.56-.3.89-.59,1.25-1,.28-.33.49-.66.71-1.16l-1.09.03c-.28.35-.48.58-.75.81-.04.04-.08.04-.12,0-.04-.03-.11-.07-.19-.08.48-.38.76-.72.99-1.1.12-.2.17-.32.19-.47.11.03.23.09.28.13.04.03.04.07,0,.1-.04.03-.08.08-.11.13-.06.09-.1.16-.15.24l.85-.02Z"/>
      <path class="cls-1" d="M125.76,1.59c0-.24-.02-.41-.04-.55.1.01.23.04.31.06.05.01.05.06.03.09-.03.05-.04.16-.04.4v.64c0,.2,0,.34.01.5,0,.05-.02.06-.06.06h-.18s-.05-.01-.05-.06c0-.16,0-.33,0-.52v-.62ZM127.34,2.27c0,.59-.14.93-.33,1.18-.18.22-.49.44-.83.56-.04.02-.07.02-.11-.02-.05-.06-.11-.1-.19-.14.39-.11.7-.3.88-.52.18-.23.3-.54.3-1.03v-.65c0-.37-.01-.53-.04-.66.11.01.24.04.32.06.05.02.05.06.03.09-.03.05-.04.17-.04.49v.64Z"/>
      <path class="cls-1" d="M130.04,3.18h.66c.24,0,.45,0,.7-.02.04,0,.05,0,.05.05v.17s-.01.05-.05.05c-.21,0-.46-.01-.69-.01h-1.6c-.19,0-.45.01-.61.02-.04,0-.05,0-.06-.06,0-.05-.02-.15-.02-.22.25.02.46.02.69.02h.66v-1.42h-.37c-.23,0-.4,0-.58.02-.03,0-.04-.01-.04-.06,0-.05-.02-.15-.02-.22.21.02.37.02.62.02h.98c.24,0,.43,0,.66-.01.04,0,.04,0,.04.04v.18s0,.05-.04.05c-.24-.01-.43-.02-.65-.02h-.33v1.42Z"/>
      <path class="cls-1" d="M133.67,3.24c0,.23,0,.44.01.69,0,.03,0,.04-.04.04-.07,0-.15,0-.22,0-.03,0-.04-.01-.04-.04,0-.23.01-.45.01-.67v-1.12c-.4.35-.77.61-1.19.86-.03.02-.06.01-.09-.02-.05-.05-.12-.09-.19-.12.47-.26.86-.53,1.18-.8.29-.25.56-.52.73-.73.16-.19.23-.31.26-.43.1.05.21.11.26.17.04.04.03.08-.01.11-.05.02-.12.09-.21.2-.16.19-.3.34-.47.52v1.35Z"/>
      <path class="cls-1" d="M137.2,1.43c.13,0,.17-.02.2-.04.03-.03.07-.03.1,0,.05.03.12.1.16.15.03.04.02.07-.02.1-.03.03-.06.05-.09.11-.16.35-.38.71-.6,1,.15.12.31.26.45.42.02.02.01.04,0,.07-.03.05-.08.1-.12.13-.03.02-.04.02-.06,0-.13-.15-.28-.3-.42-.42-.39.44-.81.76-1.31,1.03-.04.02-.07.03-.1,0-.06-.05-.13-.09-.21-.12.58-.29,1.04-.62,1.42-1.06-.16-.13-.37-.26-.6-.39.04-.06.08-.11.13-.15.02-.02.03-.03.06-.01.17.09.38.23.56.36.21-.27.42-.62.55-.94l-1.12.02c-.26.36-.47.58-.82.88-.04.03-.06.04-.1.01-.05-.04-.11-.07-.18-.11.52-.4.85-.81,1.08-1.22.09-.16.12-.25.15-.37.09.03.19.08.27.13.04.03.03.08,0,.11-.04.03-.08.08-.11.13-.04.07-.08.13-.14.22l.86-.02Z"/>
      <path class="cls-1" d="M139.1,2.62c-.33,0-.49.04-.51.04-.03,0-.05-.02-.06-.05-.02-.06-.03-.19-.04-.29.23.03.52.03.84.03h1.16c.26,0,.54,0,.83-.01.04,0,.06,0,.06.05,0,.06,0,.14,0,.2,0,.04-.01.05-.06.04-.28,0-.57,0-.82,0h-1.4Z"/>
      <path class="cls-1" d="M143.56,1.23s0,.03-.03.03c-.02,0-.11,0-.4,0h-.12c.06.1.11.19.16.32,0,.03,0,.03-.04.05l-.13.04s-.04.01-.06-.02c-.05-.14-.09-.27-.16-.38h-.31c-.1.16-.22.3-.37.46-.03.02-.04.04-.06.04-.02,0-.03-.02-.05-.04-.03-.04-.07-.07-.11-.1.25-.23.42-.43.54-.73.02-.03.04-.09.05-.15.07.01.16.03.21.05.02,0,.04.02.04.04,0,.02-.01.04-.03.05-.02.01-.03.04-.06.09l-.05.11h.55c.29,0,.38,0,.4,0,.03,0,.03,0,.03.03v.14ZM145.25,2.6s0,.03-.03.03-.14,0-.5,0h-2.25c-.36,0-.47,0-.5,0-.03,0-.03,0-.03-.03v-.15s0-.03.03-.03c.02,0,.14,0,.5,0h.97v-.36h-.56c-.39,0-.52,0-.54,0-.03,0-.03,0-.03-.03v-.15s0-.03.03-.03c.02,0,.15,0,.54,0h.56c0-.11,0-.19-.02-.27.1,0,.17.02.24.03.02,0,.04.02.04.03,0,.02,0,.03-.02.06-.01.03-.02.07-.02.15h.64c.39,0,.52,0,.54,0s.03,0,.03.03v.15s0,.03-.03.03-.15,0-.54,0h-.64v.36h1.06c.36,0,.47,0,.5,0s.03,0,.03.03v.15ZM145.17,3.18s0,.03-.03.03c-.02,0-.14,0-.51,0h-.23v.13c0,.16,0,.31,0,.46,0,.12-.03.2-.1.26-.07.04-.17.07-.44.07q-.08,0-.09-.08c-.02-.05-.05-.11-.08-.16.12.01.22.02.36.02.09,0,.14-.04.14-.16v-.54h-1.59c-.37,0-.49,0-.51,0-.03,0-.03,0-.03-.03v-.15s0-.03.03-.03c.02,0,.14,0,.51,0h1.59c0-.15-.01-.24-.03-.33.09,0,.18.01.24.02.03,0,.04.02.04.03,0,.03-.01.04-.02.07-.02.03-.01.09-.01.21h.23c.37,0,.49,0,.51,0,.03,0,.03,0,.03.03v.15ZM142.79,3.31s.04-.02.06,0c.16.12.29.26.42.43.02.02.02.03-.02.06l-.12.08s-.05.03-.07,0c-.12-.17-.25-.33-.4-.45-.02-.02-.02-.03.01-.05l.1-.07ZM145.24,1.23s0,.03-.03.03c-.02,0-.12,0-.45,0h-.28c.07.1.12.2.17.32,0,.02,0,.03-.04.05l-.12.04s-.05.01-.06-.02c-.04-.13-.11-.27-.18-.39h-.34c-.06.1-.12.19-.2.28-.03.03-.04.05-.06.05-.01,0-.03-.01-.06-.03-.04-.03-.08-.05-.12-.07.18-.18.29-.36.37-.59.02-.04.03-.08.04-.16.08.01.17.03.22.04.03,0,.04.02.04.04,0,.02-.01.03-.03.05-.02.02-.03.04-.05.09l-.05.12h.76c.33,0,.43,0,.45,0,.03,0,.03,0,.03.03v.14Z"/>
      <path class="cls-1" d="M149.04,1.33s0,.03-.03.03c-.02,0-.14,0-.49,0h-1.41c-.11.18-.21.34-.32.48.47-.02.97-.05,1.38-.09-.09-.07-.18-.13-.27-.2-.03-.02-.03-.03,0-.05l.08-.07s.04-.02.06,0c.26.15.56.4.77.61.02.02.03.03-.02.07l-.09.08s-.04.03-.06,0c-.08-.1-.17-.19-.26-.27-.65.07-1.49.12-2.19.15-.1,0-.14,0-.16.02-.01,0-.03.02-.04.02s-.03-.02-.04-.04c-.02-.05-.03-.16-.05-.23.12,0,.25.01.38,0,.08,0,.17,0,.26,0,.13-.18.23-.34.31-.49h-.59c-.36,0-.47,0-.49,0-.03,0-.03,0-.03-.03v-.16s0-.03.03-.03c.02,0,.14,0,.49,0h.98v-.05c0-.19,0-.3-.03-.39.09,0,.18.01.25.02.03,0,.05.02.05.03,0,.02-.01.04-.02.07-.01.03-.02.09-.02.27v.05h1.06c.35,0,.47,0,.49,0,.03,0,.03,0,.03.03v.16ZM148.45,3.25c0,.18,0,.44,0,.51,0,.11-.02.21-.09.27-.06.05-.16.08-.48.07-.08,0-.08,0-.09-.06-.02-.06-.04-.11-.07-.17.14.01.24.02.36.02.11,0,.15-.04.15-.15v-.3h-1.7v.22c0,.29,0,.42,0,.44,0,.03,0,.03-.03.03h-.17s-.03,0-.03-.03c0-.02,0-.13,0-.43v-.92c0-.3,0-.42,0-.44,0-.03,0-.03.03-.03.02,0,.15,0,.52,0h1.04c.37,0,.5,0,.52,0,.03,0,.03,0,.03.03,0,.02,0,.15,0,.45v.47ZM148.23,2.49h-1.7v.29h1.7v-.29ZM148.23,2.96h-1.7v.3h1.7v-.3Z"/>
      <path class="cls-1" d="M151.61,1.62c.03.52.11.94.24,1.3.12-.19.22-.38.29-.56.05-.12.09-.23.1-.34.08.02.16.05.21.08.03.02.05.03.05.05,0,.03-.03.05-.05.07-.03.03-.05.09-.09.18-.11.27-.25.52-.42.76.18.41.42.66.56.66.1,0,.17-.14.18-.54.03.04.09.07.13.1.07.04.07.04.06.11-.04.41-.16.59-.37.59-.24,0-.5-.27-.72-.72-.22.27-.49.51-.81.7-.03.02-.04.02-.06.02-.02,0-.03-.02-.06-.05-.03-.04-.08-.07-.11-.1.38-.2.69-.48.94-.8-.17-.41-.27-.88-.31-1.52h-1.32v.62h.58c.24,0,.31,0,.33,0,.03,0,.03,0,.03.03,0,.13-.02.26-.02.39-.01.25-.02.42-.06.61-.05.22-.17.32-.38.32-.08,0-.14,0-.24-.01-.06,0-.06-.01-.08-.09-.01-.06-.03-.12-.06-.16.14.02.24.03.35.03.1,0,.17-.03.2-.19.03-.14.04-.39.06-.73h-.71c0,.28-.02.49-.05.71-.05.29-.12.61-.32.94-.02.03-.03.05-.04.05-.01,0-.03-.02-.05-.04-.04-.05-.09-.08-.14-.11.2-.29.28-.62.33-.93.03-.25.05-.49.05-.88,0-.52,0-.73,0-.75,0-.03,0-.04.03-.04.02,0,.15,0,.53,0h.98c0-.06,0-.12,0-.18,0-.24,0-.31-.03-.46.09,0,.17.01.25.02.03,0,.05.02.05.04,0,.03,0,.05-.02.06-.01.04-.03.12-.02.33,0,.07,0,.13,0,.19h.64c.38,0,.5,0,.53,0,.03,0,.03,0,.03.04v.16s0,.03-.03.03c-.02,0-.15,0-.53,0h-.62ZM152.06.83s.04-.03.06-.01c.12.08.26.19.37.33.02.02.02.03-.02.06l-.08.06s-.05.04-.07.01c-.11-.15-.24-.25-.35-.33-.03-.02-.03-.03,0-.06l.08-.06Z"/>
      <path class="cls-1" d="M155.25,2.45c0,.17-.14.31-.31.31s-.32-.14-.32-.31.14-.31.32-.31.31.14.31.31"/>
      <path class="cls-1" d="M159.64,1.66c-.17.61-.41,1.07-.75,1.42.37.31.86.59,1.51.8-.04.05-.08.11-.11.17-.02.05-.03.06-.05.06-.01,0-.03,0-.06-.02-.63-.24-1.11-.53-1.47-.85-.37.33-.84.6-1.46.83-.03,0-.05.02-.06.02-.02,0-.03-.02-.05-.06-.03-.06-.07-.12-.12-.15.69-.23,1.15-.49,1.51-.81-.36-.38-.59-.82-.77-1.42h-.13c-.36,0-.48,0-.5,0-.03,0-.03,0-.03-.03v-.17s0-.03.03-.03c.02,0,.14,0,.5,0h.94v-.26c0-.19,0-.31-.03-.42.1,0,.18,0,.27.02.03,0,.04.02.04.03,0,.03-.01.05-.02.07-.02.04-.02.09-.02.29v.26h1c.36,0,.48,0,.5,0,.03,0,.03,0,.03.03v.17s0,.03-.03.03c-.02,0-.14,0-.5,0h-.17ZM158,1.66c.16.53.36.92.71,1.26.33-.33.53-.73.67-1.26h-1.38Z"/>
      <path class="cls-1" d="M161.45,2.57c0-.15,0-.38.01-.57-.15.21-.32.41-.5.59-.02.02-.04.04-.05.04-.02,0-.03-.02-.04-.05-.03-.06-.06-.11-.1-.14.45-.41.77-.87.98-1.39.04-.09.06-.18.07-.25.1.03.16.05.23.09.03.02.04.03.04.04s-.01.04-.03.05c-.03.02-.05.06-.09.14-.08.18-.17.36-.28.54v1.87c0,.4,0,.57,0,.59,0,.03,0,.03-.03.03h-.18s-.03,0-.03-.03c0-.02,0-.19,0-.59v-.96ZM162.67,3.52c0,.18.03.25.15.28.1.03.24.03.47.03s.37-.02.46-.1c.08-.06.12-.22.14-.56.04.04.1.07.17.1.07.03.06.03.06.1-.03.32-.09.48-.22.56-.13.09-.34.12-.62.12-.3,0-.49,0-.62-.05-.13-.05-.22-.15-.22-.4V1.26c0-.19,0-.31-.02-.42.1,0,.17.01.25.02.03,0,.05.02.05.03,0,.03,0,.04-.02.07-.02.04-.02.09-.02.29v1.1c.31-.19.61-.43.9-.72.05-.06.11-.13.15-.2.07.05.14.1.2.15.03.02.03.04.03.06,0,.02-.03.04-.06.05-.05.02-.11.07-.2.16-.27.26-.6.5-1.02.76v.91Z"/>
      <path class="cls-1" d="M166.02,1.58s0,.03-.03.03c-.02,0-.12,0-.42,0h-.33c0,.19,0,.36-.02.52h.38c.17,0,.21,0,.24,0,.03,0,.03,0,.03.03,0,.12,0,.25-.02.45,0,.52-.03.85-.08,1.09-.05.25-.14.36-.36.36-.07,0-.12,0-.19,0-.05,0-.06,0-.06-.08,0-.06-.03-.12-.05-.17.1.02.19.03.28.03.14,0,.16-.09.19-.3.03-.22.06-.55.07-1.22h-.43c-.04.78-.15,1.24-.46,1.71-.02.03-.03.04-.04.04-.01,0-.03-.01-.04-.03-.04-.05-.09-.09-.14-.12.42-.53.48-1.15.5-2.32-.3,0-.39,0-.41,0s-.03,0-.03-.03v-.16s0-.03.03-.03.12,0,.42,0h.25v-.25c0-.19,0-.29-.03-.39.09,0,.16,0,.25.02.03,0,.05.02.05.03,0,.03-.01.04-.02.07-.02.04-.02.1-.02.27v.25h.06c.3,0,.39,0,.42,0,.03,0,.03,0,.03.03v.16ZM167.94,1.52s0,.03-.03.03c-.02,0-.12,0-.45,0h-1.08c-.09.16-.2.32-.33.48-.02.03-.04.04-.05.04-.02,0-.03-.01-.05-.04-.03-.04-.07-.06-.11-.08.32-.33.47-.62.56-.94.03-.11.05-.18.05-.25.08.02.14.03.22.05.03,0,.04.03.04.04s-.01.03-.02.05c-.03.03-.05.07-.07.16-.03.09-.07.2-.12.3h.97c.33,0,.43,0,.45,0,.03,0,.03,0,.03.03v.16ZM166.48,3.5c0,.2,0,.27.06.3.06.04.15.05.46.05.43,0,.56-.02.63-.08.09-.07.11-.18.12-.48.04.03.09.06.15.08.06.02.06.03.06.1-.02.35-.09.41-.19.49-.11.09-.36.11-.78.11-.39,0-.5-.02-.61-.09-.06-.05-.11-.11-.11-.31v-.97c-.17.05-.23.08-.24.08-.03,0-.04,0-.04-.03l-.04-.14s0-.03.02-.03c.02,0,.1-.02.3-.08v-.19c0-.17,0-.33-.02-.43.09,0,.15,0,.22.02.03,0,.04.02.04.03,0,.03,0,.04-.02.07-.01.03-.02.1-.02.28v.17l.39-.11v-.17c0-.21,0-.31-.03-.46.11,0,.16,0,.23.02.03,0,.04.02.04.04,0,.02,0,.03-.02.06-.01.04-.02.11-.02.29v.16l.27-.08c.31-.09.41-.14.44-.14.01,0,.03,0,.03.03v.17c-.02.36-.05.68-.1.86-.03.12-.13.17-.23.18-.06,0-.12,0-.2,0-.04,0-.04,0-.05-.07,0-.06-.02-.1-.05-.15.09.02.16.03.24.03.06,0,.1-.02.12-.09.03-.14.06-.38.06-.69l-.52.16v.51c0,.3,0,.41,0,.43,0,.02,0,.03-.03.03h-.16s-.03,0-.03-.03c0-.02,0-.14,0-.43v-.45l-.39.11v.87Z"/>
      <path class="cls-1" d="M169.7,1.63s0,.03-.03.03c-.02,0-.11,0-.39,0h-.47c-.28,0-.37,0-.39,0-.02,0-.03,0-.03-.03v-.16s0-.03.03-.03c.02,0,.11,0,.39,0h.47c.29,0,.37,0,.39,0,.03,0,.03,0,.03.03v.16ZM169.55,3.53c0,.44,0,.51,0,.53,0,.03,0,.03-.03.03h-.15s-.03,0-.03-.03v-.15h-.58v.22s0,.03-.03.03h-.15s-.03,0-.03-.03c0-.02,0-.09,0-.56v-.23c0-.23,0-.31,0-.34,0-.03,0-.03.03-.03.02,0,.09,0,.32,0h.29c.23,0,.3,0,.33,0,.03,0,.03,0,.03.03,0,.02,0,.1,0,.27v.25ZM169.58,1.11s0,.03-.03.03c-.02,0-.09,0-.33,0h-.3c-.24,0-.31,0-.33,0-.03,0-.03,0-.03-.03v-.15s0-.03.03-.03c.02,0,.09,0,.33,0h.3c.24,0,.31,0,.33,0,.03,0,.03,0,.03.03v.15ZM169.53,2.13s0,.03-.03.03c-.02,0-.08,0-.31,0h-.27c-.22,0-.29,0-.31,0-.03,0-.03,0-.03-.03v-.15s0-.03.03-.03c.02,0,.08,0,.31,0h.27c.22,0,.29,0,.31,0,.03,0,.03,0,.03.03v.15ZM169.53,2.64s0,.03-.03.03c-.02,0-.08,0-.31,0h-.27c-.22,0-.29,0-.31,0-.03,0-.03,0-.03-.03v-.15s0-.03.03-.03c.02,0,.08,0,.31,0h.27c.22,0,.29,0,.31,0,.03,0,.03,0,.03.03v.15ZM169.35,3.17h-.58v.55h.58v-.55ZM171.2,2.38s.06,0,.08-.02c.01,0,.03-.01.05-.01s.05.02.09.07c.05.05.07.09.07.11,0,.02-.02.03-.04.05-.02.02-.04.04-.08.12-.12.25-.28.51-.5.74.25.21.56.36.91.48-.04.04-.08.09-.11.14-.02.05-.03.06-.05.06-.01,0-.03,0-.05-.02-.31-.14-.6-.3-.85-.51-.24.21-.53.41-.88.54q-.07.03-.11-.04s-.07-.09-.12-.12c.38-.12.7-.31.95-.53-.21-.22-.38-.5-.51-.85-.14,0-.2,0-.21,0-.03,0-.03,0-.03-.03v-.16s0-.03.03-.03c.02,0,.12,0,.46,0h.9ZM171.12,1.65c0,.09,0,.14.04.17.02.02.06.03.17.03.1,0,.15-.03.18-.07.03-.05.05-.15.05-.34.03.03.08.06.13.08.06.02.06.03.06.09-.01.19-.04.3-.12.37-.06.06-.17.08-.34.08-.15,0-.23-.02-.28-.04-.08-.04-.11-.12-.11-.27v-.62h-.54c0,.56-.13.85-.42,1.07-.03.03-.05.04-.06.04-.02,0-.03-.01-.06-.04-.03-.04-.08-.07-.13-.09.25-.16.45-.38.45-.91,0-.17,0-.23,0-.25,0-.03,0-.03.03-.03.02,0,.08,0,.31,0h.3c.23,0,.29,0,.31,0,.03,0,.03,0,.03.03,0,.02,0,.11,0,.32v.39ZM170.27,2.58c.11.29.27.53.45.71.21-.22.37-.46.47-.71h-.92Z"/>
      <path class="cls-1" d="M175.46,1.28s0,.03-.03.03c-.02,0-.14,0-.5,0h-2.19c-.36,0-.48,0-.5,0-.03,0-.03,0-.03-.03v-.16s0-.03.03-.03c.02,0,.14,0,.5,0h.95v-.04c0-.13,0-.23-.03-.33.09,0,.18.01.25.02.03,0,.05.02.05.03,0,.03-.01.05-.03.07-.01.03-.02.09-.02.2v.04h1.01c.36,0,.48,0,.5,0,.03,0,.03,0,.03.03v.16ZM174.73,2.55c.38,0,.51,0,.53,0,.03,0,.03,0,.03.03,0,.02,0,.14,0,.42v.32c0,.18,0,.34,0,.49,0,.09-.01.17-.08.23-.06.06-.15.07-.42.07-.07,0-.08,0-.09-.08-.02-.06-.04-.11-.07-.16.11.01.22.02.31.02.07,0,.12-.03.12-.14v-1h-2.46v.9c0,.31,0,.44,0,.46,0,.03,0,.03-.03.03h-.18s-.03,0-.03-.03c0-.02,0-.13,0-.45v-.68c0-.28,0-.38,0-.41,0-.03,0-.03.03-.03.02,0,.15,0,.53,0h1.8ZM174.73,2.03c0,.17,0,.22,0,.25s0,.03-.03.03c-.02,0-.14,0-.48,0h-.78c-.34,0-.47,0-.49,0-.03,0-.03,0-.03-.03s0-.07,0-.25v-.21c0-.17,0-.22,0-.25,0-.03,0-.03.03-.03.02,0,.14,0,.49,0h.78c.35,0,.47,0,.48,0,.03,0,.03,0,.03.03,0,.02,0,.07,0,.25v.21ZM174.49,3.4c0,.34,0,.4,0,.41,0,.03,0,.03-.03.03h-.16s-.03,0-.03-.03v-.11h-.91v.14s0,.03-.03.03h-.16s-.03,0-.03-.03c0-.02,0-.08,0-.43v-.16c0-.14,0-.2,0-.22,0-.03,0-.03.03-.03.02,0,.11,0,.4,0h.49c.29,0,.38,0,.4,0,.03,0,.03,0,.03.03,0,.02,0,.08,0,.19v.18ZM174.51,1.73h-1.35v.38h1.35v-.38ZM174.27,3.18h-.91v.35h.91v-.35Z"/>
      <path class="cls-1" d="M176.48,2.57c0-.14,0-.3,0-.49-.11.19-.24.37-.39.54-.02.02-.03.03-.05.03-.02,0-.02-.01-.04-.04-.03-.07-.07-.11-.11-.15.39-.42.66-.95.84-1.45.03-.1.06-.18.06-.26.1.03.17.05.24.09.03.01.04.02.04.04,0,.02-.01.03-.03.05-.03.02-.05.06-.08.14-.08.19-.16.39-.26.58v1.86c0,.4,0,.57,0,.59,0,.03,0,.03-.03.03h-.19s-.03,0-.03-.03c0-.02,0-.19,0-.59v-.96ZM179.27,1.87s0,.03-.03.03c-.02,0-.15,0-.52,0h0v1.28c0,.21,0,.41,0,.59,0,.14-.02.21-.1.27-.07.05-.22.07-.54.07q-.08,0-.09-.07c-.02-.07-.04-.13-.08-.18.14.01.31.02.43.02s.15-.03.15-.15v-1.82h-.87c-.37,0-.5,0-.52,0-.03,0-.03,0-.03-.03v-.17s0-.03.03-.03c.02,0,.15,0,.52,0h.87v-.44c0-.23,0-.34-.02-.46.09,0,.17.01.25.02.03,0,.05.02.05.03,0,.03-.02.05-.03.07-.01.04-.02.11-.02.33v.45h0c.37,0,.5,0,.52,0,.03,0,.03,0,.03.03v.17ZM177.42,2.33s.03-.02.05,0c.2.22.34.42.48.69.01.02,0,.03-.03.06l-.11.07s-.06.03-.07,0c-.13-.28-.26-.48-.45-.69-.02-.02-.02-.03.03-.06l.11-.06Z"/>
      <path class="cls-1" d="M180.87,1.55c.33,0,.44,0,.46,0,.03,0,.03,0,.03.03,0,.11,0,.22,0,.33,0,.61-.04,1.23-.11,1.68-.04.28-.17.4-.41.4-.1,0-.17,0-.25-.01q-.07,0-.07-.09c0-.06-.02-.12-.05-.17.12.02.24.03.36.03s.18-.06.21-.27c.06-.39.1-1.03.1-1.73h-.54c-.02.37-.07.74-.14,1.05-.11.45-.25.8-.57,1.18-.02.03-.03.04-.05.04-.01,0-.02-.01-.04-.04-.05-.06-.1-.11-.15-.14.34-.35.48-.66.6-1.13.07-.3.11-.62.13-.96h-.13c-.33,0-.43,0-.45,0-.03,0-.03,0-.03-.03v-.16s0-.03.03-.03c.02,0,.12,0,.45,0h.14c0-.11,0-.23,0-.35,0-.23,0-.33-.03-.47.09,0,.18.01.26.02.03,0,.04.02.04.04,0,.02-.01.05-.02.08-.01.04-.02.15-.02.35,0,.11,0,.22,0,.32h.28ZM182.94,2.81c0,.95,0,1.12,0,1.14,0,.03,0,.03-.03.03h-.18s-.03,0-.03-.03v-.28h-.78v.31s0,.03-.03.03h-.17s-.03,0-.03-.03c0-.02,0-.19,0-1.15v-.67c0-.68,0-.85,0-.87,0-.03,0-.03.03-.03.02,0,.11,0,.38,0h.42c.27,0,.36,0,.38,0,.03,0,.03,0,.03.03,0,.02,0,.19,0,.78v.75ZM182.71,1.47h-.78v2h.78v-2Z"/>
      <path class="cls-1" d="M183.83,2.62c0-.15,0-.37,0-.56-.09.15-.19.29-.31.43-.02.03-.03.04-.04.04-.02,0-.02-.01-.03-.04-.02-.06-.05-.12-.09-.15.35-.42.57-.85.73-1.35.03-.09.04-.18.05-.25.08.02.16.04.23.08.02.01.04.02.04.05s-.01.04-.03.06c-.02.02-.04.05-.07.14-.08.21-.16.42-.25.62v1.87c0,.4,0,.57,0,.59,0,.02,0,.03-.03.03h-.18s-.03,0-.03-.03c0-.02,0-.19,0-.59v-.93ZM186.88,1.26s0,.03-.03.03c-.02,0-.14,0-.53,0h-.29v.7h.14c.38,0,.51,0,.53,0,.03,0,.03,0,.03.03,0,.02,0,.15,0,.59v.69c0,.62,0,.74,0,.76,0,.03,0,.03-.03.03h-.17s-.03,0-.03-.03v-.19h-1.8v.2s0,.03-.03.03h-.17s-.03,0-.03-.03c0-.02,0-.15,0-.77v-.63c0-.51,0-.64,0-.66,0-.03,0-.03.03-.03.02,0,.15,0,.53,0h.12v-.7h-.17c-.39,0-.51,0-.53,0-.03,0-.03,0-.03-.03v-.16s0-.03.03-.03c.02,0,.14,0,.53,0h1.34c.39,0,.51,0,.53,0,.03,0,.03,0,.03.03v.16ZM185.15,2.18h-.45v1.48h.45v-1.48ZM185.82,1.28h-.45v.7h.45v-.7ZM185.82,2.18h-.45v1.48h.45v-1.48ZM186.5,2.18h-.47v1.48h.47v-1.48Z"/>
      <path class="cls-1" d="M187.65,2.57c0-.14,0-.36,0-.55-.1.16-.21.31-.34.46-.02.03-.04.04-.05.04-.02,0-.02-.01-.03-.04-.03-.06-.06-.11-.1-.15.36-.42.59-.83.77-1.33.03-.09.05-.18.06-.25.08.02.16.04.23.07.03.01.04.02.04.04,0,.02-.01.03-.03.05-.02.02-.05.06-.08.14-.08.2-.16.4-.26.59v1.89c0,.4,0,.58,0,.59,0,.03,0,.03-.03.03h-.18s-.03,0-.03-.03c0-.02,0-.19,0-.59v-.96ZM190.64,3.91s0,.03-.03.03c-.02,0-.14,0-.52,0h-1.6v.18s0,.03-.03.03h-.17s-.03,0-.03-.03c0-.02,0-.13,0-.41v-1.42c0-.25,0-.36-.03-.49.09,0,.17.01.24.02.03,0,.04.02.04.04s-.01.04-.02.07c-.01.04-.02.12-.02.35v1.45h1.6c.38,0,.5,0,.52,0,.03,0,.03,0,.03.03v.16ZM190.62,1.37s0,.03-.03.03c-.02,0-.14,0-.53,0h-.51c-.03.13-.05.26-.08.37h.37c.3,0,.4,0,.42,0,.03,0,.03,0,.03.03,0,.02,0,.12,0,.42v.81c0,.29,0,.39,0,.42,0,.03,0,.03-.03.03-.02,0-.12,0-.42,0h-.52c-.3,0-.41,0-.42,0-.03,0-.03,0-.03-.03,0-.02,0-.12,0-.42v-.81c0-.29,0-.39,0-.42,0-.03,0-.03.03-.03.01,0,.1,0,.35,0,.03-.12.06-.24.08-.37h-.46c-.38,0-.51,0-.53,0s-.03,0-.03-.03v-.16s0-.03.03-.03.15,0,.53,0h.49l.03-.2c.01-.08.02-.14,0-.23.08,0,.16.02.23.03.03,0,.05.02.05.04,0,.02,0,.03-.02.05-.02.03-.03.06-.04.1-.01.06-.02.14-.03.21h.48c.38,0,.51,0,.53,0,.03,0,.03,0,.03.03v.16ZM190.08,1.93h-.99v.32h.99v-.32ZM190.08,2.43h-.99v.33h.99v-.33ZM190.08,2.93h-.99v.34h.99v-.34Z"/>
      <path class="cls-1" d="M191.68,2.57c0-.15,0-.38.01-.57-.15.21-.32.41-.5.59-.02.02-.04.04-.05.04-.02,0-.03-.02-.04-.05-.03-.06-.06-.11-.1-.14.45-.41.77-.87.98-1.39.04-.09.06-.18.07-.25.1.03.16.05.23.09.03.02.04.03.04.04s-.01.04-.03.05c-.03.02-.05.06-.09.14-.08.18-.17.36-.28.54v1.87c0,.4,0,.57,0,.59,0,.03,0,.03-.03.03h-.18s-.03,0-.03-.03c0-.02,0-.19,0-.59v-.96ZM192.9,3.52c0,.18.03.25.15.28.1.03.24.03.47.03s.37-.02.46-.1c.08-.06.12-.22.14-.56.04.04.1.07.17.1.07.03.06.03.06.1-.03.32-.09.48-.22.56-.13.09-.34.12-.62.12-.3,0-.49,0-.62-.05-.13-.05-.22-.15-.22-.4V1.26c0-.19,0-.31-.02-.42.1,0,.17.01.25.02.03,0,.05.02.05.03,0,.03,0,.04-.02.07-.02.04-.02.09-.02.29v1.1c.31-.19.61-.43.9-.72.05-.06.11-.13.15-.2.07.05.14.1.2.15.03.02.03.04.03.06,0,.02-.03.04-.06.05-.05.02-.11.07-.2.16-.27.26-.6.5-1.02.76v.91Z"/>
      <path class="cls-1" d="M197.22,2.2s.08,0,.1-.02c0,0,.03,0,.04,0,.03,0,.05.02.1.07.05.05.07.08.07.11,0,.02-.02.03-.04.05-.03.02-.04.03-.08.09-.2.34-.45.61-.73.84.41.28.91.45,1.51.57-.05.04-.08.1-.11.17-.03.07-.04.07-.11.05-.6-.16-1.09-.35-1.48-.64-.4.28-.87.48-1.44.64-.07.02-.07.02-.1-.05-.03-.05-.07-.11-.1-.14.59-.14,1.07-.33,1.46-.59-.28-.24-.49-.55-.67-.93-.3,0-.42,0-.43,0-.03,0-.03,0-.03-.03v-.17s0-.03.03-.03c.02,0,.15,0,.53,0h.63v-.6h-.93c-.36,0-.48,0-.5,0-.03,0-.03,0-.03-.03v-.17s0-.03.03-.03c.02,0,.14,0,.5,0h.93v-.16c0-.24,0-.33-.03-.46.09,0,.19.01.27.02.03,0,.05.02.05.04,0,.02-.02.05-.02.08-.01.04-.03.1-.03.31v.18h.99c.36,0,.48,0,.5,0,.03,0,.03,0,.03.03v.17s0,.03-.03.03c-.02,0-.14,0-.5,0h-.99v.6h.63ZM195.88,2.41c.16.33.36.59.6.79.28-.22.5-.48.69-.79h-1.29Z"/>
      <path class="cls-1" d="M199.63,1.71s0,.03-.03.03c-.02,0-.09,0-.32,0h-.02v.77c.1-.04.21-.09.34-.15,0,.05-.01.1-.01.15,0,.07,0,.08-.06.1-.09.05-.18.08-.27.12v.44c0,.25,0,.42,0,.57,0,.18-.03.24-.1.3-.07.05-.17.07-.39.07-.07,0-.08,0-.1-.08-.01-.06-.04-.12-.07-.16.08.01.21.01.3.01s.13-.04.13-.16v-.9c-.07.03-.13.05-.19.07-.08.03-.12.06-.14.08-.01.01-.03.02-.05.02-.02,0-.03-.01-.04-.04-.02-.06-.05-.14-.06-.22.1-.02.2-.05.34-.09.04-.02.09-.03.15-.05v-.86h-.11c-.24,0-.31,0-.33,0-.03,0-.03,0-.03-.03v-.16s0-.03.03-.03c.02,0,.09,0,.33,0h.11v-.31c0-.23,0-.34-.03-.46.09,0,.17,0,.24.02.03,0,.05.02.05.03,0,.03-.01.05-.02.08-.02.04-.02.11-.02.33v.31h.02c.23,0,.3,0,.32,0,.03,0,.03,0,.03.03v.16ZM201.33,2.83s.06,0,.08-.02c.02,0,.02,0,.04,0,.03,0,.05.02.1.07.04.04.06.08.06.1s-.01.03-.03.04c-.03.01-.05.04-.1.12-.12.18-.25.34-.41.48.27.16.57.27.92.36-.03.03-.07.08-.09.14-.02.05-.03.06-.05.06-.01,0-.03,0-.05-.01-.32-.09-.62-.22-.89-.41-.23.17-.51.31-.85.42-.03,0-.04.01-.06.01-.02,0-.03-.02-.06-.05-.02-.04-.06-.09-.09-.11.34-.09.64-.22.89-.39-.16-.14-.3-.3-.43-.51-.16.36-.4.68-.73.96-.03.02-.04.03-.05.03-.02,0-.03-.01-.05-.04-.04-.05-.08-.08-.11-.11.5-.38.79-.86.92-1.42h0c-.37,0-.5,0-.52,0-.02,0-.03,0-.03-.03v-.15s0-.03.03-.03c.02,0,.15,0,.52,0h.04c.02-.1.03-.2.03-.31h-.03c-.37,0-.49,0-.51,0-.03,0-.03,0-.03-.03v-.14s0-.03.03-.03c.02,0,.14,0,.51,0h.82c.11-.18.17-.32.23-.48.03-.07.04-.13.05-.19.08.02.15.04.22.06.02,0,.03.02.03.04s-.01.03-.03.05c-.02.02-.03.04-.05.07-.07.15-.14.29-.23.45.35,0,.47,0,.5,0,.03,0,.03,0,.03.03v.14s0,.03-.03.03c-.02,0-.14,0-.51,0h-.78c-.01.11-.02.21-.04.31h.86c.37,0,.5,0,.52,0,.03,0,.03,0,.03.03v.15s0,.03-.03.03c-.02,0-.15,0-.52,0h-.9c-.02.1-.05.2-.08.3h.93ZM201.7.96s-.08.01-.14.02c-.56.11-1.1.16-1.66.19-.08,0-.08,0-.11-.07-.02-.05-.05-.09-.08-.13.63,0,1.2-.07,1.66-.17.07-.02.15-.04.19-.06.06.04.13.09.17.13.02.02.03.03.03.05,0,.02-.03.03-.06.03M200.08,1.28s.05-.02.06,0c.08.12.15.25.2.37.01.03,0,.03-.03.05l-.1.04s-.05.02-.07-.01c-.05-.14-.1-.26-.18-.37-.02-.03-.02-.03.03-.05l.09-.03ZM200.43,3c.14.2.29.36.46.49.17-.14.31-.31.41-.49h-.87ZM200.7,1.24s.05-.02.07,0c.08.13.14.26.18.39,0,.03,0,.04-.03.05l-.09.03c-.05.02-.06.02-.07-.01-.04-.14-.1-.26-.16-.39-.01-.02,0-.03.04-.05l.08-.03Z"/>
      <path class="cls-1" d="M205.73,3.02s0,.03-.03.03c-.02,0-.12,0-.37,0v.24c0,.24,0,.32,0,.34,0,.03,0,.03-.03.03h-.17s-.03,0-.03-.03v-.12h-.95c0,.11,0,.2,0,.28,0,.17-.03.23-.11.29-.08.05-.22.07-.51.07-.07,0-.07,0-.09-.07-.02-.06-.05-.11-.09-.17.13.02.21.02.33.02.2,0,.24-.03.24-.18v-.22h-.65c-.39,0-.51,0-.53,0-.03,0-.03,0-.03-.03v-.13s0-.03.03-.03c.02,0,.15,0,.53,0h.65v-.29h-1.04c-.35,0-.47,0-.49,0-.03,0-.03,0-.03-.03v-.13s0-.03.03-.03c.02,0,.14,0,.49,0h1.04v-.27h-.65c-.38,0-.51,0-.53,0-.03,0-.03,0-.03-.03v-.14s0-.03.03-.03c.02,0,.15,0,.53,0h.65v-.26h-.5c-.38,0-.52,0-.53,0-.03,0-.03,0-.03-.03,0-.02,0-.06,0-.21v-.16c0-.14,0-.19,0-.21,0-.03,0-.03.03-.03.02,0,.16,0,.53,0h.5v-.23h-1.01c-.35,0-.48,0-.5,0-.03,0-.03,0-.03-.03v-.14s0-.03.03-.03c.02,0,.14,0,.5,0h1.01c0-.2,0-.3-.03-.39.09,0,.17,0,.25.02.03,0,.05.02.05.03,0,.03-.01.05-.02.07-.02.04-.02.1-.02.26h0s1.01,0,1.01,0c.36,0,.47,0,.49,0,.03,0,.03,0,.03.03v.14s0,.03-.03.03c-.02,0-.14,0-.49,0h-1.01v.23h.51c.38,0,.52,0,.54,0,.03,0,.03,0,.03.03,0,.02,0,.06,0,.21v.16c0,.15,0,.19,0,.21,0,.03,0,.03-.03.03-.02,0-.15,0-.54,0h-.51v.26h.61c.39,0,.52,0,.54,0,.03,0,.03,0,.03.03,0,.02,0,.1,0,.34v.08c.25,0,.35,0,.37,0,.02,0,.03,0,.03.03v.13ZM203.94,1.71h-.85v.29h.85v-.29ZM205.03,1.71h-.87v.29h.87v-.29ZM205.11,2.6h-.95v.27h.95v-.27ZM205.11,3.04h-.95v.29h.95v-.29Z"/>
      <path class="cls-1" d="M208.09,3.18c.36.29.8.48,1.45.64-.03.03-.07.08-.1.14q-.04.07-.11.05c-.61-.17-1.04-.39-1.42-.75,0,.57.02.81.02.87,0,.03,0,.03-.03.03h-.18s-.03,0-.03-.03c0-.06.02-.29.02-.87-.38.37-.79.58-1.37.76-.07.02-.08.02-.11-.05-.03-.05-.06-.09-.1-.13.62-.16,1.07-.36,1.39-.67h-.79c-.36,0-.48,0-.5,0-.03,0-.03,0-.03-.03v-.14s0-.03.03-.03c.02,0,.14,0,.5,0h.97v-.3h-.56c-.39,0-.52,0-.54,0-.03,0-.03,0-.03-.03v-.13s0-.03.03-.03c.02,0,.15,0,.54,0h.56v-.29h-.75c-.38,0-.5,0-.52,0-.03,0-.03,0-.03-.03v-.14s0-.03.03-.03c.02,0,.14,0,.52,0h.3c-.05-.13-.1-.24-.16-.33-.02-.03-.01-.03.03-.05l.1-.03s.05-.02.06,0c.07.1.14.25.2.4h.7c.05-.09.09-.17.14-.28.02-.05.03-.09.04-.15.07.02.12.03.2.05.02,0,.04.02.04.04s-.02.03-.03.05c-.02.01-.04.05-.05.08-.03.06-.07.13-.12.21h.33c.38,0,.5,0,.53,0,.03,0,.03,0,.03.03v.14s0,.03-.03.03c-.02,0-.14,0-.53,0h-.81v.29h.64c.39,0,.52,0,.54,0,.03,0,.03,0,.03.03v.13s0,.03-.03.03c-.02,0-.15,0-.54,0h-.64v.3h1.04c.36,0,.48,0,.5,0,.03,0,.03,0,.03.03v.14s0,.03-.03.03c-.02,0-.14,0-.5,0h-.86ZM209.48,1.55s0,.03-.03.03c-.02,0-.14,0-.5,0h-2.23c-.36,0-.48,0-.5,0-.03,0-.03,0-.03-.03v-.14s0-.03.03-.03c.02,0,.14,0,.5,0h.13c-.08-.17-.17-.29-.27-.4-.01-.02-.01-.03.02-.05l.1-.05s.04-.02.05,0c.09.1.19.24.27.38,0,.02,0,.03-.02.05l-.12.07h.5v-.28c0-.14,0-.25-.02-.34.08,0,.17.01.23.02.02,0,.04.02.04.03s0,.03-.02.05c-.02.03-.02.1-.02.24v.28h.41v-.28c0-.14,0-.25-.03-.34.08,0,.17.01.23.02.02,0,.04.01.04.03,0,.02,0,.03-.02.05-.01.03-.02.1-.02.24v.28h.35c.08-.12.15-.23.21-.36.03-.05.05-.1.06-.18.08.02.16.05.21.07.02,0,.04.02.04.04,0,.02,0,.03-.03.05-.03.02-.05.05-.06.08-.06.1-.13.2-.2.3h.16c.36,0,.48,0,.5,0,.03,0,.03,0,.03.03v.14Z"/>
      <path class="cls-1" d="M209.98.61c.72.55.99,1.1.99,1.84s-.28,1.29-.99,1.84l-.09-.11c.64-.54.84-1.07.84-1.73s-.2-1.19-.84-1.73l.09-.11Z"/>
      <path class="cls-1" d="M22.84,8.2s-.06.02-.07.05c0,.01-.03.01-.05.01-.01,0-.03,0-.04,0-.01,0-.03,0-.04.02-.03.02-.06.05-.08.08-.02.03-.06.04-.09.07,0,0-.01.01-.02.01-.03,0-.06.02-.09.04-.01.01-.04,0-.06.01-.02,0-.05,0-.07,0-.03,0-.05.01-.08,0-.05,0-.09,0-.12.03-.02.02-.04.02-.07.03-.03,0-.06.01-.09.02-.01,0-.03,0-.04,0-.02.03-.03.06-.03.09,0,.02,0,.03-.03.02-.02,0-.11,0-.12.01-.02.04-.06.04-.1.04-.03,0-.06.01-.08.03-.04.03-.08.02-.12.03-.04,0-.08.01-.12.03-.02.01-.05.02-.07.04,0,0-.02,0-.04,0-.06.01-.11.02-.17.04,0,0-.02,0-.02.01-.02.03-.05.03-.08.03-.06,0-.11,0-.17,0-.03,0-.05,0-.08,0-.03,0-.06-.01-.1-.02-.09-.02-.18-.04-.27-.06-.05-.01-.09-.04-.13-.06,0,0-.02,0-.02,0-.04,0-.08,0-.1-.03,0,0-.01,0-.02,0,0,0,0,0-.01,0-.03-.01-.07-.02-.1-.04-.03-.02-.06-.05-.1-.07-.03-.02-.05-.04-.07-.07,0,0-.02-.02-.02-.02-.05,0-.09-.04-.14-.05-.02,0-.04-.02-.06-.04-.04-.04-.09-.07-.14-.09-.04-.02-.08-.05-.12-.07-.05-.03-.09-.07-.15-.1-.02-.01-.04-.04-.07-.06-.04-.03-.07-.06-.11-.09-.03-.02-.06-.04-.09-.06-.03-.02-.06-.04-.08-.06-.01,0-.02-.02-.03-.02-.03,0-.04-.02-.05-.04-.01-.02-.04-.03-.06-.05-.04-.03-.09-.06-.13-.08-.03-.02-.07-.05-.1-.07-.02-.02-.04-.04-.06-.06-.03-.03-.05-.06-.08-.09-.06-.04-.11-.08-.18-.11-.03-.01-.05-.04-.07-.06s-.04-.04-.06-.07c-.02-.02-.04-.05-.07-.06,0,0-.01-.01-.02-.02-.03-.03-.05-.06-.09-.07,0,0-.02-.01-.02-.02-.02-.03-.04-.05-.08-.07-.03-.01-.06-.03-.08-.06-.05-.07-.12-.12-.19-.18-.03-.02-.06-.05-.07-.08-.01-.02-.04-.03-.06-.05,0,0-.02-.01-.02-.02-.04-.07-.12-.12-.17-.18-.04-.05-.11-.06-.15-.1,0,0-.02-.01-.03-.02-.03-.03-.07-.06-.1-.09-.04-.03-.09-.06-.13-.1-.01,0-.02,0-.04,0-.04.03-.07.06-.1.1,0,0-.02.02-.03.02-.01,0-.03.02-.04.03-.02.02-.03.04-.07.04,0,0-.02.01-.02.02-.01.03-.04.05-.06.07-.02.02-.04.05-.05.07-.02.02-.03.04-.05.05-.04.03-.07.06-.1.1,0,0,0,0,0,0-.05.02-.06.07-.08.11,0,.01-.02.03-.03.03-.04,0-.06.04-.09.06-.01.01-.03.02-.04.03-.02.01-.04.03-.06.05-.02.01-.03.03-.04.04,0,0,0,0-.01,0-.05.05-.11.08-.16.14,0,0-.01.01-.02.02-.02,0-.02.02-.02.03,0,.04-.03.05-.07.06-.02,0-.03,0-.05.01-.02.01-.04.02-.05.05,0,.02-.02.04-.04.05-.02.02-.05.02-.06.05,0,0-.01,0-.02,0-.02,0-.05.02-.07.03-.01,0-.03,0-.05,0-.02,0-.04,0-.04.02,0,.02-.03.02-.05.03-.03.02-.06.02-.08.03-.01,0-.02,0-.03.01-.02.02-.05.03-.07.03-.04.01-.08.03-.11.06-.01.01-.03.03-.04.03-.01,0-.02.01-.03.02-.02.02-.04.03-.07.03-.04,0-.06,0-.09.03-.02.02-.06.03-.09.04-.02,0-.03,0-.04.02-.02.02-.04.03-.06.03-.03,0-.06,0-.09.03-.03.02-.07.02-.1.03-.02,0-.03,0-.05.02,0,0-.02.01-.03.02-.02,0-.05,0-.07,0-.03,0-.07,0-.1.03-.01,0-.02.01-.03.02,0,0-.02,0-.02,0-.02.03-.05.03-.08.04-.02,0-.04.02-.06.03,0,0-.01,0-.02,0-.05,0-.1.04-.15.04-.05,0-.1.01-.16.02-.01,0-.03,0-.04,0-.03,0-.07,0-.09.02-.03.02-.07.01-.09,0-.03-.02-.06-.03-.1-.03-.01,0-.02,0-.03-.01-.03-.03-.06-.03-.1-.03-.03,0-.06-.01-.1-.02-.01,0-.03-.01-.04-.02-.01,0-.03-.02-.04-.02,0,0-.01-.02-.02-.02-.04,0-.08-.03-.12-.04,0,0-.02,0-.02,0-.02-.03-.06-.04-.09-.04-.02,0-.03,0-.03-.03-.01-.07-.01-.13,0-.19,0-.02,0-.04,0-.06,0-.02-.02-.04-.04-.05-.04-.03-.08-.05-.08-.11,0-.02,0-.03-.02-.05-.02-.04-.02-.04-.02-.07.02-.02.04-.03.06-.05,0-.02,0-.05.02-.06.02-.02.02-.05.03-.07,0-.01,0-.02.01-.03.03-.03.03-.07.03-.11,0-.02,0-.03,0-.05,0,0,0-.02.01-.03.03.03.01.09.06.1.01-.03.03-.05.04-.07,0-.01.02-.03.02-.04,0-.04.02-.06.03-.09,0-.02.01-.04,0-.05-.02-.02-.01-.03,0-.05,0-.02.02-.02.04-.02.02,0,.03.01.03.03,0,.04.03.07.05.1.02.02.03.02.05,0,.02-.02.04-.03.06-.05.01-.01.01-.03,0-.05,0,0-.01-.02-.02-.02,0,0,0,0,0,0,.06,0,.11,0,.16.05,0,0,.01.02.02.02.02.02.03.04.03.07,0,.03,0,.04.04.05-.02-.04,0-.07.03-.1.02-.02.04-.02.05,0,0,.01.01.03.02.04.02.03.05.05.07.06.02,0,.04,0,.07,0,.02,0,.04-.01.06,0,0,0,.02,0,.03-.02,0,0,.02.01.03.02.02,0,.03-.03.05,0,0,0,0,0,.01,0,.08-.02.16-.02.24-.02.03,0,.06,0,.09-.02.03-.01.05-.02.08-.01.02,0,.04,0,.06,0,.04-.01.09-.01.13-.04,0,0,.02,0,.04,0,0,0,0,0,.01,0,.07-.01.11-.07.19-.07.04,0,.09-.01.12-.05,0,0,.01-.01.02-.01.03-.02.07-.04.1-.05.01,0,.02-.01.03-.02.02,0,.04-.02.06-.03.07,0,.12-.04.17-.07.01,0,.03-.01.04-.02.02-.01.03-.02.05-.03.04-.03.08-.06.12-.09.02-.01.04-.01.06-.02.03-.02.06-.02.08-.05,0,0,0,0,0,0,.05,0,.08-.05.11-.08,0,0,.01,0,.02-.01,0,0,.01,0,.02,0,.02-.03.05-.04.08-.05.02-.01.04-.03.06-.03.04-.01.07-.05.12-.05.01,0,.03-.01.03-.02.02-.03.05-.05.08-.07.02-.02.04-.03.07-.03.02,0,.03-.02.05-.04.02-.03.04-.07.07-.09.05-.04.09-.09.14-.14.02-.02.01-.04,0-.05-.02-.02-.05-.05-.08-.06-.03-.02-.05-.05-.07-.08-.02-.02-.04-.04-.05-.07-.01-.02-.02-.04-.04-.05,0,0-.01-.03-.01-.04,0-.01,0-.03,0-.04,0-.02-.01-.04-.03-.05-.04-.02-.07-.04-.09-.07-.01-.02-.03-.03-.05-.04-.03-.02-.06-.04-.09-.06-.02-.01-.03-.02-.04-.04-.02-.01-.03-.03-.05-.04-.04-.02-.07-.05-.11-.07,0,0-.01,0-.02-.01-.02-.02-.04-.03-.07-.04-.02,0-.03-.02-.03-.04,0-.05-.04-.09-.06-.13,0,0,0-.02,0-.03,0-.03.02-.04.04-.02.02.02.05,0,.07.01,0-.03,0-.06,0-.08-.02-.04,0-.07.01-.1,0-.01.04-.02.05-.03.02,0,.03-.02.05-.03.03-.02.06-.04.09-.05.02,0,.04,0,.05-.02.02-.02.05-.02.08-.02.06,0,.13,0,.19,0,.02,0,.04,0,.06,0,0,0,.02,0,.02.01,0,.02.02.03.04.03.02,0,.02.02.02.03,0,.02,0,.04.02.06.01.01.02.03.02.04,0,.02,0,.04.01.05,0,.02.02.03.04.03.03,0,.05.01.08,0,.01,0,.03,0,.04.01.02.02.03.04.04.05,0,0,0,.01.01.01.03,0,.04.02.05.04.02.02.04.03.06.04.04.03.08.05.12.07.02.01.05.03.07.03.02,0,.04.02.05.04.03.04.08.05.11.04,0,0,.02,0,.02,0,.02-.02.04-.04.06-.07.03-.03.04-.07.08-.1,0,0,0,0,0-.01,0-.04.04-.07.06-.11.02-.05.07-.09.12-.13,0,0,.01,0,.02-.01.03-.07.07-.12.1-.18.01-.03.03-.04.06-.04.03,0,.03,0,.03-.04,0-.02,0-.04,0-.06,0-.02,0-.03,0-.05,0-.04.01-.07.03-.11,0-.01,0-.03,0-.04,0-.02,0-.04.03-.05,0,0,.01-.02.02-.02,0-.03,0-.07,0-.1,0-.03-.02-.05-.05-.05-.06,0-.12,0-.18,0-.06,0-.11,0-.17,0-.06,0-.11,0-.17,0-.03,0-.06,0-.09.01-.04,0-.08.02-.12.02-.02,0-.05,0-.07,0,0,0-.02,0-.02,0-.03.04-.08.03-.12.03-.02,0-.05,0-.07,0-.04,0-.09,0-.13.03-.04.02-.08.02-.13.02-.02,0-.03,0-.05,0-.02,0-.03,0-.04.02,0,.02-.02.02-.03.02-.02,0-.03,0-.05,0-.03,0-.06,0-.09.03-.02.02-.04.02-.07.02-.03,0-.05,0-.08,0,0,0,0,0-.01,0-.05.04-.12.03-.18.04-.03,0-.06,0-.08,0,0,0-.02,0-.02,0-.03.02-.07.04-.1.05,0,0,0,.01,0,.02-.02.02-.04.04-.07.04-.02,0-.04,0-.06,0-.02,0-.04,0-.05.03-.01.02-.03.02-.05.02-.01,0-.03,0-.04,0-.04,0-.07.04-.1.06,0,0-.02.02-.03.02-.05.01-.09.03-.13.06-.01.01-.02.02-.03.03,0,0-.01.02-.02.02-.05.01-.07.05-.1.08,0,0-.01,0-.02.01-.03,0-.05,0-.08,0-.01,0-.03,0-.03-.02-.02-.02-.04-.03-.06-.03-.03,0-.05,0-.07-.03-.01-.02-.04-.02-.06-.01-.03,0-.06,0-.09-.03,0-.01-.03-.01-.04-.01-.03,0-.05-.01-.06-.04-.02-.03-.02-.06-.02-.09,0-.03,0-.04-.03-.05-.03-.02-.04-.05,0-.06.03-.02.03-.04.03-.07,0,0,0,0,0,0,.04-.04.08-.08.12-.12,0,0,.01-.02.01-.03,0-.03,0-.04.03-.05.03-.01.06-.03.07-.06.04-.02.04-.06.05-.09.01-.04.07-.07.12-.07.02,0,.03,0,.04-.02.02-.02.04-.04.06-.05.01,0,.03,0,.04,0h.18s.05,0,.07-.03c0-.01.03-.02.04-.02.02,0,.04-.01.07-.01.02,0,.05,0,.07-.01.03,0,.06,0,.09-.03.02-.01.03-.02.05-.02.06,0,.12,0,.18,0,.03,0,.06,0,.09-.01,0,0,0,0,0,0,.02-.03.05-.03.08-.03.07,0,.13,0,.19-.04.02-.01.05-.01.08-.01.03,0,.07-.02.1-.01,0,0,.02,0,.02,0,.01-.02.03-.02.05-.02.02,0,.05,0,.07,0,.03,0,.06-.01.09-.04.04-.04.1-.07.16-.04,0,0,.01,0,.02,0,.02,0,.04,0,.07,0,.02,0,.04-.01.06-.02.05,0,.09-.02.12-.06,0-.01.01-.03.01-.04,0-.07,0-.14,0-.21,0-.09,0-.18,0-.27,0-.01,0-.02.01-.03.02-.02.02-.04.02-.06,0-.03,0-.06.03-.08.01,0,.02-.03.02-.04,0-.02.01-.03.03-.04.03-.02.08-.02.1-.06,0,0,.01,0,.02,0,.04,0,.07-.03.1-.05.03-.02.07-.04.09-.07,0,0,.02-.02.03-.02.07,0,.14-.01.21,0,0,0,.02,0,.03.01.02.02.05.02.08.02.07,0,.14,0,.2,0,.02,0,.04,0,.05.02,0,0,0,.01.01.01.03,0,.04.03.05.04.04.03.04.07.07.11,0,0,0,.02.01.02.04.02.03.05.03.08s0,.06.03.07c0,0,.01.02.01.03,0,.03,0,.06,0,.09,0,.12,0,.23,0,.35,0,.05.01.06.06.06.02,0,.04,0,.07,0,.04,0,.08.02.12.02.07.01.13,0,.2,0,.07,0,.14-.01.21,0,0,0,.02,0,.03,0,.03,0,.06,0,.1.02.02.01.05.01.08.02.03,0,.06,0,.09.03.02.01.04.02.07.02.04,0,.08,0,.12.03.02.01.05.01.07.02.04,0,.07.01.11.03.02,0,.04.01.06.01.03,0,.06,0,.09,0,.01,0,.03,0,.04.01.04.03.08.03.12.03.03,0,.07,0,.09.03.01.01.04.01.06.02.03,0,.07,0,.09.03,0,0,.02.01.04.01.04,0,.07.01.11.03.02.01.04.01.05.01.04,0,.08.01.12.02.04,0,.08.01.12.02.01,0,.03,0,.04.01.02.02.05.02.07.02,0,0,.01,0,.02,0,.04.02.09.03.12.06.03.02.06.03.09.03,0,0,.01,0,.02,0,.07-.01.12.02.18.05.03.02.07.03.1.06,0,0,.02,0,.02,0,.03,0,.04.02.04.05,0,.02,0,.04,0,.07,0,.02,0,.04.03.05.02.01.04.03.06.05.01.01.02.03.02.05,0,.03,0,.07,0,.1,0,.02-.01.03-.03.04-.03,0-.05.01-.06.04,0,0,0,0,0,0-.05,0-.07.05-.12.05,0,0-.02,0-.03.01-.01,0-.02.01-.03.01-.03,0-.05.03-.04.06,0,.04,0,.04-.03.05-.02,0-.04.01-.06.03-.01.02-.03.03-.04.05,0,0-.02.01-.03.01-.02,0-.04,0-.06,0,0,0-.01,0-.02,0-.08-.04-.16-.05-.25-.05-.02,0-.03,0-.04-.02-.08-.08-.05-.07-.18-.07-.01,0-.03,0-.04,0-.02,0-.04,0-.05-.02,0,0-.01-.02-.02-.02-.07-.01-.12-.07-.19-.08-.03-.02-.06-.02-.1-.03-.01,0-.03,0-.04-.02-.03-.02-.06-.02-.09-.02-.03,0-.07,0-.1,0-.01,0-.03-.02-.04-.03-.01,0-.02-.02-.03-.03-.02.01-.04.02-.05.02-.02,0-.04,0-.06,0,0,0-.02-.01-.02,0-.04.02-.07-.01-.1-.03-.03-.02-.07-.03-.1-.04-.02,0-.04-.02-.06-.02-.01,0-.03-.01-.04-.02-.02,0-.05-.01-.07-.02-.03-.01-.05,0-.08,0-.01,0-.02,0-.04.01-.05,0-.1,0-.15.02-.03,0-.06.03-.1.04,0,0-.01.02-.01.03,0,.02-.01.04-.03.05,0,0-.01.02-.02.02,0,.02-.02.03-.03.05,0,0-.01.02-.02.03,0,.02,0,.03-.02.04-.01,0-.02.02-.02.03,0,.03,0,.06-.04.09,0,0,0,.02,0,.03-.01.04-.01.08-.03.1-.03.04-.04.09-.08.12,0,0,0,0,0,0,0,.04-.04.07-.06.1-.02.04-.04.07-.06.1,0,0-.02,0-.02.01-.02.02-.03.03-.04.05-.01.02-.02.04-.04.05-.05.05-.08.1-.11.16-.02.04-.04.07-.06.1-.01.02-.04.03-.06.05-.02.02-.04.05-.05.07-.02.04-.04.07-.07.1-.02.02-.02.04,0,.06.01.01.03.03.05.04.02.01.05.02.07.04.02.02.05.03.07.04.04.03.09.06.11.11,0,0,0,.01.01.02.04.02.07.04.11.06.02.01.04.04.06.06.04.03.08.07.13.08.02,0,.03.02.04.02.04.02.08.05.12.07,0,0,.01.01.02.01.04,0,.07.04.1.06.02.01.04.02.06.03,0,0,.02.01.03.02.01,0,.03.02.04.03.04.03.08.05.11.1,0,0,.02.02.03.02.07.01.13.04.19.07,0,0,.02,0,.03.01.02.01.04.02.06.03.03.02.07.04.1.05.02.01.05,0,.07.03,0,0,.01,0,.02,0,.03,0,.06.02.09.03.04.03.08.05.13.07.03.01.06.02.08.04.04.03.1.05.15.06.01,0,.02,0,.03,0,0,0,.02,0,.02.01.02.02.04.03.06.03.05.01.06.03.06.08,0,.03,0,.05.04.06.04.01.08.02.11.04.03.02.07.03.11.04.04.03.1.03.14.06,0,0,0,0,.01,0,.05,0,.08.03.12.04.02.01.05.02.07.03,0,0,0,0,0,0,.06,0,.09.05.14.06,0,0,.02,0,.02.01.02.01.04.02.07.03.03,0,.05.02.08.03.03.02.07.04.11.05.01,0,.02,0,.03,0,.03.02.06.03.09.05.05.03.11.05.16.07.01,0,.02.01.04.02.02,0,.03.02.05.02.02,0,.04.01.05.03,0,.02.03.02.05.04.05.03.1.02.15.03.01,0,.03,0,.03,0,.03.04.08.03.12.05,0,0,0,0,.01,0,.03,0,.05,0,.08.02.02.01.06,0,.09.01.04,0,.09.02.13.02.12,0,.24.02.36.02.09,0,.19,0,.28,0,.06,0,.11,0,.17,0,.02,0,.05,0,.07,0,.05,0,.1,0,.16,0,.16,0,.32,0,.48,0,.06,0,.13,0,.19-.01,0,0,.01,0,.02,0,.01,0,.03,0,.04.02,0,.02-.01.02-.02.03-.02.02-.04.03-.07.03-.02,0-.03.01-.03.03,0,.04-.03.08-.07.1,0,0-.01.01-.01.02-.02.05-.07.06-.12.07-.06,0-.12.03-.18.05-.03.01-.03.02-.02.05,0,.02.01.04.02.06,0,0,0,.02,0,.03M12.34,7.5s-.02,0-.02.01c0,0,0,.02,0,.03,0,.01.01.02.02.03.02.02.05.01.06,0,.01-.02,0-.04-.01-.05-.01,0-.03,0-.05-.01M15.25,4.62s.04,0,.04-.02c0,0,0-.01,0-.02,0,0-.02,0-.02,0,0,.01-.01.02-.02.04"/>
      <path class="cls-1" d="M30.37,5.02c0-.06.01-.11.02-.17,0-.07.02-.14.02-.21,0-.09,0-.18.01-.27,0-.05,0-.1.01-.15,0-.02,0-.03,0-.05-.02-.05-.01-.09,0-.14,0-.05,0-.11,0-.16,0,0,0-.02-.01-.02-.03-.02-.02-.05-.02-.08,0-.07,0-.14.01-.2,0-.02,0-.03,0-.04,0-.01,0-.02,0-.04,0-.05.03-.08.08-.08.03,0,.05,0,.08-.03.03-.02.06-.03.09-.04.01,0,.02,0,.03,0,.04,0,.08.02.12.03.04.01.07.02.1.05,0,0,.01.01.02.01.03,0,.05.03.06.06.01.03.03.07.02.11,0,.03-.01.05-.01.08,0,.06,0,.12,0,.17,0,.02,0,.04.02.06.02.02.02.04,0,.06,0,.01-.01.02-.02.03,0,.02-.01.04,0,.05.01.02.01.03,0,.05,0,.02-.01.04-.01.06,0,.04,0,.08,0,.12,0,.02,0,.05.01.07.02.05.05.06.1.03.02-.02.05-.04.07-.05.02,0,.03-.01.05-.02,0,0,0,0,0,0,.05-.02.1-.04.15-.07.03-.02.05-.05.08-.07,0,0,.02-.01.03-.01.05,0,.09-.03.13-.06.01,0,.02-.02.03-.02.04,0,.07-.03.09-.07.01-.02.02-.02.04-.02.02,0,.04,0,.06-.01.05-.03.11-.04.16-.06,0,0,.02,0,.03,0,.02,0,.03-.02.03-.04,0-.05.04-.07.08-.09.01,0,.03-.01.04-.02.02-.02.04-.04.05-.06.03-.03.06-.07.06-.12,0-.02.01-.03.02-.04,0-.02.02-.04.03-.06s.02-.03.03-.05c.04-.03.07-.05.11-.08,0,0,.02-.02.03-.02.02,0,.04,0,.06-.02.03-.02.07-.03.11-.01.03,0,.05,0,.07,0,.03-.01.06-.01.09-.02.06,0,.11,0,.17,0,.03,0,.05,0,.07.02,0,0,.02,0,.02.01.06.02.12.06.17.09.01,0,.03.01.05.01.03,0,.06.01.09.03.04.02.08.04.12.07.02.02.04.03.07.05.02.02.04.04.07.06.01.01.02.03.02.04,0,.02,0,.04,0,.06,0,.02-.01.04-.02.05-.03.03-.03.06-.02.09,0,.01,0,.02,0,.03,0,.04-.01.05-.06.06-.07,0-.1.04-.13.09,0,.01,0,.02-.02.03-.05.04-.09.08-.15.1-.03.01-.06.03-.08.06-.03.04-.08.07-.13.08,0,0-.02,0-.02,0-.06.03-.12.06-.18.1-.01,0-.02.02-.02.03,0,.02-.01.04-.04.05,0,0-.01,0-.01.01-.02.04-.06.06-.11.07-.02,0-.04.02-.06.03-.02,0-.05.01-.07.02-.05,0-.1.01-.13.05,0,0-.02.01-.03.02,0,0-.02,0-.02.01-.02.03-.05.03-.08.03-.04,0-.09,0-.12.03,0,0-.02,0-.03,0-.03,0-.04.02-.07.03-.03.02-.06.06-.11.06,0,0-.02,0-.02,0-.02.03-.06.02-.09.04-.05.02-.1.04-.15.04-.02,0-.04.01-.06.02-.02,0-.05.02-.07.03-.03,0-.05.01-.08.02,0,0,0,0,0,0-.01,0-.03,0-.03,0-.04.04-.11.02-.14.07-.03.06-.09.09-.15.12,0,0-.01.01-.02.02-.02.01-.02.03-.01.05.01.03.03.05.05.06.04.02.07.05.1.08.02.03.04.06.08.07.02,0,.02.03.03.04.02.02.03.05.06.06.04.03.08.07.13.09.02,0,.03.03.04.04.03.03.05.07.1.07.01,0,.03.02.04.02.03.03.06.06.1.07,0,0,.01,0,.02.01.04.05.1.09.13.14,0,.01.02.02.03.02.03.01.05.03.08.04,0,0,.02.01.02.02,0,0,.01.01.02.01.04,0,.07.04.11.06,0,0,.02.01.03.02,0,0,.01.01.02.02.06,0,.09.06.14.08,0,0,.02.01.02.01.06,0,.09.04.14.07.02.01.04.02.06.03.04.01.09.03.12.06,0,.01.02.02.03.02.03.02.07.03.09.05.03.03.06.03.09.05.03.01.07.03.1.06.03.02.07.03.11.04.01,0,.03.01.04.02,0,0,.01,0,.02,0,.05,0,.1.02.16.02.02,0,.03,0,.04.02.01.02.03.03.06.02.03,0,.05,0,.07.03,0,0,.02.01.03.02.02,0,.04,0,.06,0,.02,0,.04,0,.05,0,.08.04.17.02.25.05,0,0,.02,0,.02,0,.09.04.18.03.27.04.05,0,.09,0,.12.04,0,0,.03,0,.05,0,.04,0,.08,0,.12,0,0,0,.01,0,.01,0,.04-.03.1-.02.15-.03.05,0,.1,0,.14,0,.09,0,.19,0,.28,0,.01,0,.03,0,.04,0,.03,0,.05,0,.08-.01.01,0,.03-.01.05-.01.07,0,.14,0,.21,0,.06,0,.13-.01.19-.02,0,0,.01,0,.01,0,.04-.04.09-.03.14-.04.02,0,.05-.01.07-.02.02-.01.04-.03.07-.02,0,0,.02,0,.03,0,.05-.01.1-.02.15-.04.04-.02.09-.02.13-.04.03,0,.06-.03.09-.05.02-.01.03-.02.05,0,0,.01.02.02.04.04-.01.01-.02.02-.03.03,0,.01-.02.03-.03.04,0,.02-.02.04-.02.06-.02.04-.04.06-.08.06-.02,0-.03.01-.04.03,0,.02-.02.04-.04.04-.03,0-.05.02-.05.05,0,.02,0,.04-.03.04-.01,0-.02.02-.03.02-.01,0-.02.02-.04.03,0,0-.02.02-.03.03-.03.04-.05.07-.1.07-.02,0-.04.01-.04.04,0,0,0,.02,0,.03.02.06-.03.09-.08.12,0,0-.01,0-.02.02-.02.01-.03.03-.05.04-.05.02-.08.06-.14.08-.02,0-.05.03-.06.04-.02.02-.03.03-.06.03-.04.01-.07.02-.1.05,0,0-.02.02-.03.02-.05.01-.08.04-.12.07-.02.01-.05.02-.07.03-.06.03-.12.07-.18.09-.07.03-.13.08-.21.09-.03,0-.07.02-.1.03-.01,0-.03,0-.03.02-.02.04-.05.04-.08.04-.06,0-.09.03-.12.06,0,0-.02.02-.03.02-.03,0-.06,0-.07.04,0,0,0,0,0,0-.03.02-.07.03-.1.05,0,0,0,0,0,0-.03.04-.08.03-.12.03-.01,0-.03,0-.04,0-.07.04-.15.03-.22.02-.05,0-.1-.02-.14-.03-.01,0-.04,0-.05,0-.04.03-.08.03-.12.03-.05,0-.09,0-.13-.03-.03-.02-.07-.02-.11-.03-.02,0-.04-.01-.06-.03-.02-.03-.05-.05-.07-.09-.02-.04-.06-.05-.09-.06-.02,0-.03-.02-.05-.03-.04-.02-.06-.06-.1-.07-.04-.04-.09-.05-.14-.07-.01,0-.02-.01-.03-.02,0,0,0-.01,0-.01-.04,0-.07-.04-.11-.06-.01,0-.02,0-.03-.02-.04-.04-.09-.06-.14-.08-.02,0-.04-.02-.05-.03,0,0-.02-.01-.02-.01-.06-.01-.1-.06-.15-.1-.01,0-.03-.02-.04-.02-.03,0-.04-.01-.06-.03-.01,0-.02-.02-.04-.02-.06-.03-.11-.06-.16-.1,0,0-.01-.02-.02-.03-.01-.02-.03-.04-.05-.04-.02,0-.04-.02-.05-.04-.01-.01-.02-.02-.04-.03,0,0-.02,0-.02-.01-.03-.05-.08-.07-.12-.1-.03-.02-.05-.06-.08-.09-.02-.02-.04-.05-.07-.07-.04-.05-.09-.1-.14-.15-.01-.01-.03-.02-.04-.03-.04-.02-.06-.05-.09-.08-.02-.02-.05-.04-.07-.06-.04-.03-.08-.07-.11-.1-.06-.06-.11-.12-.18-.17-.01,0-.02-.02-.03-.04-.02-.07-.07-.11-.12-.16-.04-.04-.09-.07-.12-.12,0,0,0,0,0,0-.04-.01-.04-.05-.04-.08,0-.04,0-.07-.02-.1-.02-.05-.03-.1-.04-.15,0-.02-.02-.04-.02-.06,0,0,0-.01-.01-.02-.01-.05-.04-.1-.07-.15-.02-.04-.03-.09-.03-.13,0-.02-.01-.04-.02-.06,0-.02-.01-.03-.01-.05,0,0,0-.02,0-.03,0-.06,0-.13-.01-.19,0-.02-.02-.03-.03-.04"/>
      <path class="cls-1" d="M27.05,6.13s0-.08.01-.13c0-.03.01-.06.02-.08.02-.04.02-.08,0-.13,0-.02,0-.04,0-.06.01-.03,0-.06,0-.09,0-.02-.01-.04-.01-.06,0-.05.02-.09.03-.14,0-.02,0-.05,0-.07,0-.06,0-.12,0-.18,0-.03,0-.06-.02-.08,0,0,0-.02,0-.03.04-.04.02-.08,0-.12-.02-.05-.03-.09-.02-.14.01-.07,0-.14,0-.21,0-.07,0-.13,0-.19,0-.01,0-.03,0-.04-.01-.02-.04-.03-.06-.01-.05.03-.08.07-.12.12,0,.01-.01.03-.02.05-.01.03-.03.06-.06.08-.03.03-.07.06-.07.11,0,.04-.02.08-.06.1-.02.01-.03.03-.03.06,0,.05-.01.09-.06.13-.02.01-.03.03-.04.04-.03.04-.07.07-.1.1-.02.02-.04.04-.07.06-.05.04-.11.05-.16.06,0,0-.01,0-.02,0-.02.01-.02.04-.05.04-.03,0-.04.01-.06.02-.02.01-.04,0-.06.01-.02,0-.04,0-.06.01-.01,0-.02,0-.03,0,0,0,0,0,0,0-.02,0-.05.02-.08.02-.03,0-.04.02-.07.04-.01.01-.04.02-.06.02-.02,0-.03-.02-.03-.04,0,0,0-.02,0-.03,0-.02-.02-.03-.04-.02-.02,0-.03,0-.04-.01-.04-.04-.07-.08-.11-.12,0,0,0-.02-.01-.03-.01-.03-.02-.05-.03-.08,0,0-.01-.02-.01-.02,0-.05-.01-.09-.01-.13,0,0,0-.02,0-.02-.04-.05-.02-.11-.03-.17,0-.03,0-.05,0-.07,0,0,0-.02,0-.02,0-.04.01-.08.01-.12,0-.02,0-.04.03-.06.02-.02.03-.04.03-.06,0-.03,0-.06.03-.08.03-.02.06-.05.06-.09,0,0,0,0,0-.01.03-.02.04-.05.05-.09,0-.01.02-.02.04-.03.05-.02.07-.05.09-.1,0-.01.02-.03.03-.04.03-.02.06-.05.07-.09,0,0,0-.01.02-.02.04-.01.06-.04.09-.06.02-.01.03-.02.05-.03.03-.02.05-.04.08-.07.03-.04.06-.07.11-.08,0,0,0,0,.01-.01.04-.03.09-.06.14-.09.02-.01.04-.03.05-.04.03-.02.05-.05.09-.05,0,0,0,0,.01,0,.02-.03.06-.04.1-.05.01,0,.02,0,.03-.01.06-.05.13-.07.19-.1,0,0,.01,0,.02,0,.02,0,.04,0,.06-.02,0,0,.02,0,.03-.02.02-.01.04-.02.05-.03,0,0,.02-.01.03-.01.02,0,.05-.02.07-.03,0,0,.02-.01.03-.01,0,0,.01,0,.01,0,.04-.03.09-.03.13-.04.02,0,.05-.01.07-.02.01,0,.02,0,.03,0,.04-.03.09-.03.14-.04,0,0,.02,0,.02,0,.03-.04.08-.03.12-.05.02-.01.04-.01.07-.01.05,0,.1,0,.15,0,.01,0,.02,0,.03-.01.03-.02.05-.02.08-.02.07,0,.13,0,.2,0,.03,0,.06,0,.09,0,.04.01.08,0,.12-.01.03,0,.06-.02.09-.02.11,0,.22,0,.33,0,.03,0,.06.01.09.01.02,0,.04,0,.06,0,.02,0,.04,0,.05,0,.04.03.08.03.13.03.02,0,.04,0,.05.03.01.02,0,.04,0,.06-.04.04-.08.07-.13.09-.03.01-.05.03-.08.05-.04.03-.08.07-.13.09-.03.02-.08.02-.11.02-.02,0-.03.01-.05.02-.04.02-.07.06-.12.06-.03,0-.06,0-.08.03,0,0-.03.01-.05.01-.02,0-.04,0-.06.02-.05.03-.1.06-.16.07-.03,0-.06.03-.09.04,0,0-.02.01-.03.02-.05.02-.09.05-.13.08-.04.03-.08.06-.12.09,0,0-.01,0-.02,0-.04,0-.06.03-.09.05-.03.02-.05.05-.08.06-.03.02-.05.06-.04.09.01.06,0,.11,0,.17,0,.06,0,.13.01.19,0,.03,0,.06,0,.09,0,.04,0,.07,0,.11,0,.01.01.03.01.04,0,.03,0,.06.01.08,0,.04,0,.08-.02.12,0,.02,0,.05,0,.07,0,0,0,.01,0,.02.04.03.02.08.03.11,0,.01,0,.03.01.04,0,.03.01.06.02.09,0,0,0,.02,0,.03-.03.07-.04.14,0,.21,0,0,0,.02,0,.03,0,.06,0,.12,0,.18,0,.06,0,.11,0,.17,0,.03.01.06.02.09,0,0,0,.02,0,.02-.04.07-.03.14-.04.21,0,.05,0,.09,0,.14,0,.03.01.06.02.09.02.07.02.13,0,.2,0,0,0,0,0,0-.04.04-.03.1-.04.15,0,.06,0,.13-.02.19,0,.02,0,.04-.02.06-.02.02-.03.05-.03.07,0,0,0,.02,0,.02-.05.03-.05.08-.07.12,0,.02-.01.03-.03.05,0,0-.02.02-.02.03,0,.02-.01.04-.04.05,0,0,0,0,0,.01,0,.04-.03.08-.05.11-.02.05-.06.09-.1.12-.03.02-.05.05-.07.08-.03.02-.05.04-.08.07-.02.02-.04.03-.06.05,0,0,0,0,0,.01-.02.03-.06.02-.08.03-.03.02-.04.05-.08.04,0,0-.02,0-.02,0-.02.02-.05.04-.07.05-.02.01-.04.02-.07.03-.02.01-.04.02-.05.03-.05.04-.1.07-.17.07-.05,0-.07.03-.1.06-.04.04-.08.08-.13.12-.01.01-.02.03-.04.04-.03.03-.08.04-.12.06-.02.01-.04.03-.07.04-.04.02-.07.06-.12.06,0,0-.02,0-.02.01-.02.02-.04.03-.06.03,0,0-.01,0-.01,0-.03.03-.07.03-.1.04-.02,0-.03.01-.05.02-.01,0-.02,0-.03.01-.02,0-.04.02-.06.03-.01,0-.02,0-.03.01-.04,0-.08,0-.12,0-.03,0-.06,0-.08.02,0,0-.01,0-.02,0-.06.01-.13.04-.2.03-.03,0-.05-.01-.08-.02-.05-.02-.11-.02-.16,0-.06.01-.12,0-.18,0-.02,0-.04,0-.06-.01-.03-.02-.07-.03-.1-.05,0,0,0-.01-.01-.02-.01-.02-.02-.04-.03-.06,0,0-.02-.01-.03-.01-.01,0-.02,0-.04,0-.05,0-.04,0-.05-.04,0-.02-.01-.04-.02-.05-.01-.01-.01-.03-.02-.04-.01-.07.01-.14.02-.2,0,0,0-.01,0-.02.04-.05.04-.1.04-.16,0-.03,0-.07,0-.11,0-.02.01-.03.02-.04,0-.01.02-.02.02-.03.01-.06.06-.09.09-.14,0,0,.01-.01.02-.02.01-.01.03-.02.04-.03.03-.02.07-.03.11-.04.04-.01.08-.02.12-.04.03-.02.06-.03.09-.04.03,0,.06,0,.09,0,.04,0,.07,0,.11,0,.02,0,.04,0,.06-.02,0,0,.02-.01.03-.02.02,0,.04,0,.06-.03,0,0,.02-.01.03-.01.03,0,.05,0,.07-.02,0,0,0,0,.02,0,.05,0,.08-.05.13-.07.03-.01.05-.02.08-.03.01,0,.02-.02.04-.02.02-.01.03-.02.05-.03.04-.02.08-.03.11-.04,0,0,0,0,.01,0,.05,0,.08-.04.13-.05,0,0,.02,0,.02-.02,0-.02.03-.02.05-.02.02,0,.03-.01.04-.03,0-.03.02-.05.06-.05,0,0,0,0,.01,0,.04-.02.07-.05.11-.07.02-.01.04-.03.06-.03.05,0,.08-.03.11-.06.04-.04.08-.06.13-.08.02-.01.05-.02.08-.03.01,0,.03-.02.03-.03.01-.02.02-.05.06-.06,0,0,.01,0,.02-.01.02-.02.03-.04.05-.05.04-.03.07-.06.1-.09,0-.01.02-.02.02-.03,0-.02.02-.04.03-.05.04-.03.07-.06.11-.09"/>
      <path class="cls-1" d="M46.92,5.01s-.04.02-.05.03c-.02,0-.03.02-.04.03-.01.01-.02.02-.03.03,0,0-.02.02-.02.03,0,0-.02.02-.03.03-.02.01-.03.03-.03.05,0,.03-.02.06-.04.08-.02.03-.03.05-.03.09,0,.04,0,.07-.04.09-.02,0-.03.02-.04.03-.02.01-.04.02-.06.02-.03,0-.04,0-.05.04,0,.01,0,.03-.01.04-.01,0-.02-.01-.02-.02-.03-.02-.03-.02-.06,0,0,0-.02.01-.03.02-.03.01-.07.02-.1.05-.02.02-.04.02-.07.04-.03.02-.06,0-.08,0-.04,0-.08,0-.11,0-.06.02-.12.02-.17-.02-.02-.01-.04-.02-.06-.02-.03,0-.05,0-.08,0-.01-.02-.02-.05-.04-.06,0,0,0-.01,0-.02-.03.02-.05.02-.08,0-.02-.01-.05-.01-.07-.04,0,0-.01,0-.02,0-.06,0-.11-.02-.16-.06-.04,0-.06-.04-.1-.05-.03,0-.07-.02-.1-.03,0,0-.01,0-.02,0-.06-.03-.11-.04-.17-.03-.03-.02-.07,0-.09-.03-.02.02-.04.01-.06,0-.03,0-.06,0-.08-.01-.02,0-.04,0-.05-.02-.01-.01-.04-.02-.06-.02-.02,0-.03,0-.05,0-.01,0-.02,0-.03,0-.03.01-.04,0-.06-.02-.02.01-.04.02-.05,0,0,0,0,0,0,0-.03.02-.06,0-.09,0-.03,0-.05-.01-.08.01-.02-.02-.04,0-.06,0-.03-.01-.06.02-.09,0-.02.02-.04,0-.06,0-.05.04-.06.08-.06.14,0,.09,0,.18,0,.27,0,.04,0,.08,0,.12,0,.02,0,.03-.03.04-.04.02-.07.06-.06.11,0,.02,0,.05,0,.07,0,.06,0,.11,0,.17,0,.06,0,.13,0,.19,0,.01,0,.03,0,.04.01.05,0,.1,0,.15,0,.05,0,.1-.01.15,0,.02,0,.04-.02.07,0,.02-.02.05,0,.08,0,0,0,.02,0,.03-.02.07-.02.14-.02.2,0,.08,0,.15,0,.23,0,0,0,.01,0,.02-.04.05-.03.11-.03.17,0,.02,0,.04,0,.06,0,.05,0,.09,0,.14,0,.02,0,.05-.02.07-.01.02-.02.05-.02.08,0,.04-.01.08-.02.11,0,.01-.01.02-.02.03-.02.01-.02.03-.02.05,0,.02,0,.04-.01.07,0,0,0,.02,0,.02-.03.01-.03.04-.03.06,0,0,0,.02-.01.02-.04.03-.06.07-.07.11,0,.03-.02.05-.03.08,0,0-.01,0-.02.01-.02.02-.05.03-.07.05-.02.02-.02.02,0,.04,0,0,.01.02.01.03,0,0-.02,0-.03,0-.02,0-.03,0-.03-.02-.01-.07-.06-.1-.11-.14-.02-.02-.05-.04-.07-.06-.03-.02-.05-.04-.08-.07,0,0-.02-.02-.02-.03,0-.02-.02-.05-.03-.07,0-.01-.01-.03-.02-.04,0-.03,0-.07-.04-.09-.01,0-.01-.04-.02-.06,0-.04,0-.08-.01-.11,0-.1-.02-.2-.02-.3,0-.01,0-.03,0-.04,0-.07-.02-.13-.02-.2,0-.04,0-.08,0-.11,0-.03,0-.05-.02-.07-.01-.01,0-.03,0-.04.03-.03.03-.06,0-.1-.02-.03-.02-.03,0-.06.02-.03.02-.07,0-.1,0-.02,0-.03,0-.05,0-.05.01-.09.01-.14,0-.04,0-.07,0-.11,0-.01,0-.03,0-.04.02-.03.02-.06,0-.09,0-.01,0-.04,0-.05,0-.04,0-.08,0-.11,0-.01,0-.03,0-.04,0-.04,0-.08,0-.12,0,0,0-.02,0-.02,0-.02-.01-.04-.02-.06,0-.02,0-.05-.01-.07-.04-.08-.03-.17-.03-.26,0-.04,0-.08-.01-.12,0-.03,0-.06,0-.08-.01-.04,0-.08.01-.11.01-.03,0-.06-.02-.08,0,0-.01,0-.02,0-.02,0-.04,0-.05-.02-.01-.02-.03-.02-.05-.02-.03,0-.06,0-.09,0-.05,0-.09,0-.14-.01,0,0-.02,0-.03,0-.03.02-.06.02-.09.02-.03,0-.05,0-.08.01-.01,0-.02,0-.03,0-.03,0-.06,0-.08,0-.04.03-.09.02-.13.04-.02,0-.05.01-.07.03-.02.01-.05.02-.08.02-.03,0-.05,0-.07.03-.02.03-.06.04-.09.05-.02,0-.04.01-.05.03,0,0-.02.01-.03.01-.03,0-.05.01-.08.02-.02.03-.05.06-.07.09,0,0,0,0,0,0-.05.02-.08.07-.12.11,0,0,0,0,0,0-.01.04-.02.06-.03.09-.01.03-.05.04-.08.05-.01,0-.02,0-.03.02-.01.01-.03.02-.05.02-.03,0-.06,0-.08,0-.04,0-.08,0-.12.01-.03.01-.06.02-.09.03-.01,0-.02.03-.02.03.01.03-.02.05-.03.08,0,.02,0,.03-.01.05,0,.02-.01.03-.02.05,0,0,0,.02-.01.02-.02.05-.04.1-.05.15,0,.01-.01.03-.02.03-.02.01-.03.03-.03.05,0,.02-.01.04-.01.06,0,.02,0,.04-.01.06,0,.04,0,.07-.04.09,0,0-.01.03-.01.04,0,.03,0,.07-.01.1-.02.04-.02.09-.03.13,0,.01-.01.03-.02.04,0,0,0,.02-.01.03-.01.02-.03.04-.04.06,0,0-.01.01-.02.02,0,.02-.02.05-.04.06,0,0,0,.02,0,.03,0,.02,0,.04,0,.06,0,0,0,.02,0,.03-.05.05-.05.12-.09.17-.02.02-.04.04-.06.06,0,0-.02.01-.02.02,0,.06-.06.09-.08.14,0,0-.02.01-.02.02,0,0-.02.02-.03.03,0,0,0,.01,0,.01-.06.03-.09.09-.14.13-.03.02-.05.04-.09.04-.02,0-.03.01-.03.03,0,.03-.02.06-.05.07-.04.03-.09.06-.14.08,0,0,0,0,0,0-.03,0-.06.02-.09.03-.03.02-.07.03-.1.05-.02.01-.04.03-.07.01,0,0-.02,0-.02.01,0,.02-.02.02-.04.02-.05.01-.09.02-.14.04-.01,0-.02.02-.04.02,0,0-.02.01-.02.01-.03,0-.05.01-.07.03-.01.01-.02.02-.04.01,0,0-.01,0-.01,0-.03.03-.07.02-.11.02-.04,0-.08,0-.11,0-.02,0-.04,0-.05.03-.02.04-.05.07-.11.06-.05,0-.11,0-.16,0,0,0-.02,0-.03,0-.03,0-.06,0-.1,0-.02,0-.05,0-.07.01-.03,0-.06.03-.09,0,0,0,0,0,0,0-.04.02-.09,0-.14,0-.02,0-.04,0-.07,0-.06,0-.11,0-.17,0,0,0-.02,0-.02,0-.02,0-.04-.02-.06-.02-.02,0-.04,0-.06,0-.02.02-.06.02-.09,0-.02-.02-.04-.02-.06-.02-.06,0-.1-.03-.14-.07-.02-.03-.05-.05-.08-.08-.02-.02-.03-.03-.02-.06,0-.03,0-.06,0-.09,0-.03.01-.05.04-.06,0,0,.01,0,.02-.01.04-.03.04-.03.01-.06-.02-.04-.03-.08-.03-.12,0-.02.01-.03.03-.03.05,0,.08-.04.11-.07.03-.03.06-.05.09-.08.02-.02.05-.03.08-.03.03,0,.07,0,.09-.04,0,0,.02,0,.02-.01.03-.01.05-.02.08-.03.01,0,.02,0,.03,0,.03,0,.06-.01.09-.02.01,0,.03,0,.04-.01.04,0,.09-.01.13-.02.01,0,.02-.02.03-.02.04,0,.07-.03.12-.02.04,0,.08,0,.11,0s.08,0,.11-.02c0,0,.02,0,.02-.01.04,0,.08-.01.12-.01.03,0,.06,0,.08-.04,0,0,0,0,0,0,.05,0,.08-.05.12-.06.01,0,.03,0,.04-.02,0,0,.02-.01.03-.01.02,0,.04,0,.06,0,.05,0,.06-.01.06-.06v-.02s.09-.07.15-.06c.01,0,.03,0,.04-.01.02,0,.05-.02.07-.02.01,0,.02-.01.03-.02.01-.02.03-.03.05-.03.05,0,.08-.04.09-.08,0-.06.05-.1.1-.14,0,0,.02-.02.03-.02.02-.02.03-.04.05-.05.02-.01.04-.02.04-.04,0,0,.01-.01.02-.02,0,0,.02,0,.02-.01.03-.03.05-.06.08-.09.04-.03.07-.06.09-.11,0-.02.02-.03.03-.04,0,0,.01,0,.01,0,0-.05.06-.07.06-.12,0,0,0,0,0,0,.02-.04.05-.07.05-.11,0-.01.03-.02.03-.04.02-.05.05-.09.07-.14.01-.03.02-.06.02-.09,0-.02,0-.05,0-.07,0-.01.01-.03.01-.04,0-.02.02-.04.02-.06,0-.1,0-.19,0-.29,0-.05,0-.09.02-.14.01-.02,0-.05,0-.08,0-.03,0-.05.02-.07,0,0,0-.02.01-.03,0-.02.01-.04.03-.05,0,0,.02-.02.02-.03,0-.03,0-.07,0-.1,0-.02,0-.04,0-.06,0-.03,0-.06,0-.09,0-.07,0-.13,0-.2,0-.04,0-.08,0-.11,0-.02,0-.03-.02-.05-.01,0-.02-.03-.02-.05,0-.02-.02-.03-.03-.05-.02-.04-.06-.04-.1-.04-.02,0-.04,0-.05-.02-.03-.02-.07-.03-.1-.05-.01,0-.03,0-.03-.01-.02-.03-.04-.03-.06-.03-.02,0-.03,0-.05.02-.05.04-.1.07-.17.07-.04,0-.07.02-.08.05-.01.02-.02.04-.05.04,0,0,0,0-.01,0-.04.03-.09.04-.14.04-.06,0-.11,0-.17-.01-.04-.01-.08-.04-.12-.05,0,0-.01-.01-.02-.02-.01-.03-.03-.07-.04-.1,0,0,0-.02,0-.03.02-.03.03-.07.03-.11,0-.03.02-.05.05-.06.05-.03.06-.06.03-.11-.01-.02,0-.04,0-.04.03-.02.05-.05.08-.08,0,0,0,0,0,0,0-.07.07-.1.09-.16,0,0,.01-.02.01-.03,0-.07.06-.09.09-.14.03-.02.06-.03.09-.05.02,0,.04-.01.06-.01.03,0,.06,0,.06-.04.05-.03.08-.09.14-.1,0,0,.01,0,.01,0,.03-.04.07-.04.11-.04.01,0,.03,0,.03-.01.02-.03.05-.03.08-.03.02,0,.04,0,.05-.02,0,0,.02-.02.04-.02.06,0,.12-.03.17-.06.01,0,.03-.01.05-.02.02-.01.05-.02.07-.03.03,0,.06-.01.09-.02.02,0,.03,0,.05-.01.01,0,.02,0,.04-.01,0,0,0,0,0,0,.06-.04.13-.02.19-.05.05-.02.1-.02.15-.03.04,0,.08-.01.13,0,.01,0,.02-.01.04-.02.03.02.06,0,.1,0,.02,0,.04,0,.06-.01.02,0,.04,0,.05-.01.03-.03.07-.03.11-.03.05,0,.1,0,.15,0,.12,0,.24,0,.37,0,.06,0,.11,0,.17.01.02,0,.05,0,.07,0,.02,0,.04,0,.06,0,.02,0,.05,0,.07.01.04.02.08.03.13.02.05,0,.1,0,.15,0,.03,0,.07,0,.11-.02-.05-.1-.03-.2-.03-.3,0-.04,0-.08,0-.12,0-.02,0-.03.02-.03.02,0,.04,0,.06,0,.04,0,.04,0,.04-.04,0-.03.02-.06.05-.07.02,0,.03-.02.04-.03,0-.02.03-.03.04-.04.01-.01.03-.01.04,0,.02.02.05.02.07.03.03,0,.07,0,.09.03,0,0,0,0,0,0,.05,0,.1.02.15.01.05,0,.11,0,.16,0,.03,0,.05.02.07.04.01.01.02.01.04.01.02,0,.05,0,.07,0,.03,0,.05,0,.07.02.04.02.08.06.13.04,0,.02.01.04.02.06,0,.02.01.03.03.04.02,0,.03.02.04.03.02.01.02.03.01.05,0,.01,0,.03,0,.04,0,.02,0,.05.01.07,0,.02.02.05.03.07.01.02.03.04.03.06,0,.04,0,.09-.03.12,0,.01-.01.02,0,.03.01.01.04.01.05,0,.01-.03.04-.03.06-.03.04,0,.08,0,.12,0h.16s.02,0,.03,0c.07.03.14.03.22.03.07,0,.14,0,.2,0,.02,0,.05.01.07.03.02,0,.03.01.05.01.04,0,.08-.01.12-.01.05,0,.09,0,.14.01.03.01.06,0,.1,0s.07,0,.1,0c.01,0,.02,0,.03,0,.02.02.05.02.07.02.02,0,.03,0,.05,0,.04,0,.07,0,.09.04.02,0,.04-.02.06,0,0,0,.02,0,.02,0,0,0,.02,0,.02,0,.02.01.04,0,.05,0,.02.01.04.02.06.02.06,0,.11.02.17.02,0,0,0,0,.01,0,.05,0,.08.02.11.05.02.02.04.04.07.04,0,0,.02.02.03.03,0,.02.02.03.04.03.02,0,.04.02.06.02,0,0,.02,0,.02.01.05.01.08.04.12.07,0,0,.02.02.02.01.04,0,.07,0,.1.01.03,0,.04.02.04.04,0,.05.02.09.05.14.02.04.02.09,0,.13,0,0-.01.01-.02.02-.02.01-.03.03-.03.06,0,.01,0,.03,0,.04,0,.04-.02.07-.07.08-.05,0-.09.03-.11.07,0,0-.02.01-.03.02-.02.01-.03.02-.05.03-.02,0-.04,0-.06-.01-.03,0-.05-.02-.07-.03-.04-.02-.09-.03-.12,0-.02.02-.02.04-.04.06-.01,0-.03.01-.04.02-.04.03-.04.03-.1.01,0,0,.01-.02.02-.02,0,0,.02,0,.03-.02,0-.01,0-.03-.02-.03-.01,0-.03-.01-.04-.02-.02,0-.03.02-.04.05-.03.01-.04,0-.04-.02-.05,0-.09,0-.13,0-.01,0-.03-.01-.04-.02-.02,0-.04-.03-.07-.02,0,0,0,0-.01,0-.02-.01-.04-.04-.07-.03-.02,0-.05-.02-.07-.02-.02,0-.04,0-.07,0-.02,0-.04,0-.05-.02,0,0-.02-.01-.03-.01-.02,0-.05-.01-.07,0-.05,0-.09-.01-.13-.03-.01,0-.02-.01-.03-.02,0,0-.02-.01-.03-.01-.02,0-.04,0-.05,0-.03,0-.06,0-.09,0,0,0-.01,0-.02,0-.04-.01-.07-.02-.11-.04-.03.03-.06.03-.1.02-.08-.02-.16-.02-.24,0-.05,0-.1,0-.14-.01-.05-.02-.11-.02-.16,0-.03,0-.06.01-.09,0-.02,0-.04-.01-.06-.01-.05,0-.09,0-.14,0-.05,0-.11,0-.16,0h-.09c-.07,0-.13,0-.2,0-.05,0-.1,0-.16,0-.08,0-.15,0-.23,0-.05,0-.09-.02-.14-.02,0,0-.02,0-.02,0-.05.03-.11,0-.17.01,0,0-.01,0-.02,0-.03,0-.04,0-.06-.02-.01,0-.02.02-.03.02,0,0,0,0-.01,0-.01,0-.02-.02-.03,0-.02.02-.04,0-.05-.01-.02.01-.04.02-.06,0,0,0-.02,0-.02,0-.02.02-.03,0-.05,0-.01.02-.03.03-.06.03-.04,0-.08,0-.12,0-.06,0-.12,0-.18,0-.03,0-.05,0-.08,0-.02,0-.04,0-.06,0-.06-.02-.11,0-.17,0-.04,0-.08,0-.11.03,0,0-.01,0-.02,0-.03,0-.07,0-.1.01-.03.01-.07.02-.1.03-.04.02-.09.01-.14.01-.02,0-.04,0-.06.01-.04.02-.08.04-.12.05,0,0-.01,0-.02,0-.04-.02-.07,0-.11,0,0,0-.02,0-.03,0-.04,0-.07.02-.08.06,0,0-.01.01-.02.02,0,0,.02.01.03.02.09.03.11.11.13.19.01.05.01.11,0,.16,0,.03,0,.06,0,.08,0,.08,0,.15-.02.23,0,0,0,0,0,0,.02.03,0,.06-.01.09-.01.03-.02.06-.04.08,0,0,0,.01,0,.02.04.01.07.02.11.04,0,0,.02-.02.04-.03.04-.04.09-.05.14-.05.01,0,.02,0,.03,0,.04-.03.1-.03.15-.04,0,0,.02,0,.03,0,.03-.03.07-.03.11-.04.03,0,.05,0,.08-.03,0,0,.02-.01.04-.01.02,0,.05,0,.07-.03,0,0,0,0,0,0,.05,0,.1-.02.15-.03.02,0,.05,0,.08,0,.06-.01.12-.02.18-.03.02,0,.05,0,.07,0,.01,0,.02,0,.03,0,.05-.01.11-.02.16-.03,0,0,.01,0,.02,0,.03,0,.04,0,.05-.03.02,0,.03.01.05,0,.03-.01.07-.01.1-.01.08,0,.15,0,.22-.03.03,0,.06-.02.1,0,.01,0,.03,0,.04,0,.09,0,.17-.02.26-.02.13,0,.27,0,.4,0,.05,0,.09,0,.14,0,.03,0,.05.02.08.02.04,0,.09.01.13.01.04,0,.08,0,.12.03.02.01.05.01.07.02.07.01.14.03.22.02,0,0,.02,0,.02,0,0,0,.02,0,.03,0,0,.02,0,.03,0,.04.01,0,.03.02.04,0,0,0,.01,0,.02,0,.06,0,.11,0,.17,0,.02,0,.04.01.06.03.02,0,.04,0,.06,0,.04.01.07.02.11.04.03.01.07.01.1.02.03,0,.05,0,.07.02.01,0,.03,0,.04-.02.01.02.04.02.06.02.03,0,.06,0,.1.01.07,0,.14,0,.2,0,.03,0,.06,0,.09.01.02,0,.05.02.07.02.09,0,.18,0,.27,0,.06,0,.12,0,.18,0,.03,0,.05.01.07.02,0,0,.01,0,.02,0,.05-.01.1,0,.15,0,.06,0,.12,0,.19-.01.03,0,.05,0,.08,0,.01,0,.02,0,.03,0,.01,0,.02-.01.04,0,0,0,.01,0,.02,0,.07-.03.15-.04.22-.03.02,0,.03,0,.04.02,0,0,.02.02.02.02.02-.02.03-.03.05-.04.02,0,.04,0,.06-.01.01,0,.03,0,.04-.01.04-.04.08-.03.13-.02.01.07,0,.12-.06.16-.02.01-.03.03-.05.04,0,0,0,.01,0,.02,0,.01,0,.02,0,.04,0,.03-.02.04-.05.04-.01,0-.03,0-.04,0-.02,0-.03.01-.03.03,0,.03-.01.05-.03.06M46.92,5.01s0,0,0,0M37.81,8.11s0-.02,0-.03c-.02-.04-.08-.05-.11-.02,0,0,0,.01,0,.02,0,.01.04.03.06.03.02,0,.04,0,.06,0M39.33,7.07s.03,0,.05-.01c0-.02-.02-.03-.04-.03-.02,0-.02.02-.01.04"/>
      <path class="cls-1" d="M5.52,8.62h1.23s0-1.23,0-1.23h1.23s0,1.23,0,1.23h1.23s0-1.23,0-1.23h-1.23s0-1.23,0-1.23h-1.23s0,1.23,0,1.23h-1.23s0,1.23,0,1.23h-1.23s0-1.23,0-1.23h1.23s0-1.24,0-1.24h1.23s0-1.23,0-1.23h1.23s0-1.23,0-1.23h1.23s0,1.23,0,1.23h-1.23s0,1.23,0,1.23h1.23s0,1.23,0,1.23h1.23s0-1.23,0-1.23h-1.23s0-1.23,0-1.23h1.23s0-1.23,0-1.23h-1.23s0-1.23,0-1.23h-1.23s0,1.23,0,1.23h-1.23s0,1.23,0,1.23h-1.23s0-1.23,0-1.23h-1.23s0,1.23,0,1.23h1.23s0,1.23,0,1.23h-1.23s0,1.24,0,1.24h-1.23s0-1.23,0-1.23h1.23s0-1.23,0-1.23h-1.23s0-1.22,0-1.22h1.23s0-1.23,0-1.23h1.23s0,1.22,0,1.22h1.23s0-1.23,0-1.23h-1.23s0-1.22,0-1.22h1.23s0,1.22,0,1.22h1.23s0-1.23,0-1.23h-1.23s0-1.23,0-1.23h-1.21C2.45.02-.01,2.5,0,5.55c.01,3.05,2.5,5.53,5.55,5.53h1.21s0-1.24,0-1.24h1.23s0-1.23,0-1.23h-1.23s0,1.23,0,1.23h-1.23"/>
      <path class="cls-1" d="M64.65,7.32s.06-.02.08.02c.11.15.21.31.3.47.11-.13.21-.27.29-.42.05-.09.08-.17.1-.23.1.05.16.08.23.14.03.02.04.04.04.06s-.02.04-.04.06c-.04.02-.1.11-.12.15-.11.18-.23.34-.36.49.25.55.35,1.17.35,1.98,0,.96-.18,1.22-.62,1.22-.07,0-.16,0-.26,0q-.07,0-.08-.1c-.02-.09-.05-.15-.08-.2.16.02.29.03.39.03.26,0,.39-.12.39-.93,0-.32-.01-.61-.05-.87-.22.38-.46.68-.74.93-.03.03-.05.04-.07.04-.02,0-.03-.02-.06-.06-.04-.06-.07-.12-.11-.15.38-.31.68-.67.92-1.11-.04-.2-.1-.4-.17-.58-.14.13-.31.27-.52.42-.03.02-.05.04-.07.04-.02,0-.03-.02-.05-.06-.04-.06-.08-.1-.12-.13.24-.16.46-.33.64-.51-.07-.13-.15-.26-.24-.38-.04-.05-.08-.1-.12-.16-.02-.02-.02-.03-.02-.04,0,0,.01-.02.05-.04l.13-.07ZM67.82,10.08s.05-.02.07.01c.24.36.39.66.55,1.06.01.03,0,.05-.05.06l-.13.06c-.05.03-.06.02-.07-.02-.05-.15-.11-.29-.16-.43-.69.13-1.27.22-1.99.3-.13.02-.17.03-.2.05-.03.02-.05.03-.08.03-.03,0-.05-.02-.05-.05-.03-.1-.05-.19-.08-.3.18,0,.34,0,.47,0,.26-.02.53-.05.79-.08v-1.07h-.72v.24s0,.04-.04.04h-.2s-.04,0-.04-.04c0-.03,0-.13,0-.83v-.4c0-.4,0-.52,0-.55,0-.03,0-.04.04-.04.03,0,.18,0,.61,0h.35v-.32c0-.31,0-.43-.03-.58.12,0,.2,0,.3.02.03,0,.06.02.06.04s0,.05-.02.08c-.01.05-.03.15-.03.43v.33h.4c.43,0,.58,0,.61,0,.03,0,.04,0,.04.04,0,.02,0,.14,0,.48v.45c0,.68,0,.8,0,.82,0,.03,0,.03-.04.03h-.2s-.04,0-.04-.03v-.21h-.77v1.04c.26-.04.52-.08.77-.13-.07-.14-.15-.28-.25-.42-.02-.03-.01-.04.04-.06l.12-.06ZM66.88,8.38h-.72v1.09h.72v-1.09ZM67.91,8.38h-.77v1.09h.77v-1.09Z"/>
      <path class="cls-1" d="M73,10.99s0,.04-.04.04c-.03,0-.17,0-.6,0h-2.82c-.43,0-.57,0-.6,0-.03,0-.04,0-.04-.04v-.23s0-.04.04-.04c.02,0,.17,0,.6,0h1.61c.25-.59.42-1.14.55-1.62.05-.21.08-.33.09-.48.12.03.22.06.32.1.04.01.05.03.05.05,0,.03-.02.06-.04.08-.04.04-.06.11-.09.2-.17.57-.35,1.1-.59,1.67h.91c.43,0,.57,0,.6,0,.03,0,.04,0,.04.04v.23ZM72.76,8.29s0,.04-.04.04c-.02,0-.18-.01-.64-.01h-2.28c-.46,0-.61.01-.64.01-.03,0-.04,0-.04-.04v-.22s0-.04.04-.04c.03,0,.18,0,.64,0h.94v-.38c0-.23,0-.36-.03-.47.15,0,.22,0,.32.02.04,0,.06.02.06.04,0,.03,0,.05-.02.08-.02.04-.03.12-.03.32v.38h1.04c.46,0,.61,0,.64,0,.03,0,.04,0,.04.04v.22ZM69.96,8.67s.06-.01.06.01c.19.49.36.99.47,1.62,0,.03,0,.05-.05.06l-.16.05c-.07.02-.08.01-.09-.03-.1-.62-.24-1.09-.44-1.6-.01-.03,0-.04.06-.06l.15-.05Z"/>
      <path class="cls-1" d="M74.25,9.84c0-.18,0-.42,0-.6-.15.16-.31.32-.5.48-.03.03-.05.04-.06.04-.01,0-.03-.02-.05-.05-.03-.07-.07-.12-.12-.16.42-.32.78-.72,1.01-1.12.04-.07.08-.15.1-.22.09.04.17.09.24.13.03.02.04.04.04.06,0,.02-.01.04-.03.05-.03.02-.07.06-.1.11-.08.13-.17.26-.26.38v1.74c0,.4,0,.57,0,.6,0,.03,0,.04-.04.04h-.22s-.04,0-.04-.04c0-.02,0-.19,0-.6v-.83ZM74.84,7.41s-.06.06-.11.12c-.22.28-.52.59-.9.86-.03.02-.05.03-.06.03-.02,0-.04-.02-.07-.07-.04-.05-.08-.1-.13-.14.36-.24.71-.55.93-.86.06-.08.08-.15.1-.2.1.04.17.08.25.14.03.02.04.03.04.06s-.02.04-.06.06M77.66,8.84s0,.04-.04.04c-.02,0-.18,0-.63,0h-.15v1.07c0,.46.01.68.01.85,0,.2-.03.3-.12.37-.08.07-.21.09-.64.09q-.09,0-.11-.1c-.02-.07-.05-.15-.1-.21.15.01.27.02.44.02.19,0,.25-.03.25-.18v-1.91h-.84c-.45,0-.61,0-.63,0-.03,0-.04,0-.04-.04v-.2s0-.04.04-.04c.03,0,.18,0,.63,0h1.27c.45,0,.61,0,.63,0,.03,0,.04,0,.04.04v.2ZM77.42,7.71s0,.04-.04.04c-.03,0-.15,0-.57,0h-.87c-.42,0-.54,0-.57,0-.03,0-.04,0-.04-.04v-.2s0-.04.04-.04c.02,0,.15,0,.57,0h.87c.42,0,.55,0,.57,0,.03,0,.04,0,.04.04v.2Z"/>
      <path class="cls-1" d="M79.39,10.3c.25-.09.53-.18.82-.3,0,.07-.01.13-.01.19q0,.09-.09.12c-.57.23-1.15.4-1.67.55-.1.03-.16.05-.18.07-.03.02-.04.03-.06.03-.02,0-.03-.02-.05-.05-.04-.08-.08-.19-.1-.27.11-.01.22-.03.36-.06v-1.37c0-.24,0-.35-.03-.47.11,0,.21.01.29.03.03,0,.05.02.05.04,0,.03-.01.06-.03.08-.01.03-.02.11-.02.32v1.3c.14-.04.29-.08.44-.13v-2.5h-.34c-.4,0-.53,0-.55,0-.03,0-.04,0-.04-.04v-.19s0-.04.04-.04c.02,0,.15,0,.55,0h.79c.4,0,.53,0,.55,0,.03,0,.04,0,.04.04v.19s0,.04-.04.04c-.03,0-.15,0-.55,0h-.18v.99h.17c.26,0,.31-.01.34-.01.03,0,.04,0,.04.04v.19s0,.04-.04.04c-.03,0-.08,0-.34,0h-.17v1.18ZM82.27,8.26s0,.04-.04.04c-.02,0-.12,0-.38,0-.06.66-.26,1.29-.55,1.77.25.32.59.63,1.1.94-.07.05-.12.11-.15.18-.02.04-.04.06-.06.06-.02,0-.04-.01-.07-.04-.42-.3-.72-.6-.97-.92-.27.34-.68.68-1.29.96-.03.01-.06.03-.07.03-.02,0-.04-.02-.07-.07-.04-.07-.1-.12-.14-.16.66-.26,1.12-.61,1.41-1-.23-.36-.41-.8-.52-1.24-.08.17-.17.33-.27.49-.02.04-.04.05-.05.05-.02,0-.03-.01-.06-.04-.05-.06-.11-.1-.15-.12.35-.48.58-1.14.69-1.62.05-.2.07-.32.07-.45.1.02.19.04.27.07.04.01.06.03.06.05,0,.02,0,.03-.03.06-.03.04-.06.14-.08.23-.05.17-.09.35-.15.52h.92c.4,0,.53,0,.55,0,.03,0,.04,0,.04.04v.19ZM80.68,8.28l-.05.14c.11.54.26,1,.5,1.39.2-.35.37-.84.43-1.53h-.88Z"/>
      <path class="cls-1" d="M82.86,8.44s.05-.04.07-.02c.22.13.45.29.65.48.02.02.02.03,0,.07l-.11.13c-.05.06-.05.06-.08.03-.19-.2-.42-.38-.63-.51-.03-.02-.03-.03,0-.06l.1-.12ZM83.22,11.03c-.04.1-.07.17-.08.21,0,.03-.02.06-.04.06-.02,0-.04,0-.07-.02-.08-.05-.14-.09-.22-.15.09-.11.14-.2.21-.34.14-.28.29-.65.42-1.11.05.06.09.09.16.14.07.04.07.05.04.14-.12.38-.28.76-.42,1.09M83.13,7.29s.05-.04.07-.02c.22.14.43.31.61.5.02.03.02.05-.01.09l-.1.12s-.05.05-.07.02c-.18-.2-.42-.41-.61-.53-.03-.02-.03-.03.01-.07l.1-.11ZM86.85,9.44s0,.04-.03.04c-.03,0-.19-.01-.66-.01h-.98c-.15.49-.31.91-.47,1.27.51-.05.96-.11,1.44-.18-.13-.19-.27-.36-.42-.53-.03-.03-.02-.04.03-.07l.12-.07s.05-.02.07,0c.33.36.59.72.85,1.17.01.03.01.04-.03.07l-.13.08c-.06.04-.07.04-.08,0-.08-.15-.16-.29-.25-.43-.73.12-1.35.2-2.13.29-.13.01-.17.03-.19.04-.03.01-.05.03-.07.03s-.05-.03-.06-.06c-.03-.09-.05-.19-.07-.29.19,0,.34,0,.47-.01h.17c.17-.41.34-.83.47-1.31h-.4c-.47,0-.63.01-.66.01-.03,0-.04,0-.04-.04v-.19s0-.04.04-.04c.03,0,.19,0,.66,0h.61v-.84h-.4c-.45,0-.6,0-.62,0-.03,0-.04,0-.04-.04v-.19s0-.04.04-.04c.02,0,.17,0,.62,0h.4v-.33c0-.31,0-.44-.03-.6.12,0,.2,0,.3.02.03,0,.05.02.05.04,0,.03,0,.05-.02.08-.01.04-.03.17-.03.44v.34h.58c.45,0,.6,0,.63,0,.03,0,.04,0,.04.04v.19s0,.04-.04.04c-.02,0-.17,0-.63,0h-.58v.84h.79c.47,0,.63,0,.66,0,.03,0,.03,0,.03.04v.19Z"/>
      <path class="cls-1" d="M91.29,11.14s-.04.06-.06.06c-.02,0-.04,0-.07-.03-1.05-.67-1.55-1.62-1.72-2.55-.19,1.16-.82,2.01-1.76,2.54-.03.02-.05.03-.07.03-.02,0-.03-.02-.06-.07-.05-.07-.11-.12-.17-.17,1.24-.6,1.88-1.81,1.86-3.14,0-.25,0-.39-.03-.55.11,0,.25.02.35.04.04.01.06.03.06.06,0,.04-.01.06-.03.09-.02.05-.04.14-.04.26,0,.08,0,.16,0,.24.19,1.24.7,2.3,1.91,2.99-.06.05-.12.11-.16.19"/>
      <path class="cls-1" d="M95.3,9.54c0,1.32.01,1.55.01,1.58,0,.03,0,.04-.04.04h-.22s-.04,0-.04-.04v-.28h-2.14v.29s0,.04-.03.04h-.23s-.04,0-.04-.04c0-.03,0-.26,0-1.59v-.89c0-.9,0-1.14,0-1.17,0-.03,0-.04.04-.04.03,0,.18,0,.64,0h1.37c.46,0,.61,0,.64,0,.03,0,.04,0,.04.04,0,.03-.01.27-.01,1.05v1.01ZM95.02,7.72h-2.14v1.25h2.14v-1.25ZM95.02,9.23h-2.14v1.34h2.14v-1.34Z"/>
      <path class="cls-1" d="M98.71,8.4c.43.76,1.07,1.42,1.91,1.87-.05.05-.1.11-.13.18-.03.05-.04.07-.06.07-.02,0-.04-.01-.07-.03-.78-.49-1.4-1.15-1.8-1.94,0,.57,0,1.14,0,1.6h.33c.42,0,.55-.01.58-.01.03,0,.04,0,.04.04v.2s0,.04-.04.04c-.03,0-.16,0-.58,0h-.33c0,.48.02.82.02.87,0,.03,0,.04-.04.04h-.24s-.04,0-.04-.04c0-.06,0-.39.01-.87h-.28c-.42,0-.55,0-.57,0-.03,0-.04,0-.04-.04v-.2s0-.04.04-.04c.02,0,.16.01.57.01h.29c0-.45.01-.99.01-1.55-.39.78-1,1.46-1.69,1.91-.04.02-.06.04-.07.04-.02,0-.04-.02-.06-.06-.04-.07-.08-.12-.14-.17.69-.38,1.39-1.1,1.8-1.91h-.98c-.44,0-.59,0-.62,0-.03,0-.04,0-.04-.04v-.21s0-.04.04-.04c.02,0,.18,0,.62,0h1.11v-.41c0-.29,0-.39-.03-.56.11,0,.23.01.32.03.03,0,.05.02.05.04,0,.04-.02.06-.03.1-.01.06-.02.13-.02.39v.42h1.21c.44,0,.6,0,.62,0,.03,0,.04,0,.04.04v.21s0,.04-.04.04c-.02,0-.17,0-.62,0h-1.08Z"/>
      <path class="cls-1" d="M105.11,7.91s0,.04-.04.04c-.03,0-.17,0-.61,0h-.63v.03c0,.27,0,.38,0,.4,0,.03,0,.04-.04.04h-.21s-.04,0-.04-.04c0-.03,0-.13,0-.4v-.03h-.97v.04c0,.26,0,.36,0,.39,0,.03,0,.04-.04.04h-.21s-.04,0-.04-.04c0-.03,0-.13,0-.39v-.04h-.61c-.43,0-.58,0-.61,0-.03,0-.04,0-.04-.04v-.19s0-.04.04-.04c.02,0,.17.01.61.01h.61c0-.19,0-.37-.03-.49.12,0,.21,0,.28.02.04,0,.06.02.06.05,0,.02,0,.03-.02.07-.02.05-.03.15-.03.34v.02h.97c0-.2,0-.38-.03-.5.12,0,.2.01.29.03.03,0,.05.02.05.04s0,.04-.02.06c-.01.04-.03.15-.03.35h0s.63.01.63.01c.43,0,.58-.01.61-.01.03,0,.04,0,.04.04v.19ZM105.11,9.76s0,.04-.04.04c-.03,0-.17,0-.61,0h-1.64c-.13.35-.29.68-.44.97.61-.05,1.24-.11,1.74-.18-.11-.13-.23-.27-.37-.4-.02-.02-.03-.04.03-.07l.1-.06s.06-.03.08-.01c.35.34.65.68.89,1.05.02.03.01.04-.03.07l-.13.09s-.05.03-.06.03-.02,0-.03-.03c-.09-.15-.19-.3-.3-.44-.79.12-1.76.23-2.59.29-.13.01-.16.02-.19.04-.03.01-.05.03-.07.03-.03,0-.05-.01-.06-.06-.03-.09-.05-.19-.07-.3.19,0,.34,0,.48,0h.27c.17-.34.33-.68.45-1.01h-.72c-.44,0-.58,0-.61,0-.03,0-.04,0-.04-.04v-.21s0-.04.04-.04c.03,0,.17,0,.61,0h2.68c.44,0,.58,0,.61,0,.03,0,.04,0,.04.04v.21ZM104.59,8.93s0,.03-.04.03c-.03,0-.19,0-.65,0h-1.62c-.47,0-.62,0-.65,0-.04,0-.04,0-.04-.03v-.21s0-.04.04-.04c.02,0,.18,0,.65,0h1.62c.47,0,.62,0,.65,0,.03,0,.04,0,.04.04v.21Z"/>
      <path class="cls-1" d="M106.12,9.82c0-.17,0-.39.01-.57-.11.12-.23.25-.37.37-.02.02-.04.04-.06.04-.02,0-.03-.02-.05-.05-.03-.07-.06-.12-.11-.17.41-.34.65-.66.85-1.05.04-.07.07-.16.09-.23.09.04.16.08.23.13.03.02.05.04.05.06s-.01.04-.04.06c-.03.02-.07.06-.11.13-.07.12-.15.25-.24.38v1.72c0,.4,0,.57,0,.6,0,.03,0,.04-.04.04h-.21s-.04,0-.04-.04c0-.02.01-.19.01-.6v-.83ZM106.75,7.41s-.07.05-.12.11c-.21.3-.46.57-.82.85-.03.02-.05.04-.06.04-.02,0-.03-.02-.06-.06-.04-.07-.07-.12-.12-.16.35-.23.61-.52.82-.82.06-.09.09-.15.1-.21.09.04.18.09.24.13.03.02.05.04.05.07s-.01.04-.04.05M107.24,9.14s-.04.1-.05.18c-.05.35-.13.78-.29,1.16-.01.04-.02.06-.04.06-.01,0-.03-.01-.06-.02-.07-.03-.12-.05-.18-.05.19-.42.28-.82.31-1.13,0-.11.01-.24,0-.33.11,0,.2.02.26.04.05,0,.06.02.06.05,0,.02-.01.04-.02.06M108.46,8.41s0,.04-.04.04c-.02,0-.12,0-.48,0h-.14v2c0,.54,0,.77,0,.8,0,.03,0,.04-.04.04h-.21s-.04,0-.04-.04c0-.03.01-.26.01-.8v-2h-.14c-.36,0-.46,0-.49,0-.03,0-.04,0-.04-.04v-.19s0-.04.04-.04c.03,0,.13,0,.49,0h.14v-.39c0-.3,0-.44-.03-.6.12,0,.21.01.3.03.03,0,.05.02.05.04,0,.03-.01.05-.02.08-.02.06-.03.15-.03.44v.4h.14c.36,0,.46,0,.48,0,.03,0,.04,0,.04.04v.19ZM108.11,7.36s.05-.02.07,0c.12.14.2.27.29.45.01.03.01.04-.03.06l-.09.06c-.06.04-.07.04-.08,0-.08-.17-.17-.32-.28-.46-.02-.03-.02-.04.02-.06l.1-.06ZM108.25,8.99s.05,0,.06.02c.14.41.22.79.29,1.22,0,.03,0,.04-.05.06l-.13.05c-.06.02-.07.02-.08-.02-.06-.44-.14-.83-.26-1.23-.01-.03-.01-.04.04-.06l.12-.04ZM109.82,8.68s0,.04-.04.04c-.02,0-.11-.01-.41-.01h-.02v1.37c0,.32,0,.53,0,.72,0,.15-.03.27-.12.34-.09.06-.24.07-.56.07q-.09,0-.11-.1c-.01-.06-.05-.14-.08-.19.16.02.3.03.42.03.11,0,.17-.05.17-.19v-2.05h-.12c-.3,0-.39.01-.41.01-.04,0-.04,0-.04-.04v-.19s0-.04.04-.04c.02,0,.11,0,.41,0h.42c.31,0,.39,0,.41,0,.03,0,.04,0,.04.04v.19ZM109.71,7.73s0,.04-.03.04c-.03,0-.1,0-.36,0h-.3c-.27,0-.34,0-.36,0-.03,0-.04,0-.04-.04v-.19s0-.04.04-.04c.02,0,.09,0,.36,0h.3c.26,0,.33,0,.36,0,.03,0,.03,0,.03.04v.19Z"/>
      <path class="cls-1" d="M113.47,8.26c-.2.75-.49,1.3-.92,1.73.45.38,1.05.72,1.85.97-.06.06-.1.14-.14.21-.03.06-.04.07-.07.07-.01,0-.04,0-.07-.02-.77-.29-1.35-.65-1.79-1.04-.45.4-1.03.73-1.78,1.02-.03,0-.05.02-.07.02-.03,0-.04-.02-.07-.07-.04-.07-.09-.14-.14-.19.84-.28,1.4-.6,1.84-.98-.44-.46-.72-1-.94-1.73h-.16c-.44,0-.59,0-.61,0-.03,0-.04,0-.04-.04v-.21s0-.04.04-.04c.02,0,.17,0,.61,0h1.15v-.32c0-.23,0-.38-.04-.51.11,0,.22,0,.32.02.03,0,.06.02.06.04,0,.03-.01.06-.03.09-.02.05-.02.11-.02.35v.32h1.22c.44,0,.59,0,.61,0,.04,0,.04,0,.04.04v.21s0,.04-.04.04c-.02,0-.17,0-.61,0h-.21ZM111.47,8.26c.2.64.44,1.12.87,1.54.4-.41.65-.89.82-1.54h-1.69Z"/>
      <path class="cls-1" d="M115.68,9.38c0-.19.01-.47.01-.7-.18.26-.39.5-.61.73-.03.03-.05.05-.07.05-.02,0-.04-.02-.05-.06-.03-.07-.07-.13-.12-.18.54-.5.94-1.07,1.19-1.69.05-.11.08-.22.08-.3.12.03.2.06.28.11.04.02.05.03.05.06s-.01.04-.04.06c-.03.02-.06.07-.11.18-.1.22-.21.44-.34.66v2.28c0,.48.01.69.01.72,0,.03,0,.04-.04.04h-.22s-.04,0-.04-.04c0-.02,0-.23,0-.72v-1.17ZM117.17,10.53c0,.22.04.31.18.35.11.03.29.03.58.03s.45-.03.56-.12c.09-.08.15-.27.18-.68.06.05.12.09.2.12.08.03.08.04.07.12-.04.39-.11.58-.26.69-.16.11-.42.15-.76.15-.37,0-.61,0-.76-.06-.16-.06-.27-.18-.27-.49v-2.87c0-.24,0-.38-.03-.52.12,0,.21.01.31.03.04,0,.06.02.06.04,0,.03-.01.05-.02.08-.02.05-.03.11-.03.35v1.35c.38-.24.75-.52,1.1-.88.07-.07.14-.16.18-.24.09.06.18.12.24.19.03.03.04.05.04.07,0,.03-.03.05-.07.06-.05.02-.13.09-.24.19-.33.32-.74.61-1.25.93v1.11Z"/>
      <path class="cls-1" d="M120.37,9.29c.16-.07.33-.14.5-.23,0,.05-.01.11-.01.17,0,.09,0,.1-.09.14-.13.06-.27.12-.4.18v.56c0,.3,0,.52,0,.7,0,.22-.04.3-.13.37-.09.06-.17.08-.45.08-.09,0-.1,0-.11-.09-.02-.08-.05-.15-.08-.2.1.01.18.02.32.02s.18-.05.18-.22v-1.1c-.09.04-.18.07-.26.1-.1.04-.15.06-.17.09-.02.01-.04.03-.06.03-.02,0-.03-.01-.05-.04-.03-.08-.06-.17-.08-.27.12-.02.24-.06.41-.11l.21-.07v-1.04h-.14c-.31,0-.4,0-.42,0-.03,0-.04,0-.04-.04v-.19s0-.04.04-.04c.02,0,.11,0,.42,0h.14v-.38c0-.28,0-.41-.03-.56.11,0,.2.01.3.02.03,0,.05.02.05.04,0,.03-.01.06-.03.09-.02.05-.02.13-.02.4v.39h.02c.31,0,.4,0,.42,0,.03,0,.04,0,.04.04v.19s0,.04-.04.04c-.03,0-.11,0-.42,0h-.02v.93ZM122.61,9.2c.04.27.11.53.21.76.15-.11.26-.21.39-.33.06-.05.1-.11.14-.17.07.06.13.11.18.17.02.02.02.03.02.05,0,.03-.01.04-.05.05-.04.01-.07.03-.15.09-.14.12-.27.22-.45.35.19.36.46.66.82.87-.06.04-.1.09-.14.15-.03.05-.04.06-.07.06-.01,0-.04-.01-.07-.04-.65-.47-.97-1.2-1.1-2.01h-.37v1.56c.21-.06.42-.12.69-.21-.02.05-.02.1-.02.16,0,.1,0,.09-.09.12-.31.1-.62.19-.95.27-.1.02-.15.05-.18.08-.01,0-.03.03-.06.03-.02,0-.04-.01-.05-.05-.03-.07-.06-.17-.08-.26.14-.01.3-.04.48-.07v-1.62h-.38c-.01.23-.03.44-.05.62-.06.43-.21.92-.47,1.33-.02.03-.03.05-.05.05,0,0-.03-.02-.06-.05-.06-.06-.12-.11-.17-.13.28-.35.43-.85.49-1.31.05-.41.07-.82.07-1.3,0-.69,0-.98,0-1,0-.03,0-.04.04-.04.02,0,.18.01.62.01h1.14c.44,0,.59-.01.61-.01.03,0,.04,0,.04.04v.2s0,.04-.04.04c-.02,0-.17,0-.61,0h-1.52v.77c0,.18,0,.36-.01.53h1.56c.44,0,.58,0,.6,0,.04,0,.04,0,.04.04v.19s0,.04-.04.04c-.02,0-.17,0-.6,0h-.31ZM123.27,8.37s0,.04-.03.04c-.03,0-.13,0-.49,0h-.57c-.36,0-.47,0-.49,0-.03,0-.04,0-.04-.04v-.19s0-.04.04-.04c.02,0,.13.01.49.01h.57c.36,0,.46-.01.49-.01.03,0,.03,0,.03.04v.19Z"/>
      <path class="cls-1" d="M128.27,10.31s0,.04-.04.04c-.02,0-.17,0-.59,0h-2.91c-.42,0-.56,0-.59,0-.03,0-.04,0-.04-.04v-.18s0-.04.04-.04c.02,0,.11.01.37.01l-.06-2.11c-.01-.22-.02-.36-.05-.48.09.02.15.04.23.08.14-.05.26-.1.39-.17.07-.04.13-.08.17-.12.08.05.15.12.19.17.02.02.02.03.02.05s-.03.04-.07.04c-.03,0-.08.02-.13.04-.18.08-.33.15-.51.21l.02.55h.25c.14,0,.19-.01.22-.01.03,0,.04,0,.04.04v.18s0,.04-.04.04c-.03,0-.08,0-.22,0h-.24l.02.59h.22c.14,0,.19,0,.22,0,.03,0,.04,0,.04.04v.17s0,.04-.04.04c-.03,0-.08,0-.22,0h-.22l.02.69h.65v-2.05c0-.43,0-.62,0-.65,0-.03,0-.04.04-.04.02,0,.13.01.48.01h.55c.35,0,.46-.01.48-.01.03,0,.04,0,.04.04,0,.02-.01.22-.01.65v2.05h.67l.03-.71h-.22c-.15,0-.21,0-.24,0-.03,0-.04,0-.04-.04v-.18s0-.04.04-.04c.03,0,.09,0,.24,0h.23l.02-.59h-.26c-.15,0-.21,0-.24,0-.03,0-.04,0-.04-.04v-.18s0-.04.04-.04c.02,0,.09.01.24.01h.26l.02-.62h-.31c-.18,0-.22,0-.24,0-.03,0-.04,0-.04-.04v-.18s0-.04.04-.04c.02,0,.07,0,.28,0h.22c.21,0,.26,0,.29,0,.03,0,.04,0,.04.04-.02.17-.03.34-.03.52l-.08,2.08c.22,0,.31-.01.32-.01.03,0,.04,0,.04.04v.18ZM125.64,10.69s-.09.04-.14.07c-.27.21-.57.37-.99.53-.03.01-.05.02-.07.02-.03,0-.04-.02-.06-.08-.03-.06-.08-.11-.13-.15.42-.14.72-.27,1-.47.05-.04.11-.1.17-.16.09.04.17.08.23.14.03.02.04.04.04.06,0,.02-.02.04-.05.05M126.75,7.6h-1.1v2.5h1.1v-2.5ZM126.61,8.2s0,.03-.04.03c-.02,0-.06,0-.27,0h-.2c-.2,0-.24,0-.26,0-.03,0-.04,0-.04-.03v-.17s0-.04.04-.04c.02,0,.07.01.26.01h.2c.2,0,.24-.01.27-.01.03,0,.04,0,.04.04v.17ZM126.54,9.33c0,.24.01.32.01.34,0,.03,0,.04-.04.04-.03,0-.06,0-.23,0h-.16c-.17,0-.2,0-.22,0-.03,0-.04,0-.04-.04,0-.02,0-.1,0-.34v-.33c0-.24,0-.32,0-.35s0-.03.04-.03c.02,0,.05,0,.22,0h.16c.17,0,.2,0,.23,0,.03,0,.04,0,.04.03s-.01.11-.01.35v.33ZM126.34,8.82h-.27v.68h.27v-.68ZM126.86,10.47s.05-.02.07,0c.34.29.73.46,1.22.59-.05.04-.1.11-.13.16-.03.05-.04.07-.07.07-.01,0-.04-.01-.07-.02-.42-.13-.78-.32-1.16-.65-.03-.02-.03-.04.01-.06l.12-.09Z"/>
      <path class="cls-1" d="M132.87,9c-.03.05-.04.07-.06.07-.01,0-.03,0-.06-.03-.8-.36-1.46-.85-1.94-1.53-.48.7-1.1,1.16-1.86,1.54-.03.02-.06.03-.07.03-.02,0-.03-.02-.06-.07-.04-.06-.08-.11-.14-.16.84-.35,1.5-.9,1.88-1.5.07-.11.09-.17.12-.26.11.01.2.03.29.06.04.01.06.03.06.06,0,.02,0,.04-.03.05-.02,0-.04.02-.05.03.55.74,1.2,1.19,2.06,1.52-.06.06-.1.11-.13.18M132.65,9.74s0,.04-.04.04c-.03,0-.18,0-.64,0h-1.41c-.14.35-.3.71-.48,1.07.55-.04,1.18-.1,1.71-.16-.14-.17-.28-.34-.43-.51-.03-.03-.02-.04.03-.06l.13-.07s.05-.02.07,0c.34.34.62.71.89,1.1.02.02.02.04-.02.07l-.14.1s-.04.02-.05.02c-.01,0-.02,0-.04-.03-.09-.13-.17-.26-.26-.39-.81.11-1.74.19-2.55.25-.09,0-.15.02-.18.04-.02.02-.04.03-.06.03-.03,0-.04-.02-.05-.05-.03-.09-.05-.2-.07-.31.14,0,.3,0,.5,0,.07,0,.13,0,.2-.01.2-.37.36-.74.49-1.09h-.56c-.46,0-.61,0-.63,0-.04,0-.04,0-.04-.04v-.2s0-.04.04-.04c.02,0,.18,0,.63,0h2.29c.46,0,.61,0,.64,0,.03,0,.04,0,.04.04v.2ZM131.78,8.89s0,.04-.04.04c-.02,0-.15,0-.54,0h-.75c-.39,0-.52,0-.54,0-.03,0-.04,0-.04-.04v-.2s0-.04.04-.04c.02,0,.15,0,.54,0h.75c.39,0,.52,0,.54,0,.03,0,.04,0,.04.04v.2Z"/>
    </g>
  </g>
</svg>