<?xml version="1.0" encoding="UTF-8"?>
<svg id="_デザイン" data-name="デザイン" xmlns="http://www.w3.org/2000/svg" viewBox="0 0 68.67 200.08">
  <defs>
    <style>
      .cls-1 {
        fill: none;
        stroke: #aa1e14;
        stroke-miterlimit: 10;
      }
    </style>
  </defs>
  <g>
    <g>
      <path d="M19.09,156.14v-6.41h-1.92v-2.04h1.96v-3.07l2.38-1.73v4.8h3.05v2.04h-3.05v6c0,1.3,.59,1.75,1.5,1.75,.57,0,1.17-.21,1.54-.38v2.19c-.4,.15-1.17,.33-1.96,.33-2.21,0-3.49-1.31-3.49-3.48Z"/>
      <path d="M26.2,153.52c0-3.32,2.36-6.05,5.88-6.05s5.89,2.73,5.89,6.05-2.37,6.11-5.89,6.11-5.88-2.77-5.88-6.11Zm9.26,0c0-2.13-1.09-3.95-3.38-3.95s-3.36,1.8-3.36,3.95,1.08,4.01,3.36,4.01,3.38-1.86,3.38-4.01Z"/>
      <path d="M40.62,147.69h2.5v1.64c.79-1.24,2.19-1.86,3.62-1.86,3.21,0,5,2.81,5,6.08s-1.79,6.07-5.04,6.07c-1.45,0-2.8-.62-3.59-1.86v6.49h-2.5v-16.56Zm8.67,5.86c0-2.17-1.02-3.84-3.15-3.84s-3.25,1.65-3.25,3.84,1.12,3.87,3.25,3.87,3.15-1.71,3.15-3.87Z"/>
    </g>
    <path class="cls-1" d="M3.42,120.56c16.91-16.91,44.32-16.91,61.23,0"/>
    <path class="cls-1" d="M64.64,186.9c-16.91,16.91-44.32,16.91-61.23,0"/>
  </g>
  <g>
    <line class="cls-1" x1="34.42" y1="95.66" x2="34.42" y2=".32"/>
    <path class="cls-1" d="M34.61,0c0,18.81,15.25,34.06,34.06,34.06"/>
    <path class="cls-1" d="M34.06,0c0,18.81-15.25,34.06-34.06,34.06"/>
  </g>
</svg>