<?xml version="1.0" encoding="UTF-8"?>
<svg id="Isolation_Mode" data-name="Isolation Mode" xmlns="http://www.w3.org/2000/svg" viewBox="0 0 57.56 16.78">
  <path d="M0,13.56l1.95-.86c.35,.97,1.16,2.05,2.8,2.05,1.46,0,2.17-.82,2.17-1.64,0-2.37-6.19-.82-6.19-4.98,0-2.34,1.98-3.5,4.23-3.5,1.96,0,3.47,.94,4.34,2.51l-1.88,1.02c-.46-.83-1.22-1.61-2.54-1.61-1.12,0-1.83,.54-1.83,1.27,0,2.14,6.25,.82,6.25,5.18,0,2.59-2.19,3.79-4.43,3.79-2.41,0-4.28-1.43-4.86-3.22Z"/>
  <path d="M11.07,10.72c0-3.07,1.79-6.09,5.51-6.09,2.26,0,4.07,1.12,4.95,3.38l-2.3,.89c-.4-1.23-1.37-2.06-2.65-2.06-2.16,0-3.05,1.93-3.05,3.89s.88,3.86,3.05,3.86c1.28,0,2.26-.81,2.62-2.03l2.2,.83c-.76,2.13-2.53,3.4-4.8,3.4-3.67,0-5.53-2.88-5.53-6.06Z"/>
  <path d="M23.89,4.85h2.36v2.13c.53-1.56,1.96-2.36,3.3-2.36,.73,0,1.49,.23,2.03,.75l-1.1,1.99c-.39-.25-.83-.39-1.29-.39-1.42,0-2.96,1.24-2.96,4.29v5.29h-2.33V4.85Z"/>
  <path d="M32.29,10.68c0-3.32,2.36-6.05,5.88-6.05s5.89,2.73,5.89,6.05-2.37,6.11-5.89,6.11-5.88-2.77-5.88-6.11Zm9.26,0c0-2.13-1.09-3.95-3.38-3.95s-3.36,1.8-3.36,3.95,1.08,4.01,3.36,4.01,3.38-1.86,3.38-4.01Z"/>
  <path d="M46.61,14.18V0h2.41V13.52c0,.67,.28,1.08,1.05,1.08,.2,0,.53-.04,.84-.08v2.04c-.56,.12-1.35,.22-1.96,.22-1.45,0-2.36-.67-2.36-2.6Z"/>
  <path d="M53.24,14.18V0h2.41V13.52c0,.67,.28,1.08,1.05,1.08,.2,0,.53-.04,.84-.08v2.04c-.56,.12-1.35,.22-1.96,.22-1.45,0-2.36-.67-2.36-2.6Z"/>
</svg>