<?xml version="1.0" encoding="UTF-8"?>
<svg id="Isolation_Mode" data-name="Isolation Mode" xmlns="http://www.w3.org/2000/svg" viewBox="0 0 6.99 23.98">
  <path d="M1.34,0l.36,.81c-.41,.15-.85,.48-.85,1.17,0,.61,.34,.9,.68,.9C2.51,2.88,1.87,.3,3.6,.3c.98,0,1.46,.83,1.46,1.76,0,.82-.39,1.45-1.04,1.81l-.42-.78c.35-.19,.67-.51,.67-1.06,0-.47-.22-.76-.53-.76-.89,0-.34,2.6-2.16,2.6-1.08,0-1.58-.91-1.58-1.85C0,1.02,.6,.24,1.34,0Z"/>
  <path d="M2.52,4.61c1.28,0,2.54,.75,2.54,2.29,0,.94-.47,1.69-1.41,2.06l-.37-.96c.51-.17,.86-.57,.86-1.1,0-.9-.81-1.27-1.62-1.27s-1.61,.37-1.61,1.27c0,.53,.34,.94,.84,1.09l-.35,.92c-.89-.32-1.42-1.05-1.42-2,0-1.53,1.2-2.3,2.52-2.3Z"/>
  <path d="M4.97,9.96v.98h-.89c.65,.22,.98,.82,.98,1.38,0,.3-.1,.62-.31,.84l-.83-.46c.1-.16,.16-.35,.16-.54,0-.59-.52-1.24-1.79-1.24H.09v-.97H4.97Z"/>
  <path d="M2.54,13.45c1.38,0,2.52,.98,2.52,2.45s-1.14,2.46-2.52,2.46-2.54-.99-2.54-2.46,1.15-2.45,2.54-2.45Zm0,3.86c.89,0,1.65-.45,1.65-1.41s-.75-1.4-1.65-1.4-1.67,.45-1.67,1.4,.78,1.41,1.67,1.41Z"/>
  <path d="M1.08,19.42H6.99v1.01H1.36c-.28,0-.45,.12-.45,.44,0,.08,.01,.22,.03,.35H.09c-.05-.23-.09-.56-.09-.82,0-.61,.28-.98,1.08-.98Z"/>
  <path d="M1.08,22.18H6.99v1.01H1.36c-.28,0-.45,.12-.45,.44,0,.08,.01,.22,.03,.35H.09c-.05-.23-.09-.56-.09-.82,0-.61,.28-.98,1.08-.98Z"/>
</svg>