<?xml version="1.0" encoding="UTF-8"?>
<svg id="_デザイン" data-name="デザイン" xmlns="http://www.w3.org/2000/svg" viewBox="0 0 324.96 306.83">
  <defs>
    <style>
      .cls-1 {
        fill: none;
        stroke: #aa1e14;
        stroke-miterlimit: 10;
      }

      .cls-2 {
        fill: #aa1e14;
      }
    </style>
  </defs>
  <g>
    <path class="cls-2" d="M0,31.86l2.77-.91c.34,1.96,1.8,2.74,3.48,2.62,1.69-.12,2.55-1.07,2.47-2.19-.22-3.28-7.81-1.66-8.16-6.82-.19-2.8,1.98-4.52,4.64-4.71,1.95-.13,3.79,.6,5.01,2.45l-2.26,1.61c-.62-1.04-1.61-1.59-2.67-1.52-1.12,.08-1.95,.82-1.88,1.83,.2,2.98,7.8,1.45,8.16,6.7,.2,2.99-2.15,4.96-5.17,5.17-2.8,.19-5.66-1.16-6.38-4.24Z"/>
    <path class="cls-2" d="M14.49,32.26l-.4-5.81-1.8,.12-.16-2.29,1.85-.13-.19-2.78,2.56-2.13,.32,4.73,2.8-.19,.16,2.29-2.8,.19,.36,5.33c.07,1.08,.62,1.35,1.34,1.3,.57-.04,1.17-.31,1.53-.51l.17,2.48c-.4,.19-1.2,.42-2.02,.48-2.18,.15-3.58-1.04-3.72-3.08Z"/>
    <path class="cls-2" d="M21.4,29.31c-.2-2.91,1.3-5.99,5.09-6.25,3.92-.27,5.4,2.8,5.57,5.29,.03,.46,.02,.92-.03,1.08l-7.69,.52c.34,1.45,1.21,2.38,2.97,2.26,1.01-.07,1.88-.44,2.61-1.37l2,1.52c-1.13,1.44-2.58,2.2-4.46,2.33-3.85,.26-5.86-2.38-6.06-5.4Zm7.91-1.67c-.02-.25-.05-.48-.14-.7-.36-1.13-1.36-1.66-2.55-1.58-1.61,.11-2.25,1.21-2.41,2.63l5.1-.35Z"/>
    <path class="cls-2" d="M34.19,22.78l2.82-.19,.08,1.12c.72-1.02,1.94-1.49,3.1-1.57,3.1-.21,4.98,2.41,5.19,5.5,.21,3.13-1.29,5.94-4.44,6.16-1.2,.08-2.39-.22-3.24-1.13l.39,5.76-2.82,.19-1.08-15.83Zm8.44,5.04c-.13-1.86-1.07-3.25-2.95-3.12-1.88,.13-2.66,1.61-2.53,3.49,.13,1.88,1.1,3.29,2.98,3.16,1.88-.13,2.62-1.68,2.5-3.54Z"/>
    <path class="cls-2" d="M53.14,27.08c-.22-3.16,1.88-5.96,5.34-6.2,3.46-.24,5.92,2.25,6.13,5.41,.22,3.17-1.88,6-5.34,6.24-3.46,.24-5.92-2.29-6.13-5.46Zm8.63-.59c-.12-1.84-1.05-3.38-3.12-3.24-2.06,.14-2.78,1.8-2.66,3.64s1.07,3.44,3.13,3.3c2.07-.14,2.78-1.85,2.65-3.69Z"/>
    <path class="cls-2" d="M66.9,27.3l-.46-6.72,2.7-.18,.43,6.38c.1,1.47,.91,2.47,2.31,2.38,1.54-.1,2.46-1,2.33-2.95l-.42-6.12,2.71-.18,.76,11.19-2.71,.18-.09-1.31c-.82,1.17-2.09,1.68-3.2,1.76-2.94,.2-4.22-2.08-4.38-4.42Z"/>
    <path class="cls-2" d="M80.91,27.73l-.4-5.81-1.8,.12-.16-2.29,1.85-.13-.19-2.78,2.56-2.13,.32,4.73,2.8-.19,.16,2.29-2.8,.19,.36,5.33c.07,1.08,.62,1.35,1.34,1.3,.57-.04,1.17-.31,1.53-.51l.17,2.48c-.4,.19-1.2,.42-2.02,.48-2.18,.15-3.58-1.04-3.72-3.08Z"/>
    <path class="cls-2" d="M95.82,26.72l-.4-5.81-1.8,.12-.16-2.29,1.85-.13-.19-2.78,2.56-2.13,.32,4.73,2.8-.19,.16,2.29-2.8,.19,.36,5.33c.07,1.08,.62,1.35,1.34,1.3,.57-.04,1.17-.31,1.53-.51l.17,2.48c-.4,.19-1.2,.42-2.02,.48-2.19,.15-3.58-1.04-3.72-3.08Z"/>
    <path class="cls-2" d="M102.63,23.71c-.22-3.16,1.88-5.96,5.34-6.2,3.46-.24,5.92,2.25,6.13,5.41,.22,3.17-1.88,6-5.34,6.24-3.46,.24-5.92-2.29-6.14-5.46Zm8.63-.59c-.12-1.84-1.05-3.38-3.13-3.24-2.06,.14-2.78,1.8-2.66,3.64,.12,1.84,1.07,3.44,3.13,3.3,2.07-.14,2.78-1.86,2.65-3.69Z"/>
    <path class="cls-2" d="M122.02,12.13l2.87-.2,.17,2.52-2.87,.2-.17-2.52Zm.38,4.63l2.73-.19,.76,11.19-2.73,.19-.76-11.19Z"/>
    <path class="cls-2" d="M128.4,16.36l2.73-.19,.09,1.3c.82-1.16,2.08-1.68,3.18-1.76,2.94-.2,4.25,2.09,4.41,4.43l.46,6.72-2.73,.19-.43-6.38c-.1-1.47-.91-2.48-2.31-2.39-1.54,.1-2.44,1-2.31,2.95l.42,6.13-2.73,.19-.76-11.19Z"/>
    <path class="cls-2" d="M140.96,23.82l2.11-1.11c.36,.79,1.02,1.78,2.51,1.67,1.27-.09,1.77-.86,1.72-1.46-.13-1.88-5.67-.23-5.94-4.19-.16-2.36,1.76-3.62,3.92-3.77,1.93-.13,3.46,.69,4.41,2.14l-2.04,1.3c-.43-.67-1.11-1.35-2.32-1.27-.9,.06-1.42,.54-1.38,1.06,.12,1.69,5.74,.3,6.02,4.41,.18,2.59-2,3.88-4.12,4.03-2.35,.16-4.24-1.13-4.91-2.82Z"/>
    <path class="cls-2" d="M152.09,14.74l2.82-.19,.08,1.12c.72-1.02,1.94-1.49,3.1-1.57,3.1-.21,4.98,2.41,5.19,5.5,.21,3.13-1.29,5.94-4.44,6.16-1.2,.08-2.39-.22-3.24-1.13l.39,5.76-2.82,.19-1.08-15.83Zm8.44,5.04c-.13-1.86-1.07-3.25-2.95-3.12-1.88,.13-2.66,1.61-2.53,3.49,.13,1.88,1.1,3.29,2.98,3.16,1.88-.13,2.62-1.68,2.5-3.54Z"/>
    <path class="cls-2" d="M165.06,9.2l2.87-.2,.17,2.52-2.87,.2-.17-2.52Zm.38,4.63l2.73-.19,.76,11.19-2.73,.19-.76-11.19Z"/>
    <path class="cls-2" d="M171.44,13.42l2.67-.18,.13,1.88c.39-1.39,1.6-2.24,2.86-2.32,.74-.05,1.53,.15,2.1,.67l-1.09,2.33c-.39-.22-.81-.33-1.25-.3-1.28,.09-2.53,1.37-2.34,4.21l.32,4.73-2.64,.18-.76-11.19Z"/>
    <path class="cls-2" d="M179.96,18.51c-.2-2.91,1.3-5.99,5.09-6.25,3.92-.27,5.4,2.8,5.57,5.29,.03,.46,.02,.92-.03,1.08l-7.69,.52c.34,1.45,1.21,2.38,2.97,2.26,1.01-.07,1.88-.44,2.61-1.37l2,1.52c-1.13,1.44-2.58,2.2-4.46,2.33-3.85,.26-5.86-2.38-6.06-5.4Zm7.91-1.67c-.02-.25-.05-.48-.14-.7-.36-1.14-1.36-1.66-2.55-1.58-1.61,.11-2.25,1.21-2.41,2.63l5.1-.35Z"/>
    <path class="cls-2" d="M200.02,19.62l-.4-5.81-1.8,.12-.16-2.29,1.85-.13-.19-2.78,2.56-2.13,.32,4.73,2.8-.19,.16,2.29-2.8,.19,.36,5.33c.07,1.08,.62,1.35,1.34,1.3,.57-.04,1.17-.31,1.53-.51l.17,2.48c-.4,.19-1.2,.42-2.02,.48-2.18,.15-3.58-1.04-3.72-3.08Z"/>
    <path class="cls-2" d="M207.34,6.32l2.78-.19,.4,5.94c.82-1.16,2.04-1.68,3.13-1.76,2.94-.2,4.3,2.08,4.46,4.42l.46,6.72-2.78,.19-.43-6.38c-.09-1.38-.55-2.55-2.19-2.44-1.75,.12-2.48,1.6-2.35,3.46l.39,5.67-2.78,.19-1.08-15.83Z"/>
    <path class="cls-2" d="M220.43,15.75c-.2-2.91,1.3-5.99,5.09-6.25,3.92-.27,5.4,2.8,5.57,5.29,.03,.46,.02,.92-.03,1.08l-7.69,.52c.34,1.45,1.21,2.38,2.97,2.26,1.01-.07,1.88-.44,2.61-1.37l2,1.52c-1.13,1.44-2.58,2.2-4.46,2.33-3.85,.26-5.86-2.38-6.06-5.4Zm7.91-1.66c-.02-.25-.05-.48-.14-.7-.36-1.14-1.36-1.66-2.55-1.58-1.61,.11-2.25,1.21-2.41,2.63l5.1-.35Z"/>
    <path class="cls-2" d="M238.99,12.11c-.3-4.34,1.88-8.33,7.08-8.69,3.14-.21,5.75,1.21,7.23,4.08l-2.58,1.23c-.74-2.04-2.43-2.74-4.49-2.6-3.35,.23-4.63,2.74-4.43,5.67,.21,3.15,1.83,5.46,5.22,5.23,2.04-.14,3.38-1.04,4.09-3.23l2.71,.9c-1.05,3.04-3.46,4.82-6.61,5.03-5.21,.36-7.92-3.28-8.22-7.62Z"/>
    <path class="cls-2" d="M255.67,7.68l2.67-.18,.13,1.88c.39-1.39,1.6-2.24,2.86-2.32,.74-.05,1.53,.15,2.11,.67l-1.09,2.33c-.39-.22-.81-.33-1.25-.3-1.28,.09-2.53,1.37-2.33,4.21l.32,4.73-2.64,.18-.76-11.19Z"/>
    <path class="cls-2" d="M264.18,12.77c-.2-2.91,1.3-5.99,5.09-6.25,3.92-.27,5.4,2.8,5.57,5.29,.03,.46,.02,.92-.03,1.08l-7.68,.52c.33,1.45,1.21,2.38,2.97,2.26,1.01-.07,1.88-.44,2.61-1.37l1.99,1.52c-1.13,1.44-2.57,2.2-4.46,2.33-3.85,.26-5.86-2.38-6.06-5.4Zm7.91-1.67c-.02-.25-.05-.48-.14-.7-.36-1.13-1.36-1.66-2.55-1.58-1.61,.11-2.25,1.21-2.41,2.63l5.1-.35Z"/>
    <path class="cls-2" d="M286.33,10.02l.46,6.79-2.25,.15-.27-1.48c-.65,1.2-2.1,1.87-3.38,1.95-2.3,.16-4.16-1.05-4.32-3.39-.17-2.43,1.73-3.37,4.24-3.54l3.04-.21c-.17-1.65-.71-2.33-2.49-2.21-1.29,.09-2.1,.91-2.52,1.76l-2.2-1.37c.98-1.54,2.33-2.62,4.54-2.77,3.05-.21,4.97,1.57,5.16,4.31Zm-2.33,2.34v-.09s-2.9,.2-2.9,.2c-1.24,.08-1.77,.77-1.72,1.48,.05,.74,.68,1.23,1.9,1.14,1.68-.11,2.64-1.4,2.72-2.73Z"/>
    <path class="cls-2" d="M290.01,13.48l-.4-5.81-1.8,.12-.16-2.29,1.85-.13-.19-2.78,2.56-2.13,.32,4.73,2.8-.19,.16,2.29-2.8,.19,.36,5.33c.07,1.08,.62,1.35,1.34,1.3,.57-.04,1.17-.31,1.53-.51l.17,2.48c-.4,.19-1.2,.42-2.02,.48-2.18,.15-3.58-1.04-3.72-3.08Z"/>
    <path class="cls-2" d="M297.18,.2l2.87-.2,.17,2.52-2.87,.2-.17-2.52Zm.38,4.63l2.73-.19,.76,11.19-2.73,.19-.76-11.19Z"/>
    <path class="cls-2" d="M302.03,4.52l2.98-.2,3.23,7.48,2.2-7.85,2.97-.2-3.81,11.51-2.25,.15-5.32-10.88Z"/>
    <path class="cls-2" d="M314.28,9.35c-.2-2.91,1.3-5.99,5.09-6.25,3.92-.27,5.4,2.8,5.57,5.29,.03,.46,.02,.92-.03,1.08l-7.69,.52c.33,1.45,1.21,2.38,2.97,2.26,1.01-.07,1.88-.44,2.61-1.37l1.99,1.52c-1.13,1.44-2.57,2.2-4.46,2.33-3.85,.26-5.86-2.38-6.06-5.4Zm7.91-1.67c-.02-.25-.05-.48-.14-.7-.36-1.13-1.36-1.66-2.55-1.58-1.61,.11-2.25,1.21-2.41,2.63l5.1-.35Z"/>
  </g>
  <g>
    <path class="cls-2" d="M107.69,85.54c-1.42,0-2.83,.06-4.23,.19-.04-.11-.06-.53-.06-1.25s.02-1.18,.06-1.27c1.58,.14,3.48,.21,5.69,.21h5.61c1.68,0,3.55-.07,5.61-.21,.04,.1,.06,.52,.06,1.27s-.02,1.14-.06,1.25c-1.05-.13-2.46-.19-4.23-.19h-8.46Z"/>
    <path class="cls-2" d="M105.51,106.44c-.42,0-1.03,.03-1.84,.08-.04-.04-.06-.38-.06-1s.02-.97,.06-.98c.32,.04,.75,.06,1.31,.06h1.31v-2.42c0-.92-.03-1.75-.09-2.48l.51-.02c.46,0,.87,.02,1.23,.07,.37,.05,.55,.13,.55,.24-.15,.28-.27,.53-.34,.76s-.11,.53-.11,.91v2.94h3.01v-3.17c0-1.15-.04-2.24-.13-3.25l.53-.02c.43,0,.82,.02,1.16,.07,.34,.05,.51,.13,.51,.24-.1,.17-.18,.32-.23,.46-.05,.14-.08,.32-.08,.54v1h2.77c.94,0,1.86-.04,2.77-.13,.04,.06,.06,.39,.06,1s-.02,.95-.06,1.02c-.68-.08-1.61-.12-2.77-.12h-2.77v2.36h3.66c1.15,0,2.37-.06,3.66-.17,.04,.08,.06,.45,.06,1.08s-.02,1-.06,1.08c-.97-.11-2.2-.17-3.68-.17h-3.68v4.38c0,.49-.06,.86-.17,1.12-.11,.26-.33,.46-.64,.59-.29,.12-.65,.21-1.09,.24-.44,.03-1.06,.05-1.87,.05-.06-.49-.24-1.08-.53-1.77,.76,.03,1.28,.04,1.57,.04l.64-.02c.14,0,.23-.02,.29-.06,.05-.04,.08-.13,.08-.25v-4.32h-5.54Zm-.23,5.88c-.21-.19-.48-.42-.79-.67-.31-.25-.57-.44-.77-.56,.68-.51,1.34-1.15,1.98-1.9,.64-.75,1.16-1.51,1.56-2.27,.47,.17,.9,.39,1.31,.68,.4,.29,.57,.49,.49,.62-.06,.1-.15,.16-.25,.19-.1,.03-.19,.07-.27,.11-.08,.05-.18,.17-.29,.37-.41,.58-.72,1.02-.95,1.29-.7,.86-1.37,1.58-2.03,2.15Zm4.8,4.42c-1.19,.35-2.56,.63-4.12,.83-.05-.31-.16-.64-.31-.99-.16-.35-.33-.65-.5-.89,1.91-.18,3.53-.49,4.87-.92,1.34-.43,2.46-1.05,3.37-1.85,.9-.8,1.59-1.83,2.06-3.1,.46,.15,.89,.37,1.3,.65,.41,.28,.58,.49,.52,.65-.05,.11-.13,.19-.23,.25-.1,.06-.19,.12-.27,.19-.08,.07-.16,.22-.27,.44-.8,1.42-1.9,2.55-3.3,3.4-.9,.54-1.94,.99-3.13,1.34Zm5.01-8.89l1.4-.98c.71,.65,1.41,1.39,2.11,2.21,.7,.82,1.22,1.53,1.55,2.13l-1.48,1.13c-.32-.61-.83-1.36-1.55-2.23-.7-.88-1.37-1.63-2.03-2.25Z"/>
    <path class="cls-2" d="M107.74,131.95c-.05,1.72-.31,3.31-.78,4.76-.47,1.45-1.28,2.73-2.45,3.86-.16-.22-.37-.46-.63-.72s-.48-.46-.68-.59c1.02-.97,1.75-2.07,2.16-3.29,.42-1.22,.66-2.56,.72-4.02h-1.29c-.43,0-.85,.02-1.27,.06-.04-.04-.06-.36-.06-.96s.02-.95,.06-.96c.33,.04,.76,.06,1.29,.06h1.29v-2.29c-.71,.38-1.33,.67-1.88,.88-.1-.21-.26-.47-.46-.79-.21-.32-.39-.56-.54-.73,.95-.28,1.86-.64,2.74-1.08,.88-.44,1.58-.92,2.09-1.42,.37,.17,.71,.38,1.03,.65s.45,.43,.37,.5c-.05,.06-.11,.08-.19,.08h-.13c-.14,0-.27,.06-.4,.19-.37,.29-.7,.54-.99,.73v3.3h2.66v-2.69c0-1.08-.04-2-.11-2.75l.51-.02c.44,0,.84,.02,1.2,.07,.35,.05,.53,.13,.53,.24-.15,.28-.27,.53-.34,.76s-.11,.53-.11,.91v3.48h4c.03,1.36,.09,2.56,.19,3.59l.36-.38c.63,.33,1.29,.72,1.98,1.17,.69,.45,1.23,.84,1.62,1.19l-1.02,1.21c-.59-.57-1.52-1.24-2.77-2.02,.2,1.18,.51,2.11,.92,2.78,.41,.67,.96,1.04,1.64,1.1,.13,.01,.23-.15,.31-.49,.08-.34,.15-.85,.22-1.53,.13,.19,.29,.4,.47,.6,.19,.21,.37,.38,.53,.5-.1,.95-.28,1.63-.52,2.07-.25,.43-.58,.65-1.01,.65-.06,0-.18-.01-.36-.04-1-.13-1.79-.57-2.36-1.35-.58-.77-.99-1.75-1.23-2.94-.25-1.19-.42-2.62-.5-4.31h-2.47v4.19c0,1.67,.05,3.06,.15,4.17-.04,.03-.16,.05-.35,.07-.2,.02-.4,.03-.62,.03-.23,0-.44-.01-.62-.03-.19-.02-.29-.05-.3-.07,.05-.7,.08-1.39,.08-2.09v-6.28h-2.67Zm8.1-9.53c.04,.92,.11,1.69,.21,2.32l.57-.6c.62,.33,1.25,.72,1.9,1.16,.64,.44,1.14,.82,1.5,1.14l-1.02,1.21c-.28-.29-.68-.63-1.19-1.01-.52-.38-1.06-.75-1.61-1.12,.48,2.35,1.4,3.57,2.75,3.67,.23,.04,.39-.48,.49-1.56,.37,.49,.71,.83,1.02,1.04-.11,.78-.3,1.35-.55,1.71-.25,.36-.58,.54-.99,.54-.13,0-.23,0-.3-.02-1.34-.19-2.32-.87-2.95-2.03-.63-1.16-1.05-2.72-1.28-4.68h-4.91c-1.47,0-3.1,.07-4.91,.21-.04-.11-.06-.47-.06-1.08s.02-.95,.06-1c.71,.08,1.64,.13,2.81,.13h8.48Zm2.26,2.44l-1.04-.69c.25-.31,.52-.67,.81-1.11,.28-.43,.51-.81,.67-1.15,.37,.21,.71,.45,1.04,.71,.33,.26,.47,.42,.42,.48-.04,.04-.09,.06-.15,.06h-.06c-.1,0-.2,.05-.28,.15l-.49,.58c-.42,.46-.72,.78-.91,.96Zm.93,8.3c-.37,.4-.68,.72-.95,.96l-1.02-.69c.25-.29,.53-.65,.83-1.08,.3-.43,.53-.81,.71-1.15,.37,.21,.71,.45,1.04,.71,.33,.26,.47,.42,.42,.48-.04,.04-.08,.06-.13,.06h-.11c-.09,0-.18,.05-.27,.15l-.51,.56Z"/>
    <path class="cls-2" d="M115.59,151.98s-.04,.03-.04,.08c0,.01,.03,.13,.08,.35,.08,.32,.14,.78,.2,1.37,.06,.59,.08,1.21,.08,1.87,0,1.99-.41,3.69-1.24,5.11-.83,1.42-2.31,2.13-4.45,2.13-.87,0-1.67-.22-2.4-.67-.73-.44-1.3-1.07-1.73-1.89-.42-.81-.64-1.73-.64-2.76,0-1.67,.31-3.14,.93-4.42,.62-1.28,1.37-2.43,2.24-3.46,.03-.03,.04-.06,.04-.08,0-.01-.01-.02-.04-.02l-.08,.02c-.09,.07-.26,.15-.51,.25-.25,.1-.52,.15-.8,.15-.72,0-1.23-.44-1.52-1.33-.17-.5-.25-.86-.27-1.06,0-.13,.04-.19,.13-.19,.1,0,.26,.08,.47,.23,.35,.24,.92,.35,1.71,.35,.3,0,.57-.05,.79-.15,.22-.1,.49-.24,.81-.44,.04-.01,.12-.06,.25-.15,.13-.08,.25-.14,.36-.18,.11-.03,.21-.05,.3-.05,.25,0,.52,.16,.81,.48,.28,.32,.43,.63,.43,.92s-.18,.56-.55,.79c-.19,.13-.43,.27-.72,.44-.65,.38-1.22,.95-1.72,1.72-.5,.77-.89,1.64-1.18,2.6-.28,.96-.43,1.91-.43,2.84,0,1.22,.29,2.18,.86,2.86s1.41,1.02,2.49,1.02c1.47,0,2.57-.69,3.32-2.07,.75-1.38,1.12-3.36,1.12-5.95,0-.71-.06-1.79-.17-3.23-.03-.29-.08-.57-.15-.82-.08-.26-.18-.55-.3-.87-.2-.45-.3-.8-.3-1.06,0-.29,.06-.54,.18-.74,.12-.2,.31-.3,.56-.3,.34,0,.62,.12,.85,.37,.23,.24,.35,.57,.38,.99,.06,.97,.31,2.11,.73,3.41,.42,1.3,1.2,2.44,2.34,3.43,.67,.58,1,1.15,1,1.71,0,.26-.08,.48-.26,.64-.17,.16-.37,.24-.6,.24-.57,0-1.14-.41-1.71-1.22-.57-.81-1.1-1.85-1.59-3.1-.04-.1-.07-.15-.09-.15Zm2.44-3.65c-.11-.11-.21-.28-.31-.5-.16-.36-.41-.74-.73-1.13-.32-.39-.62-.7-.9-.92-.09-.08-.13-.14-.13-.17,0-.04,.04-.06,.13-.06,.15,0,.47,.07,.95,.21,.48,.14,.94,.38,1.37,.71s.64,.77,.64,1.31c0,.24-.06,.41-.17,.53-.11,.12-.25,.18-.4,.18-.19,0-.34-.06-.45-.17Zm1.75-1.65c-.11-.1-.24-.24-.38-.44-.24-.35-.5-.64-.8-.88-.29-.24-.67-.48-1.14-.73-.08-.04-.11-.08-.11-.1,0-.08,.21-.12,.64-.12,.73,0,1.38,.16,1.93,.48,.56,.32,.83,.76,.83,1.31,0,.19-.05,.35-.16,.46-.11,.11-.24,.17-.39,.17-.18,0-.32-.05-.44-.15Z"/>
    <path class="cls-2" d="M106.42,186.25c0,.22,.01,.43,.04,.63-.01,.03-.11,.05-.29,.07-.18,.02-.39,.03-.62,.03s-.44-.01-.64-.03c-.2-.02-.31-.05-.33-.07,.06-.6,.09-1.32,.09-2.17v-2.17c0-1.79-.06-3.26-.17-4.4l.55-.02c.47,0,.89,.02,1.26,.07,.37,.05,.56,.13,.56,.24-.15,.28-.27,.53-.34,.76-.08,.23-.11,.53-.11,.91v3.61h4.48v-6.74h-2.77c-1.15,0-2.07,.04-2.75,.13-.05,0-.08-.04-.08-.13,.05-.18,.08-.53,.08-1.04v-2.61c0-1.34-.04-2.57-.13-3.71l.53-.02c.46,0,.87,.02,1.23,.07,.37,.05,.55,.13,.55,.24-.15,.28-.27,.53-.34,.76-.08,.23-.11,.53-.11,.91v3.53h3.79v-3.61c0-1.32-.04-2.55-.13-3.69l.55-.02c.46,0,.87,.02,1.24,.07,.37,.05,.56,.13,.56,.24-.15,.28-.27,.53-.34,.76-.08,.23-.11,.53-.11,.91v5.34h3.98v-2.71c0-1.11-.04-2.04-.11-2.8l.55-.02c.47,0,.89,.02,1.27,.07,.38,.05,.57,.13,.57,.24-.15,.28-.27,.53-.34,.76s-.11,.53-.11,.91v2.71c0,1.14,.04,2.04,.11,2.71,0,.1-.04,.15-.11,.15-.85-.1-1.81-.15-2.9-.15h-2.9v6.74h4.74v-2.75c0-1.13-.04-2.07-.11-2.82l.53-.02c.47,0,.89,.02,1.26,.07,.37,.05,.56,.13,.56,.24-.15,.28-.27,.53-.34,.76s-.11,.53-.11,.91v3.38c0,1.27,.04,2.39,.13,3.36-.03,.03-.14,.05-.35,.07-.21,.02-.43,.03-.65,.03s-.44-.01-.63-.03c-.2-.02-.3-.05-.31-.07,.03-.19,.04-.4,.04-.6v-.63h-10.98v.65Z"/>
    <path class="cls-2" d="M107.36,200.29c.13-1.78,.19-3.21,.19-4.3,0-.97-.04-1.73-.13-2.27s-.25-.89-.49-1.04c-.19-.13-.28-.22-.28-.29,0-.11,.13-.21,.39-.3,.26-.09,.51-.14,.75-.14,.29,0,.59,.08,.89,.25,.3,.17,.55,.39,.75,.66s.29,.56,.29,.87c0,.22-.02,.43-.06,.63-.05,.22-.08,.45-.09,.69l-.19,2.13c-.13,1.32-.22,2.35-.27,3.09-.06,.74-.09,1.46-.09,2.17,0,1.06,.09,1.91,.26,2.55,.17,.64,.47,1.12,.91,1.45,.44,.33,1.05,.49,1.85,.49,1.02,0,2.13-.3,3.32-.9,1.19-.6,2.27-1.48,3.24-2.65,.19-.22,.32-.33,.38-.33,.04,0,.06,.03,.06,.08,0,.11-.06,.29-.17,.54-.3,.63-.82,1.36-1.55,2.19-.73,.83-1.6,1.56-2.6,2.17-1,.61-2.01,.92-3.03,.92-1.33,0-2.4-.46-3.21-1.37s-1.22-2.4-1.22-4.45c0-.64,.04-1.58,.13-2.82Z"/>
    <path class="cls-2" d="M82,115.58c1.11,0,2.29-.06,3.55-.17,.04,.08,.06,.43,.06,1.04s-.02,.94-.06,.98c-.51-.06-1.03-.08-1.57-.08h-1.57v3.11h2.07c.61,0,1.29-.03,2.05-.1,.04,.04,.06,.38,.06,1s-.02,.93-.06,1c-.57-.07-1.25-.1-2.05-.1h-2.07v4.46c0,.58-.07,1.03-.22,1.32-.15,.3-.4,.52-.77,.66-.35,.13-.8,.21-1.35,.24-.54,.03-1.31,.05-2.29,.05-.05-.26-.14-.57-.28-.92-.13-.35-.27-.67-.41-.96,.86,.04,1.63,.06,2.31,.06l.78-.02c.19,0,.32-.03,.38-.09,.06-.06,.09-.19,.09-.39v-4.42h-.04c-1.11,1.25-2.55,2.43-4.32,3.55-1.77,1.11-3.53,1.96-5.27,2.54-.14-.29-.3-.59-.49-.91-.19-.31-.39-.57-.59-.78,1.44-.39,2.91-.98,4.4-1.77,1.49-.79,2.78-1.67,3.87-2.63h-4.02c-1.34,0-2.67,.06-4,.19-.04-.11-.06-.47-.06-1.06s.02-.96,.06-1c.61,.06,1.23,.08,1.88,.08h1.88v-3.11h-1.29c-.43,0-.85,.02-1.27,.06-.04-.04-.06-.36-.06-.96s.02-.96,.06-1.04c.94,.11,2.11,.17,3.53,.17h7.09Zm-6.05-1.52c0,.32,.01,.62,.04,.9-.01,.06-.32,.08-.91,.08s-.9-.03-.91-.08c.03-.28,.04-.58,.04-.9v-.9h-1.99c-.59,0-1.26,.03-1.99,.1-.04-.07-.06-.4-.06-1s.02-.94,.06-.98c.54,.07,1.21,.1,1.99,.1h1.99v-.77c0-.21-.01-.49-.04-.86l.47-.02c.41,0,.77,.02,1.11,.07,.33,.05,.5,.13,.5,.24-.1,.11-.18,.21-.23,.3-.05,.09-.08,.21-.08,.36v.67h4.68v-.77c0-.21-.01-.49-.04-.86l.47-.02c.4,0,.77,.02,1.11,.07,.33,.05,.5,.13,.5,.24-.1,.11-.18,.21-.23,.3-.05,.09-.08,.21-.08,.36v.67h2.05c.62,0,1.3-.03,2.03-.1,.04,.04,.06,.37,.06,.98s-.02,.93-.06,1c-.54-.07-1.22-.1-2.03-.1h-2.05v.9c0,.32,.01,.62,.04,.9-.01,.06-.32,.08-.91,.08s-.9-.03-.91-.08c.03-.28,.04-.58,.04-.9v-.9h-4.68v.9Zm4.7,3.3h-5.01v3.11h5.01v-3.11Z"/>
    <path class="cls-2" d="M70.44,138.13c0-1.27-.04-2.39-.13-3.36,0-.08,.04-.12,.13-.12,.67,.08,1.56,.12,2.66,.12h2.66v5.92c.53-.97,.99-2.13,1.38-3.46,.39-1.34,.7-2.74,.93-4.21,.49,.11,.96,.27,1.41,.48,.45,.21,.66,.39,.63,.54-.03,.11-.08,.2-.16,.27-.08,.07-.15,.15-.22,.23-.06,.08-.11,.24-.15,.46-.05,.25-.18,.77-.38,1.54h6.16l.28-.04,1.27,.31c-.57,2.68-1.08,4.64-1.52,5.86l-1.5-.42c.3-.97,.61-2.25,.93-3.84h-2.92v3.21c0,.78,.15,1.71,.46,2.8,.3,1.08,.84,2.17,1.6,3.26,.76,1.09,1.79,1.98,3.06,2.66-.19,.25-.39,.54-.59,.87-.2,.33-.36,.6-.47,.82-.97-.54-1.81-1.25-2.51-2.13-.7-.88-1.25-1.77-1.64-2.67-.39-.9-.65-1.71-.78-2.42-.13,.71-.41,1.51-.84,2.41-.44,.9-1.05,1.78-1.84,2.66s-1.74,1.6-2.85,2.17c-.11-.24-.27-.52-.48-.86s-.4-.59-.56-.77c1.43-.7,2.57-1.59,3.42-2.68,.85-1.09,1.45-2.18,1.79-3.26,.34-1.08,.51-2.03,.51-2.84v-3.23h-1.52c-.57,1.75-1.2,3.21-1.9,4.36-.13-.13-.47-.38-1.02-.77v2.17c0,.85,.03,1.56,.09,2.15,0,.06-.03,.08-.09,.08-.61-.06-1.23-.08-1.88-.08h-1.88v.96c0,.32,.01,.63,.04,.94-.01,.06-.29,.08-.83,.08s-.83-.03-.89-.08c.09-.97,.13-2.09,.13-3.36v-6.74Zm1.56-1.54v7.95h2.18v-7.95h-2.18Z"/>
    <path class="cls-2" d="M78.91,174.4c-.14-.25-.28-.64-.44-1.17-.34-1.17-.73-2.18-1.18-3.04-.44-.86-.81-1.47-1.09-1.85-.29-.38-.66-.84-1.13-1.4-.47-.56-.7-1.02-.7-1.38,0-.15,.03-.31,.1-.47s.18-.35,.33-.57l1.25-1.86c.87-1.28,1.49-2.21,1.84-2.81,.35-.59,.53-1.06,.53-1.41,0-.51-.23-.92-.68-1.23-.1-.07-.15-.14-.15-.21s.05-.13,.14-.18c.09-.05,.22-.07,.39-.07,.4,0,.81,.08,1.22,.23s.75,.37,1.01,.66c.27,.29,.4,.6,.4,.95,0,.63-.41,1.48-1.24,2.56-.83,1.08-1.88,2.32-3.16,3.72-.17,.18-.25,.38-.25,.58,0,.25,.13,.49,.38,.73,.61,.56,1.24,1.24,1.89,2.05,.65,.81,1.2,1.64,1.65,2.47,.45,.83,.67,1.56,.67,2.17,0,.39-.07,.73-.22,1.01s-.32,.5-.52,.65-.38,.22-.53,.22c-.22,0-.39-.13-.53-.38Z"/>
    <path class="cls-2" d="M49.89,78.77c.38,.3,.71,.64,1,1.02,.29,.38,.44,.66,.44,.84,0,.15-.04,.27-.11,.36-.08,.09-.2,.2-.36,.32-.38,.24-.67,.54-.87,.9-1.01,1.82-2.23,3.49-3.67,5.01-1.44,1.52-3.21,2.79-5.34,3.82-.54,.26-1.16,.53-1.84,.78-.68,.26-1.1,.39-1.25,.39-.08,0-.11-.02-.11-.06,0-.07,.15-.2,.44-.4,.08-.06,.6-.4,1.56-1.02,.97-.63,2.16-1.72,3.57-3.3,1.41-1.57,2.62-3.3,3.63-5.19,.43-.82,.64-1.28,.64-1.38,0-.07-.03-.1-.08-.1-.04,0-.07,0-.09,.02-.24,.11-.62,.23-1.15,.34s-1.01,.18-1.45,.18c-.29,0-.53-.03-.72-.08-1.1,1.28-2.42,2.48-3.95,3.61-1.1,.82-1.76,1.23-1.97,1.23-.08,0-.11-.03-.11-.08,0-.07,.06-.15,.17-.25,.46-.4,1.05-1.09,1.79-2.05,.74-.97,1.42-1.95,2.04-2.96,.62-1.01,1-1.78,1.16-2.31,.05-.17,.08-.33,.08-.5s-.04-.32-.11-.46c-.08-.14-.18-.29-.32-.45-.14-.16-.21-.27-.21-.32,0-.15,.15-.27,.45-.35,.3-.08,.59-.12,.88-.12,.32,0,.66,.12,1.04,.35,.38,.24,.7,.53,.96,.89,.26,.35,.39,.69,.39,1.01,0,.1-.03,.17-.08,.23-.05,.06-.13,.12-.25,.19-.2,.11-.35,.24-.46,.4l-.04,.06h.25c.94,0,1.62-.15,2.05-.44,.1-.07,.21-.16,.33-.26,.12-.1,.23-.18,.33-.23,.1-.05,.23-.07,.4-.07,.25,0,.57,.15,.95,.45Z"/>
    <path class="cls-2" d="M41.49,105.75c-.24-.28-.37-.58-.4-.92-.01-.07-.02-.37-.02-.9l.02-3.05c0-.72-.04-1.34-.11-1.84-.08-.5-.25-.83-.51-.98-.04-.03-.1-.07-.2-.11-.09-.05-.14-.11-.14-.18,0-.11,.1-.24,.31-.4,.21-.15,.42-.23,.64-.23,.09,0,.34,.04,.76,.12,.59,.11,1,.26,1.21,.45,.21,.19,.32,.42,.32,.7,0,.1-.03,.29-.08,.56l-.08,.63c-.05,.56-.08,1.38-.08,2.46l.02,2.25c0,.7-.11,1.18-.32,1.44-.21,.26-.46,.4-.72,.4-.18,0-.39-.14-.63-.42Zm.44,7.49s.08-.13,.25-.27c1.23-1.01,2.15-2.07,2.77-3.17,.62-1.1,1.02-2.47,1.21-4.11,.21-1.81,.32-3.94,.32-6.38,0-.68-.06-1.22-.19-1.62-.13-.4-.4-.7-.82-.91-.19-.08-.28-.19-.28-.31,0-.15,.13-.29,.4-.42s.6-.19,1-.19c.25,0,.58,.09,.98,.27,.4,.18,.74,.4,1.03,.67,.29,.26,.44,.53,.44,.79,0,.15-.04,.34-.11,.56-.06,.18-.11,.36-.14,.53-.03,.17-.05,.42-.05,.74,0,1.13-.04,2.25-.11,3.38s-.18,2.12-.3,2.98c-.21,1.42-.62,2.62-1.21,3.61-.59,.99-1.3,1.79-2.1,2.42-.47,.36-.91,.65-1.34,.88-.42,.22-.78,.38-1.06,.47-.28,.09-.46,.14-.54,.14-.09,0-.13-.02-.13-.06Z"/>
    <path class="cls-2" d="M51.04,125.18c.41,.15,.79,.39,1.14,.72s.52,.76,.52,1.27c0,.32-.07,.54-.22,.67-.15,.12-.35,.19-.62,.19-.2,0-.46-.03-.77-.08-.31-.06-.53-.09-.65-.1-1.07-.17-2.19-.25-3.36-.25-1.9,0-3.95,.22-6.16,.65-.33,.07-.58,.14-.74,.21-.04,.01-.15,.05-.34,.11-.19,.06-.39,.09-.61,.09-.4,0-.79-.14-1.15-.42-.36-.28-.65-.62-.86-1.02-.21-.4-.32-.79-.32-1.15,0-.14,.04-.21,.11-.21,.03,0,.11,.04,.27,.13,.37,.25,.87,.38,1.5,.38,.24,0,.47-.02,.7-.06,1.09-.21,2.52-.4,4.3-.58,.01-.93,.02-2.16,.02-3.67,0-.33-.15-.67-.44-1.02-.83,.14-1.47,.29-1.92,.44-.15,.06-.32,.08-.49,.08-.34,0-.66-.13-.96-.4-.3-.26-.53-.59-.71-.97-.18-.38-.27-.72-.27-1.01,0-.13,.04-.19,.11-.19,.03,0,.17,.06,.44,.19s.56,.19,.87,.19c.39,0,1.38-.1,2.98-.31,1.59-.21,2.55-.37,2.86-.48,.11-.04,.28-.1,.48-.18,.21-.08,.41-.14,.61-.19,.2-.05,.4-.07,.62-.07,.25,0,.53,.06,.83,.18,.3,.12,.56,.28,.78,.49,.21,.21,.32,.44,.32,.69,0,.26-.04,.46-.12,.57-.08,.12-.2,.2-.36,.24s-.42,.08-.79,.1l-.4,.04c-.8,.06-1.64,.14-2.52,.25,.23,.29,.34,.51,.34,.65,0,.08-.06,.21-.17,.37-.11,.16-.18,.39-.19,.7-.03,.38-.04,.85-.06,1.42-.01,.57-.02,1.14-.02,1.71,.95-.08,1.78-.12,2.5-.12,.46,0,.77-.02,.95-.07,.18-.05,.33-.11,.47-.2,.08-.06,.15-.1,.24-.13,.08-.03,.21-.04,.37-.04s.45,.07,.86,.22Z"/>
    <path class="cls-2" d="M47.21,135.01c.46,.3,.84,.65,1.14,1.04,.3,.4,.45,.73,.45,.99,0,.14-.05,.24-.15,.29-.06,.04-.15,.09-.25,.15-.1,.06-.19,.12-.28,.2-.08,.08-.17,.2-.27,.36-.59,.96-1.23,1.84-1.92,2.63,.23,.19,.41,.4,.55,.6,.14,.21,.21,.4,.21,.58,0,.15-.03,.31-.09,.46-.06,.15-.1,.25-.11,.29-.13,.25-.2,.46-.23,.63-.03,.15-.04,.59-.04,1.31,0,.63,.03,1.66,.08,3.11,.05,1.22,.08,2,.08,2.32,0,.46-.08,.81-.23,1.05s-.37,.36-.64,.36c-.13,0-.28-.03-.47-.1-.4-.14-.68-.37-.82-.7-.15-.33-.22-.73-.22-1.22,0-.14,.01-.42,.04-.83,.08-.72,.11-1.65,.11-2.77,0-1.31-.04-2.34-.11-3.09-.83,.76-1.66,1.41-2.46,1.94-.81,.53-1.5,.93-2.09,1.2-.58,.27-.94,.41-1.08,.41-.09,0-.13-.03-.13-.1,0-.08,.08-.19,.23-.31,1.23-1,2.32-2.06,3.28-3.17,.96-1.11,1.75-2.14,2.36-3.08s1.05-1.72,1.32-2.35c.15-.38,.23-.74,.23-1.08,0-.4-.12-.72-.36-.94-.17-.14-.25-.26-.25-.35,0-.18,.25-.27,.76-.27,.47,0,.93,.15,1.39,.45Z"/>
    <path class="cls-2" d="M49.5,159.8c.47,.11,.91,.3,1.3,.57,.39,.27,.59,.63,.59,1.07,0,.33-.1,.56-.29,.67-.2,.11-.53,.17-1.01,.17l-1.14-.02c-.68,0-1.47,.02-2.37,.06,.25,.31,.38,.59,.38,.86,0,.1-.03,.18-.08,.26-.06,.08-.12,.16-.2,.24-.13,.12-.23,.25-.32,.38-.09,.12-.15,.29-.19,.5-.43,1.89-1.19,3.42-2.28,4.6s-2.16,2.02-3.22,2.54c-1.06,.52-1.73,.78-2.01,.78-.06,0-.09-.02-.09-.06,0-.06,.06-.13,.19-.23,1.52-1.13,2.67-2.34,3.45-3.63,.78-1.29,1.29-2.42,1.52-3.37s.34-1.69,.34-2.22c0-.17-.03-.3-.08-.4-1.09,.14-1.94,.33-2.56,.58-.29,.12-.58,.19-.87,.19-.4,0-.8-.15-1.18-.44-.38-.29-.69-.64-.93-1.03-.24-.4-.36-.73-.36-.99s.12-.4,.36-.4c.13,0,.25,.03,.38,.1,.44,.22,1.16,.33,2.16,.33,.48,0,1.46-.09,2.94-.27,1.48-.18,2.45-.32,2.92-.42,.2-.06,.42-.15,.66-.29,.33-.21,.62-.31,.87-.31,.28,0,.65,.06,1.13,.17Zm-7.99-1.1c-.34-.26-.69-.66-1.04-1.22-.11-.19-.17-.34-.17-.44,0-.13,.08-.19,.23-.19,.08,0,.21,.03,.42,.08,.34,.07,.58,.1,.7,.1,.23,0,.8-.07,1.73-.2,.92-.13,1.5-.24,1.73-.32,.11-.04,.31-.11,.6-.22,.28-.1,.53-.18,.75-.23,.21-.05,.43-.07,.64-.07,.19,0,.43,.09,.73,.27,.3,.18,.56,.4,.78,.67,.22,.26,.33,.51,.33,.75,0,.31-.16,.52-.46,.64s-.72,.2-1.24,.24c-.56,.04-1.27,.1-2.14,.19-.87,.08-1.56,.18-2.07,.29-.09,.03-.23,.04-.42,.04-.38,0-.74-.13-1.08-.39Z"/>
    <path class="cls-2" d="M49.7,174.47c.37,.24,.67,.51,.91,.83,.24,.32,.36,.59,.36,.81,0,.17-.11,.29-.32,.35-.09,.04-.16,.09-.22,.15-.06,.06-.13,.16-.22,.31-.39,.71-.87,1.41-1.44,2.11,.35,.32,.53,.61,.53,.88,0,.17-.06,.39-.19,.67l-.15,.42c-.03,.2-.04,.48-.04,.86s.03,1.38,.09,3.02l.04,1.42c0,.38-.07,.67-.2,.88-.13,.21-.31,.31-.54,.31-.09,0-.22-.03-.4-.08-.32-.11-.54-.3-.65-.56-.12-.26-.18-.59-.18-.98l.04-.6c.01-.17,.03-.48,.05-.93,.02-.45,.03-.89,.03-1.32,0-.97-.03-1.72-.08-2.23-.64,.58-1.29,1.07-1.92,1.46-.64,.39-1.19,.68-1.64,.88-.46,.2-.74,.29-.85,.29-.1,0-.15-.04-.15-.13,0-.07,.07-.16,.21-.27,.99-.78,1.86-1.6,2.63-2.47s1.38-1.68,1.86-2.44c.47-.76,.81-1.38,1-1.87,.13-.32,.19-.6,.19-.86,0-.32-.09-.55-.28-.69-.14-.11-.21-.22-.21-.31,0-.17,.21-.25,.64-.25,.38,0,.75,.12,1.12,.35Z"/>
    <path class="cls-2" d="M38.63,208.68c0-.07,.07-.14,.21-.21,1.87-1.02,3.44-2.28,4.71-3.8,1.27-1.52,2.21-2.97,2.83-4.37s.92-2.42,.92-3.06c0-.18-.06-.27-.19-.27-.1,0-1,.2-2.7,.6-1.7,.4-2.7,.67-3.01,.81-.49,.21-.85,.31-1.08,.31-.27,0-.55-.15-.85-.45-.3-.3-.56-.67-.77-1.12-.21-.44-.31-.88-.31-1.29,0-.31,.05-.46,.15-.46,.03,0,.11,.05,.26,.16,.15,.1,.31,.2,.5,.28,.19,.08,.41,.13,.66,.13,.35,0,1.45-.13,3.29-.4,1.84-.26,3.02-.45,3.56-.56,.29-.06,.61-.19,.97-.4,.13-.07,.25-.13,.38-.19,.13-.06,.26-.08,.4-.08,.2,0,.48,.15,.83,.44,.35,.29,.67,.62,.96,.99,.28,.37,.43,.65,.43,.84,0,.14-.03,.26-.1,.38-.07,.11-.18,.26-.33,.44-.03,.03-.09,.09-.19,.2-.1,.1-.17,.21-.21,.32-.59,1.35-1.16,2.52-1.7,3.53-.54,1-1.32,2.09-2.35,3.26-1.03,1.18-2.27,2.14-3.73,2.89-.66,.33-1.35,.61-2.09,.83-.73,.22-1.18,.33-1.33,.33-.08,0-.11-.03-.11-.1Zm10.51-15.4c-.1-.07-.15-.12-.15-.15,0-.06,.06-.08,.19-.08,.23,0,.59,.05,1.1,.16,.5,.1,.99,.32,1.44,.65,.46,.33,.68,.78,.68,1.37,0,.22-.06,.39-.17,.51-.11,.12-.25,.18-.42,.18-.19,0-.34-.05-.46-.16-.11-.1-.23-.27-.36-.49-.52-.83-1.14-1.49-1.86-1.98Zm3.74,.51c-.1-.08-.22-.2-.36-.36-.35-.39-.69-.7-1.01-.94-.32-.24-.72-.47-1.19-.69-.11-.07-.17-.13-.17-.17s.1-.07,.29-.09c.2-.02,.36-.03,.48-.03,.78,0,1.45,.15,2.01,.45s.83,.73,.83,1.28c0,.21-.06,.37-.18,.49s-.26,.18-.41,.18c-.1,0-.2-.04-.3-.11Z"/>
  </g>
  <g>
    <path d="M113.27,235.9v.92c0,.87,0,1.33,.11,3.64h-1.49c.01-.21,.03-.43,.04-.66h-2.07l.04,.66h-1.51c.11-1.78,.13-3.84,.13-3.95v-.62h-2.12v6.09h5.5c1.02,0,2.03-.04,3.04-.13v1.39c-1.15-.1-2.24-.13-3.04-.13h-5.49c.01,.48,.04,.64,.07,.87h-1.61c.03-.31,.08-.83,.13-1.79,.01-.24,.1-2.24,.1-2.35v-3.95c-1.36,.03-1.51,.03-2.2,.07v-1.25c.57,.03,.77,.04,2.2,.1,0-1.78,0-2.06-.07-3.24l1.44,.07c.27,.01,.39,.14,.39,.24,0,.17-.22,.27-.39,.34-.03,.64-.03,.71-.06,2.61h2.1c0-.97-.03-2.52-.03-3.49l1.53,.11c.35,.03,.35,.18,.35,.27,0,.14-.13,.22-.46,.34-.03,.78-.04,1.22-.04,1.75v1.02h2.07v-1.19c0-.66-.03-1.4-.06-2.07l1.6,.17c.1,.01,.32,.03,.32,.25,0,.14-.35,.32-.46,.38-.04,.7-.04,1.04-.07,2.44,.84-.03,.98-.03,2.31-.08v1.25c-.76-.03-1.62-.06-2.31-.07Zm-1.33,0h-2.07v2.75h2.07v-2.75Z"/>
    <path d="M129.79,240.65c-.95-.25-2.04-.63-3.22-1.57v3.22c0,.69,.04,1.06,.17,1.62h-1.65c.11-.45,.15-1.2,.15-1.67v-1.64c0-.81-.04-1.61-.08-2.19l.84,.14c-.31-.28-.85-.87-1.19-1.5h-1.51c-.42,.64-.95,1.2-1.09,1.34l.69,.04c.11,0,.32,.03,.32,.22,0,.13-.03,.14-.35,.35-.08,1.46-.15,2.47-.79,3.43-.45,.67-1.05,1.25-1.75,1.64l-1.04-1.13c1.15-.55,2.25-1.18,2.25-3.95-.15,.13-1.16,.98-3.14,1.75l-.95-1.29c.8-.13,2.66-.63,4.24-2.41-1.37,0-1.51,0-2.66,.06,.11-.48,.14-1.37,.14-1.86v-1.92c0-.35-.06-1.34-.1-1.71,.45,.06,.49,.07,1.72,.1,.87,.03,.97,.03,1.57,.03h2.58c.78,0,3.03-.01,3.78-.14q-.08,1.37-.08,2.28v1.34c0,.6,.03,1.25,.08,1.88-.59-.06-.76-.06-2.33-.06,.42,.59,.94,1.06,1.36,1.32,.85,.53,2.14,.92,2.76,.98l-.73,1.27Zm-6.46-7.89h-2.88v1.13h2.88v-1.13Zm0,2.13h-2.88v1.18h2.88v-1.18Zm4.1-2.13h-2.91v1.13h2.91v-1.13Zm0,2.13h-2.91v1.18h2.91v-1.18Z"/>
    <path d="M143.59,237.45c-.07,0-.38-.04-.53-.06-.74,.18-.81,.21-2.58,.92,.01,.41,.01,2.26,.03,2.62l-1.51,.1c.06-.45,.14-1.13,.2-2.16-.87,.43-1.39,.74-1.85,1.22-.32,.34-.56,.83-.56,1.2,0,1.08,1.55,1.2,2.7,1.2,.73,0,2.13-.11,3.18-.42l-.41,1.44c-.11,0-.21,.01-1.04,.08-.32,.03-.71,.06-1.32,.06-2.56,0-3.15-.34-3.67-.78-.48-.41-.74-.99-.74-1.61,0-1.82,2.27-3.1,3.56-3.73-.13-.36-.29-.84-1.04-.84s-1.55,.6-2,1.04c-.6,.59-1.02,1.25-1.33,1.78l-1.22-.67c1.47-1.46,2.2-2.65,2.96-4.12-.98,.11-1.4,.17-2.24,.21l-.22-1.33c.38,.03,.76,.07,1.32,.07,.7,0,1.22-.06,1.67-.1,.39-.97,.52-1.48,.67-2.07l1.55,.22c.13,.01,.24,.08,.24,.22,0,.15-.03,.17-.52,.48-.22,.46-.28,.6-.43,.92,1.36-.24,2.14-.48,2.98-.78l-.14,1.33c-.78,.2-2.54,.5-3.4,.62-.34,.66-.56,1.02-.8,1.4,.28-.11,1-.35,1.5-.35s1.25,.31,1.58,1.05c.06,.13,.1,.28,.13,.39,1.82-.76,1.89-.78,2.54-1.12l.91,1.16c.06,.07,.07,.14,.07,.2,0,.11-.08,.2-.22,.2Z"/>
    <path d="M153.37,243.16c-.56-.42-1.65-1.23-2.45-2.76-.59,1.34-1.7,2.73-2.94,3.4l-1.42-.88c1.15-.43,2.12-1.25,2.76-2.27,.6-.94,.78-1.79,.91-2.44h-.77c-.78,0-1.58,.03-2.37,.11v-1.37c.81,.1,2,.13,2.37,.13h.91c.01-.2,.04-.57,.04-.99,0-.64-.04-.94-.1-1.43h-1.37c-.49,.88-.85,1.23-1.02,1.4l-1.23-.69c.56-.45,1.21-1.37,1.42-1.79,.2-.36,.53-1.3,.74-2.26l1.47,.52c.07,.03,.15,.08,.15,.2,0,.2-.25,.24-.5,.27-.1,.28-.2,.53-.49,1.25h2.58c.62,0,1.25-.03,1.86-.11v1.34c-.8-.13-1.79-.13-1.86-.13h-.39c.03,.17,.06,.53,.06,1.04,0,.57-.03,.88-.06,1.39,.55,0,1.68-.03,2.55-.13v1.39c-1.02-.13-2.3-.13-2.4-.13h-.29c-.04,.25-.06,.29-.08,.43,.39,.94,.71,1.53,1.68,2.51,.64,.64,.92,.83,1.13,.95l-.88,1.05Zm4.58,.18c.01-.08,.07-.76,.11-1.19h-2.23c.03,.45,.07,1.2,.1,1.36h-1.55c.17-.97,.2-4.16,.2-4.36v-3.43c0-1.3-.04-2.02-.07-2.54,.22,.01,1.39,.07,1.7,.07h1.62c.39,0,1.19-.01,1.55-.06-.07,.45-.08,1.3-.08,2.55v3.39c0,1.4,.1,3.68,.17,4.2h-1.51Zm.11-8.95h-2.23v6.56h2.23v-6.56Z"/>
    <path d="M165.72,240.06l-1.02,.25c-.53-1.25-.73-2.72-.73-4.08,0-1.26,.22-2.84,.53-4.33l1.53,.31c.11,.03,.28,.07,.28,.22,0,.13-.17,.24-.49,.42-.53,1.13-.67,2.41-.67,3.66,0,.46,.06,1.25,.17,1.25,.06,0,.07-.03,.18-.27,.14-.29,.97-2.1,1.05-2.24l.67,.9c-.62,1.26-1.3,2.63-1.5,3.91Zm6.08-7.44c.01,.38,.06,1.27,.06,2.4,0,3.17-.35,6.35-2.83,8.4l-1.51-.85c.38-.2,1.32-.67,1.99-2.02,.83-1.68,.98-3.59,.98-4.8s-.13-2.56-.27-3.82l1.6,.1c.13,.01,.35,.03,.35,.22,0,.17-.22,.29-.36,.38Z"/>
    <path d="M179.52,243.82c-.83-1.22-1.69-2.13-2.9-2.87l.97-.95c1.71,1.13,2.55,2.14,3.01,2.68l-1.08,1.15Z"/>
    <path d="M192.95,243.55h-5.66c-1.92,0-1.99-1.37-1.99-2.1v-3.75c0-.11,0-.8-.1-1.82,1.01,.07,1.99,.1,2.83,.1h5.86v-2.84h-5.21c-1.3,0-2.48,.06-3.7,.14v-1.5c1.37,.1,2.79,.15,3.75,.15h3.54c.78,0,2.3-.06,3.05-.14-.07,.77-.08,2.2-.08,2.28v2.41c0,.41,.01,.67,.06,1.55h-1.49c.01-.14,.03-.74,.04-.87h-7.19v3.96c0,.88,.28,1.16,1.29,1.16h4.99c1.42,0,1.81-.04,2.28-2.26l1.21,.98c-.63,2.54-1.58,2.54-3.49,2.54Z"/>
    <path d="M210.09,237.45c-.07,0-.38-.04-.53-.06-.74,.18-.81,.21-2.58,.92,.01,.41,.01,2.26,.03,2.62l-1.51,.1c.06-.45,.14-1.13,.2-2.16-.87,.43-1.39,.74-1.85,1.22-.32,.34-.56,.83-.56,1.2,0,1.08,1.55,1.2,2.7,1.2,.73,0,2.13-.11,3.18-.42l-.41,1.44c-.11,0-.21,.01-1.04,.08-.32,.03-.71,.06-1.32,.06-2.56,0-3.15-.34-3.67-.78-.48-.41-.74-.99-.74-1.61,0-1.82,2.27-3.1,3.56-3.73-.13-.36-.29-.84-1.04-.84s-1.55,.6-2,1.04c-.6,.59-1.02,1.25-1.33,1.78l-1.22-.67c1.47-1.46,2.2-2.65,2.96-4.12-.98,.11-1.4,.17-2.24,.21l-.22-1.33c.38,.03,.76,.07,1.32,.07,.7,0,1.22-.06,1.67-.1,.39-.97,.52-1.48,.67-2.07l1.55,.22c.13,.01,.24,.08,.24,.22,0,.15-.03,.17-.52,.48-.22,.46-.28,.6-.43,.92,1.36-.24,2.14-.48,2.98-.78l-.14,1.33c-.78,.2-2.54,.5-3.4,.62-.34,.66-.56,1.02-.8,1.4,.28-.11,1-.35,1.5-.35s1.25,.31,1.58,1.05c.06,.13,.1,.28,.13,.39,1.82-.76,1.89-.78,2.54-1.12l.91,1.16c.06,.07,.07,.14,.07,.2,0,.11-.08,.2-.22,.2Z"/>
    <path d="M219.87,243.16c-.56-.42-1.65-1.23-2.45-2.76-.59,1.34-1.7,2.73-2.94,3.4l-1.42-.88c1.15-.43,2.12-1.25,2.76-2.27,.6-.94,.78-1.79,.91-2.44h-.77c-.78,0-1.58,.03-2.37,.11v-1.37c.81,.1,2,.13,2.37,.13h.91c.01-.2,.04-.57,.04-.99,0-.64-.04-.94-.1-1.43h-1.37c-.49,.88-.85,1.23-1.02,1.4l-1.23-.69c.56-.45,1.21-1.37,1.42-1.79,.2-.36,.53-1.3,.74-2.26l1.47,.52c.07,.03,.15,.08,.15,.2,0,.2-.25,.24-.5,.27-.1,.28-.2,.53-.49,1.25h2.58c.62,0,1.25-.03,1.86-.11v1.34c-.8-.13-1.79-.13-1.86-.13h-.39c.03,.17,.06,.53,.06,1.04,0,.57-.03,.88-.06,1.39,.55,0,1.68-.03,2.55-.13v1.39c-1.02-.13-2.3-.13-2.4-.13h-.29c-.04,.25-.06,.29-.08,.43,.39,.94,.71,1.53,1.68,2.51,.64,.64,.92,.83,1.13,.95l-.88,1.05Zm4.58,.18c.01-.08,.07-.76,.11-1.19h-2.23c.03,.45,.07,1.2,.1,1.36h-1.55c.17-.97,.2-4.16,.2-4.36v-3.43c0-1.3-.04-2.02-.07-2.54,.22,.01,1.39,.07,1.7,.07h1.62c.39,0,1.19-.01,1.55-.06-.07,.45-.08,1.3-.08,2.55v3.39c0,1.4,.1,3.68,.17,4.2h-1.51Zm.11-8.95h-2.23v6.56h2.23v-6.56Z"/>
    <path d="M234.69,243.33c-1.21,0-2.91-.55-2.91-1.89,0-1.15,1.15-1.86,2.21-1.86,.64,0,1.46,.25,2.16,.87,.38,.34,.56,.64,.73,.92,.35-.27,1.09-.83,1.09-1.96,0-.2-.04-1.13-.62-1.69-.56-.55-1.39-.6-1.75-.6-.99,0-1.99,.39-2.76,.94-.62,.43-1.09,.94-2.17,2.1l-1.16-.92c1.37-1.02,4.31-4.01,5.63-5.76-.92,.2-1.37,.29-2.33,.42-.27,.03-1.43,.14-1.67,.17l-.29-1.36c.24,.03,.49,.06,.92,.06,1.86,0,4.22-.48,4.99-.78l.84,.98c-.67,.42-.83,.57-1.55,1.32-.98,.99-1.15,1.18-1.92,2.11,.39-.18,.94-.43,1.79-.43,2.06,0,3.4,1.61,3.4,3.22,0,2.31-2.12,4.16-4.64,4.16Zm.5-2.2c-.28-.24-.78-.39-1.2-.39-.7,0-1,.39-1,.64,0,.53,.84,.81,1.65,.81,.56,0,.85-.1,1.11-.18-.13-.28-.27-.63-.56-.88Z"/>
    <path d="M111.88,264.52c.01-.45,.03-.57,.04-.98h-5.32c.01,.17,.06,.87,.06,1.01h-1.57c.04-.88,.13-2.62,.13-4.06v-3.53c0-1.16-.01-2.51-.07-3.67,.59,.04,1.43,.08,2.72,.08h3.04c1.39,0,1.54-.04,2.49-.1-.06,.99-.08,2.28-.08,3.29v3.84c0,1.05,.06,3.11,.14,4.12h-1.57Zm.04-9.85h-5.32v3.12h5.32v-3.12Zm0,4.4h-5.32v3.21h5.32v-3.21Z"/>
    <path d="M129.55,262.87c-.43-.22-1.36-.7-2.44-1.65-.99-.9-1.88-1.93-2.45-2.9v2.03c0,.25,0,.34,.01,1.15h.27c.67,0,1.34-.03,2-.13v1.39c-.6-.08-1.39-.13-2-.13h-.25c0,.46,.01,.95,.07,2.44h-1.58c.04-1.46,.06-1.92,.06-2.44h-.25c-.67,0-1.33,.03-1.99,.13v-1.39c.66,.1,1.32,.13,1.99,.13h.27c.01-.76,.01-.84,.01-1.09v-2.26c-1.15,2.03-2.82,3.75-4.9,4.8l-1.09-1.29c2.17-.76,4.23-2.7,5.5-5.43h-.88c-1.33,0-2.84,.03-4.16,.11v-1.37c1.39,.08,2.77,.11,4.16,.11h1.37c-.01-1.46-.03-1.62-.06-2.77l1.46,.08c.25,.01,.36,.06,.36,.22,0,.11-.03,.14-.32,.36-.01,.42-.04,1.6-.04,2.1h1.33c1.33,0,2.89-.03,4.2-.11v1.37c-1.4-.08-2.8-.11-4.2-.11h-.98c.35,.64,1.04,1.85,2.16,3.01,1.46,1.53,2.76,2.06,3.4,2.33l-1.02,1.3Z"/>
    <path d="M143.67,255.91c-1.23,1.72-1.76,2.47-3.08,3.59l-1.11-.99c1.32-.78,2.35-2.03,3.24-3.54h-5.58c-1.08,0-2.75,.04-4.12,.1v-1.27c1.11,.07,2.8,.1,4.05,.1h3.35c.9,0,2.04-.1,3.22-.27l1.04,1.27c-.31,.14-.41,.18-1.01,1.02Zm-4.4,.57c-.22,2.4-.49,5.21-3.73,7.65l-1.37-.88c1.58-.9,2.42-2.2,2.59-2.47,.81-1.26,1.02-2.49,1.02-4.1,0-.31,0-.53-.03-1.01l1.51,.15c.31,.03,.38,.21,.38,.31,0,.14-.04,.15-.38,.35Z"/>
    <path d="M155.1,262.79h-3.64c-1.23,0-2.45,.03-3.68,.14v-1.6c1.25,.11,3.08,.14,3.68,.14h3.64c.08,0,2.16,0,3.71-.14v1.6c-1.51-.14-3.32-.14-3.71-.14Zm-.38-6.74h-2.66c-.84,0-1.89,.03-2.7,.13v-1.48c.92,.1,2.25,.13,2.7,.13h2.66c.91,0,1.83-.03,2.73-.13v1.48c-1.16-.13-2.67-.13-2.73-.13Z"/>
    <path d="M171.13,254.71c-.6,1.54-.91,2.3-1.16,2.89-.17,.39-.38,.74-.6,1.12,1.51,1.46,1.68,1.67,2.03,2.23l-1.05,1.08c-.24-.35-.7-1.02-1.81-2.16-1.16,1.41-2.79,2.9-4.52,4.02l-1.42-1.11c.97-.25,1.78-.84,2.56-1.46,.69-.55,1.61-1.36,2.37-2.38-.2-.17-1.44-1.18-2.45-1.72l.77-1.19c1.05,.6,2.14,1.5,2.45,1.75,.6-1.04,1.46-2.97,1.47-4.27l1.48,.63c.27,.11,.31,.2,.31,.27,0,.21-.27,.28-.43,.31Z"/>
    <path d="M184.3,264.09l-1.06-1.16c.83-.21,2.2-.56,3.11-1.61,.83-.97,1.06-2.28,1.06-3.14,0-2-1.48-2.94-2.17-3.28-.84-.42-1.39-.41-1.92-.41-.24,1.71-.57,4.2-1.75,6.79-.27,.57-.97,2.09-1.77,2.09-.53,0-.95-.27-1.19-.48-.53-.43-1.71-1.67-1.71-3.77,0-1.02,.29-2.59,1.53-3.85,1.95-1.98,3.78-1.98,4.59-1.98,1.28,0,3.01,.22,4.4,1.75,.83,.91,1.26,2.12,1.26,3.35,0,3.45-2.44,5.15-4.38,5.69Zm-2.62-9.44c-1.19,.2-3.53,1.65-3.53,4.48,0,1.25,.77,2.56,1.36,2.56,.49,0,.85-.84,1.02-1.22,1.01-2.35,1.43-4.69,1.51-5.87-.13,.01-.24,.03-.36,.04Z"/>
    <path d="M199.53,258.4h-2.38c-.28,.52-.6,1.01-.99,1.44h2.98c.39,0,2.12-.04,2.47-.06,.29-.01,.45-.01,.87-.04-.06,.84-.07,1.58-.07,1.82v1.67c0,.29,.06,1.34,.08,1.72h-1.5c.03-.24,.03-.27,.04-.59h-5.28c.01,.27,.01,.34,.03,.56h-1.51c.04-.55,.13-1.44,.13-2.24v-1.13c-1.09,.88-2.06,1.26-2.68,1.48l-1.16-1.09c1.19-.31,3.4-.9,5.11-3.54h-.27c-1.41,0-2.84,.03-4.26,.11v-1.32c1.53,.1,3.24,.11,4.26,.11h.8c.22-.67,.35-1.2,.48-1.96l1.48,.38c.11,.03,.18,.07,.18,.15,0,.17-.24,.21-.32,.22-.13,.41-.22,.7-.41,1.2h1.92c1.29,0,2.76-.03,4.26-.11v1.32c-1.48-.08-3.1-.11-4.26-.11Zm.73-3.47v.2c0,.35,.01,.78,.04,1.13h-1.37c.03-.41,.04-.98,.04-1.33h-2.98c0,.46,.01,.88,.03,1.33h-1.37c.04-.31,.07-.97,.07-1.33-.48,0-2.13,.03-3.56,.11v-1.36c1.34,.07,1.6,.08,3.56,.1,0-.21-.01-.92-.06-1.47l1.4,.13c.15,.01,.25,.04,.25,.15,0,.14-.17,.21-.29,.27-.03,.29-.03,.36-.03,.94h2.98c0-.46-.03-1.08-.06-1.48l1.43,.13c.11,.01,.24,.04,.24,.14,0,.15-.2,.25-.29,.29-.03,.34-.03,.8-.03,.91,2.03-.03,2.25-.03,3.52-.1v1.36c-1.37-.08-3.01-.11-3.52-.11Zm.8,6.07h-5.34v2.24h5.34v-2.24Z"/>
    <path d="M209.65,263.54c-.74,0-1.37-.69-1.62-.98-1.05-1.25-1.51-2.65-1.51-4.89,0-.55,.03-.8,.28-3.07,.01-.06,.03-.31,.04-.36l1.28,.45c.28,.1,.43,.15,.43,.29,0,.13-.15,.2-.35,.29-.11,.43-.32,1.27-.32,2.49,0,2.3,.95,4.02,1.62,4.02s1.09-1.58,1.25-2.34l.81,.85c-.28,1.26-.84,3.24-1.91,3.24Zm6.85-2.91c-.04-1.2-.34-2.38-.85-3.47-.73-1.53-1.05-1.92-1.32-2.24l1.27-.6c1.44,1.75,2.37,4.59,2.45,5.84l-1.56,.48Z"/>
    <path d="M228.89,256.12h-.7v1.93c.8-.66,1.33-1.32,1.57-1.61l1.4,.74c.07,.04,.1,.11,.1,.17,0,.18-.28,.17-.42,.15-.91,.9-2.24,1.88-2.65,2.16v.28c0,.17,.03,.88,.03,1.04,.01,.53,.04,1.5,.04,2.62,0,.73,0,1.44-1.81,1.44-.39,0-.55-.04-.76-.08l-.88-1.47c.42,.14,.88,.29,1.47,.29s.62-.22,.62-.9v-2.38c-.69,.39-3.03,1.68-5.16,2.17l-1.25-1.36c.76-.04,1.99-.11,4.2-1.11,.94-.42,1.72-.88,2.2-1.19v-2.9h-2.03c-1.79,0-3.39,.08-4.23,.13v-1.36c.9,.08,3.82,.11,4.23,.11h2.02c-.03-1.62-.03-1.69-.13-2.7l1.67,.2c.14,.01,.27,.04,.27,.17,0,.14-.13,.18-.36,.27-.07,.7-.07,.83-.13,2.07h.69c1.37,0,2.75-.03,4.12-.11v1.36c-1.79-.11-3.85-.13-4.12-.13Z"/>
    <path d="M240.65,256.29c-.06-.25-.11-.43-.31-.85-.64,.1-2.2,.25-2.96,.32-.21,.03-1.16,.1-1.36,.11-.14,.18-.21,.27-.35,.27s-.18-.18-.2-.27l-.17-1.15h1.01c.55-1.25,.69-1.86,.79-2.26l1.44,.22c.08,.01,.24,.06,.24,.18,0,.14-.08,.17-.36,.27-.11,.14-.43,.81-.52,.95-.21,.38-.25,.43-.36,.6,.77-.03,1.82-.07,2.31-.11-.62-.83-.67-.87-.94-1.11l1.05-.53c1.04,.97,1.6,2.2,1.86,2.79l-1.18,.56Zm-.31,8.45c-.28,.11-1.26,.14-1.58,.14l-.5-1.34c.67,.08,1.02,.13,1.23,.13,.35,0,.36-.08,.36-.91v-.87h-2.89c-.01,.57-.03,1.36-.03,1.6,0,.22,.03,1.2,.03,1.4h-1.36c.08-.81,.17-2.49,.17-3.33v-2.38c0-.88-.03-1.95-.07-2.56,.64,.06,1.04,.07,1.86,.07h1.75c.69,0,1.46-.04,1.76-.07,0,.42-.03,2.26-.03,2.63v2.27c0,.22,.03,2.05,.03,2.07,0,.56-.13,.92-.74,1.16Zm-.49-6.99h-2.89v1.02h2.89v-1.02Zm0,2.05h-2.89v1.06h2.89v-1.06Zm5.97-1.51h-1.78c-1.34,0-1.79-.13-1.79-1.4v-2.58c0-.49,0-.63-.06-1.86l1.57,.22c.07,.01,.21,.1,.21,.15,0,.14-.04,.15-.39,.36-.03,.48-.06,.8-.06,1.19v.35c1.43-.29,2.28-.84,2.77-1.18l.98,.95s.07,.08,.07,.15-.04,.21-.28,.21c-.06,0-.08,0-.35-.07-.74,.41-1.75,.88-3.19,1.08v.84c0,.36,0,.57,.77,.57h1.36c.39,0,.49,0,.7-.24,.17-.2,.42-.87,.46-1.26l1.09,.74c-.43,1.67-.91,1.75-2.09,1.75Zm.25,6.39h-1.95c-.88,0-1.46-.01-1.75-.43-.08-.15-.13-.27-.13-.95v-2.82c0-.56,0-.71-.04-1.93l1.54,.18c.07,.01,.17,.04,.17,.18,0,.13-.06,.17-.34,.32-.03,.34-.06,.76-.06,1.43,1.06-.17,2.09-.49,2.86-1.11l.94,.94s.07,.07,.07,.14-.06,.2-.2,.2c-.07,0-.14-.03-.32-.1-1.26,.64-2.4,.97-3.35,1.11v1.34c0,.31,.11,.45,.77,.45h1.4c.5,0,.62-.18,.7-.29,.1-.17,.29-.67,.39-1.26l1.05,.76c-.27,1.83-1.05,1.85-1.76,1.85Z"/>
    <path d="M261.19,258.45c-.07,0-.38-.04-.53-.06-.74,.18-.81,.21-2.58,.92,.01,.41,.01,2.26,.03,2.62l-1.51,.1c.06-.45,.14-1.13,.2-2.16-.87,.43-1.39,.74-1.85,1.22-.32,.34-.56,.83-.56,1.2,0,1.08,1.55,1.2,2.7,1.2,.73,0,2.13-.11,3.18-.42l-.41,1.44c-.11,0-.21,.01-1.04,.08-.32,.03-.71,.06-1.32,.06-2.56,0-3.15-.34-3.67-.78-.48-.41-.74-.99-.74-1.61,0-1.82,2.27-3.1,3.56-3.73-.13-.36-.29-.84-1.04-.84s-1.55,.6-2,1.04c-.6,.59-1.02,1.25-1.33,1.78l-1.22-.67c1.47-1.46,2.2-2.65,2.96-4.12-.98,.11-1.4,.17-2.24,.21l-.22-1.33c.38,.03,.76,.07,1.32,.07,.7,0,1.22-.06,1.67-.1,.39-.97,.52-1.48,.67-2.07l1.55,.22c.13,.01,.24,.08,.24,.22,0,.15-.03,.17-.52,.48-.22,.46-.28,.6-.43,.92,1.36-.24,2.14-.48,2.98-.78l-.14,1.33c-.78,.2-2.54,.5-3.4,.62-.34,.66-.56,1.02-.8,1.4,.28-.11,1-.35,1.5-.35s1.25,.31,1.58,1.05c.06,.13,.1,.28,.13,.39,1.82-.76,1.89-.78,2.54-1.12l.91,1.16c.06,.07,.07,.14,.07,.2,0,.11-.08,.2-.22,.2Z"/>
    <path d="M107.73,277.13c-.07,.01-.36,.03-.42,.04-.13,.15-.17,.21-.59,.78-.21,.29-.41,.5-.52,.64,.03,.04,.17,.17,.2,.21,.01,.03,.03,.06,.03,.1s-.01,.08-.04,.11c-.04,.03-.21,.17-.24,.2-.04,.7-.04,1.09-.04,1.51v2.76c0,.22-.01,1.79,.11,2.56h-1.44c.01-.14,.01-.25,.08-1.25,.01-.2,.04-1.06,.04-1.25v-3.71c-.46,.43-.84,.76-1.33,1.02l-1.01-.88c.84-.48,2.75-1.58,4.12-4.05l1.05,.8c.06,.04,.14,.14,.14,.24,0,.14-.08,.15-.14,.15Zm-.78-2.65c-.84,.92-1.81,1.81-2.69,2.28l-1.08-.91c1.53-.71,2.45-1.76,3.04-2.54l1.09,.88c.07,.06,.1,.1,.1,.17,0,.13-.07,.13-.46,.11Zm7.66,6.05c-.07-.31-.11-.38-.48-1.16-.48,.08-2.17,.35-3.07,.46-.1,.32-.18,.52-.25,.69h1.11c.41,0,.62-.01,1.65-.15l.71,.69c-.71,1.37-1.4,2.27-1.92,2.8,1.32,.77,2.42,.85,3.21,.87l-.57,1.33c-1.01-.17-2.19-.45-3.56-1.39-1.5,1.02-2.97,1.26-3.8,1.39l-.77-1.15c.56-.03,2.2-.11,3.63-1.04-.34-.35-.69-.8-.97-1.36-.84,1.01-1.49,1.33-1.89,1.53l-1.12-.99c1.42-.57,2.59-1.64,3.17-3.04-1.21,.14-1.3,.14-1.77,.17-.03,.04-.13,.21-.15,.24-.04,.04-.1,.06-.13,.06-.11,0-.17-.08-.18-.18l-.15-1.22c.32-.01,1.76-.07,2.06-.1,.55-.59,.6-.64,.73-.78-.43-.56-.84-1.12-2.45-2.06l.83-.97c.27,.14,.34,.17,.87,.55,.76-1.02,.83-1.18,1.4-2.37l1.36,.78s.11,.08,.11,.17c0,.13-.15,.17-.22,.17h-.28c-.81,1.11-.98,1.36-1.5,1.91,.34,.32,.38,.36,.8,.83,.46-.5,1.47-1.93,1.96-2.76l1.32,.8c.06,.04,.13,.14,.13,.22,0,.17-.15,.2-.25,.2-.06,0-.31-.03-.35-.03-.21,.21-.27,.24-.66,.77-.17,.21-1.29,1.6-1.58,1.95-.18,.22-.34,.38-.45,.49,.21-.03,1.9-.21,2.51-.32-.39-.53-.64-.81-.78-.98l.97-.62c.83,.83,1.48,1.83,1.88,2.94l-1.08,.69Zm-4.26,1.02c.21,.48,.5,1.02,1.06,1.57,.62-.63,.97-1.29,1.11-1.57h-2.17Z"/>
    <path d="M120.85,280.85v3.42c0,.97-.01,1.86-2.34,1.79l-.69-1.46c.53,.13,1.06,.17,1.23,.17,.46,0,.5-.28,.5-.66v-2.65c-.76,.32-.9,.38-1.15,.49-.08,.18-.11,.27-.22,.27-.1,0-.15-.07-.17-.14l-.35-1.46c.38-.11,.84-.27,1.89-.63v-2.8h-.25c-.5,0-1,.03-1.49,.13v-1.39c.5,.1,1.26,.13,1.49,.13h.24c-.03-1.61-.06-1.95-.11-2.75l1.53,.14s.22,.01,.22,.17c0,.13-.07,.17-.29,.29-.01,.41-.01,.55-.01,.67-.01,.27-.03,1.29-.03,1.47,.46-.01,.99-.04,1.43-.13v1.39c-.45-.08-.69-.1-1.43-.13v2.28c.53-.22,.98-.43,1.43-.66v1.23c-.34,.2-.69,.41-1.43,.8Zm9.03-4.54v3.77c0,.63,.01,1.22,.06,2.06h-1.42c0-.42,.01-.55,.03-.73h-1.67v1.78c0,.15,.01,.74,.03,1.09,.01,.52,.03,1.23,.04,1.7h-1.44c.01-.59,.07-2.65,.07-2.8v-1.76h-1.68c.01,.24,.03,.35,.04,.76h-1.36c.06-1.16,.08-2.13,.08-2.87v-2.89c0-1.11-.04-1.93-.1-2.54,.62,.06,1.68,.07,2.33,.07h2.46c.53,0,2.05-.04,2.59-.08-.04,.55-.07,1.89-.07,2.45Zm-4.3-1.3h-1.68v1.98h1.68v-1.98Zm0,3.17h-1.68v2h1.68v-2Zm3-3.17h-1.69v1.98h1.69v-1.98Zm0,3.17h-1.69v2h1.69v-2Z"/>
    <path d="M141.41,284.04c-1.08,.92-2.52,1.25-3.24,1.25-.83,0-1.81-.34-2.47-1.12-.63-.76-.69-1.41-.69-2.65,0-.71,.13-3.85,.13-4.5,0-.91-.03-2.31-.15-3.18l1.6,.22c.34,.04,.48,.07,.48,.25,0,.13-.04,.15-.42,.41-.04,.34-.08,.71-.13,1.26-.07,1.04-.17,4.51-.17,5.07,0,1.33,.06,1.72,.38,2.16,.42,.59,1.18,.8,1.62,.8,.69,0,1.82-.36,2.59-1.25,.95-1.06,1.33-2.17,1.51-2.69l1.09,1.02c-.53,1.11-1.21,2.14-2.14,2.94Z"/>
    <path d="M156.5,276.62c-.9,0-1.23,.03-1.78,.07-.03,.31-.1,1.67-.11,1.95,.25,.5,.62,1.22,.62,2.31,0,.52-.14,3.12-2.27,5.14l-1.6-.64c.35-.17,.83-.41,1.33-.99,.63-.73,.79-1.36,.9-1.79-.25,.17-.53,.35-1.06,.35-1.36,0-1.96-1.29-1.96-2.33,0-1.19,.78-2.68,2.21-2.68,.25,0,.56,.03,.66,.04,.01-.38,.01-.46,.01-1.26-.99,.01-3.89,.18-5.62,.49l-.15-1.46c.38,.01,.48,.03,.9,.03,.5,0,2.72-.08,3.17-.1,.63-.01,.98-.01,1.67-.03,0-.62-.01-1.41-.17-2.27l1.5,.07c.22,.01,.53,.01,.53,.24,0,.1-.1,.17-.14,.2-.14,.11-.15,.13-.28,.22-.06,.36-.07,.48-.1,1.46,.63,0,3.05-.1,4.31-.35l.06,1.43c-1.25-.1-2.31-.1-2.62-.1Zm-3.7,2.61c-.59,0-.99,.66-.99,1.44,0,.9,.56,1.19,.84,1.19,.9,0,1.04-.91,1.04-1.39,0-.8-.42-1.25-.88-1.25Z"/>
    <path d="M168.19,285.33c-1.21,0-2.91-.55-2.91-1.89,0-1.15,1.15-1.86,2.21-1.86,.64,0,1.46,.25,2.16,.87,.38,.34,.56,.64,.73,.92,.35-.27,1.09-.83,1.09-1.96,0-.2-.04-1.13-.62-1.69-.56-.55-1.39-.6-1.75-.6-.99,0-1.99,.39-2.76,.94-.62,.43-1.09,.94-2.17,2.1l-1.16-.92c1.37-1.02,4.31-4.01,5.63-5.76-.92,.2-1.37,.29-2.33,.42-.27,.03-1.43,.14-1.67,.17l-.29-1.36c.24,.03,.49,.06,.92,.06,1.86,0,4.22-.48,4.99-.78l.84,.98c-.67,.42-.83,.57-1.55,1.32-.98,.99-1.15,1.18-1.92,2.11,.39-.18,.94-.43,1.79-.43,2.06,0,3.4,1.61,3.4,3.22,0,2.31-2.12,4.16-4.64,4.16Zm.5-2.2c-.28-.24-.78-.39-1.2-.39-.7,0-1,.39-1,.64,0,.53,.84,.81,1.65,.81,.56,0,.85-.1,1.11-.18-.13-.28-.27-.63-.56-.88Z"/>
    <path d="M186.56,277.39c-.74,2.44-1.08,3.49-2.38,5.14-1.22,1.53-2.79,2.76-4.64,3.38l-1.27-1.19c4.24-1.01,6.43-4.69,6.85-7.61h-5.07c-.62,0-1.83,.03-2.87,.15v-1.46c.57,.14,2.24,.14,2.9,.14h2.86c.28,0,1.83-.01,2.09-.06,.28-.04,.29-.06,.7-.32l1.25,1.02c-.2,.2-.29,.41-.41,.8Zm1.39-1.32c-.84,0-1.51-.67-1.51-1.51s.67-1.53,1.51-1.53,1.53,.69,1.53,1.53-.69,1.51-1.53,1.51Zm-.01-2.19c-.36,0-.66,.29-.66,.66s.29,.7,.69,.7,.66-.34,.66-.69c0-.38-.31-.67-.69-.67Z"/>
    <path d="M200.79,284.32c.06-.29,.06-.35,.1-.84h-6.82c0,.21,0,.57,.03,.81h-1.6c.04-.36,.11-.97,.11-1.82,.01-1.36,.01-1.51,.01-1.67v-2.91c0-.43-.04-2.58-.07-2.94,.83,.08,2.58,.11,3.45,.11h3.01c.99,0,2.48-.01,3.45-.07-.06,.73-.08,2.38-.08,3.17v2.77c0,.28,.04,1.48,.04,1.74,.01,.99,.07,1.33,.13,1.65h-1.75Zm.15-7.97h-6.89v5.88h6.89v-5.88Z"/>
    <path d="M209.93,279.52c-.42-.29-.63-.43-1.54-.83-1.01-.43-1.29-.53-1.61-.64l.6-1.19c.38,.15,2.14,.87,3.17,1.58l-.62,1.08Zm-.84,5.66c-.01,.17-.04,.5-.29,.5-.04,0-.15-.04-.24-.14l-1.05-1.37c.76-.21,2.27-.63,4.8-2.66,2.06-1.64,3.1-2.96,4.06-4.41l.85,1.16c-2.02,3.22-6.26,6.15-8.14,6.92Zm2.42-8.98c-.94-.76-2.35-1.32-3.21-1.57l.57-1.16c1.23,.49,2.34,1.06,3.24,1.61l-.6,1.12Zm4.34-.49c-.36-.38-.77-.77-1.53-1.25l.63-.69c.52,.28,1.2,.67,1.6,1.22l-.7,.71Zm1.5-1.02c-.13-.11-1.48-1.15-1.67-1.27l.71-.73c.73,.5,.81,.57,1.65,1.27l-.7,.73Z"/>
    <path d="M229.49,285.4h-5.11c-.29,0-1.11,.01-1.79,.08v-1.09c.67,.03,1.34,.04,2.02,.04h1.75v-5.08h-1.26c-.52,0-1.5,.07-1.79,.1v-1.13c1.09,.04,1.74,.06,2.02,.06h3.25c.43,0,1.34-.04,1.95-.06v1.13c-.62-.04-1.29-.1-1.74-.1h-1.23v5.08h1.72c.28,0,1.15,0,2.07-.04v1.09c-.6-.07-1.23-.08-1.85-.08Z"/>
    <path d="M246.04,276.95c-1.11,3.22-2.76,6.68-6.72,8.78l-1.25-1.01c1.06-.46,2.69-1.19,4.36-3.38,1.57-2.07,1.95-3.77,2.13-4.61h-4.29c-.69,1.06-1.48,2.17-2.76,3.31l-1.15-.81c.39-.31,1.37-1.05,2.47-2.7,.5-.78,1.19-1.91,1.36-2.72l1.53,.67c.1,.04,.2,.1,.2,.2,0,.14-.17,.22-.22,.24-.18,.06-.24,.04-.41,.21-.17,.17-.15,.22-.36,.57h2.21c1.7,0,1.91-.08,2.28-.28l1.04,1.09c-.22,.24-.24,.25-.41,.43Z"/>
    <path d="M259.85,281.97c-.76-.76-2.02-2.02-4.15-2.9v2.33c0,.83,.06,3.28,.15,3.99h-1.7c.1-.7,.11-1.77,.11-2.06,.01-.32,.06-1.74,.06-2.03v-3.66c0-.55-.04-2.04-.08-2.56-.03-.36-.07-.62-.14-.92l1.86,.13c.08,0,.27,.03,.27,.21,0,.14-.15,.24-.46,.42-.06,.87-.07,1.74-.07,2.59v1.55l.66-1.25c1.93,.88,3.81,2.3,4.41,3.05l-.92,1.11Z"/>
  </g>
  <g>
    <path class="cls-1" d="M304.35,211.54c26.22,26.22,26.22,68.73,0,94.95"/>
    <path class="cls-1" d="M56.16,306.48c-26.22-26.22-26.22-68.73,0-94.95"/>
  </g>
</svg>