<?xml version="1.0" encoding="UTF-8"?>
<svg id="_デザイン" data-name="デザイン" xmlns="http://www.w3.org/2000/svg" viewBox="0 0 1315.43 627.35">
  <defs>
    <style>
      .cls-1 {
        fill: none;
        stroke: #aa1e14;
        stroke-miterlimit: 10;
        stroke-width: 2px;
      }

      .cls-2 {
        fill: #aa1e14;
      }
    </style>
  </defs>
  <g>
    <path class="cls-2" d="M0,129.65l9.69-3.17c1.6,8.4,7.88,11.97,15.43,11.46,7.64-.52,11.79-5.03,11.42-10.5-1.01-14.76-32.98-7.66-34.41-28.67-.76-11.11,7.78-18.2,18.52-18.93,8.05-.55,15.32,2.4,20.2,9.83l-7.89,5.65c-2.87-4.64-7.08-6.96-12.03-6.62-5.37,.37-9.21,4.07-8.88,8.88,.91,13.42,32.91,6.64,34.38,28.3,.81,11.94-8.58,20.07-20.89,20.9-11.43,.78-22.65-4.83-25.53-17.14Z"/>
    <path class="cls-2" d="M57.95,130.96l-1.73-25.31-7.59,.52-.55-8.05,7.73-.53-.83-12.12,8.93-7.49,1.29,18.97,12.03-.82,.55,8.05-12.03,.82,1.61,23.7c.35,5.14,2.78,6.74,6.39,6.49,2.27-.15,4.57-1.15,5.96-1.89l.64,8.65c-1.58,.71-4.59,1.61-7.69,1.83-8.75,.6-14.15-4.24-14.73-12.81Z"/>
    <path class="cls-2" d="M84.02,119.09c-.85-12.4,5.48-24.69,20.38-25.71,15.87-1.08,21.83,11.3,22.51,21.25,.12,1.76,.06,3.67-.08,4.33l-32.53,2.22c1.34,7.44,5.65,11.98,13.61,11.44,4.63-.32,8.28-1.96,11.58-6.04l6.97,5.34c-4.71,5.9-10.37,8.89-18,9.41-15.27,1.04-23.57-9.55-24.44-22.23Zm33.27-6.45c-.02-1.02-.18-1.99-.48-2.9-1.28-5.17-5.57-8.73-11.96-8.3-7.22,.49-10.53,5.79-11.03,12.79l23.46-1.6Z"/>
    <path class="cls-2" d="M135.59,92.15l9.86-.67,.44,6.48c2.77-5.12,8.15-7.95,13.8-8.33,12.68-.86,20.52,9.76,21.4,22.67,.88,12.96-5.45,24.46-18.27,25.33-5.74,.39-11.23-1.7-14.66-6.39l1.75,25.64-9.86,.67-4.46-65.39Zm35.82,20.81c-.58-8.56-5.06-14.91-13.48-14.33-8.38,.57-12.37,7.4-11.78,16.05,.59,8.61,5.48,14.97,13.86,14.4,8.42-.57,11.99-7.6,11.41-16.12Z"/>
    <path class="cls-2" d="M214.63,109.87c-.89-13.1,7.67-24.51,21.61-25.46,13.93-.95,24.01,9.2,24.91,22.29,.9,13.14-7.7,24.75-21.63,25.7s-23.98-9.34-24.88-22.53Zm36.56-2.49c-.57-8.42-5.37-15.3-14.39-14.69-9.02,.62-12.8,8.03-12.22,16.5,.58,8.52,5.34,15.54,14.36,14.92,9.02-.61,12.83-8.27,12.25-16.74Z"/>
    <path class="cls-2" d="M270.6,111.35l-1.93-28.28,9.49-.65,1.83,26.84c.47,6.85,4.11,11.2,10.5,10.77,6.85-.47,10.98-4.7,10.41-13.08l-1.77-25.96,9.49-.65,3.15,46.23-9.49,.65-.42-6.2c-3.09,5.14-8.36,7.68-13.45,8.03-11.71,.8-17.09-7.95-17.81-17.71Z"/>
    <path class="cls-2" d="M326.06,112.69l-1.73-25.31-7.59,.52-.55-8.05,7.73-.53-.83-12.12,8.93-7.49,1.29,18.97,12.03-.82,.55,8.05-12.03,.82,1.61,23.7c.35,5.14,2.78,6.74,6.39,6.49,2.27-.15,4.57-1.15,5.96-1.89l.64,8.65c-1.58,.71-4.59,1.61-7.69,1.83-8.75,.6-14.14-4.24-14.73-12.81Z"/>
    <path class="cls-2" d="M387.24,108.52l-1.73-25.31-7.59,.52-.55-8.05,7.73-.53-.83-12.12,8.93-7.49,1.29,18.97,12.03-.82,.55,8.05-12.03,.82,1.61,23.7c.35,5.14,2.78,6.74,6.39,6.49,2.27-.15,4.57-1.15,5.96-1.89l.64,8.65c-1.58,.71-4.59,1.61-7.69,1.83-8.75,.6-14.14-4.24-14.73-12.81Z"/>
    <path class="cls-2" d="M412.91,96.35c-.89-13.1,7.67-24.51,21.6-25.46,13.93-.95,24.01,9.2,24.91,22.29,.9,13.14-7.71,24.75-21.64,25.7-13.93,.95-23.98-9.34-24.88-22.53Zm36.56-2.49c-.57-8.42-5.37-15.3-14.39-14.69-9.02,.62-12.8,8.03-12.22,16.5,.58,8.52,5.34,15.54,14.36,14.92,9.02-.61,12.83-8.27,12.25-16.74Z"/>
    <path class="cls-2" d="M493.71,48.49l10-.68,.69,10.09-10,.68-.69-10.09Zm1.54,19.14l9.53-.65,3.15,46.23-9.53,.65-3.15-46.23Z"/>
    <path class="cls-2" d="M518.05,66.08l9.53-.65,.42,6.2c3.09-5.14,8.31-7.68,13.4-8.03,11.66-.79,17.14,7.94,17.85,17.71l1.93,28.28-9.53,.65-1.83-26.84c-.47-6.85-4.16-11.2-10.5-10.77-6.85,.47-10.93,4.7-10.36,13.07l1.77,25.96-9.53,.65-3.15-46.23Z"/>
    <path class="cls-2" d="M568.07,97.22l7.45-3.9c1.65,3.75,5.13,7.79,11.61,7.35,5.78-.39,8.34-3.82,8.12-7.06-.64-9.35-24.66-1.57-25.78-18-.63-9.26,6.88-14.37,15.76-14.98,7.73-.53,13.95,2.77,17.8,8.74l-7.13,4.53c-2.03-3.16-5.25-6.01-10.48-5.66-4.44,.3-7.07,2.62-6.88,5.49,.58,8.47,24.89,1.56,26.06,18.77,.7,10.23-7.64,15.54-16.47,16.14-9.53,.65-17.28-4.49-20.07-11.42Z"/>
    <path class="cls-2" d="M612.96,59.61l9.86-.67,.44,6.48c2.77-5.12,8.15-7.95,13.8-8.33,12.68-.86,20.52,9.76,21.4,22.67,.88,12.96-5.45,24.46-18.27,25.33-5.74,.39-11.23-1.7-14.66-6.39l1.75,25.64-9.86,.67-4.46-65.39Zm35.82,20.81c-.58-8.56-5.06-14.91-13.48-14.33-8.38,.57-12.37,7.4-11.78,16.05,.59,8.61,5.48,14.97,13.86,14.4,8.42-.57,11.99-7.61,11.41-16.12Z"/>
    <path class="cls-2" d="M665.67,36.77l10-.68,.69,10.09-10,.68-.69-10.09Zm1.54,19.14l9.53-.65,3.15,46.23-9.53,.65-3.15-46.23Z"/>
    <path class="cls-2" d="M690.02,54.36l9.3-.63,.57,8.42c1.66-6.3,7.09-9.83,12.42-10.19,2.87-.2,5.94,.52,8.21,2.42l-3.81,8.16c-1.59-.87-3.39-1.3-5.19-1.18-5.6,.38-11.37,5.7-10.55,17.74l1.42,20.87-9.21,.63-3.15-46.23Z"/>
    <path class="cls-2" d="M723.46,75.52c-.85-12.4,5.48-24.69,20.38-25.71,15.87-1.08,21.83,11.3,22.51,21.25,.12,1.76,.06,3.67-.08,4.33l-32.53,2.22c1.34,7.44,5.65,11.98,13.61,11.44,4.63-.31,8.28-1.96,11.58-6.04l6.97,5.34c-4.71,5.9-10.37,8.89-18,9.41-15.27,1.04-23.57-9.55-24.44-22.23Zm33.27-6.45c-.02-1.02-.18-1.99-.48-2.9-1.28-5.17-5.57-8.73-11.96-8.3-7.22,.49-10.53,5.79-11.03,12.79l23.46-1.6Z"/>
    <path class="cls-2" d="M806.52,79.95l-1.73-25.31-7.59,.52-.55-8.05,7.73-.53-.83-12.12,8.93-7.49,1.29,18.97,12.03-.82,.55,8.05-12.03,.82,1.61,23.7c.35,5.14,2.78,6.74,6.39,6.49,2.27-.15,4.57-1.15,5.96-1.89l.64,8.65c-1.58,.71-4.59,1.61-7.69,1.83-8.75,.6-14.14-4.24-14.73-12.81Z"/>
    <path class="cls-2" d="M834.01,25.3l9.72-.66,1.73,25.36c3.09-5.14,8.13-7.67,13.22-8.01,11.66-.79,17.28,7.94,18.04,17.69l1.93,28.28-9.72,.66-1.83-26.84c-.45-6.57-2.87-11.43-10.14-10.93-7.54,.51-10.98,6.75-10.43,14.8l1.66,24.39-9.72,.66-4.46-65.39Z"/>
    <path class="cls-2" d="M886.44,64.41c-.85-12.4,5.48-24.69,20.38-25.71,15.87-1.08,21.83,11.3,22.51,21.25,.12,1.76,.06,3.67-.08,4.33l-32.53,2.22c1.34,7.44,5.65,11.98,13.61,11.44,4.63-.32,8.28-1.96,11.58-6.04l6.97,5.34c-4.71,5.9-10.37,8.89-18,9.41-15.27,1.04-23.57-9.55-24.44-22.23Zm33.27-6.45c-.02-1.02-.18-1.99-.48-2.9-1.28-5.17-5.57-8.73-11.96-8.3-7.22,.49-10.53,5.79-11.03,12.79l23.46-1.6Z"/>
    <path class="cls-2" d="M963.7,49.29c-1.25-18.42,7.75-34.33,28.76-35.76,12.96-.88,23.25,4.83,29.21,16.51l-9.1,4.34c-3.35-8.84-10.39-11.98-19.56-11.36-14.49,.99-20.41,11.67-19.49,25.18,.95,13.88,7.97,24.1,22.77,23.09,9.07-.62,14.93-4.74,18.01-14.11l9.52,3.16c-4.36,12.39-13.96,19.55-26.88,20.43-20.83,1.42-32-13.12-33.25-31.49Z"/>
    <path class="cls-2" d="M1031.2,31.11l9.3-.63,.57,8.42c1.66-6.3,7.09-9.83,12.42-10.19,2.87-.2,5.94,.52,8.21,2.42l-3.81,8.16c-1.59-.87-3.39-1.3-5.19-1.18-5.6,.38-11.37,5.7-10.55,17.74l1.42,20.87-9.21,.63-3.15-46.23Z"/>
    <path class="cls-2" d="M1064.65,52.27c-.85-12.4,5.48-24.69,20.38-25.71,15.87-1.08,21.83,11.3,22.51,21.25,.12,1.76,.06,3.67-.08,4.33l-32.53,2.22c1.34,7.44,5.65,11.98,13.61,11.44,4.63-.32,8.28-1.96,11.58-6.04l6.97,5.34c-4.71,5.9-10.37,8.89-18,9.41-15.27,1.04-23.57-9.55-24.44-22.23Zm33.27-6.45c-.02-1.02-.18-1.99-.48-2.9-1.28-5.17-5.57-8.73-11.96-8.3-7.22,.49-10.53,5.79-11.03,12.79l23.46-1.6Z"/>
    <path class="cls-2" d="M1153.55,40.95l1.92,28.14-7.91,.54-1.14-7.18c-2.73,5.63-8.84,8.74-14.63,9.13-9.49,.65-16.89-4.29-17.53-13.68-.67-9.86,6.96-13.86,17.79-14.6l12.87-.88c-.73-7.95-3.42-11.3-11.52-10.75-5.55,.38-9.14,3.65-11.24,7.65l-7.67-4.78c4.02-6.46,9.5-10.64,18.3-11.24,12.36-.84,20,6.26,20.78,17.65Zm-8.07,9.85l-.1-1.43-12.31,.84c-6.43,.44-9.25,3.51-8.99,7.31,.26,3.79,3.35,6.19,9.04,5.8,7.5-.51,11.81-6.2,12.35-12.51Z"/>
    <path class="cls-2" d="M1168.19,55.3l-1.73-25.31-7.59,.52-.55-8.05,7.73-.53-.83-12.12,8.93-7.49,1.29,18.97,12.03-.82,.55,8.05-12.03,.82,1.61,23.7c.35,5.14,2.78,6.74,6.39,6.49,2.27-.15,4.57-1.15,5.96-1.89l.64,8.65c-1.58,.71-4.59,1.61-7.69,1.83-8.75,.6-14.14-4.24-14.73-12.81Z"/>
    <path class="cls-2" d="M1195.29,.68l10-.68,.69,10.09-10,.68-.69-10.09Zm1.54,19.14l9.53-.65,3.15,46.23-9.53,.65-3.15-46.23Z"/>
    <path class="cls-2" d="M1213.48,18.69l10.46-.71,14.72,33.08,10.14-34.77,10.41-.71-15.73,47.52-7.96,.54-22.03-44.95Z"/>
    <path class="cls-2" d="M1262.71,38.77c-.85-12.4,5.48-24.69,20.38-25.71,15.87-1.08,21.83,11.3,22.51,21.25,.12,1.76,.06,3.67-.08,4.33l-32.53,2.22c1.34,7.44,5.65,11.98,13.61,11.44,4.63-.32,8.28-1.96,11.58-6.04l6.97,5.34c-4.71,5.9-10.37,8.89-18,9.41-15.27,1.04-23.57-9.55-24.44-22.23Zm33.27-6.45c-.02-1.02-.18-1.99-.48-2.9-1.28-5.17-5.57-8.73-11.96-8.3-7.22,.49-10.53,5.79-11.03,12.79l23.46-1.6Z"/>
  </g>
  <g>
    <path class="cls-2" d="M419.47,288.85c-3.88,0-7.75,.17-11.6,.51-.1-.3-.16-1.45-.16-3.43s.05-3.22,.16-3.49c4.33,.38,9.53,.57,15.6,.57h15.39c4.61,0,9.74-.19,15.39-.57,.1,.27,.16,1.43,.16,3.49s-.05,3.13-.16,3.43c-2.88-.34-6.74-.51-11.6-.51h-23.19Z"/>
    <path class="cls-2" d="M413.49,346.17c-1.14,0-2.83,.08-5.04,.23-.1-.11-.16-1.03-.16-2.75s.05-2.65,.16-2.69c.87,.11,2.06,.17,3.59,.17h3.59v-6.63c0-2.52-.09-4.79-.26-6.81l1.4-.06c1.25,0,2.37,.07,3.38,.2,1,.13,1.51,.35,1.51,.66-.42,.76-.73,1.46-.94,2.09s-.31,1.46-.31,2.49v8.06h8.27v-8.69c0-3.16-.12-6.14-.36-8.92l1.46-.06c1.18,0,2.24,.07,3.17,.2,.94,.13,1.4,.35,1.4,.66-.28,.46-.49,.88-.62,1.26-.14,.38-.21,.88-.21,1.49v2.75h7.59c2.56,0,5.1-.11,7.59-.34,.1,.15,.16,1.07,.16,2.75s-.05,2.61-.16,2.8c-1.87-.23-4.4-.34-7.59-.34h-7.59v6.46h10.04c3.15,0,6.5-.15,10.04-.46,.1,.23,.16,1.22,.16,2.97s-.05,2.75-.16,2.97c-2.67-.3-6.03-.46-10.09-.46h-10.09v12.01c0,1.33-.16,2.35-.47,3.06-.31,.71-.9,1.25-1.77,1.63-.8,.34-1.79,.56-2.99,.66-1.2,.1-2.9,.14-5.12,.14-.17-1.33-.66-2.96-1.46-4.86,2.08,.08,3.52,.11,4.32,.11l1.77-.06c.38,0,.64-.06,.78-.17,.14-.11,.21-.34,.21-.69v-11.84h-15.18Zm-.62,16.13c-.59-.53-1.31-1.14-2.16-1.83-.85-.69-1.55-1.2-2.11-1.54,1.87-1.41,3.68-3.15,5.43-5.21,1.75-2.06,3.18-4.14,4.29-6.23,1.28,.46,2.48,1.08,3.59,1.86,1.11,.78,1.56,1.34,1.35,1.69-.17,.27-.4,.44-.68,.51-.28,.08-.53,.18-.75,.31-.23,.13-.49,.47-.81,1-1.11,1.6-1.98,2.78-2.6,3.55-1.91,2.37-3.76,4.33-5.56,5.89Zm13.16,12.13c-3.26,.95-7.02,1.72-11.28,2.29-.14-.84-.42-1.74-.86-2.72-.43-.97-.89-1.78-1.38-2.43,5.23-.5,9.69-1.33,13.36-2.52,3.67-1.18,6.75-2.87,9.23-5.06,2.48-2.19,4.36-5.02,5.64-8.49,1.25,.42,2.44,1.01,3.56,1.77,1.13,.76,1.6,1.35,1.43,1.77-.14,.31-.35,.53-.62,.69-.28,.15-.52,.32-.73,.51-.21,.19-.45,.59-.73,1.2-2.18,3.89-5.2,7-9.05,9.32-2.46,1.49-5.32,2.71-8.58,3.66Zm13.73-24.37l3.85-2.69c1.94,1.79,3.87,3.81,5.8,6.06,1.92,2.25,3.34,4.2,4.24,5.83l-4.06,3.09c-.87-1.68-2.29-3.72-4.26-6.12-1.91-2.4-3.76-4.46-5.56-6.18Z"/>
    <path class="cls-2" d="M419.62,416.12c-.14,4.73-.85,9.08-2.13,13.04-1.28,3.97-3.52,7.49-6.71,10.58-.45-.61-1.02-1.27-1.72-1.97-.69-.71-1.32-1.25-1.87-1.63,2.81-2.67,4.78-5.67,5.93-9.01,1.14-3.34,1.8-7.01,1.98-11.01h-3.54c-1.18,0-2.34,.06-3.48,.17-.1-.11-.16-.99-.16-2.63s.05-2.59,.16-2.63c.9,.11,2.08,.17,3.54,.17h3.54v-6.29c-1.94,1.03-3.66,1.83-5.15,2.4-.28-.57-.7-1.3-1.27-2.17-.57-.88-1.07-1.54-1.48-2,2.6-.76,5.1-1.75,7.51-2.97,2.41-1.22,4.32-2.52,5.75-3.89,1.01,.46,1.95,1.05,2.83,1.77,.88,.73,1.22,1.18,1.01,1.37-.14,.15-.31,.23-.52,.23h-.36c-.38,0-.75,.17-1.09,.52-1.01,.8-1.91,1.47-2.7,2v9.04h7.28v-7.38c0-2.97-.1-5.49-.31-7.55l1.4-.06c1.21,0,2.31,.07,3.28,.2,.97,.13,1.46,.35,1.46,.66-.42,.76-.73,1.46-.94,2.09-.21,.63-.31,1.46-.31,2.49v9.55h10.97c.07,3.74,.24,7.02,.52,9.84l.99-1.03c1.73,.92,3.54,1.98,5.43,3.2,1.89,1.22,3.37,2.31,4.45,3.26l-2.81,3.32c-1.63-1.56-4.16-3.41-7.59-5.55,.55,3.24,1.4,5.79,2.52,7.64,1.13,1.85,2.63,2.85,4.5,3,.35,.04,.63-.41,.86-1.34,.23-.93,.42-2.34,.6-4.2,.35,.53,.78,1.09,1.3,1.66,.52,.57,1,1.03,1.46,1.37-.28,2.59-.75,4.48-1.43,5.66-.68,1.18-1.6,1.77-2.78,1.77-.17,0-.5-.04-.99-.11-2.74-.34-4.9-1.57-6.47-3.69-1.58-2.12-2.7-4.8-3.38-8.06-.68-3.26-1.14-7.2-1.38-11.81h-6.76v11.5c0,4.58,.14,8.39,.42,11.44-.1,.08-.42,.14-.96,.2-.54,.06-1.1,.09-1.69,.09-.62,0-1.2-.03-1.72-.09-.52-.06-.8-.12-.83-.2,.14-1.91,.21-3.81,.21-5.72v-17.22h-7.33Zm22.2-26.14c.1,2.52,.29,4.63,.57,6.35l1.56-1.66c1.7,.92,3.43,1.97,5.2,3.17,1.77,1.2,3.14,2.24,4.11,3.12l-2.81,3.32c-.76-.8-1.85-1.73-3.28-2.77-1.42-1.05-2.9-2.07-4.42-3.06,1.32,6.45,3.83,9.8,7.54,10.07,.62,.11,1.07-1.32,1.35-4.29,1.01,1.33,1.94,2.29,2.81,2.86-.31,2.14-.81,3.7-1.51,4.69-.69,.99-1.6,1.49-2.7,1.49-.35,0-.62-.02-.83-.06-3.67-.53-6.37-2.39-8.09-5.58-1.72-3.18-2.89-7.46-3.51-12.84h-13.47c-4.02,0-8.51,.19-13.47,.57-.1-.3-.16-1.3-.16-2.97s.05-2.59,.16-2.75c1.94,.23,4.51,.34,7.7,.34h23.24Zm6.19,6.69l-2.86-1.89c.69-.84,1.43-1.85,2.21-3.03,.78-1.18,1.4-2.23,1.85-3.15,1,.57,1.96,1.22,2.86,1.94,.9,.72,1.28,1.16,1.14,1.32-.1,.11-.24,.17-.42,.17h-.16c-.28,0-.54,.13-.78,.4l-1.35,1.6c-1.14,1.26-1.98,2.14-2.5,2.63Zm2.55,22.77c-1.01,1.11-1.87,1.98-2.6,2.63l-2.81-1.89c.69-.8,1.45-1.79,2.26-2.97,.81-1.18,1.46-2.23,1.95-3.15,1,.57,1.96,1.22,2.86,1.94,.9,.72,1.28,1.16,1.14,1.32-.1,.11-.23,.17-.36,.17h-.31c-.24,0-.49,.13-.73,.4l-1.4,1.54Z"/>
    <path class="cls-2" d="M441.15,471.03c-.07,0-.1,.08-.1,.23,0,.04,.07,.36,.21,.97,.21,.88,.39,2.13,.55,3.75,.16,1.62,.23,3.33,.23,5.12,0,5.45-1.14,10.12-3.41,14.01-2.27,3.89-6.34,5.83-12.19,5.83-2.39,0-4.58-.61-6.58-1.83-1.99-1.22-3.57-2.95-4.73-5.18-1.16-2.23-1.74-4.76-1.74-7.58,0-4.58,.85-8.62,2.55-12.13,1.7-3.51,3.74-6.67,6.14-9.5,.07-.08,.1-.15,.1-.23,0-.04-.03-.06-.1-.06l-.21,.06c-.24,.19-.71,.42-1.4,.69-.69,.27-1.42,.4-2.18,.4-1.98,0-3.36-1.22-4.16-3.66-.45-1.37-.69-2.35-.73-2.92,0-.34,.12-.52,.36-.52,.28,0,.71,.21,1.3,.63,.97,.65,2.53,.97,4.68,.97,.83,0,1.55-.13,2.16-.4,.61-.27,1.34-.67,2.21-1.2,.1-.04,.33-.17,.68-.4,.35-.23,.68-.39,.99-.49,.31-.09,.59-.14,.83-.14,.69,0,1.43,.44,2.21,1.32,.78,.88,1.17,1.72,1.17,2.52s-.5,1.53-1.51,2.17c-.52,.34-1.18,.74-1.98,1.2-1.77,1.03-3.34,2.6-4.71,4.72-1.37,2.12-2.44,4.49-3.22,7.12-.78,2.63-1.17,5.22-1.17,7.78,0,3.36,.79,5.97,2.37,7.84,1.58,1.87,3.86,2.8,6.84,2.8,4.02,0,7.05-1.89,9.1-5.66,2.04-3.78,3.07-9.21,3.07-16.3,0-1.94-.16-4.9-.47-8.87-.07-.8-.21-1.55-.42-2.26-.21-.71-.49-1.5-.83-2.37-.55-1.22-.83-2.19-.83-2.92,0-.8,.16-1.48,.49-2.03,.33-.55,.84-.83,1.53-.83,.94,0,1.72,.33,2.34,1,.62,.67,.97,1.57,1.04,2.72,.17,2.67,.84,5.79,2,9.35,1.16,3.57,3.3,6.7,6.42,9.41,1.84,1.6,2.76,3.17,2.76,4.69,0,.73-.23,1.31-.7,1.74-.47,.44-1.01,.66-1.64,.66-1.56,0-3.12-1.12-4.68-3.35-1.56-2.23-3.02-5.06-4.37-8.49-.1-.27-.19-.4-.26-.4Zm6.68-10.01c-.29-.3-.58-.76-.86-1.37-.45-.99-1.12-2.02-2-3.09-.88-1.07-1.71-1.91-2.47-2.52-.24-.23-.36-.38-.36-.46,0-.11,.12-.17,.36-.17,.42,0,1.28,.19,2.6,.57,1.32,.38,2.56,1.03,3.74,1.95,1.18,.92,1.77,2.12,1.77,3.6,0,.65-.16,1.13-.47,1.46-.31,.32-.68,.49-1.09,.49-.52,0-.93-.15-1.22-.46Zm4.81-4.52c-.31-.27-.66-.67-1.04-1.2-.66-.95-1.39-1.75-2.18-2.4-.8-.65-1.84-1.32-3.12-2-.21-.11-.31-.21-.31-.29,0-.23,.59-.34,1.77-.34,2.01,0,3.78,.44,5.3,1.32,1.52,.88,2.29,2.08,2.29,3.6,0,.54-.15,.95-.44,1.26-.29,.31-.65,.46-1.07,.46-.49,0-.88-.13-1.2-.4Z"/>
    <path class="cls-2" d="M415.98,565.01c0,.61,.03,1.18,.1,1.72-.03,.08-.3,.14-.81,.2-.5,.06-1.07,.09-1.69,.09s-1.2-.03-1.74-.09c-.54-.06-.84-.12-.91-.2,.17-1.64,.26-3.62,.26-5.95v-5.95c0-4.92-.16-8.94-.47-12.07l1.51-.06c1.28,0,2.44,.07,3.46,.2,1.02,.13,1.53,.35,1.53,.66-.42,.76-.73,1.46-.94,2.09-.21,.63-.31,1.46-.31,2.49v9.9h12.27v-18.48h-7.59c-3.16,0-5.67,.11-7.54,.34-.14,0-.21-.11-.21-.34,.14-.5,.21-1.45,.21-2.86v-7.15c0-3.66-.12-7.05-.36-10.18l1.46-.06c1.25,0,2.37,.07,3.38,.2,1,.13,1.51,.35,1.51,.66-.42,.76-.73,1.46-.94,2.09-.21,.63-.31,1.46-.31,2.49v9.67h10.4v-9.9c0-3.62-.12-7-.36-10.12l1.51-.06c1.25,0,2.38,.07,3.41,.2,1.02,.13,1.53,.35,1.53,.66-.42,.76-.73,1.46-.94,2.09s-.31,1.46-.31,2.49v14.64h10.92v-7.44c0-3.05-.1-5.61-.31-7.66l1.51-.06c1.28,0,2.44,.07,3.48,.2,1.04,.13,1.56,.35,1.56,.66-.42,.76-.73,1.46-.94,2.09-.21,.63-.31,1.46-.31,2.49v7.44c0,3.13,.1,5.61,.31,7.44,0,.27-.1,.4-.31,.4-2.32-.27-4.98-.4-7.96-.4h-7.96v18.48h13v-7.55c0-3.09-.1-5.66-.31-7.72l1.46-.06c1.28,0,2.44,.07,3.46,.2,1.02,.13,1.53,.35,1.53,.66-.42,.76-.73,1.46-.94,2.09-.21,.63-.31,1.46-.31,2.49v9.27c0,3.47,.12,6.54,.36,9.21-.07,.08-.39,.14-.96,.2-.57,.06-1.17,.09-1.79,.09s-1.21-.03-1.74-.09c-.54-.06-.82-.12-.86-.2,.07-.53,.1-1.09,.1-1.66v-1.72h-30.11v1.77Z"/>
    <path class="cls-2" d="M418.58,603.51c.35-4.88,.52-8.81,.52-11.78,0-2.67-.12-4.75-.36-6.23-.24-1.49-.69-2.44-1.35-2.86-.52-.34-.78-.61-.78-.8,0-.31,.35-.58,1.07-.83,.71-.25,1.4-.37,2.05-.37,.8,0,1.61,.23,2.44,.69,.83,.46,1.52,1.06,2.05,1.8,.54,.74,.81,1.54,.81,2.37,0,.61-.05,1.18-.16,1.72-.14,.61-.23,1.24-.26,1.89l-.52,5.83c-.35,3.62-.6,6.44-.75,8.47-.16,2.02-.23,4-.23,5.95,0,2.9,.23,5.22,.7,6.98,.47,1.75,1.3,3.08,2.5,3.98,1.2,.9,2.89,1.34,5.07,1.34,2.81,0,5.84-.82,9.1-2.46,3.26-1.64,6.22-4.06,8.89-7.26,.52-.61,.87-.92,1.04-.92,.1,0,.16,.08,.16,.23,0,.31-.16,.8-.47,1.49-.83,1.72-2.25,3.72-4.26,6.01-2.01,2.29-4.39,4.27-7.12,5.95-2.74,1.68-5.51,2.52-8.32,2.52-3.64,0-6.58-1.25-8.81-3.75-2.24-2.5-3.35-6.57-3.35-12.21,0-1.75,.12-4.33,.36-7.72Z"/>
    <path class="cls-2" d="M349.05,371.22c3.05,0,6.29-.15,9.72-.46,.1,.23,.16,1.18,.16,2.86s-.05,2.57-.16,2.69c-1.39-.15-2.83-.23-4.32-.23h-4.32v8.52h5.67c1.66,0,3.54-.09,5.62-.29,.1,.11,.16,1.03,.16,2.75s-.05,2.56-.16,2.75c-1.56-.19-3.43-.29-5.62-.29h-5.67v12.24c0,1.6-.2,2.81-.6,3.63-.4,.82-1.1,1.42-2.11,1.8-.97,.34-2.2,.56-3.69,.66-1.49,.09-3.59,.14-6.29,.14-.14-.72-.39-1.56-.75-2.52-.36-.95-.74-1.83-1.12-2.63,2.36,.11,4.47,.17,6.34,.17l2.13-.06c.52,0,.87-.09,1.04-.26,.17-.17,.26-.52,.26-1.06v-12.13h-.1c-3.05,3.43-7,6.67-11.86,9.72-4.85,3.05-9.67,5.38-14.46,6.98-.38-.8-.83-1.63-1.35-2.49-.52-.86-1.06-1.57-1.61-2.14,3.95-1.07,7.97-2.69,12.06-4.86,4.09-2.17,7.63-4.58,10.61-7.21h-11.02c-3.67,0-7.33,.17-10.97,.51-.1-.3-.16-1.28-.16-2.92s.05-2.63,.16-2.75c1.66,.15,3.38,.23,5.15,.23h5.15v-8.52h-3.54c-1.18,0-2.34,.06-3.48,.17-.1-.11-.16-.99-.16-2.63s.05-2.63,.16-2.86c2.57,.31,5.79,.46,9.67,.46h19.45Zm-16.59-4.18c0,.88,.03,1.7,.1,2.46-.04,.15-.87,.23-2.5,.23s-2.46-.08-2.5-.23c.07-.76,.1-1.58,.1-2.46v-2.46h-5.46c-1.63,0-3.45,.1-5.46,.29-.1-.19-.16-1.11-.16-2.75s.05-2.57,.16-2.69c1.49,.19,3.31,.29,5.46,.29h5.46v-2.12c0-.57-.03-1.35-.1-2.34l1.3-.06c1.11,0,2.12,.07,3.04,.2,.92,.13,1.38,.35,1.38,.66-.28,.31-.49,.58-.62,.83-.14,.25-.21,.58-.21,1v1.83h12.84v-2.12c0-.57-.04-1.35-.1-2.34l1.3-.06c1.11,0,2.12,.07,3.04,.2,.92,.13,1.38,.35,1.38,.66-.28,.31-.49,.58-.62,.83-.14,.25-.21,.58-.21,1v1.83h5.62c1.7,0,3.55-.09,5.56-.29,.1,.11,.16,1.01,.16,2.69s-.05,2.56-.16,2.75c-1.49-.19-3.35-.29-5.56-.29h-5.62v2.46c0,.88,.03,1.7,.1,2.46-.03,.15-.87,.23-2.5,.23s-2.46-.08-2.5-.23c.07-.76,.1-1.58,.1-2.46v-2.46h-12.84v2.46Zm12.9,9.04h-13.73v8.52h13.73v-8.52Z"/>
    <path class="cls-2" d="M317.33,433.05c0-3.47-.12-6.54-.36-9.21,0-.23,.12-.34,.36-.34,1.84,.23,4.26,.34,7.28,.34h7.28v16.25c1.46-2.67,2.72-5.83,3.8-9.5,1.07-3.66,1.92-7.51,2.55-11.55,1.35,.31,2.64,.74,3.87,1.32,1.23,.57,1.81,1.07,1.74,1.49-.07,.31-.22,.55-.44,.74-.23,.19-.42,.4-.6,.63-.17,.23-.31,.65-.42,1.26-.14,.69-.49,2.1-1.04,4.23h16.9l.78-.11,3.48,.86c-1.56,7.36-2.95,12.72-4.16,16.07l-4.11-1.14c.83-2.67,1.68-6.18,2.55-10.52h-8.01v8.81c0,2.14,.42,4.69,1.25,7.66s2.3,5.96,4.39,8.95c2.1,2.99,4.9,5.43,8.4,7.29-.52,.69-1.06,1.48-1.61,2.37-.55,.9-.99,1.65-1.3,2.26-2.67-1.49-4.97-3.43-6.89-5.83-1.92-2.4-3.42-4.84-4.5-7.32-1.07-2.48-1.79-4.69-2.13-6.64-.35,1.94-1.12,4.15-2.31,6.61-1.2,2.46-2.88,4.89-5.04,7.29-2.17,2.4-4.78,4.38-7.83,5.95-.31-.65-.75-1.43-1.33-2.34-.57-.92-1.08-1.62-1.53-2.12,3.92-1.91,7.05-4.36,9.39-7.35,2.34-2.99,3.98-5.98,4.91-8.95,.94-2.97,1.4-5.57,1.4-7.78v-8.87h-4.16c-1.56,4.81-3.29,8.79-5.2,11.95-.35-.34-1.28-1.05-2.81-2.12v5.95c0,2.33,.09,4.29,.26,5.89,0,.15-.09,.23-.26,.23-1.66-.15-3.38-.23-5.15-.23h-5.15v2.63c0,.88,.03,1.74,.1,2.57-.03,.15-.8,.23-2.29,.23s-2.27-.08-2.44-.23c.24-2.67,.36-5.74,.36-9.21v-18.48Zm4.26-4.23v21.79h5.98v-21.79h-5.98Z"/>
    <path class="cls-2" d="M340.57,532.52c-.38-.69-.78-1.75-1.2-3.2-.94-3.2-2.01-5.98-3.22-8.32-1.21-2.35-2.21-4.03-2.99-5.06-.78-1.03-1.81-2.31-3.09-3.83-1.28-1.52-1.92-2.78-1.92-3.78,0-.42,.1-.85,.29-1.29,.19-.44,.49-.96,.91-1.57l3.43-5.09c2.39-3.51,4.07-6.07,5.04-7.69,.97-1.62,1.46-2.91,1.46-3.86,0-1.41-.62-2.54-1.87-3.37-.28-.19-.42-.38-.42-.57s.13-.35,.39-.49c.26-.13,.62-.2,1.07-.2,1.11,0,2.23,.21,3.35,.63,1.13,.42,2.05,1.02,2.78,1.8,.73,.78,1.09,1.65,1.09,2.6,0,1.72-1.14,4.05-3.41,7.01-2.27,2.96-5.16,6.36-8.66,10.21-.45,.5-.68,1.03-.68,1.6,0,.69,.35,1.35,1.04,2,1.66,1.53,3.39,3.4,5.17,5.63,1.79,2.23,3.29,4.49,4.52,6.78,1.23,2.29,1.85,4.27,1.85,5.95,0,1.07-.2,1.99-.6,2.77-.4,.78-.88,1.37-1.43,1.77-.55,.4-1.04,.6-1.46,.6-.59,0-1.07-.34-1.46-1.03Z"/>
    <path class="cls-2" d="M261,270.29c1.04,.82,1.96,1.75,2.76,2.8,.8,1.05,1.2,1.82,1.2,2.32,0,.42-.1,.75-.31,1-.21,.25-.54,.54-.99,.89-1.04,.65-1.84,1.47-2.39,2.46-2.77,5-6.13,9.57-10.06,13.73-3.93,4.16-8.81,7.65-14.64,10.47-1.49,.72-3.17,1.44-5.04,2.15-1.87,.71-3.02,1.06-3.43,1.06-.21,0-.31-.06-.31-.17,0-.19,.4-.55,1.2-1.09,.21-.15,1.64-1.09,4.29-2.8,2.65-1.72,5.91-4.73,9.78-9.04,3.86-4.31,7.18-9.06,9.96-14.24,1.18-2.25,1.77-3.51,1.77-3.78,0-.19-.07-.29-.21-.29-.1,0-.19,.02-.26,.06-.66,.31-1.71,.62-3.15,.94-1.44,.32-2.77,.49-3.98,.49-.8,0-1.46-.08-1.98-.23-3.02,3.51-6.62,6.81-10.82,9.9-3.02,2.25-4.82,3.37-5.41,3.37-.21,0-.31-.08-.31-.23,0-.19,.16-.42,.47-.69,1.25-1.11,2.89-2.98,4.91-5.63,2.03-2.65,3.89-5.36,5.59-8.12,1.7-2.76,2.76-4.87,3.17-6.32,.14-.46,.21-.92,.21-1.37s-.1-.88-.31-1.26c-.21-.38-.5-.79-.88-1.23-.38-.44-.57-.73-.57-.89,0-.42,.41-.74,1.22-.97,.81-.23,1.62-.34,2.42-.34,.87,0,1.82,.32,2.86,.97,1.04,.65,1.92,1.46,2.63,2.43,.71,.97,1.07,1.9,1.07,2.77,0,.27-.07,.48-.21,.63-.14,.15-.36,.32-.68,.51-.55,.31-.97,.67-1.25,1.09l-.1,.17h.68c2.56,0,4.44-.4,5.62-1.2,.28-.19,.58-.43,.91-.72,.33-.29,.63-.5,.91-.63,.28-.13,.64-.2,1.09-.2,.69,0,1.56,.41,2.6,1.23Z"/>
    <path class="cls-2" d="M237.96,344.28c-.66-.76-1.02-1.6-1.09-2.52-.04-.19-.05-1.01-.05-2.46l.05-8.35c0-1.98-.1-3.66-.31-5.03s-.68-2.27-1.4-2.69c-.1-.08-.29-.18-.55-.31-.26-.13-.39-.29-.39-.49,0-.3,.29-.67,.86-1.09,.57-.42,1.15-.63,1.74-.63,.24,0,.94,.11,2.08,.34,1.63,.31,2.74,.72,3.33,1.23,.59,.52,.88,1.15,.88,1.92,0,.27-.07,.78-.21,1.54l-.21,1.72c-.14,1.53-.21,3.77-.21,6.75l.05,6.18c0,1.91-.29,3.22-.88,3.95-.59,.73-1.25,1.09-1.98,1.09-.49,0-1.06-.38-1.72-1.14Zm1.2,20.53c0-.11,.23-.36,.68-.74,3.36-2.78,5.89-5.68,7.59-8.69,1.7-3.01,2.81-6.77,3.33-11.27,.59-4.96,.88-10.79,.88-17.5,0-1.87-.17-3.35-.52-4.43-.35-1.09-1.09-1.92-2.24-2.49-.52-.23-.78-.52-.78-.86,0-.42,.36-.8,1.09-1.14s1.65-.52,2.76-.52c.69,0,1.59,.25,2.68,.74,1.09,.5,2.04,1.11,2.83,1.83,.8,.72,1.2,1.45,1.2,2.17,0,.42-.1,.93-.31,1.54-.17,.5-.3,.98-.39,1.46-.09,.48-.13,1.15-.13,2.03,0,3.09-.1,6.18-.31,9.27s-.49,5.82-.83,8.18c-.59,3.89-1.7,7.19-3.33,9.9-1.63,2.71-3.55,4.92-5.77,6.64-1.28,.99-2.5,1.79-3.67,2.4-1.16,.61-2.13,1.04-2.91,1.29-.78,.25-1.27,.37-1.48,.37-.24,0-.36-.06-.36-.17Z"/>
    <path class="cls-2" d="M264.14,397.56c1.13,.4,2.17,1.06,3.12,1.97,.95,.92,1.43,2.08,1.43,3.49,0,.88-.2,1.49-.6,1.83-.4,.34-.96,.51-1.69,.51-.56,0-1.26-.08-2.11-.23-.85-.15-1.45-.25-1.79-.29-2.95-.46-6.01-.69-9.2-.69-5.2,0-10.83,.59-16.9,1.77-.9,.19-1.58,.38-2.03,.57-.1,.04-.42,.14-.94,.31-.52,.17-1.07,.26-1.66,.26-1.11,0-2.16-.38-3.15-1.14-.99-.76-1.78-1.7-2.37-2.8-.59-1.11-.88-2.15-.88-3.15,0-.38,.1-.57,.31-.57,.07,0,.31,.11,.73,.34,1,.69,2.37,1.03,4.11,1.03,.66,0,1.3-.06,1.92-.17,2.98-.57,6.92-1.11,11.8-1.6,.03-2.55,.05-5.91,.05-10.07,0-.92-.4-1.85-1.2-2.8-2.29,.38-4.04,.78-5.25,1.2-.42,.15-.87,.23-1.35,.23-.94,0-1.81-.36-2.63-1.09-.81-.72-1.46-1.61-1.95-2.66-.49-1.05-.73-1.97-.73-2.77,0-.34,.1-.51,.31-.51,.07,0,.47,.17,1.2,.51,.73,.34,1.52,.51,2.39,.51,1.07,0,3.8-.29,8.16-.86,4.37-.57,6.98-1.01,7.85-1.32,.31-.11,.75-.28,1.33-.49,.57-.21,1.13-.38,1.66-.51,.54-.13,1.1-.2,1.69-.2,.69,0,1.46,.16,2.29,.49,.83,.32,1.54,.77,2.13,1.34,.59,.57,.88,1.2,.88,1.89,0,.73-.11,1.25-.34,1.57-.23,.32-.56,.54-.99,.66-.43,.11-1.15,.21-2.16,.29l-1.09,.11c-2.18,.15-4.49,.38-6.92,.69,.62,.8,.94,1.39,.94,1.77,0,.23-.16,.56-.47,1-.31,.44-.49,1.08-.52,1.92-.07,1.03-.12,2.33-.16,3.89-.03,1.56-.05,3.13-.05,4.69,2.6-.23,4.89-.34,6.86-.34,1.25,0,2.11-.07,2.6-.2,.48-.13,.92-.31,1.3-.54,.21-.15,.42-.27,.65-.34,.23-.08,.56-.11,1.01-.11s1.24,.2,2.37,.6Z"/>
    <path class="cls-2" d="M253.64,424.5c1.27,.82,2.31,1.77,3.12,2.86s1.22,1.99,1.22,2.72c0,.38-.14,.65-.42,.8-.17,.11-.4,.25-.68,.4-.28,.15-.53,.33-.75,.54-.23,.21-.48,.54-.75,1-1.63,2.63-3.38,5.03-5.25,7.21,.62,.53,1.13,1.09,1.51,1.66,.38,.57,.57,1.11,.57,1.6,0,.42-.09,.84-.26,1.26-.17,.42-.28,.69-.31,.8-.35,.69-.56,1.26-.62,1.72-.07,.42-.1,1.62-.1,3.6,0,1.72,.07,4.56,.21,8.52,.14,3.36,.21,5.47,.21,6.35,0,1.26-.21,2.22-.62,2.89-.42,.67-1.01,1-1.77,1-.35,0-.78-.1-1.3-.29-1.11-.38-1.86-1.02-2.26-1.92-.4-.9-.6-2.01-.6-3.35,0-.38,.03-1.14,.1-2.29,.21-1.98,.31-4.52,.31-7.61,0-3.58-.1-6.41-.31-8.47-2.29,2.1-4.54,3.87-6.76,5.32-2.22,1.45-4.13,2.55-5.72,3.29-1.59,.74-2.58,1.12-2.96,1.12-.24,0-.36-.09-.36-.29,0-.23,.21-.51,.62-.86,3.36-2.75,6.36-5.64,9-8.69,2.63-3.05,4.79-5.86,6.47-8.44,1.68-2.57,2.89-4.72,3.61-6.43,.42-1.03,.62-2.02,.62-2.97,0-1.11-.33-1.96-.99-2.57-.45-.38-.68-.71-.68-.97,0-.5,.69-.74,2.08-.74,1.28,0,2.56,.41,3.82,1.23Z"/>
    <path class="cls-2" d="M259.93,492.48c1.3,.31,2.49,.83,3.56,1.57,1.07,.74,1.61,1.73,1.61,2.95,0,.92-.27,1.53-.81,1.83-.54,.31-1.46,.46-2.78,.46l-3.12-.06c-1.87,0-4.04,.06-6.5,.17,.69,.84,1.04,1.62,1.04,2.35,0,.27-.08,.51-.23,.72-.16,.21-.34,.43-.55,.66-.35,.34-.64,.69-.88,1.03-.24,.34-.42,.8-.52,1.37-1.18,5.19-3.26,9.39-6.24,12.61-2.98,3.22-5.93,5.55-8.84,6.98-2.91,1.43-4.75,2.15-5.51,2.15-.17,0-.26-.06-.26-.17,0-.15,.17-.36,.52-.63,4.16-3.09,7.31-6.41,9.46-9.95,2.15-3.55,3.54-6.62,4.16-9.24,.62-2.61,.94-4.64,.94-6.09,0-.46-.07-.82-.21-1.09-2.98,.38-5.32,.92-7.02,1.6-.8,.34-1.59,.51-2.39,.51-1.11,0-2.18-.4-3.22-1.2s-1.89-1.74-2.55-2.83c-.66-1.09-.99-1.99-.99-2.72s.33-1.09,.99-1.09c.35,0,.69,.1,1.04,.29,1.21,.61,3.19,.92,5.93,.92,1.32,0,4-.25,8.06-.74,4.06-.5,6.73-.88,8.01-1.14,.55-.15,1.16-.42,1.82-.8,.9-.57,1.7-.86,2.39-.86,.76,0,1.79,.15,3.09,.46Zm-21.92-3c-.94-.71-1.89-1.82-2.86-3.35-.31-.53-.47-.93-.47-1.2,0-.34,.21-.51,.62-.51,.21,0,.59,.08,1.14,.23,.94,.19,1.58,.29,1.92,.29,.62,0,2.2-.18,4.73-.54,2.53-.36,4.11-.66,4.73-.89,.31-.11,.86-.31,1.64-.6s1.46-.5,2.05-.63c.59-.13,1.18-.2,1.77-.2,.52,0,1.19,.25,2,.74,.81,.5,1.52,1.11,2.13,1.83,.61,.73,.91,1.41,.91,2.06,0,.84-.43,1.42-1.27,1.74-.85,.32-1.98,.54-3.41,.66-1.53,.11-3.48,.29-5.88,.51-2.39,.23-4.28,.5-5.67,.8-.24,.08-.62,.11-1.14,.11-1.04,0-2.03-.35-2.96-1.06Z"/>
    <path class="cls-2" d="M260.48,532.7c1,.65,1.84,1.41,2.5,2.29,.66,.88,.99,1.62,.99,2.23,0,.46-.29,.78-.88,.97-.24,.11-.44,.25-.6,.4-.16,.15-.36,.44-.6,.86-1.07,1.94-2.39,3.87-3.95,5.78,.97,.88,1.46,1.68,1.46,2.4,0,.46-.17,1.07-.52,1.83l-.42,1.14c-.07,.53-.1,1.32-.1,2.34s.09,3.79,.26,8.29l.1,3.89c0,1.03-.18,1.83-.55,2.4-.36,.57-.86,.86-1.48,.86-.24,0-.61-.08-1.09-.23-.87-.3-1.46-.82-1.79-1.54-.33-.72-.49-1.62-.49-2.69l.1-1.66c.03-.46,.08-1.31,.13-2.55,.05-1.24,.08-2.45,.08-3.63,0-2.67-.07-4.71-.21-6.12-1.77,1.6-3.53,2.94-5.28,4-1.75,1.07-3.25,1.87-4.5,2.4-1.25,.53-2.03,.8-2.34,.8-.28,0-.42-.11-.42-.34,0-.19,.19-.44,.57-.74,2.7-2.14,5.1-4.39,7.2-6.78,2.1-2.38,3.8-4.61,5.1-6.69,1.3-2.08,2.21-3.78,2.73-5.12,.35-.88,.52-1.66,.52-2.35,0-.88-.26-1.51-.78-1.89-.38-.3-.57-.59-.57-.86,0-.46,.59-.69,1.77-.69,1.04,0,2.06,.32,3.07,.97Z"/>
    <path class="cls-2" d="M230.11,626.5c0-.19,.19-.38,.57-.57,5.13-2.78,9.44-6.25,12.92-10.41s6.07-8.15,7.75-11.98c1.68-3.83,2.52-6.63,2.52-8.38,0-.5-.17-.74-.52-.74-.28,0-2.75,.55-7.41,1.66-4.66,1.11-7.41,1.85-8.24,2.23-1.35,.57-2.34,.86-2.96,.86-.73,0-1.51-.41-2.34-1.23-.83-.82-1.53-1.84-2.11-3.06-.57-1.22-.86-2.4-.86-3.55,0-.84,.14-1.26,.42-1.26,.07,0,.3,.14,.7,.43,.4,.29,.86,.54,1.38,.77,.52,.23,1.13,.34,1.82,.34,.97,0,3.98-.36,9.02-1.09,5.04-.72,8.29-1.24,9.75-1.54,.8-.15,1.68-.51,2.65-1.09,.35-.19,.69-.36,1.04-.51,.35-.15,.71-.23,1.09-.23,.55,0,1.32,.4,2.29,1.2,.97,.8,1.85,1.71,2.63,2.72,.78,1.01,1.17,1.78,1.17,2.32,0,.38-.1,.72-.29,1.03-.19,.31-.49,.71-.91,1.2-.07,.08-.24,.26-.52,.54-.28,.29-.47,.58-.57,.89-1.63,3.7-3.18,6.92-4.65,9.67-1.47,2.75-3.62,5.73-6.45,8.95-2.83,3.22-6.23,5.86-10.22,7.92-1.8,.92-3.71,1.68-5.72,2.29-2.01,.61-3.22,.92-3.64,.92-.21,0-.31-.09-.31-.29Zm28.81-42.21c-.28-.19-.42-.32-.42-.4,0-.15,.17-.23,.52-.23,.62,0,1.63,.14,3.02,.43,1.39,.29,2.7,.88,3.95,1.77,1.25,.9,1.87,2.14,1.87,3.75,0,.61-.16,1.08-.47,1.4-.31,.32-.69,.49-1.14,.49-.52,0-.94-.14-1.25-.43s-.64-.73-.99-1.34c-1.42-2.29-3.12-4.1-5.1-5.43Zm10.24,1.4c-.28-.21-.61-.54-.99-1-.97-1.07-1.9-1.92-2.78-2.57-.88-.65-1.97-1.28-3.25-1.89-.31-.19-.47-.34-.47-.46s.27-.2,.81-.26c.54-.06,.98-.09,1.33-.09,2.15,0,3.99,.41,5.51,1.23,1.53,.82,2.29,1.99,2.29,3.52,0,.57-.17,1.02-.49,1.34-.33,.32-.7,.49-1.12,.49-.28,0-.56-.1-.83-.31Z"/>
  </g>
  <g>
    <path d="M710.95,399.13v2.24c0,2.11,0,3.23,.27,8.84h-3.6c.03-.51,.07-1.05,.1-1.6h-5.03l.1,1.6h-3.67c.27-4.32,.31-9.31,.31-9.59v-1.5h-5.13v14.79h13.36c2.48,0,4.93-.1,7.38-.31v3.37c-2.79-.24-5.44-.31-7.38-.31h-13.33c.03,1.16,.1,1.56,.17,2.11h-3.91c.07-.75,.2-2.01,.31-4.35,.03-.58,.24-5.44,.24-5.71v-9.59c-3.3,.07-3.67,.07-5.34,.17v-3.03c1.39,.07,1.87,.1,5.34,.24,0-4.32,0-5-.17-7.85l3.5,.17c.65,.03,.95,.34,.95,.58,0,.41-.54,.65-.95,.82-.07,1.56-.07,1.73-.14,6.32h5.1c0-2.35-.07-6.12-.07-8.46l3.71,.27c.85,.07,.85,.44,.85,.65,0,.34-.31,.54-1.12,.82-.07,1.9-.1,2.96-.1,4.25v2.48h5.03v-2.89c0-1.6-.07-3.4-.14-5.03l3.88,.41c.24,.03,.78,.07,.78,.61,0,.34-.85,.78-1.12,.92-.1,1.7-.1,2.52-.17,5.92,2.04-.07,2.38-.07,5.61-.2v3.03c-1.84-.07-3.94-.14-5.61-.17Zm-3.23,0h-5.03v6.66h5.03v-6.66Z"/>
    <path d="M751.07,410.65c-2.31-.61-4.96-1.53-7.82-3.81v7.82c0,1.67,.1,2.58,.41,3.94h-4.01c.27-1.09,.37-2.92,.37-4.05v-3.98c0-1.97-.1-3.91-.2-5.3l2.04,.34c-.75-.68-2.07-2.11-2.89-3.64h-3.67c-1.02,1.56-2.31,2.92-2.65,3.26l1.67,.1c.27,0,.78,.07,.78,.54,0,.31-.07,.34-.85,.85-.2,3.54-.37,5.98-1.9,8.33-1.09,1.63-2.55,3.03-4.25,3.98l-2.52-2.75c2.79-1.33,5.47-2.86,5.47-9.59-.37,.31-2.82,2.38-7.62,4.25l-2.31-3.13c1.94-.31,6.46-1.53,10.3-5.85-3.33,0-3.67,0-6.46,.14,.27-1.16,.34-3.33,.34-4.52v-4.66c0-.85-.14-3.26-.24-4.15,1.09,.14,1.19,.17,4.18,.24,2.11,.07,2.35,.07,3.81,.07h6.26c1.9,0,7.34-.03,9.18-.34q-.2,3.33-.2,5.54v3.26c0,1.46,.07,3.03,.2,4.56-1.43-.14-1.84-.14-5.64-.14,1.02,1.43,2.28,2.58,3.3,3.2,2.07,1.29,5.2,2.24,6.7,2.38l-1.77,3.09Zm-15.67-19.14h-7v2.75h7v-2.75Zm0,5.17h-7v2.86h7v-2.86Zm9.96-5.17h-7.07v2.75h7.07v-2.75Zm0,5.17h-7.07v2.86h7.07v-2.86Z"/>
    <path d="M784.6,402.87c-.17,0-.92-.1-1.29-.14-1.8,.44-1.97,.51-6.26,2.24,.03,.99,.03,5.47,.07,6.36l-3.67,.24c.14-1.09,.34-2.75,.48-5.24-2.11,1.05-3.37,1.8-4.49,2.96-.78,.82-1.36,2.01-1.36,2.92,0,2.62,3.77,2.92,6.56,2.92,1.77,0,5.17-.27,7.72-1.02l-.99,3.5c-.27,0-.51,.03-2.52,.2-.78,.07-1.73,.14-3.2,.14-6.22,0-7.65-.82-8.91-1.9-1.16-.99-1.8-2.41-1.8-3.91,0-4.42,5.51-7.51,8.64-9.04-.31-.88-.71-2.04-2.52-2.04s-3.77,1.46-4.86,2.52c-1.46,1.43-2.48,3.03-3.23,4.32l-2.96-1.63c3.57-3.54,5.34-6.43,7.17-10-2.38,.27-3.4,.41-5.44,.51l-.54-3.23c.92,.07,1.84,.17,3.2,.17,1.7,0,2.96-.14,4.05-.24,.95-2.35,1.26-3.6,1.63-5.03l3.77,.54c.31,.03,.58,.2,.58,.54,0,.37-.07,.41-1.26,1.16-.54,1.12-.68,1.46-1.05,2.24,3.3-.58,5.2-1.16,7.24-1.9l-.34,3.23c-1.9,.48-6.15,1.22-8.26,1.5-.82,1.6-1.36,2.48-1.94,3.4,.68-.27,2.41-.85,3.64-.85s3.03,.75,3.84,2.55c.14,.31,.24,.68,.31,.95,4.42-1.84,4.59-1.9,6.15-2.72l2.21,2.82c.14,.17,.17,.34,.17,.48,0,.27-.2,.48-.54,.48Z"/>
    <path d="M808.36,416.74c-1.36-1.02-4.01-2.99-5.95-6.7-1.43,3.26-4.11,6.63-7.14,8.26l-3.43-2.14c2.79-1.05,5.13-3.03,6.7-5.51,1.46-2.28,1.9-4.35,2.21-5.92h-1.87c-1.9,0-3.84,.07-5.75,.27v-3.33c1.97,.24,4.86,.31,5.75,.31h2.21c.03-.48,.1-1.39,.1-2.41,0-1.56-.1-2.28-.24-3.47h-3.33c-1.19,2.14-2.07,2.99-2.48,3.4l-2.99-1.67c1.36-1.09,2.92-3.33,3.43-4.35,.48-.88,1.29-3.16,1.8-5.47l3.57,1.26c.17,.07,.37,.2,.37,.48,0,.48-.61,.58-1.22,.65-.24,.68-.48,1.29-1.19,3.03h6.26c1.5,0,3.03-.07,4.52-.27v3.26c-1.94-.31-4.35-.31-4.52-.31h-.95c.07,.41,.14,1.29,.14,2.52,0,1.39-.07,2.14-.14,3.37,1.33,0,4.08-.07,6.19-.31v3.37c-2.48-.31-5.58-.31-5.81-.31h-.71c-.1,.61-.14,.71-.2,1.05,.95,2.28,1.73,3.71,4.08,6.09,1.56,1.56,2.24,2.01,2.75,2.31l-2.14,2.55Zm11.12,.44c.03-.2,.17-1.84,.27-2.89h-5.41c.07,1.09,.17,2.92,.24,3.3h-3.77c.41-2.35,.48-10.1,.48-10.57v-8.33c0-3.16-.1-4.9-.17-6.15,.54,.03,3.37,.17,4.11,.17h3.94c.95,0,2.89-.03,3.77-.14-.17,1.09-.2,3.16-.2,6.19v8.23c0,3.4,.24,8.94,.41,10.2h-3.67Zm.27-21.72h-5.41v15.91h5.41v-15.91Z"/>
    <path d="M838.35,409.23l-2.48,.61c-1.29-3.03-1.77-6.6-1.77-9.89,0-3.06,.54-6.9,1.29-10.5l3.71,.75c.27,.07,.68,.17,.68,.54,0,.31-.41,.58-1.19,1.02-1.29,2.75-1.63,5.85-1.63,8.87,0,1.12,.14,3.03,.41,3.03,.14,0,.17-.07,.44-.65,.34-.71,2.35-5.1,2.55-5.44l1.63,2.18c-1.5,3.06-3.16,6.39-3.64,9.48Zm14.75-18.05c.03,.92,.14,3.09,.14,5.81,0,7.68-.85,15.4-6.87,20.4l-3.67-2.07c.92-.48,3.2-1.63,4.83-4.9,2.01-4.08,2.38-8.7,2.38-11.66s-.31-6.22-.65-9.28l3.88,.24c.31,.03,.85,.07,.85,.54,0,.41-.54,.71-.88,.92Z"/>
    <path d="M871.88,418.34c-2.01-2.96-4.11-5.17-7.04-6.97l2.35-2.31c4.15,2.75,6.19,5.2,7.31,6.49l-2.62,2.79Z"/>
    <path d="M904.48,417.69h-13.73c-4.66,0-4.83-3.33-4.83-5.1v-9.11c0-.27,0-1.94-.24-4.42,2.45,.17,4.83,.24,6.87,.24h14.21v-6.9h-12.65c-3.16,0-6.02,.14-8.98,.34v-3.64c3.33,.24,6.77,.37,9.11,.37h8.6c1.9,0,5.58-.14,7.41-.34-.17,1.87-.2,5.34-.2,5.54v5.85c0,.99,.03,1.63,.14,3.77h-3.6c.03-.34,.07-1.8,.1-2.11h-17.44v9.62c0,2.14,.68,2.82,3.13,2.82h12.1c3.43,0,4.39-.1,5.54-5.47l2.92,2.38c-1.53,6.15-3.84,6.15-8.46,6.15Z"/>
    <path d="M946.1,402.87c-.17,0-.92-.1-1.29-.14-1.8,.44-1.97,.51-6.26,2.24,.03,.99,.03,5.47,.07,6.36l-3.67,.24c.14-1.09,.34-2.75,.48-5.24-2.11,1.05-3.37,1.8-4.49,2.96-.78,.82-1.36,2.01-1.36,2.92,0,2.62,3.77,2.92,6.56,2.92,1.77,0,5.17-.27,7.72-1.02l-.99,3.5c-.27,0-.51,.03-2.52,.2-.78,.07-1.73,.14-3.2,.14-6.22,0-7.65-.82-8.91-1.9-1.16-.99-1.8-2.41-1.8-3.91,0-4.42,5.51-7.51,8.64-9.04-.31-.88-.71-2.04-2.52-2.04s-3.77,1.46-4.86,2.52c-1.46,1.43-2.48,3.03-3.23,4.32l-2.96-1.63c3.57-3.54,5.34-6.43,7.17-10-2.38,.27-3.4,.41-5.44,.51l-.54-3.23c.92,.07,1.84,.17,3.2,.17,1.7,0,2.96-.14,4.05-.24,.95-2.35,1.26-3.6,1.63-5.03l3.77,.54c.31,.03,.58,.2,.58,.54,0,.37-.07,.41-1.26,1.16-.54,1.12-.68,1.46-1.05,2.24,3.3-.58,5.2-1.16,7.24-1.9l-.34,3.23c-1.9,.48-6.15,1.22-8.26,1.5-.82,1.6-1.36,2.48-1.94,3.4,.68-.27,2.41-.85,3.64-.85s3.03,.75,3.84,2.55c.14,.31,.24,.68,.31,.95,4.42-1.84,4.59-1.9,6.15-2.72l2.21,2.82c.14,.17,.17,.34,.17,.48,0,.27-.2,.48-.54,.48Z"/>
    <path d="M969.86,416.74c-1.36-1.02-4.01-2.99-5.95-6.7-1.43,3.26-4.11,6.63-7.14,8.26l-3.43-2.14c2.79-1.05,5.13-3.03,6.7-5.51,1.46-2.28,1.9-4.35,2.21-5.92h-1.87c-1.9,0-3.84,.07-5.75,.27v-3.33c1.97,.24,4.86,.31,5.75,.31h2.21c.03-.48,.1-1.39,.1-2.41,0-1.56-.1-2.28-.24-3.47h-3.33c-1.19,2.14-2.07,2.99-2.48,3.4l-2.99-1.67c1.36-1.09,2.92-3.33,3.43-4.35,.48-.88,1.29-3.16,1.8-5.47l3.57,1.26c.17,.07,.37,.2,.37,.48,0,.48-.61,.58-1.22,.65-.24,.68-.48,1.29-1.19,3.03h6.26c1.5,0,3.03-.07,4.52-.27v3.26c-1.94-.31-4.35-.31-4.52-.31h-.95c.07,.41,.14,1.29,.14,2.52,0,1.39-.07,2.14-.14,3.37,1.33,0,4.08-.07,6.19-.31v3.37c-2.48-.31-5.58-.31-5.81-.31h-.71c-.1,.61-.14,.71-.2,1.05,.95,2.28,1.73,3.71,4.08,6.09,1.56,1.56,2.24,2.01,2.75,2.31l-2.14,2.55Zm11.12,.44c.03-.2,.17-1.84,.27-2.89h-5.41c.07,1.09,.17,2.92,.24,3.3h-3.77c.41-2.35,.48-10.1,.48-10.57v-8.33c0-3.16-.1-4.9-.17-6.15,.54,.03,3.37,.17,4.11,.17h3.94c.95,0,2.89-.03,3.77-.14-.17,1.09-.2,3.16-.2,6.19v8.23c0,3.4,.24,8.94,.41,10.2h-3.67Zm.27-21.72h-5.41v15.91h5.41v-15.91Z"/>
    <path d="M1005.84,417.15c-2.92,0-7.07-1.33-7.07-4.59,0-2.79,2.79-4.52,5.37-4.52,1.56,0,3.54,.61,5.24,2.11,.92,.82,1.36,1.56,1.77,2.24,.85-.65,2.65-2.01,2.65-4.76,0-.48-.1-2.75-1.5-4.11-1.36-1.33-3.37-1.46-4.25-1.46-2.41,0-4.83,.95-6.7,2.28-1.5,1.05-2.65,2.28-5.27,5.1l-2.82-2.24c3.33-2.48,10.47-9.72,13.67-13.97-2.24,.48-3.33,.71-5.64,1.02-.65,.07-3.47,.34-4.05,.41l-.71-3.3c.58,.07,1.19,.14,2.24,.14,4.52,0,10.23-1.16,12.1-1.9l2.04,2.38c-1.63,1.02-2.01,1.39-3.77,3.2-2.38,2.41-2.79,2.86-4.66,5.13,.95-.44,2.28-1.05,4.35-1.05,5,0,8.26,3.91,8.26,7.82,0,5.61-5.13,10.1-11.25,10.1Zm1.22-5.34c-.68-.58-1.9-.95-2.92-.95-1.7,0-2.41,.95-2.41,1.56,0,1.29,2.04,1.97,4.01,1.97,1.36,0,2.07-.24,2.69-.44-.31-.68-.65-1.53-1.36-2.14Z"/>
    <path d="M707.59,477.62c.03-1.09,.07-1.39,.1-2.38h-12.92c.03,.41,.14,2.11,.14,2.45h-3.81c.1-2.14,.31-6.36,.31-9.86v-8.57c0-2.82-.03-6.09-.17-8.91,1.43,.1,3.47,.2,6.6,.2h7.38c3.37,0,3.74-.1,6.05-.24-.14,2.41-.2,5.54-.2,7.99v9.32c0,2.55,.14,7.55,.34,10h-3.81Zm.1-23.9h-12.92v7.58h12.92v-7.58Zm0,10.68h-12.92v7.79h12.92v-7.79Z"/>
    <path d="M750.5,473.61c-1.05-.54-3.3-1.7-5.92-4.01-2.41-2.18-4.56-4.69-5.95-7.04v4.93c0,.61,0,.82,.03,2.79h.65c1.63,0,3.26-.07,4.86-.31v3.37c-1.46-.2-3.37-.31-4.86-.31h-.61c0,1.12,.03,2.31,.17,5.92h-3.84c.1-3.54,.14-4.66,.14-5.92h-.61c-1.63,0-3.23,.07-4.83,.31v-3.37c1.6,.24,3.2,.31,4.83,.31h.65c.03-1.84,.03-2.04,.03-2.65v-5.47c-2.79,4.93-6.83,9.11-11.9,11.66l-2.65-3.13c5.27-1.84,10.27-6.56,13.36-13.19h-2.14c-3.23,0-6.9,.07-10.1,.27v-3.33c3.37,.2,6.73,.27,10.1,.27h3.33c-.03-3.54-.07-3.94-.14-6.73l3.54,.2c.61,.03,.88,.14,.88,.54,0,.27-.07,.34-.78,.88-.03,1.02-.1,3.88-.1,5.1h3.23c3.23,0,7-.07,10.2-.27v3.33c-3.4-.2-6.8-.27-10.2-.27h-2.38c.85,1.56,2.52,4.49,5.24,7.31,3.54,3.71,6.7,5,8.26,5.64l-2.48,3.16Z"/>
    <path d="M784.8,456.71c-2.99,4.18-4.28,5.98-7.48,8.7l-2.69-2.41c3.2-1.9,5.71-4.93,7.85-8.6h-13.53c-2.62,0-6.66,.1-10,.24v-3.09c2.69,.17,6.8,.24,9.83,.24h8.12c2.18,0,4.96-.24,7.82-.65l2.52,3.09c-.75,.34-.99,.44-2.45,2.48Zm-10.67,1.39c-.54,5.81-1.19,12.65-9.04,18.56l-3.33-2.14c3.84-2.18,5.88-5.34,6.29-5.98,1.97-3.06,2.48-6.05,2.48-9.96,0-.75,0-1.29-.07-2.45l3.67,.37c.75,.07,.92,.51,.92,.75,0,.34-.1,.37-.92,.85Z"/>
    <path d="M812.55,473.41h-8.84c-2.99,0-5.95,.07-8.94,.34v-3.88c3.03,.27,7.48,.34,8.94,.34h8.84c.2,0,5.24,0,9.01-.34v3.88c-3.67-.34-8.06-.34-9.01-.34Zm-.92-16.35h-6.46c-2.04,0-4.59,.07-6.56,.31v-3.6c2.24,.24,5.47,.31,6.56,.31h6.46c2.21,0,4.45-.07,6.63-.31v3.6c-2.82-.31-6.49-.31-6.63-.31Z"/>
    <path d="M851.48,453.79c-1.46,3.74-2.21,5.58-2.82,7-.41,.95-.92,1.8-1.46,2.72,3.67,3.54,4.08,4.05,4.93,5.41l-2.55,2.62c-.58-.85-1.7-2.48-4.39-5.24-2.82,3.43-6.77,7.04-10.98,9.76l-3.43-2.69c2.35-.61,4.32-2.04,6.22-3.54,1.67-1.33,3.91-3.3,5.75-5.78-.48-.41-3.5-2.86-5.95-4.18l1.87-2.89c2.55,1.46,5.2,3.64,5.95,4.25,1.46-2.52,3.54-7.21,3.57-10.37l3.6,1.53c.65,.27,.75,.48,.75,.65,0,.51-.65,.68-1.05,.75Z"/>
    <path d="M883.47,476.57l-2.58-2.82c2.01-.51,5.34-1.36,7.55-3.91,2.01-2.35,2.58-5.54,2.58-7.62,0-4.86-3.6-7.14-5.27-7.96-2.04-1.02-3.37-.99-4.66-.99-.58,4.15-1.39,10.2-4.25,16.49-.65,1.39-2.35,5.07-4.28,5.07-1.29,0-2.31-.65-2.89-1.16-1.29-1.05-4.15-4.05-4.15-9.15,0-2.48,.71-6.29,3.71-9.35,4.73-4.79,9.18-4.79,11.15-4.79,3.09,0,7.31,.54,10.68,4.25,2.01,2.21,3.06,5.13,3.06,8.13,0,8.36-5.92,12.51-10.64,13.8Zm-6.36-22.91c-2.89,.48-8.57,4.01-8.57,10.88,0,3.03,1.87,6.22,3.3,6.22,1.19,0,2.07-2.04,2.48-2.96,2.45-5.71,3.47-11.39,3.67-14.24-.31,.03-.58,.07-.88,.1Z"/>
    <path d="M920.46,462.77h-5.78c-.68,1.26-1.46,2.45-2.41,3.5h7.24c.95,0,5.13-.1,5.98-.14,.71-.03,1.09-.03,2.11-.1-.14,2.04-.17,3.84-.17,4.42v4.05c0,.71,.14,3.26,.2,4.18h-3.64c.07-.58,.07-.65,.1-1.43h-12.82c.03,.65,.03,.82,.07,1.36h-3.67c.1-1.33,.31-3.5,.31-5.44v-2.75c-2.65,2.14-5,3.06-6.49,3.6l-2.82-2.65c2.89-.75,8.26-2.18,12.41-8.6h-.65c-3.43,0-6.9,.07-10.33,.27v-3.2c3.71,.24,7.85,.27,10.33,.27h1.94c.54-1.63,.85-2.92,1.16-4.76l3.6,.92c.27,.07,.44,.17,.44,.37,0,.41-.58,.51-.78,.54-.31,.99-.54,1.7-.99,2.92h4.66c3.13,0,6.7-.07,10.33-.27v3.2c-3.6-.2-7.51-.27-10.33-.27Zm1.77-8.43v.48c0,.85,.03,1.9,.1,2.75h-3.33c.07-.99,.1-2.38,.1-3.23h-7.24c0,1.12,.03,2.14,.07,3.23h-3.33c.1-.75,.17-2.35,.17-3.23-1.16,0-5.17,.07-8.64,.27v-3.3c3.26,.17,3.88,.2,8.64,.24,0-.51-.03-2.24-.14-3.57l3.4,.31c.37,.03,.61,.1,.61,.37,0,.34-.41,.51-.71,.65-.07,.71-.07,.88-.07,2.28h7.24c0-1.12-.07-2.62-.14-3.6l3.47,.31c.27,.03,.58,.1,.58,.34,0,.37-.48,.61-.71,.71-.07,.82-.07,1.94-.07,2.21,4.93-.07,5.47-.07,8.53-.24v3.3c-3.33-.2-7.31-.27-8.53-.27Zm1.94,14.72h-12.95v5.44h12.95v-5.44Z"/>
    <path d="M945.04,475.24c-1.8,0-3.33-1.67-3.94-2.38-2.55-3.03-3.67-6.43-3.67-11.86,0-1.33,.07-1.94,.68-7.45,.03-.14,.07-.75,.1-.88l3.09,1.09c.68,.24,1.05,.37,1.05,.71,0,.31-.37,.48-.85,.71-.27,1.05-.78,3.09-.78,6.05,0,5.58,2.31,9.76,3.94,9.76s2.65-3.84,3.03-5.68l1.97,2.07c-.68,3.06-2.04,7.85-4.62,7.85Zm16.62-7.07c-.1-2.92-.82-5.78-2.07-8.43-1.77-3.71-2.55-4.66-3.2-5.44l3.09-1.46c3.5,4.25,5.75,11.15,5.95,14.18l-3.77,1.16Z"/>
    <path d="M991.76,457.22h-1.7v4.69c1.94-1.6,3.23-3.2,3.81-3.91l3.4,1.8c.17,.1,.24,.27,.24,.41,0,.44-.68,.41-1.02,.37-2.21,2.18-5.44,4.56-6.43,5.24v.68c0,.41,.07,2.14,.07,2.52,.03,1.29,.1,3.64,.1,6.36,0,1.77,0,3.5-4.39,3.5-.95,0-1.33-.1-1.84-.2l-2.14-3.57c1.02,.34,2.14,.71,3.57,.71s1.5-.54,1.5-2.18v-5.78c-1.67,.95-7.34,4.08-12.51,5.27l-3.03-3.3c1.84-.1,4.83-.27,10.2-2.69,2.28-1.02,4.18-2.14,5.34-2.89v-7.04h-4.93c-4.35,0-8.23,.2-10.27,.31v-3.3c2.18,.2,9.28,.27,10.27,.27h4.9c-.07-3.94-.07-4.11-.31-6.56l4.05,.48c.34,.03,.65,.1,.65,.41,0,.34-.31,.44-.88,.65-.17,1.7-.17,2.01-.31,5.03h1.67c3.33,0,6.66-.07,10-.27v3.3c-4.35-.27-9.35-.31-10-.31Z"/>
    <path d="M1020.32,457.63c-.14-.61-.27-1.05-.75-2.07-1.56,.24-5.34,.61-7.17,.78-.51,.07-2.82,.24-3.3,.27-.34,.44-.51,.65-.85,.65s-.44-.44-.48-.65l-.41-2.79h2.45c1.33-3.03,1.67-4.52,1.9-5.47l3.5,.54c.2,.03,.58,.14,.58,.44,0,.34-.2,.41-.88,.65-.27,.34-1.05,1.97-1.26,2.31-.51,.92-.61,1.05-.88,1.46,1.87-.07,4.42-.17,5.61-.27-1.5-2.01-1.63-2.11-2.28-2.69l2.55-1.29c2.52,2.35,3.88,5.34,4.52,6.77l-2.86,1.36Zm-.75,20.5c-.68,.27-3.06,.34-3.84,.34l-1.22-3.26c1.63,.2,2.48,.31,2.99,.31,.85,0,.88-.2,.88-2.21v-2.11h-7c-.03,1.39-.07,3.3-.07,3.88,0,.54,.07,2.92,.07,3.4h-3.3c.2-1.97,.41-6.05,.41-8.09v-5.78c0-2.14-.07-4.73-.17-6.22,1.56,.14,2.52,.17,4.52,.17h4.25c1.67,0,3.54-.1,4.28-.17,0,1.02-.07,5.47-.07,6.39v5.51c0,.54,.07,4.96,.07,5.03,0,1.36-.31,2.24-1.8,2.82Zm-1.19-16.96h-7v2.48h7v-2.48Zm0,4.96h-7v2.58h7v-2.58Zm14.48-3.67h-4.32c-3.26,0-4.35-.31-4.35-3.4v-6.26c0-1.19,0-1.53-.14-4.52l3.81,.54c.17,.03,.51,.24,.51,.37,0,.34-.1,.37-.95,.88-.07,1.16-.14,1.94-.14,2.89v.85c3.47-.71,5.54-2.04,6.73-2.86l2.38,2.31c.07,.07,.17,.2,.17,.37s-.1,.51-.68,.51c-.14,0-.2,0-.85-.17-1.8,.99-4.25,2.14-7.75,2.62v2.04c0,.88,0,1.39,1.87,1.39h3.3c.95,0,1.19,0,1.7-.58,.41-.48,1.02-2.11,1.12-3.06l2.65,1.8c-1.05,4.05-2.21,4.25-5.07,4.25Zm.61,15.5h-4.73c-2.14,0-3.54-.03-4.25-1.05-.2-.37-.31-.65-.31-2.31v-6.83c0-1.36,0-1.73-.1-4.69l3.74,.44c.17,.03,.41,.1,.41,.44,0,.31-.14,.41-.82,.78-.07,.82-.14,1.84-.14,3.47,2.58-.41,5.07-1.19,6.94-2.69l2.28,2.28c.1,.1,.17,.17,.17,.34s-.14,.48-.48,.48c-.17,0-.34-.07-.78-.24-3.06,1.56-5.81,2.35-8.12,2.69v3.26c0,.75,.27,1.09,1.87,1.09h3.4c1.22,0,1.5-.44,1.7-.71,.24-.41,.71-1.63,.95-3.06l2.55,1.84c-.65,4.45-2.55,4.49-4.28,4.49Z"/>
    <path d="M1070.2,462.87c-.17,0-.92-.1-1.29-.14-1.8,.44-1.97,.51-6.26,2.24,.03,.99,.03,5.47,.07,6.36l-3.67,.24c.14-1.09,.34-2.75,.48-5.24-2.11,1.05-3.37,1.8-4.49,2.96-.78,.82-1.36,2.01-1.36,2.92,0,2.62,3.77,2.92,6.56,2.92,1.77,0,5.17-.27,7.72-1.02l-.99,3.5c-.27,0-.51,.03-2.52,.2-.78,.07-1.73,.14-3.2,.14-6.22,0-7.65-.82-8.91-1.9-1.16-.99-1.8-2.41-1.8-3.91,0-4.42,5.51-7.51,8.64-9.04-.31-.88-.71-2.04-2.52-2.04s-3.77,1.46-4.86,2.52c-1.46,1.43-2.48,3.03-3.23,4.32l-2.96-1.63c3.57-3.54,5.34-6.43,7.17-10-2.38,.27-3.4,.41-5.44,.51l-.54-3.23c.92,.07,1.84,.17,3.2,.17,1.7,0,2.96-.14,4.05-.24,.95-2.35,1.26-3.6,1.63-5.03l3.77,.54c.31,.03,.58,.2,.58,.54,0,.37-.07,.41-1.26,1.16-.54,1.12-.68,1.46-1.05,2.24,3.3-.58,5.2-1.16,7.24-1.9l-.34,3.23c-1.9,.48-6.15,1.22-8.26,1.5-.82,1.6-1.36,2.48-1.94,3.4,.68-.27,2.41-.85,3.64-.85s3.03,.75,3.84,2.55c.14,.31,.24,.68,.31,.95,4.42-1.84,4.59-1.9,6.15-2.72l2.21,2.82c.14,.17,.17,.34,.17,.48,0,.27-.2,.48-.54,.48Z"/>
    <path d="M697.52,517.26c-.17,.03-.88,.07-1.02,.1-.31,.37-.41,.51-1.43,1.9-.51,.71-.99,1.22-1.26,1.56,.07,.1,.41,.41,.48,.51,.03,.07,.07,.14,.07,.24s-.03,.2-.1,.27c-.1,.07-.51,.41-.58,.48-.1,1.7-.1,2.65-.1,3.67v6.7c0,.54-.03,4.35,.27,6.22h-3.5c.03-.34,.03-.61,.2-3.03,.03-.48,.1-2.58,.1-3.03v-9.01c-1.12,1.05-2.04,1.84-3.23,2.48l-2.45-2.14c2.04-1.16,6.66-3.84,10-9.83l2.55,1.94c.14,.1,.34,.34,.34,.58,0,.34-.2,.37-.34,.37Zm-1.9-6.43c-2.04,2.24-4.39,4.39-6.53,5.54l-2.62-2.21c3.71-1.73,5.95-4.28,7.38-6.15l2.65,2.14c.17,.14,.24,.24,.24,.41,0,.31-.17,.31-1.12,.27Zm18.6,14.69c-.17-.75-.27-.92-1.16-2.82-1.16,.2-5.27,.85-7.45,1.12-.24,.78-.44,1.26-.61,1.67h2.69c.99,0,1.5-.03,4.01-.37l1.73,1.67c-1.73,3.33-3.4,5.51-4.66,6.8,3.2,1.87,5.88,2.07,7.79,2.11l-1.39,3.23c-2.45-.41-5.3-1.09-8.64-3.37-3.64,2.48-7.21,3.06-9.21,3.37l-1.87-2.79c1.36-.07,5.34-.27,8.81-2.52-.82-.85-1.67-1.94-2.35-3.3-2.04,2.45-3.6,3.23-4.59,3.71l-2.72-2.41c3.43-1.39,6.29-3.98,7.68-7.38-2.92,.34-3.16,.34-4.28,.41-.07,.1-.31,.51-.37,.58-.1,.1-.24,.14-.31,.14-.27,0-.41-.2-.44-.44l-.37-2.96c.78-.03,4.28-.17,5-.24,1.33-1.43,1.46-1.56,1.77-1.9-1.05-1.36-2.04-2.72-5.95-5l2.01-2.35c.65,.34,.82,.41,2.11,1.33,1.84-2.48,2.01-2.86,3.4-5.75l3.3,1.9c.1,.07,.27,.2,.27,.41,0,.31-.37,.41-.54,.41h-.68c-1.97,2.69-2.38,3.3-3.64,4.62,.82,.78,.92,.88,1.94,2.01,1.12-1.22,3.57-4.69,4.76-6.7l3.2,1.94c.14,.1,.31,.34,.31,.54,0,.41-.37,.48-.61,.48-.14,0-.75-.07-.85-.07-.51,.51-.65,.58-1.6,1.87-.41,.51-3.13,3.88-3.84,4.73-.44,.54-.82,.92-1.09,1.19,.51-.07,4.62-.51,6.09-.78-.95-1.29-1.56-1.97-1.9-2.38l2.35-1.5c2.01,2.01,3.6,4.45,4.56,7.14l-2.62,1.67Zm-10.33,2.48c.51,1.16,1.22,2.48,2.58,3.81,1.5-1.53,2.35-3.13,2.69-3.81h-5.27Z"/>
    <path d="M729.38,526.27v8.29c0,2.35-.03,4.52-5.68,4.35l-1.67-3.54c1.29,.31,2.58,.41,2.99,.41,1.12,0,1.22-.68,1.22-1.6v-6.43c-1.84,.78-2.18,.92-2.79,1.19-.2,.44-.27,.65-.54,.65-.24,0-.37-.17-.41-.34l-.85-3.54c.92-.27,2.04-.65,4.59-1.53v-6.8h-.61c-1.22,0-2.41,.07-3.6,.31v-3.37c1.22,.24,3.06,.31,3.6,.31h.58c-.07-3.91-.14-4.73-.27-6.66l3.71,.34c.1,0,.54,.03,.54,.41,0,.31-.17,.41-.71,.71-.03,.99-.03,1.33-.03,1.63-.03,.65-.07,3.13-.07,3.57,1.12-.03,2.41-.1,3.47-.31v3.37c-1.09-.2-1.67-.24-3.47-.31v5.54c1.29-.54,2.38-1.05,3.47-1.6v2.99c-.82,.48-1.67,.99-3.47,1.94Zm21.93-11.02v9.15c0,1.53,.03,2.96,.14,5h-3.43c0-1.02,.03-1.33,.07-1.77h-4.05v4.32c0,.37,.03,1.8,.07,2.65,.03,1.26,.07,2.99,.1,4.11h-3.5c.03-1.43,.17-6.43,.17-6.8v-4.28h-4.08c.03,.58,.07,.85,.1,1.84h-3.3c.14-2.82,.2-5.17,.2-6.97v-7c0-2.69-.1-4.69-.24-6.15,1.5,.14,4.08,.17,5.64,.17h5.98c1.29,0,4.96-.1,6.29-.2-.1,1.33-.17,4.59-.17,5.95Zm-10.44-3.16h-4.08v4.79h4.08v-4.79Zm0,7.68h-4.08v4.86h4.08v-4.86Zm7.28-7.68h-4.11v4.79h4.11v-4.79Zm0,7.68h-4.11v4.86h4.11v-4.86Z"/>
    <path d="M779.29,534.02c-2.62,2.24-6.12,3.03-7.85,3.03-2.01,0-4.39-.82-5.98-2.72-1.53-1.84-1.67-3.43-1.67-6.43,0-1.73,.31-9.35,.31-10.91,0-2.21-.07-5.61-.37-7.72l3.88,.54c.82,.1,1.16,.17,1.16,.61,0,.31-.1,.37-1.02,.99-.1,.82-.2,1.73-.31,3.06-.17,2.52-.41,10.95-.41,12.31,0,3.23,.14,4.18,.92,5.24,1.02,1.43,2.86,1.94,3.94,1.94,1.67,0,4.42-.88,6.29-3.03,2.31-2.58,3.23-5.27,3.67-6.53l2.65,2.48c-1.29,2.69-2.92,5.2-5.2,7.14Z"/>
    <path d="M815.95,516c-2.18,0-2.99,.07-4.32,.17-.07,.75-.24,4.05-.27,4.73,.61,1.22,1.5,2.96,1.5,5.61,0,1.26-.34,7.58-5.51,12.48l-3.88-1.56c.85-.41,2.01-.99,3.23-2.41,1.53-1.77,1.9-3.3,2.18-4.35-.61,.41-1.29,.85-2.58,.85-3.3,0-4.76-3.13-4.76-5.64,0-2.89,1.9-6.49,5.37-6.49,.61,0,1.36,.07,1.6,.1,.03-.92,.03-1.12,.03-3.06-2.41,.03-9.45,.44-13.63,1.19l-.37-3.54c.92,.03,1.16,.07,2.18,.07,1.22,0,6.6-.2,7.68-.24,1.53-.03,2.38-.03,4.05-.07,0-1.5-.03-3.43-.41-5.51l3.64,.17c.54,.03,1.29,.03,1.29,.58,0,.24-.24,.41-.34,.48-.34,.27-.37,.31-.68,.54-.14,.88-.17,1.16-.24,3.54,1.53,0,7.41-.24,10.47-.85l.14,3.47c-3.03-.24-5.61-.24-6.36-.24Zm-8.98,6.32c-1.43,0-2.41,1.6-2.41,3.5,0,2.18,1.36,2.89,2.04,2.89,2.18,0,2.52-2.21,2.52-3.37,0-1.94-1.02-3.03-2.14-3.03Z"/>
    <path d="M844.34,537.15c-2.92,0-7.07-1.33-7.07-4.59,0-2.79,2.79-4.52,5.37-4.52,1.56,0,3.54,.61,5.24,2.11,.92,.82,1.36,1.56,1.77,2.24,.85-.65,2.65-2.01,2.65-4.76,0-.48-.1-2.75-1.5-4.11-1.36-1.33-3.37-1.46-4.25-1.46-2.41,0-4.83,.95-6.7,2.28-1.5,1.05-2.65,2.28-5.27,5.1l-2.82-2.24c3.33-2.48,10.47-9.72,13.67-13.97-2.24,.48-3.33,.71-5.64,1.02-.65,.07-3.47,.34-4.05,.41l-.71-3.3c.58,.07,1.19,.14,2.24,.14,4.52,0,10.23-1.16,12.1-1.9l2.04,2.38c-1.63,1.02-2.01,1.39-3.77,3.2-2.38,2.41-2.79,2.86-4.66,5.13,.95-.44,2.28-1.05,4.35-1.05,5,0,8.26,3.91,8.26,7.82,0,5.61-5.13,10.1-11.25,10.1Zm1.22-5.34c-.68-.58-1.9-.95-2.92-.95-1.7,0-2.41,.95-2.41,1.56,0,1.29,2.04,1.97,4.01,1.97,1.36,0,2.07-.24,2.69-.44-.31-.68-.65-1.53-1.36-2.14Z"/>
    <path d="M888.94,517.87c-1.8,5.92-2.62,8.46-5.78,12.48-2.96,3.71-6.77,6.7-11.25,8.19l-3.09-2.89c10.3-2.45,15.6-11.39,16.62-18.46h-12.31c-1.5,0-4.45,.07-6.97,.37v-3.54c1.39,.34,5.44,.34,7.04,.34h6.94c.68,0,4.45-.03,5.07-.14,.68-.1,.71-.14,1.7-.78l3.03,2.48c-.48,.48-.71,.99-.99,1.94Zm3.37-3.2c-2.04,0-3.67-1.63-3.67-3.67s1.63-3.71,3.67-3.71,3.71,1.67,3.71,3.71-1.67,3.67-3.71,3.67Zm-.03-5.3c-.88,0-1.6,.71-1.6,1.6s.71,1.7,1.67,1.7,1.6-.82,1.6-1.67c0-.92-.75-1.63-1.67-1.63Z"/>
    <path d="M923.52,534.7c.14-.71,.14-.85,.24-2.04h-16.56c0,.51,0,1.39,.07,1.97h-3.88c.1-.88,.27-2.35,.27-4.42,.03-3.3,.03-3.67,.03-4.05v-7.07c0-1.05-.1-6.26-.17-7.14,2.01,.2,6.26,.27,8.36,.27h7.31c2.41,0,6.02-.03,8.36-.17-.14,1.77-.2,5.78-.2,7.68v6.73c0,.68,.1,3.6,.1,4.22,.03,2.41,.17,3.23,.31,4.01h-4.25Zm.37-19.34h-16.73v14.28h16.73v-14.28Z"/>
    <path d="M945.72,523.04c-1.02-.71-1.53-1.05-3.74-2.01-2.45-1.05-3.13-1.29-3.91-1.56l1.46-2.89c.92,.37,5.2,2.11,7.68,3.84l-1.5,2.62Zm-2.04,13.73c-.03,.41-.1,1.22-.71,1.22-.1,0-.37-.1-.58-.34l-2.55-3.33c1.84-.51,5.51-1.53,11.66-6.46,5-3.98,7.51-7.17,9.86-10.71l2.07,2.82c-4.9,7.82-15.2,14.92-19.75,16.79Zm5.88-21.79c-2.28-1.84-5.71-3.2-7.79-3.81l1.39-2.82c2.99,1.19,5.68,2.58,7.85,3.91l-1.46,2.72Zm10.54-1.19c-.88-.92-1.87-1.87-3.71-3.03l1.53-1.67c1.26,.68,2.92,1.63,3.88,2.96l-1.7,1.73Zm3.64-2.48c-.31-.27-3.6-2.79-4.05-3.09l1.73-1.77c1.77,1.22,1.97,1.39,4.01,3.09l-1.7,1.77Z"/>
    <path d="M993.22,537.32h-12.41c-.71,0-2.69,.03-4.35,.2v-2.65c1.63,.07,3.26,.1,4.9,.1h4.25v-12.34h-3.06c-1.26,0-3.64,.17-4.35,.24v-2.75c2.65,.1,4.22,.14,4.9,.14h7.89c1.05,0,3.26-.1,4.73-.14v2.75c-1.5-.1-3.13-.24-4.22-.24h-2.99v12.34h4.18c.68,0,2.79,0,5.03-.1v2.65c-1.46-.17-2.99-.2-4.49-.2Z"/>
    <path d="M1033.41,516.82c-2.69,7.82-6.7,16.22-16.32,21.32l-3.03-2.45c2.58-1.12,6.53-2.89,10.57-8.19,3.81-5.03,4.73-9.15,5.17-11.19h-10.4c-1.67,2.58-3.6,5.27-6.7,8.02l-2.79-1.97c.95-.75,3.33-2.55,5.98-6.56,1.22-1.9,2.89-4.62,3.3-6.6l3.71,1.63c.24,.1,.48,.24,.48,.48,0,.34-.41,.54-.54,.58-.44,.14-.58,.1-.99,.51-.41,.41-.37,.54-.88,1.39h5.37c4.11,0,4.62-.2,5.54-.68l2.52,2.65c-.54,.58-.58,.61-.99,1.05Z"/>
    <path d="M1066.93,528.99c-1.84-1.84-4.9-4.9-10.06-7.04v5.64c0,2.01,.14,7.96,.37,9.69h-4.11c.24-1.7,.27-4.28,.27-5,.03-.78,.14-4.22,.14-4.93v-8.87c0-1.33-.1-4.96-.2-6.22-.07-.88-.17-1.5-.34-2.24l4.52,.31c.2,0,.65,.07,.65,.51,0,.34-.37,.58-1.12,1.02-.14,2.11-.17,4.22-.17,6.29v3.77l1.6-3.03c4.69,2.14,9.25,5.58,10.71,7.41l-2.24,2.69Z"/>
  </g>
  <path class="cls-1" d="M1250.57,318.31c85.14,85.14,85.14,223.19,0,308.34"/>
  <path class="cls-1" d="M516.22,626.65c-85.14-85.14-85.14-223.19,0-308.34"/>
</svg>