<?xml version="1.0" encoding="UTF-8"?>
<svg id="_デザイン" data-name="デザイン" xmlns="http://www.w3.org/2000/svg" viewBox="0 0 385.76 150.97">
  <path d="M25.97,11.12v2.24c0,2.11,0,3.23,.27,8.84h-3.6c.03-.51,.07-1.05,.1-1.6h-5.03l.1,1.6h-3.67c.27-4.32,.31-9.31,.31-9.59v-1.5h-5.13v14.79h13.36c2.48,0,4.93-.1,7.38-.31v3.37c-2.79-.24-5.44-.31-7.38-.31H9.35c.03,1.16,.1,1.56,.17,2.11h-3.91c.07-.75,.2-2.01,.31-4.35,.03-.58,.24-5.44,.24-5.71V11.12c-3.3,.07-3.67,.07-5.34,.17v-3.03c1.39,.07,1.87,.1,5.34,.24,0-4.32,0-5-.17-7.85l3.5,.17c.65,.03,.95,.34,.95,.58,0,.41-.54,.65-.95,.82-.07,1.56-.07,1.73-.14,6.32h5.1c0-2.35-.07-6.12-.07-8.46l3.71,.27c.85,.07,.85,.44,.85,.65,0,.34-.31,.54-1.12,.82-.07,1.9-.1,2.96-.1,4.25v2.48h5.03v-2.89c0-1.6-.07-3.4-.14-5.03l3.88,.41c.24,.03,.78,.07,.78,.61,0,.34-.85,.78-1.12,.92-.1,1.7-.1,2.52-.17,5.92,2.04-.07,2.38-.07,5.61-.2v3.03c-1.84-.07-3.94-.14-5.61-.17Zm-3.23,0h-5.03v6.66h5.03v-6.66Z"/>
  <path d="M66.09,22.64c-2.31-.61-4.96-1.53-7.82-3.81v7.82c0,1.67,.1,2.58,.41,3.94h-4.01c.27-1.09,.37-2.92,.37-4.05v-3.98c0-1.97-.1-3.91-.2-5.3l2.04,.34c-.75-.68-2.07-2.11-2.89-3.64h-3.67c-1.02,1.56-2.31,2.92-2.65,3.26l1.67,.1c.27,0,.78,.07,.78,.54,0,.31-.07,.34-.85,.85-.2,3.54-.37,5.98-1.9,8.33-1.09,1.63-2.55,3.03-4.25,3.98l-2.52-2.75c2.79-1.33,5.47-2.86,5.47-9.59-.37,.31-2.82,2.38-7.62,4.25l-2.31-3.13c1.94-.31,6.46-1.53,10.3-5.85-3.33,0-3.67,0-6.46,.14,.27-1.16,.34-3.33,.34-4.52V4.93c0-.85-.14-3.26-.24-4.15,1.09,.14,1.19,.17,4.18,.24,2.11,.07,2.35,.07,3.81,.07h6.26c1.9,0,7.34-.03,9.18-.34q-.2,3.33-.2,5.54v3.26c0,1.46,.07,3.03,.2,4.56-1.43-.14-1.84-.14-5.64-.14,1.02,1.43,2.28,2.58,3.3,3.2,2.07,1.29,5.2,2.24,6.7,2.38l-1.77,3.09ZM50.42,3.5h-7v2.75h7V3.5Zm0,5.17h-7v2.86h7v-2.86Zm9.96-5.17h-7.07v2.75h7.07V3.5Zm0,5.17h-7.07v2.86h7.07v-2.86Z"/>
  <path d="M99.62,14.86c-.17,0-.92-.1-1.29-.14-1.8,.44-1.97,.51-6.26,2.24,.03,.99,.03,5.47,.07,6.36l-3.67,.24c.14-1.09,.34-2.75,.48-5.24-2.11,1.05-3.37,1.8-4.49,2.96-.78,.82-1.36,2.01-1.36,2.92,0,2.62,3.77,2.92,6.56,2.92,1.77,0,5.17-.27,7.72-1.02l-.99,3.5c-.27,0-.51,.03-2.52,.2-.78,.07-1.73,.14-3.2,.14-6.22,0-7.65-.82-8.91-1.9-1.16-.99-1.8-2.41-1.8-3.91,0-4.42,5.51-7.51,8.64-9.04-.31-.88-.71-2.04-2.52-2.04s-3.77,1.46-4.86,2.52c-1.46,1.43-2.48,3.03-3.23,4.32l-2.96-1.63c3.57-3.54,5.34-6.43,7.17-10-2.38,.27-3.4,.41-5.44,.51l-.54-3.23c.92,.07,1.84,.17,3.2,.17,1.7,0,2.96-.14,4.05-.24,.95-2.35,1.26-3.6,1.63-5.03l3.77,.54c.31,.03,.58,.2,.58,.54,0,.37-.07,.41-1.26,1.16-.54,1.12-.68,1.46-1.05,2.24,3.3-.58,5.2-1.16,7.24-1.9l-.34,3.23c-1.9,.48-6.15,1.22-8.26,1.5-.82,1.6-1.36,2.48-1.94,3.4,.68-.27,2.41-.85,3.64-.85s3.03,.75,3.84,2.55c.14,.31,.24,.68,.31,.95,4.42-1.84,4.59-1.9,6.15-2.72l2.21,2.82c.14,.17,.17,.34,.17,.48,0,.27-.2,.48-.54,.48Z"/>
  <path d="M123.38,28.73c-1.36-1.02-4.01-2.99-5.95-6.7-1.43,3.26-4.11,6.63-7.14,8.26l-3.43-2.14c2.79-1.05,5.13-3.03,6.7-5.51,1.46-2.28,1.9-4.35,2.21-5.92h-1.87c-1.9,0-3.84,.07-5.75,.27v-3.33c1.97,.24,4.86,.31,5.75,.31h2.21c.03-.48,.1-1.39,.1-2.41,0-1.56-.1-2.28-.24-3.47h-3.33c-1.19,2.14-2.07,2.99-2.48,3.4l-2.99-1.67c1.36-1.09,2.92-3.33,3.43-4.35,.48-.88,1.29-3.16,1.8-5.47l3.57,1.26c.17,.07,.37,.2,.37,.48,0,.48-.61,.58-1.22,.65-.24,.68-.48,1.29-1.19,3.03h6.26c1.5,0,3.03-.07,4.52-.27v3.26c-1.94-.31-4.35-.31-4.52-.31h-.95c.07,.41,.14,1.29,.14,2.52,0,1.39-.07,2.14-.14,3.37,1.33,0,4.08-.07,6.19-.31v3.37c-2.48-.31-5.58-.31-5.81-.31h-.71c-.1,.61-.14,.71-.2,1.05,.95,2.28,1.73,3.71,4.08,6.09,1.56,1.56,2.24,2.01,2.75,2.31l-2.14,2.55Zm11.12,.44c.03-.2,.17-1.84,.27-2.89h-5.41c.07,1.09,.17,2.92,.24,3.3h-3.77c.41-2.35,.48-10.1,.48-10.57V10.67c0-3.16-.1-4.9-.17-6.15,.54,.03,3.37,.17,4.11,.17h3.94c.95,0,2.89-.03,3.77-.14-.17,1.09-.2,3.16-.2,6.19v8.23c0,3.4,.24,8.94,.41,10.2h-3.67Zm.27-21.72h-5.41v15.91h5.41V7.45Z"/>
  <path d="M153.37,21.21l-2.48,.61c-1.29-3.03-1.77-6.6-1.77-9.89,0-3.06,.54-6.9,1.29-10.5l3.71,.75c.27,.07,.68,.17,.68,.54,0,.31-.41,.58-1.19,1.02-1.29,2.75-1.63,5.85-1.63,8.87,0,1.12,.14,3.03,.41,3.03,.14,0,.17-.07,.44-.65,.34-.71,2.35-5.1,2.55-5.44l1.63,2.18c-1.5,3.06-3.16,6.39-3.64,9.48Zm14.75-18.05c.03,.92,.14,3.09,.14,5.81,0,7.68-.85,15.4-6.87,20.4l-3.67-2.07c.92-.48,3.2-1.63,4.83-4.9,2.01-4.08,2.38-8.7,2.38-11.66s-.31-6.22-.65-9.28l3.88,.24c.31,.03,.85,.07,.85,.54,0,.41-.54,.71-.88,.92Z"/>
  <path d="M186.9,30.33c-2.01-2.96-4.11-5.17-7.04-6.97l2.35-2.31c4.15,2.75,6.19,5.2,7.31,6.49l-2.62,2.79Z"/>
  <path d="M219.5,29.68h-13.73c-4.66,0-4.83-3.33-4.83-5.1V15.47c0-.27,0-1.94-.24-4.42,2.45,.17,4.83,.24,6.87,.24h14.21V4.39h-12.65c-3.16,0-6.02,.14-8.98,.34V1.09c3.33,.24,6.77,.37,9.11,.37h8.6c1.9,0,5.58-.14,7.41-.34-.17,1.87-.2,5.34-.2,5.54v5.85c0,.99,.03,1.63,.14,3.77h-3.6c.03-.34,.07-1.8,.1-2.11h-17.44v9.62c0,2.14,.68,2.82,3.13,2.82h12.1c3.43,0,4.39-.1,5.54-5.47l2.92,2.38c-1.53,6.15-3.84,6.15-8.46,6.15Z"/>
  <path d="M261.12,14.86c-.17,0-.92-.1-1.29-.14-1.8,.44-1.97,.51-6.26,2.24,.03,.99,.03,5.47,.07,6.36l-3.67,.24c.14-1.09,.34-2.75,.48-5.24-2.11,1.05-3.37,1.8-4.49,2.96-.78,.82-1.36,2.01-1.36,2.92,0,2.62,3.77,2.92,6.56,2.92,1.77,0,5.17-.27,7.72-1.02l-.99,3.5c-.27,0-.51,.03-2.52,.2-.78,.07-1.73,.14-3.2,.14-6.22,0-7.65-.82-8.91-1.9-1.16-.99-1.8-2.41-1.8-3.91,0-4.42,5.51-7.51,8.64-9.04-.31-.88-.71-2.04-2.52-2.04s-3.77,1.46-4.86,2.52c-1.46,1.43-2.48,3.03-3.23,4.32l-2.96-1.63c3.57-3.54,5.34-6.43,7.17-10-2.38,.27-3.4,.41-5.44,.51l-.54-3.23c.92,.07,1.84,.17,3.2,.17,1.7,0,2.96-.14,4.05-.24,.95-2.35,1.26-3.6,1.63-5.03l3.77,.54c.31,.03,.58,.2,.58,.54,0,.37-.07,.41-1.26,1.16-.54,1.12-.68,1.46-1.05,2.24,3.3-.58,5.2-1.16,7.24-1.9l-.34,3.23c-1.9,.48-6.15,1.22-8.26,1.5-.82,1.6-1.36,2.48-1.94,3.4,.68-.27,2.41-.85,3.64-.85s3.03,.75,3.84,2.55c.14,.31,.24,.68,.31,.95,4.42-1.84,4.59-1.9,6.15-2.72l2.21,2.82c.14,.17,.17,.34,.17,.48,0,.27-.2,.48-.54,.48Z"/>
  <path d="M284.88,28.73c-1.36-1.02-4.01-2.99-5.95-6.7-1.43,3.26-4.11,6.63-7.14,8.26l-3.43-2.14c2.79-1.05,5.13-3.03,6.7-5.51,1.46-2.28,1.9-4.35,2.21-5.92h-1.87c-1.9,0-3.84,.07-5.75,.27v-3.33c1.97,.24,4.86,.31,5.75,.31h2.21c.03-.48,.1-1.39,.1-2.41,0-1.56-.1-2.28-.24-3.47h-3.33c-1.19,2.14-2.07,2.99-2.48,3.4l-2.99-1.67c1.36-1.09,2.92-3.33,3.43-4.35,.48-.88,1.29-3.16,1.8-5.47l3.57,1.26c.17,.07,.37,.2,.37,.48,0,.48-.61,.58-1.22,.65-.24,.68-.48,1.29-1.19,3.03h6.26c1.5,0,3.03-.07,4.52-.27v3.26c-1.94-.31-4.35-.31-4.52-.31h-.95c.07,.41,.14,1.29,.14,2.52,0,1.39-.07,2.14-.14,3.37,1.33,0,4.08-.07,6.19-.31v3.37c-2.48-.31-5.58-.31-5.81-.31h-.71c-.1,.61-.14,.71-.2,1.05,.95,2.28,1.73,3.71,4.08,6.09,1.56,1.56,2.24,2.01,2.75,2.31l-2.14,2.55Zm11.12,.44c.03-.2,.17-1.84,.27-2.89h-5.41c.07,1.09,.17,2.92,.24,3.3h-3.77c.41-2.35,.48-10.1,.48-10.57V10.67c0-3.16-.1-4.9-.17-6.15,.54,.03,3.37,.17,4.11,.17h3.94c.95,0,2.89-.03,3.77-.14-.17,1.09-.2,3.16-.2,6.19v8.23c0,3.4,.24,8.94,.41,10.2h-3.67Zm.27-21.72h-5.41v15.91h5.41V7.45Z"/>
  <path d="M320.86,29.14c-2.92,0-7.07-1.33-7.07-4.59,0-2.79,2.79-4.52,5.37-4.52,1.56,0,3.54,.61,5.24,2.11,.92,.82,1.36,1.56,1.77,2.24,.85-.65,2.65-2.01,2.65-4.76,0-.48-.1-2.75-1.5-4.11-1.36-1.33-3.37-1.46-4.25-1.46-2.41,0-4.83,.95-6.7,2.28-1.5,1.05-2.65,2.28-5.27,5.1l-2.82-2.24c3.33-2.48,10.47-9.72,13.67-13.97-2.24,.48-3.33,.71-5.64,1.02-.65,.07-3.47,.34-4.05,.41l-.71-3.3c.58,.07,1.19,.14,2.24,.14,4.52,0,10.23-1.16,12.1-1.9l2.04,2.38c-1.63,1.02-2.01,1.39-3.77,3.2-2.38,2.41-2.79,2.86-4.66,5.13,.95-.44,2.28-1.05,4.35-1.05,5,0,8.26,3.91,8.26,7.82,0,5.61-5.13,10.1-11.25,10.1Zm1.22-5.34c-.68-.58-1.9-.95-2.92-.95-1.7,0-2.41,.95-2.41,1.56,0,1.29,2.04,1.97,4.01,1.97,1.36,0,2.07-.24,2.69-.44-.31-.68-.65-1.53-1.36-2.14Z"/>
  <path d="M22.61,89.61c.03-1.09,.07-1.39,.1-2.38H9.79c.03,.41,.14,2.11,.14,2.45h-3.81c.1-2.14,.31-6.36,.31-9.86v-8.57c0-2.82-.03-6.09-.17-8.91,1.43,.1,3.47,.2,6.6,.2h7.38c3.37,0,3.74-.1,6.05-.24-.14,2.41-.2,5.54-.2,7.99v9.32c0,2.55,.14,7.55,.34,10h-3.81Zm.1-23.9H9.79v7.58h12.92v-7.58Zm0,10.68H9.79v7.79h12.92v-7.79Z"/>
  <path d="M65.52,85.6c-1.05-.54-3.3-1.7-5.92-4.01-2.41-2.18-4.56-4.69-5.95-7.04v4.93c0,.61,0,.82,.03,2.79h.65c1.63,0,3.26-.07,4.86-.31v3.37c-1.46-.2-3.37-.31-4.86-.31h-.61c0,1.12,.03,2.31,.17,5.92h-3.84c.1-3.54,.14-4.66,.14-5.92h-.61c-1.63,0-3.23,.07-4.83,.31v-3.37c1.6,.24,3.2,.31,4.83,.31h.65c.03-1.84,.03-2.04,.03-2.65v-5.47c-2.79,4.93-6.83,9.11-11.9,11.66l-2.65-3.13c5.27-1.84,10.27-6.56,13.36-13.19h-2.14c-3.23,0-6.9,.07-10.1,.27v-3.33c3.37,.2,6.73,.27,10.1,.27h3.33c-.03-3.54-.07-3.94-.14-6.73l3.54,.2c.61,.03,.88,.14,.88,.54,0,.27-.07,.34-.78,.88-.03,1.02-.1,3.88-.1,5.1h3.23c3.23,0,7-.07,10.2-.27v3.33c-3.4-.2-6.8-.27-10.2-.27h-2.38c.85,1.56,2.52,4.49,5.24,7.31,3.54,3.71,6.7,5,8.26,5.64l-2.48,3.16Z"/>
  <path d="M99.82,68.7c-2.99,4.18-4.28,5.98-7.48,8.7l-2.69-2.41c3.2-1.9,5.71-4.93,7.85-8.6h-13.53c-2.62,0-6.66,.1-10,.24v-3.09c2.69,.17,6.8,.24,9.83,.24h8.12c2.18,0,4.96-.24,7.82-.65l2.52,3.09c-.75,.34-.99,.44-2.45,2.48Zm-10.67,1.39c-.54,5.81-1.19,12.65-9.04,18.56l-3.33-2.14c3.84-2.18,5.88-5.34,6.29-5.98,1.97-3.06,2.48-6.05,2.48-9.96,0-.75,0-1.29-.07-2.45l3.67,.37c.75,.07,.92,.51,.92,.75,0,.34-.1,.37-.92,.85Z"/>
  <path d="M127.57,85.4h-8.84c-2.99,0-5.95,.07-8.94,.34v-3.88c3.03,.27,7.48,.34,8.94,.34h8.84c.2,0,5.24,0,9.01-.34v3.88c-3.67-.34-8.06-.34-9.01-.34Zm-.92-16.35h-6.46c-2.04,0-4.59,.07-6.56,.31v-3.6c2.24,.24,5.47,.31,6.56,.31h6.46c2.21,0,4.45-.07,6.63-.31v3.6c-2.82-.31-6.49-.31-6.63-.31Z"/>
  <path d="M166.5,65.78c-1.46,3.74-2.21,5.58-2.82,7-.41,.95-.92,1.8-1.46,2.72,3.67,3.54,4.08,4.05,4.93,5.41l-2.55,2.62c-.58-.85-1.7-2.48-4.39-5.24-2.82,3.43-6.77,7.04-10.98,9.76l-3.43-2.69c2.35-.61,4.32-2.04,6.22-3.54,1.67-1.33,3.91-3.3,5.75-5.78-.48-.41-3.5-2.86-5.95-4.18l1.87-2.89c2.55,1.46,5.2,3.64,5.95,4.25,1.46-2.52,3.54-7.21,3.57-10.37l3.6,1.53c.65,.27,.75,.48,.75,.65,0,.51-.65,.68-1.05,.75Z"/>
  <path d="M198.49,88.56l-2.58-2.82c2.01-.51,5.34-1.36,7.55-3.91,2.01-2.35,2.58-5.54,2.58-7.62,0-4.86-3.6-7.14-5.27-7.96-2.04-1.02-3.37-.99-4.66-.99-.58,4.15-1.39,10.2-4.25,16.49-.65,1.39-2.35,5.07-4.28,5.07-1.29,0-2.31-.65-2.89-1.16-1.29-1.05-4.15-4.05-4.15-9.15,0-2.48,.71-6.29,3.71-9.35,4.73-4.79,9.18-4.79,11.15-4.79,3.09,0,7.31,.54,10.68,4.25,2.01,2.21,3.06,5.13,3.06,8.13,0,8.36-5.92,12.51-10.64,13.8Zm-6.36-22.91c-2.89,.48-8.57,4.01-8.57,10.88,0,3.03,1.87,6.22,3.3,6.22,1.19,0,2.07-2.04,2.48-2.96,2.45-5.71,3.47-11.39,3.67-14.24-.31,.03-.58,.07-.88,.1Z"/>
  <path d="M235.48,74.75h-5.78c-.68,1.26-1.46,2.45-2.41,3.5h7.24c.95,0,5.13-.1,5.98-.14,.71-.03,1.09-.03,2.11-.1-.14,2.04-.17,3.84-.17,4.42v4.05c0,.71,.14,3.26,.2,4.18h-3.64c.07-.58,.07-.65,.1-1.43h-12.82c.03,.65,.03,.82,.07,1.36h-3.67c.1-1.33,.31-3.5,.31-5.44v-2.75c-2.65,2.14-5,3.06-6.49,3.6l-2.82-2.65c2.89-.75,8.26-2.18,12.41-8.6h-.65c-3.43,0-6.9,.07-10.33,.27v-3.2c3.71,.24,7.85,.27,10.33,.27h1.94c.54-1.63,.85-2.92,1.16-4.76l3.6,.92c.27,.07,.44,.17,.44,.37,0,.41-.58,.51-.78,.54-.31,.99-.54,1.7-.99,2.92h4.66c3.13,0,6.7-.07,10.33-.27v3.2c-3.6-.2-7.51-.27-10.33-.27Zm1.77-8.43v.48c0,.85,.03,1.9,.1,2.75h-3.33c.07-.99,.1-2.38,.1-3.23h-7.24c0,1.12,.03,2.14,.07,3.23h-3.33c.1-.75,.17-2.35,.17-3.23-1.16,0-5.17,.07-8.64,.27v-3.3c3.26,.17,3.88,.2,8.64,.24,0-.51-.03-2.24-.14-3.57l3.4,.31c.37,.03,.61,.1,.61,.37,0,.34-.41,.51-.71,.65-.07,.71-.07,.88-.07,2.28h7.24c0-1.12-.07-2.62-.14-3.6l3.47,.31c.27,.03,.58,.1,.58,.34,0,.37-.48,.61-.71,.71-.07,.82-.07,1.94-.07,2.21,4.93-.07,5.47-.07,8.53-.24v3.3c-3.33-.2-7.31-.27-8.53-.27Zm1.94,14.72h-12.95v5.44h12.95v-5.44Z"/>
  <path d="M260.06,87.23c-1.8,0-3.33-1.67-3.94-2.38-2.55-3.03-3.67-6.43-3.67-11.86,0-1.33,.07-1.94,.68-7.45,.03-.14,.07-.75,.1-.88l3.09,1.09c.68,.24,1.05,.37,1.05,.71,0,.31-.37,.48-.85,.71-.27,1.05-.78,3.09-.78,6.05,0,5.58,2.31,9.76,3.94,9.76s2.65-3.84,3.03-5.68l1.97,2.07c-.68,3.06-2.04,7.85-4.62,7.85Zm16.62-7.07c-.1-2.92-.82-5.78-2.07-8.43-1.77-3.71-2.55-4.66-3.2-5.44l3.09-1.46c3.5,4.25,5.75,11.15,5.95,14.18l-3.77,1.16Z"/>
  <path d="M306.78,69.21h-1.7v4.69c1.94-1.6,3.23-3.2,3.81-3.91l3.4,1.8c.17,.1,.24,.27,.24,.41,0,.44-.68,.41-1.02,.37-2.21,2.18-5.44,4.56-6.43,5.24v.68c0,.41,.07,2.14,.07,2.52,.03,1.29,.1,3.64,.1,6.36,0,1.77,0,3.5-4.39,3.5-.95,0-1.33-.1-1.84-.2l-2.14-3.57c1.02,.34,2.14,.71,3.57,.71s1.5-.54,1.5-2.18v-5.78c-1.67,.95-7.34,4.08-12.51,5.27l-3.03-3.3c1.84-.1,4.83-.27,10.2-2.69,2.28-1.02,4.18-2.14,5.34-2.89v-7.04h-4.93c-4.35,0-8.23,.2-10.27,.31v-3.3c2.18,.2,9.28,.27,10.27,.27h4.9c-.07-3.94-.07-4.11-.31-6.56l4.05,.48c.34,.03,.65,.1,.65,.41,0,.34-.31,.44-.88,.65-.17,1.7-.17,2.01-.31,5.03h1.67c3.33,0,6.66-.07,10-.27v3.3c-4.35-.27-9.35-.31-10-.31Z"/>
  <path d="M335.34,69.62c-.14-.61-.27-1.05-.75-2.07-1.56,.24-5.34,.61-7.17,.78-.51,.07-2.82,.24-3.3,.27-.34,.44-.51,.65-.85,.65s-.44-.44-.48-.65l-.41-2.79h2.45c1.33-3.03,1.67-4.52,1.9-5.47l3.5,.54c.2,.03,.58,.14,.58,.44,0,.34-.2,.41-.88,.65-.27,.34-1.05,1.97-1.26,2.31-.51,.92-.61,1.05-.88,1.46,1.87-.07,4.42-.17,5.61-.27-1.5-2.01-1.63-2.11-2.28-2.69l2.55-1.29c2.52,2.35,3.88,5.34,4.52,6.77l-2.86,1.36Zm-.75,20.5c-.68,.27-3.06,.34-3.84,.34l-1.22-3.26c1.63,.2,2.48,.31,2.99,.31,.85,0,.88-.2,.88-2.21v-2.11h-7c-.03,1.39-.07,3.3-.07,3.88,0,.54,.07,2.92,.07,3.4h-3.3c.2-1.97,.41-6.05,.41-8.09v-5.78c0-2.14-.07-4.73-.17-6.22,1.56,.14,2.52,.17,4.52,.17h4.25c1.67,0,3.54-.1,4.28-.17,0,1.02-.07,5.47-.07,6.39v5.51c0,.54,.07,4.96,.07,5.03,0,1.36-.31,2.24-1.8,2.82Zm-1.19-16.96h-7v2.48h7v-2.48Zm0,4.96h-7v2.58h7v-2.58Zm14.48-3.67h-4.32c-3.26,0-4.35-.31-4.35-3.4v-6.26c0-1.19,0-1.53-.14-4.52l3.81,.54c.17,.03,.51,.24,.51,.37,0,.34-.1,.37-.95,.88-.07,1.16-.14,1.94-.14,2.89v.85c3.47-.71,5.54-2.04,6.73-2.86l2.38,2.31c.07,.07,.17,.2,.17,.37s-.1,.51-.68,.51c-.14,0-.2,0-.85-.17-1.8,.99-4.25,2.14-7.75,2.62v2.04c0,.88,0,1.39,1.87,1.39h3.3c.95,0,1.19,0,1.7-.58,.41-.48,1.02-2.11,1.12-3.06l2.65,1.8c-1.05,4.05-2.21,4.25-5.07,4.25Zm.61,15.5h-4.73c-2.14,0-3.54-.03-4.25-1.05-.2-.37-.31-.65-.31-2.31v-6.83c0-1.36,0-1.73-.1-4.69l3.74,.44c.17,.03,.41,.1,.41,.44,0,.31-.14,.41-.82,.78-.07,.82-.14,1.84-.14,3.47,2.58-.41,5.07-1.19,6.94-2.69l2.28,2.28c.1,.1,.17,.17,.17,.34s-.14,.48-.48,.48c-.17,0-.34-.07-.78-.24-3.06,1.56-5.81,2.35-8.12,2.69v3.26c0,.75,.27,1.09,1.87,1.09h3.4c1.22,0,1.5-.44,1.7-.71,.24-.41,.71-1.63,.95-3.06l2.55,1.84c-.65,4.45-2.55,4.49-4.28,4.49Z"/>
  <path d="M385.22,74.86c-.17,0-.92-.1-1.29-.14-1.8,.44-1.97,.51-6.26,2.24,.03,.99,.03,5.47,.07,6.36l-3.67,.24c.14-1.09,.34-2.75,.48-5.24-2.11,1.05-3.37,1.8-4.49,2.96-.78,.82-1.36,2.01-1.36,2.92,0,2.62,3.77,2.92,6.56,2.92,1.77,0,5.17-.27,7.72-1.02l-.99,3.5c-.27,0-.51,.03-2.52,.2-.78,.07-1.73,.14-3.2,.14-6.22,0-7.65-.82-8.91-1.9-1.16-.99-1.8-2.41-1.8-3.91,0-4.42,5.51-7.51,8.64-9.04-.31-.88-.71-2.04-2.52-2.04s-3.77,1.46-4.86,2.52c-1.46,1.43-2.48,3.03-3.23,4.32l-2.96-1.63c3.57-3.54,5.34-6.43,7.17-10-2.38,.27-3.4,.41-5.44,.51l-.54-3.23c.92,.07,1.84,.17,3.2,.17,1.7,0,2.96-.14,4.05-.24,.95-2.35,1.26-3.6,1.63-5.03l3.77,.54c.31,.03,.58,.2,.58,.54,0,.37-.07,.41-1.26,1.16-.54,1.12-.68,1.46-1.05,2.24,3.3-.58,5.2-1.16,7.24-1.9l-.34,3.23c-1.9,.48-6.15,1.22-8.26,1.5-.82,1.6-1.36,2.48-1.94,3.4,.68-.27,2.41-.85,3.64-.85s3.03,.75,3.84,2.55c.14,.31,.24,.68,.31,.95,4.42-1.84,4.59-1.9,6.15-2.72l2.21,2.82c.14,.17,.17,.34,.17,.48,0,.27-.2,.48-.54,.48Z"/>
  <path d="M12.54,129.25c-.17,.03-.88,.07-1.02,.1-.31,.37-.41,.51-1.43,1.9-.51,.71-.99,1.22-1.26,1.56,.07,.1,.41,.41,.48,.51,.03,.07,.07,.14,.07,.24s-.03,.2-.1,.27c-.1,.07-.51,.41-.58,.48-.1,1.7-.1,2.65-.1,3.67v6.7c0,.54-.03,4.35,.27,6.22h-3.5c.03-.34,.03-.61,.2-3.03,.03-.48,.1-2.58,.1-3.03v-9.01c-1.12,1.05-2.04,1.84-3.23,2.48l-2.45-2.14c2.04-1.16,6.66-3.84,10-9.83l2.55,1.94c.14,.1,.34,.34,.34,.58,0,.34-.2,.37-.34,.37Zm-1.9-6.43c-2.04,2.24-4.39,4.39-6.53,5.54l-2.62-2.21c3.71-1.73,5.95-4.28,7.38-6.15l2.65,2.14c.17,.14,.24,.24,.24,.41,0,.31-.17,.31-1.12,.27Zm18.6,14.69c-.17-.75-.27-.92-1.16-2.82-1.16,.2-5.27,.85-7.45,1.12-.24,.78-.44,1.26-.61,1.67h2.69c.99,0,1.5-.03,4.01-.37l1.73,1.67c-1.73,3.33-3.4,5.51-4.66,6.8,3.2,1.87,5.88,2.07,7.79,2.11l-1.39,3.23c-2.45-.41-5.3-1.09-8.64-3.37-3.64,2.48-7.21,3.06-9.21,3.37l-1.87-2.79c1.36-.07,5.34-.27,8.81-2.52-.82-.85-1.67-1.94-2.35-3.3-2.04,2.45-3.6,3.23-4.59,3.71l-2.72-2.41c3.43-1.39,6.29-3.98,7.68-7.38-2.92,.34-3.16,.34-4.28,.41-.07,.1-.31,.51-.37,.58-.1,.1-.24,.14-.31,.14-.27,0-.41-.2-.44-.44l-.37-2.96c.78-.03,4.28-.17,5-.24,1.33-1.43,1.46-1.56,1.77-1.9-1.05-1.36-2.04-2.72-5.95-5l2.01-2.35c.65,.34,.82,.41,2.11,1.33,1.84-2.48,2.01-2.86,3.4-5.75l3.3,1.9c.1,.07,.27,.2,.27,.41,0,.31-.37,.41-.54,.41h-.68c-1.97,2.69-2.38,3.3-3.64,4.62,.82,.78,.92,.88,1.94,2.01,1.12-1.22,3.57-4.69,4.76-6.7l3.2,1.94c.14,.1,.31,.34,.31,.54,0,.41-.37,.48-.61,.48-.14,0-.75-.07-.85-.07-.51,.51-.65,.58-1.6,1.87-.41,.51-3.13,3.88-3.84,4.73-.44,.54-.82,.92-1.09,1.19,.51-.07,4.62-.51,6.09-.78-.95-1.29-1.56-1.97-1.9-2.38l2.35-1.5c2.01,2.01,3.6,4.45,4.56,7.14l-2.62,1.67Zm-10.33,2.48c.51,1.16,1.22,2.48,2.58,3.81,1.5-1.53,2.35-3.13,2.69-3.81h-5.27Z"/>
  <path d="M44.4,138.26v8.29c0,2.35-.03,4.52-5.68,4.35l-1.67-3.54c1.29,.31,2.58,.41,2.99,.41,1.12,0,1.22-.68,1.22-1.6v-6.43c-1.84,.78-2.18,.92-2.79,1.19-.2,.44-.27,.65-.54,.65-.24,0-.37-.17-.41-.34l-.85-3.54c.92-.27,2.04-.65,4.59-1.53v-6.8h-.61c-1.22,0-2.41,.07-3.6,.31v-3.37c1.22,.24,3.06,.31,3.6,.31h.58c-.07-3.91-.14-4.73-.27-6.66l3.71,.34c.1,0,.54,.03,.54,.41,0,.31-.17,.41-.71,.71-.03,.99-.03,1.33-.03,1.63-.03,.65-.07,3.13-.07,3.57,1.12-.03,2.41-.1,3.47-.31v3.37c-1.09-.2-1.67-.24-3.47-.31v5.54c1.29-.54,2.38-1.05,3.47-1.6v2.99c-.82,.48-1.67,.99-3.47,1.94Zm21.93-11.02v9.15c0,1.53,.03,2.96,.14,5h-3.43c0-1.02,.03-1.33,.07-1.77h-4.05v4.32c0,.37,.03,1.8,.07,2.65,.03,1.26,.07,2.99,.1,4.11h-3.5c.03-1.43,.17-6.43,.17-6.8v-4.28h-4.08c.03,.58,.07,.85,.1,1.84h-3.3c.14-2.82,.2-5.17,.2-6.97v-7c0-2.69-.1-4.69-.24-6.15,1.5,.14,4.08,.17,5.64,.17h5.98c1.29,0,4.96-.1,6.29-.2-.1,1.33-.17,4.59-.17,5.95Zm-10.44-3.16h-4.08v4.79h4.08v-4.79Zm0,7.68h-4.08v4.86h4.08v-4.86Zm7.28-7.68h-4.11v4.79h4.11v-4.79Zm0,7.68h-4.11v4.86h4.11v-4.86Z"/>
  <path d="M94.31,146.01c-2.62,2.24-6.12,3.03-7.85,3.03-2.01,0-4.39-.82-5.98-2.72-1.53-1.84-1.67-3.43-1.67-6.43,0-1.73,.31-9.35,.31-10.91,0-2.21-.07-5.61-.37-7.72l3.88,.54c.82,.1,1.16,.17,1.16,.61,0,.31-.1,.37-1.02,.99-.1,.82-.2,1.73-.31,3.06-.17,2.52-.41,10.95-.41,12.31,0,3.23,.14,4.18,.92,5.24,1.02,1.43,2.86,1.94,3.94,1.94,1.67,0,4.42-.88,6.29-3.03,2.31-2.58,3.23-5.27,3.67-6.53l2.65,2.48c-1.29,2.69-2.92,5.2-5.2,7.14Z"/>
  <path d="M130.97,127.99c-2.18,0-2.99,.07-4.32,.17-.07,.75-.24,4.05-.27,4.73,.61,1.22,1.5,2.96,1.5,5.61,0,1.26-.34,7.58-5.51,12.48l-3.88-1.56c.85-.41,2.01-.99,3.23-2.41,1.53-1.77,1.9-3.3,2.18-4.35-.61,.41-1.29,.85-2.58,.85-3.3,0-4.76-3.13-4.76-5.64,0-2.89,1.9-6.49,5.37-6.49,.61,0,1.36,.07,1.6,.1,.03-.92,.03-1.12,.03-3.06-2.41,.03-9.45,.44-13.63,1.19l-.37-3.54c.92,.03,1.16,.07,2.18,.07,1.22,0,6.6-.2,7.68-.24,1.53-.03,2.38-.03,4.05-.07,0-1.5-.03-3.43-.41-5.51l3.64,.17c.54,.03,1.29,.03,1.29,.58,0,.24-.24,.41-.34,.48-.34,.27-.37,.31-.68,.54-.14,.88-.17,1.16-.24,3.54,1.53,0,7.41-.24,10.47-.85l.14,3.47c-3.03-.24-5.61-.24-6.36-.24Zm-8.98,6.32c-1.43,0-2.41,1.6-2.41,3.5,0,2.18,1.36,2.89,2.04,2.89,2.18,0,2.52-2.21,2.52-3.37,0-1.94-1.02-3.03-2.14-3.03Z"/>
  <path d="M159.36,149.14c-2.92,0-7.07-1.33-7.07-4.59,0-2.79,2.79-4.52,5.37-4.52,1.56,0,3.54,.61,5.24,2.11,.92,.82,1.36,1.56,1.77,2.24,.85-.65,2.65-2.01,2.65-4.76,0-.48-.1-2.75-1.5-4.11-1.36-1.33-3.37-1.46-4.25-1.46-2.41,0-4.83,.95-6.7,2.28-1.5,1.05-2.65,2.28-5.27,5.1l-2.82-2.24c3.33-2.48,10.47-9.72,13.67-13.97-2.24,.48-3.33,.71-5.64,1.02-.65,.07-3.47,.34-4.05,.41l-.71-3.3c.58,.07,1.19,.14,2.24,.14,4.52,0,10.23-1.16,12.1-1.9l2.04,2.38c-1.63,1.02-2.01,1.39-3.77,3.2-2.38,2.41-2.79,2.86-4.66,5.13,.95-.44,2.28-1.05,4.35-1.05,5,0,8.26,3.91,8.26,7.82,0,5.61-5.13,10.1-11.25,10.1Zm1.22-5.34c-.68-.58-1.9-.95-2.92-.95-1.7,0-2.41,.95-2.41,1.56,0,1.29,2.04,1.97,4.01,1.97,1.36,0,2.07-.24,2.69-.44-.31-.68-.65-1.53-1.36-2.14Z"/>
  <path d="M203.96,129.86c-1.8,5.92-2.62,8.46-5.78,12.48-2.96,3.71-6.77,6.7-11.25,8.19l-3.09-2.89c10.3-2.45,15.6-11.39,16.62-18.46h-12.31c-1.5,0-4.45,.07-6.97,.37v-3.54c1.39,.34,5.44,.34,7.04,.34h6.94c.68,0,4.45-.03,5.07-.14,.68-.1,.71-.14,1.7-.78l3.03,2.48c-.48,.48-.71,.99-.99,1.94Zm3.37-3.2c-2.04,0-3.67-1.63-3.67-3.67s1.63-3.71,3.67-3.71,3.71,1.67,3.71,3.71-1.67,3.67-3.71,3.67Zm-.03-5.3c-.88,0-1.6,.71-1.6,1.6s.71,1.7,1.67,1.7,1.6-.82,1.6-1.67c0-.92-.75-1.63-1.67-1.63Z"/>
  <path d="M238.54,146.69c.14-.71,.14-.85,.24-2.04h-16.56c0,.51,0,1.39,.07,1.97h-3.88c.1-.88,.27-2.35,.27-4.42,.03-3.3,.03-3.67,.03-4.05v-7.07c0-1.05-.1-6.26-.17-7.14,2.01,.2,6.26,.27,8.36,.27h7.31c2.41,0,6.02-.03,8.36-.17-.14,1.77-.2,5.78-.2,7.68v6.73c0,.68,.1,3.6,.1,4.22,.03,2.41,.17,3.23,.31,4.01h-4.25Zm.37-19.34h-16.73v14.28h16.73v-14.28Z"/>
  <path d="M260.74,135.03c-1.02-.71-1.53-1.05-3.74-2.01-2.45-1.05-3.13-1.29-3.91-1.56l1.46-2.89c.92,.37,5.2,2.11,7.68,3.84l-1.5,2.62Zm-2.04,13.73c-.03,.41-.1,1.22-.71,1.22-.1,0-.37-.1-.58-.34l-2.55-3.33c1.84-.51,5.51-1.53,11.66-6.46,5-3.98,7.51-7.17,9.86-10.71l2.07,2.82c-4.9,7.82-15.2,14.92-19.75,16.79Zm5.88-21.79c-2.28-1.84-5.71-3.2-7.79-3.81l1.39-2.82c2.99,1.19,5.68,2.58,7.85,3.91l-1.46,2.72Zm10.54-1.19c-.88-.92-1.87-1.87-3.71-3.03l1.53-1.67c1.26,.68,2.92,1.63,3.88,2.96l-1.7,1.73Zm3.64-2.48c-.31-.27-3.6-2.79-4.05-3.09l1.73-1.77c1.77,1.22,1.97,1.39,4.01,3.09l-1.7,1.77Z"/>
  <path d="M308.24,149.31h-12.41c-.71,0-2.69,.03-4.35,.2v-2.65c1.63,.07,3.26,.1,4.9,.1h4.25v-12.34h-3.06c-1.26,0-3.64,.17-4.35,.24v-2.75c2.65,.1,4.22,.14,4.9,.14h7.89c1.05,0,3.26-.1,4.73-.14v2.75c-1.5-.1-3.13-.24-4.22-.24h-2.99v12.34h4.18c.68,0,2.79,0,5.03-.1v2.65c-1.46-.17-2.99-.2-4.49-.2Z"/>
  <path d="M348.43,128.81c-2.69,7.82-6.7,16.22-16.32,21.32l-3.03-2.45c2.58-1.12,6.53-2.89,10.57-8.19,3.81-5.03,4.73-9.15,5.17-11.19h-10.4c-1.67,2.58-3.6,5.27-6.7,8.02l-2.79-1.97c.95-.75,3.33-2.55,5.98-6.56,1.22-1.9,2.89-4.62,3.3-6.6l3.71,1.63c.24,.1,.48,.24,.48,.48,0,.34-.41,.54-.54,.58-.44,.14-.58,.1-.99,.51-.41,.41-.37,.54-.88,1.39h5.37c4.11,0,4.62-.2,5.54-.68l2.52,2.65c-.54,.58-.58,.61-.99,1.05Z"/>
  <path d="M381.95,140.98c-1.84-1.84-4.9-4.9-10.06-7.04v5.64c0,2.01,.14,7.96,.37,9.69h-4.11c.24-1.7,.27-4.28,.27-5,.03-.78,.14-4.22,.14-4.93v-8.87c0-1.33-.1-4.96-.2-6.22-.07-.88-.17-1.5-.34-2.24l4.52,.31c.2,0,.65,.07,.65,.51,0,.34-.37,.58-1.12,1.02-.14,2.11-.17,4.22-.17,6.29v3.77l1.6-3.03c4.69,2.14,9.25,5.58,10.71,7.41l-2.24,2.69Z"/>
</svg>