<?xml version="1.0" encoding="UTF-8"?>
<svg id="Isolation_Mode" data-name="Isolation Mode" xmlns="http://www.w3.org/2000/svg" viewBox="0 0 35.88 473.63">
  <defs>
    <style>
      .cls-1 {
        fill: #aa1e14;
      }
    </style>
  </defs>
  <path class="cls-1" d="M19.85,455.78h16.03s0-.54,0-.54l-12.66-4c-.26-.08-.33-.4-.15-.59l7.55-7.55-.37-.37-8.91,4.63,1.1,3.5c.04,.13,0,.27-.09,.36l-3.12,3.12c-.06,.06-.14,.06-.21,0-.27-.21-.59-.34-.94-.37-.08,0-.15-.07-.15-.15v-15.98s-.54,0-.54,0l-4,12.66c-.08,.26-.4,.33-.59,.15l-7.55-7.55-.37,.37,4.63,8.91,3.29-1.04c.25-.08,.53-.01,.72,.18l3.02,2.92c.06,.05,.06,.14,0,.2-.2,.26-.34,.57-.37,.9,0,.08-.07,.14-.15,.14H0s0,.54,0,.54l12.66,4c.26,.08,.33,.4,.15,.59l-7.55,7.55,.37,.37,8.91-4.63-1.1-3.5c-.04-.13,0-.27,.09-.36l3.12-3.12c.06-.06,.14-.06,.21,0,.27,.21,.59,.34,.94,.37,.08,0,.15,.07,.15,.15v15.98s.54,0,.54,0l4-12.66c.08-.26,.4-.34,.59-.15l7.55,7.55,.37-.37-4.63-8.91-3.29,1.04c-.25,.08-.53,.01-.72-.18l-3.02-2.92c-.06-.05-.06-.14,0-.2,.2-.26,.34-.57,.37-.9,0-.08,.07-.14,.15-.14Zm-1.78,.7c-.41,.07-.8-.2-.87-.61s.2-.8,.61-.87,.8,.2,.87,.61-.2,.8-.61,.87Z"/>
  <g>
    <g>
      <path class="cls-1" d="M18.69,18.93H8.04v-2.87l2.58-.31c-1.9-1.09-3.13-3.29-3.13-5.97C7.49,3.13,12.33,0,17.88,0s10.41,3.07,10.41,9.74c0,3.97-2.03,7.17-5.8,8.8l-1.34-3.21c2.74-.93,3.97-3.04,3.97-5.61,0-4.27-3.36-6.11-7.1-6.11-4.01,0-7.29,1.84-7.29,6.17,0,3.16,1.74,5.39,5.03,5.5v-4.44h2.93v8.1Z"/>
      <path class="cls-1" d="M17.88,37.7c5.5,0,10.39,3.07,10.39,9.74s-4.89,9.74-10.39,9.74-10.38-3.07-10.38-9.74,4.89-9.74,10.38-9.74Zm0,15.66c3.8,0,7.16-1.59,7.16-5.91s-3.36-5.91-7.16-5.91-7.17,1.59-7.17,5.91,3.36,5.91,7.17,5.91Z"/>
      <path class="cls-1" d="M27.96,62.08v7c0,3.07-1.4,6.46-5.44,6.46-1.84,0-3.33-1.1-3.94-2.24-.73,1.84-2.93,3.24-4.94,3.24-3.76,0-5.86-3.16-5.86-6.59v-7.87H27.96Zm-8.13,7.34c0,1.41,.5,2.79,2.49,2.79,1.57,0,2.37-1.34,2.37-3.07v-3.43h-4.86v3.71Zm-8.6,.59c0,1.87,.9,2.96,2.8,2.96,1.44,0,2.67-1.2,2.67-3.1v-4.16h-5.47v4.3Z"/>
      <path class="cls-1" d="M27.96,101.51v3.63H11.2v6.67h-3.43v-10.29H27.96Z"/>
      <path class="cls-1" d="M27.96,24.53v3.63H11.2v6.67h-3.43v-10.29H27.96Z"/>
    </g>
    <g>
      <path class="cls-1" d="M28.01,161.5H7.83v-3.63l14.18-8.46H7.83v-3.49H28.01v3.6l-14.11,8.49h14.11v3.49Z"/>
      <path class="cls-1" d="M28.01,167.74v3.63H7.83v-3.63H28.01Z"/>
      <path class="cls-1" d="M28.01,197.96H7.83v-3.49h15.07l-13.31-5v-3.51l13.31-5H7.83v-3.49H28.01v4.89l-14.36,5.36,14.36,5.36v4.89Z"/>
      <path class="cls-1" d="M28.01,204.08v13.04h-3.33v-9.41h-6.02v7.69h-3.33v-7.69h-4.08v9.8h-3.43v-13.43H28.01Z"/>
      <path class="cls-1" d="M7.83,137.91v3.91l20.18-8.04v-2.71l-20.18-8.09v3.96l3.16,1.17v8.63l-3.16,1.16Zm14.86-5.47l-8.39,3.09v-6.2l8.39,3.11Z"/>
      <path class="cls-1" d="M7.78,93.75v3.91l20.18-8.04v-2.71l-20.18-8.09v3.96l3.16,1.17v8.63l-3.16,1.16Zm14.86-5.47l-8.39,3.09v-6.2l8.39,3.11Z"/>
    </g>
    <g>
      <path class="cls-1" d="M17.98,229.08c5.53,0,10.41,3.1,10.41,9.74,0,4-2.03,7.2-5.8,8.83l-1.34-3.39c2.66-.76,3.69-2.84,3.69-5.47,0-4.27-3.07-6.11-6.81-6.11-4.01,0-7.09,1.84-7.09,6.17,0,2.6,1.03,4.39,3.74,5.47l-1.37,3.36c-3.77-1.6-5.81-4.81-5.81-8.83,0-6.64,4.84-9.77,10.38-9.77Z"/>
      <path class="cls-1" d="M28.06,251.49v3.63h-9.33v8.84h9.33v3.63H7.88v-3.63h7.52v-8.84H7.88v-3.63H28.06Z"/>
      <path class="cls-1" d="M28.06,292.96v3.63H11.3v6.67h-3.43v-10.29H28.06Z"/>
      <path class="cls-1" d="M28.06,306.91v3.63H11.3v6.67h-3.43v-10.29H28.06Z"/>
      <path class="cls-1" d="M28.06,321.12v13.04h-3.33v-9.41h-6.02v7.69h-3.33v-7.69h-4.08v9.8h-3.43v-13.43H28.06Z"/>
      <path class="cls-1" d="M28.06,355.03H7.88v-3.63l14.18-8.46H7.88v-3.49H28.06v3.6l-14.11,8.49h14.11v3.49Z"/>
      <path class="cls-1" d="M18.79,378.31H8.14v-2.87l2.58-.31c-1.9-1.09-3.13-3.29-3.13-5.97,0-6.64,4.84-9.77,10.38-9.77s10.41,3.07,10.41,9.74c0,3.97-2.03,7.17-5.8,8.8l-1.34-3.21c2.74-.93,3.97-3.04,3.97-5.61,0-4.27-3.36-6.11-7.1-6.11-4.01,0-7.29,1.84-7.29,6.17,0,3.16,1.74,5.39,5.03,5.5v-4.44h2.93v8.1Z"/>
      <path class="cls-1" d="M28.06,383.34v13.04h-3.33v-9.41h-6.02v7.69h-3.33v-7.69h-4.08v9.8h-3.43v-13.43H28.06Z"/>
      <path class="cls-1" d="M7.88,285.65v3.91l20.18-8.04v-2.71l-20.18-8.09v3.96l3.16,1.17v8.63l-3.16,1.16Zm14.86-5.47l-8.39,3.09v-6.2l8.39,3.11Z"/>
    </g>
  </g>
</svg>