<?xml version="1.0" encoding="UTF-8"?>
<svg id="_デザイン" data-name="デザイン" xmlns="http://www.w3.org/2000/svg" viewBox="0 0 223.86 364.59">
  <g>
    <g>
      <path d="M151.61,36.85h-20.74v-5.59l5.03-.61c-3.7-2.11-6.09-6.4-6.09-11.63,0-12.93,9.43-19.02,20.22-19.02s20.27,5.98,20.27,18.97c0,7.73-3.95,13.96-11.29,17.13l-2.61-6.26c5.34-1.81,7.73-5.92,7.73-10.93,0-8.32-6.54-11.9-13.82-11.9-7.82,0-14.18,3.59-14.18,12.01,0,6.15,3.39,10.49,9.79,10.71v-8.65h5.7v15.77Z"/>
      <path d="M150.02,73.4c10.71,0,20.22,5.98,20.22,18.97s-9.51,18.97-20.22,18.97-20.22-5.98-20.22-18.97,9.51-18.97,20.22-18.97Zm0,30.48c7.4,0,13.93-3.09,13.93-11.51s-6.54-11.51-13.93-11.51-13.96,3.09-13.96,11.51,6.54,11.51,13.96,11.51Z"/>
      <path d="M169.66,120.87v13.63c0,5.98-2.73,12.57-10.6,12.57-3.59,0-6.48-2.14-7.68-4.37-1.42,3.59-5.7,6.31-9.62,6.31-7.31,0-11.4-6.15-11.4-12.82v-15.32h39.3Zm-15.82,14.3c0,2.75,.97,5.42,4.84,5.42,3.06,0,4.62-2.61,4.62-5.98v-6.67h-9.46v7.23Zm-16.74,1.14c0,3.64,1.75,5.76,5.45,5.76,2.81,0,5.2-2.34,5.2-6.04v-8.09h-10.65v8.37Z"/>
      <path d="M169.66,197.63v7.06h-32.62v12.98h-6.68v-20.04h39.3Z"/>
      <path d="M169.66,47.76v7.06h-32.62v12.98h-6.68v-20.04h39.3Z"/>
    </g>
    <g>
      <path d="M104.76,217.43h-39.3v-7.06l27.62-16.46h-27.62v-6.79h39.3v7.01l-27.48,16.52h27.48v6.79Z"/>
      <path d="M104.76,229.58v7.06h-39.3v-7.06h39.3Z"/>
      <path d="M104.76,288.41h-39.3v-6.79h29.34l-25.92-9.73v-6.84l25.92-9.73h-29.34v-6.79h39.3v9.51l-27.95,10.43,27.95,10.43v9.51Z"/>
      <path d="M104.76,300.34v25.38h-6.48v-18.32h-11.71v14.97h-6.48v-14.97h-7.95v19.08h-6.68v-26.14h39.3Z"/>
      <path d="M65.46,171.5v7.62l39.3-15.66v-5.28l-39.3-15.74v7.7l6.16,2.29v16.81l-6.16,2.27Zm28.92-10.65l-16.34,6.02v-12.07l16.34,6.05Z"/>
      <path d="M130.36,182.53v7.62l39.3-15.66v-5.28l-39.3-15.74v7.7l6.16,2.29v16.81l-6.16,2.27Zm28.92-10.65l-16.34,6.02v-12.07l16.34,6.05Z"/>
    </g>
    <g>
      <path d="M20.22,0c10.76,0,20.27,6.04,20.27,18.97,0,7.79-3.95,14.02-11.29,17.19l-2.61-6.59c5.17-1.47,7.18-5.53,7.18-10.65,0-8.32-5.98-11.9-13.27-11.9-7.82,0-13.79,3.59-13.79,12.01,0,5.06,2,8.54,7.29,10.65l-2.67,6.54C3.98,33.1,0,26.84,0,19.02,0,6.09,9.43,0,20.22,0Z"/>
      <path d="M39.85,43.63v7.06H21.69v17.22h18.16v7.06H.56v-7.06H15.19v-17.22H.56v-7.06H39.85Z"/>
      <path d="M39.85,124.38v7.06H7.23v12.98H.56v-20.04H39.85Z"/>
      <path d="M39.85,151.53v7.06H7.23v12.98H.56v-20.04H39.85Z"/>
      <path d="M39.85,179.2v25.38h-6.48v-18.32h-11.71v14.97h-6.48v-14.97H7.23v19.08H.56v-26.14H39.85Z"/>
      <path d="M39.85,245.22H.56v-7.06l27.62-16.46H.56v-6.79H39.85v7.01l-27.48,16.52h27.48v6.79Z"/>
      <path d="M21.8,290.55H1.07v-5.59l5.03-.61c-3.7-2.11-6.09-6.4-6.09-11.63,0-12.93,9.43-19.02,20.22-19.02s20.27,5.98,20.27,18.97c0,7.73-3.95,13.96-11.29,17.13l-2.61-6.26c5.34-1.81,7.73-5.92,7.73-10.93,0-8.32-6.54-11.9-13.82-11.9-7.82,0-14.18,3.59-14.18,12.01,0,6.15,3.39,10.49,9.79,10.71v-8.65h5.7v15.77Z"/>
      <path d="M39.85,300.34v25.38h-6.48v-18.32h-11.71v14.97h-6.48v-14.97H7.23v19.08H.56v-26.14H39.85Z"/>
      <path d="M.56,110.14v7.62l39.3-15.66v-5.28L.56,81.08v7.7l6.16,2.29v16.81l-6.16,2.27Zm28.92-10.65l-16.34,6.02v-12.07l16.34,6.05Z"/>
    </g>
  </g>
  <g>
    <path d="M220.84,263.12l.94-.89c.82,.83,1.41,1.49,2.07,2.51l-1.03,.91c-.6-.98-1.27-1.81-1.99-2.53Zm-2.13,1.02l.92-.89c.82,.75,1.35,1.35,2.11,2.47l-.98,.93c-.72-1.12-1.19-1.62-2.05-2.51Zm-9.09,15.25c5.01-2.45,7.94-6.58,9.11-11.27-2.07,.06-4.16,.08-5.73,.1-1.15,2.01-2.51,3.82-4.1,5.19l-1.69-.93c2.75-2.45,4.68-5.42,5.83-8.84l1.83,.48c-.3,.81-.62,1.6-.98,2.39,1.65-.02,3.58-.06,5.85-.15l1.13,.95c-1.55,6.47-4.5,10.52-9.61,13.43l-1.63-1.35Z"/>
    <path d="M207.96,287.09c4.48-.04,8.94-.06,13.43-.1-.08,4.25-.06,9.1-.02,13.35h-1.89c0-.46,.02-1.29,.02-1.77l-9.61,.06c0,.46,.02,1.29,.02,1.73h-1.87c.04-4.23,0-9.04-.08-13.27Zm1.91,9.77l9.65-.06c.02-2.45,.04-5.15,.02-8.03-3.26,.02-6.49,.04-9.73,.08l.06,8.01Z"/>
    <path d="M213.76,305.67h1.79v16.48h-1.79v-16.48Z"/>
    <path d="M220.68,326.86l1.07-.73c.74,.93,1.27,1.85,1.77,2.99l-1.11,.73c-.46-1-1.03-2.1-1.73-2.99Zm-1.99,1.1l1.07-.73c.66,.91,1.15,1.76,1.73,3.03l-1.13,.77c-.54-1.25-.98-2.01-1.67-3.07Zm-3.08,1.43l1.59-.91c1.93,3.07,3.96,8.28,5.29,12.58l-1.75,1c-1.17-4.34-3.08-9.4-5.13-12.66Zm-9.47,11.89c3-3.55,3.88-7.93,4.36-12.24l1.79,.31c-.62,4.54-1.49,9.05-4.4,12.83l-1.75-.89Z"/>
    <path d="M215.21,362.68c.08-4.65,.08-9.09,0-13.63h1.81c-.04,4.11-.04,8.2-.02,12.27,2.07-1.08,4.32-3.3,5.87-6.52l.88,1.81c-1.73,3.3-4.32,5.69-7.22,7.06l-1.33-.98Zm-9.47,.42c3.48-2.59,4.8-6.43,4.4-13.43h1.79c.32,7.87-1.07,11.64-4.42,14.4l-1.77-.98Z"/>
    <path d="M176.89,321.21c2.21-1.49,3.42-2.99,4.12-4.69,.46-1.08,.74-2.43,.74-3.78,0-.46-.02-.93-.1-1.72h1.83c.06,.87,.06,1.29,.06,1.76,0,.39-.02,.81-.06,1.25,2.39-1.18,3.86-2.84,4.74-4.67-4.26,.1-9.65,.21-13.01,.21l-.02-1.78c4.84,0,9.89-.06,14.15-.15l1.09,1.14c-1.19,2.66-2.85,5.06-5.79,6.58l-1.21-1.04c-.12,1.02-.36,2.05-.66,2.84-.84,2.08-2.21,3.8-4.2,5.19l-1.69-1.14Z"/>
    <path d="M176.58,329.8c4.3,.02,6.57,0,11.68-.12l.04,1.81c-5.23,.06-7.56,.08-11.7,.12l-.02-1.81Zm-2.07,8.88c5.71-.02,10.83-.06,16.16-.15l.04,1.83c-5.19,.02-10.07,.06-16.18,.15l-.02-1.83Z"/>
    <path d="M175.04,363.13c3.02-1.72,5.43-4.21,7.2-7.14-1.65-1.18-3.34-2.12-5-2.88l.86-1.41c1.61,.75,3.3,1.68,4.97,2.8,1.09-2.12,1.85-4.42,2.29-6.81l1.83,.66c-.64,2.61-1.55,5.02-2.67,7.18,1.57,1.22,3.08,2.59,4.36,4.19l-1.19,1.41c-1.23-1.54-2.57-2.88-4.04-4.07-1.83,3.05-4.18,5.52-7.02,7.31l-1.59-1.25Z"/>
    <path d="M145.7,279.45c3.24-1.99,4.48-4.63,4.64-7.53-2.73,.04-5.23,.04-7.7,.06l-.02-1.74c2.55,.04,5.05,.02,7.74-.02v-3.71c-1.67,.33-3.34,.6-4.66,.77l-1.23-1.49c4.12-.48,8.06-1.33,10.33-2.35l1.57,1.22c-1.11,.56-2.63,1.04-4.26,1.45l.02,4.09c1.99-.04,4.1-.1,6.43-.19l.04,1.78c-2.35,.04-4.48,.08-6.49,.1-.14,3.44-1.65,6.56-4.66,8.53l-1.75-.98Z"/>
    <path d="M148.73,291.88c-1.43,.37-2.79,.71-4.04,1l-.48-1.56c1.37-.31,2.75-.62,4.16-.95-.36-1.43-.66-2.7-.94-3.8l1.57-.37,.9,3.8c1.87-.46,3.8-.95,5.85-1.49l1.27,1.02c-.9,2.24-1.45,3.3-2.79,4.9l-1.63-.58c1.11-1.1,2.01-2.49,2.49-3.65-1.51,.42-3.16,.87-4.82,1.31l1.87,7.53-1.59,.42c-.68-2.82-1.29-5.35-1.81-7.55Z"/>
    <path d="M145.94,320.98c.04-4.96,.06-9.73,.02-14.69h1.85c-.04,4.59-.06,8.99-.04,13.55,3.74-1.45,7.1-4.4,9.41-8.22l.9,1.93c-2.67,3.9-6.17,6.83-10.83,8.49l-1.31-1.06Z"/>
    <path d="M143.83,330.22l1.04-1.56c1.67,.89,2.91,1.7,4.62,3.09l-1.13,1.62c-1.51-1.35-3.04-2.39-4.54-3.15Zm.76,10.63c5.53-1.47,9.55-4.81,12.18-10.52l1.33,1.78c-2.89,5.48-6.49,8.86-12.54,10.58l-.97-1.85Z"/>
    <path d="M155.81,347.84l.97-.91c.84,.81,1.43,1.58,2.15,2.64l-1,.95c-.56-.91-1.29-1.89-2.11-2.68Zm-2.35,.91l.94-.93c.82,.79,1.47,1.54,2.19,2.64l-.99,.98c-.76-1.18-1.31-1.87-2.15-2.68Zm-7.82,1.68l.98-1.51c1.47,.77,2.75,1.58,4.12,2.76l-1.17,1.51c-1.37-1.22-2.53-2.01-3.94-2.76Zm-1.03,12.33c4.9-1.2,9.33-4.01,12.26-10.92l1.39,1.74c-3.24,6.74-7.48,9.57-12.84,11l-.8-1.83Zm-1.71-7.91l.92-1.56c1.59,.77,2.77,1.49,4.16,2.66l-1.09,1.58c-1.41-1.2-2.71-2.01-4-2.68Z"/>
  </g>
</svg>