<?xml version="1.0" encoding="UTF-8"?>
<svg id="_デザイン" data-name="デザイン" xmlns="http://www.w3.org/2000/svg" viewBox="0 0 185.88 43.62">
  <defs>
    <style>
      .cls-1 {
        fill: #e60012;
      }

      .cls-2 {
        fill: #231815;
      }
    </style>
  </defs>
  <g>
    <path class="cls-2" d="M89.96,32.29c-.12,.05-.22,.08-.28,.18-.02,.04-.12,.05-.19,.06-.06,0-.12-.01-.17,0-.05,0-.11,.03-.15,.06-.12,.1-.25,.19-.33,.31-.09,.13-.25,.17-.35,.29-.02,.02-.05,.04-.09,.05-.12,.03-.23,.08-.34,.16-.06,.04-.15,.03-.23,.04-.1,.01-.2,0-.29,.04-.11,.04-.21,.05-.32,.03-.18-.03-.33,.02-.46,.13-.08,.07-.17,.08-.27,.1-.12,.02-.25,.05-.37,.06-.05,0-.11-.01-.18-.02-.06,.11-.13,.22-.13,.36,0,.09-.04,.11-.13,.09-.1-.02-.44,0-.47,.05-.09,.15-.22,.14-.38,.15-.11,0-.23,.04-.31,.11-.14,.1-.31,.08-.46,.12-.16,.04-.32,.05-.47,.14-.09,.06-.2,.06-.27,.16-.02,.03-.1,.02-.15,.03-.22,.05-.44,.1-.66,.15-.03,0-.06,.02-.07,.04-.08,.1-.2,.12-.31,.12-.22,.01-.44,0-.67,.01-.1,0-.21,0-.31-.01-.13-.02-.26-.04-.38-.07-.36-.08-.73-.16-1.08-.25-.18-.05-.35-.14-.53-.22-.03-.01-.06-.04-.1-.03-.15,0-.3-.01-.41-.13-.01-.01-.04,0-.06,0-.02,0-.04,.02-.05,.02-.13-.04-.26-.08-.38-.14-.13-.07-.25-.18-.38-.26-.12-.07-.2-.18-.29-.28-.03-.03-.06-.09-.1-.09-.21,0-.34-.17-.54-.21-.08-.02-.16-.08-.23-.14-.16-.15-.33-.26-.54-.35-.17-.07-.31-.18-.46-.29-.19-.14-.37-.29-.58-.4-.1-.05-.17-.14-.26-.22-.14-.12-.29-.25-.44-.36-.11-.09-.24-.15-.36-.23-.11-.08-.21-.16-.32-.24-.04-.03-.08-.07-.12-.08-.1-.02-.16-.08-.21-.16-.05-.09-.14-.14-.22-.2-.17-.12-.34-.22-.51-.33-.14-.09-.28-.18-.4-.28-.09-.07-.16-.17-.23-.26-.11-.12-.2-.25-.32-.34-.22-.16-.44-.31-.69-.42-.1-.04-.18-.14-.26-.23-.08-.08-.16-.17-.24-.26-.08-.1-.15-.2-.28-.23-.03,0-.05-.04-.08-.06-.11-.11-.21-.23-.37-.3-.03-.01-.07-.05-.08-.08-.06-.13-.18-.21-.3-.26-.12-.06-.23-.13-.31-.23-.21-.28-.49-.48-.76-.71-.11-.09-.22-.18-.29-.32-.04-.08-.15-.13-.23-.19-.03-.02-.07-.04-.09-.07-.18-.28-.46-.47-.69-.7-.17-.17-.42-.23-.6-.4-.03-.03-.07-.04-.1-.06-.13-.12-.26-.25-.4-.36-.17-.13-.35-.25-.52-.37-.05-.03-.1-.03-.14,0-.15,.12-.29,.24-.4,.4-.02,.03-.07,.06-.1,.08-.05,.04-.11,.07-.15,.11-.08,.07-.13,.16-.27,.15-.03,0-.08,.04-.09,.07-.05,.11-.15,.18-.23,.26-.08,.08-.14,.18-.21,.27-.06,.07-.12,.15-.19,.21-.15,.12-.28,.26-.39,.41,0,0-.01,.02-.02,.03-.19,.08-.22,.27-.3,.43-.03,.06-.06,.1-.12,.1-.17,.01-.24,.15-.35,.24-.05,.04-.1,.08-.16,.12-.07,.06-.15,.12-.22,.19-.06,.05-.12,.11-.18,.17-.01,.01-.03,.02-.04,.03-.18,.21-.45,.33-.62,.55-.02,.03-.05,.05-.08,.06-.06,.03-.08,.07-.09,.13-.02,.14-.13,.2-.26,.24-.06,.02-.13,.03-.19,.06-.09,.04-.16,.09-.2,.19-.03,.07-.09,.15-.15,.2-.08,.06-.18,.09-.24,.19-.01,.02-.05,.02-.08,.03-.1,.04-.19,.08-.28,.11-.06,.02-.12,.02-.19,.03-.07,0-.14,.02-.16,.1-.03,.09-.13,.09-.19,.12-.1,.06-.22,.09-.33,.14-.04,.02-.1,.02-.12,.05-.08,.09-.18,.1-.29,.13-.16,.04-.33,.1-.45,.23-.05,.05-.1,.1-.18,.12-.05,0-.09,.04-.12,.08-.07,.09-.16,.11-.26,.1-.14-.01-.24,.03-.35,.12-.1,.08-.24,.12-.37,.16-.07,.02-.12,.03-.17,.09-.06,.08-.14,.12-.25,.11-.12-.01-.24,.03-.36,.1-.11,.06-.26,.08-.39,.11-.07,.01-.13,.03-.18,.09-.03,.03-.08,.05-.13,.06-.09,.01-.18,.02-.27,.02-.14,0-.26,.03-.37,.1-.04,.03-.09,.05-.14,.07-.03,.01-.08,.01-.09,.04-.07,.13-.2,.12-.32,.16-.08,.03-.16,.08-.24,.13-.02,.01-.05,.04-.08,.04-.21,0-.38,.14-.58,.17-.2,.03-.41,.05-.62,.07-.06,0-.11,0-.17-.01-.13-.01-.25,0-.36,.07-.13,.08-.26,.06-.37,0-.12-.07-.24-.1-.38-.11-.04,0-.1-.01-.12-.04-.12-.11-.25-.12-.41-.1-.12,0-.25-.05-.38-.09-.05-.02-.1-.04-.15-.06-.05-.03-.11-.06-.16-.09-.03-.02-.05-.06-.08-.06-.18-.01-.31-.12-.47-.17-.03,0-.08-.02-.09-.04-.09-.13-.21-.17-.36-.17-.08,0-.12-.04-.14-.12-.05-.25-.06-.5,0-.76,.02-.08-.01-.17-.04-.26-.02-.09-.09-.14-.17-.19-.15-.1-.29-.21-.3-.42,0-.06-.04-.13-.07-.18-.09-.14-.09-.14-.06-.29,.09-.06,.17-.12,.25-.18-.03-.09-.01-.18,.07-.24,.09-.07,.07-.18,.11-.27,.02-.04,.02-.09,.04-.12,.1-.13,.12-.27,.12-.42,0-.07,0-.13,.02-.2,0-.03,.03-.06,.06-.1,.13,.12,.04,.35,.25,.42,.06-.1,.11-.19,.16-.28,.03-.05,.06-.11,.06-.17,0-.14,.06-.26,.11-.37,.04-.08,.04-.15-.02-.21-.06-.06-.04-.12,0-.19,.03-.07,.08-.09,.15-.08,.07,0,.11,.05,.11,.1,0,.17,.12,.27,.21,.39,.06,.09,.14,.09,.22,.02,.08-.07,.15-.14,.22-.21,.05-.06,.05-.13,0-.2-.02-.03-.04-.06-.07-.09,0,0,0-.01,0-.03,.24-.03,.45,.02,.63,.2,.03,.03,.06,.07,.09,.1,.09,.07,.13,.14,.1,.26-.03,.12,0,.15,.15,.21-.07-.17,.02-.29,.13-.4,.09-.09,.14-.08,.19,.03,.03,.05,.05,.1,.07,.15,.06,.12,.17,.18,.28,.23,.07,.03,.18,0,.26-.01,.08-.02,.15-.04,.23-.02,.03,0,.08-.03,.13-.06,.04,.02,.08,.04,.13,.06,.06-.03,.12-.1,.21-.03,0,0,.03,0,.05,0,.32-.09,.64-.1,.96-.08,.12,0,.24-.01,.35-.06,.11-.04,.2-.06,.32-.05,.08,0,.16,.01,.24-.01,.17-.05,.37-.04,.52-.15,.03-.02,.1,0,.17,0,0,0,.02-.04,.04-.04,.26-.05,.45-.27,.74-.27,.17,0,.35-.05,.46-.21,.02-.02,.04-.04,.07-.05,.13-.07,.27-.14,.4-.21,.04-.02,.08-.06,.13-.08,.07-.04,.15-.1,.23-.1,.25-.02,.46-.14,.67-.27,.05-.03,.11-.05,.17-.08,.07-.04,.13-.09,.2-.13,.17-.1,.3-.25,.46-.36,.06-.04,.15-.05,.22-.09,.11-.06,.25-.09,.32-.21,0,0,.02-.02,.03-.02,.2-.03,.3-.19,.44-.3,.03-.02,.06-.04,.09-.05,.02-.01,.06-.02,.08-.03,.08-.1,.18-.16,.3-.21,.08-.04,.15-.11,.23-.13,.16-.05,.28-.18,.46-.18,.05,0,.1-.04,.13-.07,.09-.1,.2-.18,.32-.27,.09-.06,.17-.12,.28-.14,.09-.02,.13-.07,.18-.15,.08-.13,.14-.26,.27-.37,.2-.17,.37-.37,.56-.55,.07-.07,.05-.14-.03-.22-.1-.08-.19-.19-.3-.24-.14-.07-.19-.2-.29-.29-.08-.07-.15-.17-.2-.27-.05-.08-.09-.15-.17-.2-.04-.02-.04-.1-.05-.15,0-.05,0-.1,0-.15,0-.08-.04-.14-.13-.18-.14-.06-.26-.14-.36-.27-.05-.06-.13-.1-.2-.15-.12-.08-.24-.15-.36-.23-.06-.04-.11-.09-.16-.14-.06-.05-.12-.12-.2-.16-.14-.09-.27-.21-.43-.26-.03,0-.05-.03-.07-.05-.07-.08-.15-.13-.26-.14-.09,0-.11-.08-.12-.14-.02-.2-.15-.36-.25-.53-.02-.03-.03-.07-.03-.11,.01-.11,.09-.15,.17-.07,.09,.09,.18,0,.27,.04,.04-.12,.02-.23-.03-.33-.09-.15,0-.27,.05-.39,.02-.06,.14-.08,.21-.12,.06-.03,.13-.07,.18-.11,.11-.09,.23-.17,.37-.2,.07-.01,.14-.03,.19-.07,.09-.08,.2-.08,.31-.08,.25,0,.49-.01,.74-.01,.08,0,.16,0,.24,.02,.03,0,.07,.03,.08,.05,.03,.07,.08,.1,.15,.13,.06,.02,.08,.07,.08,.13,0,.09,.04,.16,.1,.22,.04,.04,.06,.1,.08,.16,.02,.07,.03,.14,.05,.21,.02,.08,.08,.12,.17,.11,.1,0,.21,.04,.31-.04,.05-.04,.12-.01,.16,.05,.06,.07,.12,.15,.18,.22,.01,.02,.04,.04,.05,.04,.12-.01,.14,.08,.2,.15,.06,.07,.15,.12,.23,.17,.16,.1,.32,.2,.48,.29,.09,.05,.19,.1,.29,.14,.08,.03,.15,.06,.2,.14,.1,.14,.31,.21,.43,.17,.03,0,.06-.02,.08-.04,.08-.09,.17-.17,.24-.27,.1-.13,.17-.28,.31-.39,.01-.01,.03-.03,.03-.04,.02-.18,.17-.28,.24-.43,.1-.22,.29-.36,.47-.51,.02-.02,.05-.03,.06-.05,.1-.26,.27-.48,.41-.72,.05-.1,.12-.14,.23-.15,.12-.02,.13-.02,.12-.15,0-.08-.03-.16-.03-.24,0-.06,.02-.13,.03-.19,.02-.15,.05-.29,.14-.42,.03-.04,.03-.11,.03-.16,0-.08,.02-.15,.11-.19,.03-.01,.05-.06,.06-.09,.01-.13,.02-.26,.02-.4,0-.13-.07-.18-.21-.18-.24,0-.47,0-.71,0-.22,0-.45,.01-.67,.02-.22,0-.45,0-.67,0-.12,0-.25,.03-.37,.05-.16,.03-.31,.08-.47,.07-.09,0-.18,0-.27,.02-.03,0-.08,.01-.09,.04-.12,.14-.3,.12-.46,.14-.09,0-.18-.01-.28,0-.17,.02-.34,.03-.51,.12-.14,.07-.33,.06-.5,.08-.07,0-.14,0-.21,0-.07,0-.14,.01-.16,.09-.02,.06-.08,.08-.14,.08-.06,0-.13,0-.19,0-.12,0-.24,.02-.34,.1-.08,.06-.17,.08-.27,.09-.1,0-.2,.02-.31,.03-.02,0-.04,0-.05,.01-.21,.16-.47,.12-.71,.14-.11,.01-.22,.01-.33,.02-.03,0-.06,0-.08,.02-.14,.07-.27,.14-.4,.21-.02,.01-.02,.05-.04,.07-.07,.09-.15,.14-.28,.14-.07,0-.15,0-.22,0-.08,0-.15,.02-.19,.1-.04,.07-.11,.09-.19,.08-.05,0-.1,.01-.15,.01-.18-.01-.26,.14-.38,.22-.04,.02-.07,.07-.11,.07-.19,.04-.37,.11-.52,.24-.04,.04-.09,.07-.13,.1-.03,.02-.05,.06-.08,.06-.19,.04-.29,.18-.39,.31-.02,.02-.05,.04-.07,.04-.1,0-.21,.01-.31,0-.04,0-.1-.03-.11-.06-.06-.1-.14-.12-.25-.11-.11,0-.21,0-.28-.11-.05-.08-.14-.07-.22-.06-.13,.02-.25,0-.34-.11-.03-.04-.12-.05-.17-.05-.12,0-.18-.05-.25-.14-.07-.11-.09-.22-.06-.35,.03-.12,0-.15-.11-.21-.12-.06-.14-.18-.04-.25,.11-.07,.13-.16,.13-.27,0-.02,0-.03,0-.03,.17-.16,.33-.3,.48-.46,.03-.03,.05-.09,.05-.13,0-.1,.03-.16,.13-.21,.1-.06,.24-.1,.26-.25,.16-.07,.14-.22,.19-.34,.06-.16,.28-.28,.46-.26,.08,0,.12,0,.17-.06,.06-.08,.15-.15,.23-.21,.04-.03,.11-.03,.17-.03,.23,0,.47,0,.71,0,.11,0,.2-.02,.27-.12,.03-.04,.1-.06,.16-.08,.09-.03,.18-.04,.27-.05,.09-.01,.18-.03,.27-.04,.13-.01,.25-.04,.35-.11,.06-.04,.14-.06,.21-.06,.23-.02,.47-.02,.7-.03,.12,0,.24-.03,.37-.05,.01,0,.02,0,.03-.02,.07-.12,.19-.1,.31-.11,.26-.01,.51-.01,.75-.15,.08-.05,.2-.04,.3-.05,.13-.01,.26-.09,.4-.05,.02,0,.06-.01,.07-.03,.04-.08,.13-.07,.2-.08,.09-.01,.18-.02,.28-.03,.14,0,.24-.04,.34-.14,.17-.15,.38-.28,.64-.17,.02,.01,.06,0,.08,.01,.08,0,.16,.02,.25,.03,.06-.02,.14-.05,.22-.06,.2,0,.35-.09,.47-.23,.03-.04,.05-.1,.05-.15,0-.28,0-.55-.02-.83,0-.35-.02-.71-.02-1.06,0-.04,.01-.09,.04-.12,.07-.07,.07-.15,.07-.25,0-.12-.02-.24,.13-.32,.04-.02,.06-.1,.07-.16,.01-.09,.06-.13,.14-.17,.14-.07,.31-.1,.4-.24,.01-.02,.04-.03,.06-.03,.14-.04,.25-.12,.38-.19,.13-.07,.26-.14,.33-.27,.02-.04,.08-.06,.13-.07,.27-.03,.55-.04,.82-.02,.04,0,.08,.02,.11,.05,.08,.09,.19,.09,.3,.09,.27,0,.53,.01,.79,.01,.08,0,.15,0,.19,.08,0,.02,.03,.04,.05,.04,.11,0,.14,.1,.2,.15,.16,.11,.18,.29,.28,.42,.02,.03,.03,.07,.06,.08,.15,.06,.13,.19,.13,.3,0,.12,0,.22,.12,.29,.03,.02,.04,.07,.04,.1,.01,.12,.02,.23,.02,.35,0,.45,0,.91,0,1.36,0,.19,.04,.24,.24,.24,.09,0,.17,0,.26,0,.17-.01,.33,.06,.49,.09,.26,.05,.52,.02,.79,.03,.27,0,.55-.05,.82,.03,.04,.01,.08,0,.12,0,.13,0,.25-.01,.38,.07,.08,.05,.21,.05,.32,.06,.12,0,.23,.03,.34,.1,.07,.05,.17,.06,.26,.07,.16,.02,.31,.04,.46,.12,.08,.04,.18,.05,.28,.06,.15,.01,.29,.04,.43,.1,.08,.03,.16,.04,.25,.05,.13,.01,.25,.02,.38,.03,.05,0,.11,.01,.15,.04,.15,.12,.32,.11,.49,.11,.13,0,.26,0,.37,.1,.05,.05,.16,.06,.24,.06,.14,0,.26,.02,.36,.12,.03,.03,.09,.05,.14,.06,.15,.02,.29,.04,.42,.12,.06,.04,.14,.04,.22,.05,.15,.03,.31,.05,.46,.07,.15,.02,.31,.05,.46,.07,.06,.01,.12,.02,.16,.05,.09,.06,.18,.09,.29,.08,.02,0,.05,0,.07,0,.15,.09,.34,.13,.49,.22,.12,.08,.23,.11,.36,.13,.03,0,.06,.01,.09,0,.27-.06,.49,.07,.69,.21,.12,.09,.28,.12,.38,.25,.02,.02,.06,.03,.09,.04,.12,.04,.15,.07,.14,.19,0,.09-.02,.18-.02,.27,0,.08,.02,.14,.1,.19,.09,.05,.17,.13,.24,.21,.04,.05,.06,.13,.06,.2,0,.13-.02,.26-.02,.4,0,.09-.06,.13-.14,.14-.1,.02-.2,.04-.25,.15,0,0,0,.01-.01,.01-.19,0-.29,.18-.46,.21-.04,0-.08,.03-.12,.05-.04,.02-.09,.05-.13,.06-.13,.03-.18,.11-.15,.24,.03,.14,.03,.16-.13,.18-.09,.01-.17,.05-.23,.13-.05,.07-.11,.12-.18,.18-.03,.02-.07,.04-.1,.05-.08,.01-.16,.02-.24,.02-.03,0-.06,0-.08-.02-.31-.16-.63-.2-.97-.18-.06,0-.11-.02-.15-.06-.33-.33-.21-.28-.7-.28-.05,0-.1,0-.15,.01-.08,0-.14-.02-.18-.07-.02-.03-.04-.07-.07-.07-.27-.05-.46-.29-.74-.3-.11-.09-.25-.06-.37-.1-.06-.02-.13-.03-.17-.07-.11-.08-.24-.09-.37-.09-.14,0-.27,0-.41-.03-.05,0-.1-.06-.15-.1-.04-.03-.08-.07-.11-.1-.09,.04-.15,.07-.22,.1-.08,.03-.15,.04-.22-.04-.02-.02-.07-.04-.09-.03-.16,.06-.28-.05-.4-.11-.13-.06-.26-.11-.4-.14-.07-.02-.15-.06-.22-.09-.05-.02-.1-.05-.16-.06-.09-.03-.19-.06-.28-.09-.11-.04-.21-.03-.32,.02-.05,.02-.09,.04-.14,.04-.19,.02-.39,.02-.58,.07-.13,.04-.25,.13-.39,.17-.02,0-.04,.08-.04,.12,0,.09-.04,.16-.12,.21-.03,.02-.05,.06-.07,.09-.04,.06-.07,.12-.11,.18-.02,.04-.05,.08-.06,.12,0,.07-.04,.12-.1,.16-.04,.03-.06,.09-.07,.14-.02,.12-.02,.25-.15,.34-.03,.02-.03,.07-.04,.1-.04,.14-.05,.3-.13,.41-.11,.15-.17,.34-.3,.48,0,0-.01,0-.01,.01-.02,.17-.16,.27-.23,.41-.07,.14-.14,.27-.22,.41-.01,.03-.06,.03-.08,.06-.06,.06-.12,.13-.18,.2-.05,.06-.08,.14-.14,.19-.19,.18-.31,.4-.42,.64-.07,.14-.15,.28-.23,.41-.05,.08-.15,.13-.22,.21-.08,.09-.16,.18-.21,.28-.08,.14-.17,.27-.29,.39-.08,.08-.09,.16-.02,.25,.05,.06,.13,.11,.2,.15,.09,.05,.19,.09,.27,.17,.07,.07,.18,.11,.27,.17,.17,.11,.33,.23,.42,.42,.01,.02,.03,.05,.06,.06,.14,.08,.28,.14,.41,.23,.09,.06,.15,.15,.23,.22,.16,.12,.3,.27,.51,.31,.06,.01,.11,.06,.16,.09,.15,.1,.31,.19,.46,.29,.02,.01,.05,.04,.07,.04,.17,.03,.26,.16,.4,.25,.08,.05,.17,.08,.25,.13,.04,.02,.07,.05,.11,.08,.05,.04,.11,.08,.16,.11,.16,.11,.33,.21,.44,.38,.02,.03,.06,.07,.1,.07,.26,.04,.5,.15,.73,.27,.04,.02,.08,.02,.11,.04,.08,.04,.16,.09,.24,.13,.13,.07,.27,.15,.41,.21,.09,.04,.2,.03,.27,.13,0,.01,.04,.02,.06,.02,.14-.02,.25,.06,.34,.13,.15,.12,.33,.19,.5,.27,.1,.05,.22,.08,.31,.15,.17,.13,.38,.18,.57,.25,.04,.02,.09,.02,.13,.03,.04,.01,.08,.03,.1,.05,.06,.08,.14,.1,.24,.12,.19,.05,.24,.11,.23,.31,0,.14,.03,.19,.16,.24,.14,.06,.3,.09,.42,.17,.13,.08,.29,.1,.42,.18,.18,.1,.38,.13,.55,.23,.02,0,.03,.02,.05,.02,.19-.02,.33,.09,.49,.16,.09,.04,.18,.09,.27,.14,.01,0,.02,.02,.03,.02,.21,.02,.36,.18,.56,.25,.03,.01,.06,.03,.09,.05,.09,.06,.18,.09,.28,.12,.1,.03,.21,.07,.3,.13,.13,.08,.26,.17,.43,.19,.05,0,.1,.01,.13,.04,.11,.09,.25,.13,.37,.19,.2,.11,.42,.18,.63,.26,.05,.02,.09,.06,.14,.08,.07,.03,.13,.06,.2,.08,.08,.02,.14,.04,.19,.12,.04,.06,.12,.09,.18,.14,.18,.13,.39,.1,.6,.11,.05,0,.11-.01,.13,.01,.13,.14,.33,.11,.48,.18,.02,0,.03,.02,.05,.02,.12-.02,.22,.01,.33,.07,.1,.05,.24,.03,.35,.05,.17,.02,.34,.06,.51,.07,.47,.04,.93,.07,1.4,.09,.37,.01,.73,0,1.1,0,.22,0,.45,0,.67-.01,.1,0,.19,.02,.29,.02,.2,0,.41-.03,.61-.03,.62,0,1.25,0,1.87-.02,.25,0,.5-.03,.75-.05,.02,0,.05-.01,.07,0,.06,.02,.14,0,.15,.08,.01,.07-.05,.09-.09,.13-.08,.07-.16,.12-.28,.11-.09,0-.12,.05-.13,.12-.02,.18-.12,.31-.26,.41-.02,.02-.04,.04-.05,.06-.09,.2-.28,.25-.47,.26-.25,.02-.48,.11-.7,.2-.1,.04-.12,.09-.09,.2,.02,.09,.05,.17,.08,.25,.01,.04,.02,.07,.03,.12Zm-41.36-2.75s-.07,.02-.08,.04c-.02,.03,0,.07,0,.1,.02,.04,.05,.09,.08,.12,.06,.06,.18,.05,.23-.02,.04-.06,.02-.16-.05-.2-.05-.02-.11-.03-.18-.05Zm11.47-11.36c.11,.01,.15-.03,.17-.09,0-.02,0-.06-.03-.07-.02,0-.06,0-.07,.01-.03,.04-.04,.08-.07,.15Z"/>
    <g>
      <path class="cls-2" d="M119.57,19.76c.03-.22,.06-.45,.08-.67,.03-.28,.07-.56,.09-.84,.02-.35,.03-.7,.04-1.05,.01-.19,.04-.39,.05-.58,0-.06,0-.13-.01-.18-.06-.18-.05-.35-.02-.54,.03-.21,.02-.43,.02-.65,0-.02-.02-.06-.04-.07-.12-.08-.1-.2-.09-.31,.02-.27,.03-.54,.05-.81,0-.06,.02-.11,.03-.17,0-.05,.03-.1,.03-.15,0-.19,.13-.32,.33-.33,.11,0,.2-.03,.3-.1,.1-.07,.23-.13,.34-.18,.04-.02,.09-.02,.14-.01,.16,.03,.31,.08,.47,.12,.14,.04,.29,.08,.38,.2,.02,.02,.04,.04,.07,.05,.13,.04,.19,.13,.23,.24,.05,.13,.1,.27,.06,.42-.03,.11-.04,.22-.05,.32,0,.23-.01,.46,0,.69,0,.08,.04,.16,.08,.22,.07,.09,.06,.17,0,.25-.02,.04-.05,.08-.07,.12-.03,.07-.05,.14,0,.21,.05,.07,.04,.13,.01,.21-.03,.07-.05,.15-.05,.23-.01,.16-.02,.32-.02,.48,0,.09,.03,.18,.05,.27,.07,.21,.19,.25,.37,.12,.1-.07,.19-.14,.29-.2,.06-.04,.14-.05,.21-.08,0,0,.03,0,.04,0,.19-.09,.4-.17,.58-.27,.12-.07,.21-.18,.32-.27,.03-.03,.09-.05,.13-.05,.21,0,.36-.14,.52-.23,.04-.03,.09-.07,.14-.08,.17-.03,.28-.13,.37-.26,.05-.07,.1-.08,.18-.09,.08,0,.18-.01,.24-.06,.19-.13,.42-.16,.63-.22,.03,0,.07-.02,.1-.03,.07-.02,.12-.06,.13-.15,.03-.18,.15-.29,.32-.36,.05-.02,.1-.05,.15-.09,.08-.07,.15-.15,.22-.22,.13-.13,.24-.27,.25-.46,0-.06,.05-.12,.07-.17,.03-.08,.08-.15,.1-.24,.02-.08,.06-.13,.13-.18,.15-.11,.29-.22,.44-.32,.04-.03,.08-.06,.12-.06,.1,0,.18-.02,.25-.07,.13-.08,.27-.1,.42-.05,.1,.03,.19,.03,.29-.01,.11-.04,.25-.06,.37-.06,.22,0,.44,.02,.66,.03,.1,0,.19,.02,.26,.09,.02,.02,.06,.04,.09,.05,.24,.1,.47,.22,.68,.37,.05,.03,.12,.04,.18,.05,.12,.01,.24,.04,.35,.11,.15,.1,.32,.17,.47,.27,.09,.06,.18,.13,.26,.21,.09,.08,.17,.17,.27,.25,.06,.05,.09,.1,.09,.17,0,.08,.02,.16,0,.24-.01,.07-.04,.16-.09,.2-.14,.1-.11,.22-.09,.34,0,.05,.02,.09,.02,.13-.01,.17-.05,.21-.23,.21-.27,0-.41,.17-.53,.38-.02,.04-.04,.09-.07,.12-.18,.15-.36,.31-.59,.41-.12,.05-.22,.12-.31,.22-.13,.15-.3,.27-.52,.31-.03,0-.06,0-.09,.02-.24,.13-.47,.25-.71,.38-.04,.02-.08,.08-.08,.12-.01,.09-.06,.15-.14,.18-.02,0-.04,.03-.05,.04-.09,.16-.25,.23-.43,.28-.09,.03-.17,.08-.25,.11-.09,.03-.18,.06-.27,.06-.2,.01-.39,.05-.52,.21-.02,.03-.07,.04-.1,.06-.03,.02-.08,.02-.09,.04-.07,.13-.2,.12-.31,.11-.17,0-.34,0-.49,.11-.04,.02-.09,.03-.14,.03-.1,.01-.18,.06-.26,.12-.13,.09-.26,.23-.44,.24-.03,0-.07,.01-.08,.03-.09,.11-.23,.09-.35,.14-.2,.08-.4,.14-.61,.17-.08,.01-.16,.04-.24,.07-.09,.03-.19,.07-.28,.1-.1,.03-.2,.05-.3,.08-.01,0-.02,0-.04,0-.05,.01-.11,0-.14,.04-.15,.16-.42,.08-.55,.29-.13,.22-.36,.34-.57,.48-.03,.02-.06,.04-.09,.06-.06,.05-.08,.11-.05,.19,.04,.1,.1,.18,.21,.23,.16,.07,.27,.19,.37,.31,.1,.11,.17,.23,.32,.29,.06,.02,.08,.11,.13,.16,.07,.08,.13,.19,.22,.24,.18,.11,.31,.28,.52,.36,.07,.03,.12,.1,.17,.16,.1,.13,.18,.27,.38,.28,.05,0,.1,.06,.14,.1,.12,.1,.22,.24,.41,.26,.03,0,.06,.02,.08,.04,.17,.19,.39,.34,.53,.57,.02,.04,.07,.06,.11,.08,.1,.06,.21,.1,.32,.16,.04,.02,.06,.05,.09,.07,.02,.02,.04,.05,.07,.05,.17,.03,.29,.15,.44,.22,.04,.02,.07,.04,.1,.07,.02,.02,.04,.06,.06,.06,.25,.01,.36,.24,.56,.33,.03,.02,.06,.05,.09,.05,.23,0,.37,.17,.54,.28,.07,.05,.15,.09,.23,.12,.18,.05,.35,.11,.48,.25,.03,.04,.09,.06,.13,.08,.12,.06,.26,.1,.36,.19,.11,.1,.23,.13,.35,.18,.14,.05,.26,.13,.38,.22,.13,.1,.28,.12,.43,.15,.05,.01,.11,.04,.16,.06,.03,.01,.05,.03,.08,.04,.2,.03,.41,.06,.61,.09,.06,0,.11,.02,.15,.07,.05,.07,.13,.1,.22,.09,.1,0,.2,.01,.27,.11,.02,.03,.08,.05,.12,.06,.08,.02,.15,.02,.23,.03,.07,0,.15,0,.21,.03,.31,.17,.67,.09,.99,.18,.03,0,.06,0,.09,0,.34,.14,.71,.13,1.07,.15,.18,.01,.35,.01,.49,.16,.03,.04,.12,.03,.18,.03,.16,0,.32,0,.48-.01,.02,0,.04,0,.05,0,.18-.13,.4-.08,.6-.1,.19-.02,.38-.01,.57,0,.37,.02,.74,.02,1.11-.02,.05,0,.11,0,.16,0,.11,0,.21,0,.31-.05,.05-.03,.12-.04,.19-.05,.28-.01,.56-.01,.84-.03,.25-.02,.5-.05,.74-.08,.02,0,.04,0,.05-.01,.15-.16,.35-.1,.53-.14,.09-.02,.18-.05,.26-.09,.09-.05,.17-.1,.28-.09,.04,0,.07,0,.11-.01,.2-.05,.41-.08,.6-.15,.17-.06,.34-.09,.51-.14,.13-.04,.25-.12,.37-.2,.08-.05,.13-.06,.2,.01,.04,.05,.1,.08,.16,.14-.04,.05-.08,.08-.12,.13-.04,.05-.09,.1-.1,.15-.02,.08-.06,.14-.1,.22-.07,.14-.15,.24-.33,.25-.07,0-.13,.06-.15,.14-.02,.1-.08,.14-.17,.15-.13,.01-.2,.08-.2,.21,0,.08-.03,.14-.13,.16-.05,.01-.08,.06-.12,.09-.04,.04-.09,.07-.14,.1-.04,.03-.08,.07-.11,.11-.1,.14-.19,.29-.4,.28-.09,0-.14,.05-.16,.14,0,.03-.02,.07-.01,.1,.06,.26-.13,.37-.32,.47-.03,.02-.06,.04-.09,.06-.07,.05-.13,.13-.21,.16-.19,.09-.33,.23-.53,.3-.09,.03-.18,.1-.24,.17-.06,.08-.14,.11-.22,.13-.14,.04-.27,.09-.38,.19-.03,.03-.08,.06-.12,.07-.18,.05-.32,.16-.47,.26-.08,.05-.18,.08-.27,.12-.24,.12-.47,.27-.71,.37-.28,.12-.53,.3-.84,.35-.14,.02-.27,.06-.4,.1-.04,.01-.1,.04-.12,.07-.06,.14-.19,.17-.31,.16-.22-.02-.35,.11-.49,.23-.03,.03-.07,.06-.12,.07-.11,.03-.23,.02-.27,.15,0,0-.02,.01-.03,.02-.13,.06-.27,.12-.4,.18-.01,0-.03,0-.03,.01-.12,.16-.31,.12-.48,.13-.05,0-.12-.01-.16,.01-.28,.18-.57,.1-.87,.09-.2,0-.37-.09-.57-.13-.06-.01-.15-.02-.18,.02-.14,.13-.32,.12-.49,.13-.18,0-.36-.02-.53-.13-.12-.07-.28-.08-.43-.11-.09-.02-.16-.04-.22-.12-.08-.12-.21-.21-.29-.34-.07-.13-.23-.18-.37-.22-.07-.02-.12-.07-.18-.1-.14-.09-.22-.26-.4-.3-.15-.16-.37-.2-.56-.29-.04-.02-.08-.05-.11-.08-.01-.01-.02-.04-.03-.04-.16-.03-.27-.16-.42-.23-.04-.02-.1-.03-.13-.06-.15-.17-.37-.22-.56-.32-.07-.04-.14-.08-.21-.12-.03-.02-.06-.05-.09-.05-.25-.05-.4-.25-.59-.39-.05-.03-.11-.07-.15-.06-.1,.01-.17-.04-.24-.1-.04-.03-.09-.06-.14-.09-.23-.11-.45-.22-.63-.41-.03-.03-.05-.08-.08-.11-.06-.06-.11-.14-.19-.17-.1-.04-.16-.09-.22-.16-.04-.05-.09-.09-.14-.13-.02-.02-.06-.03-.07-.05-.12-.18-.31-.28-.48-.4-.13-.09-.22-.24-.33-.36-.08-.09-.17-.19-.26-.28-.18-.19-.36-.38-.54-.57-.05-.05-.11-.09-.17-.13-.15-.08-.24-.21-.35-.33-.08-.09-.19-.15-.28-.23-.15-.13-.31-.26-.45-.4-.23-.23-.43-.49-.71-.68-.05-.03-.09-.09-.1-.14-.07-.27-.27-.46-.47-.65-.16-.15-.35-.27-.47-.46,0,0-.01-.02-.02-.03-.17-.05-.17-.19-.16-.32,0-.14-.03-.26-.09-.39-.08-.18-.11-.39-.16-.58-.02-.07-.07-.14-.1-.21-.01-.02-.03-.05-.04-.07-.04-.21-.17-.39-.27-.58-.09-.17-.13-.34-.12-.52,0-.08-.04-.17-.08-.24-.04-.07-.06-.13-.04-.21,0-.03,.01-.07,.01-.1-.02-.25-.03-.5-.05-.75,0-.06-.07-.12-.1-.17Z"/>
      <path class="cls-2" d="M106.51,24.15c.01-.16,.03-.34,.05-.51,.02-.11,.05-.23,.09-.33,.07-.17,.1-.33,.04-.51-.03-.07-.01-.16,.01-.24,.04-.13,.03-.25-.01-.37-.03-.07-.05-.16-.04-.24,.02-.18,.07-.36,.1-.54,.02-.09,.03-.18,.03-.27,.01-.24,.02-.47,.02-.71,0-.11,0-.22-.08-.31-.02-.02-.03-.09,0-.11,.15-.15,.07-.33,.02-.48-.06-.18-.1-.36-.07-.54,.04-.27,0-.54-.02-.81-.03-.26,0-.51,.03-.76,0-.05,0-.11-.02-.15-.05-.09-.16-.11-.25-.05-.18,.13-.33,.29-.47,.46-.04,.05-.05,.12-.06,.18-.04,.13-.11,.23-.22,.32-.13,.12-.26,.25-.27,.45,0,.16-.08,.31-.24,.4-.08,.05-.12,.13-.11,.24,.03,.21-.06,.37-.22,.5-.06,.05-.11,.12-.17,.18-.13,.14-.27,.28-.4,.41-.08,.08-.17,.16-.26,.24-.19,.15-.41,.19-.64,.25-.02,0-.05,0-.07,.01-.08,.04-.08,.16-.2,.15-.1,0-.16,.04-.24,.09-.06,.04-.16,.04-.24,.05-.08,.02-.16,.03-.24,.05-.04,0-.08,.02-.12,.03,0,0-.01,0-.02,0-.1,.03-.19,.07-.29,.09-.1,.02-.18,.07-.26,.14-.06,.05-.16,.07-.24,.08-.07,0-.13-.07-.13-.16,0-.03,0-.07,0-.1-.02-.07-.06-.12-.14-.09-.08,.03-.13,0-.17-.06-.14-.16-.29-.32-.43-.48-.02-.03-.02-.08-.04-.11-.04-.1-.09-.2-.13-.3-.01-.03-.04-.06-.04-.09-.02-.18-.04-.35-.05-.53,0-.03,.02-.07,0-.08-.16-.21-.09-.45-.12-.67,0-.1-.02-.19-.04-.29,0-.03-.01-.06-.01-.08,.02-.15,.04-.31,.05-.46,0-.09,.03-.17,.11-.23,.07-.06,.11-.15,.1-.25-.01-.13,.02-.22,.13-.32,.11-.09,.25-.19,.24-.36,0-.02,.01-.03,.02-.05,.1-.09,.15-.21,.19-.34,.01-.05,.09-.09,.14-.12,.17-.08,.29-.21,.35-.39,.02-.05,.06-.1,.1-.14,.11-.1,.24-.19,.29-.34,0-.02,.03-.05,.06-.06,.15-.04,.24-.17,.36-.25,.06-.04,.13-.09,.19-.13,.11-.08,.22-.15,.3-.26,.1-.14,.23-.28,.42-.32,.02,0,.04-.03,.06-.04,.17-.13,.35-.25,.54-.35,.08-.04,.14-.1,.21-.16,.11-.08,.2-.18,.34-.21,.02,0,.04-.02,.04-.03,.09-.13,.23-.17,.38-.19,.04,0,.08-.02,.11-.05,.22-.19,.51-.27,.76-.41,.02-.01,.06-.02,.09-.02,.09,0,.17-.02,.24-.09,.03-.03,.09-.04,.13-.06,.07-.04,.14-.08,.21-.12,.04-.02,.07-.05,.11-.05,.1-.02,.19-.06,.27-.13,.03-.03,.08-.04,.13-.05,.02,0,.04,0,.05,0,.15-.11,.34-.12,.52-.17,.1-.03,.19-.06,.29-.09,.04-.01,.09,0,.12-.03,.16-.11,.36-.12,.54-.14,.03,0,.07,0,.09-.02,.11-.15,.31-.13,.46-.2,.07-.04,.17-.04,.26-.05,.19-.01,.38-.02,.57-.03,.05,0,.1-.02,.13-.05,.1-.07,.21-.08,.32-.09,.25-.02,.51-.02,.77-.03,.12,0,.25,0,.37,.02,.17,.05,.31,0,.47-.04,.11-.03,.23-.07,.34-.07,.44,0,.88,0,1.32,.02,.12,0,.25,.04,.37,.06,.08,0,.15,0,.23,0,.07,0,.15,0,.21,.04,.16,.11,.33,.12,.51,.13,.08,0,.15,.03,.19,.1,.05,.08,.04,.15-.03,.22-.15,.15-.33,.26-.53,.34-.11,.04-.21,.1-.3,.18-.15,.13-.32,.26-.51,.35-.13,.06-.3,.08-.45,.09-.08,0-.12,.05-.18,.08-.16,.08-.28,.22-.48,.23-.11,0-.23,.03-.33,.12-.04,.04-.12,.05-.18,.04-.09,0-.16,.02-.23,.07-.19,.13-.4,.22-.63,.28-.12,.03-.22,.1-.33,.16-.04,.02-.07,.05-.11,.06-.19,.07-.35,.19-.51,.31-.16,.12-.33,.24-.5,.35-.02,.02-.05,.03-.08,.03-.15,0-.24,.11-.35,.19-.1,.08-.2,.18-.32,.25-.14,.09-.21,.23-.17,.37,.05,.22,0,.44,.02,.65,.01,.25-.02,.51,.05,.76,.03,.11,0,.24-.02,.36-.01,.15-.03,.3-.04,.45,0,.05,.04,.1,.05,.16,.02,.11,.03,.22,.05,.33,.03,.16-.03,.31-.09,.46-.03,.08-.03,.18-.04,.27,0,.02,0,.05,.02,.07,.14,.12,.09,.3,.13,.45,.02,.06,.03,.11,.04,.17,.03,.12,.05,.25,.07,.37,0,.04,0,.08-.02,.12-.12,.27-.14,.55,0,.82,.01,.03,.02,.07,.02,.1,0,.23,0,.46,0,.69,0,.22,.01,.44,.03,.65,.01,.12,.05,.23,.07,.35,0,.03,0,.06,0,.08-.15,.26-.13,.55-.15,.83-.01,.18-.03,.37-.01,.55,0,.12,.06,.23,.09,.35,.08,.26,.06,.53,.01,.79,0,.01,0,.03,0,.03-.18,.16-.14,.38-.16,.58-.03,.25-.04,.51-.06,.76,0,.08-.02,.17-.06,.23-.06,.09-.1,.18-.11,.29,0,.03-.01,.06-.03,.08-.19,.11-.18,.32-.26,.48-.03,.07-.05,.14-.12,.19-.03,.03-.06,.07-.08,.11-.04,.08-.05,.17-.14,.21-.01,0-.03,.03-.03,.04,0,.17-.12,.3-.19,.44-.09,.18-.24,.34-.4,.48-.11,.09-.19,.2-.29,.3-.1,.09-.2,.17-.3,.26-.08,.06-.15,.13-.23,.19-.01,.01-.02,.03-.03,.04-.08,.11-.22,.07-.32,.13-.1,.06-.16,.17-.3,.16-.03,0-.06,0-.08,.02-.09,.07-.18,.14-.28,.2-.08,.05-.17,.08-.25,.12-.07,.04-.15,.07-.21,.12-.2,.14-.4,.29-.67,.28-.18,0-.28,.12-.38,.22-.17,.17-.32,.34-.51,.48-.05,.04-.1,.1-.15,.15-.13,.13-.32,.16-.48,.22-.1,.04-.18,.11-.27,.15-.16,.08-.28,.24-.47,.26-.03,0-.06,.02-.08,.04-.06,.08-.15,.12-.25,.12-.02,0-.04,0-.05,.02-.1,.14-.26,.11-.4,.14-.07,.01-.13,.05-.19,.08-.04,.02-.08,.04-.13,.06-.07,.03-.15,.07-.22,.1-.04,.02-.08,.04-.12,.04-.15,.01-.31,.03-.46,.03-.11,0-.23,0-.31,.1-.01,.02-.04,.03-.06,.03-.25,.05-.5,.15-.77,.12-.11-.01-.22-.04-.33-.08-.2-.07-.42-.08-.62-.03-.24,.05-.47,0-.7-.03-.08-.01-.16,0-.22-.04-.13-.07-.26-.13-.4-.18-.02,0-.03-.05-.04-.07-.04-.08-.08-.16-.13-.24-.02-.03-.07-.04-.11-.04-.05,0-.09,0-.14,0-.18,.01-.18,.01-.21-.16-.01-.06-.04-.14-.09-.18-.05-.05-.06-.11-.07-.17-.05-.27,.04-.54,.06-.81,0-.02,0-.05,.02-.06,.16-.18,.15-.4,.15-.62,0-.14,0-.28,.01-.42,0-.06,.04-.12,.07-.18,.02-.04,.07-.07,.08-.11,.05-.22,.22-.36,.34-.54,.02-.03,.06-.05,.09-.08,.06-.04,.11-.09,.17-.11,.14-.06,.28-.13,.43-.16,.16-.04,.33-.06,.48-.16,.11-.07,.24-.11,.36-.14,.11-.02,.22-.01,.33-.02,.15,0,.3,0,.44-.02,.08,0,.16-.02,.23-.09,.03-.03,.08-.05,.12-.06,.09-.02,.17-.04,.22-.13,.02-.03,.09-.05,.14-.05,.1,0,.19-.02,.26-.09,.01-.02,.04-.03,.06-.04,.2-.03,.33-.18,.5-.26,.1-.05,.2-.09,.3-.13,.05-.02,.1-.06,.15-.08,.07-.04,.13-.09,.21-.12,.15-.06,.3-.11,.45-.17,.02,0,.03-.02,.05-.02,.2,0,.34-.14,.5-.21,.03-.01,.07-.04,.08-.06,.04-.08,.1-.09,.18-.1,.08,0,.13-.04,.15-.12,.04-.1,.1-.19,.23-.19,.02,0,.04,0,.05-.01,.14-.09,.29-.18,.43-.27,.08-.05,.16-.12,.25-.13,.19-.03,.31-.13,.43-.25,.14-.15,.33-.22,.51-.32,.09-.05,.21-.08,.31-.13,.05-.03,.11-.08,.13-.13,.05-.1,.09-.2,.22-.23,.02,0,.05-.04,.07-.06,.06-.07,.11-.16,.18-.21,.15-.11,.29-.23,.41-.37,.03-.04,.06-.08,.07-.13,.02-.08,.07-.14,.13-.2,.14-.11,.27-.24,.43-.37Z"/>
    </g>
    <path class="cls-2" d="M184.75,19.73c-.06,.05-.14,.09-.21,.14-.06,.03-.11,.07-.15,.12-.04,.05-.09,.09-.13,.13-.03,.03-.06,.07-.09,.1-.03,.04-.06,.08-.1,.11-.07,.05-.11,.11-.12,.2,0,.12-.06,.22-.14,.3-.1,.1-.14,.21-.11,.34,.03,.15-.03,.26-.16,.33-.06,.03-.1,.09-.16,.12-.07,.04-.15,.07-.22,.09-.14,.03-.15,.04-.18,.16-.01,.05-.03,.1-.05,.17-.05-.03-.07-.04-.09-.06-.11-.07-.12-.07-.22,0-.03,.03-.08,.05-.12,.06-.13,.05-.27,.08-.38,.18-.07,.07-.18,.1-.27,.15-.11,.06-.22,.02-.32,0-.15-.03-.3,0-.43,.03-.24,.07-.46,.09-.66-.06-.07-.05-.14-.07-.23-.06-.1,0-.21,0-.31,0-.05-.09-.06-.2-.18-.23-.01,0-.01-.06-.02-.1-.11,.08-.2,.06-.32,0-.09-.05-.2-.04-.26-.14,0-.01-.04-.02-.06-.02-.24-.02-.45-.09-.63-.24-.15,0-.24-.14-.38-.18-.13-.03-.27-.07-.4-.11-.02,0-.04-.01-.07-.02-.22-.1-.44-.16-.69-.13-.11-.07-.27,.04-.36-.12-.08,.09-.15,.06-.24,.03-.1-.04-.22-.03-.33-.04-.08,0-.15-.02-.21-.09-.06-.05-.17-.06-.25-.08-.07-.01-.14-.02-.2-.02-.04,0-.09-.03-.12-.02-.11,.05-.18,0-.24-.08-.08,.04-.15,.06-.22-.01,0,0-.01,0-.02,0-.11,.06-.23-.04-.34,0-.1,.04-.22-.04-.31,.04-.08-.06-.18,0-.25-.03-.13-.04-.24,.06-.36,.02-.08,.07-.16,.03-.23,0-.18,.15-.24,.33-.24,.54,0,.35,0,.7,0,1.04,0,.16,0,.32,0,.49,0,.07-.03,.12-.1,.16-.16,.09-.26,.22-.23,.42,.01,.09,0,.19,0,.29,0,.22,.01,.44,.01,.66,0,.25-.01,.51-.02,.76,0,.05-.02,.1,0,.15,.05,.19,.03,.39,.01,.58-.02,.19-.04,.39-.05,.59,0,.09-.02,.18-.06,.27-.03,.08-.08,.2,.01,.3,.02,.02,.02,.08,0,.11-.09,.26-.06,.53-.09,.8-.03,.3,.01,.59-.01,.89,0,.02,0,.05-.01,.07-.15,.2-.1,.44-.11,.67,0,.07,0,.15,0,.22,0,.19,0,.37-.02,.56,0,.09-.02,.18-.08,.27-.06,.08-.06,.2-.07,.31,0,.15-.05,.3-.1,.44-.02,.05-.04,.09-.08,.12-.06,.05-.09,.12-.1,.19-.01,.09-.02,.18-.04,.27,0,.03-.01,.07-.03,.08-.12,.04-.11,.14-.14,.23,0,.03-.02,.07-.05,.09-.17,.1-.23,.27-.29,.43-.04,.11-.08,.21-.13,.31,0,.02-.05,.03-.07,.05-.09,.07-.19,.13-.28,.2-.08,.06-.08,.08-.02,.16,.03,.04,.04,.09,.04,.13,0,.01-.07,.03-.1,.03-.06,0-.12,0-.13-.08-.05-.26-.25-.4-.44-.56-.09-.08-.18-.17-.28-.25-.11-.09-.22-.18-.32-.27-.03-.03-.06-.07-.08-.1-.04-.09-.07-.17-.11-.26-.02-.05-.05-.1-.06-.16-.03-.13-.04-.26-.17-.35-.05-.04-.05-.14-.06-.22-.02-.15-.03-.3-.04-.45-.03-.39-.06-.78-.09-1.18,0-.06,0-.11-.01-.17-.02-.26-.06-.51-.08-.77,0-.15,.02-.3,.03-.45,.01-.11,.03-.21-.07-.3-.05-.04-.03-.1,.01-.15,.1-.13,.1-.25,.01-.38-.08-.11-.08-.12,0-.23,.09-.13,.09-.27,.02-.4-.04-.07-.02-.12,0-.19,.03-.18,.04-.35,.05-.53,0-.14,0-.28,0-.42,0-.05,.01-.1,.03-.15,.06-.12,.09-.22,.01-.35-.03-.05,0-.14,0-.22,0-.15,0-.3-.01-.45,0-.05,0-.1,0-.15,.01-.16,.02-.32,.03-.49,0-.03-.02-.06-.03-.1-.02-.08-.04-.16-.06-.25-.02-.09-.02-.18-.06-.26-.15-.32-.12-.66-.13-1,0-.16-.03-.32-.04-.48-.01-.11,0-.23-.03-.33-.05-.16,0-.3,.05-.45,.04-.12,.04-.23-.09-.32-.02,0-.05,0-.08,.02-.09,.03-.16,0-.21-.07-.05-.07-.11-.09-.19-.08-.12,.01-.23,0-.35,0-.19,.02-.37-.02-.55-.06-.04,0-.09-.02-.12,0-.1,.08-.22,.06-.33,.07-.11,.01-.22,.03-.33,.04-.05,0-.09,0-.14,0-.11,0-.24-.02-.32,.03-.17,.1-.36,.08-.53,.14-.1,.03-.2,.05-.29,.1-.1,.05-.2,.08-.31,.09-.11,0-.2,.02-.28,.12-.08,.1-.22,.15-.35,.21-.07,.03-.15,.04-.21,.12-.02,.03-.07,.04-.1,.05-.1,.03-.2,.05-.32,.08-.09,.11-.18,.24-.28,.36,0,0,0,.01-.01,.01-.21,.09-.32,.29-.47,.44-.01,.01-.03,.02,0,0-.04,.14-.06,.26-.1,.36-.05,.13-.19,.15-.31,.2-.05,.02-.09,.03-.13,.07-.04,.04-.12,.07-.18,.08-.11,.01-.22,0-.33,0-.16,0-.33-.01-.46,.05-.12,.05-.23,.1-.35,.14-.04,.01-.09,.1-.08,.14,.04,.14-.08,.22-.1,.33-.01,.06-.04,.13-.06,.19-.02,.07-.06,.13-.09,.2-.01,.03-.04,.06-.05,.09-.07,.19-.16,.38-.19,.58,0,.04-.04,.1-.08,.12-.09,.04-.1,.11-.1,.19,0,.08-.04,.15-.06,.23-.02,.08-.03,.16-.04,.25-.01,.14-.02,.28-.16,.37-.04,.02-.04,.1-.05,.15-.02,.13,0,.27-.05,.38-.09,.17-.09,.34-.1,.52,0,.05-.04,.1-.07,.15-.02,.03-.04,.07-.06,.1-.05,.07-.1,.15-.15,.22-.02,.03-.05,.05-.06,.08-.04,.09-.06,.19-.16,.25-.03,.02-.03,.07-.03,.11,0,.07,0,.15,0,.22,0,.03,0,.08-.01,.1-.18,.2-.2,.47-.34,.68-.06,.09-.15,.15-.22,.23-.02,.02-.06,.05-.07,.07-.03,.22-.22,.36-.31,.56-.01,.03-.06,.05-.09,.08-.04,.03-.07,.07-.1,.1,0,.01,0,.04-.02,.04-.23,.12-.35,.36-.57,.5-.1,.07-.19,.16-.34,.16-.06,0-.13,.04-.13,.13,0,.13-.07,.22-.19,.29-.18,.12-.35,.25-.55,.33-.01,0-.02,.01-.03,.01-.13,0-.24,.07-.36,.13-.12,.07-.25,.11-.37,.19-.07,.05-.16,.1-.26,.05-.02,0-.08,.02-.09,.05-.03,.08-.09,.08-.17,.1-.19,.04-.37,.09-.56,.14-.05,.02-.1,.06-.15,.09-.03,.02-.06,.05-.09,.04-.13-.04-.2,.04-.27,.11-.04,.05-.08,.08-.15,.05-.01,0-.04,0-.05,0-.12,.13-.29,.06-.43,.07-.15,.01-.3,0-.45,.01-.08,0-.14,.04-.19,.12-.09,.15-.21,.27-.43,.25-.21-.02-.43,0-.64,0-.03,0-.07,0-.1,0-.13,0-.25,.01-.38,.02-.09,0-.18,.02-.27,.04-.12,.02-.22,.1-.35,.03,0,0-.01,0-.02,0-.18,.07-.36,0-.53,0-.08,0-.17-.01-.25-.02-.22-.01-.45-.02-.68-.04-.03,0-.06,0-.09-.02-.07-.03-.14-.06-.22-.08-.07-.01-.14,0-.24,0-.09,.07-.25,.09-.36,0-.08-.06-.16-.07-.24-.07-.25,.02-.41-.12-.55-.29-.09-.11-.19-.2-.3-.3-.07-.07-.12-.14-.09-.25,.03-.11,.03-.23,.03-.35,0-.11,.04-.2,.15-.24,.03-.01,.04-.04,.07-.05,.14-.11,.14-.1,.04-.25-.09-.14-.13-.3-.11-.47,0-.07,.04-.12,.12-.12,.21,0,.31-.16,.45-.26,.13-.1,.25-.21,.36-.33,.09-.09,.2-.11,.31-.13,.13-.03,.27-.02,.35-.16,.01-.02,.06-.03,.09-.04,.11-.04,.21-.09,.32-.13,.04-.02,.09-.02,.14-.03,.11-.03,.22-.05,.34-.08,.06-.01,.11-.03,.17-.04,.17-.02,.33-.04,.5-.07,.05,0,.09-.07,.13-.07,.16,.02,.29-.1,.45-.08,.15,.01,.3,0,.45,0,.15,0,.31,0,.45-.08,.03-.02,.06-.03,.1-.04,.16-.02,.32-.04,.48-.06,.12-.01,.25,0,.31-.14,0,0,0,0,.01-.01,.19-.03,.3-.18,.46-.25,.06-.02,.12-.04,.16-.1,.02-.03,.08-.04,.12-.05,.08,0,.16,0,.24,0,.18,0,.22-.05,.22-.22,0-.03,0-.06,0-.08,.17-.17,.36-.27,.61-.25,.05,0,.11-.03,.16-.04,.09-.03,.19-.06,.28-.1,.04-.02,.09-.04,.11-.07,.05-.08,.12-.1,.2-.12,.19-.03,.32-.15,.34-.33,.03-.25,.21-.39,.38-.54,.04-.03,.07-.06,.1-.09,.07-.06,.14-.14,.22-.19,.07-.04,.14-.07,.17-.16,0-.03,.05-.04,.08-.06,.03-.02,.06-.03,.08-.06,.1-.12,.19-.25,.34-.34,.16-.1,.27-.25,.34-.43,.02-.06,.07-.11,.11-.16,0-.01,.04-.02,.04-.03,.01-.19,.22-.29,.24-.47,0-.01,0-.02,0-.03,.08-.14,.19-.26,.19-.43,0-.06,.1-.09,.13-.16,.08-.19,.19-.36,.27-.55,.05-.11,.06-.24,.09-.37,.01-.09,0-.18,.02-.27,0-.05,.04-.1,.05-.16,.03-.07,.07-.15,.07-.22,0-.38,0-.76,.01-1.15,0-.18-.01-.37,.07-.55,.04-.09,.03-.21,.03-.32,0-.1-.01-.2,.09-.28,.03-.02,.04-.07,.05-.1,.03-.08,.04-.15,.14-.18,.03-.01,.06-.08,.06-.12,0-.13-.01-.27-.02-.4,0-.08,0-.17,0-.25,0-.12,0-.25,0-.37,0-.26,0-.53-.01-.79,0-.15,0-.3,0-.46,0-.07-.02-.14-.08-.19-.05-.04-.07-.11-.08-.18-.02-.07-.07-.13-.1-.19-.09-.15-.24-.17-.39-.17-.09,0-.15-.03-.22-.08-.12-.08-.26-.12-.39-.18-.04-.02-.1-.03-.12-.06-.06-.1-.16-.1-.25-.11-.08-.01-.13,.02-.19,.07-.19,.18-.41,.28-.68,.28-.14,0-.27,.07-.33,.2-.04,.09-.09,.14-.18,.16-.02,0-.04,0-.05,.02-.17,.12-.36,.16-.57,.17-.22,.01-.45,.03-.65-.04-.16-.05-.31-.14-.47-.2-.03-.01-.05-.05-.06-.07-.06-.13-.11-.26-.15-.39,0-.03,.02-.09,.04-.12,.08-.13,.12-.27,.12-.42,0-.12,.08-.19,.18-.25,.22-.13,.25-.23,.12-.44-.05-.08-.03-.14,.03-.17,.14-.08,.2-.21,.3-.32,0,0,.02-.02,.02-.02,.02-.26,.29-.39,.36-.62,.01-.04,.05-.07,.05-.11,0-.26,.25-.36,.34-.57,.12-.06,.24-.13,.37-.18,.08-.03,.16-.04,.24-.05,.11-.02,.22-.03,.25-.16,.2-.1,.29-.34,.54-.38,.02,0,.04-.02,.06-.04,.11-.13,.27-.15,.42-.17,.05,0,.11-.02,.14-.05,.08-.1,.2-.12,.31-.12,.09,0,.15-.02,.21-.09,.03-.04,.09-.06,.15-.07,.23-.04,.46-.1,.65-.24,.05-.03,.12-.04,.18-.06,.1-.04,.19-.09,.29-.12,.12-.04,.25-.05,.37-.08,.07-.01,.13-.03,.2-.05,.05-.01,.09-.03,.14-.04,.01,0,.03,0,.03,0,.22-.16,.5-.09,.74-.19,.19-.08,.39-.08,.59-.11,.16-.02,.33-.04,.49-.03,.05,0,.1-.04,.17-.07,.12,.06,.25-.02,.38-.03,.08,0,.16-.03,.24-.04,.07-.02,.16-.01,.21-.06,.13-.12,.29-.1,.44-.11,.2-.01,.39,0,.59,0,.48,0,.96-.02,1.45-.02,.22,0,.45,.03,.68,.04,.1,0,.19-.01,.29-.02,.08,0,.15,0,.23-.02,.1-.01,.18,0,.27,.04,.16,.07,.32,.1,.51,.07,.19-.03,.39,0,.59-.02,.14-.01,.27-.04,.41-.1-.18-.4-.1-.8-.1-1.19,0-.16,.01-.32,.02-.49,0-.06,.04-.1,.09-.11,.08-.01,.16-.02,.24-.03,.14-.01,.16-.03,.15-.17,0-.1,.08-.24,.18-.28,.07-.03,.12-.06,.15-.13,.03-.06,.1-.11,.15-.16,.05-.05,.11-.05,.16,0,.08,.08,.18,.08,.29,.1,.12,.02,.26,0,.35,.11,0,0,0,0,.02,0,.2,.02,.39,.07,.59,.05,.22-.02,.43,0,.64-.01,.12,0,.2,.09,.28,.16,.05,.05,.09,.06,.16,.05,.09-.01,.18-.03,.28-.03,.1,0,.18,.02,.27,.08,.15,.09,.3,.22,.52,.16,.03,.08,.05,.16,.07,.23,.02,.07,.05,.13,.13,.17,.06,.03,.1,.08,.15,.11,.07,.05,.08,.1,.04,.18-.02,.05-.03,.11-.02,.16,0,.09,.01,.18,.04,.27,.03,.09,.08,.18,.14,.26,.05,.07,.11,.13,.1,.22-.01,.16,0,.34-.11,.48-.03,.04-.06,.09,0,.14,.04,.04,.16,.04,.18-.01,.05-.12,.15-.11,.25-.11,.16,0,.31,0,.47,0,.21,0,.42,0,.63,0,.04,0,.09,0,.12,.01,.28,.12,.56,.12,.85,.11,.27,0,.53,0,.8,.03,.1,0,.2,.05,.29,.1,.07,.04,.13,.05,.2,.05,.16-.02,.32-.05,.48-.05,.18,0,.36-.03,.55,.05,.11,.04,.25,.02,.38,.02,.13,0,.25-.01,.38-.01,.04,0,.09,.01,.11,.03,.08,.08,.19,.08,.29,.09,.06,0,.13,0,.19,.01,.14,0,.27,.02,.35,.15,.08-.02,.15-.06,.24-.03,.02,0,.06-.02,.09-.03,.03,0,.06-.02,.08-.01,.08,.06,.14,.02,.2-.02,.08,.05,.16,.06,.25,.06,.22,0,.45,.06,.67,.09,.02,0,.03,.02,.05,.02,.19-.02,.33,.06,.45,.19,.07,.08,.16,.14,.29,.14,.04,0,.08,.06,.1,.1,.03,.08,.07,.1,.15,.12,.08,.02,.16,.06,.24,.09,.03,.01,.06,.04,.09,.04,.2,.04,.33,.17,.48,.29,.03,.02,.07,.06,.1,.05,.14-.03,.26,.03,.39,.05,.11,.02,.16,.07,.17,.18,.02,.19,.08,.36,.18,.54,.09,.16,.09,.35,.03,.52-.01,.03-.06,.05-.09,.07-.09,.05-.14,.12-.13,.22,0,.05,0,.1,0,.15,0,.17-.08,.28-.26,.3-.2,.02-.34,.11-.45,.27-.02,.04-.07,.05-.11,.08-.06,.04-.12,.07-.19,.11-.08-.01-.17-.02-.25-.05-.1-.03-.19-.08-.28-.13-.14-.09-.37-.1-.47,0-.06,.06-.09,.15-.14,.23-.05,.03-.12,.05-.17,.09-.14,.12-.18,.13-.38,.06,.03-.03,.05-.06,.08-.08,.03-.02,.06-.03,.1-.06-.02-.05-.03-.1-.07-.13-.04-.03-.1-.06-.16-.06-.07,0-.13,.08-.16,.21-.1,.04-.14-.04-.18-.08-.18-.01-.34-.02-.49-.03-.06,0-.1-.04-.16-.06-.08-.03-.16-.1-.26-.07-.02,0-.04,0-.05,0-.09-.05-.15-.14-.29-.12-.09,.01-.19-.07-.29-.09-.08-.02-.17-.03-.26-.03-.07,0-.14,.01-.18-.06-.02-.03-.07-.05-.1-.05-.1-.02-.2-.04-.29-.04-.19,0-.36-.05-.52-.12-.04-.02-.08-.05-.12-.07-.03-.02-.08-.05-.11-.04-.07,.02-.14-.01-.2-.01-.11,0-.23,.02-.35,.04-.02,0-.05,.01-.06,0-.14-.04-.28-.09-.43-.14-.11,.1-.25,.13-.4,.09-.32-.06-.63-.07-.95-.01-.19,.03-.38,0-.57-.05-.22-.06-.43-.06-.65,0-.12,.03-.25,.05-.37,0-.08-.03-.17-.04-.26-.04-.18,0-.36,0-.54,0-.21,0-.43,0-.64,0-.12,0-.23,0-.35,0-.26,0-.52,0-.78,0-.2,0-.41,0-.61,0-.3,0-.61-.01-.9,.03-.2,.03-.36-.07-.54-.07-.03,0-.06-.02-.08,0-.22,.11-.45,.03-.67,.04-.02,0-.05-.01-.07,0-.1,.03-.16-.02-.23-.09-.05,.03-.09,.06-.13,.09-.01,0-.03,0-.05,0-.04-.01-.07-.06-.12-.01-.07,.07-.14,.03-.2-.04-.07,.05-.15,.09-.23,.01-.02-.02-.06-.02-.08-.01-.07,.07-.13-.01-.21,0-.05,.09-.13,.11-.25,.1-.15-.02-.31,.03-.47,.03-.23,0-.46,0-.7,0-.1,0-.21,.02-.31,.02-.08,0-.15,.02-.23,0-.23-.06-.45-.02-.67,.03-.14,.03-.3,.03-.43,.13-.02,.01-.06,.01-.08,0-.14-.02-.27,0-.39,.05-.13,.05-.28,.06-.41,.12-.17,.08-.36,.05-.55,.04-.08,0-.16,.01-.23,.05-.16,.09-.32,.16-.49,.21-.02,0-.05,.02-.07,.01-.15-.08-.28,.03-.42,.03-.03,0-.07,.02-.1,.02-.16,0-.27,.06-.32,.21-.01,.04-.06,.06-.08,.09,.04,.02,.08,.06,.13,.07,.34,.14,.43,.44,.5,.75,.05,.21,.04,.42,.01,.63-.01,.11,.02,.22,.02,.34-.01,.3,.02,.6-.08,.88,0,.01-.01,.03,0,.03,.08,.13,0,.23-.04,.35-.04,.12-.08,.24-.16,.33-.01,.02-.01,.04-.02,.07,.14,.04,.27,.09,.43,.14,.04-.03,.1-.06,.15-.11,.15-.15,.33-.21,.55-.21,.04,0,.09,0,.12-.02,.17-.12,.39-.11,.58-.16,.03,0,.08,0,.1-.02,.12-.11,.28-.11,.42-.15,.11-.03,.22-.03,.3-.12,.03-.03,.09-.04,.14-.05,.09-.03,.2,0,.27-.1,0,0,.02-.01,.03-.01,.21,0,.39-.07,.58-.13,.09-.03,.2,0,.29-.02,.24-.04,.48-.1,.71-.14,.1-.02,.2-.01,.29-.01,.05,0,.09,0,.14,0,.21-.04,.42-.09,.63-.13,.02,0,.05,0,.07,0,.1,.02,.17-.02,.21-.11,.07,.03,.13,.05,.21,.02,.13-.05,.27-.04,.41-.05,.3-.02,.59-.02,.88-.11,.12-.03,.25-.06,.38-.03,.05,.01,.11-.01,.17-.02,.34-.02,.68-.06,1.03-.07,.52-.01,1.04,0,1.57,0,.18,0,.37,0,.55,.02,.11,.01,.21,.06,.32,.08,.17,.03,.35,.04,.52,.05,.16,.01,.32,.03,.47,.1,.08,.04,.18,.04,.27,.06,.29,.05,.57,.13,.86,.09,.03,0,.06,0,.09,0,.03,0,.07,.02,.1,.03,0,.06,0,.11,0,.17,.06,.03,.11,.09,.17-.01,0-.02,.04-.03,.07-.03,.22,0,.45,0,.67,.01,.08,0,.17,.06,.24,.1,.08,0,.15-.01,.24,.02,.14,.05,.28,.08,.42,.14,.12,.05,.27,.05,.41,.06,.1,0,.2,0,.27,.1,.05-.02,.1-.04,.16-.06,.06,.09,.15,.07,.24,.07,.13,0,.25,.03,.38,.04,.27,0,.53,0,.8,.02,.11,0,.23,.03,.34,.05,.09,.02,.18,.06,.27,.06,.36,.01,.72,.02,1.08,.03,.23,0,.47-.02,.7,0,.1,0,.19,.06,.29,.09,.02,0,.04,.03,.06,.03,.2-.05,.4,.04,.61,0,.24-.03,.49-.03,.73-.04,.1,0,.2,.01,.31,.02,.04,0,.08,0,.12-.02,.05-.02,.09-.05,.15-.02,.02,0,.05,0,.07,0,.26-.1,.6-.16,.86-.14,.07,0,.12,.03,.16,.09,.02,.04,.06,.06,.1,.09,.07-.06,.12-.13,.19-.16,.07-.03,.16-.03,.24-.05,.05-.01,.11-.02,.14-.05,.15-.17,.32-.11,.5-.09,.04,.26-.03,.47-.23,.63-.07,.05-.14,.1-.2,.15-.02,.02-.03,.05-.04,.07-.01,.05-.02,.1-.03,.15-.03,.11-.1,.16-.21,.17-.05,0-.1,0-.16,.02-.06,.01-.1,.05-.11,.11,0,.11-.05,.19-.12,.25m-.02,.02h0m.02-.02s-.01,.01-.02,.02m-35.85,12.21s-.01-.07-.03-.11c-.07-.17-.31-.21-.43-.07-.02,.02-.02,.05-.02,.08,0,.04,.18,.13,.23,.13,.07,0,.15-.02,.25-.03Zm5.98-4.09c.07-.02,.12-.03,.19-.05-.03-.09-.08-.12-.15-.1-.07,.02-.07,.07-.04,.15Z"/>
  </g>
  <path class="cls-1" d="M21.73,33.93l4.85-.02-.02-4.85,4.85-.02,.02,4.85,4.85-.02-.02-4.85-4.84,.02-.02-4.85-4.85,.02,.02,4.85-4.85,.02,.02,4.84-4.85,.02-.02-4.85,4.84-.02-.02-4.85,4.84-.02-.02-4.84,4.85-.02-.02-4.85,4.85-.02,.02,4.85-4.85,.02,.02,4.84,4.85-.02,.02,4.84,4.85-.02-.02-4.85-4.85,.02-.02-4.85,4.84-.02-.02-4.85-4.85,.02-.02-4.85-4.85,.02,.02,4.85-4.84,.02,.02,4.85-4.85,.02h0l-.02-4.84-4.85,.02,.02,4.85,4.84-.02,.02,4.85-4.85,.02,.02,4.85-4.85,.02-.02-4.84,4.85-.02-.02-4.84-4.85,.02-.02-4.84,4.84-.02-.02-4.84,4.85-.02,.02,4.85,4.85-.02-.02-4.84-4.85,.02-.02-4.84,4.85-.02,.02,4.85,4.85-.02-.02-4.84-4.85,.02-.02-4.84-4.78,.02C9.66,.06-.05,9.84,0,21.85c.05,11.99,9.85,21.78,21.84,21.77l4.78-.02-.02-4.85,4.85-.02-.02-4.84-4.85,.02,.02,4.84-4.84,.02"/>
</svg>